<?xml version="1.0" encoding="UTF-8" standalone="no"?>
<!-- Generator: Adobe Illustrator 25.0.0, SVG Export Plug-In . SVG Version: 6.00 Build 0)  -->

<svg
   version="1.0"
   id="svg15246"
   x="0px"
   y="0px"
   width="8.3996935mm"
   height="8.3996935mm"
   viewBox="0 0 31.746871 31.746872"
   enable-background="new 0 0 39.6836 39.68359"
   xml:space="preserve"
   sodipodi:docname="Rogan1PSWhiteMedSmall.svg"
   inkscape:version="1.1.1 (c3084ef, 2021-09-22)"
   xmlns:inkscape="http://www.inkscape.org/namespaces/inkscape"
   xmlns:sodipodi="http://sodipodi.sourceforge.net/DTD/sodipodi-0.dtd"
   xmlns="http://www.w3.org/2000/svg"
   xmlns:svg="http://www.w3.org/2000/svg"
   xmlns:rdf="http://www.w3.org/1999/02/22-rdf-syntax-ns#"
   xmlns:cc="http://creativecommons.org/ns#"
   xmlns:dc="http://purl.org/dc/elements/1.1/"><metadata
     id="metadata40"><rdf:RDF><cc:Work
         rdf:about=""><dc:format>image/svg+xml</dc:format><dc:type
           rdf:resource="http://purl.org/dc/dcmitype/StillImage" /></cc:Work></rdf:RDF></metadata><defs
     id="defs38" /><sodipodi:namedview
     bordercolor="#666666"
     borderopacity="1.0"
     fit-margin-bottom="0"
     fit-margin-left="0"
     fit-margin-right="0"
     fit-margin-top="0"
     id="base"
     inkscape:current-layer="g35"
     inkscape:cx="15.860328"
     inkscape:cy="15.873436"
     inkscape:document-units="mm"
     inkscape:pageopacity="0.0"
     inkscape:pageshadow="2"
     inkscape:window-height="1395"
     inkscape:window-maximized="1"
     inkscape:window-width="2560"
     inkscape:window-x="0"
     inkscape:window-y="23"
     inkscape:zoom="38.14549"
     pagecolor="#ffffff"
     showgrid="false"
     units="mm"
     inkscape:pagecheckerboard="0" /><g
     id="g35"
     transform="matrix(0.8,0,0,0.8,-5.5999973e-5,0)"><path
       d="m 34.43681,19.84181 c 0,-0.6795 -0.04748,-1.35828 -0.14202,-2.03119 l -0.41997,0.05901 C 33.49211,17.9234 33.12345,17.67447 33.05137,17.29478 32.83983,16.18051 32.49512,15.11415 32.02742,14.1157 31.86785,13.77505 32.01636,13.36851 32.3485,13.19191 l 0.37996,-0.20203 C 31.68757,11.0323 30.21425,9.33735 28.42055,8.03418 26.62685,6.73101 24.55965,5.8535 22.37619,5.46849 L 22.30024,5.89924 C 22.23406,6.27458 21.88648,6.53674 21.50858,6.4872 20.96261,6.41562 20.40739,6.37412 19.84182,6.37412 c -0.56561,0 -1.12085,0.04149 -1.66683,0.11307 C 17.7971,6.53673 17.44951,6.27456 17.38334,5.89923 L 17.3074,5.46853 c -2.18341,0.38494 -4.25068,1.26244 -6.04432,2.56559 -1.7937,1.30322 -3.2671,2.9981 -4.30794,4.95568 l 0.37989,0.20199 c 0.33214,0.1766 0.48066,0.58314 0.32109,0.92379 -0.46768,0.99845 -0.81242,2.06484 -1.02398,3.17912 -0.07209,0.37969 -0.44075,0.62862 -0.82346,0.57484 l -0.4199,-0.059 c -0.09455,0.67291 -0.14203,1.35168 -0.14204,2.03119 -10e-6,3.78137 1.46946,7.41852 4.09622,10.13862 l 0.3138,-0.30304 c 0.27206,-0.26273 0.707,-0.27847 0.98315,-0.02004 0.81371,0.76151 1.72267,1.42046 2.70641,1.96265 0.33423,0.18421 0.45507,0.60638 0.28777,0.94938 l -0.19043,0.39043 c 1.99273,0.97187 4.18096,1.47706 6.39807,1.47707 2.21711,1e-5 4.40534,-0.50517 6.39801,-1.47703 l -0.1904,-0.39042 c -0.16728,-0.34302 -0.04643,-0.76518 0.2878,-0.94939 0.98372,-0.54217 1.89262,-1.20109 2.70635,-1.96262 0.27616,-0.25844 0.71111,-0.24271 0.9832,0.02002 l 0.31383,0.30304 c 2.62672,-2.72008 4.09628,-6.35722 4.09629,-10.13859 z"
       id="path3"
       inkscape:connector-curvature="0"
       style="fill:#424242" /><g
       id="g21"
       style="opacity:0.32"><g
         id="g7"><path
           d="m 32.02743,14.11566 c 0.04254,0.09076 0.07007,0.18927 0.11053,0.28113 0.13385,0.30274 0.25311,0.61267 0.36444,0.92676 0.07318,0.20734 0.14337,0.41498 0.20654,0.62683 0.10876,0.36316 0.2033,0.73206 0.2821,1.1073 0.01678,0.08038 0.04498,0.15619 0.06036,0.23706 0.07208,0.3797 0.44073,0.62866 0.82342,0.57489 l 0.41998,-0.05902 c 3.1e-4,0.0021 3.7e-4,0.0043 6.7e-4,0.0064 l 1.08002,-0.15179 C 35.11927,15.81324 34.55226,14.0619 33.7087,12.4751 l -0.98645,0.52453 c 0.0019,0.0035 0.0043,0.0067 0.0062,0.01019 l -0.45337,0.24109 c -0.27361,0.19557 -0.39343,0.55354 -0.24768,0.86475 z"
           id="path5"
           inkscape:connector-curvature="0" /></g><g
         id="g11"><path
           d="M 5.80867,17.86949 C 6.19142,17.92332 6.56007,17.67436 6.63216,17.29466 6.64754,17.21373 6.6758,17.13792 6.69259,17.05754 6.77114,16.68327 6.8655,16.31541 6.9739,15.95317 7.03756,15.73949 7.10824,15.53008 7.18209,15.32097 7.29324,15.00768 7.41213,14.69841 7.54568,14.39641 7.58615,14.30461 7.61367,14.20629 7.65615,14.11559 7.8019,13.80431 7.68215,13.4464 7.40847,13.25078 L 6.95516,13.00975 c 0.00189,-0.0035 0.00433,-0.0067 0.00623,-0.01019 L 5.97494,12.47502 c -0.84357,1.58679 -1.41059,3.33813 -1.66682,5.19012 l 1.08002,0.1518 c 3.1e-4,-0.0021 3.7e-4,-0.0043 6.7e-4,-0.0064 z"
           id="path9"
           inkscape:connector-curvature="0" /></g><g
         id="g15"><path
           d="m 13.63413,32.56928 c 0.16345,-0.33514 0.04846,-0.74249 -0.26849,-0.93304 -0.9953,-0.54724 -1.91229,-1.21253 -2.7337,-1.98396 -0.25696,-0.2337 -0.64062,-0.22717 -0.91089,-0.01709 L 9.343,30.0003 C 9.34074,29.998 9.33885,29.9953 9.33659,29.993 l -0.77271,0.74615 c 1.26471,1.30731 2.75616,2.3866 4.40856,3.19325 l 0.47388,-0.97156 c -8.5e-4,-4.3e-4 -0.0018,-6.7e-4 -0.0026,-0.0011 z"
           id="path13"
           inkscape:connector-curvature="0" /></g><g
         id="g19"><path
           d="m 29.05162,29.65234 c -0.82135,0.77136 -1.73835,1.4367 -2.73359,1.98388 -0.31702,0.19049 -0.43213,0.59796 -0.26868,0.9331 l 0.19043,0.39044 c -8.5e-4,4.3e-4 -0.0018,6.7e-4 -0.0026,0.0011 l 0.47388,0.97156 c 1.65241,-0.80664 3.14393,-1.88592 4.40864,-3.19323 -0.21863,-0.21106 -0.47217,-0.45593 -0.7727,-0.74616 -0.0023,0.0024 -0.0041,0.0049 -0.0064,0.0073 L 29.96258,29.6353 c -0.27016,-0.21013 -0.65401,-0.21673 -0.91096,0.01704 z"
           id="path17"
           inkscape:connector-curvature="0" /></g></g><path
       d="M 23.05361,1.60266 22.61763,3.80389 V 4.1333 c 0.08862,-0.37518 0.45539,-0.6286 0.836,-0.54394 2.22162,0.49409 4.3211,1.43959 6.16649,2.78035 1.84546,1.34076 3.39342,3.04536 4.54979,5.00557 0.20532,0.34796 0.0664,0.79944 -0.29035,0.98907 l -0.17084,0.09082 c 0.84356,1.58679 1.41057,3.33814 1.66679,5.19007 l 0.21173,-0.02979 c 0.39954,-0.05609 0.77631,0.22656 0.81469,0.62818 0.05042,0.52661 0.07568,1.05542 0.07568,1.58472 -10e-6,4.06311 -1.48861,7.98022 -4.16751,11.01311 -0.26788,0.30334 -0.74072,0.31213 -1.0318,0.031 -0.04639,-0.0448 -0.10687,-0.10321 -0.15863,-0.1532 -1.26471,1.30731 -2.75617,2.38659 -4.40858,3.19322 l 0.09918,0.20343 c 0.17749,0.36395 0.02374,0.81281 -0.34772,0.974 -2.08716,0.90539 -4.34058,1.3742 -6.62079,1.37419 -2.28027,-1e-5 -4.53369,-0.46882 -6.62078,-1.37423 -0.37152,-0.16119 -0.52527,-0.61005 -0.34778,-0.974 l 0.09924,-0.20343 C 11.32004,33.10579 9.82859,32.0265 8.56388,30.71919 L 8.40647,30.87123 C 8.11533,31.15236 7.64133,31.14473 7.37339,30.84144 4.69451,27.80847 3.20599,23.89135 3.206,19.82824 c 0,-0.52924 0.02521,-1.05811 0.07563,-1.58472 0.03845,-0.40161 0.41516,-0.68426 0.8147,-0.62811 L 4.30812,17.6452 C 4.56435,15.79321 5.13137,14.04187 5.97494,12.45508 L 5.8041,12.36426 C 5.44735,12.17462 5.30844,11.72315 5.5137,11.37512 6.67014,9.41498 8.21812,7.71039 10.06352,6.36964 11.90898,5.02883 14.00847,4.0834 16.23009,3.58932 16.61064,3.50467 16.97734,3.7579 17.06603,4.13308 V 3.80388 L 16.63012,1.60265 C 7.99055,3.12459 1.42083,10.64978 1.4208,19.72577 c -3e-5,10.17364 8.24732,18.42104 18.42096,18.42107 10.17364,3e-5 18.42105,-8.24732 18.42108,-18.42097 3e-5,-9.07604 -6.56965,-16.60127 -15.20923,-18.12321 z"
       id="path23"
       inkscape:connector-curvature="0"
       style="fill:#333333" /><path
       d="M 19.84191,0 C 8.8836,-3e-5 9e-5,8.88344 7e-5,19.84175 5e-5,30.80006 8.8835,39.68357 19.84182,39.68359 30.80014,39.68361 39.68364,30.80015 39.68366,19.84184 39.68369,8.88353 30.80022,3e-5 19.84191,0 Z m -1.5e-4,38.14685 C 9.66811,38.14683 1.42076,29.89943 1.42084,19.72579 1.42086,10.6498 7.99058,3.12461 16.63018,1.60265 L 16.55895,1.24291 C 16.53026,1.09747 16.57,0.94543 16.66784,0.82659 16.70343,0.78332 16.75,0.75231 16.79638,0.72161 l 0.02997,-0.02777 c 0.98212,-0.15527 1.98926,-0.2359 3.01556,-0.23589 1.02106,0 2.02307,0.07984 3.00037,0.23353 l 0.04523,0.03021 c 0.04633,0.0307 0.09283,0.06165 0.12842,0.10492 0.09827,0.1192 0.13757,0.27087 0.10895,0.41632 l -0.07123,0.35974 c 8.63958,1.52193 15.20927,9.04722 15.20925,18.12327 -1e-4,10.17364 -8.24749,18.42093 -18.42114,18.42091 z"
       id="path25"
       inkscape:connector-curvature="0"
       style="opacity:0.35" /><rect
       x="17.066"
       y="4.6367002"
       width="5.55161"
       height="9.9718103"
       id="rect27"
       style="fill:#3874cf;fill-opacity:1" /><path
       d="M 23.12481,1.20021 C 23.15347,1.05474 23.11417,0.90307 23.0159,0.78385 22.92173,0.66937 22.78497,0.59645 22.63102,0.57822 21.7114,0.4703 20.77294,0.41524 19.84185,0.41524 c -0.9315,0 -1.86995,0.05505 -2.78876,0.16296 -0.15436,0.01823 -0.29112,0.09115 -0.38529,0.20562 -0.09786,0.11885 -0.13758,0.27089 -0.10892,0.41636 l 0.50715,2.56094 V 3.75601 l 5.55161,2e-5 v 0.0051 z"
       id="path29"
       inkscape:connector-curvature="0"
       style="opacity:0.58;fill:#3874cf;fill-opacity:1" /><path
       d="M 5.80412,12.36427 C 5.44737,12.17463 5.30846,11.72316 5.51372,11.37513 6.67016,9.41499 8.21814,7.7104 10.06354,6.36965 11.909,5.02884 14.00849,4.08341 16.23011,3.58933 c 0.38055,-0.08465 0.74725,0.16858 0.83594,0.54376 v 1.39227 c -2.0932,0.40594 -4.07642,1.25432 -5.80299,2.50877 -1.7937,1.30322 -3.2671,2.9981 -4.30794,4.95568 z m -0.41603,5.4527 c -0.09387,0.67078 -0.14136,1.34741 -0.14136,2.02478 -1e-5,3.78137 1.46946,7.41852 4.09622,10.13862 l -0.93646,0.89087 c -0.29114,0.28113 -0.76514,0.2735 -1.03308,-0.02979 -2.67888,-3.03297 -4.1674,-6.95009 -4.16739,-11.0132 0,-0.52924 0.02521,-1.05811 0.07563,-1.58472 0.03845,-0.40161 0.41516,-0.68426 0.8147,-0.62811 z m 20.85164,15.14282 c -1.99268,0.97186 -4.18091,1.47704 -6.39802,1.47703 -2.21613,-10e-6 -4.40326,-0.50489 -6.39538,-1.47597 l -0.57312,1.15503 c -0.17749,0.36395 -0.02374,0.81281 0.34778,0.974 2.0871,0.9054 4.34051,1.37422 6.62078,1.37423 2.28021,1e-5 4.53363,-0.4688 6.62079,-1.37419 0.37146,-0.16119 0.52521,-0.61004 0.34772,-0.974 l -0.57049,-1.15613 c -8.5e-4,4.3e-4 -0.0018,6.7e-4 -0.0026,0.0011 M 32.72844,12.9899 C 31.68755,11.03232 30.21423,9.33737 28.42053,8.0342 26.69397,6.7798 24.71082,5.93141 22.61762,5.52539 V 4.1333 c 0.08862,-0.37518 0.45539,-0.6286 0.836,-0.54394 2.22162,0.49409 4.3211,1.43959 6.16649,2.78035 1.84546,1.34076 3.39342,3.04536 4.54979,5.00557 0.20532,0.34796 0.0664,0.79944 -0.29035,0.98907 z m 1.56706,4.82709 m -3.95499,12.16344 c 2.62672,-2.72009 4.09627,-6.35723 4.09628,-10.1386 0,-0.6795 -0.04748,-1.35828 -0.14202,-2.03119 l 1.29248,-0.19519 c 0.39954,-0.05609 0.77631,0.22656 0.81469,0.62818 0.05042,0.52661 0.07568,1.05542 0.07568,1.58472 -1e-5,4.06311 -1.48861,7.98022 -4.16751,11.01311 -0.26788,0.30334 -0.74072,0.31213 -1.0318,0.031 z"
       id="path31"
       inkscape:connector-curvature="0"
       style="opacity:0.4" /><rect
       x="17.066019"
       y="3.7611401"
       width="5.55161"
       height="0.87555999"
       id="rect33"
       style="opacity:0.58;fill:#5888d1;fill-opacity:1" /></g></svg>
