<?xml version="1.0" encoding="UTF-8" standalone="no"?>
<!-- Generator: Adobe Illustrator 23.0.3, SVG Export Plug-In . SVG Version: 6.00 Build 0)  -->

<svg
   xmlns:dc="http://purl.org/dc/elements/1.1/"
   xmlns:cc="http://creativecommons.org/ns#"
   xmlns:rdf="http://www.w3.org/1999/02/22-rdf-syntax-ns#"
   xmlns:svg="http://www.w3.org/2000/svg"
   xmlns="http://www.w3.org/2000/svg"
   xmlns:xlink="http://www.w3.org/1999/xlink"
   xmlns:sodipodi="http://sodipodi.sourceforge.net/DTD/sodipodi-0.dtd"
   xmlns:inkscape="http://www.inkscape.org/namespaces/inkscape"
   version="1.1"
   id="svg8"
   x="0px"
   y="0px"
   viewBox="0 0 120 380"
   style="enable-background:new 0 0 120 380;"
   xml:space="preserve"
   sodipodi:docname="FelinePanelDark.svg"
   inkscape:version="0.92.2 5c3e80d, 2017-08-06"><metadata
     id="metadata138"><rdf:RDF><cc:Work
         rdf:about=""><dc:format>image/svg+xml</dc:format><dc:type
           rdf:resource="http://purl.org/dc/dcmitype/StillImage" /></cc:Work></rdf:RDF></metadata><style
     type="text/css"
     id="style2">
	.st0{fill:#282828;}
	.st1{fill:#FFFFFF;}
	.st2{fill:none;stroke:#FFFFFF;}
	.st3{font-family:'AlteDIN1451Mittelschrift';}
	.st4{font-size:18px;}
	.st5{stroke:#E6E6E6;stroke-width:1.7211;stroke-linecap:round;stroke-linejoin:round;stroke-miterlimit:10;}
	.st6{stroke:#E6E6E6;stroke-width:1.7208;stroke-linecap:round;stroke-linejoin:round;stroke-miterlimit:10;}
	.st7{stroke:#E6E6E6;stroke-width:0.8604;stroke-linecap:round;stroke-linejoin:round;stroke-miterlimit:10;}
	.st8{stroke:#E6E6E6;stroke-width:1.7663;stroke-linecap:round;stroke-linejoin:round;stroke-miterlimit:10;}
	.st9{stroke:#E6E6E6;stroke-linecap:round;stroke-linejoin:round;stroke-miterlimit:10;}
	.st10{fill:#282828;stroke:#232323;stroke-miterlimit:10;}
	.st11{fill:#202020;}
	.st12{font-size:12px;}
	.st13{font-size:10px;}
	.st14{fill:none;stroke:#FFFFFF;stroke-miterlimit:10;}
</style><defs
     id="defs6"><inkscape:path-effect
       apply_no_weight="true"
       apply_with_weight="true"
       effect="bspline"
       helper_size="0"
       id="path-effect2273"
       is_visible="true"
       only_selected="false"
       steps="2"
       weight="33.333333" /><inkscape:path-effect
       apply_no_weight="true"
       apply_with_weight="true"
       effect="bspline"
       helper_size="0"
       id="path-effect2269"
       is_visible="true"
       only_selected="false"
       steps="2"
       weight="33.333333" /><linearGradient
       inkscape:collect="always"
       xlink:href="#linearGradient1717"
       id="linearGradient6559"
       gradientUnits="userSpaceOnUse"
       x1="244.32098"
       y1="46.13562"
       x2="244.29889"
       y2="48.547466" /><linearGradient
       inkscape:collect="always"
       id="linearGradient1717"><stop
         style="stop-color:#000000;stop-opacity:0.66666669"
         offset="0"
         id="stop1713" /><stop
         style="stop-color:#000000;stop-opacity:0;"
         offset="1"
         id="stop1715" /></linearGradient><linearGradient
       inkscape:collect="always"
       xlink:href="#linearGradient1717"
       id="linearGradient1695"
       gradientUnits="userSpaceOnUse"
       x1="244.32098"
       y1="46.13562"
       x2="244.29889"
       y2="48.547466" /><linearGradient
       inkscape:collect="always"
       xlink:href="#linearGradient1717"
       id="linearGradient1762"
       gradientUnits="userSpaceOnUse"
       x1="244.32098"
       y1="46.13562"
       x2="244.29889"
       y2="48.547466" /><linearGradient
       inkscape:collect="always"
       xlink:href="#linearGradient1717"
       id="linearGradient1794"
       gradientUnits="userSpaceOnUse"
       x1="244.32098"
       y1="46.13562"
       x2="244.29889"
       y2="48.547466" /></defs><sodipodi:namedview
     bordercolor="#666666"
     borderopacity="1.0"
     id="base"
     inkscape:current-layer="svg8"
     inkscape:cx="69.846442"
     inkscape:cy="65.877491"
     inkscape:document-units="mm"
     inkscape:pageopacity="0.0"
     inkscape:pageshadow="2"
     inkscape:snap-bbox="true"
     inkscape:snap-global="true"
     inkscape:window-height="1005"
     inkscape:window-maximized="1"
     inkscape:window-width="1680"
     inkscape:window-x="0"
     inkscape:window-y="1"
     inkscape:zoom="5.9500971"
     pagecolor="#ffffff"
     showgrid="true"
     units="px"><inkscape:grid
       id="grid1092"
       type="xygrid" /></sodipodi:namedview><g
     id="layer1"
     transform="translate(0,-196.45831)"
     inkscape:groupmode="layer"
     inkscape:label="Layer 1"><path
       id="rect2263"
       class="st0"
       d="m 0,196.45831 h 120 v 380 H 0 Z"
       style="fill:#282828;fill-opacity:1;stroke:none"
       inkscape:connector-curvature="0" /><g
       transform="translate(-230.97725,184.65831)"
       id="g6557"><g
         id="g6553"
         transform="translate(227.99998)"><path
           style="fill:none;stroke:#e6e6e6;stroke-width:1.72109997;stroke-linecap:round;stroke-linejoin:round;stroke-miterlimit:10;stroke-opacity:1"
           d="M 12,57.1 H 33"
           class="st1"
           inkscape:connector-curvature="0"
           id="path6529" /><path
           style="fill:none;stroke:#e6e6e6;stroke-width:1.72080004;stroke-linecap:round;stroke-linejoin:round;stroke-miterlimit:10;stroke-opacity:1"
           d="M 12,117.1 H 33"
           class="st2"
           inkscape:connector-curvature="0"
           id="path6531" /><path
           style="font-family:AlteDIN1451Mittelschrift;fill:none;stroke:#e6e6e6;stroke-width:0.86040002;stroke-linecap:round;stroke-linejoin:round;stroke-miterlimit:10;stroke-opacity:1"
           d="M 12,105.1 H 33"
           class="st3"
           inkscape:connector-curvature="0"
           id="path6533" /><path
           style="font-family:AlteDIN1451Mittelschrift;fill:none;stroke:#e6e6e6;stroke-width:0.86040002;stroke-linecap:round;stroke-linejoin:round;stroke-miterlimit:10;stroke-opacity:1"
           d="M 12,99.1 H 33"
           class="st3"
           inkscape:connector-curvature="0"
           id="path6535" /><path
           style="font-family:AlteDIN1451Mittelschrift;fill:none;stroke:#e6e6e6;stroke-width:0.86040002;stroke-linecap:round;stroke-linejoin:round;stroke-miterlimit:10;stroke-opacity:1"
           d="M 12,93.1 H 33"
           class="st3"
           inkscape:connector-curvature="0"
           id="path6537" /><path
           style="font-size:18px;fill:none;stroke:#e6e6e6;stroke-width:1.76629996;stroke-linecap:round;stroke-linejoin:round;stroke-miterlimit:10;stroke-opacity:1"
           d="M 12,87.1 H 33"
           class="st4"
           inkscape:connector-curvature="0"
           id="path6539" /><path
           style="font-family:AlteDIN1451Mittelschrift;fill:none;stroke:#e6e6e6;stroke-width:0.86040002;stroke-linecap:round;stroke-linejoin:round;stroke-miterlimit:10;stroke-opacity:1"
           d="M 12,81.1 H 33"
           class="st3"
           inkscape:connector-curvature="0"
           id="path6541" /><path
           style="font-family:AlteDIN1451Mittelschrift;fill:none;stroke:#e6e6e6;stroke-width:0.86040002;stroke-linecap:round;stroke-linejoin:round;stroke-miterlimit:10;stroke-opacity:1"
           d="M 12,75.1 H 33"
           class="st3"
           inkscape:connector-curvature="0"
           id="path6543" /><path
           style="font-family:AlteDIN1451Mittelschrift;fill:none;stroke:#e6e6e6;stroke-width:0.86040002;stroke-linecap:round;stroke-linejoin:round;stroke-miterlimit:10;stroke-opacity:1"
           d="M 12,69.1 H 33"
           class="st3"
           inkscape:connector-curvature="0"
           id="path6545" /><path
           style="font-family:AlteDIN1451Mittelschrift;fill:none;stroke:#e6e6e6;stroke-width:0.86040002;stroke-linecap:round;stroke-linejoin:round;stroke-miterlimit:10;stroke-opacity:1"
           d="M 12,111.1 H 33"
           class="st3"
           inkscape:connector-curvature="0"
           id="path6547" /><path
           style="fill:none;stroke:#e6e6e6;stroke-width:0.8617323;stroke-linecap:round;stroke-linejoin:round;stroke-miterlimit:10;stroke-dasharray:none;stroke-opacity:1"
           d="M 12,63.1 H 33"
           class="st5"
           inkscape:connector-curvature="0"
           id="path6549" /><path
           inkscape:connector-curvature="0"
           id="path6551"
           d="M 15.8,43.799999 H 29.3 V 130.3 H 15.8 Z"
           style="fill:#282828;fill-opacity:1;stroke:#232323;stroke-miterlimit:10;stroke-opacity:1" /></g><rect
         y="44.301563"
         x="244.29889"
         height="4.2459021"
         width="12.489569"
         id="rect6555"
         style="opacity:0.47058824;fill:url(#linearGradient6559);fill-opacity:1;stroke:none;stroke-width:1.17374504;stroke-miterlimit:10;stroke-dasharray:none;stroke-opacity:1" /></g><g
       id="g1693"
       transform="translate(-150.90025,184.65831)"><g
         transform="translate(227.99998)"
         id="g1689"><path
           id="path1665"
           inkscape:connector-curvature="0"
           class="st1"
           d="M 12,57.1 H 33"
           style="fill:none;stroke:#e6e6e6;stroke-width:1.72109997;stroke-linecap:round;stroke-linejoin:round;stroke-miterlimit:10;stroke-opacity:1" /><path
           id="path1667"
           inkscape:connector-curvature="0"
           class="st2"
           d="M 12,117.1 H 33"
           style="fill:none;stroke:#e6e6e6;stroke-width:1.72080004;stroke-linecap:round;stroke-linejoin:round;stroke-miterlimit:10;stroke-opacity:1" /><path
           id="path1669"
           inkscape:connector-curvature="0"
           class="st3"
           d="M 12,105.1 H 33"
           style="font-family:AlteDIN1451Mittelschrift;fill:none;stroke:#e6e6e6;stroke-width:0.86040002;stroke-linecap:round;stroke-linejoin:round;stroke-miterlimit:10;stroke-opacity:1" /><path
           id="path1671"
           inkscape:connector-curvature="0"
           class="st3"
           d="M 12,99.1 H 33"
           style="font-family:AlteDIN1451Mittelschrift;fill:none;stroke:#e6e6e6;stroke-width:0.86040002;stroke-linecap:round;stroke-linejoin:round;stroke-miterlimit:10;stroke-opacity:1" /><path
           id="path1673"
           inkscape:connector-curvature="0"
           class="st3"
           d="M 12,93.1 H 33"
           style="font-family:AlteDIN1451Mittelschrift;fill:none;stroke:#e6e6e6;stroke-width:0.86040002;stroke-linecap:round;stroke-linejoin:round;stroke-miterlimit:10;stroke-opacity:1" /><path
           id="path1675"
           inkscape:connector-curvature="0"
           class="st4"
           d="M 12,87.1 H 33"
           style="font-size:18px;fill:none;stroke:#e6e6e6;stroke-width:1.76629996;stroke-linecap:round;stroke-linejoin:round;stroke-miterlimit:10;stroke-opacity:1" /><path
           id="path1677"
           inkscape:connector-curvature="0"
           class="st3"
           d="M 12,81.1 H 33"
           style="font-family:AlteDIN1451Mittelschrift;fill:none;stroke:#e6e6e6;stroke-width:0.86040002;stroke-linecap:round;stroke-linejoin:round;stroke-miterlimit:10;stroke-opacity:1" /><path
           id="path1679"
           inkscape:connector-curvature="0"
           class="st3"
           d="M 12,75.1 H 33"
           style="font-family:AlteDIN1451Mittelschrift;fill:none;stroke:#e6e6e6;stroke-width:0.86040002;stroke-linecap:round;stroke-linejoin:round;stroke-miterlimit:10;stroke-opacity:1" /><path
           id="path1681"
           inkscape:connector-curvature="0"
           class="st3"
           d="M 12,69.1 H 33"
           style="font-family:AlteDIN1451Mittelschrift;fill:none;stroke:#e6e6e6;stroke-width:0.86040002;stroke-linecap:round;stroke-linejoin:round;stroke-miterlimit:10;stroke-opacity:1" /><path
           id="path1683"
           inkscape:connector-curvature="0"
           class="st3"
           d="M 12,111.1 H 33"
           style="font-family:AlteDIN1451Mittelschrift;fill:none;stroke:#e6e6e6;stroke-width:0.86040002;stroke-linecap:round;stroke-linejoin:round;stroke-miterlimit:10;stroke-opacity:1" /><path
           id="path1685"
           inkscape:connector-curvature="0"
           class="st5"
           d="M 12,63.1 H 33"
           style="fill:none;stroke:#e6e6e6;stroke-width:0.8617323;stroke-linecap:round;stroke-linejoin:round;stroke-miterlimit:10;stroke-dasharray:none;stroke-opacity:1" /><path
           style="fill:#282828;fill-opacity:1;stroke:#232323;stroke-miterlimit:10;stroke-opacity:1"
           d="M 15.8,43.799999 H 29.3 V 130.3 H 15.8 Z"
           id="path1687"
           inkscape:connector-curvature="0" /></g><rect
         style="opacity:0.47058824;fill:url(#linearGradient1695);fill-opacity:1;stroke:none;stroke-width:1.17374504;stroke-miterlimit:10;stroke-dasharray:none;stroke-opacity:1"
         id="rect1691"
         width="12.489569"
         height="4.2459021"
         x="244.29889"
         y="44.301563" /></g></g><g
     id="text55"
     transform="matrix(1 0 0 1 134.562 593.76)"
     style="fill:#ffffff;fill-opacity:1;stroke:none"><path
       id="path971"
       class="st1"
       d="M-92.8-220l-4.2-12.8h2l2.9,9.7l0,0l2.9-9.7h2l-4.2,12.8H-92.8z"
       style="fill:#ffffff;fill-opacity:1;stroke:none" /><path
       id="path973"
       class="st1"
       d="M-81-220v-0.8l0,0c-0.2,0.3-0.4,0.5-0.8,0.7c-0.4,0.2-0.8,0.2-1.4,0.2c-1,0-1.8-0.3-2.3-0.8   c-0.6-0.5-0.8-1.2-0.8-2s0.2-1.4,0.7-1.9s1.2-0.8,2.2-0.8h2.5v-1c0-0.8-0.6-1.2-1.8-1.2c-0.4,0-0.8,0-1.1,0.1   c-0.3,0.1-0.5,0.3-0.6,0.6l-1.4-1.1c0.7-0.9,1.7-1.4,3-1.3c1.1,0,2,0.2,2.7,0.7c0.7,0.5,1,1.2,1,2.4v6.2L-81-220L-81-220z    M-81-223.2v-0.7h-2.1c-1,0-1.6,0.4-1.5,1.1c0,0.3,0.1,0.6,0.4,0.8s0.7,0.4,1.3,0.4c0.8,0,1.3-0.1,1.6-0.3   C-81.2-222-81-222.5-81-223.2z"
       style="fill:#ffffff;fill-opacity:1;stroke:none" /><path
       id="path975"
       class="st1"
       d="M-77.2-222.2v-10.6h1.8v10.5c0,0.4,0.2,0.6,0.7,0.6h0.6v1.7h-0.8c-0.7,0-1.2-0.2-1.7-0.5   C-77-220.8-77.2-221.4-77.2-222.2z"
       style="fill:#ffffff;fill-opacity:1;stroke:none" /><path
       id="path977"
       class="st1"
       d="M-72.6-222.2v-10.6h1.8v10.5c0,0.4,0.2,0.6,0.7,0.6h0.6v1.7h-0.8c-0.7,0-1.2-0.2-1.7-0.5   C-72.4-220.8-72.6-221.4-72.6-222.2z"
       style="fill:#ffffff;fill-opacity:1;stroke:none" /><path
       id="path979"
       class="st1"
       d="M-60.9-223.9h-5.7c0,0.8,0.2,1.3,0.6,1.7c0.4,0.4,0.9,0.6,1.6,0.6c0.8,0,1.4-0.3,2-0.9l1.3,1.1   c-0.5,0.5-1,0.9-1.5,1.1c-0.6,0.2-1.2,0.3-1.8,0.3c-0.9,0-1.8-0.3-2.7-0.9c-0.9-0.6-1.3-1.9-1.3-3.7s0.4-3,1.2-3.7   c0.8-0.7,1.7-1,2.5-1c1,0,1.9,0.3,2.6,1c0.8,0.7,1.1,1.6,1.1,2.8v1.6L-60.9-223.9L-60.9-223.9z M-66.6-225.4h3.8   c0-0.7-0.2-1.2-0.6-1.6c-0.4-0.4-0.8-0.5-1.3-0.5s-1,0.2-1.4,0.5C-66.4-226.6-66.6-226.1-66.6-225.4z"
       style="fill:#ffffff;fill-opacity:1;stroke:none" /><path
       id="path981"
       class="st1"
       d="M-57-220.3l-3.3-8.8h1.9l2.2,6.4l0,0l2.2-6.4h1.9l-3.9,11c-0.3,0.7-0.6,1.2-1.1,1.4   c-0.5,0.3-1,0.4-1.5,0.4h-0.6v-1.7h0.5c0.6,0,0.9-0.3,1.1-0.8L-57-220.3z"
       style="fill:#ffffff;fill-opacity:1;stroke:none" /></g><path
     id="line161"
     class="st2"
     d="M0,24.5h120"
     style="stroke:#ffffff;stroke-opacity:1" /><path
     id="line163"
     class="st2"
     d="M0,356.5h120"
     style="stroke:#ffffff;stroke-opacity:1" /><g
     aria-label="Feline"
     transform="matrix(1 0 0 1 36.9066 17.4443)"
     style="font-size:18px;font-family:AlteDIN1451Mittelschrift;fill:#ffffff;fill-opacity:1;stroke:none;stroke-opacity:1"
     id="text21"><path
       d="M 1.3623047,0.00878906 V -12.796875 h 8.1914062 v 1.836914 H 3.3046875 v 3.7705079 h 5.3261719 v 1.7314453 H 3.3046875 v 5.46679686 z"
       style="font-size:18px;font-family:AlteDIN1451Mittelschrift;fill:#ffffff;fill-opacity:1;stroke:none;stroke-opacity:1"
       id="path1796" /><path
       d="m 17.894531,-3.8583984 h -5.677734 q 0,1.125 0.606445,1.6875 0.615235,0.5625 1.564453,0.5625 1.133789,0 2.003907,-0.8789063 l 1.327148,1.1337891 q -0.676758,0.7910156 -1.529297,1.13378904 -0.84375,0.33398437 -1.766601,0.33398437 -1.40625,0 -2.72461,-0.90527343 -1.318359,-0.91406248 -1.318359,-3.72656248 0,-2.663086 1.21289,-3.6826172 1.22168,-1.0195313 2.548829,-1.0195313 1.502929,0 2.627929,1.0458985 1.125,1.0371094 1.125,2.8037109 z m -5.677734,-1.5117188 h 3.849609 q -0.04395,-1.0283203 -0.580078,-1.5732422 -0.536133,-0.5449218 -1.344726,-0.5449218 -0.817383,0 -1.362305,0.5449218 -0.536133,0.5449219 -0.5625,1.5732422 z"
       style="font-size:18px;font-family:AlteDIN1451Mittelschrift;fill:#ffffff;fill-opacity:1;stroke:none;stroke-opacity:1"
       id="path1798" /><path
       d="M 19.836914,-2.1972656 V -12.796875 h 1.836914 v 10.4501953 q 0,0.6328125 0.685547,0.6328125 h 0.624023 v 1.72265626 h -0.808593 q -1.001953,0 -1.669922,-0.48339844 -0.667969,-0.4921875 -0.667969,-1.72265622 z"
       style="font-size:18px;font-family:AlteDIN1451Mittelschrift;fill:#ffffff;fill-opacity:1;stroke:none;stroke-opacity:1"
       id="path1800" /><path
       d="M 24.530273,0.00878906 V -9.1142578 h 1.836914 v 9.12304686 z m 0,-10.96875006 v -1.836914 h 1.836914 v 1.836914 z"
       style="font-size:18px;font-family:AlteDIN1451Mittelschrift;fill:#ffffff;fill-opacity:1;stroke:none;stroke-opacity:1"
       id="path1802" /><path
       d="M 28.801758,0.00878906 V -9.1142578 h 1.836914 v 0.9755859 h 0.03516 q 0.852539,-1.0810547 2.373047,-1.0810547 1.063477,0 2.047852,0.8085938 0.993164,0.8085937 0.993164,2.3554687 V 0.00878906 H 34.250977 V -5.4228516 q 0,-0.9228515 -0.518555,-1.4414062 -0.509766,-0.5185547 -1.274414,-0.5185547 -0.791016,0 -1.309571,0.5185547 -0.509765,0.5185547 -0.509765,1.4414062 v 5.43164066 z"
       style="font-size:18px;font-family:AlteDIN1451Mittelschrift;fill:#ffffff;fill-opacity:1;stroke:none;stroke-opacity:1"
       id="path1804" /><path
       d="m 45.492187,-3.8583984 h -5.677734 q 0,1.125 0.606445,1.6875 0.615235,0.5625 1.564454,0.5625 1.133789,0 2.003906,-0.8789063 l 1.327148,1.1337891 q -0.676758,0.7910156 -1.529297,1.13378904 -0.84375,0.33398437 -1.766601,0.33398437 -1.40625,0 -2.72461,-0.90527343 -1.318359,-0.91406248 -1.318359,-3.72656248 0,-2.663086 1.212891,-3.6826172 1.221679,-1.0195313 2.548828,-1.0195313 1.502929,0 2.627929,1.0458985 1.125,1.0371094 1.125,2.8037109 z m -5.677734,-1.5117188 h 3.849609 q -0.04395,-1.0283203 -0.580078,-1.5732422 -0.536132,-0.5449218 -1.344726,-0.5449218 -0.817383,0 -1.362305,0.5449218 -0.536133,0.5449219 -0.5625,1.5732422 z"
       style="font-size:18px;font-family:AlteDIN1451Mittelschrift;fill:#ffffff;fill-opacity:1;stroke:none;stroke-opacity:1"
       id="path1806" /></g><g
     aria-label="Freq"
     transform="matrix(1 0 0 1 7.9018 132.8953)"
     style="font-size:12px;font-family:AlteDIN1451Mittelschrift;fill:#ffffff;fill-opacity:1"
     id="text67"><path
       d="M 0.90820313,0.00585938 V -8.53125 H 6.3691406 v 1.2246094 H 2.203125 v 2.5136719 h 3.5507812 v 1.1542968 H 2.203125 v 3.64453128 z"
       style="font-size:12px;font-family:AlteDIN1451Mittelschrift;fill:#ffffff;fill-opacity:1"
       id="path1916" /><path
       d="M 7.2480469,0.00585938 V -6.0761719 h 1.2246094 v 0.6503907 h 0.023437 q 0.5683593,-0.7207032 1.5820312,-0.7207032 0.667969,0 1.271484,0.46875 l -0.884765,1.0546875 Q 10.066406,-4.921875 9.65625,-4.921875 q -0.4511719,0 -0.8203125,0.3046875 -0.3632812,0.2988281 -0.3632812,0.9667969 v 3.65624998 z"
       style="font-size:12px;font-family:AlteDIN1451Mittelschrift;fill:#ffffff;fill-opacity:1"
       id="path1918" /><path
       d="m 16.59375,-2.5722656 h -3.785156 q 0,0.75 0.404297,1.125 0.410156,0.375 1.042968,0.375 0.75586,0 1.335938,-0.5859375 l 0.884765,0.75585935 Q 16.025391,-0.375 15.457031,-0.14648437 q -0.5625,0.22265624 -1.177734,0.22265624 -0.9375,0 -1.816406,-0.60351562 -0.878907,-0.60937495 -0.878907,-2.48437505 0,-1.7753906 0.808594,-2.4550781 0.814453,-0.6796875 1.699219,-0.6796875 1.001953,0 1.751953,0.6972657 0.75,0.6914062 0.75,1.8691406 z M 12.808594,-3.5800781 H 15.375 q -0.0293,-0.6855469 -0.386719,-1.0488281 -0.357422,-0.3632813 -0.896484,-0.3632813 -0.544922,0 -0.908203,0.3632813 -0.357422,0.3632812 -0.375,1.0488281 z"
       style="font-size:12px;font-family:AlteDIN1451Mittelschrift;fill:#ffffff;fill-opacity:1"
       id="path1920" /><path
       d="m 21.304687,2.4667969 v -3.10546877 q -0.74414,0.71484374 -1.570312,0.71484374 -0.5625,0 -0.966797,-0.21679687 -0.404297,-0.22265625 -0.662109,-0.56835937 -0.257813,-0.32226563 -0.345703,-0.76171873 -0.08789,-0.4394531 -0.08789,-1.5585938 0,-1.125 0.08789,-1.5585937 0.08789,-0.4394531 0.345703,-0.7675781 0.257812,-0.3398438 0.662109,-0.5625 0.404297,-0.2285157 0.966797,-0.2285157 0.925781,0 1.570312,0.7089844 v -0.6386719 h 1.22461 v 8.5429688 z m -1.195312,-3.609375 q 0.849609,0 1.019531,-0.609375 0.175781,-0.6152344 0.175781,-1.2773438 0,-0.6621094 -0.175781,-1.2773437 -0.169922,-0.6152344 -1.019531,-0.6152344 -0.867188,0 -1.042969,0.5976563 -0.169922,0.5917968 -0.169922,1.2949218 0,0.703125 0.169922,1.2949219 0.175781,0.5917969 1.042969,0.5917969 z"
       style="font-size:12px;font-family:AlteDIN1451Mittelschrift;fill:#ffffff;fill-opacity:1"
       id="path1922" /></g><g
     aria-label="Res"
     transform="matrix(1 0 0 1 37.0255 132.8953)"
     style="font-size:12px;font-family:AlteDIN1451Mittelschrift;fill:#ffffff;fill-opacity:1"
     id="text69"><path
       d="m 2.203125,-7.3828125 v 2.5898438 h 1.9570312 q 0.7265625,0 1.0898438,-0.4042969 0.3632812,-0.4042969 0.3632812,-0.9492188 0,-0.6503906 -0.4335937,-0.9726562 Q 4.8164062,-7.3828125 4.2363281,-7.3828125 Z M 0.90820313,0.00585938 V -8.53125 H 4.2480469 q 1.0957031,0 1.734375,0.5625 0.3574218,0.3105469 0.6035156,0.7792969 0.2519531,0.46875 0.2519531,1.0429687 0,0.8261719 -0.4453125,1.4648438 -0.4394531,0.6328125 -1.2128906,0.8964843 L 7.1601562,0.00585938 H 5.625 L 3.8613281,-3.6386719 H 2.203125 v 3.64453128 z"
       style="font-size:12px;font-family:AlteDIN1451Mittelschrift;fill:#ffffff;fill-opacity:1"
       id="path1909" /><path
       d="M 12.796875,-2.5722656 H 9.0117188 q 0,0.75 0.4042968,1.125 0.4101563,0.375 1.0429684,0.375 0.75586,0 1.335938,-0.5859375 l 0.884766,0.75585935 Q 12.228516,-0.375 11.660156,-0.14648437 q -0.5625,0.22265624 -1.177734,0.22265624 -0.9375001,0 -1.8164064,-0.60351562 -0.8789062,-0.60937495 -0.8789062,-2.48437505 0,-1.7753906 0.8085937,-2.4550781 0.8144532,-0.6796875 1.6992189,-0.6796875 1.001953,0 1.751953,0.6972657 0.75,0.6914062 0.75,1.8691406 z M 9.0117188,-3.5800781 h 2.5664062 q -0.0293,-0.6855469 -0.386719,-1.0488281 -0.357422,-0.3632813 -0.896484,-0.3632813 -0.544922,0 -0.9082032,0.3632813 -0.3574219,0.3632812 -0.375,1.0488281 z"
       style="font-size:12px;font-family:AlteDIN1451Mittelschrift;fill:#ffffff;fill-opacity:1"
       id="path1911" /><path
       d="m 13.417969,-1.0078125 0.855469,-0.84375 q 0.796875,0.7792969 1.916015,0.7792969 0.521484,0 0.861328,-0.1933594 0.339844,-0.1992187 0.339844,-0.5859375 0,-0.5332031 -0.744141,-0.5976563 l -1.078125,-0.099609 q -0.755859,-0.058594 -1.253906,-0.4980469 -0.498047,-0.4394531 -0.498047,-1.2246094 0,-0.9257812 0.650391,-1.4003906 0.650391,-0.4746094 1.617187,-0.4746094 0.796875,0 1.365235,0.2285157 0.568359,0.2226562 1.019531,0.5976562 l -0.755859,0.890625 q -0.363282,-0.2460937 -0.75,-0.4042969 -0.386719,-0.1582031 -0.878907,-0.1582031 -0.585937,0 -0.814453,0.2109375 -0.228515,0.2050781 -0.228515,0.5214844 0,0.1992187 0.169922,0.3691406 0.169921,0.1699219 0.632812,0.2050781 l 1.007812,0.070312 q 0.94336,0.064453 1.353516,0.5859375 0.410156,0.515625 0.410156,1.2363282 0,0.89648432 -0.732422,1.38281245 -0.732421,0.48632812 -1.787109,0.48632812 -1.517578,0 -2.677734,-1.08398437 z"
       style="font-size:12px;font-family:AlteDIN1451Mittelschrift;fill:#ffffff;fill-opacity:1"
       id="path1913" /></g><g
     aria-label="Spc"
     transform="matrix(1 0 0 1 64.3333 132.8953)"
     style="font-size:12px;font-family:AlteDIN1451Mittelschrift;fill:#ffffff;fill-opacity:1"
     id="text85"><path
       d="M 0.1640625,-1.0957031 1.0195312,-2.0683594 Q 1.5,-1.6816406 2.1269531,-1.4472656 q 0.6269532,0.234375 1.3125,0.234375 0.7910156,0 1.2421875,-0.328125 0.4511719,-0.328125 0.4511719,-0.8613282 0,-1.0078125 -1.1132813,-1.1542968 -0.2929687,-0.035156 -0.5449218,-0.070312 -0.2519531,-0.035156 -0.5859375,-0.082031 -1.1074219,-0.1523437 -1.6875,-0.8085937 -0.58007815,-0.6621094 -0.58007815,-1.59375 0,-1.0898438 0.72656245,-1.7929688 0.7324219,-0.703125 2.0566407,-0.703125 0.7910156,0 1.4882812,0.2519531 0.6972656,0.2519532 1.2832031,0.6386719 L 5.4550781,-6.6503906 Q 4.9863281,-6.9433594 4.4472656,-7.125 3.9082031,-7.3066406 3.3457031,-7.3066406 q -0.5976562,0 -1.0136718,0.3046875 -0.4160157,0.3046875 -0.4160157,0.9140625 0,0.3632812 0.28125,0.6796875 0.28125,0.3164062 0.9316407,0.4160156 0.1699218,0.029297 0.4101562,0.064453 0.2402344,0.029297 0.5507812,0.064453 1.1953125,0.1464843 1.7636719,0.8671874 0.5742188,0.7207032 0.5742188,1.59375 0,1.1777344 -0.8144532,1.82812505 -0.8144531,0.65039062 -2.1855468,0.65039062 -1.9277344,0 -3.2636719,-1.17187497 z"
       style="font-size:12px;font-family:AlteDIN1451Mittelschrift;fill:#ffffff;fill-opacity:1"
       id="path1902" /><path
       d="M 7.6933594,2.4667969 V -6.0761719 H 8.9179688 V -5.4375 q 0.6386718,-0.7089844 1.5703122,-0.7089844 0.556641,0 0.960938,0.2285157 0.404297,0.2226562 0.667969,0.5625 0.251953,0.328125 0.339843,0.7675781 0.09375,0.4335937 0.09375,1.5585937 0,1.1191407 -0.09375,1.5585938 -0.08789,0.4394531 -0.339843,0.76171873 -0.263672,0.34570312 -0.667969,0.56835937 -0.404297,0.21679687 -0.960938,0.21679687 -0.474609,0 -0.8554685,-0.19335937 -0.375,-0.19335938 -0.7148437,-0.52148437 V 2.4667969 Z m 2.4257816,-3.609375 q 0.861328,0 1.03125,-0.5917969 0.175781,-0.5917969 0.175781,-1.2949219 0,-0.703125 -0.175781,-1.2949218 -0.169922,-0.5976563 -1.03125,-0.5976563 -0.8613285,0 -1.0312504,0.6152344 -0.1699218,0.6152343 -0.1699218,1.2773437 0,0.6621094 0.1699218,1.2773438 0.1699219,0.609375 1.0312504,0.609375 z"
       style="font-size:12px;font-family:AlteDIN1451Mittelschrift;fill:#ffffff;fill-opacity:1"
       id="path1904" /><path
       d="m 17.501953,-1.78125 0.902344,0.80859375 q -0.398438,0.45703125 -0.949219,0.75585937 -0.544922,0.29296875 -1.236328,0.29296875 -1.054687,0 -1.910156,-0.71484374 -0.84961,-0.72070313 -0.84961,-2.39062503 0,-1.6699218 0.84961,-2.390625 0.855469,-0.7265625 1.910156,-0.7265625 0.691406,0 1.236328,0.2988282 0.550781,0.2988281 0.949219,0.7558593 l -0.902344,0.8027344 q -0.515625,-0.6328125 -1.236328,-0.6328125 -1.582031,0 -1.582031,1.8925781 0,1.8867188 1.582031,1.8867188 0.726562,0 1.236328,-0.6386719 z"
       style="font-size:12px;font-family:AlteDIN1451Mittelschrift;fill:#ffffff;fill-opacity:1"
       id="path1906" /></g><g
     aria-label="2P"
     transform="matrix(1 0 0 1 12.934 191.0166)"
     style="font-size:12px;font-family:AlteDIN1451Mittelschrift;fill:#ffffff;fill-opacity:1"
     id="text89"><path
       d="M 0.39257813,0.00585938 V -1.1425781 L 3.7324219,-5.3203125 q 0.1933594,-0.2460937 0.2519531,-0.4511719 0.058594,-0.2050781 0.058594,-0.3984375 0,-0.4453125 -0.3164062,-0.8261718 -0.3164062,-0.3867188 -0.8613281,-0.3867188 -0.4980469,0 -0.8554688,0.3339844 -0.3515625,0.328125 -0.3925781,0.9023437 H 0.39257813 q 0.005859,-1.0371093 0.70898437,-1.7460937 0.703125,-0.7148438 1.6699219,-0.7148438 1.0664062,0 1.7753906,0.7207032 0.7148437,0.7148437 0.7148437,1.7285156 0,0.8671875 -0.5097656,1.5 l -2.7480468,3.4453125 h 3.2578124 v 1.21874998 z"
       style="font-size:12px;font-family:AlteDIN1451Mittelschrift;fill:#ffffff;fill-opacity:1"
       id="path1890" /><path
       d="m 7.96875,-7.3066406 v 2.7539062 h 1.921875 q 0.720703,0 1.072266,-0.4335937 0.357422,-0.4335938 0.357422,-0.9433594 0,-0.7734375 -0.556641,-1.1367187 Q 10.40625,-7.3066406 9.84375,-7.3066406 Z M 6.6738281,0.00585938 V -8.53125 h 3.0996094 q 0.4980465,0 0.9550785,0.1054687 0.46289,0.1054688 0.960937,0.4921876 0.386719,0.2988281 0.65625,0.8261718 0.269531,0.5214844 0.269531,1.2128907 0,0.9140625 -0.685546,1.7402343 Q 11.25,-3.328125 9.9375,-3.328125 H 7.96875 v 3.33398438 z"
       style="font-size:12px;font-family:AlteDIN1451Mittelschrift;fill:#ffffff;fill-opacity:1"
       id="path1892" /></g><g
     aria-label="4P"
     transform="matrix(1 0 0 1 12.934 152.9854)"
     style="font-size:12px;font-family:AlteDIN1451Mittelschrift;fill:#ffffff;fill-opacity:1"
     id="text91"><path
       d="M 0.15234375,-1.2597656 V -2.4140625 L 3.0117188,-8.53125 H 4.3769531 L 1.4882812,-2.4140625 H 3.7148438 V -4.875 h 1.2246093 v 2.4609375 H 5.625 v 1.1542969 H 4.9394531 V 0.00585938 H 3.7148438 V -1.2597656 Z"
       style="font-size:12px;font-family:AlteDIN1451Mittelschrift;fill:#ffffff;fill-opacity:1"
       id="path1885" /><path
       d="m 7.96875,-7.3066406 v 2.7539062 h 1.921875 q 0.720703,0 1.072266,-0.4335937 0.357422,-0.4335938 0.357422,-0.9433594 0,-0.7734375 -0.556641,-1.1367187 Q 10.40625,-7.3066406 9.84375,-7.3066406 Z M 6.6738281,0.00585938 V -8.53125 h 3.0996094 q 0.4980465,0 0.9550785,0.1054687 0.46289,0.1054688 0.960937,0.4921876 0.386719,0.2988281 0.65625,0.8261718 0.269531,0.5214844 0.269531,1.2128907 0,0.9140625 -0.685546,1.7402343 Q 11.25,-3.328125 9.9375,-3.328125 H 7.96875 v 3.33398438 z"
       style="font-size:12px;font-family:AlteDIN1451Mittelschrift;fill:#ffffff;fill-opacity:1"
       id="path1887" /></g><g
     aria-label="BPF"
     style="font-style:normal;font-variant:normal;font-weight:normal;font-stretch:normal;font-size:23.33333397px;line-height:10.66666698px;font-family:AlteDIN1451Mittelschrift;-inkscape-font-specification:AlteDIN1451Mittelschrift;letter-spacing:0px;word-spacing:0px;fill:#ffffff;fill-opacity:1;stroke:none"
     id="text979"
     transform="translate(0.75572535)"><path
       d="m 89.737503,152.991 v -8.53711 h 3.310547 q 1.248047,0 1.886719,0.64453 0.644531,0.63867 0.644531,1.64648 0,0.52735 -0.257813,1.01368 -0.257812,0.48632 -1.001953,0.82031 v 0.0234 q 0.703125,0.16406 1.048828,0.74414 0.345704,0.57421 0.345704,1.22461 0,1.10742 -0.708985,1.76367 -0.703125,0.65625 -1.664062,0.65625 z m 3.287109,-3.79102 h -1.992187 v 2.57227 h 1.992187 q 0.720704,0 1.054688,-0.38672 0.339844,-0.39258 0.339844,-0.89649 0,-0.5039 -0.339844,-0.89648 -0.333984,-0.39258 -1.054688,-0.39258 z m -0.117187,-3.59765 h -1.875 v 2.44921 h 1.875 q 0.697266,0 1.037109,-0.35742 0.339844,-0.35742 0.339844,-0.86719 0,-0.49218 -0.339844,-0.85546 -0.339843,-0.36914 -1.037109,-0.36914 z"
       style="font-size:12px;line-height:13.33333302px;fill:#ffffff;fill-opacity:1"
       id="path996"
       inkscape:connector-curvature="0" /><path
       d="m 98.344925,145.6785 v 2.7539 h 1.921875 q 0.7207,0 1.07227,-0.43359 0.35742,-0.43359 0.35742,-0.94336 0,-0.77344 -0.55664,-1.13672 -0.35743,-0.24023 -0.91993,-0.24023 z m -1.294922,7.3125 v -8.53711 h 3.099607 q 0.49805,0 0.95508,0.10547 0.46289,0.10547 0.96094,0.49218 0.38672,0.29883 0.65625,0.82618 0.26953,0.52148 0.26953,1.21289 0,0.91406 -0.68555,1.74023 -0.67969,0.82617 -1.99219,0.82617 h -1.968745 v 3.33399 z"
       style="font-size:12px;line-height:13.33333302px;fill:#ffffff;fill-opacity:1"
       id="path998"
       inkscape:connector-curvature="0" /><path
       d="m 104.175,152.991 v -8.53711 h 5.46094 v 1.22461 h -4.16602 v 2.51367 h 3.55079 v 1.1543 h -3.55079 v 3.64453 z"
       style="font-size:12px;line-height:13.33333302px;fill:#ffffff;fill-opacity:1"
       id="path1000"
       inkscape:connector-curvature="0" /></g><g
     aria-label="Drive"
     transform="matrix(1 0 0 1 46.7899 191.0164)"
     style="font-size:12px;font-family:AlteDIN1451Mittelschrift;fill:#ffffff;fill-opacity:1"
     id="text97"><path
       d="M 0.90820313,0.00585938 V -8.53125 H 3.8964844 q 1.7519531,0 2.6015625,1.4355469 0.3164062,0.5449219 0.3867187,1.0195312 0.070312,0.4746094 0.070312,1.8164063 0,1.4414062 -0.099609,1.9277343 Q 6.7617187,-1.8515625 6.4746094,-1.40625 6.09375,-0.80859375 5.4257812,-0.3984375 4.7636719,0.00585938 3.8144531,0.00585938 Z M 2.203125,-7.3066406 v 6.09375 h 1.5527344 q 1.0664062,0 1.5820312,-0.7441406 0.2109375,-0.3222657 0.2636719,-0.6914063 0.058594,-0.375 0.058594,-1.5644531 0,-1.1484375 -0.064453,-1.5878906 Q 5.5371094,-6.2402344 5.2792969,-6.5917969 4.7460937,-7.3066406 3.7558594,-7.3066406 Z"
       style="font-size:12px;font-family:AlteDIN1451Mittelschrift;fill:#ffffff;fill-opacity:1"
       id="path1862" /><path
       d="M 8.3730469,0.00585938 V -6.0761719 h 1.2246094 v 0.6503907 h 0.023437 q 0.5683592,-0.7207032 1.5820312,-0.7207032 0.667969,0 1.271484,0.46875 l -0.884765,1.0546875 Q 11.191406,-4.921875 10.78125,-4.921875 q -0.451172,0 -0.8203125,0.3046875 -0.3632812,0.2988281 -0.3632812,0.9667969 v 3.65624998 z"
       style="font-size:12px;font-family:AlteDIN1451Mittelschrift;fill:#ffffff;fill-opacity:1"
       id="path1864" /><path
       d="M 13.072266,0.00585938 V -6.0761719 h 1.224609 v 6.08203128 z m 0,-7.31249998 V -8.53125 h 1.224609 v 1.2246094 z"
       style="font-size:12px;font-family:AlteDIN1451Mittelschrift;fill:#ffffff;fill-opacity:1"
       id="path1866" /><path
       d="M 17.285156,0.00585938 15.058594,-6.0761719 h 1.294922 l 1.423828,4.2597657 h 0.02344 l 1.429688,-4.2597657 h 1.294922 l -2.232422,6.08203128 z"
       style="font-size:12px;font-family:AlteDIN1451Mittelschrift;fill:#ffffff;fill-opacity:1"
       id="path1868" /><path
       d="m 25.921875,-2.5722656 h -3.785156 q 0,0.75 0.404297,1.125 0.410156,0.375 1.042968,0.375 0.75586,0 1.335938,-0.5859375 l 0.884765,0.75585935 Q 25.353516,-0.375 24.785156,-0.14648437 q -0.5625,0.22265624 -1.177734,0.22265624 -0.9375,0 -1.816406,-0.60351562 -0.878907,-0.60937495 -0.878907,-2.48437505 0,-1.7753906 0.808594,-2.4550781 0.814453,-0.6796875 1.699219,-0.6796875 1.001953,0 1.751953,0.6972657 0.75,0.6914062 0.75,1.8691406 z m -3.785156,-1.0078125 h 2.566406 q -0.0293,-0.6855469 -0.386719,-1.0488281 -0.357422,-0.3632813 -0.896484,-0.3632813 -0.544922,0 -0.908203,0.3632813 -0.357422,0.3632812 -0.375,1.0488281 z"
       style="font-size:12px;font-family:AlteDIN1451Mittelschrift;fill:#ffffff;fill-opacity:1"
       id="path1870" /></g><g
     aria-label="L"
     transform="matrix(1 0 0 1 79.1078 349.895)"
     style="font-size:12px;font-family:AlteDIN1451Mittelschrift;fill:#ffffff;fill-opacity:1"
     id="text99"><path
       d="M 0.90820313,0.00585938 V -8.53125 H 2.203125 v 7.3183594 h 4.1660156 v 1.21874998 z"
       style="font-size:12px;font-family:AlteDIN1451Mittelschrift;fill:#ffffff;fill-opacity:1"
       id="path1818" /></g><g
     aria-label="R"
     transform="matrix(1 0 0 1 101.9955 349.895)"
     style="font-size:12px;font-family:AlteDIN1451Mittelschrift;fill:#ffffff;fill-opacity:1"
     id="text101"><path
       d="m 2.203125,-7.3828125 v 2.5898438 h 1.9570312 q 0.7265625,0 1.0898438,-0.4042969 0.3632812,-0.4042969 0.3632812,-0.9492188 0,-0.6503906 -0.4335937,-0.9726562 Q 4.8164062,-7.3828125 4.2363281,-7.3828125 Z M 0.90820313,0.00585938 V -8.53125 H 4.2480469 q 1.0957031,0 1.734375,0.5625 0.3574218,0.3105469 0.6035156,0.7792969 0.2519531,0.46875 0.2519531,1.0429687 0,0.8261719 -0.4453125,1.4648438 -0.4394531,0.6328125 -1.2128906,0.8964843 L 7.1601562,0.00585938 H 5.625 L 3.8613281,-3.6386719 H 2.203125 v 3.64453128 z"
       style="font-size:12px;font-family:AlteDIN1451Mittelschrift;fill:#ffffff;fill-opacity:1"
       id="path1815" /></g><g
     aria-label="L"
     transform="matrix(1 0 0 1 11.7078 349.895)"
     style="font-size:12px;font-family:AlteDIN1451Mittelschrift;fill:#ffffff;fill-opacity:1"
     id="text103"><path
       d="M 0.90820313,0.00585938 V -8.53125 H 2.203125 v 7.3183594 h 4.1660156 v 1.21874998 z"
       style="font-size:12px;font-family:AlteDIN1451Mittelschrift;fill:#ffffff;fill-opacity:1"
       id="path1812" /></g><g
     aria-label="R"
     transform="matrix(1 0 0 1 33.841 349.895)"
     style="font-size:12px;font-family:AlteDIN1451Mittelschrift;fill:#ffffff;fill-opacity:1"
     id="text105"><path
       d="m 2.203125,-7.3828125 v 2.5898438 h 1.9570312 q 0.7265625,0 1.0898438,-0.4042969 0.3632812,-0.4042969 0.3632812,-0.9492188 0,-0.6503906 -0.4335937,-0.9726562 Q 4.8164062,-7.3828125 4.2363281,-7.3828125 Z M 0.90820313,0.00585938 V -8.53125 H 4.2480469 q 1.0957031,0 1.734375,0.5625 0.3574218,0.3105469 0.6035156,0.7792969 0.2519531,0.46875 0.2519531,1.0429687 0,0.8261719 -0.4453125,1.4648438 -0.4394531,0.6328125 -1.2128906,0.8964843 L 7.1601562,0.00585938 H 5.625 L 3.8613281,-3.6386719 H 2.203125 v 3.64453128 z"
       style="font-size:12px;font-family:AlteDIN1451Mittelschrift;fill:#ffffff;fill-opacity:1"
       id="path1809" /></g><g
     aria-label="Freq"
     transform="matrix(1 0 0 1 5.3347 310.0283)"
     style="font-size:10px;font-family:AlteDIN1451Mittelschrift;fill:#ffffff;fill-opacity:1"
     id="text107"><path
       d="M 0.75683594,0.00488281 V -7.109375 H 5.3076172 v 1.0205078 H 1.8359375 v 2.0947266 h 2.9589844 v 0.961914 H 1.8359375 v 3.03710941 z"
       style="font-size:10px;font-family:AlteDIN1451Mittelschrift;fill:#ffffff;fill-opacity:1"
       id="path1853" /><path
       d="M 6.0400391,0.00488281 V -5.0634766 h 1.0205078 v 0.5419922 h 0.019531 q 0.4736328,-0.6005859 1.3183594,-0.6005859 0.5566406,0 1.0595703,0.390625 L 8.7207031,-3.8525391 Q 8.3886719,-4.1015625 8.046875,-4.1015625 q -0.3759766,0 -0.6835938,0.2539062 -0.3027343,0.2490235 -0.3027343,0.8056641 v 3.04687501 z"
       style="font-size:10px;font-family:AlteDIN1451Mittelschrift;fill:#ffffff;fill-opacity:1"
       id="path1855" /><path
       d="m 13.828125,-2.1435547 h -3.154297 q 0,0.625 0.336914,0.9375 0.341797,0.31250001 0.869141,0.31250001 0.629883,0 1.113281,-0.48828121 l 0.737305,0.62988278 q -0.375977,0.43945312 -0.84961,0.62988281 -0.46875,0.18554687 -0.981445,0.18554687 -0.78125,0 -1.513672,-0.50292969 -0.7324217,-0.5078125 -0.7324217,-2.07031247 0,-1.4794922 0.6738277,-2.0458985 0.678711,-0.5664062 1.416016,-0.5664062 0.834961,0 1.459961,0.5810547 0.625,0.5761718 0.625,1.5576172 z M 10.673828,-2.9833984 H 12.8125 q -0.02441,-0.5712891 -0.322266,-0.8740235 -0.297851,-0.3027343 -0.74707,-0.3027343 -0.454101,0 -0.756836,0.3027343 -0.297851,0.3027344 -0.3125,0.8740235 z"
       style="font-size:10px;font-family:AlteDIN1451Mittelschrift;fill:#ffffff;fill-opacity:1"
       id="path1857" /><path
       d="m 17.753906,2.0556641 v -2.58789066 q -0.620117,0.59570312 -1.308594,0.59570312 -0.468749,0 -0.805664,-0.18066406 -0.336914,-0.18554688 -0.551757,-0.47363281 -0.214844,-0.26855469 -0.288086,-0.63476559 -0.07324,-0.366211 -0.07324,-1.2988282 0,-0.9375 0.07324,-1.2988281 0.07324,-0.3662109 0.288086,-0.6396484 0.214843,-0.2832031 0.551757,-0.46875 0.336915,-0.1904297 0.805664,-0.1904297 0.771485,0 1.308594,0.5908203 v -0.5322266 h 1.020508 v 7.1191407 z m -0.996094,-3.00781254 q 0.708008,0 0.84961,-0.50781246 0.146484,-0.5126953 0.146484,-1.0644532 0,-0.5517578 -0.146484,-1.0644531 -0.141602,-0.5126953 -0.84961,-0.5126953 -0.722656,0 -0.86914,0.4980469 -0.141602,0.493164 -0.141602,1.0791015 0,0.5859375 0.141602,1.0791016 0.146484,0.49316406 0.86914,0.49316406 z"
       style="font-size:10px;font-family:AlteDIN1451Mittelschrift;fill:#ffffff;fill-opacity:1"
       id="path1859" /></g><g
     aria-label="Res"
     transform="matrix(1 0 0 1 29.5629 310.0283)"
     style="font-size:10px;font-family:AlteDIN1451Mittelschrift;fill:#ffffff;fill-opacity:1"
     id="text109"><path
       d="m 1.8359375,-6.1523437 v 2.1582031 h 1.6308594 q 0.6054687,0 0.9082031,-0.3369141 0.3027344,-0.336914 0.3027344,-0.7910156 0,-0.5419922 -0.3613282,-0.8105469 Q 4.0136719,-6.1523437 3.5302734,-6.1523437 Z M 0.75683594,0.00488281 V -7.109375 H 3.5400391 q 0.9130859,0 1.4453125,0.46875 0.2978515,0.2587891 0.5029296,0.6494141 0.209961,0.390625 0.209961,0.8691406 0,0.6884766 -0.3710938,1.2207031 -0.3662109,0.5273438 -1.0107422,0.7470703 L 5.9667969,0.00488281 H 4.6875 L 3.2177734,-3.0322266 H 1.8359375 v 3.03710941 z"
       style="font-size:10px;font-family:AlteDIN1451Mittelschrift;fill:#ffffff;fill-opacity:1"
       id="path1846" /><path
       d="M 10.664063,-2.1435547 H 7.5097656 q 0,0.625 0.3369141,0.9375 0.3417969,0.31250001 0.8691406,0.31250001 0.6298828,0 1.1132813,-0.48828121 l 0.7373044,0.62988278 Q 10.19043,-0.3125 9.7167969,-0.12207031 q -0.46875,0.18554687 -0.9814453,0.18554687 -0.78125,0 -1.5136719,-0.50292969 -0.7324219,-0.5078125 -0.7324219,-2.07031247 0,-1.4794922 0.6738281,-2.0458985 0.678711,-0.5664062 1.4160157,-0.5664062 0.8349609,0 1.4599614,0.5810547 0.625,0.5761718 0.625,1.5576172 z M 7.5097656,-2.9833984 H 9.6484375 Q 9.6240234,-3.5546875 9.3261719,-3.8574219 9.0283203,-4.1601562 8.5791016,-4.1601562 q -0.4541016,0 -0.756836,0.3027343 -0.2978515,0.3027344 -0.3125,0.8740235 z"
       style="font-size:10px;font-family:AlteDIN1451Mittelschrift;fill:#ffffff;fill-opacity:1"
       id="path1848" /><path
       d="m 11.181641,-0.83984375 0.71289,-0.70312495 q 0.664063,0.64941401 1.59668,0.64941401 0.43457,0 0.717773,-0.16113281 0.283204,-0.1660156 0.283204,-0.4882812 0,-0.444336 -0.620118,-0.4980469 l -0.898437,-0.083008 q -0.629883,-0.048828 -1.044922,-0.4150391 -0.415039,-0.3662109 -0.415039,-1.0205078 0,-0.7714844 0.541992,-1.1669922 0.541992,-0.3955078 1.347656,-0.3955078 0.664063,0 1.137696,0.1904297 0.473632,0.1855469 0.849609,0.4980469 l -0.629883,0.7421874 q -0.302734,-0.2050781 -0.625,-0.336914 -0.322265,-0.1318359 -0.732422,-0.1318359 -0.488281,0 -0.678711,0.1757812 -0.190429,0.1708984 -0.190429,0.4345703 0,0.1660156 0.141601,0.3076172 0.141602,0.1416016 0.527344,0.1708984 l 0.839844,0.058594 q 0.786133,0.053711 1.127929,0.4882812 0.341797,0.4296875 0.341797,1.0302735 0,0.74707029 -0.610351,1.15234372 -0.610352,0.40527344 -1.489258,0.40527344 -1.264648,0 -2.231445,-0.90332031 z"
       style="font-size:10px;font-family:AlteDIN1451Mittelschrift;fill:#ffffff;fill-opacity:1"
       id="path1850" /></g><g
     aria-label="Spc"
     transform="matrix(1 0 0 1 74.8198 310.0283)"
     style="font-size:10px;font-family:AlteDIN1451Mittelschrift;fill:#ffffff;fill-opacity:1"
     id="text113"><path
       d="M 0.13671875,-0.91308594 0.84960938,-1.7236328 Q 1.25,-1.4013672 1.7724609,-1.2060547 q 0.522461,0.1953125 1.09375,0.1953125 0.6591797,0 1.0351563,-0.2734375 0.3759765,-0.2734375 0.3759765,-0.7177734 0,-0.8398438 -0.9277343,-0.9619141 -0.2441406,-0.029297 -0.4541016,-0.058594 -0.2099609,-0.029297 -0.4882812,-0.068359 -0.9228516,-0.1269531 -1.40625,-0.6738281 -0.48339848,-0.5517578 -0.48339848,-1.328125 0,-0.9082032 0.60546878,-1.4941407 0.6103515,-0.5859375 1.7138672,-0.5859375 0.6591797,0 1.2402343,0.209961 0.5810547,0.2099609 1.069336,0.5322265 l -0.600586,0.8886719 Q 4.1552734,-5.7861328 3.7060547,-5.9375 3.2568359,-6.0888672 2.7880859,-6.0888672 q -0.4980468,0 -0.8447265,0.2539063 -0.3466797,0.2539062 -0.3466797,0.7617187 0,0.3027344 0.234375,0.5664063 0.234375,0.2636718 0.7763672,0.3466797 0.1416015,0.024414 0.3417969,0.053711 0.2001953,0.024414 0.4589843,0.053711 0.9960938,0.1220703 1.4697266,0.7226563 0.4785156,0.6005859 0.4785156,1.328125 0,0.9814453 -0.6787109,1.52343747 -0.678711,0.54199219 -1.8212891,0.54199219 -1.6064453,0 -2.71972655,-0.9765625 z"
       style="font-size:10px;font-family:AlteDIN1451Mittelschrift;fill:#ffffff;fill-opacity:1"
       id="path1832" /><path
       d="M 6.4111328,2.0556641 V -5.0634766 H 7.4316406 V -4.53125 q 0.5322266,-0.5908203 1.3085938,-0.5908203 0.4638672,0 0.8007812,0.1904297 0.3369141,0.1855469 0.5566404,0.46875 0.209961,0.2734375 0.283203,0.6396484 0.07813,0.3613281 0.07813,1.2988281 0,0.9326172 -0.07813,1.2988282 -0.07324,0.3662109 -0.283203,0.63476559 -0.2197263,0.28808593 -0.5566404,0.47363281 -0.336914,0.18066406 -0.8007812,0.18066406 -0.3955078,0 -0.7128906,-0.16113281 Q 7.7148437,-0.25878906 7.4316406,-0.53222656 V 2.0556641 Z m 2.0214844,-3.00781254 q 0.7177734,0 0.859375,-0.49316406 0.1464844,-0.4931641 0.1464844,-1.0791016 0,-0.5859375 -0.1464844,-1.0791015 -0.1416016,-0.4980469 -0.859375,-0.4980469 -0.7177735,0 -0.859375,0.5126953 -0.1416016,0.5126953 -0.1416016,1.0644531 0,0.5517579 0.1416016,1.0644532 0.1416015,0.50781246 0.859375,0.50781246 z"
       style="font-size:10px;font-family:AlteDIN1451Mittelschrift;fill:#ffffff;fill-opacity:1"
       id="path1834" /><path
       d="m 14.584961,-1.484375 0.751953,0.67382812 q -0.332031,0.38085938 -0.791016,0.62988282 -0.454101,0.24414062 -1.030273,0.24414062 -0.878906,0 -1.591797,-0.59570312 -0.708008,-0.60058594 -0.708008,-1.99218754 0,-1.3916015 0.708008,-1.9921875 0.712891,-0.6054687 1.591797,-0.6054687 0.576172,0 1.030273,0.2490234 0.458985,0.2490235 0.791016,0.6298828 l -0.751953,0.6689453 q -0.429688,-0.5273437 -1.030273,-0.5273437 -1.31836,0 -1.31836,1.5771484 0,1.57226566 1.31836,1.57226566 0.605468,0 1.030273,-0.53222656 z"
       style="font-size:10px;font-family:AlteDIN1451Mittelschrift;fill:#ffffff;fill-opacity:1"
       id="path1836" /></g><path
     style="fill:none;stroke:#ffffff;stroke-miterlimit:10"
     d="M 15,289 V 261.89999"
     id="line115" /><path
     style="fill:none;stroke:#ffffff;stroke-miterlimit:10"
     d="M 37.5,289 V 261.89999"
     id="line117" /><path
     style="fill:none;stroke:#ffffff;stroke-miterlimit:10"
     d="M 82.5,289 V 261.89999"
     id="line119" /><path
     style="fill:none;stroke:#ffffff;stroke-miterlimit:10"
     d="M 105,289 V 261.89999"
     id="line121" /><path
     style="fill:none;stroke:#ffffff;stroke-miterlimit:10"
     d="M 15,236.10001 V 209"
     id="line123" /><path
     style="fill:none;stroke:#ffffff;stroke-miterlimit:10"
     d="M 37.5,236.10001 V 209"
     id="line125" /><path
     style="fill:none;stroke:#ffffff;stroke-miterlimit:10"
     d="M 82.400002,236.10001 V 209"
     id="line127" /><path
     style="fill:none;stroke:#ffffff;stroke-miterlimit:10"
     d="M 105,236.10001 V 209"
     id="line129" /><g
     aria-label="Drive"
     transform="matrix(1 0 0 1 49.0013 310.0283)"
     style="font-size:10px;font-family:AlteDIN1451Mittelschrift;fill:#ffffff;fill-opacity:1"
     id="text131"><path
       d="M 0.75683594,0.00488281 V -7.109375 H 3.2470703 q 1.4599609,0 2.1679688,1.1962891 0.2636718,0.4541015 0.3222656,0.8496093 0.058594,0.3955079 0.058594,1.5136719 0,1.2011719 -0.083008,1.6064453 Q 5.6347656,-1.5429687 5.3955078,-1.171875 5.078125,-0.67382812 4.5214844,-0.33203125 3.9697266,0.00488281 3.1787109,0.00488281 Z M 1.8359375,-6.0888672 v 5.078125 h 1.2939453 q 0.8886719,0 1.3183594,-0.6201172 0.1757812,-0.2685547 0.2197265,-0.5761719 0.048828,-0.3125 0.048828,-1.3037109 0,-0.9570312 -0.053711,-1.3232422 -0.048828,-0.3662109 -0.2636718,-0.6591797 -0.444336,-0.5957031 -1.2695313,-0.5957031 z"
       style="font-size:10px;font-family:AlteDIN1451Mittelschrift;fill:#ffffff;fill-opacity:1"
       id="path1821" /><path
       d="M 6.9775391,0.00488281 V -5.0634766 h 1.0205078 v 0.5419922 h 0.019531 q 0.4736328,-0.6005859 1.3183594,-0.6005859 0.5566406,0 1.0595705,0.390625 L 9.6582031,-3.8525391 Q 9.3261719,-4.1015625 8.984375,-4.1015625 q -0.3759766,0 -0.6835937,0.2539062 -0.3027344,0.2490235 -0.3027344,0.8056641 v 3.04687501 z"
       style="font-size:10px;font-family:AlteDIN1451Mittelschrift;fill:#ffffff;fill-opacity:1"
       id="path1823" /><path
       d="M 10.893555,0.00488281 V -5.0634766 h 1.020508 v 5.06835941 z m 0,-6.09375001 V -7.109375 h 1.020508 v 1.0205078 z"
       style="font-size:10px;font-family:AlteDIN1451Mittelschrift;fill:#ffffff;fill-opacity:1"
       id="path1825" /><path
       d="M 14.404297,0.00488281 12.548828,-5.0634766 h 1.079102 l 1.186523,3.5498047 h 0.01953 l 1.191407,-3.5498047 h 1.079101 l -1.860351,5.06835941 z"
       style="font-size:10px;font-family:AlteDIN1451Mittelschrift;fill:#ffffff;fill-opacity:1"
       id="path1827" /><path
       d="m 21.601562,-2.1435547 h -3.154296 q 0,0.625 0.336914,0.9375 0.341797,0.31250001 0.86914,0.31250001 0.629883,0 1.113282,-0.48828121 l 0.737304,0.62988278 Q 21.12793,-0.3125 20.654297,-0.12207031 q -0.46875,0.18554687 -0.981445,0.18554687 -0.78125,0 -1.513672,-0.50292969 -0.732422,-0.5078125 -0.732422,-2.07031247 0,-1.4794922 0.673828,-2.0458985 0.678711,-0.5664062 1.416016,-0.5664062 0.83496,0 1.45996,0.5810547 0.625,0.5761718 0.625,1.5576172 z m -3.154296,-0.8398437 h 2.138671 q -0.02441,-0.5712891 -0.322265,-0.8740235 -0.297852,-0.3027343 -0.74707,-0.3027343 -0.454102,0 -0.756836,0.3027343 -0.297852,0.3027344 -0.3125,0.8740235 z"
       style="font-size:10px;font-family:AlteDIN1451Mittelschrift;fill:#ffffff;fill-opacity:1"
       id="path1829" /></g><path
     style="fill:none;stroke:#ffffff;stroke-miterlimit:10"
     d="M 60,289 V 261.89999"
     id="line133" /><path
     style="fill:none;stroke:#ffffff;stroke-miterlimit:10"
     d="M 60,236.10001 V 209"
     id="line135" /><g
     transform="translate(-176.96339,-11.8)"
     id="g6448"><g
       id="g6444"
       transform="translate(227.99998)"><path
         style="fill:none;stroke:#e6e6e6;stroke-width:1.71968508;stroke-linecap:round;stroke-linejoin:round;stroke-miterlimit:10;stroke-dasharray:none;stroke-opacity:1"
         d="m 5.9625,57.1 h 33.075"
         class="st1"
         inkscape:connector-curvature="0"
         id="path6420" /><path
         style="fill:none;stroke:#e6e6e6;stroke-width:1.71968508;stroke-linecap:round;stroke-linejoin:round;stroke-miterlimit:10;stroke-dasharray:none;stroke-opacity:1"
         d="m 6.225,117.1 h 32.55"
         class="st2"
         inkscape:connector-curvature="0"
         id="path6422" /><path
         style="font-family:AlteDIN1451Mittelschrift;fill:none;stroke:#e6e6e6;stroke-width:0.8617323;stroke-linecap:round;stroke-linejoin:round;stroke-miterlimit:10;stroke-dasharray:none;stroke-opacity:1"
         d="m 6.225,105.1 h 32.55"
         class="st3"
         inkscape:connector-curvature="0"
         id="path6424" /><path
         style="font-family:AlteDIN1451Mittelschrift;fill:none;stroke:#e6e6e6;stroke-width:0.8617323;stroke-linecap:round;stroke-linejoin:round;stroke-miterlimit:10;stroke-dasharray:none;stroke-opacity:1"
         d="m 6.225,99.1 h 32.55"
         class="st3"
         inkscape:connector-curvature="0"
         id="path6426" /><path
         style="font-family:AlteDIN1451Mittelschrift;fill:none;stroke:#e6e6e6;stroke-width:0.8617323;stroke-linecap:round;stroke-linejoin:round;stroke-miterlimit:10;stroke-dasharray:none;stroke-opacity:1"
         d="m 6.225,93.1 h 32.55"
         class="st3"
         inkscape:connector-curvature="0"
         id="path6428" /><path
         style="font-size:18px;fill:none;stroke:#e6e6e6;stroke-width:1.71968508;stroke-linecap:round;stroke-linejoin:round;stroke-miterlimit:10;stroke-dasharray:none;stroke-opacity:1"
         d="m 6.225,87.1 h 32.55"
         class="st4"
         inkscape:connector-curvature="0"
         id="path6430" /><path
         style="font-family:AlteDIN1451Mittelschrift;fill:none;stroke:#e6e6e6;stroke-width:0.8617323;stroke-linecap:round;stroke-linejoin:round;stroke-miterlimit:10;stroke-dasharray:none;stroke-opacity:1"
         d="m 6.225,81.1 h 32.55"
         class="st3"
         inkscape:connector-curvature="0"
         id="path6432" /><path
         style="font-family:AlteDIN1451Mittelschrift;fill:none;stroke:#e6e6e6;stroke-width:0.8617323;stroke-linecap:round;stroke-linejoin:round;stroke-miterlimit:10;stroke-dasharray:none;stroke-opacity:1"
         d="m 6.225,75.1 h 32.55"
         class="st3"
         inkscape:connector-curvature="0"
         id="path6434" /><path
         style="font-family:AlteDIN1451Mittelschrift;fill:none;stroke:#e6e6e6;stroke-width:0.8617323;stroke-linecap:round;stroke-linejoin:round;stroke-miterlimit:10;stroke-dasharray:none;stroke-opacity:1"
         d="m 6.225,69.1 h 32.55"
         class="st3"
         inkscape:connector-curvature="0"
         id="path6436" /><path
         style="font-family:AlteDIN1451Mittelschrift;fill:none;stroke:#e6e6e6;stroke-width:0.8617323;stroke-linecap:round;stroke-linejoin:round;stroke-miterlimit:10;stroke-dasharray:none;stroke-opacity:1"
         d="m 6.225,111.1 h 32.55"
         class="st3"
         inkscape:connector-curvature="0"
         id="path6438" /><path
         style="fill:none;stroke:#e6e6e6;stroke-width:0.8617323;stroke-linecap:round;stroke-linejoin:round;stroke-miterlimit:10;stroke-dasharray:none;stroke-opacity:1"
         d="m 6.225,63.1 h 32.55"
         class="st5"
         inkscape:connector-curvature="0"
         id="path6440" /><path
         inkscape:connector-curvature="0"
         id="path6442"
         d="M 15.8,43.799999 H 29.3 V 130.3 H 15.8 Z"
         style="fill:#282828;fill-opacity:1;stroke:#232323;stroke-miterlimit:10;stroke-opacity:1" /></g><rect
       y="44.301563"
       x="244.29889"
       height="4.2459021"
       width="12.489569"
       id="rect6446"
       style="opacity:0.47058824;fill:url(#linearGradient1762);fill-opacity:1;stroke:none;stroke-width:1.17374504;stroke-miterlimit:10;stroke-dasharray:none;stroke-opacity:1" /></g><g
     id="g1792"
     transform="translate(-203.98639,-11.8)"><g
       transform="translate(227.99998)"
       id="g1788"><path
         id="path1764"
         inkscape:connector-curvature="0"
         class="st1"
         d="m 5.9625,57.1 h 33.075"
         style="fill:none;stroke:#e6e6e6;stroke-width:1.71968508;stroke-linecap:round;stroke-linejoin:round;stroke-miterlimit:10;stroke-dasharray:none;stroke-opacity:1" /><path
         id="path1766"
         inkscape:connector-curvature="0"
         class="st2"
         d="m 6.225,117.1 h 32.55"
         style="fill:none;stroke:#e6e6e6;stroke-width:1.71968508;stroke-linecap:round;stroke-linejoin:round;stroke-miterlimit:10;stroke-dasharray:none;stroke-opacity:1" /><path
         id="path1768"
         inkscape:connector-curvature="0"
         class="st3"
         d="m 6.225,105.1 h 32.55"
         style="font-family:AlteDIN1451Mittelschrift;fill:none;stroke:#e6e6e6;stroke-width:0.8617323;stroke-linecap:round;stroke-linejoin:round;stroke-miterlimit:10;stroke-dasharray:none;stroke-opacity:1" /><path
         id="path1770"
         inkscape:connector-curvature="0"
         class="st3"
         d="m 6.225,99.1 h 32.55"
         style="font-family:AlteDIN1451Mittelschrift;fill:none;stroke:#e6e6e6;stroke-width:0.8617323;stroke-linecap:round;stroke-linejoin:round;stroke-miterlimit:10;stroke-dasharray:none;stroke-opacity:1" /><path
         id="path1772"
         inkscape:connector-curvature="0"
         class="st3"
         d="m 6.225,93.1 h 32.55"
         style="font-family:AlteDIN1451Mittelschrift;fill:none;stroke:#e6e6e6;stroke-width:0.8617323;stroke-linecap:round;stroke-linejoin:round;stroke-miterlimit:10;stroke-dasharray:none;stroke-opacity:1" /><path
         id="path1774"
         inkscape:connector-curvature="0"
         class="st4"
         d="m 6.225,87.1 h 32.55"
         style="font-size:18px;fill:none;stroke:#e6e6e6;stroke-width:1.71968508;stroke-linecap:round;stroke-linejoin:round;stroke-miterlimit:10;stroke-dasharray:none;stroke-opacity:1" /><path
         id="path1776"
         inkscape:connector-curvature="0"
         class="st3"
         d="m 6.225,81.1 h 32.55"
         style="font-family:AlteDIN1451Mittelschrift;fill:none;stroke:#e6e6e6;stroke-width:0.8617323;stroke-linecap:round;stroke-linejoin:round;stroke-miterlimit:10;stroke-dasharray:none;stroke-opacity:1" /><path
         id="path1778"
         inkscape:connector-curvature="0"
         class="st3"
         d="m 6.225,75.1 h 32.55"
         style="font-family:AlteDIN1451Mittelschrift;fill:none;stroke:#e6e6e6;stroke-width:0.8617323;stroke-linecap:round;stroke-linejoin:round;stroke-miterlimit:10;stroke-dasharray:none;stroke-opacity:1" /><path
         id="path1780"
         inkscape:connector-curvature="0"
         class="st3"
         d="m 6.225,69.1 h 32.55"
         style="font-family:AlteDIN1451Mittelschrift;fill:none;stroke:#e6e6e6;stroke-width:0.8617323;stroke-linecap:round;stroke-linejoin:round;stroke-miterlimit:10;stroke-dasharray:none;stroke-opacity:1" /><path
         id="path1782"
         inkscape:connector-curvature="0"
         class="st3"
         d="m 6.225,111.1 h 32.55"
         style="font-family:AlteDIN1451Mittelschrift;fill:none;stroke:#e6e6e6;stroke-width:0.8617323;stroke-linecap:round;stroke-linejoin:round;stroke-miterlimit:10;stroke-dasharray:none;stroke-opacity:1" /><path
         id="path1784"
         inkscape:connector-curvature="0"
         class="st5"
         d="m 6.225,63.1 h 32.55"
         style="fill:none;stroke:#e6e6e6;stroke-width:0.8617323;stroke-linecap:round;stroke-linejoin:round;stroke-miterlimit:10;stroke-dasharray:none;stroke-opacity:1" /><path
         style="fill:#282828;fill-opacity:1;stroke:#232323;stroke-miterlimit:10;stroke-opacity:1"
         d="M 15.8,43.799999 H 29.3 V 130.3 H 15.8 Z"
         id="path1786"
         inkscape:connector-curvature="0" /></g><rect
       style="opacity:0.47058824;fill:url(#linearGradient1794);fill-opacity:1;stroke:none;stroke-width:1.17374504;stroke-miterlimit:10;stroke-dasharray:none;stroke-opacity:1"
       id="rect1790"
       width="12.489569"
       height="4.2459021"
       x="244.29889"
       y="44.301563" /></g><g
     aria-label="LPF"
     style="font-style:normal;font-variant:normal;font-weight:normal;font-stretch:normal;font-size:23.33333397px;line-height:10.66666698px;font-family:AlteDIN1451Mittelschrift;-inkscape-font-specification:AlteDIN1451Mittelschrift;text-align:center;letter-spacing:0px;word-spacing:0px;text-anchor:middle;fill:#ffffff;fill-opacity:1;stroke:none"
     id="text987"
     transform="translate(0.75572535)"><path
       d="m 90.01619,191.09166 v -8.53711 h 1.294921 v 7.31836 h 4.166016 v 1.21875 z"
       style="font-size:12px;line-height:13.33333302px;text-align:center;text-anchor:middle;fill:#ffffff;fill-opacity:1"
       id="path989"
       inkscape:connector-curvature="0" /><path
       d="m 97.990799,183.77916 v 2.75391 h 1.921875 q 0.720706,0 1.072266,-0.4336 0.35742,-0.43359 0.35742,-0.94336 0,-0.77343 -0.55664,-1.13672 -0.35742,-0.24023 -0.919921,-0.24023 z m -1.294922,7.3125 v -8.53711 h 3.099609 q 0.498044,0 0.955074,0.10547 0.4629,0.10547 0.96094,0.49219 0.38672,0.29882 0.65625,0.82617 0.26953,0.52148 0.26953,1.21289 0,0.91406 -0.68554,1.74023 -0.67969,0.82618 -1.992191,0.82618 h -1.96875 v 3.33398 z"
       style="font-size:12px;line-height:13.33333302px;text-align:center;text-anchor:middle;fill:#ffffff;fill-opacity:1"
       id="path991"
       inkscape:connector-curvature="0" /><path
       d="m 103.82088,191.09166 v -8.53711 h 5.46093 v 1.22461 h -4.16601 v 2.51367 h 3.55078 v 1.1543 h -3.55078 v 3.64453 z"
       style="font-size:12px;line-height:13.33333302px;text-align:center;text-anchor:middle;fill:#ffffff;fill-opacity:1"
       id="path993"
       inkscape:connector-curvature="0" /></g><g
     aria-label="Trgt"
     style="font-style:normal;font-variant:normal;font-weight:normal;font-stretch:normal;font-size:23.33333397px;line-height:13.33333302px;font-family:AlteDIN1451Mittelschrift;-inkscape-font-specification:AlteDIN1451Mittelschrift;letter-spacing:0px;word-spacing:0px;fill:#ffffff;fill-opacity:1;stroke:none"
     id="text1013"><path
       d="m 91.972054,132.83174 v -7.38867 h -2.337891 v -1.14844 h 5.970703 v 1.14844 h -2.337891 v 7.38867 z"
       style="font-size:12px;text-align:center;text-anchor:middle;fill:#ffffff;fill-opacity:1"
       id="path1022" /><path
       d="m 96.41346,132.83174 v -6.08203 h 1.224609 v 0.65039 h 0.02344 q 0.568359,-0.7207 1.582031,-0.7207 0.667969,0 1.271482,0.46875 l -0.884763,1.05469 q -0.398438,-0.29883 -0.808594,-0.29883 -0.451172,0 -0.820313,0.30468 -0.363281,0.29883 -0.363281,0.9668 v 3.65625 z"
       style="font-size:12px;text-align:center;text-anchor:middle;fill:#ffffff;fill-opacity:1"
       id="path1024" /><path
       d="m 104.49354,132.82588 v -0.62695 q -0.63867,0.70312 -1.57031,0.70312 -0.59766,0 -1.00196,-0.23437 -0.39844,-0.24024 -0.60351,-0.50391 -0.26368,-0.33984 -0.36328,-0.7207 -0.0937,-0.38086 -0.0937,-1.64648 0,-1.26563 0.0937,-1.64649 0.0996,-0.38086 0.36328,-0.72656 0.20507,-0.25781 0.60351,-0.49805 0.4043,-0.24609 1.00196,-0.24609 0.89062,0 1.57031,0.7207 v -0.65039 h 1.22461 v 5.94141 q 0,1.37109 -0.80274,2.02148 -0.79687,0.65039 -1.83398,0.65039 -0.58594,0 -1.14844,-0.28125 -0.5625,-0.28125 -0.9668,-0.73828 l 0.94922,-0.75586 q 0.22266,0.22266 0.52735,0.38672 0.31054,0.16406 0.66211,0.16406 0.60937,0 0.99609,-0.33984 0.39258,-0.33985 0.39258,-0.97266 z m -2.40821,-3.02929 q 0,0.73242 0.0352,0.97265 0.041,0.24024 0.20508,0.44531 0.12305,0.16407 0.36328,0.31641 0.24023,0.15234 0.60938,0.15234 0.35742,0 0.59179,-0.15234 0.24024,-0.15234 0.36914,-0.31641 0.15821,-0.20507 0.19336,-0.44531 0.041,-0.24023 0.041,-0.97265 0,-0.73243 -0.041,-0.97266 -0.0352,-0.24024 -0.19336,-0.45117 -0.1289,-0.15821 -0.36914,-0.31055 -0.23437,-0.1582 -0.59179,-0.1582 -0.36915,0 -0.60938,0.1582 -0.24023,0.15234 -0.36328,0.31055 -0.16406,0.21093 -0.20508,0.45117 -0.0352,0.24023 -0.0352,0.97266 z"
       style="font-size:12px;text-align:center;text-anchor:middle;fill:#ffffff;fill-opacity:1"
       id="path1026" /><path
       d="m 107.38221,132.8376 v -5.15039 h -0.60938 v -0.9375 h 0.60938 v -0.95508 l 1.22461,-1.30664 v 2.26172 h 0.89062 v 0.9375 h -0.89062 v 5.15039 z"
       style="font-size:12px;text-align:center;text-anchor:middle;fill:#ffffff;fill-opacity:1"
       id="path1028" /></g><g
     aria-label="Mix"
     style="font-style:normal;font-variant:normal;font-weight:normal;font-stretch:normal;font-size:23.33333397px;line-height:13.33333302px;font-family:AlteDIN1451Mittelschrift;-inkscape-font-specification:AlteDIN1451Mittelschrift;letter-spacing:0px;word-spacing:0px;fill:#ffffff;fill-opacity:1;stroke:none"
     id="text981"><path
       d="m 52.126022,349.901 v -8.53711 h 1.22461 l 2.449218,5.56641 2.396485,-5.56641 h 1.224609 v 8.53711 h -1.294922 v -5.32617 h -0.02344 l -1.78711,4.10742 H 55.23735 l -1.787109,-4.10742 h -0.0293 v 5.32617 z"
       style="font-size:12px;text-align:center;text-anchor:middle;fill:#ffffff;fill-opacity:1"
       id="path983" /><path
       d="m 61.14946,349.901 v -6.08203 h 1.224609 v 6.08203 z m 0,-7.3125 v -1.22461 h 1.224609 v 1.22461 z"
       style="font-size:12px;text-align:center;text-anchor:middle;fill:#ffffff;fill-opacity:1"
       id="path985" /><path
       d="m 65.397507,346.79553 -1.992188,-2.97656 h 1.464844 l 1.212891,1.96875 1.21289,-1.96875 h 1.464844 l -1.992188,2.97656 2.074219,3.10547 h -1.464844 l -1.294921,-2.02148 -1.294922,2.02148 h -1.464844 z"
       style="font-size:12px;text-align:center;text-anchor:middle;fill:#ffffff;fill-opacity:1"
       id="path987" /></g><g
     id="g992"
     style="font-style:normal;font-variant:normal;font-weight:normal;font-stretch:normal;font-size:23.33333397px;line-height:13.33333302px;font-family:AlteDIN1451Mittelschrift;-inkscape-font-specification:AlteDIN1451Mittelschrift;letter-spacing:0px;word-spacing:0px;fill:#ffffff;fill-opacity:1;stroke:none"
     aria-label="Trgt"
     transform="matrix(0.82806796,0,0,0.82806796,22.909321,199.99425)"><path
       id="path984"
       style="font-size:12px;text-align:center;text-anchor:middle;fill:#ffffff;fill-opacity:1"
       d="m 91.972054,132.83174 v -7.38867 h -2.337891 v -1.14844 h 5.970703 v 1.14844 h -2.337891 v 7.38867 z"
       inkscape:connector-curvature="0" /><path
       id="path986"
       style="font-size:12px;text-align:center;text-anchor:middle;fill:#ffffff;fill-opacity:1"
       d="m 96.41346,132.83174 v -6.08203 h 1.224609 v 0.65039 h 0.02344 q 0.568359,-0.7207 1.582031,-0.7207 0.667969,0 1.27148,0.46875 l -0.884761,1.05469 q -0.398438,-0.29883 -0.808594,-0.29883 -0.451172,0 -0.820313,0.30468 -0.363281,0.29883 -0.363281,0.9668 v 3.65625 z"
       inkscape:connector-curvature="0" /><path
       id="path988"
       style="font-size:12px;text-align:center;text-anchor:middle;fill:#ffffff;fill-opacity:1"
       d="m 104.49354,132.82588 v -0.62695 q -0.63867,0.70312 -1.57031,0.70312 -0.59766,0 -1.00196,-0.23437 -0.39844,-0.24024 -0.60351,-0.50391 -0.26368,-0.33984 -0.36328,-0.7207 -0.0937,-0.38086 -0.0937,-1.64648 0,-1.26563 0.0937,-1.64649 0.0996,-0.38086 0.36328,-0.72656 0.20507,-0.25781 0.60351,-0.49805 0.4043,-0.24609 1.00196,-0.24609 0.89062,0 1.57031,0.7207 v -0.65039 h 1.22461 v 5.94141 q 0,1.37109 -0.80274,2.02148 -0.79687,0.65039 -1.83398,0.65039 -0.58594,0 -1.14844,-0.28125 -0.5625,-0.28125 -0.9668,-0.73828 l 0.94922,-0.75586 q 0.22266,0.22266 0.52735,0.38672 0.31054,0.16406 0.66211,0.16406 0.60937,0 0.99609,-0.33984 0.39258,-0.33985 0.39258,-0.97266 z m -2.40821,-3.02929 q 0,0.73242 0.0352,0.97265 0.041,0.24024 0.20508,0.44531 0.12305,0.16407 0.36328,0.31641 0.24023,0.15234 0.60938,0.15234 0.35742,0 0.59179,-0.15234 0.24024,-0.15234 0.36914,-0.31641 0.15821,-0.20507 0.19336,-0.44531 0.041,-0.24023 0.041,-0.97265 0,-0.73243 -0.041,-0.97266 -0.0352,-0.24024 -0.19336,-0.45117 -0.1289,-0.15821 -0.36914,-0.31055 -0.23437,-0.1582 -0.59179,-0.1582 -0.36915,0 -0.60938,0.1582 -0.24023,0.15234 -0.36328,0.31055 -0.16406,0.21093 -0.20508,0.45117 -0.0352,0.24023 -0.0352,0.97266 z"
       inkscape:connector-curvature="0" /><path
       id="path990"
       style="font-size:12px;text-align:center;text-anchor:middle;fill:#ffffff;fill-opacity:1"
       d="m 107.38221,132.8376 v -5.15039 h -0.60938 v -0.9375 h 0.60938 v -0.95508 l 1.22461,-1.30664 v 2.26172 h 0.89062 v 0.9375 h -0.89062 v 5.15039 z"
       inkscape:connector-curvature="0" /></g></svg>