<?xml version="1.0" encoding="utf-8"?>
<!-- Generator: Adobe Illustrator 24.1.0, SVG Export Plug-In . SVG Version: 6.00 Build 0)  -->
<svg version="1.1"
	 id="svg8" xmlns:cc="http://creativecommons.org/ns#" xmlns:dc="http://purl.org/dc/elements/1.1/" xmlns:inkscape="http://www.inkscape.org/namespaces/inkscape" xmlns:rdf="http://www.w3.org/1999/02/22-rdf-syntax-ns#" xmlns:sodipodi="http://sodipodi.sourceforge.net/DTD/sodipodi-0.dtd" xmlns:svg="http://www.w3.org/2000/svg"
	 xmlns="http://www.w3.org/2000/svg" xmlns:xlink="http://www.w3.org/1999/xlink" x="0px" y="0px" viewBox="0 0 300 380"
	 style="enable-background:new 0 0 300 380;" xml:space="preserve">
<style type="text/css">
	.st0{fill:#282828;}
	.st1{fill:none;stroke:#FFB24A;stroke-width:2;stroke-miterlimit:10;}
	.st2{fill:none;stroke:#DA4061;stroke-width:2;stroke-miterlimit:10;}
	.st3{fill:none;stroke:#00A1A7;stroke-width:2;stroke-miterlimit:10;}
	.st4{fill:none;stroke:#8759A4;stroke-width:2;stroke-miterlimit:10;}
	.st5{fill:none;stroke:#FFFFFF;}
	.st6{fill:#FFFFFF;}
	.st7{font-family:'AlteDIN1451Mittelschrift';}
	.st8{font-size:18px;}
	.st9{font-size:10px;}
	.st10{font-size:8px;}
	.st11{fill:none;stroke:#8759A4;stroke-miterlimit:10;}
	.st12{fill:#111111;stroke:#414042;stroke-miterlimit:10;}
	.st13{fill:none;stroke:#FFFFFF;stroke-miterlimit:10;}
	.st14{fill:none;stroke:#C0C0C0;stroke-miterlimit:10;}
	.st15{fill:#282828;stroke:#C0C0C0;stroke-miterlimit:10;}
	.st16{fill:none;stroke:#307DEE;stroke-width:2;stroke-miterlimit:10;}
</style>
<g id="layer1" transform="translate(0,-196.45831)" inkscape:groupmode="layer" inkscape:label="Layer 1">
	<rect id="rect1047" y="196.5" class="st0" width="300" height="380"/>
</g>
<path class="st1" d="M207,240.6c0-41.1-32-40.6-32-40.6"/>
<path class="st1" d="M189,258c-17.6-23.1-14-58-14-58"/>
<path class="st2" d="M94.3,148c0,0-16.3-2.1-24.4-10"/>
<path class="st3" d="M221,182c-29.8,1.9-29-17.1-29-17.1"/>
<path class="st2" d="M230,138c-8.1,7.9-24.4,10-24.4,10"/>
<path class="st4" d="M181.4,138.2c35.5-24.2-2.5-46.2-2.5-46.2"/>
<path class="st3" d="M108,164.9c0,0,0.8,19-29,17.1"/>
<defs>
	
		<inkscape:path-effect  apply_no_weight="true" apply_with_weight="true" effect="bspline" helper_size="0" id="path-effect2273" is_visible="true" only_selected="false" steps="2" weight="33.333333">
		</inkscape:path-effect>
	
		<inkscape:path-effect  apply_no_weight="true" apply_with_weight="true" effect="bspline" helper_size="0" id="path-effect2269" is_visible="true" only_selected="false" steps="2" weight="33.333333">
		</inkscape:path-effect>
</defs>
<sodipodi:namedview  bordercolor="#666666" borderopacity="1.0" id="base" inkscape:current-layer="layer1" inkscape:cx="76.012834" inkscape:cy="318.70973" inkscape:document-units="mm" inkscape:pageopacity="0.0" inkscape:pageshadow="2" inkscape:snap-bbox="true" inkscape:snap-global="true" inkscape:window-height="1006" inkscape:window-maximized="0" inkscape:window-width="1276" inkscape:window-x="641" inkscape:window-y="0" inkscape:zoom="5.656854" pagecolor="#ffffff" showgrid="true" showguides="false" units="px">
	<inkscape:grid  id="grid1092" type="xygrid"></inkscape:grid>
</sodipodi:namedview>
<path id="line161" class="st5" d="M0,24.5h300"/>
<path id="line163" class="st5" d="M0,356.5h300"/>
<text transform="matrix(1 0 0 1 127.4914 373.5106)" class="st6 st7 st8">Valley</text>
<text transform="matrix(1 0 0 1 107.8653 17.9062)" class="st6 st7 st8">Terrorform</text>
<text transform="matrix(1 0 0 1 79.2328 74.1336)" class="st6 st7 st9">Octave</text>
<text transform="matrix(1 0 0 1 6.0637 60.9038)" class="st6 st7 st9">VOct</text>
<text transform="matrix(1 0 0 1 275.0642 60.9038)" class="st6 st7 st9">VOct</text>
<text transform="matrix(1 0 0 1 135.4882 74.1336)" class="st6 st7 st9">Coarse</text>
<text transform="matrix(1 0 0 1 110.2724 117.0947)" class="st6 st7 st9">Bank</text>
<text transform="matrix(1 0 0 1 224.8785 351.6366)" class="st6 st7 st9">Out</text>
<text transform="matrix(1 0 0 1 195.7751 351.6366)" class="st6 st7 st9">Env.</text>
<text transform="matrix(1 0 0 1 131.9531 295.0002)" class="st6 st7 st10">Sync Mode</text>
<text transform="matrix(1 0 0 1 111.8532 180.4496)" class="st6 st7 st9">Attack</text>
<text transform="matrix(1 0 0 1 162.0711 180.4496)" class="st6 st7 st9">Decay</text>
<g>
	<text transform="matrix(0.7373 -0.6756 0.6756 0.7373 49.2148 227.5667)" class="st6 st7 st9">Type</text>
	<text transform="matrix(0.7373 -0.6756 0.6756 0.7373 36.4599 225.6912)" class="st6 st7 st9">Enhance</text>
</g>
<g>
	<text transform="matrix(0.7373 0.6756 -0.6756 0.7373 234.8461 212.8537)" class="st6 st7 st9">Depth</text>
	<text transform="matrix(0.7373 0.6756 -0.6756 0.7373 237.4476 201.6742)" class="st6 st7 st9">Enhance</text>
</g>
<text transform="matrix(1 0 0 1 167.733 117.0947)" class="st6 st7 st9">Wave</text>
<text transform="matrix(1 0 0 1 197.9476 74.1336)" class="st6 st7 st9">Fine</text>
<path class="st4" d="M120.8,92c0,0-38,22-2.5,46.2"/>
<path class="st11" d="M174,95"/>
<path class="st11" d="M231,74.8"/>
<path id="rect75_2_" inkscape:connector-curvature="0" class="st12" d="M107,299h86v16h-86V299z"/>
<path class="st4" d="M121,92c0,0-38.2,19.3-105.9,9.1"/>
<path class="st4" d="M120.8,92c0,0-30.3-21.2-105.8-16.9"/>
<text transform="matrix(1 0 0 1 9.0281 326.7419)" class="st6 st7 st9">FM</text>
<path class="st13" d="M201.1,287.7"/>
<text transform="matrix(1 0 0 1 53.0072 351.6364)" class="st6 st7 st9">Phasor</text>
<text transform="matrix(1 0 0 1 86.7273 351.6366)" class="st6 st7 st9">EOC</text>
<text transform="matrix(1 0 0 1 164.3326 351.637)" class="st6 st7 st9">Enhnc</text>
<text transform="matrix(1 0 0 1 140.9402 351.637)" class="st6 st7 st9">Raw</text>
<text transform="matrix(1 0 0 1 109.5144 351.5735)" class="st6 st7 st9">Shapd</text>
<text transform="matrix(1 0 0 1 6.7283 292.8593)" class="st6 st7 st9">VCA</text>
<text transform="matrix(1 0 0 1 277.9504 326.7419)" class="st6 st7 st9">FM</text>
<text transform="matrix(1 0 0 1 275.6506 292.8593)" class="st6 st7 st9">VCA</text>
<path id="rect75_1_" inkscape:connector-curvature="0" class="st12" d="M94.4,127.1h111.2v41.8H94.4V127.1z"/>
<path class="st1" d="M125,200c0,0-32-1.2-32,40"/>
<path class="st1" d="M125,200c0,0,3.7,35-13.9,58.1"/>
<path class="st14" d="M179,240.8"/>
<path class="st14" d="M150.1,229.7"/>
<text transform="matrix(1 0 0 1 142.0156 113.646)" class="st6 st7 st10">User</text>
<path class="st3" d="M77.6,182c0,0-43.5-3.7-62.5,45"/>
<path class="st3" d="M78.8,182c0,0,11.5,59.1-39.8,67"/>
<path class="st14" d="M71.5,248.4c0,0-5.2,91.2-56.5,90.6"/>
<path class="st14" d="M66,282c0,0-8.4,25-51,25"/>
<path class="st14" d="M71.5,248.4c0,0-13.7,48.2-56.4,22.7"/>
<g>
	<circle class="st15" cx="66" cy="282" r="5.5"/>
	<line class="st14" x1="66" y1="287.4" x2="66" y2="276.5"/>
	<line class="st14" x1="60.5" y1="282" x2="71.5" y2="282"/>
</g>
<text transform="matrix(1 0 0 1 202.01 283.8968)" class="st6 st7 st9">Sync</text>
<g>
	<circle class="st15" cx="71.5" cy="248.4" r="5.5"/>
	<line class="st14" x1="75.4" y1="252.3" x2="67.6" y2="244.5"/>
	<line class="st14" x1="67.6" y1="252.3" x2="75.4" y2="244.5"/>
</g>
<path class="st16" d="M15.1,40c35.7,0,78.1,9,78.1,9"/>
<path class="st16" d="M93,52.6c27.8-35.3,57,0.4,57,0.4"/>
<path class="st16" d="M207,52.6c-27.8-35.3-57,0.4-57,0.4"/>
<text transform="matrix(0.9063 -0.4226 0.4226 0.9063 28.0677 152.5045)" class="st6 st7 st9">Shape</text>
<text transform="matrix(0.9063 -0.4226 0.4226 0.9063 35.1939 160.2152)" class="st6 st7 st9">Type</text>
<text transform="matrix(0.9063 0.4226 -0.4226 0.9063 248.3268 141.6588)" class="st6 st7 st9">Shape</text>
<text transform="matrix(0.9063 0.4226 -0.4226 0.9063 244.7336 151.0167)" class="st6 st7 st9">Depth</text>
<text transform="matrix(1 0 0 1 100.6542 293.6334)" class="st6 st7 st10">Weak</text>
<text transform="matrix(1 0 0 1 180.687 293.6334)" class="st6 st7 st10">Weak</text>
<text transform="matrix(1 0 0 1 209.1555 316.6336)" class="st6 st7 st10">Swap</text>
<text transform="matrix(1 0 0 1 67.8257 316.6336)" class="st6 st7 st10">True FM</text>
<text transform="matrix(1 0 0 1 114.0189 70.6625)" class="st6 st7 st10">LFO</text>
<text transform="matrix(1 0 0 1 171.4249 70.6625)" class="st6 st7 st10">Zero</text>
<text transform="matrix(1 0 0 1 143.1333 224.6579)" class="st6 st7 st10">LPG</text>
<text transform="matrix(1 0 0 1 140.912 249.7234)" class="st6 st7 st10">Mode</text>
<text transform="matrix(1 0 0 1 78.0559 283.8968)" class="st6 st7 st9">Sync</text>
<text transform="matrix(1 0 0 1 140.6716 283.8968)" class="st6 st7 st9">Gate</text>
<path class="st2" d="M68.4,138c0,0-29-34-53.3-4.9"/>
<path class="st2" d="M68.3,138.2c0,0-2,47.9-53.2,32.8"/>
<path class="st4" d="M284.8,101.1C217.1,111.3,178.9,92,178.9,92"/>
<path class="st4" d="M284.9,75.1C209.4,70.8,179.1,92,179.1,92"/>
<path class="st3" d="M284.8,227c-19-48.7-62.5-45-62.5-45"/>
<path class="st3" d="M260.9,249c-51.3-7.9-39.8-67-39.8-67"/>
<path class="st14" d="M284.9,339c-51.3,0.6-56.5-90.6-56.5-90.6"/>
<path class="st14" d="M284.9,307c-42.6,0-51-25.1-51-25.1"/>
<path class="st14" d="M284.8,271.1c-42.7,25.5-56.4-22.7-56.4-22.7"/>
<g>
	<circle class="st15" cx="233.9" cy="282" r="5.5"/>
	<line class="st14" x1="233.9" y1="276.5" x2="233.9" y2="287.4"/>
	<line class="st14" x1="228.4" y1="282" x2="239.4" y2="282"/>
</g>
<g>
	<circle class="st15" cx="228.4" cy="248.4" r="5.5"/>
	<line class="st14" x1="232.3" y1="244.5" x2="224.5" y2="252.3"/>
	<line class="st14" x1="224.5" y1="244.5" x2="232.3" y2="252.3"/>
</g>
<path class="st16" d="M206.7,49c0,0,42.4-9,78.1-9"/>
<path class="st2" d="M284.8,133.1c-24.3-29.1-53.3,4.9-53.3,4.9"/>
<path class="st2" d="M284.8,171c-51.2,15.1-53.2-32.8-53.2-32.8"/>
<line class="st14" x1="190" y1="278" x2="212.1" y2="264.1"/>
<line class="st14" x1="110" y1="278" x2="88" y2="264"/>
<g>
	<path class="st1" d="M164.1,276.7c0,2.1-1.7,3.7-3.7,3.7"/>
	<path class="st1" d="M164.1,263v13.8"/>
</g>
<g>
	<path class="st1" d="M139.8,280.5c-2,0-3.7-1.6-3.7-3.7"/>
	<path class="st1" d="M136.1,276.8v-13.8"/>
</g>
</svg>
