<?xml version="1.0" encoding="UTF-8" standalone="no"?>
<!-- Generator: Adobe Illustrator 25.4.1, SVG Export Plug-In . SVG Version: 6.00 Build 0)  -->

<svg
   xmlns:dc="http://purl.org/dc/elements/1.1/"
   xmlns:cc="http://creativecommons.org/ns#"
   xmlns:rdf="http://www.w3.org/1999/02/22-rdf-syntax-ns#"
   xmlns:svg="http://www.w3.org/2000/svg"
   xmlns="http://www.w3.org/2000/svg"
   xmlns:sodipodi="http://sodipodi.sourceforge.net/DTD/sodipodi-0.dtd"
   xmlns:inkscape="http://www.inkscape.org/namespaces/inkscape"
   version="1.1"
   id="svg15246"
   inkscape:version="0.92.2 5c3e80d, 2017-08-06"
   sodipodi:docname="Rogan1PSRedSmall-fg.svg"
   x="0px"
   y="0px"
   viewBox="0 0 19.8 19.8"
   style="enable-background:new 0 0 19.8 19.8;"
   xml:space="preserve"><metadata
     id="metadata17"><rdf:RDF><cc:Work
         rdf:about=""><dc:format>image/svg+xml</dc:format><dc:type
           rdf:resource="http://purl.org/dc/dcmitype/StillImage" /></cc:Work></rdf:RDF></metadata><defs
     id="defs15" /><style
     type="text/css"
     id="style2">
	.st0{opacity:0.31;enable-background:new    ;}
	.st1{fill:url(#circle10_00000041979633129577419580000015869976809779048876_);}
	.st2{fill:#DB1255;}
</style><sodipodi:namedview
     bordercolor="#666666"
     borderopacity="1.0"
     fit-margin-bottom="0"
     fit-margin-left="0"
     fit-margin-right="0"
     fit-margin-top="0"
     id="base"
     inkscape:current-layer="g14"
     inkscape:cx="5.6366778"
     inkscape:cy="14.503928"
     inkscape:document-units="mm"
     inkscape:pageopacity="0.0"
     inkscape:pageshadow="2"
     inkscape:window-height="1155"
     inkscape:window-maximized="1"
     inkscape:window-width="1920"
     inkscape:window-x="0"
     inkscape:window-y="1"
     inkscape:zoom="29.716088"
     pagecolor="#ffffff"
     showgrid="false"
     units="mm" /><g
     id="g14"><path
       style="opacity:0.31000001;stroke:none;stroke-width:0.80000001;enable-background:new"
       d="M 14.54,10.287707 A 4.6400002,4.6400002 0 0 1 9.8999996,14.927708 4.6400002,4.6400002 0 0 1 5.2599995,10.287707 4.6400002,4.6400002 0 0 1 9.8999996,5.6477072 4.6400002,4.6400002 0 0 1 14.54,10.287707 Z"
       id="circle3"
       inkscape:connector-curvature="0" /><linearGradient
       id="circle10_00000158726024358441078850000008680868445859279267_"
       gradientUnits="userSpaceOnUse"
       x1="-6100.7939"
       y1="170.3172"
       x2="-6100.7939"
       y2="181.867"
       gradientTransform="matrix(-0.8,0,0,0.8,-4870.695,-130.9654)"><stop
         offset="0"
         style="stop-color:#ff6969"
         id="stop6" /><stop
         offset="1"
         style="stop-color:#8f0101"
         id="stop8" /></linearGradient><path
       style="fill:url(#circle10_00000158726024358441078850000008680868445859279267_);stroke:none;stroke-width:0.80000001"
       d="M 14.54,9.9430788 A 4.6400002,4.6400002 0 0 1 9.8999996,14.583079 4.6400002,4.6400002 0 0 1 5.2599995,9.9430788 4.6400002,4.6400002 0 0 1 9.8999996,5.3030785 4.6400002,4.6400002 0 0 1 14.54,9.9430788 Z"
       id="circle10"
       inkscape:connector-curvature="0" /><path
       id="circle12"
       class="st2"
       d="m 14.22,9.9430787 c 0,2.4000003 -1.92,4.3200003 -4.3200001,4.3200003 -2.4,0 -4.32,-1.92 -4.32,-4.3200003 0,-2.4 2,-4.32 4.32,-4.32 2.3200001,0 4.3200001,1.92 4.3200001,4.32 z"
       style="fill:#e30a0a;fill-opacity:1;stroke:none;stroke-width:0.80000001"
       inkscape:connector-curvature="0" /></g></svg>
