<?xml version="1.0" encoding="UTF-8" standalone="no"?>
<!-- Generator: Adobe Illustrator 23.0.6, SVG Export Plug-In . SVG Version: 6.00 Build 0)  -->

<svg
   xmlns:dc="http://purl.org/dc/elements/1.1/"
   xmlns:cc="http://creativecommons.org/ns#"
   xmlns:rdf="http://www.w3.org/1999/02/22-rdf-syntax-ns#"
   xmlns:svg="http://www.w3.org/2000/svg"
   xmlns="http://www.w3.org/2000/svg"
   xmlns:sodipodi="http://sodipodi.sourceforge.net/DTD/sodipodi-0.dtd"
   xmlns:inkscape="http://www.inkscape.org/namespaces/inkscape"
   version="1.1"
   id="svg8"
   x="0px"
   y="0px"
   viewBox="0 0 300 380"
   style="enable-background:new 0 0 300 380;"
   xml:space="preserve"
   sodipodi:docname="CellDarkLoader3.svg"
   inkscape:version="0.92.2 5c3e80d, 2017-08-06"><metadata
     id="metadata3592"><rdf:RDF><cc:Work
         rdf:about=""><dc:format>image/svg+xml</dc:format><dc:type
           rdf:resource="http://purl.org/dc/dcmitype/StillImage" /></cc:Work></rdf:RDF></metadata><style
     type="text/css"
     id="style3479">
	.st0{fill:#282828;}
	.st1{fill:none;stroke:#FFFFFF;}
	.st2{fill:#FFFFFF;}
	.st3{font-family:'AlteDIN1451Mittelschrift';}
	.st4{font-size:18px;}
	.st5{font-size:10px;}
	.st6{font-size:8px;}
	.st7{fill:none;stroke:#8759A4;stroke-miterlimit:10;}
	.st8{fill:#111111;stroke:#414042;stroke-miterlimit:10;}
	.st9{fill:none;stroke:#FFFFFF;stroke-miterlimit:10;}
	.st10{fill:none;stroke:#C0C0C0;stroke-miterlimit:10;}
	.st11{fill:#282828;stroke:#C0C0C0;stroke-miterlimit:10;}
	.st12{fill:none;stroke:#BE974A;stroke-width:2;stroke-miterlimit:10;}
</style><g
     id="layer1"
     transform="translate(0,-196.45831)"
     inkscape:groupmode="layer"
     inkscape:label="Layer 1"><path
       style="fill:#282828"
       d="m 0,196.5 h 300 v 380 H 0 Z"
       id="rect1047" /></g><defs
     id="defs3485"><inkscape:path-effect
       apply_no_weight="true"
       apply_with_weight="true"
       effect="bspline"
       helper_size="0"
       id="path-effect2273"
       is_visible="true"
       only_selected="false"
       steps="2"
       weight="33.333333" /><inkscape:path-effect
       apply_no_weight="true"
       apply_with_weight="true"
       effect="bspline"
       helper_size="0"
       id="path-effect2269"
       is_visible="true"
       only_selected="false"
       steps="2"
       weight="33.333333" /></defs><sodipodi:namedview
     bordercolor="#666666"
     borderopacity="1.0"
     id="base"
     inkscape:current-layer="svg8"
     inkscape:cx="-18.734792"
     inkscape:cy="123.62019"
     inkscape:document-units="mm"
     inkscape:pageopacity="0.0"
     inkscape:pageshadow="2"
     inkscape:snap-bbox="true"
     inkscape:snap-global="true"
     inkscape:window-height="1005"
     inkscape:window-maximized="1"
     inkscape:window-width="1680"
     inkscape:window-x="0"
     inkscape:window-y="1"
     inkscape:zoom="2.1631579"
     pagecolor="#ffffff"
     showgrid="true"
     showguides="false"
     units="px"><inkscape:grid
       id="grid1092"
       type="xygrid" /></sodipodi:namedview><path
     id="line161"
     class="st1"
     d="M0,24.5h300"
     style="stroke:#ffffff;stroke-opacity:1;stroke-width:1.00157475;stroke-miterlimit:4;stroke-dasharray:none" /><path
     id="line163"
     class="st1"
     d="M0,356.5h300"
     style="stroke:#ffffff;stroke-opacity:1;stroke-width:1.00157475;stroke-miterlimit:4;stroke-dasharray:none" /><g
     aria-label="Valley"
     transform="matrix(1 0 0 1 127.4914 373.5106)"
     style="font-size:18px;font-family:AlteDIN1451Mittelschrift;fill:#ffffff"
     id="text3491"><path
       d="M 4.2626953,0.00878906 0.03515625,-12.796875 H 2.0830078 l 2.9179688,9.7470703 h 0.035156 L 7.9541016,-12.796875 H 10.001953 L 5.7744141,0.00878906 Z"
       style="font-size:18px;font-family:AlteDIN1451Mittelschrift;fill:#ffffff"
       id="path1790" /><path
       d="m 16.057617,0.04394531 v -0.80859375 h -0.03516 q -0.254883,0.47460938 -0.764648,0.68554688 -0.544922,0.22851562 -1.423829,0.22851562 -1.511718,-0.0351562 -2.285156,-0.80859375 -0.84375,-0.77343751 -0.84375,-1.97753911 0,-1.1425781 0.729492,-1.9160156 0.729493,-0.7734375 2.153321,-0.7910156 h 2.469726 v -0.9667969 q 0.0088,-1.2128906 -1.819336,-1.1777343 -0.632812,0 -1.054687,0.140625 -0.413086,0.1845703 -0.624024,0.571289 l -1.40625,-1.1074219 q 1.019532,-1.3623047 2.997071,-1.3271484 1.661132,-0.017578 2.671875,0.6503906 0.993164,0.694336 1.010742,2.3554688 v 6.24902341 z m 0,-3.20800781 v -0.6679688 h -2.135742 q -1.564453,0.043945 -1.546875,1.1074219 0,0.4570313 0.404297,0.7910157 0.386719,0.3603515 1.274414,0.3603515 1.125,0.017578 1.582031,-0.2724609 0.421875,-0.2900391 0.421875,-1.3183594 z"
       style="font-size:18px;font-family:AlteDIN1451Mittelschrift;fill:#ffffff"
       id="path1792" /><path
       d="M 19.87207,-2.1972656 V -12.796875 h 1.836914 v 10.4501953 q 0,0.6328125 0.685547,0.6328125 h 0.624024 v 1.72265626 h -0.808594 q -1.001953,0 -1.669922,-0.48339844 -0.667969,-0.4921875 -0.667969,-1.72265622 z"
       style="font-size:18px;font-family:AlteDIN1451Mittelschrift;fill:#ffffff"
       id="path1794" /><path
       d="M 24.512695,-2.1972656 V -12.796875 h 1.836914 v 10.4501953 q 0,0.6328125 0.685547,0.6328125 h 0.624024 v 1.72265626 h -0.808594 q -1.001953,0 -1.669922,-0.48339844 -0.667969,-0.4921875 -0.667969,-1.72265622 z"
       style="font-size:18px;font-family:AlteDIN1451Mittelschrift;fill:#ffffff"
       id="path1796" /><path
       d="m 36.175781,-3.8583984 h -5.677734 q 0,1.125 0.606445,1.6875 0.615235,0.5625 1.564453,0.5625 1.133789,0 2.003907,-0.8789063 L 36,-1.3535156 q -0.676758,0.7910156 -1.529297,1.13378904 -0.84375,0.33398437 -1.766601,0.33398437 -1.40625,0 -2.72461,-0.90527343 -1.318359,-0.91406248 -1.318359,-3.72656248 0,-2.663086 1.21289,-3.6826172 1.22168,-1.0195313 2.548829,-1.0195313 1.502929,0 2.627929,1.0458985 1.125,1.0371094 1.125,2.8037109 z m -5.677734,-1.5117188 h 3.849609 q -0.04395,-1.0283203 -0.580078,-1.5732422 -0.536133,-0.5449218 -1.344726,-0.5449218 -0.817383,0 -1.362305,0.5449218 -0.536133,0.5449219 -0.5625,1.5732422 z"
       style="font-size:18px;font-family:AlteDIN1451Mittelschrift;fill:#ffffff"
       id="path1798" /><path
       d="M 40.078125,-0.34277344 36.808594,-9.1142578 h 1.933593 l 2.16211,6.3896484 h 0.03516 l 2.162109,-6.3896484 h 1.942383 L 41.124023,1.8984375 Q 40.737305,2.953125 40.060547,3.3222656 39.383789,3.7001953 38.548828,3.7001953 H 37.933594 V 1.96875 h 0.544922 q 0.826171,0 1.098632,-0.7910156 z"
       style="font-size:18px;font-family:AlteDIN1451Mittelschrift;fill:#ffffff"
       id="path1800" /></g><g
     aria-label="Terrorform"
     transform="matrix(1 0 0 1 107.8653 17.9062)"
     style="font-size:18px;font-family:AlteDIN1451Mittelschrift;fill:#ffffff;fill-opacity:1;stroke:none"
     id="text3493"><path
       d="M 3.5419922,0.00878906 V -11.074219 H 0.03515625 v -1.722656 H 8.9912109 v 1.722656 H 5.484375 V 0.00878906 Z"
       style="font-size:18px;font-family:AlteDIN1451Mittelschrift;fill:#ffffff;fill-opacity:1;stroke:none"
       id="path4139" /><path
       d="m 17.226562,-3.8583984 h -5.677734 q 0,1.125 0.606445,1.6875 0.615235,0.5625 1.564454,0.5625 1.133789,0 2.003906,-0.8789063 l 1.327148,1.1337891 q -0.676758,0.7910156 -1.529297,1.13378904 -0.84375,0.33398437 -1.766601,0.33398437 -1.40625,0 -2.72461,-0.90527343 -1.3183589,-0.91406248 -1.3183589,-3.72656248 0,-2.663086 1.2128909,-3.6826172 1.221679,-1.0195313 2.548828,-1.0195313 1.50293,0 2.627929,1.0458985 1.125,1.0371094 1.125,2.8037109 z m -5.677734,-1.5117188 h 3.84961 q -0.04395,-1.0283203 -0.580079,-1.5732422 -0.536132,-0.5449218 -1.344726,-0.5449218 -0.817383,0 -1.362305,0.5449218 -0.536133,0.5449219 -0.5625,1.5732422 z"
       style="font-size:18px;font-family:AlteDIN1451Mittelschrift;fill:#ffffff;fill-opacity:1;stroke:none"
       id="path4141" /><path
       d="M 19.168945,0.00878906 V -9.1142578 h 1.836914 v 0.9755859 h 0.03516 q 0.852539,-1.0810547 2.373046,-1.0810547 1.001954,0 1.907227,0.703125 l -1.327148,1.5820313 q -0.597657,-0.4482422 -1.212891,-0.4482422 -0.676758,0 -1.230469,0.4570313 -0.544922,0.4482421 -0.544922,1.4501953 v 5.48437496 z"
       style="font-size:18px;font-family:AlteDIN1451Mittelschrift;fill:#ffffff;fill-opacity:1;stroke:none"
       id="path4143" /><path
       d="M 26.165039,0.00878906 V -9.1142578 h 1.836914 v 0.9755859 h 0.03516 q 0.852539,-1.0810547 2.373047,-1.0810547 1.001953,0 1.907227,0.703125 l -1.327149,1.5820313 q -0.597656,-0.4482422 -1.21289,-0.4482422 -0.676758,0 -1.230469,0.4570313 -0.544922,0.4482421 -0.544922,1.4501953 v 5.48437496 z"
       style="font-size:18px;font-family:AlteDIN1451Mittelschrift;fill:#ffffff;fill-opacity:1;stroke:none"
       id="path4145" /><path
       d="m 32.712891,-4.5615234 q 0,-1.4677735 0.228515,-2.1884766 0.228516,-0.7207031 0.75586,-1.3007813 0.377929,-0.4130859 1.037109,-0.7910156 0.667969,-0.3779297 1.740234,-0.3779297 1.054688,0 1.722657,0.3779297 0.667968,0.3779297 1.045898,0.7910156 0.527344,0.5800782 0.755859,1.3007813 0.228516,0.7207031 0.228516,2.1884766 0,1.4941406 -0.228516,2.2148437 -0.228515,0.7207031 -0.755859,1.3007813 -0.37793,0.42187496 -1.045898,0.79101559 -0.667969,0.36914062 -1.722657,0.36914062 -1.072265,0 -1.740234,-0.36914062 -0.65918,-0.36914063 -1.037109,-0.79101559 -0.527344,-0.5800782 -0.75586,-1.3007813 -0.228515,-0.7207031 -0.228515,-2.2148437 z m 5.686523,0.017578 q 0,-0.9931641 -0.105469,-1.3974609 -0.09668,-0.4042969 -0.342773,-0.7734375 -0.483399,-0.6679688 -1.476563,-0.6679688 -1.010742,0 -1.476562,0.6679688 -0.263672,0.3691406 -0.360352,0.7734375 -0.08789,0.4042968 -0.08789,1.3798828 0,1.0019531 0.08789,1.415039 0.09668,0.4042969 0.360352,0.7646485 0.46582,0.6679687 1.476562,0.6679687 0.993164,0 1.476563,-0.6679687 0.246094,-0.3603516 0.342773,-0.7646485 0.105469,-0.4042969 0.105469,-1.3974609 z"
       style="font-size:18px;font-family:AlteDIN1451Mittelschrift;fill:#ffffff;fill-opacity:1;stroke:none"
       id="path4147" /><path
       d="M 42.161133,0.00878906 V -9.1142578 h 1.836914 v 0.9755859 h 0.03516 q 0.852539,-1.0810547 2.373047,-1.0810547 1.001953,0 1.907227,0.703125 l -1.327149,1.5820313 q -0.597656,-0.4482422 -1.212891,-0.4482422 -0.676757,0 -1.230468,0.4570313 -0.544922,0.4482421 -0.544922,1.4501953 v 5.48437496 z"
       style="font-size:18px;font-family:AlteDIN1451Mittelschrift;fill:#ffffff;fill-opacity:1;stroke:none"
       id="path4149" /><path
       d="M 49.447266,0.00878906 V -7.7080078 h -0.922852 v -1.40625 h 0.922852 v -1.2041012 q 0,-1.274414 0.703125,-1.872071 0.703125,-0.606445 1.77539,-0.606445 h 1.186524 v 1.722656 h -1.03711 q -0.799804,0 -0.799804,0.75586 v 1.2041012 h 1.836914 v 1.40625 h -1.836914 v 7.71679686 z"
       style="font-size:18px;font-family:AlteDIN1451Mittelschrift;fill:#ffffff;fill-opacity:1;stroke:none"
       id="path4151" /><path
       d="m 53.701172,-4.5615234 q 0,-1.4677735 0.228515,-2.1884766 0.228516,-0.7207031 0.75586,-1.3007813 0.37793,-0.4130859 1.037109,-0.7910156 0.667969,-0.3779297 1.740235,-0.3779297 1.054687,0 1.722656,0.3779297 0.667969,0.3779297 1.045898,0.7910156 0.527344,0.5800782 0.75586,1.3007813 0.228515,0.7207031 0.228515,2.1884766 0,1.4941406 -0.228515,2.2148437 -0.228516,0.7207031 -0.75586,1.3007813 -0.377929,0.42187496 -1.045898,0.79101559 -0.667969,0.36914062 -1.722656,0.36914062 -1.072266,0 -1.740235,-0.36914062 -0.659179,-0.36914063 -1.037109,-0.79101559 -0.527344,-0.5800782 -0.75586,-1.3007813 -0.228515,-0.7207031 -0.228515,-2.2148437 z m 5.686523,0.017578 q 0,-0.9931641 -0.105468,-1.3974609 -0.09668,-0.4042969 -0.342774,-0.7734375 -0.483398,-0.6679688 -1.476562,-0.6679688 -1.010743,0 -1.476563,0.6679688 -0.263672,0.3691406 -0.360351,0.7734375 -0.08789,0.4042968 -0.08789,1.3798828 0,1.0019531 0.08789,1.415039 0.09668,0.4042969 0.360351,0.7646485 0.46582,0.6679687 1.476563,0.6679687 0.993164,0 1.476562,-0.6679687 0.246094,-0.3603516 0.342774,-0.7646485 0.105468,-0.4042969 0.105468,-1.3974609 z"
       style="font-size:18px;font-family:AlteDIN1451Mittelschrift;fill:#ffffff;fill-opacity:1;stroke:none"
       id="path4153" /><path
       d="M 63.149414,0.00878906 V -9.1142578 h 1.836914 v 0.9755859 h 0.03516 q 0.852539,-1.0810547 2.373047,-1.0810547 1.001953,0 1.907227,0.703125 l -1.327149,1.5820313 q -0.597656,-0.4482422 -1.21289,-0.4482422 -0.676758,0 -1.230469,0.4570313 -0.544922,0.4482421 -0.544922,1.4501953 v 5.48437496 z"
       style="font-size:18px;font-family:AlteDIN1451Mittelschrift;fill:#ffffff;fill-opacity:1;stroke:none"
       id="path4155" /><path
       d="M 70.250977,0.00878906 V -9.1142578 h 1.836914 v 0.9755859 h 0.03516 q 0.870117,-1.0810547 2.373047,-1.0810547 0.958008,0 1.520508,0.3427735 0.5625,0.3427734 1.054687,0.84375 1.081055,-1.1865235 2.882813,-1.1865235 1.063476,0 2.047851,0.8085938 0.993164,0.8085937 0.993164,2.3554687 V 0.00878906 H 81.158203 V -5.4228516 q 0,-0.9228515 -0.518555,-1.4414062 -0.518554,-0.5185547 -1.283203,-0.5185547 -0.791015,0 -1.30957,0.5185547 -0.509766,0.5185547 -0.509766,1.4414062 V 0.00878906 H 75.708984 V -5.4228516 q 0,-0.9228515 -0.518554,-1.4414062 -0.518555,-0.5185547 -1.283203,-0.5185547 -0.791016,0 -1.309571,0.5185547 -0.509765,0.5185547 -0.509765,1.4414062 v 5.43164066 z"
       style="font-size:18px;font-family:AlteDIN1451Mittelschrift;fill:#ffffff;fill-opacity:1;stroke:none"
       id="path4157" /></g><g
     aria-label="VOct"
     transform="matrix(1 0 0 1 6.0637 60.9038)"
     style="font-size:10px;font-family:AlteDIN1451Mittelschrift;fill:#ffffff;fill-opacity:1;stroke:none"
     id="text3495"><path
       d="M 2.3681641,0.00488281 0.01953125,-7.109375 H 1.1572266 l 1.6210937,5.4150391 h 0.019531 L 4.4189453,-7.109375 H 5.5566406 L 3.2080078,0.00488281 Z"
       style="font-size:10px;font-family:AlteDIN1451Mittelschrift;fill:#ffffff;fill-opacity:1;stroke:none"
       id="path4290" /><path
       d="m 6.0839844,-3.5498047 q 0,-1.2841797 0.068359,-1.6552734 0.068359,-0.3710938 0.2441407,-0.6835938 0.2490234,-0.4638672 0.8154297,-0.8740234 0.571289,-0.4101563 1.4111328,-0.4101563 0.8349609,0 1.4013671,0.4101563 0.571289,0.4101562 0.830078,0.8740234 0.170899,0.3125 0.239258,0.6835938 0.06836,0.3710937 0.06836,1.6552734 0,1.2841797 -0.06836,1.6552735 -0.06836,0.3710937 -0.239258,0.6835937 -0.258789,0.46875 -0.830078,0.87402344 -0.5664062,0.40039062 -1.4013671,0.40039062 -0.8398438,0 -1.4111328,-0.40039062 Q 6.6455078,-0.7421875 6.3964844,-1.2109375 6.2207031,-1.5234375 6.1523437,-1.8945312 6.0839844,-2.265625 6.0839844,-3.5498047 Z m 1.0791015,0 q 0,1.0986328 0.073242,1.4257813 0.078125,0.3271484 0.288086,0.5908203 0.1611328,0.2148437 0.4394531,0.3710937 0.2783203,0.1513672 0.6591797,0.1513672 0.3808594,0 0.6591797,-0.1513672 0.2783203,-0.15625 0.4394531,-0.3710937 0.2099609,-0.2636719 0.2832033,-0.5908203 0.07813,-0.3271485 0.07813,-1.4257813 0,-1.09375 -0.07813,-1.4208984 -0.073242,-0.3271485 -0.2832033,-0.600586 -0.1611328,-0.2050781 -0.4394531,-0.3613281 -0.2783203,-0.15625 -0.6591797,-0.15625 -0.3808594,0 -0.6591797,0.15625 -0.2783203,0.15625 -0.4394531,0.3613281 -0.209961,0.2734375 -0.288086,0.600586 -0.073242,0.3271484 -0.073242,1.4208984 z"
       style="font-size:10px;font-family:AlteDIN1451Mittelschrift;fill:#ffffff;fill-opacity:1;stroke:none"
       id="path4292" /><path
       d="m 15.307617,-1.484375 0.751953,0.67382812 q -0.332031,0.38085938 -0.791015,0.62988282 -0.454102,0.24414062 -1.030274,0.24414062 -0.878906,0 -1.591797,-0.59570312 -0.708007,-0.60058594 -0.708007,-1.99218754 0,-1.3916015 0.708007,-1.9921875 0.712891,-0.6054687 1.591797,-0.6054687 0.576172,0 1.030274,0.2490234 0.458984,0.2490235 0.791015,0.6298828 l -0.751953,0.6689453 q -0.429687,-0.5273437 -1.030273,-0.5273437 -1.31836,0 -1.31836,1.5771484 0,1.57226566 1.31836,1.57226566 0.605469,0 1.030273,-0.53222656 z"
       style="font-size:10px;font-family:AlteDIN1451Mittelschrift;fill:#ffffff;fill-opacity:1;stroke:none"
       id="path4294" /><path
       d="M 16.821289,0.00976563 V -4.2822266 h -0.507812 v -0.78125 h 0.507812 V -5.859375 l 1.020508,-1.0888672 v 1.8847656 h 0.742187 v 0.78125 h -0.742187 v 4.29199223 z"
       style="font-size:10px;font-family:AlteDIN1451Mittelschrift;fill:#ffffff;fill-opacity:1;stroke:none"
       id="path4296" /></g><g
     aria-label="VOct"
     transform="matrix(1 0 0 1 275.0642 60.9038)"
     style="font-size:10px;font-family:AlteDIN1451Mittelschrift;fill:#ffffff;fill-opacity:1;stroke:none"
     id="text3497"><path
       d="M 2.3681641,0.00488281 0.01953125,-7.109375 H 1.1572266 l 1.6210937,5.4150391 h 0.019531 L 4.4189453,-7.109375 H 5.5566406 L 3.2080078,0.00488281 Z"
       style="font-size:10px;font-family:AlteDIN1451Mittelschrift;fill:#ffffff;fill-opacity:1;stroke:none"
       id="path4311" /><path
       d="m 6.0839844,-3.5498047 q 0,-1.2841797 0.068359,-1.6552734 0.068359,-0.3710938 0.2441407,-0.6835938 0.2490234,-0.4638672 0.8154297,-0.8740234 0.571289,-0.4101563 1.4111328,-0.4101563 0.8349609,0 1.4013671,0.4101563 0.571289,0.4101562 0.830078,0.8740234 0.170899,0.3125 0.239258,0.6835938 0.06836,0.3710937 0.06836,1.6552734 0,1.2841797 -0.06836,1.6552735 -0.06836,0.3710937 -0.239258,0.6835937 -0.258789,0.46875 -0.830078,0.87402344 -0.5664062,0.40039062 -1.4013671,0.40039062 -0.8398438,0 -1.4111328,-0.40039062 Q 6.6455078,-0.7421875 6.3964844,-1.2109375 6.2207031,-1.5234375 6.1523437,-1.8945312 6.0839844,-2.265625 6.0839844,-3.5498047 Z m 1.0791015,0 q 0,1.0986328 0.073242,1.4257813 0.078125,0.3271484 0.288086,0.5908203 0.1611328,0.2148437 0.4394531,0.3710937 0.2783203,0.1513672 0.6591797,0.1513672 0.3808594,0 0.6591797,-0.1513672 0.2783203,-0.15625 0.4394531,-0.3710937 0.2099609,-0.2636719 0.2832033,-0.5908203 0.07813,-0.3271485 0.07813,-1.4257813 0,-1.09375 -0.07813,-1.4208984 -0.073242,-0.3271485 -0.2832033,-0.600586 -0.1611328,-0.2050781 -0.4394531,-0.3613281 -0.2783203,-0.15625 -0.6591797,-0.15625 -0.3808594,0 -0.6591797,0.15625 -0.2783203,0.15625 -0.4394531,0.3613281 -0.209961,0.2734375 -0.288086,0.600586 -0.073242,0.3271484 -0.073242,1.4208984 z"
       style="font-size:10px;font-family:AlteDIN1451Mittelschrift;fill:#ffffff;fill-opacity:1;stroke:none"
       id="path4313" /><path
       d="m 15.307617,-1.484375 0.751953,0.67382812 q -0.332031,0.38085938 -0.791015,0.62988282 -0.454102,0.24414062 -1.030274,0.24414062 -0.878906,0 -1.591797,-0.59570312 -0.708007,-0.60058594 -0.708007,-1.99218754 0,-1.3916015 0.708007,-1.9921875 0.712891,-0.6054687 1.591797,-0.6054687 0.576172,0 1.030274,0.2490234 0.458984,0.2490235 0.791015,0.6298828 l -0.751953,0.6689453 q -0.429687,-0.5273437 -1.030273,-0.5273437 -1.31836,0 -1.31836,1.5771484 0,1.57226566 1.31836,1.57226566 0.605469,0 1.030273,-0.53222656 z"
       style="font-size:10px;font-family:AlteDIN1451Mittelschrift;fill:#ffffff;fill-opacity:1;stroke:none"
       id="path4315" /><path
       d="M 16.821289,0.00976563 V -4.2822266 h -0.507812 v -0.78125 h 0.507812 V -5.859375 l 1.020508,-1.0888672 v 1.8847656 h 0.742187 v 0.78125 h -0.742187 v 4.29199223 z"
       style="font-size:10px;font-family:AlteDIN1451Mittelschrift;fill:#ffffff;fill-opacity:1;stroke:none"
       id="path4317" /></g><g
     aria-label="Main"
     transform="matrix(1 0 0 1 219.9264 350.6366)"
     style="font-size:10px;font-family:AlteDIN1451Mittelschrift;fill:#ffffff;fill-opacity:1;stroke:none"
     id="text3499"><path
       d="M 0.75683594,0.00488281 V -7.109375 H 1.7773437 L 3.8183594,-2.4707031 5.8154297,-7.109375 H 6.8359375 V 0.00488281 H 5.7568359 V -4.4335937 H 5.7373047 L 4.2480469,-1.0107422 H 3.3496094 L 1.8603516,-4.4335937 h -0.024414 v 4.43847651 z"
       style="font-size:10px;font-family:AlteDIN1451Mittelschrift;fill:#ffffff;fill-opacity:1;stroke:none"
       id="path4269" /><path
       d="m 10.932617,0.02441406 v -0.44921875 h -0.01953 q -0.141602,0.26367188 -0.424805,0.38085938 -0.302734,0.12695312 -0.7910154,0.12695312 -0.8398437,-0.01953125 -1.2695312,-0.44921875 -0.46875,-0.4296875 -0.46875,-1.09863276 0,-0.6347657 0.4052734,-1.0644532 0.4052735,-0.4296875 1.1962891,-0.4394531 h 1.3720701 v -0.5371094 q 0.0049,-0.6738281 -1.010742,-0.6542968 -0.3515625,0 -0.5859375,0.078125 -0.2294922,0.102539 -0.3466797,0.3173828 l -0.78125,-0.6152344 q 0.5664063,-0.7568359 1.6650391,-0.7373047 0.9228511,-0.00977 1.4843751,0.3613281 0.551758,0.3857422 0.561523,1.3085938 v 3.47167966 z m 0,-1.78222656 V -2.1289063 H 9.7460938 q -0.8691407,0.024414 -0.859375,0.6152344 0,0.2539063 0.2246093,0.4394532 0.2148438,0.20019526 0.7080078,0.20019526 0.6250001,0.009766 0.8789061,-0.15136716 0.234375,-0.1611328 0.234375,-0.7324219 z"
       style="font-size:10px;font-family:AlteDIN1451Mittelschrift;fill:#ffffff;fill-opacity:1;stroke:none"
       id="path4271" /><path
       d="M 13.081055,0.00488281 V -5.0634766 h 1.020508 v 5.06835941 z m 0,-6.09375001 V -7.109375 h 1.020508 v 1.0205078 z"
       style="font-size:10px;font-family:AlteDIN1451Mittelschrift;fill:#ffffff;fill-opacity:1;stroke:none"
       id="path4273" /><path
       d="M 15.454102,0.00488281 V -5.0634766 h 1.020507 v 0.5419922 h 0.01953 q 0.473632,-0.6005859 1.318359,-0.6005859 0.59082,0 1.137695,0.4492187 0.551758,0.4492188 0.551758,1.3085938 V 0.00488281 H 18.481445 V -3.0126953 q 0,-0.5126953 -0.288086,-0.8007813 -0.283203,-0.2880859 -0.708007,-0.2880859 -0.439454,0 -0.72754,0.2880859 -0.283203,0.288086 -0.283203,0.8007813 v 3.01757811 z"
       style="font-size:10px;font-family:AlteDIN1451Mittelschrift;fill:#ffffff;fill-opacity:1;stroke:none"
       id="path4275" /></g><g
     aria-label="Sub"
     transform="matrix(1 0 0 1 189.8552 350.6366)"
     style="font-size:10px;font-family:AlteDIN1451Mittelschrift;fill:#ffffff;fill-opacity:1;stroke:none"
     id="text3501"><path
       d="M 0.13671875,-0.91308594 0.84960938,-1.7236328 Q 1.25,-1.4013672 1.7724609,-1.2060547 q 0.522461,0.1953125 1.09375,0.1953125 0.6591797,0 1.0351563,-0.2734375 0.3759765,-0.2734375 0.3759765,-0.7177734 0,-0.8398438 -0.9277343,-0.9619141 -0.2441406,-0.029297 -0.4541016,-0.058594 -0.2099609,-0.029297 -0.4882812,-0.068359 -0.9228516,-0.1269531 -1.40625,-0.6738281 -0.48339848,-0.5517578 -0.48339848,-1.328125 0,-0.9082032 0.60546878,-1.4941407 0.6103515,-0.5859375 1.7138672,-0.5859375 0.6591797,0 1.2402343,0.209961 0.5810547,0.2099609 1.069336,0.5322265 l -0.600586,0.8886719 Q 4.1552734,-5.7861328 3.7060547,-5.9375 3.2568359,-6.0888672 2.7880859,-6.0888672 q -0.4980468,0 -0.8447265,0.2539063 -0.3466797,0.2539062 -0.3466797,0.7617187 0,0.3027344 0.234375,0.5664063 0.234375,0.2636718 0.7763672,0.3466797 0.1416015,0.024414 0.3417969,0.053711 0.2001953,0.024414 0.4589843,0.053711 0.9960938,0.1220703 1.4697266,0.7226563 0.4785156,0.6005859 0.4785156,1.328125 0,0.9814453 -0.6787109,1.52343747 -0.678711,0.54199219 -1.8212891,0.54199219 -1.6064453,0 -2.71972655,-0.9765625 z"
       style="font-size:10px;font-family:AlteDIN1451Mittelschrift;fill:#ffffff;fill-opacity:1;stroke:none"
       id="path4262" /><path
       d="m 6.4111328,-1.6943359 v -3.3691407 h 1.0205078 v 3.022461 q 0,0.5175781 0.2832031,0.805664 0.288086,0.28320316 0.7275391,0.28320316 0.4248047,0 0.7080078,-0.28320316 0.288086,-0.2880859 0.288086,-0.805664 v -3.022461 H 10.458984 V 0.00488281 H 9.4384766 v -0.53710937 h -0.019531 q -0.4736328,0.59570312 -1.3085937,0.59570312 -0.600586,0 -1.1523438,-0.44433594 -0.546875,-0.44921875 -0.546875,-1.31347652 z"
       style="font-size:10px;font-family:AlteDIN1451Mittelschrift;fill:#ffffff;fill-opacity:1;stroke:none"
       id="path4264" /><path
       d="M 11.782227,0.00488281 V -7.109375 h 1.020507 v 2.5878906 q 0.283204,-0.2685547 0.595704,-0.4345703 0.317382,-0.1660156 0.71289,-0.1660156 0.463867,0 0.800781,0.1904297 0.336914,0.1855469 0.556641,0.46875 0.209961,0.2734375 0.283203,0.6396484 0.07813,0.3613281 0.07813,1.2890625 0,0.9375 -0.07813,1.3085938 -0.07324,0.3662109 -0.283203,0.63476559 -0.219727,0.28808593 -0.556641,0.47363281 -0.336914,0.18066406 -0.800781,0.18066406 -0.78125,0 -1.308594,-0.5859375 v 0.52734375 z m 2.021484,-4.10644531 q -0.717773,0 -0.859375,0.5126953 -0.141602,0.5126953 -0.141602,1.0546875 0,0.5566406 0.141602,1.069336 0.141602,0.51269526 0.859375,0.51269526 0.717773,0 0.859375,-0.49316406 0.146484,-0.4931641 0.146484,-1.0888672 0,-0.5810547 -0.146484,-1.0742187 -0.141602,-0.4931641 -0.859375,-0.4931641 z"
       style="font-size:10px;font-family:AlteDIN1451Mittelschrift;fill:#ffffff;fill-opacity:1;stroke:none"
       id="path4266" /></g><g
     aria-label="Sync Mode"
     transform="matrix(1 0 0 1 131.9531 293.0002)"
     style="font-size:8px;font-family:AlteDIN1451Mittelschrift;fill:#ffffff;fill-opacity:1;stroke:none"
     id="text3503"><path
       d="M 0.109375,-0.73046875 0.6796875,-1.3789062 Q 1,-1.1210937 1.4179687,-0.96484375 q 0.4179688,0.15625 0.8750001,0.15625 0.5273437,0 0.828125,-0.21874995 0.3007812,-0.21875 0.3007812,-0.5742188 0,-0.671875 -0.7421875,-0.7695313 Q 2.484375,-2.3945313 2.3164063,-2.4179688 2.1484375,-2.4414063 1.9257812,-2.4726563 1.1875,-2.5742188 0.80078125,-3.0117188 0.4140625,-3.453125 0.4140625,-4.0742187 q 0,-0.7265625 0.484375,-1.1953125 0.4882812,-0.46875 1.3710938,-0.46875 0.5273437,0 0.9921875,0.1679687 0.4648437,0.1679688 0.8554687,0.4257813 L 3.6367188,-4.4335937 Q 3.3242188,-4.6289062 2.9648438,-4.75 q -0.359375,-0.1210937 -0.734375,-0.1210937 -0.3984376,0 -0.6757813,0.203125 -0.2773438,0.203125 -0.2773438,0.609375 0,0.2421874 0.1875,0.4531249 0.1875,0.2109375 0.6210938,0.2773438 0.1132813,0.019531 0.2734375,0.042969 0.1601563,0.019531 0.3671875,0.042969 0.796875,0.097656 1.1757813,0.578125 0.3828124,0.4804687 0.3828124,1.0625 0,0.78515625 -0.5429687,1.21875 -0.5429687,0.43359375 -1.4570312,0.43359375 -1.2851563,0 -2.1757813,-0.78125 z"
       style="font-size:8px;font-family:AlteDIN1451Mittelschrift;fill:#ffffff;fill-opacity:1;stroke:none"
       id="path4169" /><path
       d="M 6,-0.15234375 4.546875,-4.0507812 H 5.40625 l 0.9609375,2.8398437 h 0.015625 L 7.34375,-4.0507812 H 8.2070313 L 6.4648437,0.84375 Q 6.2929687,1.3125 5.9921875,1.4765625 5.6914062,1.6445312 5.3203125,1.6445312 H 5.046875 V 0.875 h 0.2421875 q 0.3671875,0 0.4882812,-0.3515625 z"
       style="font-size:8px;font-family:AlteDIN1451Mittelschrift;fill:#ffffff;fill-opacity:1;stroke:none"
       id="path4171" /><path
       d="M 8.6757813,0.00390625 V -4.0507812 h 0.8164062 v 0.4335937 h 0.015625 q 0.3789063,-0.4804687 1.0546875,-0.4804687 0.472656,0 0.910156,0.3593749 0.441407,0.359375 0.441407,1.046875 V 0.00390625 H 11.097656 V -2.4101563 q 0,-0.4101562 -0.230468,-0.640625 -0.226563,-0.2304687 -0.566407,-0.2304687 -0.3515622,0 -0.582031,0.2304687 -0.2265625,0.2304688 -0.2265625,0.640625 v 2.41406255 z"
       style="font-size:8px;font-family:AlteDIN1451Mittelschrift;fill:#ffffff;fill-opacity:1;stroke:none"
       id="path4173" /><path
       d="m 15.355469,-1.1875 0.601562,0.5390625 Q 15.691406,-0.34375 15.324219,-0.14453125 14.960938,0.05078125 14.5,0.05078125 q -0.703125,0 -1.273437,-0.4765625 -0.566407,-0.48046875 -0.566407,-1.59375005 0,-1.1132812 0.566407,-1.59375 0.570312,-0.4843749 1.273437,-0.4843749 0.460938,0 0.824219,0.1992187 0.367187,0.1992187 0.632812,0.5039062 l -0.601562,0.5351563 q -0.34375,-0.421875 -0.824219,-0.421875 -1.054687,0 -1.054687,1.2617187 0,1.25781255 1.054687,1.25781255 0.484375,0 0.824219,-0.42578125 z"
       style="font-size:8px;font-family:AlteDIN1451Mittelschrift;fill:#ffffff;fill-opacity:1;stroke:none"
       id="path4175" /><path
       d="M 18.511719,0.00390625 V -5.6875 h 0.816406 L 20.960937,-1.9765625 22.558594,-5.6875 H 23.375 V 0.00390625 H 22.511719 V -3.546875 h -0.01563 l -1.191407,2.73828125 h -0.71875 L 19.394531,-3.546875 H 19.375 v 3.55078125 z"
       style="font-size:8px;font-family:AlteDIN1451Mittelschrift;fill:#ffffff;fill-opacity:1;stroke:none"
       id="path4177" /><path
       d="m 24.304687,-2.0273438 q 0,-0.6523437 0.101563,-0.9726562 0.101562,-0.3203125 0.335937,-0.578125 0.167969,-0.1835938 0.460938,-0.3515625 0.296875,-0.1679687 0.773437,-0.1679687 0.46875,0 0.765625,0.1679687 0.296875,0.1679687 0.464844,0.3515625 0.234375,0.2578125 0.335938,0.578125 0.101562,0.3203125 0.101562,0.9726562 0,0.6640626 -0.101562,0.9843751 -0.101563,0.32031245 -0.335938,0.57812495 -0.167969,0.1875 -0.464844,0.3515625 -0.296875,0.1640625 -0.765625,0.1640625 -0.476562,0 -0.773437,-0.1640625 -0.292969,-0.1640625 -0.460938,-0.3515625 -0.234375,-0.2578125 -0.335937,-0.57812495 -0.101563,-0.3203125 -0.101563,-0.9843751 z m 2.527344,0.00781 q 0,-0.4414062 -0.04687,-0.6210937 -0.04297,-0.1796875 -0.152344,-0.34375 -0.214843,-0.296875 -0.65625,-0.296875 -0.449218,0 -0.65625,0.296875 -0.117187,0.1640625 -0.160156,0.34375 -0.03906,0.1796875 -0.03906,0.6132812 0,0.4453126 0.03906,0.6289063 0.04297,0.1796875 0.160156,0.3398438 0.207032,0.29687495 0.65625,0.29687495 0.441407,0 0.65625,-0.29687495 0.109375,-0.1601563 0.152344,-0.3398438 0.04687,-0.1796875 0.04687,-0.6210938 z"
       style="font-size:8px;font-family:AlteDIN1451Mittelschrift;fill:#ffffff;fill-opacity:1;stroke:none"
       id="path4179" /><path
       d="m 30.925781,0.00390625 v -0.421875 q -0.425781,0.46875 -1.046875,0.46875 -0.375,0 -0.644531,-0.14453125 Q 28.964844,-0.2421875 28.792969,-0.47265625 28.621094,-0.6875 28.5625,-0.98046875 q -0.05859,-0.29687495 -0.05859,-1.04687505 0,-0.7421875 0.05859,-1.03125 0.05859,-0.2929687 0.230469,-0.5117187 0.171875,-0.2265625 0.441406,-0.375 0.269531,-0.1523437 0.644531,-0.1523437 0.3125,0 0.566406,0.1328124 0.253907,0.1328125 0.480469,0.3476563 V -5.6875 h 0.816406 V 0.00390625 Z M 30.128906,-3.28125 q -0.578125,0 -0.695312,0.3945312 -0.113282,0.3945313 -0.113282,0.859375 0,0.4765626 0.113282,0.8710938 0.117187,0.39453125 0.695312,0.39453125 0.566406,0 0.679688,-0.41015625 0.117187,-0.4101562 0.117187,-0.8554688 0,-0.4335937 -0.117187,-0.84375 Q 30.695312,-3.28125 30.128906,-3.28125 Z"
       style="font-size:8px;font-family:AlteDIN1451Mittelschrift;fill:#ffffff;fill-opacity:1;stroke:none"
       id="path4181" /><path
       d="m 35.78125,-1.7148437 h -2.523438 q 0,0.5 0.269532,0.74999995 0.273437,0.25 0.695312,0.25 0.503906,0 0.890625,-0.39062495 l 0.589844,0.5039062 Q 35.402344,-0.25 35.023437,-0.09765625 q -0.375,0.1484375 -0.785156,0.1484375 -0.625,0 -1.210937,-0.40234375 -0.585938,-0.40625 -0.585938,-1.65625 0,-1.1835938 0.539063,-1.6367188 0.542968,-0.4531249 1.132812,-0.4531249 0.667969,0 1.167969,0.4648437 0.5,0.4609375 0.5,1.2460937 z M 33.257812,-2.3867188 H 34.96875 Q 34.949219,-2.84375 34.710937,-3.0859375 34.472656,-3.328125 34.113281,-3.328125 q -0.363281,0 -0.605469,0.2421875 -0.238281,0.2421875 -0.25,0.6992187 z"
       style="font-size:8px;font-family:AlteDIN1451Mittelschrift;fill:#ffffff;fill-opacity:1;stroke:none"
       id="path4183" /></g><path
     class="st7"
     d="M174,95"
     id="path3505" /><path
     class="st7"
     d="M231,74.8"
     id="path3507" /><path
     id="rect75_2_"
     inkscape:connector-curvature="0"
     class="st8"
     d="M107,297h86v16h-86V297z"
     style="stroke:#414042;stroke-opacity:1;fill:#111111;fill-opacity:1" /><g
     aria-label="FM"
     transform="matrix(1 0 0 1 9.0281 326.7419)"
     style="font-size:10px;font-family:AlteDIN1451Mittelschrift;fill:#ffffff;fill-opacity:1;stroke:none"
     id="text3510"><path
       d="M 0.75683594,0.00488281 V -7.109375 H 5.3076172 v 1.0205078 H 1.8359375 v 2.0947266 h 2.9589844 v 0.961914 H 1.8359375 v 3.03710941 z"
       style="font-size:10px;font-family:AlteDIN1451Mittelschrift;fill:#ffffff;fill-opacity:1;stroke:none"
       id="path4285" /><path
       d="M 6.1279297,0.00488281 V -7.109375 h 1.0205078 l 2.0410156,4.6386719 1.9970699,-4.6386719 h 1.020508 V 0.00488281 H 11.12793 V -4.4335937 h -0.01953 L 9.6191406,-1.0107422 H 8.7207031 L 7.2314453,-4.4335937 h -0.024414 v 4.43847651 z"
       style="font-size:10px;font-family:AlteDIN1451Mittelschrift;fill:#ffffff;fill-opacity:1;stroke:none"
       id="path4287" /></g><path
     class="st9"
     d="M201.1,287.7"
     id="path3512" /><g
     aria-label="Phasor"
     transform="matrix(1 0 0 1 55.0071 350.6364)"
     style="font-size:10px;font-family:AlteDIN1451Mittelschrift;fill:#ffffff;fill-opacity:1;stroke:none"
     id="text3514"><path
       d="m 1.8359375,-6.0888672 v 2.2949219 H 3.4375 q 0.6005859,0 0.8935547,-0.3613281 0.2978515,-0.3613282 0.2978515,-0.7861328 0,-0.6445313 -0.4638671,-0.9472657 Q 3.8671875,-6.0888672 3.3984375,-6.0888672 Z M 0.75683594,0.00488281 V -7.109375 H 3.3398438 q 0.415039,0 0.7958984,0.087891 0.3857422,0.087891 0.8007812,0.4101563 0.3222657,0.2490234 0.546875,0.6884765 0.2246094,0.4345704 0.2246094,1.0107422 0,0.7617188 -0.5712891,1.4501953 -0.5664062,0.6884766 -1.6601562,0.6884766 h -1.640625 v 2.77832031 z"
       style="font-size:10px;font-family:AlteDIN1451Mittelschrift;fill:#ffffff;fill-opacity:1;stroke:none"
       id="path4249" /><path
       d="M 6.6064453,0.00488281 V -7.109375 h 1.0205078 v 2.5878906 h 0.019531 q 0.4736328,-0.6005859 1.3183594,-0.6005859 0.5908203,0 1.1376952,0.4492187 0.551758,0.4492188 0.551758,1.3085938 V 0.00488281 H 9.6337891 V -3.0126953 q 0,-0.5126953 -0.288086,-0.8007813 Q 9.0625,-4.1015625 8.6376953,-4.1015625 q -0.4394531,0 -0.7275391,0.2880859 -0.2832031,0.288086 -0.2832031,0.8007813 v 3.01757811 z"
       style="font-size:10px;font-family:AlteDIN1451Mittelschrift;fill:#ffffff;fill-opacity:1;stroke:none"
       id="path4251" /><path
       d="m 14.663086,0.02441406 v -0.44921875 h -0.01953 q -0.141602,0.26367188 -0.424805,0.38085938 -0.302734,0.12695312 -0.791016,0.12695312 -0.839843,-0.01953125 -1.269531,-0.44921875 -0.46875,-0.4296875 -0.46875,-1.09863276 0,-0.6347657 0.405274,-1.0644532 Q 12.5,-2.9589844 13.291016,-2.96875 h 1.37207 v -0.5371094 q 0.0049,-0.6738281 -1.010742,-0.6542968 -0.351563,0 -0.585938,0.078125 -0.229492,0.102539 -0.346679,0.3173828 l -0.78125,-0.6152344 q 0.566406,-0.7568359 1.665039,-0.7373047 0.922851,-0.00977 1.484375,0.3613281 0.551757,0.3857422 0.561523,1.3085938 v 3.47167966 z m 0,-1.78222656 v -0.3710938 h -1.186523 q -0.869141,0.024414 -0.859375,0.6152344 0,0.2539063 0.224609,0.4394532 0.214844,0.20019526 0.708008,0.20019526 0.625,0.009766 0.878906,-0.15136716 0.234375,-0.1611328 0.234375,-0.7324219 z"
       style="font-size:10px;font-family:AlteDIN1451Mittelschrift;fill:#ffffff;fill-opacity:1;stroke:none"
       id="path4253" /><path
       d="m 16.220703,-0.83984375 0.712891,-0.70312495 q 0.664062,0.64941401 1.596679,0.64941401 0.434571,0 0.717774,-0.16113281 0.283203,-0.1660156 0.283203,-0.4882812 0,-0.444336 -0.620117,-0.4980469 l -0.898438,-0.083008 q -0.629883,-0.048828 -1.044922,-0.4150391 -0.415039,-0.3662109 -0.415039,-1.0205078 0,-0.7714844 0.541993,-1.1669922 0.541992,-0.3955078 1.347656,-0.3955078 0.664062,0 1.137695,0.1904297 0.473633,0.1855469 0.849609,0.4980469 l -0.629882,0.7421874 q -0.302735,-0.2050781 -0.625,-0.336914 -0.322266,-0.1318359 -0.732422,-0.1318359 -0.488281,0 -0.678711,0.1757812 -0.19043,0.1708984 -0.19043,0.4345703 0,0.1660156 0.141602,0.3076172 0.141601,0.1416016 0.527343,0.1708984 l 0.839844,0.058594 q 0.786133,0.053711 1.12793,0.4882812 0.341797,0.4296875 0.341797,1.0302735 0,0.74707029 -0.610352,1.15234372 -0.610351,0.40527344 -1.489258,0.40527344 -1.264648,0 -2.231445,-0.90332031 z"
       style="font-size:10px;font-family:AlteDIN1451Mittelschrift;fill:#ffffff;fill-opacity:1;stroke:none"
       id="path4255" /><path
       d="m 21.337891,-2.5341797 q 0,-0.8154297 0.126953,-1.2158203 0.126953,-0.4003906 0.419922,-0.7226562 0.209961,-0.2294922 0.576171,-0.4394532 0.371094,-0.2099609 0.966797,-0.2099609 0.585938,0 0.957032,0.2099609 0.371093,0.209961 0.581054,0.4394532 0.292969,0.3222656 0.419922,0.7226562 0.126953,0.4003906 0.126953,1.2158203 0,0.8300781 -0.126953,1.2304688 -0.126953,0.40039059 -0.419922,0.72265621 -0.209961,0.234375 -0.581054,0.43945313 -0.371094,0.20507812 -0.957032,0.20507812 -0.595703,0 -0.966797,-0.20507812 -0.36621,-0.20507813 -0.576171,-0.43945313 -0.292969,-0.32226562 -0.419922,-0.72265621 -0.126953,-0.4003907 -0.126953,-1.2304688 z m 3.159179,0.00977 q 0,-0.5517578 -0.05859,-0.7763672 -0.05371,-0.2246093 -0.19043,-0.4296875 -0.268555,-0.3710937 -0.820313,-0.3710937 -0.561523,0 -0.820312,0.3710937 -0.146485,0.2050782 -0.200195,0.4296875 -0.04883,0.2246094 -0.04883,0.7666016 0,0.5566406 0.04883,0.7861328 0.05371,0.2246094 0.200195,0.4248047 0.258789,0.37109376 0.820312,0.37109376 0.551758,0 0.820313,-0.37109376 0.136719,-0.2001953 0.19043,-0.4248047 0.05859,-0.2246093 0.05859,-0.7763672 z"
       style="font-size:10px;font-family:AlteDIN1451Mittelschrift;fill:#ffffff;fill-opacity:1;stroke:none"
       id="path4257" /><path
       d="M 26.586914,0.00488281 V -5.0634766 h 1.020508 v 0.5419922 h 0.01953 q 0.473633,-0.6005859 1.318359,-0.6005859 0.556641,0 1.059571,0.390625 l -0.737305,0.8789062 q -0.332031,-0.2490234 -0.673828,-0.2490234 -0.375977,0 -0.683594,0.2539062 -0.302734,0.2490235 -0.302734,0.8056641 v 3.04687501 z"
       style="font-size:10px;font-family:AlteDIN1451Mittelschrift;fill:#ffffff;fill-opacity:1;stroke:none"
       id="path4259" /></g><g
     aria-label="EOC"
     transform="matrix(1 0 0 1 93.3935 350.6366)"
     style="font-size:10px;font-family:AlteDIN1451Mittelschrift;fill:#ffffff;fill-opacity:1;stroke:none"
     id="text3516"><path
       d="M 0.75683594,0.00488281 V -7.109375 H 5.3076172 v 1.0205078 H 1.8359375 V -4.0625 h 2.9589844 v 0.9619141 H 1.8359375 v 2.0898437 h 3.4716797 v 1.01562501 z"
       style="font-size:10px;font-family:AlteDIN1451Mittelschrift;fill:#ffffff;fill-opacity:1;stroke:none"
       id="path4242" /><path
       d="m 6.0839844,-3.5498047 q 0,-1.2841797 0.068359,-1.6552734 0.068359,-0.3710938 0.2441407,-0.6835938 0.2490234,-0.4638672 0.8154297,-0.8740234 0.571289,-0.4101563 1.4111328,-0.4101563 0.8349609,0 1.4013671,0.4101563 0.571289,0.4101562 0.830078,0.8740234 0.170899,0.3125 0.239258,0.6835938 0.06836,0.3710937 0.06836,1.6552734 0,1.2841797 -0.06836,1.6552735 -0.06836,0.3710937 -0.239258,0.6835937 -0.258789,0.46875 -0.830078,0.87402344 -0.5664062,0.40039062 -1.4013671,0.40039062 -0.8398438,0 -1.4111328,-0.40039062 Q 6.6455078,-0.7421875 6.3964844,-1.2109375 6.2207031,-1.5234375 6.1523437,-1.8945312 6.0839844,-2.265625 6.0839844,-3.5498047 Z m 1.0791015,0 q 0,1.0986328 0.073242,1.4257813 0.078125,0.3271484 0.288086,0.5908203 0.1611328,0.2148437 0.4394531,0.3710937 0.2783203,0.1513672 0.6591797,0.1513672 0.3808594,0 0.6591797,-0.1513672 0.2783203,-0.15625 0.4394531,-0.3710937 0.2099609,-0.2636719 0.2832033,-0.5908203 0.07813,-0.3271485 0.07813,-1.4257813 0,-1.09375 -0.07813,-1.4208984 -0.073242,-0.3271485 -0.2832033,-0.600586 -0.1611328,-0.2050781 -0.4394531,-0.3613281 -0.2783203,-0.15625 -0.6591797,-0.15625 -0.3808594,0 -0.6591797,0.15625 -0.2783203,0.15625 -0.4394531,0.3613281 -0.209961,0.2734375 -0.288086,0.600586 -0.073242,0.3271484 -0.073242,1.4208984 z"
       style="font-size:10px;font-family:AlteDIN1451Mittelschrift;fill:#ffffff;fill-opacity:1;stroke:none"
       id="path4244" /><path
       d="m 16.079102,-1.9824219 h 1.137695 q -0.209961,0.99609377 -0.898438,1.52343752 -0.688476,0.52246094 -1.601562,0.52246094 -0.839844,0 -1.411133,-0.40039062 -0.566406,-0.40527344 -0.81543,-0.87402344 -0.175781,-0.3125 -0.24414,-0.6835937 -0.06836,-0.3710938 -0.06836,-1.6552735 0,-1.2841797 0.06836,-1.6552734 0.06836,-0.3710938 0.24414,-0.6835938 0.249024,-0.4638672 0.81543,-0.8740234 0.571289,-0.4101563 1.411133,-0.4101563 1.010742,0 1.669922,0.625 0.664062,0.6201172 0.830078,1.484375 h -1.137695 q -0.131836,-0.4101562 -0.493164,-0.7177734 -0.356446,-0.3076172 -0.869141,-0.3076172 -0.380859,0 -0.65918,0.15625 -0.27832,0.15625 -0.439453,0.3613281 -0.209961,0.2734375 -0.288086,0.600586 -0.07324,0.3271484 -0.07324,1.4208984 0,1.0986328 0.07324,1.4257813 0.07813,0.3271484 0.288086,0.5908203 0.161133,0.2148437 0.439453,0.3710937 0.278321,0.1513672 0.65918,0.1513672 0.898437,0 1.362305,-0.9716797 z"
       style="font-size:10px;font-family:AlteDIN1451Mittelschrift;fill:#ffffff;fill-opacity:1;stroke:none"
       id="path4246" /></g><g
     aria-label="Pre. EH"
     transform="matrix(1 0 0 1 150.1897 350.637)"
     style="font-size:10px;font-family:AlteDIN1451Mittelschrift;fill:#ffffff;fill-opacity:1;stroke:none"
     id="text3518"><path
       d="m 1.8359375,-6.0888672 v 2.2949219 H 3.4375 q 0.6005859,0 0.8935547,-0.3613281 0.2978515,-0.3613282 0.2978515,-0.7861328 0,-0.6445313 -0.4638671,-0.9472657 Q 3.8671875,-6.0888672 3.3984375,-6.0888672 Z M 0.75683594,0.00488281 V -7.109375 H 3.3398438 q 0.415039,0 0.7958984,0.087891 0.3857422,0.087891 0.8007812,0.4101563 0.3222657,0.2490234 0.546875,0.6884765 0.2246094,0.4345704 0.2246094,1.0107422 0,0.7617188 -0.5712891,1.4501953 -0.5664062,0.6884766 -1.6601562,0.6884766 h -1.640625 v 2.77832031 z"
       style="font-size:10px;font-family:AlteDIN1451Mittelschrift;fill:#ffffff;fill-opacity:1;stroke:none"
       id="path4229" /><path
       d="M 6.6064453,0.00488281 V -5.0634766 h 1.0205078 v 0.5419922 h 0.019531 q 0.4736328,-0.6005859 1.3183594,-0.6005859 0.5566406,0 1.0595702,0.390625 l -0.7373046,0.8789062 q -0.3320313,-0.2490234 -0.6738281,-0.2490234 -0.3759766,0 -0.6835938,0.2539062 -0.3027344,0.2490235 -0.3027344,0.8056641 v 3.04687501 z"
       style="font-size:10px;font-family:AlteDIN1451Mittelschrift;fill:#ffffff;fill-opacity:1;stroke:none"
       id="path4231" /><path
       d="m 14.394531,-2.1435547 h -3.154297 q 0,0.625 0.336914,0.9375 0.341797,0.31250001 0.869141,0.31250001 0.629883,0 1.113281,-0.48828121 l 0.737305,0.62988278 q -0.375977,0.43945312 -0.849609,0.62988281 -0.46875,0.18554687 -0.981446,0.18554687 -0.78125,0 -1.513672,-0.50292969 -0.732421,-0.5078125 -0.732421,-2.07031247 0,-1.4794922 0.673828,-2.0458985 0.678711,-0.5664062 1.416015,-0.5664062 0.834961,0 1.459961,0.5810547 0.625,0.5761718 0.625,1.5576172 z m -3.154297,-0.8398437 h 2.138672 q -0.02441,-0.5712891 -0.322265,-0.8740235 -0.297852,-0.3027343 -0.747071,-0.3027343 -0.454101,0 -0.756836,0.3027343 -0.297851,0.3027344 -0.3125,0.8740235 z"
       style="font-size:10px;font-family:AlteDIN1451Mittelschrift;fill:#ffffff;fill-opacity:1;stroke:none"
       id="path4233" /><path
       d="M 15.50293,0.00488281 V -1.0107422 h 1.020507 v 1.01562501 z"
       style="font-size:10px;font-family:AlteDIN1451Mittelschrift;fill:#ffffff;fill-opacity:1;stroke:none"
       id="path4235" /><path
       d="M 20.366211,0.00488281 V -7.109375 h 4.550781 v 1.0205078 h -3.47168 V -4.0625 h 2.958985 v 0.9619141 h -2.958985 v 2.0898437 h 3.47168 v 1.01562501 z"
       style="font-size:10px;font-family:AlteDIN1451Mittelschrift;fill:#ffffff;fill-opacity:1;stroke:none"
       id="path4237" /><path
       d="M 29.833984,0.00488281 V -3.1005859 H 27.011719 V 0.00488281 H 25.932617 V -7.109375 h 1.079102 V -4.0625 h 2.822265 v -3.046875 h 1.079102 v 7.11425781 z"
       style="font-size:10px;font-family:AlteDIN1451Mittelschrift;fill:#ffffff;fill-opacity:1;stroke:none"
       id="path4239" /></g><g
     aria-label="Env"
     transform="matrix(1 0 0 1 126.3195 350.5735)"
     style="font-size:10px;font-family:AlteDIN1451Mittelschrift;fill:#ffffff;fill-opacity:1;stroke:none"
     id="text3520"><path
       d="M 0.75683594,0.00488281 V -7.109375 H 5.3076172 v 1.0205078 H 1.8359375 V -4.0625 h 2.9589844 v 0.9619141 H 1.8359375 v 2.0898437 h 3.4716797 v 1.01562501 z"
       style="font-size:10px;font-family:AlteDIN1451Mittelschrift;fill:#ffffff;fill-opacity:1;stroke:none"
       id="path4222" /><path
       d="M 6.2353516,0.00488281 V -5.0634766 h 1.0205078 v 0.5419922 h 0.019531 q 0.4736328,-0.6005859 1.3183594,-0.6005859 0.5908203,0 1.1376953,0.4492187 0.5517577,0.4492188 0.5517577,1.3085938 V 0.00488281 H 9.2626953 V -3.0126953 q 0,-0.5126953 -0.2880859,-0.8007813 -0.2832031,-0.2880859 -0.7080078,-0.2880859 -0.4394532,0 -0.7275391,0.2880859 -0.2832031,0.288086 -0.2832031,0.8007813 v 3.01757811 z"
       style="font-size:10px;font-family:AlteDIN1451Mittelschrift;fill:#ffffff;fill-opacity:1;stroke:none"
       id="path4224" /><path
       d="M 12.744141,0.00488281 10.888672,-5.0634766 h 1.079101 l 1.186524,3.5498047 h 0.01953 l 1.191406,-3.5498047 h 1.079102 l -1.860352,5.06835941 z"
       style="font-size:10px;font-family:AlteDIN1451Mittelschrift;fill:#ffffff;fill-opacity:1;stroke:none"
       id="path4226" /></g><g
     aria-label="VCA"
     transform="matrix(1 0 0 1 6.7283 292.8593)"
     style="font-size:10px;font-family:AlteDIN1451Mittelschrift;fill:#ffffff;fill-opacity:1;stroke:none"
     id="text3522"><path
       d="M 2.3681641,0.00488281 0.01953125,-7.109375 H 1.1572266 l 1.6210937,5.4150391 h 0.019531 L 4.4189453,-7.109375 H 5.5566406 L 3.2080078,0.00488281 Z"
       style="font-size:10px;font-family:AlteDIN1451Mittelschrift;fill:#ffffff;fill-opacity:1;stroke:none"
       id="path4278" /><path
       d="m 9.9853516,-1.9824219 h 1.1376954 q -0.209961,0.99609377 -0.898438,1.52343752 -0.6884762,0.52246094 -1.6015621,0.52246094 -0.8398438,0 -1.4111328,-0.40039062 -0.5664063,-0.40527344 -0.8154297,-0.87402344 -0.1757813,-0.3125 -0.2441407,-0.6835937 -0.068359,-0.3710938 -0.068359,-1.6552735 0,-1.2841797 0.068359,-1.6552734 0.068359,-0.3710938 0.2441407,-0.6835938 0.2490234,-0.4638672 0.8154297,-0.8740234 0.571289,-0.4101563 1.4111328,-0.4101563 1.0107422,0 1.6699221,0.625 0.664062,0.6201172 0.830078,1.484375 H 9.9853516 Q 9.8535156,-5.4736328 9.4921875,-5.78125 9.1357422,-6.0888672 8.6230469,-6.0888672 q -0.3808594,0 -0.6591797,0.15625 -0.2783203,0.15625 -0.4394531,0.3613281 -0.209961,0.2734375 -0.288086,0.600586 -0.073242,0.3271484 -0.073242,1.4208984 0,1.0986328 0.073242,1.4257813 0.078125,0.3271484 0.288086,0.5908203 0.1611328,0.2148437 0.4394531,0.3710937 0.2783203,0.1513672 0.6591797,0.1513672 0.8984375,0 1.3623047,-0.9716797 z"
       style="font-size:10px;font-family:AlteDIN1451Mittelschrift;fill:#ffffff;fill-opacity:1;stroke:none"
       id="path4280" /><path
       d="m 11.142578,0 2.597656,-7.1191406 h 0.888672 L 17.226562,0 H 16.09375 L 15.546875,-1.6064453 H 12.84668 L 12.280273,0 Z m 2.021485,-2.5585938 h 2.060546 Q 15,-3.2177734 14.868164,-3.5888672 q -0.126953,-0.3759766 -0.224609,-0.6640625 -0.09277,-0.2880859 -0.19043,-0.5859375 -0.09766,-0.2978515 -0.258789,-0.805664 -0.170898,0.5273437 -0.273438,0.8447265 -0.102539,0.3125 -0.200195,0.6054688 -0.09277,0.2929687 -0.219726,0.6542968 -0.122071,0.3613282 -0.336914,0.9814453 z"
       style="font-size:10px;font-family:AlteDIN1451Mittelschrift;fill:#ffffff;fill-opacity:1;stroke:none"
       id="path4282" /></g><g
     aria-label="FM"
     transform="matrix(1 0 0 1 277.9504 326.7419)"
     style="font-size:10px;font-family:AlteDIN1451Mittelschrift;fill:#ffffff;fill-opacity:1;stroke:none"
     id="text3524"><path
       d="M 0.75683594,0.00488281 V -7.109375 H 5.3076172 v 1.0205078 H 1.8359375 v 2.0947266 h 2.9589844 v 0.961914 H 1.8359375 v 3.03710941 z"
       style="font-size:10px;font-family:AlteDIN1451Mittelschrift;fill:#ffffff;fill-opacity:1;stroke:none"
       id="path4306" /><path
       d="M 6.1279297,0.00488281 V -7.109375 h 1.0205078 l 2.0410156,4.6386719 1.9970699,-4.6386719 h 1.020508 V 0.00488281 H 11.12793 V -4.4335937 h -0.01953 L 9.6191406,-1.0107422 H 8.7207031 L 7.2314453,-4.4335937 h -0.024414 v 4.43847651 z"
       style="font-size:10px;font-family:AlteDIN1451Mittelschrift;fill:#ffffff;fill-opacity:1;stroke:none"
       id="path4308" /></g><g
     aria-label="VCA"
     transform="matrix(1 0 0 1 275.6506 292.8593)"
     style="font-size:10px;font-family:AlteDIN1451Mittelschrift;fill:#ffffff;fill-opacity:1;stroke:none"
     id="text3526"><path
       d="M 2.3681641,0.00488281 0.01953125,-7.109375 H 1.1572266 l 1.6210937,5.4150391 h 0.019531 L 4.4189453,-7.109375 H 5.5566406 L 3.2080078,0.00488281 Z"
       style="font-size:10px;font-family:AlteDIN1451Mittelschrift;fill:#ffffff;fill-opacity:1;stroke:none"
       id="path4299" /><path
       d="m 9.9853516,-1.9824219 h 1.1376954 q -0.209961,0.99609377 -0.898438,1.52343752 -0.6884762,0.52246094 -1.6015621,0.52246094 -0.8398438,0 -1.4111328,-0.40039062 -0.5664063,-0.40527344 -0.8154297,-0.87402344 -0.1757813,-0.3125 -0.2441407,-0.6835937 -0.068359,-0.3710938 -0.068359,-1.6552735 0,-1.2841797 0.068359,-1.6552734 0.068359,-0.3710938 0.2441407,-0.6835938 0.2490234,-0.4638672 0.8154297,-0.8740234 0.571289,-0.4101563 1.4111328,-0.4101563 1.0107422,0 1.6699221,0.625 0.664062,0.6201172 0.830078,1.484375 H 9.9853516 Q 9.8535156,-5.4736328 9.4921875,-5.78125 9.1357422,-6.0888672 8.6230469,-6.0888672 q -0.3808594,0 -0.6591797,0.15625 -0.2783203,0.15625 -0.4394531,0.3613281 -0.209961,0.2734375 -0.288086,0.600586 -0.073242,0.3271484 -0.073242,1.4208984 0,1.0986328 0.073242,1.4257813 0.078125,0.3271484 0.288086,0.5908203 0.1611328,0.2148437 0.4394531,0.3710937 0.2783203,0.1513672 0.6591797,0.1513672 0.8984375,0 1.3623047,-0.9716797 z"
       style="font-size:10px;font-family:AlteDIN1451Mittelschrift;fill:#ffffff;fill-opacity:1;stroke:none"
       id="path4301" /><path
       d="m 11.142578,0 2.597656,-7.1191406 h 0.888672 L 17.226562,0 H 16.09375 L 15.546875,-1.6064453 H 12.84668 L 12.280273,0 Z m 2.021485,-2.5585938 h 2.060546 Q 15,-3.2177734 14.868164,-3.5888672 q -0.126953,-0.3759766 -0.224609,-0.6640625 -0.09277,-0.2880859 -0.19043,-0.5859375 -0.09766,-0.2978515 -0.258789,-0.805664 -0.170898,0.5273437 -0.273438,0.8447265 -0.102539,0.3125 -0.200195,0.6054688 -0.09277,0.2929687 -0.219726,0.6542968 -0.122071,0.3613282 -0.336914,0.9814453 z"
       style="font-size:10px;font-family:AlteDIN1451Mittelschrift;fill:#ffffff;fill-opacity:1;stroke:none"
       id="path4303" /></g><path
     class="st10"
     d="M179,240.8"
     id="path3528" /><path
     class="st10"
     d="M150.1,229.7"
     id="path3530" /><path
     class="st10"
     d="M71.5,248.4c0,0-5.2,91.2-56.5,90.6"
     id="path3532"
     style="fill:#1e1e1e;fill-opacity:0;stroke:#c0c0c0;stroke-opacity:1" /><path
     class="st10"
     d="M66,282c0,0-8.4,25-51,25"
     id="path3534"
     style="fill:#1e1e1e;fill-opacity:0;stroke:#c0c0c0;stroke-opacity:1" /><path
     class="st10"
     d="M71.5,248.4c0,0-13.7,48.2-56.4,22.7"
     id="path3536"
     style="fill:#1e1e1e;fill-opacity:0;stroke:#c0c0c0;stroke-opacity:1" /><g
     id="g3544"
     style="fill:#282828;fill-opacity:1;stroke:#c0c0c0;stroke-opacity:1"><circle
       class="st11"
       cx="66"
       cy="282"
       r="5.5"
       id="circle3538"
       style="fill:#282828;fill-opacity:1;stroke:#c0c0c0;stroke-opacity:1" /><line
       class="st10"
       x1="66"
       y1="287.4"
       x2="66"
       y2="276.5"
       id="line3540"
       style="fill:#282828;fill-opacity:1;stroke:#c0c0c0;stroke-opacity:1" /><line
       class="st10"
       x1="60.5"
       y1="282"
       x2="71.5"
       y2="282"
       id="line3542"
       style="fill:#282828;fill-opacity:1;stroke:#c0c0c0;stroke-opacity:1" /></g><g
     aria-label="Sync"
     transform="matrix(1 0 0 1 203.01 284.8968)"
     style="font-size:10px;font-family:AlteDIN1451Mittelschrift;fill:#ffffff;fill-opacity:1;stroke:none"
     id="text3546"><path
       d="M 0.13671875,-0.91308594 0.84960938,-1.7236328 Q 1.25,-1.4013672 1.7724609,-1.2060547 q 0.522461,0.1953125 1.09375,0.1953125 0.6591797,0 1.0351563,-0.2734375 0.3759765,-0.2734375 0.3759765,-0.7177734 0,-0.8398438 -0.9277343,-0.9619141 -0.2441406,-0.029297 -0.4541016,-0.058594 -0.2099609,-0.029297 -0.4882812,-0.068359 -0.9228516,-0.1269531 -1.40625,-0.6738281 -0.48339848,-0.5517578 -0.48339848,-1.328125 0,-0.9082032 0.60546878,-1.4941407 0.6103515,-0.5859375 1.7138672,-0.5859375 0.6591797,0 1.2402343,0.209961 0.5810547,0.2099609 1.069336,0.5322265 l -0.600586,0.8886719 Q 4.1552734,-5.7861328 3.7060547,-5.9375 3.2568359,-6.0888672 2.7880859,-6.0888672 q -0.4980468,0 -0.8447265,0.2539063 -0.3466797,0.2539062 -0.3466797,0.7617187 0,0.3027344 0.234375,0.5664063 0.234375,0.2636718 0.7763672,0.3466797 0.1416015,0.024414 0.3417969,0.053711 0.2001953,0.024414 0.4589843,0.053711 0.9960938,0.1220703 1.4697266,0.7226563 0.4785156,0.6005859 0.4785156,1.328125 0,0.9814453 -0.6787109,1.52343747 -0.678711,0.54199219 -1.8212891,0.54199219 -1.6064453,0 -2.71972655,-0.9765625 z"
       style="font-size:10px;font-family:AlteDIN1451Mittelschrift;fill:#ffffff;fill-opacity:1;stroke:none"
       id="path4195" /><path
       d="M 7.5,-0.19042969 5.6835937,-5.0634766 h 1.0742188 l 1.2011719,3.5498047 h 0.019531 L 9.1796875,-5.0634766 H 10.258789 L 8.0810547,1.0546875 Q 7.8662109,1.640625 7.4902344,1.8457031 7.1142578,2.0556641 6.6503906,2.0556641 H 6.3085937 V 1.09375 h 0.3027344 q 0.4589844,0 0.6103516,-0.43945313 z"
       style="font-size:10px;font-family:AlteDIN1451Mittelschrift;fill:#ffffff;fill-opacity:1;stroke:none"
       id="path4197" /><path
       d="M 10.844727,0.00488281 V -5.0634766 h 1.020507 v 0.5419922 h 0.01953 q 0.473632,-0.6005859 1.318359,-0.6005859 0.59082,0 1.137695,0.4492187 0.551758,0.4492188 0.551758,1.3085938 V 0.00488281 H 13.87207 V -3.0126953 q 0,-0.5126953 -0.288086,-0.8007813 -0.283203,-0.2880859 -0.708007,-0.2880859 -0.439454,0 -0.727539,0.2880859 -0.283204,0.288086 -0.283204,0.8007813 v 3.01757811 z"
       style="font-size:10px;font-family:AlteDIN1451Mittelschrift;fill:#ffffff;fill-opacity:1;stroke:none"
       id="path4199" /><path
       d="m 19.194336,-1.484375 0.751953,0.67382812 q -0.332031,0.38085938 -0.791016,0.62988282 -0.454101,0.24414062 -1.030273,0.24414062 -0.878906,0 -1.591797,-0.59570312 -0.708008,-0.60058594 -0.708008,-1.99218754 0,-1.3916015 0.708008,-1.9921875 0.712891,-0.6054687 1.591797,-0.6054687 0.576172,0 1.030273,0.2490234 0.458985,0.2490235 0.791016,0.6298828 l -0.751953,0.6689453 q -0.429688,-0.5273437 -1.030274,-0.5273437 -1.318359,0 -1.318359,1.5771484 0,1.57226566 1.318359,1.57226566 0.605469,0 1.030274,-0.53222656 z"
       style="font-size:10px;font-family:AlteDIN1451Mittelschrift;fill:#ffffff;fill-opacity:1;stroke:none"
       id="path4201" /></g><g
     aria-label="Trig"
     transform="matrix(1 0 0 1 141.8651 275.9152)"
     style="font-size:10px;font-family:AlteDIN1451Mittelschrift;fill:#ffffff;fill-opacity:1;stroke:none"
     id="text3548"><path
       d="M 1.9677734,0.00488281 V -6.1523437 H 0.01953125 V -7.109375 H 4.9951172 v 0.9570313 H 3.046875 v 6.15722651 z"
       style="font-size:10px;font-family:AlteDIN1451Mittelschrift;fill:#ffffff;fill-opacity:1;stroke:none"
       id="path4160" /><path
       d="M 5.6689453,0.00488281 V -5.0634766 h 1.0205078 v 0.5419922 h 0.019531 q 0.4736328,-0.6005859 1.3183594,-0.6005859 0.5566406,0 1.0595703,0.390625 l -0.7373047,0.8789062 q -0.3320313,-0.2490234 -0.6738282,-0.2490234 -0.3759765,0 -0.6835937,0.2539062 -0.3027344,0.2490235 -0.3027344,0.8056641 v 3.04687501 z"
       style="font-size:10px;font-family:AlteDIN1451Mittelschrift;fill:#ffffff;fill-opacity:1;stroke:none"
       id="path4162" /><path
       d="M 9.5849609,0.00488281 V -5.0634766 h 1.0205081 v 5.06835941 z m 0,-6.09375001 V -7.109375 h 1.0205081 v 1.0205078 z"
       style="font-size:10px;font-family:AlteDIN1451Mittelschrift;fill:#ffffff;fill-opacity:1;stroke:none"
       id="path4164" /><path
       d="m 14.804688,0 v -0.52246094 q -0.532227,0.5859375 -1.308594,0.5859375 -0.498047,0 -0.834961,-0.1953125 -0.332031,-0.20019531 -0.50293,-0.41992187 -0.219726,-0.28320313 -0.302734,-0.60058589 -0.07813,-0.3173829 -0.07813,-1.3720704 0,-1.0546875 0.07813,-1.3720703 0.08301,-0.3173828 0.302734,-0.6054687 0.170899,-0.2148438 0.50293,-0.4150391 0.336914,-0.2050781 0.834961,-0.2050781 0.742187,0 1.308594,0.6005859 v -0.5419922 h 1.020507 v 4.95117191 q 0,1.14257809 -0.668945,1.68457029 -0.664062,0.5419922 -1.52832,0.5419922 -0.488282,0 -0.957032,-0.234375 -0.46875,-0.234375 -0.805664,-0.6152344 L 12.65625,0.63476562 Q 12.841797,0.8203125 13.095703,0.95703125 13.354492,1.09375 13.647461,1.09375 q 0.507812,0 0.830078,-0.28320312 Q 14.804688,0.52734375 14.804688,0 Z m -2.006836,-2.5244141 q 0,0.6103516 0.0293,0.8105469 0.03418,0.2001953 0.170899,0.3710938 0.102539,0.1367187 0.302734,0.2636718 0.200196,0.12695316 0.507813,0.12695316 0.297851,0 0.493164,-0.12695316 0.200195,-0.1269531 0.307617,-0.2636718 0.131836,-0.1708985 0.161133,-0.3710938 0.03418,-0.2001953 0.03418,-0.8105469 0,-0.6103515 -0.03418,-0.8105468 -0.0293,-0.2001954 -0.161133,-0.3759766 -0.107422,-0.1318359 -0.307617,-0.2587891 -0.195313,-0.1318359 -0.493164,-0.1318359 -0.307617,0 -0.507813,0.1318359 -0.200195,0.1269532 -0.302734,0.2587891 -0.136719,0.1757812 -0.170899,0.3759766 -0.0293,0.2001953 -0.0293,0.8105468 z"
       style="font-size:10px;font-family:AlteDIN1451Mittelschrift;fill:#ffffff;fill-opacity:1;stroke:none"
       id="path4166" /></g><g
     id="g3556"
     style="fill:#282828;fill-opacity:1;stroke:#c0c0c0;stroke-opacity:1"><circle
       class="st11"
       cx="71.5"
       cy="248.4"
       r="5.5"
       id="circle3550"
       style="fill:#282828;fill-opacity:1;stroke:#c0c0c0;stroke-opacity:1" /><line
       class="st10"
       x1="75.4"
       y1="252.3"
       x2="67.6"
       y2="244.5"
       id="line3552"
       style="fill:#282828;fill-opacity:1;stroke:#c0c0c0;stroke-opacity:1" /><line
       class="st10"
       x1="67.6"
       y1="252.3"
       x2="75.4"
       y2="244.5"
       id="line3554"
       style="fill:#282828;fill-opacity:1;stroke:#c0c0c0;stroke-opacity:1" /></g><path
     class="st12"
     d="M118,282c0-15.1,17-28,17-28v15.2c0,2.1,1.7,3.7,3.7,3.7"
     id="path3558"
     style="stroke:#ffb24a;stroke-opacity:1;fill:#1e1e1e;fill-opacity:0.02314815;stroke-width:2;stroke-miterlimit:10;stroke-dasharray:none" /><path
     class="st12"
     d="M182,282c0-15.1-17-28-17-28v15.2c0,2.1-1.7,3.7-3.7,3.7"
     id="path3560"
     style="stroke:#ffb24a;stroke-opacity:1;fill:#1e1e1e;fill-opacity:0.02314815;stroke-width:2;stroke-miterlimit:10;stroke-dasharray:none" /><g
     aria-label="Weak"
     transform="matrix(1 0 0 1 203.6878 314.6086)"
     style="font-size:8px;font-family:AlteDIN1451Mittelschrift;fill:#ffffff;fill-opacity:1;stroke:none"
     id="text3562"><path
       d="M 1.5195312,0.00390625 0.09375,-5.6875 h 0.9140625 l 0.8945312,4.046875 h 0.015625 L 3.0234375,-5.6875 H 3.6445313 L 4.75,-1.640625 H 4.765625 L 5.6601562,-5.6875 H 6.5742187 L 5.1484375,0.00390625 h -0.71875 L 3.3398438,-4.0976562 H 3.3242188 L 2.2382813,0.00390625 Z"
       style="font-size:8px;font-family:AlteDIN1451Mittelschrift;fill:#ffffff;fill-opacity:1;stroke:none"
       id="path4186" /><path
       d="M 10.3125,-1.7148437 H 7.7890625 q 0,0.5 0.2695313,0.74999995 0.2734375,0.25 0.6953125,0.25 0.5039062,0 0.890625,-0.39062495 l 0.5898437,0.5039062 Q 9.9335938,-0.25 9.5546875,-0.09765625 q -0.375,0.1484375 -0.7851562,0.1484375 -0.625,0 -1.2109376,-0.40234375 -0.5859375,-0.40625 -0.5859375,-1.65625 0,-1.1835938 0.5390625,-1.6367188 0.5429688,-0.4531249 1.1328126,-0.4531249 0.6679687,0 1.1679687,0.4648437 0.5,0.4609375 0.5,1.2460937 z M 7.7890625,-2.3867188 H 9.5 Q 9.4804688,-2.84375 9.2421875,-3.0859375 9.0039063,-3.328125 8.6445313,-3.328125 q -0.3632813,0 -0.6054688,0.2421875 -0.2382813,0.2421875 -0.25,0.6992187 z"
       style="font-size:8px;font-family:AlteDIN1451Mittelschrift;fill:#ffffff;fill-opacity:1;stroke:none"
       id="path4188" /><path
       d="m 13.324219,0.01953125 v -0.359375 h -0.01563 q -0.113281,0.2109375 -0.339844,0.3046875 -0.242187,0.1015625 -0.632812,0.1015625 -0.671875,-0.015625 -1.015625,-0.359375 -0.375,-0.34375 -0.375,-0.87890625 0,-0.5078125 0.324218,-0.8515625 0.324219,-0.34375 0.957032,-0.3515625 h 1.097656 v -0.4296875 q 0.0039,-0.5390625 -0.808594,-0.5234375 -0.28125,0 -0.46875,0.0625 -0.183594,0.082031 -0.277344,0.2539062 l -0.625,-0.4921875 q 0.453125,-0.6054687 1.332032,-0.5898437 0.738281,-0.00781 1.1875,0.2890625 0.441406,0.3085937 0.449218,1.046875 v 2.77734375 z m 0,-1.42578125 V -1.703125 H 12.375 q -0.695312,0.019531 -0.6875,0.4921875 0,0.203125 0.179688,0.3515625 0.171875,0.16015625 0.566406,0.16015625 0.5,0.007813 0.703125,-0.12109375 0.1875,-0.12890625 0.1875,-0.5859375 z"
       style="font-size:8px;font-family:AlteDIN1451Mittelschrift;fill:#ffffff;fill-opacity:1;stroke:none"
       id="path4190" /><path
       d="M 15.019531,0.00390625 V -5.6875 h 0.816407 v 3.5429687 h 0.01563 l 1.558593,-1.9062499 h 0.976563 l -1.398438,1.5859374 1.589844,2.46875005 H 17.554687 L 16.476562,-1.890625 15.835938,-1.1601562 v 1.16406245 z"
       style="font-size:8px;font-family:AlteDIN1451Mittelschrift;fill:#ffffff;fill-opacity:1;stroke:none"
       id="path4192" /></g><g
     aria-label="Weak"
     transform="matrix(1 0 0 1 77.6876 314.6086)"
     style="font-size:8px;font-family:AlteDIN1451Mittelschrift;fill:#ffffff;fill-opacity:1;stroke:none"
     id="text3564"><path
       d="M 1.5195312,0.00390625 0.09375,-5.6875 h 0.9140625 l 0.8945312,4.046875 h 0.015625 L 3.0234375,-5.6875 H 3.6445313 L 4.75,-1.640625 H 4.765625 L 5.6601562,-5.6875 H 6.5742187 L 5.1484375,0.00390625 h -0.71875 L 3.3398438,-4.0976562 H 3.3242188 L 2.2382813,0.00390625 Z"
       style="font-size:8px;font-family:AlteDIN1451Mittelschrift;fill:#ffffff;fill-opacity:1;stroke:none"
       id="path4213" /><path
       d="M 10.3125,-1.7148437 H 7.7890625 q 0,0.5 0.2695313,0.74999995 0.2734375,0.25 0.6953125,0.25 0.5039062,0 0.890625,-0.39062495 l 0.5898437,0.5039062 Q 9.9335938,-0.25 9.5546875,-0.09765625 q -0.375,0.1484375 -0.7851562,0.1484375 -0.625,0 -1.2109376,-0.40234375 -0.5859375,-0.40625 -0.5859375,-1.65625 0,-1.1835938 0.5390625,-1.6367188 0.5429688,-0.4531249 1.1328126,-0.4531249 0.6679687,0 1.1679687,0.4648437 0.5,0.4609375 0.5,1.2460937 z M 7.7890625,-2.3867188 H 9.5 Q 9.4804688,-2.84375 9.2421875,-3.0859375 9.0039063,-3.328125 8.6445313,-3.328125 q -0.3632813,0 -0.6054688,0.2421875 -0.2382813,0.2421875 -0.25,0.6992187 z"
       style="font-size:8px;font-family:AlteDIN1451Mittelschrift;fill:#ffffff;fill-opacity:1;stroke:none"
       id="path4215" /><path
       d="m 13.324219,0.01953125 v -0.359375 h -0.01563 q -0.113281,0.2109375 -0.339844,0.3046875 -0.242187,0.1015625 -0.632812,0.1015625 -0.671875,-0.015625 -1.015625,-0.359375 -0.375,-0.34375 -0.375,-0.87890625 0,-0.5078125 0.324218,-0.8515625 0.324219,-0.34375 0.957032,-0.3515625 h 1.097656 v -0.4296875 q 0.0039,-0.5390625 -0.808594,-0.5234375 -0.28125,0 -0.46875,0.0625 -0.183594,0.082031 -0.277344,0.2539062 l -0.625,-0.4921875 q 0.453125,-0.6054687 1.332032,-0.5898437 0.738281,-0.00781 1.1875,0.2890625 0.441406,0.3085937 0.449218,1.046875 v 2.77734375 z m 0,-1.42578125 V -1.703125 H 12.375 q -0.695312,0.019531 -0.6875,0.4921875 0,0.203125 0.179688,0.3515625 0.171875,0.16015625 0.566406,0.16015625 0.5,0.007813 0.703125,-0.12109375 0.1875,-0.12890625 0.1875,-0.5859375 z"
       style="font-size:8px;font-family:AlteDIN1451Mittelschrift;fill:#ffffff;fill-opacity:1;stroke:none"
       id="path4217" /><path
       d="M 15.019531,0.00390625 V -5.6875 h 0.816407 v 3.5429687 h 0.01563 l 1.558593,-1.9062499 h 0.976563 l -1.398438,1.5859374 1.589844,2.46875005 H 17.554687 L 16.476562,-1.890625 15.835938,-1.1601562 v 1.16406245 z"
       style="font-size:8px;font-family:AlteDIN1451Mittelschrift;fill:#ffffff;fill-opacity:1;stroke:none"
       id="path4219" /></g><g
     aria-label="Sync"
     transform="matrix(1 0 0 1 77.0559 284.8968)"
     style="font-size:10px;font-family:AlteDIN1451Mittelschrift;fill:#ffffff;fill-opacity:1;stroke:none"
     id="text3566"><path
       d="M 0.13671875,-0.91308594 0.84960938,-1.7236328 Q 1.25,-1.4013672 1.7724609,-1.2060547 q 0.522461,0.1953125 1.09375,0.1953125 0.6591797,0 1.0351563,-0.2734375 0.3759765,-0.2734375 0.3759765,-0.7177734 0,-0.8398438 -0.9277343,-0.9619141 -0.2441406,-0.029297 -0.4541016,-0.058594 -0.2099609,-0.029297 -0.4882812,-0.068359 -0.9228516,-0.1269531 -1.40625,-0.6738281 -0.48339848,-0.5517578 -0.48339848,-1.328125 0,-0.9082032 0.60546878,-1.4941407 0.6103515,-0.5859375 1.7138672,-0.5859375 0.6591797,0 1.2402343,0.209961 0.5810547,0.2099609 1.069336,0.5322265 l -0.600586,0.8886719 Q 4.1552734,-5.7861328 3.7060547,-5.9375 3.2568359,-6.0888672 2.7880859,-6.0888672 q -0.4980468,0 -0.8447265,0.2539063 -0.3466797,0.2539062 -0.3466797,0.7617187 0,0.3027344 0.234375,0.5664063 0.234375,0.2636718 0.7763672,0.3466797 0.1416015,0.024414 0.3417969,0.053711 0.2001953,0.024414 0.4589843,0.053711 0.9960938,0.1220703 1.4697266,0.7226563 0.4785156,0.6005859 0.4785156,1.328125 0,0.9814453 -0.6787109,1.52343747 -0.678711,0.54199219 -1.8212891,0.54199219 -1.6064453,0 -2.71972655,-0.9765625 z"
       style="font-size:10px;font-family:AlteDIN1451Mittelschrift;fill:#ffffff;fill-opacity:1;stroke:none"
       id="path4204" /><path
       d="M 7.5,-0.19042969 5.6835937,-5.0634766 h 1.0742188 l 1.2011719,3.5498047 h 0.019531 L 9.1796875,-5.0634766 H 10.258789 L 8.0810547,1.0546875 Q 7.8662109,1.640625 7.4902344,1.8457031 7.1142578,2.0556641 6.6503906,2.0556641 H 6.3085937 V 1.09375 h 0.3027344 q 0.4589844,0 0.6103516,-0.43945313 z"
       style="font-size:10px;font-family:AlteDIN1451Mittelschrift;fill:#ffffff;fill-opacity:1;stroke:none"
       id="path4206" /><path
       d="M 10.844727,0.00488281 V -5.0634766 h 1.020507 v 0.5419922 h 0.01953 q 0.473632,-0.6005859 1.318359,-0.6005859 0.59082,0 1.137695,0.4492187 0.551758,0.4492188 0.551758,1.3085938 V 0.00488281 H 13.87207 V -3.0126953 q 0,-0.5126953 -0.288086,-0.8007813 -0.283203,-0.2880859 -0.708007,-0.2880859 -0.439454,0 -0.727539,0.2880859 -0.283204,0.288086 -0.283204,0.8007813 v 3.01757811 z"
       style="font-size:10px;font-family:AlteDIN1451Mittelschrift;fill:#ffffff;fill-opacity:1;stroke:none"
       id="path4208" /><path
       d="m 19.194336,-1.484375 0.751953,0.67382812 q -0.332031,0.38085938 -0.791016,0.62988282 -0.454101,0.24414062 -1.030273,0.24414062 -0.878906,0 -1.591797,-0.59570312 -0.708008,-0.60058594 -0.708008,-1.99218754 0,-1.3916015 0.708008,-1.9921875 0.712891,-0.6054687 1.591797,-0.6054687 0.576172,0 1.030273,0.2490234 0.458985,0.2490235 0.791016,0.6298828 l -0.751953,0.6689453 q -0.429688,-0.5273437 -1.030274,-0.5273437 -1.318359,0 -1.318359,1.5771484 0,1.57226566 1.318359,1.57226566 0.605469,0 1.030274,-0.53222656 z"
       style="font-size:10px;font-family:AlteDIN1451Mittelschrift;fill:#ffffff;fill-opacity:1;stroke:none"
       id="path4210" /></g><path
     class="st10"
     d="M284.9,339c-51.3,0.6-56.5-90.6-56.5-90.6"
     id="path3568"
     style="fill:#1e1e1e;fill-opacity:0;stroke:#c0c0c0;stroke-opacity:1" /><path
     class="st10"
     d="M284.9,307c-42.6,0-51-25.1-51-25.1"
     id="path3570"
     style="fill:#1e1e1e;fill-opacity:0;stroke:#c0c0c0;stroke-opacity:1" /><path
     class="st10"
     d="M284.8,271.1c-42.7,25.5-56.4-22.7-56.4-22.7"
     id="path3572"
     style="fill:#1e1e1e;fill-opacity:0;stroke:#c0c0c0;stroke-opacity:1" /><g
     id="g3580"
     style="fill:#282828;fill-opacity:1;stroke:#c0c0c0;stroke-opacity:1"><circle
       class="st11"
       cx="233.9"
       cy="282"
       r="5.5"
       id="circle3574"
       style="fill:#282828;fill-opacity:1;stroke:#c0c0c0;stroke-opacity:1" /><line
       class="st10"
       x1="233.9"
       y1="276.5"
       x2="233.9"
       y2="287.4"
       id="line3576"
       style="fill:#282828;fill-opacity:1;stroke:#c0c0c0;stroke-opacity:1" /><line
       class="st10"
       x1="228.4"
       y1="282"
       x2="239.4"
       y2="282"
       id="line3578"
       style="fill:#282828;fill-opacity:1;stroke:#c0c0c0;stroke-opacity:1" /></g><g
     id="g3588"
     style="fill:#282828;fill-opacity:1;stroke:#c0c0c0;stroke-opacity:1"><circle
       class="st11"
       cx="228.4"
       cy="248.4"
       r="5.5"
       id="circle3582"
       style="fill:#282828;fill-opacity:1;stroke:#c0c0c0;stroke-opacity:1" /><line
       class="st10"
       x1="232.3"
       y1="244.5"
       x2="224.5"
       y2="252.3"
       id="line3584"
       style="fill:#282828;fill-opacity:1;stroke:#c0c0c0;stroke-opacity:1" /><line
       class="st10"
       x1="224.5"
       y1="244.5"
       x2="232.3"
       y2="252.3"
       id="line3586"
       style="fill:#282828;fill-opacity:1;stroke:#c0c0c0;stroke-opacity:1" /></g><path
     id="rect75_1_"
     inkscape:connector-curvature="0"
     class="st8"
     d="M30,30h240v195H30V30z"
     style="stroke:#414042;stroke-opacity:1;fill:#111111;fill-opacity:1" /></svg>