<?xml version="1.0" encoding="utf-8"?>
<!-- Generator: Adobe Illustrator 23.0.4, SVG Export Plug-In . SVG Version: 6.00 Build 0)  -->
<svg version="1.1"
	 id="svg8" xmlns:cc="http://creativecommons.org/ns#" xmlns:dc="http://purl.org/dc/elements/1.1/" xmlns:inkscape="http://www.inkscape.org/namespaces/inkscape" xmlns:rdf="http://www.w3.org/1999/02/22-rdf-syntax-ns#" xmlns:sodipodi="http://sodipodi.sourceforge.net/DTD/sodipodi-0.dtd" xmlns:svg="http://www.w3.org/2000/svg"
	 xmlns="http://www.w3.org/2000/svg" xmlns:xlink="http://www.w3.org/1999/xlink" x="0px" y="0px" viewBox="0 0 210 380"
	 style="enable-background:new 0 0 210 380;" xml:space="preserve">
<style type="text/css">
	.st0{fill:#282828;}
	.st1{fill:none;stroke:#FFFFFF;}
	.st2{fill:#FFFFFF;}
	.st3{font-family:'AlteDIN1451Mittelschrift';}
	.st4{font-size:18px;}
	.st5{font-size:10px;}
	.st6{fill:none;stroke:#8759A4;stroke-miterlimit:10;}
	.st7{fill:none;stroke:#00A1A7;stroke-miterlimit:10;}
	.st8{fill:none;stroke:#DA4061;stroke-miterlimit:10;}
	.st9{fill:#E1E1E2;stroke:#818181;stroke-width:0.25;}
	.st10{fill:#F5F7F7;stroke:#343B3F;stroke-width:0.1323;}
	.st11{fill:#929A9E;}
	.st12{fill:#F5F7F7;}
	.st13{fill:none;stroke:#BE974A;stroke-linecap:square;}
	.st14{fill:#636466;stroke:#000000;stroke-width:0.25;}
	.st15{fill:#D4D7D9;stroke:#343B3F;stroke-width:0.1323;}
	.st16{fill:#DEE4E5;}
	.st17{fill:#BE974A;fill-opacity:0.9922;}
	.st18{fill:#3C3C3C;stroke:#000000;stroke-width:0.2;stroke-linecap:square;}
	.st19{fill:#111111;stroke:#414042;stroke-miterlimit:10;}
	.st20{fill:#400002;}
	.st21{font-family:'DSEG14Classic-Italic';}
	.st22{fill:#FF0000;}
	.st23{fill:#DA4061;}
	.st24{fill:#00A1A7;}
	.st25{fill:none;stroke:#636363;stroke-width:0.3;stroke-miterlimit:10;}
	.st26{fill:#8759A4;}
	.st27{fill:none;stroke:#FFFFFF;stroke-miterlimit:10;}
	.st28{fill:#FFFFFF;fill-opacity:0.9922;}
	.st29{fill:#282828;stroke:#FFFFFF;stroke-miterlimit:10;}
	.st30{fill:none;stroke:#307DEE;stroke-miterlimit:10;}
	.st31{fill:#307DEE;}
</style>
<defs>
	
	
		<inkscape:path-effect  apply_no_weight="true" apply_with_weight="true" effect="bspline" helper_size="0" id="path-effect2273" is_visible="true" only_selected="false" steps="2" weight="33.333333">
		</inkscape:path-effect>
	
		<inkscape:path-effect  apply_no_weight="true" apply_with_weight="true" effect="bspline" helper_size="0" id="path-effect2269" is_visible="true" only_selected="false" steps="2" weight="33.333333">
		</inkscape:path-effect>
</defs>
<sodipodi:namedview  bordercolor="#666666" borderopacity="1.0" id="base" inkscape:current-layer="layer1" inkscape:cx="76.012834" inkscape:cy="318.70973" inkscape:document-units="mm" inkscape:pageopacity="0.0" inkscape:pageshadow="2" inkscape:snap-bbox="true" inkscape:snap-global="true" inkscape:window-height="1006" inkscape:window-maximized="0" inkscape:window-width="1276" inkscape:window-x="641" inkscape:window-y="0" inkscape:zoom="5.656854" pagecolor="#ffffff" showgrid="true" showguides="false" units="px">
	<inkscape:grid  id="grid1092" type="xygrid"></inkscape:grid>
</sodipodi:namedview>
<g id="layer1" transform="translate(0,-196.45831)" inkscape:groupmode="layer" inkscape:label="Layer 1">
	<rect id="rect1047" y="196.5" class="st0" width="210" height="380"/>
</g>
<path id="line161" class="st1" d="M0,24.5h210"/>
<path id="line163" class="st1" d="M0,356.5h210"/>
<text transform="matrix(1 0 0 1 82.4914 373.5106)" class="st2 st3 st4">Valley</text>
<text transform="matrix(1 0 0 1 90.8108 17.9062)" class="st2 st3 st4">Cell</text>
<text transform="matrix(1 0 0 1 52.233 75.1336)" class="st2 st3 st5">Octave</text>
<text transform="matrix(1 0 0 1 6.2299 60.9038)" class="st2 st3 st5">VOct</text>
<text transform="matrix(1 0 0 1 184.8253 60.9038)" class="st2 st3 st5">VOct</text>
<text transform="matrix(1 0 0 1 90.4882 75.1336)" class="st2 st3 st5">Coarse</text>
<text transform="matrix(1 0 0 1 74.2723 120.0947)" class="st2 st3 st5">Bank</text>
<text transform="matrix(1 0 0 1 13.0425 164.062)" class="st2 st3 st5">Shape</text>
<text transform="matrix(1 0 0 1 16.278 174.0621)" class="st2 st3 st5">Type</text>
<text transform="matrix(1 0 0 1 183.8684 350.6366)" class="st2 st3 st5">Main</text>
<text transform="matrix(1 0 0 1 81.8821 350.6363)" class="st2 st3 st5">Mod Inputs</text>
<text transform="matrix(1 0 0 1 171.9653 174.0621)" class="st2 st3 st5">Depth</text>
<text transform="matrix(1 0 0 1 170.8878 164.062)" class="st2 st3 st5">Shape</text>
<text transform="matrix(1 0 0 1 126.5098 233.0943)" class="st2 st3 st5">Depth</text>
<text transform="matrix(1 0 0 1 121.1561 223.0942)" class="st2 st3 st5">Degrade</text>
<text transform="matrix(1 0 0 1 95.5298 233.0947)" class="st2 st3 st5">Perc</text>
<text transform="matrix(1 0 0 1 92.6661 183.0736)" class="st2 st3 st5">Decay</text>
<text transform="matrix(1 0 0 1 60.9942 233.0943)" class="st2 st3 st5">Type</text>
<text transform="matrix(1 0 0 1 53.1381 223.0942)" class="st2 st3 st5">Degrade</text>
<text transform="matrix(1 0 0 1 113.7332 120.0947)" class="st2 st3 st5">Wave</text>
<text transform="matrix(1 0 0 1 134.9473 75.1336)" class="st2 st3 st5">Fine</text>
<path class="st6" d="M133.9,139c18.5-29.5-6.9-43-6.9-43"/>
<path class="st7" d="M132.7,172.5c-9.6,18.2,12.6,27.5,12.6,27.5"/>
<path class="st7" d="M77.2,172.5c9.7,18.2-12.6,27.5-12.6,27.5"/>
<path class="st6" d="M82.6,96c0,0-25.4,13.5-6.9,43"/>
<path class="st8" d="M183.7,139c-10.7,11.5-26.2,11.5-26.2,11.5"/>
<path class="st6" d="M129,95"/>
<path class="st6" d="M186,74.8"/>
<g id="layer1_22_" transform="translate(-89.945866,-120.5333)" inkscape:groupmode="layer" inkscape:label="Layer 1">
	<path id="path7255_6_" inkscape:connector-curvature="0" class="st9" d="M283.8,460.8c-5.7,0-10.3-4.6-10.3-10.3
		c0-5.7,4.6-10.3,10.3-10.3s10.3,4.6,10.3,10.3C294.1,456.2,289.5,460.8,283.8,460.8"/>
	<path id="path7261_6_" inkscape:connector-curvature="0" class="st10" d="M283.8,458.5c-4.4,0-8-3.6-8-8s3.6-8,8-8s8,3.6,8,8
		S288.3,458.5,283.8,458.5"/>
	<path id="path1187_6_" inkscape:connector-curvature="0" class="st11" d="M283.8,458.3c-4.3,0-7.7-3.3-7.7-7.3s3.5-7.3,7.7-7.3
		s7.7,3.3,7.7,7.3C291.6,455.1,288.1,458.3,283.8,458.3"/>
	<path id="path861_6_" inkscape:connector-curvature="0" class="st12" d="M289,451.5c0,2.8-2.3,5.2-5.1,5.2s-5.1-2.3-5.1-5.2
		c0-2.8,2.3-5.2,5.1-5.2C286.7,446.4,289,448.7,289,451.5"/>
	<path id="path7265_6_" inkscape:connector-curvature="0" d="M289,450.5c0,2.8-2.3,5.1-5.1,5.1c-2.8,0-5.1-2.3-5.1-5.1
		s2.3-5.1,5.1-5.1S289,447.7,289,450.5"/>
</g>
<g id="layer1_53_" transform="translate(-89.945866,-120.5333)" inkscape:groupmode="layer" inkscape:label="Layer 1">
	<path id="path7255_5_" inkscape:connector-curvature="0" class="st9" d="M284.8,380.2c-5.7,0-10.3-4.6-10.3-10.3
		c0-5.7,4.6-10.3,10.3-10.3s10.3,4.6,10.3,10.3C295.1,375.6,290.5,380.2,284.8,380.2"/>
	<path id="path7261_5_" inkscape:connector-curvature="0" class="st10" d="M284.8,377.9c-4.4,0-8-3.6-8-8s3.6-8,8-8s8,3.6,8,8
		S289.3,377.9,284.8,377.9"/>
	<path id="path1187_5_" inkscape:connector-curvature="0" class="st11" d="M284.8,377.7c-4.3,0-7.7-3.3-7.7-7.3s3.5-7.3,7.7-7.3
		s7.7,3.3,7.7,7.3C292.6,374.5,289.1,377.7,284.8,377.7"/>
	<path id="path861_5_" inkscape:connector-curvature="0" class="st12" d="M290,370.9c0,2.8-2.3,5.2-5.1,5.2s-5.1-2.3-5.1-5.2
		c0-2.8,2.3-5.2,5.1-5.2C287.7,365.8,290,368.1,290,370.9"/>
	<path id="path7265_5_" inkscape:connector-curvature="0" d="M290,369.9c0,2.8-2.3,5.1-5.1,5.1c-2.8,0-5.1-2.3-5.1-5.1
		s2.3-5.1,5.1-5.1S290,367.1,290,369.9"/>
</g>
<line class="st13" x1="105.1" y1="332.4" x2="105.1" y2="265"/>
<g id="layer1_24_" transform="translate(-89.945866,-120.5333)" inkscape:groupmode="layer" inkscape:label="Layer 1">
	<path id="path7255_8_" inkscape:connector-curvature="0" class="st14" d="M194.9,460.8c-5.7,0-10.3-4.6-10.3-10.3
		c0-5.7,4.6-10.3,10.3-10.3s10.3,4.6,10.3,10.3S200.6,460.8,194.9,460.8"/>
	<path id="path7261_8_" inkscape:connector-curvature="0" class="st15" d="M194.9,458.5c-4.4,0-8-3.6-8-8s3.6-8,8-8s8,3.6,8,8
		C202.9,455,199.4,458.5,194.9,458.5"/>
	<path id="path1187_8_" inkscape:connector-curvature="0" class="st11" d="M194.9,458.4c-4.3,0-7.7-3.3-7.7-7.3s3.5-7.3,7.7-7.3
		c4.3,0,7.7,3.3,7.7,7.3S199.2,458.4,194.9,458.4"/>
	<path id="path861_8_" inkscape:connector-curvature="0" class="st16" d="M200.1,451.6c0,2.8-2.3,5.2-5.1,5.2s-5.1-2.3-5.1-5.2
		c0-2.8,2.3-5.2,5.1-5.2S200.1,448.7,200.1,451.6"/>
	<path id="path7265_8_" inkscape:connector-curvature="0" d="M200.1,450.6c0,2.8-2.3,5.1-5.1,5.1s-5.1-2.3-5.1-5.1
		c0-2.8,2.3-5.1,5.1-5.1C197.8,445.4,200.1,447.7,200.1,450.6"/>
</g>
<g id="layer1_28_" transform="translate(-53.216485,-90.5345)" inkscape:groupmode="layer" inkscape:label="Layer 1">
	<path id="path7705_10_" inkscape:connector-curvature="0" d="M168.2,395.5c0,5.5-4.4,9.9-9.9,9.9s-9.9-4.4-9.9-9.9s4.4-9.9,9.9-9.9
		S168.2,390,168.2,395.5"/>
	<path id="path7707_11_" inkscape:connector-curvature="0" class="st17" d="M163.9,395.5c0,3.1-2.5,5.6-5.6,5.6s-5.6-2.5-5.6-5.6
		s2.5-5.6,5.6-5.6S163.9,392.4,163.9,395.5"/>
	<path id="path7711_11_" inkscape:connector-curvature="0" class="st17" d="M159.2,385.6c-0.3,0-0.6,0-0.9,0c-0.4,0-0.7,0-1.1,0.1
		v4.5h2V385.6z"/>
</g>
<g id="layer1_32_" transform="translate(-46.755712,-68.824694)" inkscape:groupmode="layer" inkscape:label="Layer 1">
	<path id="path2706_1_" class="st18" d="M158.6,350.8c0,3.7-3,6.7-6.7,6.7l0,0c-3.7,0-6.7-3-6.7-6.7l0,0c0-3.7,3-6.7,6.7-6.7l0,0
		C155.6,344.1,158.6,347.1,158.6,350.8L158.6,350.8z"/>
</g>
<g>
	<path id="rect75_1_" inkscape:connector-curvature="0" class="st19" d="M52.5,126.5h105v46h-105V126.5z"/>
	<text transform="matrix(1 0 0 1 55.9043 168.0648)" class="st20 st21 st5">~~~~~~~~~~~~</text>
	<text transform="matrix(1 0 0 1 55.9905 168.0649)" class="st22 st21 st5">BITCRUSH!!15</text>
	<text transform="matrix(1 0 0 1 55.9043 142.3584)" class="st20 st21 st5">~~~~~~~~~~~~</text>
	<text transform="matrix(1 0 0 1 55.9905 142.3584)" class="st22 st21 st5">VOICE_1!!100</text>
	<text transform="matrix(1 0 0 1 55.9043 155.2116)" class="st20 st21 st5">~~~~~~~~~~~~</text>
	<text transform="matrix(1 0 0 1 55.9905 155.2116)" class="st22 st21 st5">TWIST!!!!!47</text>
</g>
<path class="st13" d="M79,265.9c0,36.2-9,63.8-9,63.8"/>
<path class="st13" d="M131,265.9c0,36.2,9,63.8,9,63.8"/>
<path id="rect75_2_" inkscape:connector-curvature="0" class="st19" d="M61.6,237.9h86.9v32H61.6V237.9z"/>
<text transform="matrix(1 0 0 1 64.0637 265.5047)" class="st20 st21 st5">~~~~~~~~~~</text>
<text transform="matrix(1 0 0 1 64.0637 252.6516)" class="st20 st21 st5">~~~~~~~~~~</text>
<text transform="matrix(1 0 0 1 64.1092 252.6516)" class="st22 st21 st5">!octave+1</text>
<text transform="matrix(1 0 0 1 64.1543 265.5047)" class="st22 st21 st5">DEgrd!DPTH</text>
<g id="layer1_27_" transform="translate(-53.216485,-90.5345)" inkscape:groupmode="layer" inkscape:label="Layer 1">
	<path id="path7705_9_" inkscape:connector-curvature="0" d="M139.2,395.5c0,5.5-4.4,9.9-9.9,9.9s-9.9-4.4-9.9-9.9s4.4-9.9,9.9-9.9
		S139.2,390,139.2,395.5"/>
	<path id="path7707_9_" inkscape:connector-curvature="0" class="st17" d="M134.9,395.5c0,3.1-2.5,5.6-5.6,5.6
		c-3.1,0-5.6-2.5-5.6-5.6s2.5-5.6,5.6-5.6C132.4,389.9,134.9,392.4,134.9,395.5"/>
	<path id="path7711_9_" inkscape:connector-curvature="0" class="st17" d="M130.2,385.6c-0.3,0-0.6,0-0.9,0c-0.4,0-0.7,0-1.1,0.1
		v4.5h2V385.6z"/>
</g>
<g id="layer1_31_" transform="translate(-46.755712,-68.824694)" inkscape:groupmode="layer" inkscape:label="Layer 1">
	<path id="path2706" class="st18" d="M132.5,350.8c0,3.7-3,6.7-6.7,6.7l0,0c-3.7,0-6.7-3-6.7-6.7l0,0c0-3.7,3-6.7,6.7-6.7l0,0
		C129.5,344.1,132.5,347.1,132.5,350.8L132.5,350.8z"/>
</g>
<g id="layer1_29_" transform="translate(-53.216485,-90.5345)" inkscape:groupmode="layer" inkscape:label="Layer 1">
	<path id="path7705_11_" inkscape:connector-curvature="0" d="M197.2,395.5c0,5.5-4.4,9.9-9.9,9.9s-9.9-4.4-9.9-9.9s4.4-9.9,9.9-9.9
		S197.2,390,197.2,395.5"/>
	<path id="path7707_13_" inkscape:connector-curvature="0" class="st17" d="M192.9,395.5c0,3.1-2.5,5.6-5.6,5.6s-5.6-2.5-5.6-5.6
		s2.5-5.6,5.6-5.6S192.9,392.4,192.9,395.5"/>
	<path id="path7711_13_" inkscape:connector-curvature="0" class="st17" d="M188.2,385.6c-0.3,0-0.6,0-0.9,0c-0.4,0-0.7,0-1.1,0.1
		v4.5h2V385.6z"/>
</g>
<g id="layer1_33_" transform="translate(-46.755712,-68.824694)" inkscape:groupmode="layer" inkscape:label="Layer 1">
	<path id="path2706_2_" class="st18" d="M184.6,350.8c0,3.7-3,6.7-6.7,6.7l0,0c-3.7,0-6.7-3-6.7-6.7l0,0c0-3.7,3-6.7,6.7-6.7l0,0
		C181.6,344.1,184.6,347.1,184.6,350.8L184.6,350.8z"/>
</g>
<g id="layer1_23_" transform="translate(-89.945866,-120.5333)" inkscape:groupmode="layer" inkscape:label="Layer 1">
	<path id="path7255_7_" inkscape:connector-curvature="0" class="st14" d="M159.9,460.8c-5.7,0-10.3-4.6-10.3-10.3
		c0-5.7,4.6-10.3,10.3-10.3s10.3,4.6,10.3,10.3S165.6,460.8,159.9,460.8"/>
	<path id="path7261_7_" inkscape:connector-curvature="0" class="st15" d="M159.9,458.5c-4.4,0-8-3.6-8-8s3.6-8,8-8s8,3.6,8,8
		C167.9,455,164.4,458.5,159.9,458.5"/>
	<path id="path1187_7_" inkscape:connector-curvature="0" class="st11" d="M159.9,458.4c-4.3,0-7.7-3.3-7.7-7.3s3.5-7.3,7.7-7.3
		c4.3,0,7.7,3.3,7.7,7.3S164.2,458.4,159.9,458.4"/>
	<path id="path861_7_" inkscape:connector-curvature="0" class="st16" d="M165.1,451.6c0,2.8-2.3,5.2-5.1,5.2s-5.1-2.3-5.1-5.2
		c0-2.8,2.3-5.2,5.1-5.2S165.1,448.7,165.1,451.6"/>
	<path id="path7265_7_" inkscape:connector-curvature="0" d="M165.1,450.6c0,2.8-2.3,5.1-5.1,5.1s-5.1-2.3-5.1-5.1
		c0-2.8,2.3-5.1,5.1-5.1C162.8,445.4,165.1,447.7,165.1,450.6"/>
</g>
<g id="layer1_25_" transform="translate(-89.945866,-120.5333)" inkscape:groupmode="layer" inkscape:label="Layer 1">
	<path id="path7255_9_" inkscape:connector-curvature="0" class="st14" d="M229.9,460.8c-5.7,0-10.3-4.6-10.3-10.3
		c0-5.7,4.6-10.3,10.3-10.3s10.3,4.6,10.3,10.3S235.6,460.8,229.9,460.8"/>
	<path id="path7261_9_" inkscape:connector-curvature="0" class="st15" d="M229.9,458.5c-4.4,0-8-3.6-8-8s3.6-8,8-8s8,3.6,8,8
		C237.9,455,234.4,458.5,229.9,458.5"/>
	<path id="path1187_9_" inkscape:connector-curvature="0" class="st11" d="M229.9,458.4c-4.3,0-7.7-3.3-7.7-7.3s3.5-7.3,7.7-7.3
		c4.3,0,7.7,3.3,7.7,7.3S234.2,458.4,229.9,458.4"/>
	<path id="path861_9_" inkscape:connector-curvature="0" class="st16" d="M235.1,451.6c0,2.8-2.3,5.2-5.1,5.2s-5.1-2.3-5.1-5.2
		c0-2.8,2.3-5.2,5.1-5.2S235.1,448.7,235.1,451.6"/>
	<path id="path7265_9_" inkscape:connector-curvature="0" d="M235.1,450.6c0,2.8-2.3,5.1-5.1,5.1s-5.1-2.3-5.1-5.1
		c0-2.8,2.3-5.1,5.1-5.1C232.8,445.4,235.1,447.7,235.1,450.6"/>
</g>
<text transform="matrix(1 0 0 1 77.0735 285.3407)" class="st2 st3 st5">1</text>
<text transform="matrix(1 0 0 1 102.7458 285.3407)" class="st2 st3 st5">2</text>
<text transform="matrix(1 0 0 1 128.7903 285.3408)" class="st2 st3 st5">3</text>
<path class="st8" d="M25.8,139c0,0,21.5-6.1,23.1-25.1c0,0-9.8-9.8-33.2-6.9"/>
<g id="layer1_15_" transform="translate(-89.945866,-120.5333)" inkscape:groupmode="layer" inkscape:label="Layer 1">
	<path id="path7255_3_" inkscape:connector-curvature="0" class="st14" d="M105.6,237.8c-5.7,0-10.3-4.6-10.3-10.3
		s4.6-10.3,10.3-10.3c5.7,0,10.3,4.6,10.3,10.3S111.3,237.8,105.6,237.8"/>
	<path id="path7261_3_" inkscape:connector-curvature="0" class="st15" d="M105.6,235.5c-4.4,0-8-3.6-8-8s3.6-8,8-8s8,3.6,8,8
		C113.6,232,110.1,235.5,105.6,235.5"/>
	<path id="path1187_3_" inkscape:connector-curvature="0" class="st11" d="M105.6,235.4c-4.3,0-7.7-3.3-7.7-7.3s3.5-7.3,7.7-7.3
		c4.3,0,7.7,3.3,7.7,7.3S109.9,235.4,105.6,235.4"/>
	<path id="path861_3_" inkscape:connector-curvature="0" class="st16" d="M110.8,228.6c0,2.8-2.3,5.2-5.1,5.2
		c-2.8,0-5.1-2.3-5.1-5.2c0-2.8,2.3-5.2,5.1-5.2C108.5,223.4,110.8,225.7,110.8,228.6"/>
	<path id="path7265_3_" inkscape:connector-curvature="0" d="M110.8,227.6c0,2.8-2.3,5.1-5.1,5.1s-5.1-2.3-5.1-5.1s2.3-5.1,5.1-5.1
		C108.5,222.4,110.8,224.7,110.8,227.6"/>
</g>
<g id="layer1_16_" transform="translate(-53.216485,-90.5345)" inkscape:groupmode="layer" inkscape:label="Layer 1">
	<path id="path7705_5_" inkscape:connector-curvature="0" d="M112.1,204.5c0,5.5-4.4,9.9-9.9,9.9s-9.9-4.4-9.9-9.9s4.4-9.9,9.9-9.9
		S112.1,199.1,112.1,204.5"/>
	<path id="path7707_5_" inkscape:connector-curvature="0" class="st23" d="M107.8,204.5c0,3.1-2.5,5.6-5.6,5.6s-5.6-2.5-5.6-5.6
		s2.5-5.6,5.6-5.6S107.8,201.4,107.8,204.5"/>
	<path id="path7711_5_" inkscape:connector-curvature="0" class="st23" d="M103.1,194.7c-0.3,0-0.6,0-0.9,0c-0.4,0-0.7,0-1.1,0.1
		v4.5h2V194.7z"/>
</g>
<path class="st7" d="M139,199.1c0,0,28.2-21.9,54.8-8.8"/>
<g id="layer1_38_" transform="translate(-53.216485,-90.5345)" inkscape:groupmode="layer" inkscape:label="Layer 1">
	<path id="path7705_6_" inkscape:connector-curvature="0" d="M211.4,277.5c0-5.4,4.4-9.9,9.9-9.9s9.9,4.4,9.9,9.9s-4.4,9.9-9.9,9.9
		S211.4,283,211.4,277.5"/>
	<path id="path7707_6_" inkscape:connector-curvature="0" class="st24" d="M215.7,277.5c0-3.1,2.5-5.6,5.6-5.6s5.6,2.5,5.6,5.6
		s-2.5,5.6-5.6,5.6S215.7,280.6,215.7,277.5"/>
	<path id="path7711_6_" inkscape:connector-curvature="0" class="st24" d="M220.4,272.3h2v-4.5c-0.4-0.1-0.7-0.1-1.1-0.1
		c-0.3,0-0.6,0-0.9,0V272.3z"/>
</g>
<g id="layer1_17_" transform="translate(-89.945866,-120.5333)" inkscape:groupmode="layer" inkscape:label="Layer 1">
	<path id="path7255_4_" inkscape:connector-curvature="0" class="st14" d="M283.8,321c-5.7,0-10.3-4.6-10.3-10.3s4.6-10.3,10.3-10.3
		c5.7,0,10.3,4.6,10.3,10.3S289.5,321,283.8,321"/>
	<path id="path7261_4_" inkscape:connector-curvature="0" class="st15" d="M283.8,318.7c-4.5,0-8-3.5-8-8c0-4.4,3.6-8,8-8s8,3.6,8,8
		S288.2,318.7,283.8,318.7"/>
	<path id="path1187_4_" inkscape:connector-curvature="0" class="st11" d="M283.8,318.6c-4.3,0-7.7-3.3-7.7-7.3s3.4-7.3,7.7-7.3
		c4.2,0,7.7,3.3,7.7,7.3S288.1,318.6,283.8,318.6"/>
	<path id="path861_4_" inkscape:connector-curvature="0" class="st16" d="M278.6,311.8c0-2.9,2.3-5.2,5.1-5.2c2.8,0,5.1,2.4,5.1,5.2
		c0,2.9-2.3,5.2-5.1,5.2S278.6,314.6,278.6,311.8"/>
	<path id="path7265_4_" inkscape:connector-curvature="0" d="M278.6,310.8c0-2.9,2.3-5.2,5.1-5.1c2.8,0,5.1,2.3,5.1,5.1
		c0,2.8-2.3,5.1-5.1,5.1S278.6,313.6,278.6,310.8"/>
</g>
<g id="layer1_10_" transform="translate(-47.888015,-88.626321)" inkscape:groupmode="layer" inkscape:label="Layer 1">
	<path id="path7689_3_" inkscape:connector-curvature="0" d="M202.8,287.6c0,8.8-7.1,15.9-15.9,15.9c-8.8,0-15.9-7.1-15.9-15.9
		s7.1-15.9,15.9-15.9C195.7,271.8,202.8,278.9,202.8,287.6"/>
	<path id="path7691_3_" inkscape:connector-curvature="0" class="st24" d="M195.8,287.6c0,4.9-4,9-9,9c-4.9,0-9-4-9-9c0-4.9,4-9,9-9
		C191.8,278.7,195.8,282.7,195.8,287.6"/>
	<path id="path7693_3_" inkscape:connector-curvature="0" class="st25" d="M199.4,287.6c0,6.9-5.6,12.6-12.6,12.6
		c-6.9,0-12.6-5.6-12.6-12.6c0-6.9,5.6-12.6,12.6-12.6C193.8,275.1,199.4,280.7,199.4,287.6L199.4,287.6z"/>
	<path id="path7695_3_" inkscape:connector-curvature="0" class="st24" d="M188.3,271.8c-0.5,0-1-0.1-1.4-0.1c-0.6,0-1.2,0-1.8,0.1
		v7.2h3.2V271.8z"/>
</g>
<path class="st8" d="M194.1,107c-23.2-3-33,6.9-33,6.9c1.6,19,22.6,25.1,22.6,25.1"/>
<g id="layer1_18_" transform="translate(-53.216485,-90.5345)" inkscape:groupmode="layer" inkscape:label="Layer 1">
	<path id="path7705_7_" inkscape:connector-curvature="0" d="M204.3,204.5c0-5.4,4.4-9.9,9.9-9.9s9.9,4.4,9.9,9.9s-4.4,9.9-9.9,9.9
		S204.3,210,204.3,204.5"/>
	<path id="path7707_7_" inkscape:connector-curvature="0" class="st23" d="M208.6,204.5c0-3.1,2.5-5.6,5.6-5.6s5.6,2.5,5.6,5.6
		s-2.5,5.6-5.6,5.6S208.6,207.6,208.6,204.5"/>
	<path id="path7711_7_" inkscape:connector-curvature="0" class="st23" d="M213.3,199.3h2v-4.5c-0.4-0.1-0.7-0.1-1.1-0.1
		c-0.3,0-0.6,0-0.9,0V199.3z"/>
</g>
<g id="layer1_14_" transform="translate(-89.945866,-120.5333)" inkscape:groupmode="layer" inkscape:label="Layer 1">
	<path id="path7255_2_" inkscape:connector-curvature="0" class="st14" d="M284,237.8c-5.7,0-10.3-4.6-10.3-10.3s4.6-10.3,10.3-10.3
		c5.7,0,10.3,4.6,10.3,10.3S289.7,237.8,284,237.8"/>
	<path id="path7261_2_" inkscape:connector-curvature="0" class="st15" d="M284,235.5c-4.4,0-8-3.6-8-8s3.6-8,8-8s8,3.6,8,8
		C292,232,288.5,235.5,284,235.5"/>
	<path id="path1187_2_" inkscape:connector-curvature="0" class="st11" d="M284,235.4c-4.3,0-7.7-3.3-7.7-7.3s3.5-7.3,7.7-7.3
		c4.3,0,7.7,3.3,7.7,7.3S288.3,235.4,284,235.4"/>
	<path id="path861_2_" inkscape:connector-curvature="0" class="st16" d="M289.2,228.6c0,2.8-2.3,5.2-5.1,5.2
		c-2.8,0-5.1-2.3-5.1-5.2c0-2.8,2.3-5.2,5.1-5.2C286.9,223.4,289.2,225.7,289.2,228.6"/>
	<path id="path7265_2_" inkscape:connector-curvature="0" d="M289.2,227.6c0,2.8-2.3,5.1-5.1,5.1s-5.1-2.3-5.1-5.1s2.3-5.1,5.1-5.1
		C286.9,222.4,289.2,224.7,289.2,227.6"/>
</g>
<g id="layer1_5_" transform="translate(-46.557912,-86.649131)" inkscape:groupmode="layer" inkscape:label="Layer 1">
	<path id="path7697_1_" inkscape:connector-curvature="0" d="M246.4,225.6c0,8.8-7.1,15.9-15.9,15.9c-8.8,0-15.9-7.1-15.9-15.9
		c0-8.8,7.1-15.9,15.9-15.9C239.3,209.8,246.4,216.9,246.4,225.6"/>
	<path id="path7699_1_" inkscape:connector-curvature="0" class="st23" d="M239.5,225.6c0,4.9-4,9-9,9c-4.9,0-9-4-9-9c0-4.9,4-9,9-9
		C235.5,216.7,239.5,220.7,239.5,225.6"/>
	<path id="path7701_1_" inkscape:connector-curvature="0" class="st25" d="M243.1,225.6c0,6.9-5.6,12.6-12.6,12.6
		c-6.9,0-12.6-5.6-12.6-12.6c0-6.9,5.6-12.6,12.6-12.6C237.5,213.1,243.1,218.7,243.1,225.6L243.1,225.6z"/>
	<path id="path7703_1_" inkscape:connector-curvature="0" class="st23" d="M232,209.8c-0.5,0-1-0.1-1.4-0.1c-0.6,0-1.2,0-1.8,0.1
		v7.2h3.2V209.8z"/>
</g>
<path class="st6" d="M81.1,95c0,0-34,4.9-65.3-20.2"/>
<g id="layer1_13_" transform="translate(-53.216485,-90.5345)" inkscape:groupmode="layer" inkscape:label="Layer 1">
	<path id="path7705_4_" inkscape:connector-curvature="0" d="M90.4,180.5c0-5.4,4.4-9.9,9.9-9.9s9.9,4.4,9.9,9.9s-4.4,9.9-9.9,9.9
		S90.4,186,90.4,180.5"/>
	<path id="path7707_4_" inkscape:connector-curvature="0" class="st26" d="M94.7,180.5c0-3.1,2.5-5.6,5.6-5.6s5.6,2.5,5.6,5.6
		s-2.5,5.6-5.6,5.6S94.7,183.6,94.7,180.5"/>
	<path id="path7711_4_" inkscape:connector-curvature="0" class="st26" d="M99.4,175.3h2v-4.5c-0.4-0.1-0.7-0.1-1.1-0.1
		c-0.3,0-0.6,0-0.9,0V175.3z"/>
</g>
<g id="layer1_11_" transform="translate(-89.945866,-120.5333)" inkscape:groupmode="layer" inkscape:label="Layer 1">
	<path id="path7255_1_" inkscape:connector-curvature="0" class="st14" d="M105.6,205c-5.7,0-10.3-4.6-10.3-10.3s4.6-10.3,10.3-10.3
		s10.3,4.6,10.3,10.3S111.3,205,105.6,205"/>
	<path id="path7261_1_" inkscape:connector-curvature="0" class="st15" d="M105.6,202.7c-4.4,0-8-3.6-8-8s3.6-8,8-8s8,3.6,8,8
		C113.6,199.2,110.1,202.7,105.6,202.7"/>
	<path id="path1187_1_" inkscape:connector-curvature="0" class="st11" d="M105.6,202.6c-4.3,0-7.7-3.3-7.7-7.3s3.5-7.3,7.7-7.3
		s7.7,3.3,7.7,7.3S109.9,202.6,105.6,202.6"/>
	<path id="path861_1_" inkscape:connector-curvature="0" class="st16" d="M110.8,195.8c0,2.8-2.3,5.2-5.1,5.2
		c-2.8,0-5.1-2.3-5.1-5.2c0-2.8,2.3-5.2,5.1-5.2S110.8,192.9,110.8,195.8"/>
	<path id="path7265_1_" inkscape:connector-curvature="0" d="M110.8,194.8c0,2.8-2.3,5.1-5.1,5.1c-2.8,0-5.1-2.3-5.1-5.1
		s2.3-5.1,5.1-5.1S110.8,191.9,110.8,194.8"/>
</g>
<g id="layer1_6_" transform="translate(-47.888015,-88.626321)" inkscape:groupmode="layer" inkscape:label="Layer 1">
	<path id="path7689" inkscape:connector-curvature="0" d="M148.8,183.6c0,8.8-7.1,15.9-15.9,15.9c-8.8,0-15.9-7.1-15.9-15.9
		c0-8.8,7.1-15.9,15.9-15.9C141.7,167.8,148.8,174.9,148.8,183.6"/>
	<path id="path7691" inkscape:connector-curvature="0" class="st26" d="M141.8,183.6c0,4.9-4,9-9,9s-9-4-9-9c0-4.9,4-9,9-9
		C137.8,174.7,141.8,178.7,141.8,183.6"/>
	<path id="path7693" inkscape:connector-curvature="0" class="st25" d="M145.4,183.6c0,6.9-5.6,12.6-12.6,12.6
		c-6.9,0-12.6-5.6-12.6-12.6c0-6.9,5.6-12.6,12.6-12.6C139.8,171.1,145.4,176.7,145.4,183.6L145.4,183.6z"/>
	<path id="path7695" inkscape:connector-curvature="0" class="st26" d="M134.3,167.8c-0.5,0-1-0.1-1.4-0.1c-0.6,0-1.2,0-1.8,0.1v7.2
		h3.2V167.8z"/>
</g>
<text transform="matrix(1 0 0 1 161.2886 350.8199)" class="st2 st3 st5">FM</text>
<path class="st27" d="M156.3,278.9c0,0,4.5-8.2,18-2.9c0,0,28.9-3.1,19.9,19.9"/>
<g id="layer1_42_" transform="translate(-53.216485,-90.5345)" inkscape:groupmode="layer" inkscape:label="Layer 1">
	<path id="path7705_15_" inkscape:connector-curvature="0" d="M216.6,366.5c0-5.5,4.4-9.9,9.9-9.9s9.9,4.4,9.9,9.9s-4.4,9.9-9.9,9.9
		S216.6,372,216.6,366.5"/>
	<path id="path7707_15_" inkscape:connector-curvature="0" class="st28" d="M220.9,366.5c0-3.1,2.5-5.6,5.6-5.6s5.6,2.5,5.6,5.6
		s-2.5,5.6-5.6,5.6S220.9,369.6,220.9,366.5"/>
	<path id="path7711_15_" inkscape:connector-curvature="0" class="st28" d="M225.6,361.2h2v-4.5c-0.4-0.1-0.7-0.1-1.1-0.1
		c-0.3,0-0.6,0-0.9,0V361.2z"/>
</g>
<text transform="matrix(1 0 0 1 187.355 316.3788)" class="st2 st3 st5">FM</text>
<text transform="matrix(1 0 0 1 185.5978 235.4495)" class="st2 st3 st5">VCA</text>
<text transform="matrix(1 0 0 1 7.3688 235.4495)" class="st2 st3 st5">VCA</text>
<g id="layer1_20_" transform="translate(-89.945866,-120.5333)" inkscape:groupmode="layer" inkscape:label="Layer 1">
	<path id="path7255_10_" inkscape:connector-curvature="0" class="st14" d="M284,426.6c-5.7,0-10.3-4.6-10.3-10.3
		c0-5.7,4.6-10.3,10.3-10.3c5.7,0,10.3,4.6,10.3,10.3S289.7,426.6,284,426.6"/>
	<path id="path7261_10_" inkscape:connector-curvature="0" class="st15" d="M284,424.3c-4.4,0-8-3.6-8-8s3.6-8,8-8s8,3.6,8,8
		C292,420.8,288.5,424.3,284,424.3"/>
	<path id="path1187_10_" inkscape:connector-curvature="0" class="st11" d="M284,424.2c-4.3,0-7.7-3.3-7.7-7.3s3.5-7.3,7.7-7.3
		c4.3,0,7.7,3.3,7.7,7.3S288.3,424.2,284,424.2"/>
	<path id="path861_10_" inkscape:connector-curvature="0" class="st16" d="M289.2,417.4c0,2.8-2.3,5.2-5.1,5.2
		c-2.8,0-5.1-2.3-5.1-5.2c0-2.8,2.3-5.2,5.1-5.2C286.9,412.2,289.2,414.5,289.2,417.4"/>
	<path id="path7265_10_" inkscape:connector-curvature="0" d="M289.2,416.4c0,2.8-2.3,5.1-5.1,5.1c-2.8,0-5.1-2.3-5.1-5.1
		c0-2.8,2.3-5.1,5.1-5.1C286.9,411.2,289.2,413.5,289.2,416.4"/>
</g>
<text transform="matrix(1 0 0 1 9.1526 316.3788)" class="st2 st3 st5">FM</text>
<path class="st27" d="M191.1,214.4c-21.7,0-22.2,18-22.2,18c5.9,10.9-1.1,17.2-1.1,17.2"/>
<g id="layer1_40_" transform="translate(-53.216485,-90.5345)" inkscape:groupmode="layer" inkscape:label="Layer 1">
	<path id="path7705_14_" inkscape:connector-curvature="0" d="M214.1,320.9c0-5.5,4.4-9.9,9.9-9.9s9.9,4.4,9.9,9.9s-4.4,9.9-9.9,9.9
		S214.1,326.4,214.1,320.9"/>
	<path id="path7707_14_" inkscape:connector-curvature="0" class="st28" d="M218.4,320.9c0-3.1,2.5-5.6,5.6-5.6s5.6,2.5,5.6,5.6
		s-2.5,5.6-5.6,5.6S218.4,324,218.4,320.9"/>
	<path id="path7711_14_" inkscape:connector-curvature="0" class="st28" d="M223.1,315.6h2v-4.5c-0.4-0.1-0.7-0.1-1.1-0.1
		c-0.3,0-0.6,0-0.9,0V315.6z"/>
</g>
<g id="layer1_41_" transform="translate(-89.945866,-120.5333)" inkscape:groupmode="layer" inkscape:label="Layer 1">
	<path id="path7255_16_" inkscape:connector-curvature="0" class="st14" d="M284.2,345.1c-5.7,0-10.3-4.6-10.3-10.3
		c0-5.7,4.6-10.3,10.3-10.3c5.7,0,10.3,4.6,10.3,10.3S289.9,345.1,284.2,345.1"/>
	<path id="path7261_16_" inkscape:connector-curvature="0" class="st15" d="M284.2,342.8c-4.4,0-8-3.6-8-8s3.6-8,8-8s8,3.6,8,8
		C292.2,339.3,288.7,342.8,284.2,342.8"/>
	<path id="path1187_16_" inkscape:connector-curvature="0" class="st11" d="M284.2,342.7c-4.3,0-7.7-3.3-7.7-7.3s3.5-7.3,7.7-7.3
		c4.3,0,7.7,3.3,7.7,7.3S288.5,342.7,284.2,342.7"/>
	<path id="path861_16_" inkscape:connector-curvature="0" class="st16" d="M289.4,335.9c0,2.8-2.3,5.2-5.1,5.2
		c-2.8,0-5.1-2.3-5.1-5.2c0-2.8,2.3-5.2,5.1-5.2C287.1,330.7,289.4,333,289.4,335.9"/>
	<path id="path7265_16_" inkscape:connector-curvature="0" d="M289.4,334.9c0,2.8-2.3,5.1-5.1,5.1c-2.8,0-5.1-2.3-5.1-5.1
		c0-2.8,2.3-5.1,5.1-5.1C287.1,329.7,289.4,332,289.4,334.9"/>
</g>
<text transform="matrix(1 0 0 1 185.5637 270.8136)" class="st2 st3 st5">EOC</text>
<g id="layer1_44_" transform="translate(-89.945866,-120.5333)" inkscape:groupmode="layer" inkscape:label="Layer 1">
	<path id="path7255_20_" inkscape:connector-curvature="0" class="st14" d="M105.6,380.5c-5.7,0-10.3-4.6-10.3-10.3
		c0-5.7,4.6-10.3,10.3-10.3s10.3,4.6,10.3,10.3S111.3,380.5,105.6,380.5"/>
	<path id="path7261_20_" inkscape:connector-curvature="0" class="st15" d="M105.6,378.2c-4.4,0-8-3.6-8-8s3.6-8,8-8s8,3.6,8,8
		C113.6,374.7,110.1,378.2,105.6,378.2"/>
	<path id="path1187_20_" inkscape:connector-curvature="0" class="st11" d="M105.6,378.1c-4.3,0-7.7-3.3-7.7-7.3s3.5-7.3,7.7-7.3
		c4.3,0,7.7,3.3,7.7,7.3S109.9,378.1,105.6,378.1"/>
	<path id="path861_20_" inkscape:connector-curvature="0" class="st16" d="M110.8,371.3c0,2.8-2.3,5.2-5.1,5.2s-5.1-2.3-5.1-5.2
		c0-2.8,2.3-5.2,5.1-5.2S110.8,368.4,110.8,371.3"/>
	<path id="path7265_20_" inkscape:connector-curvature="0" d="M110.8,370.3c0,2.8-2.3,5.1-5.1,5.1s-5.1-2.3-5.1-5.1
		c0-2.8,2.3-5.1,5.1-5.1C108.5,365.1,110.8,367.4,110.8,370.3"/>
</g>
<path class="st27" d="M156.1,287.7"/>
<path class="st27" d="M167.9,330c22.2-16.1-1.7-25-1.7-25"/>
<g id="layer1_21_" transform="translate(-53.216485,-90.5345)" inkscape:groupmode="layer" inkscape:label="Layer 1">
	<path id="path7705_13_" inkscape:connector-curvature="0" d="M209.5,395.5c0-5.5,4.4-9.9,9.9-9.9s9.9,4.4,9.9,9.9s-4.4,9.9-9.9,9.9
		S209.5,401,209.5,395.5"/>
	<path id="path7707_12_" inkscape:connector-curvature="0" class="st28" d="M213.8,395.5c0-3.1,2.5-5.6,5.6-5.6s5.6,2.5,5.6,5.6
		s-2.5,5.6-5.6,5.6S213.8,398.6,213.8,395.5"/>
	<path id="path7711_12_" inkscape:connector-curvature="0" class="st28" d="M218.5,390.2h2v-4.5c-0.4-0.1-0.7-0.1-1.1-0.1
		c-0.3,0-0.6,0-0.9,0V390.2z"/>
</g>
<g id="layer1_39_" transform="translate(-89.945866,-120.5333)" inkscape:groupmode="layer" inkscape:label="Layer 1">
	<path id="path7255_15_" inkscape:connector-curvature="0" class="st14" d="M257.9,460.8c-5.7,0-10.3-4.6-10.3-10.3
		c0-5.7,4.6-10.3,10.3-10.3c5.7,0,10.3,4.6,10.3,10.3S263.6,460.8,257.9,460.8"/>
	<path id="path7261_15_" inkscape:connector-curvature="0" class="st15" d="M257.9,458.5c-4.4,0-8-3.6-8-8s3.6-8,8-8s8,3.6,8,8
		C265.9,455,262.4,458.5,257.9,458.5"/>
	<path id="path1187_15_" inkscape:connector-curvature="0" class="st11" d="M257.9,458.4c-4.3,0-7.7-3.3-7.7-7.3s3.5-7.3,7.7-7.3
		c4.3,0,7.7,3.3,7.7,7.3S262.2,458.4,257.9,458.4"/>
	<path id="path861_15_" inkscape:connector-curvature="0" class="st16" d="M263.1,451.6c0,2.8-2.3,5.2-5.1,5.2
		c-2.8,0-5.1-2.3-5.1-5.2c0-2.8,2.3-5.2,5.1-5.2C260.8,446.4,263.1,448.7,263.1,451.6"/>
	<path id="path7265_15_" inkscape:connector-curvature="0" d="M263.1,450.6c0,2.8-2.3,5.1-5.1,5.1c-2.8,0-5.1-2.3-5.1-5.1
		c0-2.8,2.3-5.1,5.1-5.1C260.8,445.4,263.1,447.7,263.1,450.6"/>
</g>
<text transform="matrix(1 0 0 1 35.4178 350.8199)" class="st2 st3 st5">FM</text>
<g>
	<circle class="st27" cx="152.4" cy="282.8" r="5.5"/>
	<line class="st27" x1="152.4" y1="288.2" x2="152.4" y2="277.3"/>
	<line class="st27" x1="157.9" y1="282.8" x2="146.9" y2="282.8"/>
</g>
<g>
	<circle class="st27" cx="163.9" cy="253.5" r="5.5"/>
	<line class="st27" x1="160" y1="257.4" x2="167.8" y2="249.6"/>
	<line class="st27" x1="167.8" y1="257.4" x2="160" y2="249.6"/>
</g>
<path class="st29" d="M152.4,277.3c0-13.2,7.6-19.9,7.6-19.9"/>
<text transform="matrix(1 0 0 1 2.9106 350.6366)" class="st2 st3 st5">Pre. D</text>
<g id="layer1_47_" transform="translate(-89.945866,-120.5333)" inkscape:groupmode="layer" inkscape:label="Layer 1">
	<path id="path7255_18_" inkscape:connector-curvature="0" class="st9" d="M105.9,460.8c-5.7,0-10.3-4.6-10.3-10.3
		c0-5.7,4.6-10.3,10.3-10.3s10.3,4.6,10.3,10.3C116.2,456.2,111.6,460.8,105.9,460.8"/>
	<path id="path7261_18_" inkscape:connector-curvature="0" class="st10" d="M105.9,458.5c-4.5,0-8-3.6-8-8s3.6-8,8-8s8,3.6,8,8
		S110.3,458.5,105.9,458.5"/>
	<path id="path1187_18_" inkscape:connector-curvature="0" class="st11" d="M105.9,458.3c-4.3,0-7.8-3.2-7.7-7.3
		c0-4,3.5-7.3,7.7-7.3s7.7,3.3,7.7,7.3S110.2,458.3,105.9,458.3"/>
	<path id="path861_18_" inkscape:connector-curvature="0" class="st12" d="M100.7,451.5c0-2.8,2.3-5.1,5.1-5.2
		c2.8,0,5.1,2.4,5.1,5.2c0,2.9-2.3,5.2-5.1,5.2S100.7,454.3,100.7,451.5"/>
	<path id="path7265_18_" inkscape:connector-curvature="0" d="M100.7,450.5c0-2.8,2.3-5.1,5.1-5.1s5.1,2.3,5.1,5.1s-2.3,5.1-5.1,5.1
		S100.7,453.3,100.7,450.5"/>
</g>
<path class="st7" d="M15.9,190.2c26.7-13,54.9,8.9,54.9,8.9"/>
<g id="layer1_46_" transform="translate(-53.216485,-90.5345)" inkscape:groupmode="layer" inkscape:label="Layer 1">
	<path id="path7705_17_" inkscape:connector-curvature="0" d="M104.8,277.5c0,5.5-4.4,9.9-9.9,9.9S85,283,85,277.5s4.4-9.9,9.9-9.9
		S104.8,272.1,104.8,277.5"/>
	<path id="path7707_26_" inkscape:connector-curvature="0" class="st24" d="M100.5,277.5c0,3.1-2.5,5.6-5.6,5.6s-5.6-2.5-5.6-5.6
		s2.5-5.6,5.6-5.6S100.5,274.4,100.5,277.5"/>
	<path id="path7711_26_" inkscape:connector-curvature="0" class="st24" d="M95.8,267.7c-0.3,0-0.6,0-0.9,0c-0.4,0-0.7,0-1.1,0.1
		v4.5h2V267.7z"/>
</g>
<g id="layer1_45_" transform="translate(-89.945866,-120.5333)" inkscape:groupmode="layer" inkscape:label="Layer 1">
	<path id="path7255_17_" inkscape:connector-curvature="0" class="st14" d="M105.9,321c-5.7,0-10.3-4.6-10.3-10.3
		s4.6-10.3,10.3-10.3c5.7,0,10.3,4.6,10.3,10.3S111.6,321,105.9,321"/>
	<path id="path7261_17_" inkscape:connector-curvature="0" class="st15" d="M105.9,318.7c-4.4,0-8-3.6-8-8s3.6-8,8-8s8,3.6,8,8
		C113.9,315.2,110.4,318.7,105.9,318.7"/>
	<path id="path1187_17_" inkscape:connector-curvature="0" class="st11" d="M105.9,318.6c-4.3,0-7.7-3.3-7.7-7.3s3.5-7.3,7.7-7.3
		c4.3,0,7.7,3.3,7.7,7.3S110.2,318.6,105.9,318.6"/>
	<path id="path861_17_" inkscape:connector-curvature="0" class="st16" d="M111.1,311.8c0,2.8-2.3,5.2-5.1,5.2s-5.1-2.3-5.1-5.2
		c0-2.8,2.3-5.2,5.1-5.2C108.8,306.6,111.1,308.9,111.1,311.8"/>
	<path id="path7265_17_" inkscape:connector-curvature="0" d="M111.1,310.8c0,2.8-2.3,5.1-5.1,5.1s-5.1-2.3-5.1-5.1
		c0-2.8,2.3-5.1,5.1-5.1C108.8,305.6,111.1,307.9,111.1,310.8"/>
</g>
<path class="st27" d="M41.9,330c-22.2-16.1,1.7-25,1.7-25c19.3-6.6,15.2-16.9,15.2-16.9"/>
<g id="layer1_26_" transform="translate(-53.216485,-90.5345)" inkscape:groupmode="layer" inkscape:label="Layer 1">
	<path id="path7705_8_" inkscape:connector-curvature="0" d="M106.7,395.5c0,5.5-4.4,9.9-9.9,9.9s-9.9-4.4-9.9-9.9s4.4-9.9,9.9-9.9
		S106.7,390,106.7,395.5"/>
	<path id="path7707_8_" inkscape:connector-curvature="0" class="st28" d="M102.4,395.5c0,3.1-2.5,5.6-5.6,5.6s-5.6-2.5-5.6-5.6
		s2.5-5.6,5.6-5.6S102.4,392.4,102.4,395.5"/>
	<path id="path7711_8_" inkscape:connector-curvature="0" class="st28" d="M97.7,385.6c-0.3,0-0.6,0-0.9,0c-0.4,0-0.7,0-1.1,0.1v4.5
		h2V385.6z"/>
</g>
<g>
	<circle class="st27" cx="57.4" cy="282.8" r="5.5"/>
	<line class="st27" x1="57.4" y1="288.2" x2="57.4" y2="277.3"/>
	<line class="st27" x1="51.9" y1="282.8" x2="62.9" y2="282.8"/>
</g>
<g>
	<circle class="st27" cx="45.9" cy="253.5" r="5.5"/>
	<line class="st27" x1="49.8" y1="257.4" x2="42" y2="249.6"/>
	<line class="st27" x1="42" y1="257.4" x2="49.8" y2="249.6"/>
</g>
<g id="layer1_37_" transform="translate(-89.945866,-120.5333)" inkscape:groupmode="layer" inkscape:label="Layer 1">
	<path id="path7255_14_" inkscape:connector-curvature="0" class="st14" d="M131.8,460.8c-5.7,0-10.3-4.6-10.3-10.3
		c0-5.7,4.6-10.3,10.3-10.3c5.7,0,10.3,4.6,10.3,10.3S137.5,460.8,131.8,460.8"/>
	<path id="path7261_14_" inkscape:connector-curvature="0" class="st15" d="M131.8,458.5c-4.4,0-8-3.6-8-8s3.6-8,8-8
		c4.4,0,8,3.6,8,8C139.8,455,136.3,458.5,131.8,458.5"/>
	<path id="path1187_14_" inkscape:connector-curvature="0" class="st11" d="M131.8,458.4c-4.3,0-7.7-3.3-7.7-7.3s3.5-7.3,7.7-7.3
		c4.3,0,7.7,3.3,7.7,7.3S136.1,458.4,131.8,458.4"/>
	<path id="path861_14_" inkscape:connector-curvature="0" class="st16" d="M137,451.6c0,2.8-2.3,5.2-5.1,5.2s-5.1-2.3-5.1-5.2
		c0-2.8,2.3-5.2,5.1-5.2S137,448.7,137,451.6"/>
	<path id="path7265_14_" inkscape:connector-curvature="0" d="M137,450.6c0,2.8-2.3,5.1-5.1,5.1s-5.1-2.3-5.1-5.1
		c0-2.8,2.3-5.1,5.1-5.1C134.7,445.4,137,447.7,137,450.6"/>
</g>
<text transform="matrix(1 0 0 1 5.6348 270.8136)" class="st2 st3 st5">Sync</text>
<g id="layer1_7_" transform="translate(-47.888015,-88.626321)" inkscape:groupmode="layer" inkscape:label="Layer 1">
	<path id="path7689_2_" inkscape:connector-curvature="0" d="M134.8,287.6c0,8.8-7.1,15.9-15.9,15.9s-15.9-7.1-15.9-15.9
		s7.1-15.9,15.9-15.9C127.7,271.8,134.8,278.9,134.8,287.6"/>
	<path id="path7691_2_" inkscape:connector-curvature="0" class="st24" d="M127.8,287.6c0,4.9-4,9-9,9s-9-4-9-9c0-4.9,4-9,9-9
		C123.8,278.7,127.8,282.7,127.8,287.6"/>
	<path id="path7693_2_" inkscape:connector-curvature="0" class="st25" d="M131.4,287.6c0,6.9-5.6,12.6-12.6,12.6
		c-6.9,0-12.6-5.6-12.6-12.6c0-6.9,5.6-12.6,12.6-12.6C125.8,275.1,131.4,280.7,131.4,287.6L131.4,287.6z"/>
	<path id="path7695_2_" inkscape:connector-curvature="0" class="st24" d="M120.3,271.8c-0.5,0-1-0.1-1.4-0.1c-0.6,0-1.2,0-1.8,0.1
		v7.2h3.2C120.3,279,120.3,271.8,120.3,271.8z"/>
</g>
<path class="st6" d="M193.9,74.7c-31.4,25.1-65.3,20.2-65.3,20.2"/>
<g id="layer1_4_" transform="translate(-47.888015,-88.626321)" inkscape:groupmode="layer" inkscape:label="Layer 1">
	<path id="path7689_1_" inkscape:connector-curvature="0" d="M188.8,183.6c0,8.8-7.1,15.9-15.9,15.9c-8.8,0-15.9-7.1-15.9-15.9
		c0-8.8,7.1-15.9,15.9-15.9C181.7,167.8,188.8,174.9,188.8,183.6"/>
	<path id="path7691_1_" inkscape:connector-curvature="0" class="st26" d="M181.8,183.6c0,4.9-4,9-9,9c-4.9,0-9-4-9-9c0-4.9,4-9,9-9
		C177.8,174.7,181.8,178.7,181.8,183.6"/>
	<path id="path7693_1_" inkscape:connector-curvature="0" class="st25" d="M185.4,183.6c0,6.9-5.6,12.6-12.6,12.6
		c-6.9,0-12.6-5.6-12.6-12.6c0-6.9,5.6-12.6,12.6-12.6C179.8,171.1,185.4,176.7,185.4,183.6L185.4,183.6z"/>
	<path id="path7695_1_" inkscape:connector-curvature="0" class="st26" d="M174.3,167.8c-0.5,0-1-0.1-1.4-0.1c-0.6,0-1.2,0-1.8,0.1
		v7.2h3.2V167.8z"/>
</g>
<g id="layer1_12_" transform="translate(-53.216485,-90.5345)" inkscape:groupmode="layer" inkscape:label="Layer 1">
	<path id="path7705_3_" inkscape:connector-curvature="0" d="M226.1,180.5c0,5.5-4.4,9.9-9.9,9.9s-9.9-4.4-9.9-9.9s4.4-9.9,9.9-9.9
		C221.7,170.6,226.1,175.1,226.1,180.5"/>
	<path id="path7707_3_" inkscape:connector-curvature="0" class="st26" d="M221.8,180.5c0,3.1-2.5,5.6-5.6,5.6s-5.6-2.5-5.6-5.6
		s2.5-5.6,5.6-5.6S221.8,177.4,221.8,180.5"/>
	<path id="path7711_3_" inkscape:connector-curvature="0" class="st26" d="M217.1,170.7c-0.3,0-0.6,0-0.9,0c-0.4,0-0.7,0-1.1,0.1
		v4.5h2V170.7z"/>
</g>
<g id="layer1_8_" transform="translate(-89.945866,-120.5333)" inkscape:groupmode="layer" inkscape:label="Layer 1">
	<path id="path7255" inkscape:connector-curvature="0" class="st14" d="M284,205c-5.7,0-10.3-4.6-10.3-10.3s4.6-10.3,10.3-10.3
		c5.7,0,10.3,4.6,10.3,10.3S289.7,205,284,205"/>
	<path id="path7261" inkscape:connector-curvature="0" class="st15" d="M284,202.7c-4.4,0-8-3.6-8-8s3.6-8,8-8s8,3.6,8,8
		C292,199.2,288.5,202.7,284,202.7"/>
	<path id="path1187" inkscape:connector-curvature="0" class="st11" d="M284,202.6c-4.3,0-7.7-3.3-7.7-7.3s3.5-7.3,7.7-7.3
		c4.3,0,7.7,3.3,7.7,7.3S288.3,202.6,284,202.6"/>
	<path id="path861" inkscape:connector-curvature="0" class="st16" d="M289.2,195.8c0,2.8-2.3,5.2-5.1,5.2c-2.8,0-5.1-2.3-5.1-5.2
		c0-2.8,2.3-5.2,5.1-5.2S289.2,192.9,289.2,195.8"/>
	<path id="path7265" inkscape:connector-curvature="0" d="M289.2,194.8c0,2.8-2.3,5.1-5.1,5.1s-5.1-2.3-5.1-5.1s2.3-5.1,5.1-5.1
		C286.9,189.6,289.2,191.9,289.2,194.8"/>
</g>
<path class="st8" d="M52.4,150.5c0,0-15.5,0-26.2-11.5"/>
<g id="layer1_9_" transform="translate(-46.557912,-86.649131)" inkscape:groupmode="layer" inkscape:label="Layer 1">
	<path id="path7697" inkscape:connector-curvature="0" d="M88.4,225.6c0,8.8-7.1,15.9-15.9,15.9s-15.9-7.1-15.9-15.9
		c0-8.8,7.1-15.9,15.9-15.9C81.3,209.8,88.4,216.9,88.4,225.6"/>
	<path id="path7699" inkscape:connector-curvature="0" class="st23" d="M81.5,225.6c0,4.9-4,9-9,9s-9-4-9-9c0-4.9,4-9,9-9
		C77.5,216.7,81.5,220.7,81.5,225.6"/>
	<path id="path7701" inkscape:connector-curvature="0" class="st25" d="M85.1,225.6c0,6.9-5.6,12.6-12.6,12.6
		c-6.9,0-12.6-5.6-12.6-12.6c0-6.9,5.6-12.6,12.6-12.6C79.5,213.1,85.1,218.7,85.1,225.6L85.1,225.6z"/>
	<path id="path7703" inkscape:connector-curvature="0" class="st23" d="M74,209.8c-0.5,0-1-0.1-1.4-0.1c-0.6,0-1.2,0-1.8,0.1v7.2H74
		V209.8z"/>
</g>
<path class="st27" d="M166.2,305c-19.3-6.6-15.2-17-15.2-17"/>
<path class="st27" d="M15.6,295.8c-9-23,19.9-19.9,19.9-19.9c13.5-5.3,18,2.9,18,2.9"/>
<g id="layer1_43_" transform="translate(-53.216485,-90.5345)" inkscape:groupmode="layer" inkscape:label="Layer 1">
	<path id="path7705_16_" inkscape:connector-curvature="0" d="M99.7,366.5c0,5.5-4.4,9.9-9.9,9.9s-9.9-4.4-9.9-9.9s4.4-9.9,9.9-9.9
		S99.7,361,99.7,366.5"/>
	<path id="path7707_24_" inkscape:connector-curvature="0" class="st28" d="M95.4,366.5c0,3.1-2.5,5.6-5.6,5.6s-5.6-2.5-5.6-5.6
		s2.5-5.6,5.6-5.6S95.4,363.4,95.4,366.5"/>
	<path id="path7711_24_" inkscape:connector-curvature="0" class="st28" d="M90.7,356.6c-0.3,0-0.6,0-0.9,0c-0.4,0-0.7,0-1.1,0.1
		v4.5h2V356.6z"/>
</g>
<g id="layer1_48_" transform="translate(-89.945866,-120.5333)" inkscape:groupmode="layer" inkscape:label="Layer 1">
	<path id="path7255_19_" inkscape:connector-curvature="0" class="st14" d="M105.6,426.6c-5.7,0-10.3-4.6-10.3-10.3
		c0-5.7,4.6-10.3,10.3-10.3s10.3,4.6,10.3,10.3S111.3,426.6,105.6,426.6"/>
	<path id="path7261_19_" inkscape:connector-curvature="0" class="st15" d="M105.6,424.3c-4.4,0-8-3.6-8-8s3.6-8,8-8s8,3.6,8,8
		C113.6,420.8,110.1,424.3,105.6,424.3"/>
	<path id="path1187_19_" inkscape:connector-curvature="0" class="st11" d="M105.6,424.2c-4.3,0-7.7-3.3-7.7-7.3s3.5-7.3,7.7-7.3
		c4.3,0,7.7,3.3,7.7,7.3S109.9,424.2,105.6,424.2"/>
	<path id="path861_19_" inkscape:connector-curvature="0" class="st16" d="M110.8,417.4c0,2.8-2.3,5.2-5.1,5.2s-5.1-2.3-5.1-5.2
		c0-2.8,2.3-5.2,5.1-5.2S110.8,414.5,110.8,417.4"/>
	<path id="path7265_19_" inkscape:connector-curvature="0" d="M110.8,416.4c0,2.8-2.3,5.1-5.1,5.1s-5.1-2.3-5.1-5.1
		c0-2.8,2.3-5.1,5.1-5.1C108.5,411.2,110.8,413.5,110.8,416.4"/>
</g>
<path class="st29" d="M57.4,277.4c0-13.2-7.6-19.9-7.6-19.9"/>
<path class="st30" d="M194.1,40c-22.8,0-22.8,24.3-22.8,24.3C171.3,40,144,50,144,50c-6.5-14.5-39,9-39,9s-32.7-23.6-39.3-9
	c0,0-27.4-10.1-27.4,14.2c0,0,0-24.3-22.8-24.3"/>
<g id="layer1_36_" transform="translate(-89.945866,-120.5333)" inkscape:groupmode="layer" inkscape:label="Layer 1">
	<path id="path7255_12_" inkscape:connector-curvature="0" class="st14" d="M284.1,170.8c-5.7,0-10.3-4.6-10.3-10.3
		s4.6-10.3,10.3-10.3s10.3,4.6,10.3,10.3S289.8,170.8,284.1,170.8"/>
	<path id="path7261_12_" inkscape:connector-curvature="0" class="st15" d="M284.1,168.5c-4.4,0-8-3.6-8-8s3.6-8,8-8s8,3.6,8,8
		C292.1,165,288.6,168.5,284.1,168.5"/>
	<path id="path1187_12_" inkscape:connector-curvature="0" class="st11" d="M284.1,168.4c-4.3,0-7.7-3.3-7.7-7.3s3.5-7.3,7.7-7.3
		s7.7,3.3,7.7,7.3S288.4,168.4,284.1,168.4"/>
	<path id="path861_12_" inkscape:connector-curvature="0" class="st16" d="M289.3,161.6c0,2.8-2.3,5.2-5.1,5.2
		c-2.8,0-5.1-2.3-5.1-5.2c0-2.8,2.3-5.2,5.1-5.2S289.3,158.7,289.3,161.6"/>
	<path id="path7265_12_" inkscape:connector-curvature="0" d="M289.3,160.6c0,2.8-2.3,5.1-5.1,5.1c-2.8,0-5.1-2.3-5.1-5.1
		s2.3-5.1,5.1-5.1S289.3,157.7,289.3,160.6"/>
</g>
<g id="layer1_50_" transform="translate(-53.216485,-90.5345)" inkscape:groupmode="layer" inkscape:label="Layer 1">
	<path id="path7705_19_" inkscape:connector-curvature="0" d="M234.5,154.8c0,5.5-4.4,9.9-9.9,9.9s-9.9-4.4-9.9-9.9s4.4-9.9,9.9-9.9
		C230.1,144.9,234.5,149.4,234.5,154.8"/>
	<path id="path7707_21_" inkscape:connector-curvature="0" class="st31" d="M230.2,154.8c0,3.1-2.5,5.6-5.6,5.6s-5.6-2.5-5.6-5.6
		s2.5-5.6,5.6-5.6S230.2,151.7,230.2,154.8"/>
	<path id="path7711_21_" inkscape:connector-curvature="0" class="st31" d="M225.5,145c-0.3,0-0.6,0-0.9,0c-0.4,0-0.7,0-1.1,0.1v4.5
		h2V145z"/>
</g>
<g id="layer1_35_" transform="translate(-89.945866,-120.5333)" inkscape:groupmode="layer" inkscape:label="Layer 1">
	<path id="path7255_11_" inkscape:connector-curvature="0" class="st14" d="M105.6,170.8c-5.7,0-10.3-4.6-10.3-10.3
		s4.6-10.3,10.3-10.3s10.3,4.6,10.3,10.3S111.3,170.8,105.6,170.8"/>
	<path id="path7261_11_" inkscape:connector-curvature="0" class="st15" d="M105.6,168.5c-4.4,0-8-3.6-8-8s3.6-8,8-8s8,3.6,8,8
		C113.6,165,110.1,168.5,105.6,168.5"/>
	<path id="path1187_11_" inkscape:connector-curvature="0" class="st11" d="M105.6,168.4c-4.3,0-7.7-3.3-7.7-7.3s3.5-7.3,7.7-7.3
		s7.7,3.3,7.7,7.3S109.9,168.4,105.6,168.4"/>
	<path id="path861_11_" inkscape:connector-curvature="0" class="st16" d="M110.8,161.6c0,2.8-2.3,5.2-5.1,5.2
		c-2.8,0-5.1-2.3-5.1-5.2c0-2.8,2.3-5.2,5.1-5.2S110.8,158.7,110.8,161.6"/>
	<path id="path7265_11_" inkscape:connector-curvature="0" d="M110.8,160.6c0,2.8-2.3,5.1-5.1,5.1c-2.8,0-5.1-2.3-5.1-5.1
		s2.3-5.1,5.1-5.1S110.8,157.7,110.8,160.6"/>
</g>
<g id="layer1_51_" transform="translate(-53.216485,-90.5345)" inkscape:groupmode="layer" inkscape:label="Layer 1">
	<path id="path7705_20_" inkscape:connector-curvature="0" d="M81.7,154.8c0-5.4,4.4-9.9,9.9-9.9s9.9,4.4,9.9,9.9s-4.4,9.9-9.9,9.9
		S81.7,160.3,81.7,154.8"/>
	<path id="path7707_30_" inkscape:connector-curvature="0" class="st31" d="M86,154.8c0-3.1,2.5-5.6,5.6-5.6s5.6,2.5,5.6,5.6
		s-2.5,5.6-5.6,5.6S86,157.9,86,154.8"/>
	<path id="path7711_30_" inkscape:connector-curvature="0" class="st31" d="M90.7,149.6h2v-4.5c-0.4-0.1-0.7-0.1-1.1-0.1
		c-0.3,0-0.6,0-0.9,0V149.6z"/>
</g>
<g id="layer1_2_" transform="translate(-50.235993,-87.554008)" inkscape:groupmode="layer" inkscape:label="Layer 1">
	<path id="path7705_1_" inkscape:connector-curvature="0" d="M171.1,137.6c0,8.8-7.1,15.9-15.9,15.9c-8.8,0-15.9-7.1-15.9-15.9
		c0-8.8,7.1-15.9,15.9-15.9C164,121.7,171.1,128.8,171.1,137.6"/>
	<path id="path7707_1_" inkscape:connector-curvature="0" class="st31" d="M164.2,137.6c0,4.9-4,9-9,9c-4.9,0-9-4-9-9c0-4.9,4-9,9-9
		S164.2,132.6,164.2,137.6"/>
	<path id="path7709_1_" inkscape:connector-curvature="0" class="st25" d="M167.8,137.6c0,6.9-5.6,12.6-12.6,12.6
		c-6.9,0-12.6-5.6-12.6-12.6c0-6.9,5.6-12.6,12.6-12.6C162.2,125,167.8,130.6,167.8,137.6L167.8,137.6z"/>
	<path id="path7711_1_" inkscape:connector-curvature="0" class="st31" d="M156.7,121.8c-0.5,0-1-0.1-1.4-0.1c-0.6,0-1.2,0-1.8,0.1
		v7.2h3.2V121.8z"/>
</g>
<g id="layer1_3_" transform="translate(-50.235993,-87.554008)" inkscape:groupmode="layer" inkscape:label="Layer 1">
	<path id="path7705_2_" inkscape:connector-curvature="0" d="M210.1,137.6c0,8.8-7.1,15.9-15.9,15.9c-8.8,0-15.9-7.1-15.9-15.9
		c0-8.8,7.1-15.9,15.9-15.9C203,121.7,210.1,128.8,210.1,137.6"/>
	<path id="path7707_2_" inkscape:connector-curvature="0" class="st31" d="M203.2,137.6c0,4.9-4,9-9,9c-4.9,0-9-4-9-9c0-4.9,4-9,9-9
		S203.2,132.6,203.2,137.6"/>
	<path id="path7709_2_" inkscape:connector-curvature="0" class="st25" d="M206.8,137.6c0,6.9-5.6,12.6-12.6,12.6
		c-6.9,0-12.6-5.6-12.6-12.6c0-6.9,5.6-12.6,12.6-12.6C201.2,125,206.8,130.6,206.8,137.6L206.8,137.6z"/>
	<path id="path7711_2_" inkscape:connector-curvature="0" class="st31" d="M195.7,121.8c-0.5,0-1-0.1-1.4-0.1c-0.6,0-1.2,0-1.8,0.1
		v7.2h3.2V121.8z"/>
</g>
<g id="layer1_1_" transform="translate(-50.235993,-87.554008)" inkscape:groupmode="layer" inkscape:label="Layer 1">
	<path id="path7705" inkscape:connector-curvature="0" d="M132.1,137.6c0,8.8-7.1,15.9-15.9,15.9s-15.9-7.1-15.9-15.9
		c0-8.8,7.1-15.9,15.9-15.9C125,121.7,132.1,128.8,132.1,137.6"/>
	<path id="path7707" inkscape:connector-curvature="0" class="st31" d="M125.2,137.6c0,4.9-4,9-9,9c-4.9,0-9-4-9-9c0-4.9,4-9,9-9
		S125.2,132.6,125.2,137.6"/>
	<path id="path7709" inkscape:connector-curvature="0" class="st25" d="M128.8,137.6c0,6.9-5.6,12.6-12.6,12.6
		c-6.9,0-12.6-5.6-12.6-12.6c0-6.9,5.6-12.6,12.6-12.6C123.2,125,128.8,130.6,128.8,137.6L128.8,137.6z"/>
	<path id="path7711" inkscape:connector-curvature="0" class="st31" d="M117.7,121.8c-0.5,0-1-0.1-1.4-0.1c-0.6,0-1.2,0-1.8,0.1v7.2
		h3.2C117.7,129,117.7,121.8,117.7,121.8z"/>
</g>
<path class="st27" d="M19.3,214.4c21.7,0,22.2,18,22.2,18c-5.9,10.9,1.1,17.2,1.1,17.2"/>
<g id="layer1_34_" transform="translate(-53.216485,-90.5345)" inkscape:groupmode="layer" inkscape:label="Layer 1">
	<path id="path7705_12_" inkscape:connector-curvature="0" d="M102.1,320.9c0,5.5-4.4,9.9-9.9,9.9s-9.9-4.4-9.9-9.9s4.4-9.9,9.9-9.9
		S102.1,315.4,102.1,320.9"/>
	<path id="path7707_22_" inkscape:connector-curvature="0" class="st28" d="M97.8,320.9c0,3.1-2.5,5.6-5.6,5.6s-5.6-2.5-5.6-5.6
		s2.5-5.6,5.6-5.6S97.8,317.8,97.8,320.9"/>
	<path id="path7711_22_" inkscape:connector-curvature="0" class="st28" d="M93.1,311c-0.3,0-0.6,0-0.9,0c-0.4,0-0.7,0-1.1,0.1v4.5
		h2V311z"/>
</g>
<g id="layer1_30_" transform="translate(-89.945866,-120.5333)" inkscape:groupmode="layer" inkscape:label="Layer 1">
	<path id="path7255_13_" inkscape:connector-curvature="0" class="st14" d="M106,345.1c-5.7,0-10.3-4.6-10.3-10.3
		s4.6-10.3,10.3-10.3s10.3,4.6,10.3,10.3S111.7,345.1,106,345.1"/>
	<path id="path7261_13_" inkscape:connector-curvature="0" class="st15" d="M106,342.8c-4.5,0-8-3.5-8-8c0-4.4,3.6-8,8-8s8,3.6,8,8
		S110.4,342.8,106,342.8"/>
	<path id="path1187_13_" inkscape:connector-curvature="0" class="st11" d="M106,342.7c-4.3,0-7.7-3.3-7.7-7.3s3.4-7.3,7.7-7.3
		c4.2,0,7.7,3.3,7.7,7.3S110.3,342.7,106,342.7"/>
	<path id="path861_13_" inkscape:connector-curvature="0" class="st16" d="M100.8,335.9c0-2.9,2.3-5.2,5.1-5.2s5.1,2.4,5.1,5.2
		c0,2.9-2.3,5.2-5.1,5.2S100.8,338.7,100.8,335.9"/>
	<path id="path7265_13_" inkscape:connector-curvature="0" d="M100.8,334.9c0-2.9,2.3-5.2,5.1-5.1c2.8,0,5.1,2.3,5.1,5.1
		c0,2.8-2.3,5.1-5.1,5.1S100.8,337.7,100.8,334.9"/>
</g>
<line class="st27" x1="105.1" y1="216.7" x2="105.1" y2="195.9"/>
<g id="layer1_19_" transform="translate(-46.755712,-68.824694)" inkscape:groupmode="layer" inkscape:label="Layer 1">
	<path id="path2706_3_" class="st18" d="M158.6,285.5c0,3.7-3,6.7-6.7,6.7l0,0c-3.7,0-6.7-3-6.7-6.7l0,0c0-3.7,3-6.7,6.7-6.7l0,0
		C155.6,278.8,158.6,281.8,158.6,285.5L158.6,285.5z"/>
</g>
<g id="layer1_52_" transform="translate(-53.216485,-90.5345)" inkscape:groupmode="layer" inkscape:label="Layer 1">
	<path id="path7705_18_" inkscape:connector-curvature="0" d="M148.5,286.4c0-5.5,4.4-9.9,9.9-9.9s9.9,4.4,9.9,9.9s-4.4,9.9-9.9,9.9
		S148.5,291.9,148.5,286.4"/>
	<path id="path7707_10_" inkscape:connector-curvature="0" class="st28" d="M152.8,286.4c0-3.1,2.5-5.6,5.6-5.6s5.6,2.5,5.6,5.6
		s-2.5,5.6-5.6,5.6S152.8,289.5,152.8,286.4"/>
	<path id="path7711_10_" inkscape:connector-curvature="0" class="st28" d="M157.5,281.1h2v-4.5c-0.4-0.1-0.7-0.1-1.1-0.1
		c-0.3,0-0.6,0-0.9,0V281.1z"/>
</g>
</svg>
