<?xml version="1.0" encoding="utf-8"?>
<!-- Generator: Adobe Illustrator 23.0.6, SVG Export Plug-In . SVG Version: 6.00 Build 0)  -->
<svg version="1.1"
	 id="svg8" xmlns:cc="http://creativecommons.org/ns#" xmlns:dc="http://purl.org/dc/elements/1.1/" xmlns:inkscape="http://www.inkscape.org/namespaces/inkscape" xmlns:rdf="http://www.w3.org/1999/02/22-rdf-syntax-ns#" xmlns:sodipodi="http://sodipodi.sourceforge.net/DTD/sodipodi-0.dtd" xmlns:svg="http://www.w3.org/2000/svg"
	 xmlns="http://www.w3.org/2000/svg" xmlns:xlink="http://www.w3.org/1999/xlink" x="0px" y="0px" viewBox="0 0 300 380"
	 style="enable-background:new 0 0 300 380;" xml:space="preserve">
<style type="text/css">
	.st0{fill:#282828;}
	.st1{fill:none;stroke:#BE974A;stroke-width:2;stroke-miterlimit:10;}
	.st2{fill:none;stroke:#DA4061;stroke-width:2;stroke-miterlimit:10;}
	.st3{fill:none;stroke:#00A1A7;stroke-width:2;stroke-miterlimit:10;}
	.st4{fill:none;stroke:#8759A4;stroke-width:2;stroke-miterlimit:10;}
	.st5{fill:none;stroke:#FFFFFF;}
	.st6{fill:#FFFFFF;}
	.st7{font-family:'AlteDIN1451Mittelschrift';}
	.st8{font-size:18px;}
	.st9{font-size:10px;}
	.st10{font-size:8px;}
	.st11{fill:none;stroke:#8759A4;stroke-miterlimit:10;}
	.st12{fill:#E1E1E2;stroke:#818181;stroke-width:0.25;}
	.st13{fill:#F5F7F7;stroke:#343B3F;stroke-width:0.1323;}
	.st14{fill:#929A9E;}
	.st15{fill:#F5F7F7;}
	.st16{fill:#111111;stroke:#414042;stroke-miterlimit:10;}
	.st17{fill:#400002;}
	.st18{font-family:'DSEG14Classic-Italic';}
	.st19{fill:#FF0000;}
	.st20{fill:none;stroke:#FFFFFF;stroke-miterlimit:10;}
	.st21{fill:#636466;stroke:#000000;stroke-width:0.25;}
	.st22{fill:#D4D7D9;stroke:#343B3F;stroke-width:0.1323;}
	.st23{fill:#DEE4E5;}
	.st24{fill:none;stroke:#C0C0C0;stroke-miterlimit:10;}
	.st25{fill:#BE974A;fill-opacity:0.9922;}
	.st26{fill:#00A1A7;}
	.st27{fill:#282828;stroke:#C0C0C0;stroke-miterlimit:10;}
	.st28{fill:#FFFFFF;fill-opacity:0.9922;}
	.st29{fill:#3C3C3C;stroke:#000000;stroke-width:0.2;stroke-linecap:square;}
	.st30{fill:#111111;}
	.st31{fill:none;stroke:#C00000;stroke-miterlimit:10;}
	.st32{fill:none;stroke:#414042;stroke-miterlimit:10;}
</style>
<g id="layer1" transform="translate(0,-196.45831)" inkscape:groupmode="layer" inkscape:label="Layer 1">
	<rect id="rect1047" y="196.5" class="st0" width="300" height="380"/>
</g>
<path class="st1" d="M213,245c0-44.8-38-49-38-49"/>
<path class="st1" d="M197,268c-17.6-28.7-22-72-22-72"/>
<path class="st2" d="M94.3,148c0,0-16.3-2.1-24.4-10"/>
<path class="st3" d="M221,182c-29.8,1.9-29-17.1-29-17.1"/>
<path class="st2" d="M230,138c-8.1,7.9-24.4,10-24.4,10"/>
<path class="st4" d="M181.4,138.2c35.5-24.2-2.5-46.2-2.5-46.2"/>
<path class="st3" d="M108,164.9c0,0,0.8,19-29,17.1"/>
<defs>
	
	
		<inkscape:path-effect  apply_no_weight="true" apply_with_weight="true" effect="bspline" helper_size="0" id="path-effect2273" is_visible="true" only_selected="false" steps="2" weight="33.333333">
		</inkscape:path-effect>
	
		<inkscape:path-effect  apply_no_weight="true" apply_with_weight="true" effect="bspline" helper_size="0" id="path-effect2269" is_visible="true" only_selected="false" steps="2" weight="33.333333">
		</inkscape:path-effect>
</defs>
<sodipodi:namedview  bordercolor="#666666" borderopacity="1.0" id="base" inkscape:current-layer="layer1" inkscape:cx="76.012834" inkscape:cy="318.70973" inkscape:document-units="mm" inkscape:pageopacity="0.0" inkscape:pageshadow="2" inkscape:snap-bbox="true" inkscape:snap-global="true" inkscape:window-height="1006" inkscape:window-maximized="0" inkscape:window-width="1276" inkscape:window-x="641" inkscape:window-y="0" inkscape:zoom="5.656854" pagecolor="#ffffff" showgrid="true" showguides="false" units="px">
	<inkscape:grid  id="grid1092" type="xygrid"></inkscape:grid>
</sodipodi:namedview>
<path id="line161" class="st5" d="M0,24.5h300"/>
<path id="line163" class="st5" d="M0,356.5h300"/>
<text transform="matrix(1 0 0 1 127.4914 373.5106)" class="st6 st7 st8">Valley</text>
<text transform="matrix(1 0 0 1 107.8653 17.9062)" class="st6 st7 st8">Terrorform</text>
<text transform="matrix(1 0 0 1 6.0637 60.9038)" class="st6 st7 st9">VOct</text>
<text transform="matrix(1 0 0 1 275.0642 60.9038)" class="st6 st7 st9">VOct</text>
<text transform="matrix(1 0 0 1 199.9264 350.6366)" class="st6 st7 st9">Main</text>
<text transform="matrix(1 0 0 1 171.8552 350.6366)" class="st6 st7 st9">Sub</text>
<text transform="matrix(1 0 0 1 131.9531 293.0002)" class="st6 st7 st10">Sync Mode</text>
<text transform="matrix(1 0 0 1 56.5062 336.0663)" class="st6 st7 st10">Weak</text>
<path class="st4" d="M120.8,92c0,0-38,22-2.5,46.2"/>
<path class="st11" d="M174,95"/>
<path class="st11" d="M231,74.8"/>
<g id="layer1_22_" transform="translate(-89.945866,-120.5333)" inkscape:groupmode="layer" inkscape:label="Layer 1">
	<path id="path7255_6_" inkscape:connector-curvature="0" class="st12" d="M299.9,460.8c-5.7,0-10.3-4.6-10.3-10.3
		c0-5.7,4.6-10.3,10.3-10.3s10.3,4.6,10.3,10.3C310.2,456.2,305.6,460.8,299.9,460.8"/>
	<path id="path7261_6_" inkscape:connector-curvature="0" class="st13" d="M299.9,458.5c-4.4,0-8-3.6-8-8s3.6-8,8-8s8,3.6,8,8
		S304.4,458.5,299.9,458.5"/>
	<path id="path1187_6_" inkscape:connector-curvature="0" class="st14" d="M299.9,458.3c-4.3,0-7.7-3.3-7.7-7.3s3.5-7.3,7.7-7.3
		s7.7,3.3,7.7,7.3C307.7,455.1,304.2,458.3,299.9,458.3"/>
	<path id="path861_6_" inkscape:connector-curvature="0" class="st15" d="M305.1,451.5c0,2.8-2.3,5.2-5.1,5.2s-5.1-2.3-5.1-5.2
		c0-2.8,2.3-5.2,5.1-5.2C302.8,446.4,305.1,448.7,305.1,451.5"/>
	<path id="path7265_6_" inkscape:connector-curvature="0" d="M305.1,450.5c0,2.8-2.3,5.1-5.1,5.1c-2.8,0-5.1-2.3-5.1-5.1
		s2.3-5.1,5.1-5.1S305.1,447.7,305.1,450.5"/>
</g>
<path id="rect75_2_" inkscape:connector-curvature="0" class="st16" d="M107,297h86v16h-86V297z"/>
<text transform="matrix(1 0 0 1 109.2 309.904)" class="st17 st18 st9">~~~~~~~~~~</text>
<text transform="matrix(1 0 0 1 109.1092 309.9043)" class="st19 st18 st9">!octave+1</text>
<text transform="matrix(1 0 0 1 9.0281 326.7419)" class="st6 st7 st9">FM</text>
<path class="st20" d="M201.1,287.7"/>
<text transform="matrix(1 0 0 1 75.0071 350.6364)" class="st6 st7 st9">Phasor</text>
<text transform="matrix(1 0 0 1 111.3935 350.6366)" class="st6 st7 st9">EOC</text>
<g id="layer1_48_" transform="translate(-89.945866,-120.5333)" inkscape:groupmode="layer" inkscape:label="Layer 1">
	<path id="path7255_20_" inkscape:connector-curvature="0" class="st12" d="M180,460.8c-5.7,0-10.3-4.6-10.3-10.3
		c0-5.7,4.6-10.3,10.3-10.3s10.3,4.6,10.3,10.3C190.3,456.2,185.7,460.8,180,460.8"/>
	<path id="path7261_20_" inkscape:connector-curvature="0" class="st13" d="M180,458.5c-4.4,0-8-3.6-8-8s3.6-8,8-8s8,3.6,8,8
		S184.5,458.5,180,458.5"/>
	<path id="path1187_20_" inkscape:connector-curvature="0" class="st14" d="M180,458.3c-4.3,0-7.7-3.3-7.7-7.3s3.5-7.3,7.7-7.3
		s7.7,3.3,7.7,7.3C187.8,455.1,184.3,458.3,180,458.3"/>
	<path id="path861_20_" inkscape:connector-curvature="0" class="st15" d="M185.2,451.5c0,2.8-2.3,5.2-5.1,5.2s-5.1-2.3-5.1-5.2
		c0-2.8,2.3-5.2,5.1-5.2C182.9,446.4,185.2,448.7,185.2,451.5"/>
	<path id="path7265_20_" inkscape:connector-curvature="0" d="M185.2,450.5c0,2.8-2.3,5.1-5.1,5.1s-5.1-2.3-5.1-5.1s2.3-5.1,5.1-5.1
		S185.2,447.7,185.2,450.5"/>
</g>
<g id="layer1_21_" transform="translate(-89.945866,-120.5333)" inkscape:groupmode="layer" inkscape:label="Layer 1">
	<path id="path7255_15_" inkscape:connector-curvature="0" class="st12" d="M209.9,460.8c-5.7,0-10.3-4.6-10.3-10.3
		c0-5.7,4.6-10.3,10.3-10.3s10.3,4.6,10.3,10.3C220.2,456.2,215.6,460.8,209.9,460.8"/>
	<path id="path7261_15_" inkscape:connector-curvature="0" class="st13" d="M209.9,458.5c-4.4,0-8-3.6-8-8s3.6-8,8-8s8,3.6,8,8
		S214.4,458.5,209.9,458.5"/>
	<path id="path1187_15_" inkscape:connector-curvature="0" class="st14" d="M209.9,458.3c-4.3,0-7.7-3.3-7.7-7.3s3.5-7.3,7.7-7.3
		s7.7,3.3,7.7,7.3C217.7,455.1,214.2,458.3,209.9,458.3"/>
	<path id="path861_15_" inkscape:connector-curvature="0" class="st15" d="M215.1,451.5c0,2.8-2.3,5.2-5.1,5.2s-5.1-2.3-5.1-5.2
		c0-2.8,2.3-5.2,5.1-5.2C212.8,446.4,215.1,448.7,215.1,451.5"/>
	<path id="path7265_15_" inkscape:connector-curvature="0" d="M215.1,450.5c0,2.8-2.3,5.1-5.1,5.1s-5.1-2.3-5.1-5.1s2.3-5.1,5.1-5.1
		S215.1,447.7,215.1,450.5"/>
</g>
<g id="layer1_62_" transform="translate(-89.945866,-120.5333)" inkscape:groupmode="layer" inkscape:label="Layer 1">
	<path id="path7255_28_" inkscape:connector-curvature="0" class="st12" d="M269.9,460.8c-5.7,0-10.3-4.6-10.3-10.3
		c0-5.7,4.6-10.3,10.3-10.3c5.7,0,10.3,4.6,10.3,10.3C280.2,456.2,275.6,460.8,269.9,460.8"/>
	<path id="path7261_28_" inkscape:connector-curvature="0" class="st13" d="M269.9,458.5c-4.4,0-8-3.6-8-8s3.6-8,8-8s8,3.6,8,8
		S274.4,458.5,269.9,458.5"/>
	<path id="path1187_28_" inkscape:connector-curvature="0" class="st14" d="M269.9,458.3c-4.3,0-7.7-3.3-7.7-7.3s3.5-7.3,7.7-7.3
		s7.7,3.3,7.7,7.3C277.7,455.1,274.2,458.3,269.9,458.3"/>
	<path id="path861_28_" inkscape:connector-curvature="0" class="st15" d="M275.1,451.5c0,2.8-2.3,5.2-5.1,5.2
		c-2.8,0-5.1-2.3-5.1-5.2c0-2.8,2.3-5.2,5.1-5.2C272.8,446.4,275.1,448.7,275.1,451.5"/>
	<path id="path7265_28_" inkscape:connector-curvature="0" d="M275.1,450.5c0,2.8-2.3,5.1-5.1,5.1c-2.8,0-5.1-2.3-5.1-5.1
		s2.3-5.1,5.1-5.1C272.8,445.4,275.1,447.7,275.1,450.5"/>
</g>
<text transform="matrix(1 0 0 1 134.1897 350.637)" class="st6 st7 st9">Pre. EH</text>
<g id="layer1_49_" transform="translate(-89.945866,-120.5333)" inkscape:groupmode="layer" inkscape:label="Layer 1">
	<path id="path7255_10_" inkscape:connector-curvature="0" class="st12" d="M239.9,460.7c-5.7,0-10.3-4.6-10.3-10.3
		c0-5.7,4.6-10.3,10.3-10.3s10.3,4.6,10.3,10.3S245.6,460.7,239.9,460.7"/>
	<path id="path7261_10_" inkscape:connector-curvature="0" class="st13" d="M239.9,458.4c-4.4,0-8-3.6-8-8s3.6-8,8-8s8,3.6,8,8
		S244.4,458.4,239.9,458.4"/>
	<path id="path1187_10_" inkscape:connector-curvature="0" class="st14" d="M239.9,458.2c-4.3,0-7.7-3.3-7.7-7.3s3.5-7.3,7.7-7.3
		s7.7,3.3,7.7,7.3C247.7,455,244.2,458.2,239.9,458.2"/>
	<path id="path861_10_" inkscape:connector-curvature="0" class="st15" d="M245.1,451.4c0,2.8-2.3,5.2-5.1,5.2s-5.1-2.3-5.1-5.2
		c0-2.8,2.3-5.2,5.1-5.2C242.8,446.3,245.1,448.6,245.1,451.4"/>
	<path id="path7265_10_" inkscape:connector-curvature="0" d="M245.1,450.4c0,2.8-2.3,5.1-5.1,5.1s-5.1-2.3-5.1-5.1s2.3-5.1,5.1-5.1
		S245.1,447.6,245.1,450.4"/>
</g>
<text transform="matrix(1 0 0 1 133.9972 239.7803)" class="st6 st7 st9">Env Out</text>
<g id="layer1_34_" transform="translate(-89.945866,-120.5333)" inkscape:groupmode="layer" inkscape:label="Layer 1">
	<path id="path7255_16_" inkscape:connector-curvature="0" class="st12" d="M239.9,349.9c-5.7,0-10.3-4.6-10.3-10.3
		c0-5.7,4.6-10.3,10.3-10.3s10.3,4.6,10.3,10.3S245.6,349.9,239.9,349.9"/>
	<path id="path7261_16_" inkscape:connector-curvature="0" class="st13" d="M239.9,347.6c-4.4,0-8-3.6-8-8s3.6-8,8-8s8,3.6,8,8
		S244.4,347.6,239.9,347.6"/>
	<path id="path1187_16_" inkscape:connector-curvature="0" class="st14" d="M239.9,347.4c-4.3,0-7.7-3.3-7.7-7.3s3.5-7.3,7.7-7.3
		s7.7,3.3,7.7,7.3C247.7,344.2,244.2,347.4,239.9,347.4"/>
	<path id="path861_16_" inkscape:connector-curvature="0" class="st15" d="M245.1,340.6c0,2.8-2.3,5.2-5.1,5.2s-5.1-2.3-5.1-5.2
		c0-2.8,2.3-5.2,5.1-5.2C242.8,335.5,245.1,337.8,245.1,340.6"/>
	<path id="path7265_16_" inkscape:connector-curvature="0" d="M245.1,339.6c0,2.8-2.3,5.1-5.1,5.1s-5.1-2.3-5.1-5.1s2.3-5.1,5.1-5.1
		S245.1,336.8,245.1,339.6"/>
</g>
<g id="layer1_44_" transform="translate(-89.945866,-120.5333)" inkscape:groupmode="layer" inkscape:label="Layer 1">
	<path id="path7255_17_" inkscape:connector-curvature="0" class="st21" d="M105.4,231.8c-5.7,0-10.3-4.6-10.3-10.3
		s4.6-10.3,10.3-10.3c5.7,0,10.3,4.6,10.3,10.3S111.1,231.8,105.4,231.8"/>
	<path id="path7261_17_" inkscape:connector-curvature="0" class="st22" d="M105.4,229.5c-4.4,0-8-3.6-8-8s3.6-8,8-8s8,3.6,8,8
		C113.4,226,109.9,229.5,105.4,229.5"/>
	<path id="path1187_17_" inkscape:connector-curvature="0" class="st14" d="M105.4,229.4c-4.3,0-7.7-3.3-7.7-7.3s3.5-7.3,7.7-7.3
		c4.3,0,7.7,3.3,7.7,7.3S109.7,229.4,105.4,229.4"/>
	<path id="path861_17_" inkscape:connector-curvature="0" class="st23" d="M110.6,222.6c0,2.8-2.3,5.2-5.1,5.2
		c-2.8,0-5.1-2.3-5.1-5.2c0-2.8,2.3-5.2,5.1-5.2C108.3,217.4,110.6,219.7,110.6,222.6"/>
	<path id="path7265_17_" inkscape:connector-curvature="0" d="M110.6,221.6c0,2.8-2.3,5.1-5.1,5.1s-5.1-2.3-5.1-5.1s2.3-5.1,5.1-5.1
		C108.3,216.4,110.6,218.7,110.6,221.6"/>
</g>
<g id="layer1_15_" transform="translate(-89.945866,-120.5333)" inkscape:groupmode="layer" inkscape:label="Layer 1">
	<path id="path7255_3_" inkscape:connector-curvature="0" class="st21" d="M105.4,205.8c-5.7,0-10.3-4.6-10.3-10.3
		s4.6-10.3,10.3-10.3c5.7,0,10.3,4.6,10.3,10.3S111.1,205.8,105.4,205.8"/>
	<path id="path7261_3_" inkscape:connector-curvature="0" class="st22" d="M105.4,203.5c-4.4,0-8-3.6-8-8s3.6-8,8-8s8,3.6,8,8
		C113.4,200,109.9,203.5,105.4,203.5"/>
	<path id="path1187_3_" inkscape:connector-curvature="0" class="st14" d="M105.4,203.4c-4.3,0-7.7-3.3-7.7-7.3s3.5-7.3,7.7-7.3
		c4.3,0,7.7,3.3,7.7,7.3S109.7,203.4,105.4,203.4"/>
	<path id="path861_3_" inkscape:connector-curvature="0" class="st23" d="M110.6,196.6c0,2.8-2.3,5.2-5.1,5.2s-5.1-2.3-5.1-5.2
		c0-2.8,2.3-5.2,5.1-5.2C108.3,191.4,110.6,193.7,110.6,196.6"/>
	<path id="path7265_3_" inkscape:connector-curvature="0" d="M110.6,195.6c0,2.8-2.3,5.1-5.1,5.1s-5.1-2.3-5.1-5.1s2.3-5.1,5.1-5.1
		C108.3,190.4,110.6,192.7,110.6,195.6"/>
</g>
<text transform="matrix(1 0 0 1 6.7283 292.8593)" class="st6 st7 st9">VCA</text>
<text transform="matrix(1 0 0 1 277.9504 326.7419)" class="st6 st7 st9">FM</text>
<text transform="matrix(1 0 0 1 275.6506 292.8593)" class="st6 st7 st9">VCA</text>
<text transform="matrix(1 0 0 1 2.441406e-04 -26.278)" class="st17 st18 st9">~~~~~~~~~~~~~</text>
<text transform="matrix(1 0 0 1 2.441406e-04 -26.2779)" class="st19 st18 st9">BITCRUSH!!!15</text>
<text transform="matrix(1 0 0 1 -6.103516e-05 -51.9844)" class="st17 st18 st9">~~~~~~~~~~~~~</text>
<text transform="matrix(1 0 0 1 2.441406e-04 -51.9844)" class="st19 st18 st9">VOICE_1!!!100</text>
<text transform="matrix(1 0 0 1 -2.441406e-04 -39.1312)" class="st17 st18 st9">~~~~~~~~~~~~~</text>
<text transform="matrix(1 0 0 1 2.441406e-04 -39.1312)" class="st19 st18 st9">TWIST!!!!!!47</text>
<path class="st1" d="M125,196c0,0-38,4.2-38,49"/>
<path class="st1" d="M125,196c0,0-4.4,43.3-22,72"/>
<path class="st24" d="M179,240.8"/>
<path class="st24" d="M150.1,229.7"/>
<g id="layer1_50_" transform="translate(-89.945866,-120.5333)" inkscape:groupmode="layer" inkscape:label="Layer 1">
	<path id="path7255_21_" inkscape:connector-curvature="0" class="st21" d="M176.9,375.8c-5.7,0-10.3-4.6-10.3-10.3
		c0-5.7,4.6-10.3,10.3-10.3s10.3,4.6,10.3,10.3S182.6,375.8,176.9,375.8"/>
	<path id="path7261_21_" inkscape:connector-curvature="0" class="st22" d="M176.9,373.5c-4.4,0-8-3.6-8-8s3.6-8,8-8s8,3.6,8,8
		C184.9,370,181.4,373.5,176.9,373.5"/>
	<path id="path1187_21_" inkscape:connector-curvature="0" class="st14" d="M176.9,373.4c-4.3,0-7.7-3.3-7.7-7.3s3.5-7.3,7.7-7.3
		c4.3,0,7.7,3.3,7.7,7.3S181.2,373.4,176.9,373.4"/>
	<path id="path861_21_" inkscape:connector-curvature="0" class="st23" d="M182.1,366.6c0,2.8-2.3,5.2-5.1,5.2s-5.1-2.3-5.1-5.2
		c0-2.8,2.3-5.2,5.1-5.2S182.1,363.7,182.1,366.6"/>
	<path id="path7265_21_" inkscape:connector-curvature="0" d="M182.1,365.6c0,2.8-2.3,5.1-5.1,5.1s-5.1-2.3-5.1-5.1
		c0-2.8,2.3-5.1,5.1-5.1C179.8,360.4,182.1,362.7,182.1,365.6"/>
</g>
<g id="layer1_33_" transform="translate(-89.945866,-120.5333)" inkscape:groupmode="layer" inkscape:label="Layer 1">
	<path id="path7255_11_" inkscape:connector-curvature="0" class="st21" d="M192.9,398.8c-5.7,0-10.3-4.6-10.3-10.3
		c0-5.7,4.6-10.3,10.3-10.3s10.3,4.6,10.3,10.3S198.6,398.8,192.9,398.8"/>
	<path id="path7261_11_" inkscape:connector-curvature="0" class="st22" d="M192.9,396.5c-4.4,0-8-3.6-8-8s3.6-8,8-8s8,3.6,8,8
		C200.9,393,197.4,396.5,192.9,396.5"/>
	<path id="path1187_11_" inkscape:connector-curvature="0" class="st14" d="M192.9,396.4c-4.3,0-7.7-3.3-7.7-7.3s3.5-7.3,7.7-7.3
		c4.3,0,7.7,3.3,7.7,7.3S197.2,396.4,192.9,396.4"/>
	<path id="path861_11_" inkscape:connector-curvature="0" class="st23" d="M198.1,389.6c0,2.8-2.3,5.2-5.1,5.2s-5.1-2.3-5.1-5.2
		c0-2.8,2.3-5.2,5.1-5.2S198.1,386.7,198.1,389.6"/>
	<path id="path7265_11_" inkscape:connector-curvature="0" d="M198.1,388.6c0,2.8-2.3,5.1-5.1,5.1s-5.1-2.3-5.1-5.1
		c0-2.8,2.3-5.1,5.1-5.1C195.8,383.4,198.1,385.7,198.1,388.6"/>
</g>
<g id="layer1_32_" transform="translate(-53.216485,-90.5345)" inkscape:groupmode="layer" inkscape:label="Layer 1">
	<path id="path7705_13_" inkscape:connector-curvature="0" d="M160.3,324.5c0-5.5,4.4-9.9,9.9-9.9s9.9,4.4,9.9,9.9s-4.4,9.9-9.9,9.9
		S160.3,330,160.3,324.5"/>
	<path id="path7707_12_" inkscape:connector-curvature="0" class="st25" d="M164.6,324.5c0-3.1,2.5-5.6,5.6-5.6s5.6,2.5,5.6,5.6
		s-2.5,5.6-5.6,5.6S164.6,327.6,164.6,324.5"/>
	<path id="path7711_12_" inkscape:connector-curvature="0" class="st25" d="M169.3,319.2h2v-4.5c-0.4-0.1-0.7-0.1-1.1-0.1
		c-0.3,0-0.6,0-0.9,0V319.2z"/>
</g>
<path class="st3" d="M78.8,182c0,0-42-3.7-60.3,45"/>
<path class="st3" d="M78.8,182c0,0,16.9,54.8-39.8,63.1"/>
<path class="st24" d="M65.8,282.1c0,0-3.8,46-43.1,58"/>
<path class="st24" d="M90,292c0,0-20.1,7.9-24.2,28.5"/>
<path class="st24" d="M234,320.5c-4.1-20.6-24-28.4-24-28.4"/>
<path class="st24" d="M70.4,259.5c0,0,1.5,51.6-51.9,47.5"/>
<path class="st24" d="M70.4,259.5c0,0-19.6,34.2-52,11.6"/>
<g id="layer1_30_" transform="translate(-89.945866,-120.5333)" inkscape:groupmode="layer" inkscape:label="Layer 1">
	<path id="path7255_8_" inkscape:connector-curvature="0" class="st21" d="M105.4,357.8c-5.7,0-10.3-4.6-10.3-10.3
		c0-5.7,4.6-10.3,10.3-10.3c5.7,0,10.3,4.6,10.3,10.3S111,357.8,105.4,357.8"/>
	<path id="path7261_8_" inkscape:connector-curvature="0" class="st22" d="M105.4,355.5c-4.4,0-8-3.6-8-8s3.6-8,8-8s8,3.6,8,8
		C113.4,352,109.9,355.5,105.4,355.5"/>
	<path id="path1187_8_" inkscape:connector-curvature="0" class="st14" d="M105.4,355.4c-4.3,0-7.7-3.3-7.7-7.3s3.5-7.3,7.7-7.3
		c4.3,0,7.7,3.3,7.7,7.3S109.6,355.4,105.4,355.4"/>
	<path id="path861_8_" inkscape:connector-curvature="0" class="st23" d="M110.5,348.6c0,2.8-2.3,5.2-5.1,5.2
		c-2.8,0-5.1-2.3-5.1-5.2c0-2.8,2.3-5.2,5.1-5.2C108.3,343.4,110.5,345.7,110.5,348.6"/>
	<path id="path7265_8_" inkscape:connector-curvature="0" d="M110.5,347.6c0,2.8-2.3,5.1-5.1,5.1s-5.1-2.3-5.1-5.1
		c0-2.8,2.3-5.1,5.1-5.1C108.3,342.4,110.5,344.7,110.5,347.6"/>
</g>
<g id="layer1_29_" transform="translate(-53.216485,-90.5345)" inkscape:groupmode="layer" inkscape:label="Layer 1">
	<path id="path7705_12_" inkscape:connector-curvature="0" d="M137.8,314.1c0,5.5-4.4,9.9-9.9,9.9s-9.9-4.4-9.9-9.9s4.4-9.9,9.9-9.9
		C133.4,304.2,137.8,308.7,137.8,314.1"/>
	<path id="path7707_11_" inkscape:connector-curvature="0" class="st26" d="M133.5,314.1c0,3.1-2.5,5.6-5.6,5.6s-5.6-2.5-5.6-5.6
		s2.5-5.6,5.6-5.6S133.5,311,133.5,314.1"/>
	<path id="path7711_11_" inkscape:connector-curvature="0" class="st26" d="M128.8,304.3c-0.3,0-0.6,0-0.9,0c-0.4,0-0.7,0-1.1,0.1
		v4.5h2V304.3z"/>
</g>
<g id="layer1_31_" transform="translate(-89.945866,-120.5333)" inkscape:groupmode="layer" inkscape:label="Layer 1">
	<path id="path7255_9_" inkscape:connector-curvature="0" class="st21" d="M128.9,375.8c-5.7,0-10.3-4.6-10.3-10.3
		c0-5.7,4.6-10.3,10.3-10.3c5.7,0,10.3,4.6,10.3,10.3S134.5,375.8,128.9,375.8"/>
	<path id="path7261_9_" inkscape:connector-curvature="0" class="st22" d="M128.9,373.5c-4.4,0-8-3.6-8-8s3.6-8,8-8c4.4,0,8,3.6,8,8
		C136.9,370,133.4,373.5,128.9,373.5"/>
	<path id="path1187_9_" inkscape:connector-curvature="0" class="st14" d="M128.9,373.4c-4.3,0-7.7-3.3-7.7-7.3s3.5-7.3,7.7-7.3
		c4.3,0,7.7,3.3,7.7,7.3S133.1,373.4,128.9,373.4"/>
	<path id="path861_9_" inkscape:connector-curvature="0" class="st23" d="M134,366.6c0,2.8-2.3,5.2-5.1,5.2s-5.1-2.3-5.1-5.2
		c0-2.8,2.3-5.2,5.1-5.2C131.8,361.4,134,363.7,134,366.6"/>
	<path id="path7265_9_" inkscape:connector-curvature="0" d="M134,365.6c0,2.8-2.3,5.1-5.1,5.1s-5.1-2.3-5.1-5.1
		c0-2.8,2.3-5.1,5.1-5.1C131.8,360.4,134,362.7,134,365.6"/>
</g>
<g>
	<circle class="st27" cx="65.8" cy="281.9" r="5.5"/>
	<line class="st24" x1="65.8" y1="287.3" x2="65.8" y2="276.4"/>
	<line class="st24" x1="60.3" y1="281.9" x2="71.3" y2="281.9"/>
</g>
<g id="layer1_14_" transform="translate(-53.216485,-90.5345)" inkscape:groupmode="layer" inkscape:label="Layer 1">
	<path id="path7705_7_" inkscape:connector-curvature="0" d="M107.1,418.5c0,5.5-4.4,9.9-9.9,9.9s-9.9-4.4-9.9-9.9s4.4-9.9,9.9-9.9
		S107.1,413,107.1,418.5"/>
	<path id="path7707_7_" inkscape:connector-curvature="0" class="st28" d="M102.8,418.5c0,3.1-2.5,5.6-5.6,5.6s-5.6-2.5-5.6-5.6
		s2.5-5.6,5.6-5.6S102.8,415.4,102.8,418.5"/>
	<path id="path7711_7_" inkscape:connector-curvature="0" class="st28" d="M98.1,408.6c-0.3,0-0.6,0-0.9,0c-0.4,0-0.7,0-1.1,0.1v4.5
		h2V408.6z"/>
</g>
<g id="layer1_37_" transform="translate(-89.945866,-120.5333)" inkscape:groupmode="layer" inkscape:label="Layer 1">
	<path id="path7255_14_" inkscape:connector-curvature="0" class="st21" d="M105.4,469.8c-5.7,0-10.3-4.6-10.3-10.3
		c0-5.7,4.6-10.3,10.3-10.3s10.3,4.6,10.3,10.3S111.1,469.8,105.4,469.8"/>
	<path id="path7261_14_" inkscape:connector-curvature="0" class="st22" d="M105.4,467.5c-4.4,0-8-3.6-8-8s3.6-8,8-8s8,3.6,8,8
		C113.4,464,109.9,467.5,105.4,467.5"/>
	<path id="path1187_14_" inkscape:connector-curvature="0" class="st14" d="M105.4,467.4c-4.3,0-7.7-3.3-7.7-7.3s3.5-7.3,7.7-7.3
		c4.3,0,7.7,3.3,7.7,7.3S109.7,467.4,105.4,467.4"/>
	<path id="path861_14_" inkscape:connector-curvature="0" class="st23" d="M110.6,460.6c0,2.8-2.3,5.2-5.1,5.2s-5.1-2.3-5.1-5.2
		c0-2.8,2.3-5.2,5.1-5.2S110.6,457.7,110.6,460.6"/>
	<path id="path7265_14_" inkscape:connector-curvature="0" d="M110.6,459.6c0,2.8-2.3,5.1-5.1,5.1s-5.1-2.3-5.1-5.1
		c0-2.8,2.3-5.1,5.1-5.1C108.3,454.4,110.6,456.7,110.6,459.6"/>
</g>
<g id="layer1_26_" transform="translate(-53.216485,-90.5345)" inkscape:groupmode="layer" inkscape:label="Layer 1">
	<path id="path7705_8_" inkscape:connector-curvature="0" d="M107.1,393.5c0,5.5-4.4,9.9-9.9,9.9s-9.9-4.4-9.9-9.9s4.4-9.9,9.9-9.9
		S107.1,388,107.1,393.5"/>
	<path id="path7707_8_" inkscape:connector-curvature="0" class="st28" d="M102.8,393.5c0,3.1-2.5,5.6-5.6,5.6s-5.6-2.5-5.6-5.6
		s2.5-5.6,5.6-5.6S102.8,390.4,102.8,393.5"/>
	<path id="path7711_8_" inkscape:connector-curvature="0" class="st28" d="M98.1,383.6c-0.3,0-0.6,0-0.9,0c-0.4,0-0.7,0-1.1,0.1v4.5
		h2V383.6z"/>
</g>
<g id="layer1_35_" transform="translate(-89.945866,-120.5333)" inkscape:groupmode="layer" inkscape:label="Layer 1">
	<path id="path7255_13_" inkscape:connector-curvature="0" class="st21" d="M105.4,437.7c-5.7,0-10.3-4.6-10.3-10.3
		c0-5.7,4.6-10.3,10.3-10.3c5.7,0,10.3,4.6,10.3,10.3S111.1,437.7,105.4,437.7"/>
	<path id="path7261_13_" inkscape:connector-curvature="0" class="st22" d="M105.4,435.4c-4.4,0-8-3.6-8-8s3.6-8,8-8s8,3.6,8,8
		C113.4,431.9,109.9,435.4,105.4,435.4"/>
	<path id="path1187_13_" inkscape:connector-curvature="0" class="st14" d="M105.4,435.3c-4.3,0-7.7-3.3-7.7-7.3s3.5-7.3,7.7-7.3
		c4.3,0,7.7,3.3,7.7,7.3S109.7,435.3,105.4,435.3"/>
	<path id="path861_13_" inkscape:connector-curvature="0" class="st23" d="M110.6,428.5c0,2.8-2.3,5.2-5.1,5.2
		c-2.8,0-5.1-2.3-5.1-5.2c0-2.8,2.3-5.2,5.1-5.2C108.3,423.3,110.6,425.6,110.6,428.5"/>
	<path id="path7265_13_" inkscape:connector-curvature="0" d="M110.6,427.5c0,2.8-2.3,5.1-5.1,5.1c-2.8,0-5.1-2.3-5.1-5.1
		c0-2.8,2.3-5.1,5.1-5.1C108.3,422.3,110.6,424.6,110.6,427.5"/>
</g>
<g id="layer1_23_" transform="translate(-53.216485,-90.5345)" inkscape:groupmode="layer" inkscape:label="Layer 1">
	<path id="path7705_9_" inkscape:connector-curvature="0" d="M107.1,368.5c0,5.5-4.4,9.9-9.9,9.9s-9.9-4.4-9.9-9.9s4.4-9.9,9.9-9.9
		S107.1,363,107.1,368.5"/>
	<path id="path7707_9_" inkscape:connector-curvature="0" class="st28" d="M102.8,368.5c0,3.1-2.5,5.6-5.6,5.6s-5.6-2.5-5.6-5.6
		s2.5-5.6,5.6-5.6S102.8,365.4,102.8,368.5"/>
	<path id="path7711_9_" inkscape:connector-curvature="0" class="st28" d="M98.1,358.6c-0.3,0-0.6,0-0.9,0c-0.4,0-0.7,0-1.1,0.1v4.5
		h2V358.6z"/>
</g>
<g id="layer1_20_" transform="translate(-89.945866,-120.5333)" inkscape:groupmode="layer" inkscape:label="Layer 1">
	<path id="path7255_5_" inkscape:connector-curvature="0" class="st21" d="M105.4,401.8c-5.7,0-10.3-4.6-10.3-10.3
		c0-5.7,4.6-10.3,10.3-10.3s10.3,4.6,10.3,10.3S111.1,401.8,105.4,401.8"/>
	<path id="path7261_5_" inkscape:connector-curvature="0" class="st22" d="M105.4,399.5c-4.4,0-8-3.6-8-8s3.6-8,8-8s8,3.6,8,8
		C113.4,396,109.9,399.5,105.4,399.5"/>
	<path id="path1187_5_" inkscape:connector-curvature="0" class="st14" d="M105.4,399.4c-4.3,0-7.7-3.3-7.7-7.3s3.5-7.3,7.7-7.3
		c4.3,0,7.7,3.3,7.7,7.3S109.7,399.4,105.4,399.4"/>
	<path id="path861_5_" inkscape:connector-curvature="0" class="st23" d="M110.6,392.6c0,2.8-2.3,5.2-5.1,5.2s-5.1-2.3-5.1-5.2
		c0-2.8,2.3-5.2,5.1-5.2S110.6,389.7,110.6,392.6"/>
	<path id="path7265_5_" inkscape:connector-curvature="0" d="M110.6,391.6c0,2.8-2.3,5.1-5.1,5.1s-5.1-2.3-5.1-5.1
		c0-2.8,2.3-5.1,5.1-5.1C108.3,386.4,110.6,388.7,110.6,391.6"/>
</g>
<g id="layer1_72_" transform="translate(-89.945866,-120.5333)" inkscape:groupmode="layer" inkscape:label="Layer 1">
	<path id="path7255_33_" inkscape:connector-curvature="0" class="st21" d="M299.9,422.8c-5.7,0-10.3-4.6-10.3-10.3
		c0-5.7,4.6-10.3,10.3-10.3c5.7,0,10.3,4.6,10.3,10.3S305.6,422.8,299.9,422.8"/>
	<path id="path7261_33_" inkscape:connector-curvature="0" class="st22" d="M299.9,420.5c-4.4,0-8-3.6-8-8s3.6-8,8-8s8,3.6,8,8
		C307.9,417,304.4,420.5,299.9,420.5"/>
	<path id="path1187_33_" inkscape:connector-curvature="0" class="st14" d="M299.9,420.4c-4.3,0-7.7-3.3-7.7-7.3s3.5-7.3,7.7-7.3
		c4.3,0,7.7,3.3,7.7,7.3S304.2,420.4,299.9,420.4"/>
	<path id="path861_33_" inkscape:connector-curvature="0" class="st23" d="M305.1,413.6c0,2.8-2.3,5.2-5.1,5.2
		c-2.8,0-5.1-2.3-5.1-5.2c0-2.8,2.3-5.2,5.1-5.2C302.8,408.4,305.1,410.7,305.1,413.6"/>
	<path id="path7265_33_" inkscape:connector-curvature="0" d="M305.1,412.6c0,2.8-2.3,5.1-5.1,5.1c-2.8,0-5.1-2.3-5.1-5.1
		c0-2.8,2.3-5.1,5.1-5.1C302.8,407.4,305.1,409.7,305.1,412.6"/>
</g>
<text transform="matrix(1 0 0 1 200.0559 313.8968)" class="st6 st7 st9">Sync</text>
<text transform="matrix(1 0 0 1 141.8651 275.9152)" class="st6 st7 st9">Trig</text>
<g>
	<circle class="st27" cx="70.4" cy="259.5" r="5.5"/>
	<line class="st24" x1="74.3" y1="263.4" x2="66.5" y2="255.6"/>
	<line class="st24" x1="66.5" y1="263.4" x2="74.3" y2="255.6"/>
</g>
<path class="st24" d="M277,340c-39.3-12-43.1-58-43.1-58"/>
<path class="st24" d="M281.2,306.9c-53.4,4.1-51.9-47.5-51.9-47.5"/>
<path class="st24" d="M281.3,271c-32.4,22.6-52-11.6-52-11.6"/>
<g>
	<circle class="st27" cx="233.9" cy="281.8" r="5.5"/>
	<line class="st24" x1="233.9" y1="276.3" x2="233.9" y2="287.2"/>
	<line class="st24" x1="228.4" y1="281.8" x2="239.4" y2="281.8"/>
</g>
<g id="layer1_65_" transform="translate(-53.216485,-90.5345)" inkscape:groupmode="layer" inkscape:label="Layer 1">
	<path id="path7705_26_" inkscape:connector-curvature="0" d="M299,418.6c0-5.5,4.4-9.9,9.9-9.9s9.9,4.4,9.9,9.9s-4.4,9.9-9.9,9.9
		S299,424.1,299,418.6"/>
	<path id="path7707_34_" inkscape:connector-curvature="0" class="st28" d="M303.3,418.6c0-3.1,2.5-5.6,5.6-5.6s5.6,2.5,5.6,5.6
		s-2.5,5.6-5.6,5.6S303.3,421.7,303.3,418.6"/>
	<path id="path7711_34_" inkscape:connector-curvature="0" class="st28" d="M308,413.3h2v-4.5c-0.4-0.1-0.7-0.1-1.1-0.1
		c-0.3,0-0.6,0-0.9,0V413.3z"/>
</g>
<g id="layer1_64_" transform="translate(-89.945866,-120.5333)" inkscape:groupmode="layer" inkscape:label="Layer 1">
	<path id="path7255_30_" inkscape:connector-curvature="0" class="st21" d="M374.4,470.3c-5.7,0-10.3-4.6-10.3-10.3
		s4.6-10.3,10.3-10.3s10.3,4.6,10.3,10.3C384.7,465.7,380.1,470.3,374.4,470.3"/>
	<path id="path7261_30_" inkscape:connector-curvature="0" class="st22" d="M374.4,468c-4.5,0-8-3.5-8-8c0-4.4,3.6-8,8-8s8,3.6,8,8
		S378.8,468,374.4,468"/>
	<path id="path1187_30_" inkscape:connector-curvature="0" class="st14" d="M374.4,467.9c-4.3,0-7.7-3.3-7.7-7.3s3.4-7.3,7.7-7.3
		c4.2,0,7.7,3.3,7.7,7.3S378.7,467.9,374.4,467.9"/>
	<path id="path861_30_" inkscape:connector-curvature="0" class="st23" d="M369.2,461.1c0-2.9,2.3-5.2,5.1-5.2
		c2.8,0,5.1,2.4,5.1,5.2c0,2.9-2.3,5.2-5.1,5.2C371.5,466.3,369.2,463.9,369.2,461.1"/>
	<path id="path7265_30_" inkscape:connector-curvature="0" d="M369.2,460.1c0-2.9,2.3-5.2,5.1-5.1c2.8,0,5.1,2.3,5.1,5.1
		c0,2.8-2.3,5.1-5.1,5.1S369.2,462.9,369.2,460.1"/>
</g>
<g id="layer1_63_" transform="translate(-53.216485,-90.5345)" inkscape:groupmode="layer" inkscape:label="Layer 1">
	<path id="path7705_25_" inkscape:connector-curvature="0" d="M299,393.5c0-5.5,4.4-9.9,9.9-9.9s9.9,4.4,9.9,9.9s-4.4,9.9-9.9,9.9
		S299,399,299,393.5"/>
	<path id="path7707_32_" inkscape:connector-curvature="0" class="st28" d="M303.3,393.5c0-3.1,2.5-5.6,5.6-5.6s5.6,2.5,5.6,5.6
		s-2.5,5.6-5.6,5.6S303.3,396.6,303.3,393.5"/>
	<path id="path7711_32_" inkscape:connector-curvature="0" class="st28" d="M308,388.2h2v-4.5c-0.4-0.1-0.7-0.1-1.1-0.1
		c-0.3,0-0.6,0-0.9,0V388.2z"/>
</g>
<g id="layer1_61_" transform="translate(-89.945866,-120.5333)" inkscape:groupmode="layer" inkscape:label="Layer 1">
	<path id="path7255_29_" inkscape:connector-curvature="0" class="st21" d="M374.4,437.7c-5.7,0-10.3-4.6-10.3-10.3
		s4.6-10.3,10.3-10.3s10.3,4.6,10.3,10.3S380.1,437.7,374.4,437.7"/>
	<path id="path7261_29_" inkscape:connector-curvature="0" class="st22" d="M374.4,435.4c-4.5,0-8-3.5-8-8c0-4.4,3.6-8,8-8
		s8,3.6,8,8S378.8,435.4,374.4,435.4"/>
	<path id="path1187_29_" inkscape:connector-curvature="0" class="st14" d="M374.4,435.3c-4.3,0-7.7-3.3-7.7-7.3s3.4-7.3,7.7-7.3
		c4.2,0,7.7,3.3,7.7,7.3S378.7,435.3,374.4,435.3"/>
	<path id="path861_29_" inkscape:connector-curvature="0" class="st23" d="M369.2,428.5c0-2.9,2.3-5.2,5.1-5.2s5.1,2.4,5.1,5.2
		c0,2.9-2.3,5.2-5.1,5.2S369.2,431.3,369.2,428.5"/>
	<path id="path7265_29_" inkscape:connector-curvature="0" d="M369.2,427.5c0-2.9,2.3-5.2,5.1-5.1c2.8,0,5.1,2.3,5.1,5.1
		c0,2.8-2.3,5.1-5.1,5.1S369.2,430.3,369.2,427.5"/>
</g>
<g id="layer1_60_" transform="translate(-53.216485,-90.5345)" inkscape:groupmode="layer" inkscape:label="Layer 1">
	<path id="path7705_24_" inkscape:connector-curvature="0" d="M299.3,368.5c0-5.5,4.4-9.9,9.9-9.9s9.9,4.4,9.9,9.9s-4.4,9.9-9.9,9.9
		S299.3,374,299.3,368.5"/>
	<path id="path7707_14_" inkscape:connector-curvature="0" class="st28" d="M303.6,368.5c0-3.1,2.5-5.6,5.6-5.6s5.6,2.5,5.6,5.6
		s-2.5,5.6-5.6,5.6S303.6,371.6,303.6,368.5"/>
	<path id="path7711_14_" inkscape:connector-curvature="0" class="st28" d="M308.3,363.2h2v-4.5c-0.4-0.1-0.7-0.1-1.1-0.1
		c-0.3,0-0.6,0-0.9,0V363.2z"/>
</g>
<g id="layer1_59_" transform="translate(-89.945866,-120.5333)" inkscape:groupmode="layer" inkscape:label="Layer 1">
	<path id="path7255_27_" inkscape:connector-curvature="0" class="st21" d="M374.4,401.8c-5.7,0-10.3-4.6-10.3-10.3
		s4.6-10.3,10.3-10.3c5.7,0,10.3,4.6,10.3,10.3C384.7,397.2,380.1,401.8,374.4,401.8"/>
	<path id="path7261_27_" inkscape:connector-curvature="0" class="st22" d="M374.4,399.5c-4.5,0-8-3.5-8-8c0-4.4,3.6-8,8-8
		s8,3.6,8,8S378.8,399.5,374.4,399.5"/>
	<path id="path1187_27_" inkscape:connector-curvature="0" class="st14" d="M374.4,399.4c-4.3,0-7.7-3.3-7.7-7.3s3.4-7.3,7.7-7.3
		c4.2,0,7.7,3.3,7.7,7.3S378.7,399.4,374.4,399.4"/>
	<path id="path861_27_" inkscape:connector-curvature="0" class="st23" d="M369.2,392.6c0-2.9,2.3-5.2,5.1-5.2s5.1,2.4,5.1,5.2
		c0,2.9-2.3,5.2-5.1,5.2S369.2,395.4,369.2,392.6"/>
	<path id="path7265_27_" inkscape:connector-curvature="0" d="M369.2,391.6c0-2.9,2.3-5.2,5.1-5.1c2.8,0,5.1,2.3,5.1,5.1
		c0,2.8-2.3,5.1-5.1,5.1S369.2,394.4,369.2,391.6"/>
</g>
<g>
	<circle class="st27" cx="229.3" cy="259.4" r="5.5"/>
	<line class="st24" x1="233.2" y1="255.5" x2="225.4" y2="263.3"/>
	<line class="st24" x1="225.4" y1="255.5" x2="233.2" y2="263.3"/>
</g>
<path class="st1" d="M123.8,276.1C123.8,261,135,254,135,254v15.2c0,2.1,1.7,3.7,3.7,3.7"/>
<g id="layer1_67_" transform="translate(-46.755712,-68.824694)" inkscape:groupmode="layer" inkscape:label="Layer 1">
	<path id="path2706_1_" class="st29" d="M177.3,344.9c0,3.7-3,6.7-6.7,6.7l0,0c-3.7,0-6.7-3-6.7-6.7l0,0c0-3.7,3-6.7,6.7-6.7l0,0
		C174.3,338.2,177.3,341.2,177.3,344.9L177.3,344.9z"/>
</g>
<g id="layer1_45_" transform="translate(-46.755712,-68.824694)" inkscape:groupmode="layer" inkscape:label="Layer 1">
	<path id="path2706_4_" class="st29" d="M119.3,389.3c0,3.7-3,6.7-6.7,6.7l0,0c-3.7,0-6.7-3-6.7-6.7l0,0c0-3.7,3-6.7,6.7-6.7l0,0
		C116.3,382.6,119.3,385.6,119.3,389.3L119.3,389.3z"/>
</g>
<g id="layer1_38_" transform="translate(-89.945866,-120.5333)" inkscape:groupmode="layer" inkscape:label="Layer 1">
	<path id="path7255_18_" inkscape:connector-curvature="0" class="st21" d="M224.9,384.8c-5.7,0-10.3-4.6-10.3-10.3
		c0-5.7,4.6-10.3,10.3-10.3s10.3,4.6,10.3,10.3S230.6,384.8,224.9,384.8"/>
	<path id="path7261_18_" inkscape:connector-curvature="0" class="st22" d="M224.9,382.5c-4.4,0-8-3.6-8-8s3.6-8,8-8s8,3.6,8,8
		C232.9,379,229.4,382.5,224.9,382.5"/>
	<path id="path1187_18_" inkscape:connector-curvature="0" class="st14" d="M224.9,382.4c-4.3,0-7.7-3.3-7.7-7.3s3.5-7.3,7.7-7.3
		c4.3,0,7.7,3.3,7.7,7.3S229.2,382.4,224.9,382.4"/>
	<path id="path861_18_" inkscape:connector-curvature="0" class="st23" d="M230.1,375.6c0,2.8-2.3,5.2-5.1,5.2s-5.1-2.3-5.1-5.2
		c0-2.8,2.3-5.2,5.1-5.2S230.1,372.7,230.1,375.6"/>
	<path id="path7265_18_" inkscape:connector-curvature="0" d="M230.1,374.6c0,2.8-2.3,5.1-5.1,5.1s-5.1-2.3-5.1-5.1
		c0-2.8,2.3-5.1,5.1-5.1C227.8,369.4,230.1,371.7,230.1,374.6"/>
</g>
<path class="st1" d="M176.1,276.1C176.1,261,165,254,165,254v15.2c0,2.1-1.7,3.7-3.7,3.7"/>
<g id="layer1_58_" transform="translate(-89.945866,-120.5333)" inkscape:groupmode="layer" inkscape:label="Layer 1">
	<path id="path7255_26_" inkscape:connector-curvature="0" class="st21" d="M254.9,384.8c-5.7,0-10.3-4.6-10.3-10.3
		c0-5.7,4.6-10.3,10.3-10.3c5.7,0,10.3,4.6,10.3,10.3S260.6,384.8,254.9,384.8"/>
	<path id="path7261_26_" inkscape:connector-curvature="0" class="st22" d="M254.9,382.5c-4.4,0-8-3.6-8-8s3.6-8,8-8s8,3.6,8,8
		C262.9,379,259.4,382.5,254.9,382.5"/>
	<path id="path1187_26_" inkscape:connector-curvature="0" class="st14" d="M254.9,382.4c-4.3,0-7.7-3.3-7.7-7.3s3.5-7.3,7.7-7.3
		c4.3,0,7.7,3.3,7.7,7.3S259.2,382.4,254.9,382.4"/>
	<path id="path861_26_" inkscape:connector-curvature="0" class="st23" d="M260.1,375.6c0,2.8-2.3,5.2-5.1,5.2
		c-2.8,0-5.1-2.3-5.1-5.2c0-2.8,2.3-5.2,5.1-5.2C257.8,370.4,260.1,372.7,260.1,375.6"/>
	<path id="path7265_26_" inkscape:connector-curvature="0" d="M260.1,374.6c0,2.8-2.3,5.1-5.1,5.1c-2.8,0-5.1-2.3-5.1-5.1
		c0-2.8,2.3-5.1,5.1-5.1C257.8,369.4,260.1,371.7,260.1,374.6"/>
</g>
<g id="layer1_73_" transform="translate(-46.755712,-68.824694)" inkscape:groupmode="layer" inkscape:label="Layer 1">
	<path id="path2706_2_" class="st29" d="M216.2,344.9c0-3.7,3-6.7,6.7-6.7l0,0c3.7,0,6.7,3,6.7,6.7l0,0c0,3.7-3,6.7-6.7,6.7l0,0
		C219.2,351.6,216.2,348.6,216.2,344.9L216.2,344.9z"/>
</g>
<g id="layer1_11_" transform="translate(-89.945866,-120.5333)" inkscape:groupmode="layer" inkscape:label="Layer 1">
	<path id="path7255_1_" inkscape:connector-curvature="0" class="st21" d="M105.4,170.8c-5.7,0-10.3-4.6-10.3-10.3
		s4.6-10.3,10.3-10.3s10.3,4.6,10.3,10.3S111.1,170.8,105.4,170.8"/>
	<path id="path7261_1_" inkscape:connector-curvature="0" class="st22" d="M105.4,168.5c-4.4,0-8-3.6-8-8s3.6-8,8-8s8,3.6,8,8
		C113.4,165,109.9,168.5,105.4,168.5"/>
	<path id="path1187_1_" inkscape:connector-curvature="0" class="st14" d="M105.4,168.4c-4.3,0-7.7-3.3-7.7-7.3s3.5-7.3,7.7-7.3
		s7.7,3.3,7.7,7.3S109.7,168.4,105.4,168.4"/>
	<path id="path861_1_" inkscape:connector-curvature="0" class="st23" d="M110.6,161.6c0,2.8-2.3,5.2-5.1,5.2
		c-2.8,0-5.1-2.3-5.1-5.2c0-2.8,2.3-5.2,5.1-5.2S110.6,158.7,110.6,161.6"/>
	<path id="path7265_1_" inkscape:connector-curvature="0" d="M110.6,160.6c0,2.8-2.3,5.1-5.1,5.1c-2.8,0-5.1-2.3-5.1-5.1
		s2.3-5.1,5.1-5.1S110.6,157.7,110.6,160.6"/>
</g>
<g id="layer1_36_" transform="translate(-89.945866,-120.5333)" inkscape:groupmode="layer" inkscape:label="Layer 1">
	<path id="path7255_12_" inkscape:connector-curvature="0" class="st21" d="M374.4,170.8c-5.7,0-10.3-4.6-10.3-10.3
		s4.6-10.3,10.3-10.3s10.3,4.6,10.3,10.3S380.1,170.8,374.4,170.8"/>
	<path id="path7261_12_" inkscape:connector-curvature="0" class="st22" d="M374.4,168.5c-4.4,0-8-3.6-8-8s3.6-8,8-8s8,3.6,8,8
		C382.4,165,378.9,168.5,374.4,168.5"/>
	<path id="path1187_12_" inkscape:connector-curvature="0" class="st14" d="M374.4,168.4c-4.3,0-7.7-3.3-7.7-7.3s3.5-7.3,7.7-7.3
		s7.7,3.3,7.7,7.3S378.7,168.4,374.4,168.4"/>
	<path id="path861_12_" inkscape:connector-curvature="0" class="st23" d="M379.6,161.6c0,2.8-2.3,5.2-5.1,5.2
		c-2.8,0-5.1-2.3-5.1-5.2c0-2.8,2.3-5.2,5.1-5.2S379.6,158.7,379.6,161.6"/>
	<path id="path7265_12_" inkscape:connector-curvature="0" d="M379.6,160.6c0,2.8-2.3,5.1-5.1,5.1c-2.8,0-5.1-2.3-5.1-5.1
		s2.3-5.1,5.1-5.1S379.6,157.7,379.6,160.6"/>
</g>
<g id="layer1_66_" transform="translate(-89.945866,-120.5333)" inkscape:groupmode="layer" inkscape:label="Layer 1">
	<path id="path7255_34_" inkscape:connector-curvature="0" class="st21" d="M374.4,231.8c-5.7,0-10.3-4.6-10.3-10.3
		s4.6-10.3,10.3-10.3s10.3,4.6,10.3,10.3S380.1,231.8,374.4,231.8"/>
	<path id="path7261_34_" inkscape:connector-curvature="0" class="st22" d="M374.4,229.5c-4.5,0-8-3.5-8-8c0-4.4,3.6-8,8-8
		s8,3.6,8,8S378.8,229.5,374.4,229.5"/>
	<path id="path1187_34_" inkscape:connector-curvature="0" class="st14" d="M374.4,229.4c-4.3,0-7.7-3.3-7.7-7.3s3.4-7.3,7.7-7.3
		c4.2,0,7.7,3.3,7.7,7.3S378.7,229.4,374.4,229.4"/>
	<path id="path861_34_" inkscape:connector-curvature="0" class="st23" d="M369.2,222.6c0-2.9,2.3-5.2,5.1-5.2
		c2.8,0,5.1,2.4,5.1,5.2c0,2.9-2.3,5.2-5.1,5.2S369.2,225.4,369.2,222.6"/>
	<path id="path7265_34_" inkscape:connector-curvature="0" d="M369.2,221.6c0-2.9,2.3-5.2,5.1-5.1c2.8,0,5.1,2.3,5.1,5.1
		s-2.3,5.1-5.1,5.1S369.2,224.4,369.2,221.6"/>
</g>
<g id="layer1_57_" transform="translate(-89.945866,-120.5333)" inkscape:groupmode="layer" inkscape:label="Layer 1">
	<path id="path7255_32_" inkscape:connector-curvature="0" class="st21" d="M374.4,205.8c-5.7,0-10.3-4.6-10.3-10.3
		s4.6-10.3,10.3-10.3s10.3,4.6,10.3,10.3S380.1,205.8,374.4,205.8"/>
	<path id="path7261_32_" inkscape:connector-curvature="0" class="st22" d="M374.4,203.5c-4.5,0-8-3.5-8-8c0-4.4,3.6-8,8-8
		s8,3.6,8,8S378.8,203.5,374.4,203.5"/>
	<path id="path1187_32_" inkscape:connector-curvature="0" class="st14" d="M374.4,203.4c-4.3,0-7.7-3.3-7.7-7.3s3.4-7.3,7.7-7.3
		c4.2,0,7.7,3.3,7.7,7.3S378.7,203.4,374.4,203.4"/>
	<path id="path861_32_" inkscape:connector-curvature="0" class="st23" d="M369.2,196.6c0-2.9,2.3-5.2,5.1-5.2
		c2.8,0,5.1,2.4,5.1,5.2c0,2.9-2.3,5.2-5.1,5.2S369.2,199.4,369.2,196.6"/>
	<path id="path7265_32_" inkscape:connector-curvature="0" d="M369.2,195.6c0-2.9,2.3-5.2,5.1-5.1c2.8,0,5.1,2.3,5.1,5.1
		s-2.3,5.1-5.1,5.1S369.2,198.4,369.2,195.6"/>
</g>
<g id="layer1_56_" transform="translate(-89.945866,-120.5333)" inkscape:groupmode="layer" inkscape:label="Layer 1">
	<path id="path7255_31_" inkscape:connector-curvature="0" class="st21" d="M302.9,375.8c-5.7,0-10.3-4.6-10.3-10.3
		s4.6-10.3,10.3-10.3c5.7,0,10.3,4.6,10.3,10.3C313.2,371.2,308.6,375.8,302.9,375.8"/>
	<path id="path7261_31_" inkscape:connector-curvature="0" class="st22" d="M302.9,373.5c-4.5,0-8-3.5-8-8c0-4.4,3.6-8,8-8
		s8,3.6,8,8S307.3,373.5,302.9,373.5"/>
	<path id="path1187_31_" inkscape:connector-curvature="0" class="st14" d="M302.9,373.4c-4.3,0-7.7-3.3-7.7-7.3s3.4-7.3,7.7-7.3
		c4.2,0,7.7,3.3,7.7,7.3S307.2,373.4,302.9,373.4"/>
	<path id="path861_31_" inkscape:connector-curvature="0" class="st23" d="M297.7,366.6c0-2.9,2.3-5.2,5.1-5.2
		c2.8,0,5.1,2.4,5.1,5.2c0,2.9-2.3,5.2-5.1,5.2C300,371.8,297.7,369.4,297.7,366.6"/>
	<path id="path7265_31_" inkscape:connector-curvature="0" d="M297.7,365.6c0-2.9,2.3-5.2,5.1-5.1c2.8,0,5.1,2.3,5.1,5.1
		c0,2.8-2.3,5.1-5.1,5.1S297.7,368.4,297.7,365.6"/>
</g>
<g id="layer1_53_" transform="translate(-89.945866,-120.5333)" inkscape:groupmode="layer" inkscape:label="Layer 1">
	<path id="path7255_25_" inkscape:connector-curvature="0" class="st21" d="M286.9,398.8c-5.7,0-10.3-4.6-10.3-10.3
		s4.6-10.3,10.3-10.3c5.7,0,10.3,4.6,10.3,10.3S292.6,398.8,286.9,398.8"/>
	<path id="path7261_25_" inkscape:connector-curvature="0" class="st22" d="M286.9,396.5c-4.5,0-8-3.5-8-8c0-4.4,3.6-8,8-8
		s8,3.6,8,8S291.3,396.5,286.9,396.5"/>
	<path id="path1187_25_" inkscape:connector-curvature="0" class="st14" d="M286.9,396.4c-4.3,0-7.7-3.3-7.7-7.3s3.4-7.3,7.7-7.3
		c4.2,0,7.7,3.3,7.7,7.3S291.2,396.4,286.9,396.4"/>
	<path id="path861_25_" inkscape:connector-curvature="0" class="st23" d="M281.7,389.6c0-2.9,2.3-5.2,5.1-5.2
		c2.8,0,5.1,2.4,5.1,5.2c0,2.9-2.3,5.2-5.1,5.2C284,394.8,281.7,392.4,281.7,389.6"/>
	<path id="path7265_25_" inkscape:connector-curvature="0" d="M281.7,388.6c0-2.9,2.3-5.2,5.1-5.1c2.8,0,5.1,2.3,5.1,5.1
		c0,2.8-2.3,5.1-5.1,5.1S281.7,391.4,281.7,388.6"/>
</g>
<g id="layer1_47_" transform="translate(-53.216485,-90.5345)" inkscape:groupmode="layer" inkscape:label="Layer 1">
	<path id="path7705_19_" inkscape:connector-curvature="0" d="M246.1,324.5c0,5.5-4.4,9.9-9.9,9.9s-9.9-4.4-9.9-9.9s4.4-9.9,9.9-9.9
		S246.1,319,246.1,324.5"/>
	<path id="path7707_22_" inkscape:connector-curvature="0" class="st25" d="M241.8,324.5c0,3.1-2.5,5.6-5.6,5.6s-5.6-2.5-5.6-5.6
		s2.5-5.6,5.6-5.6S241.8,321.4,241.8,324.5"/>
	<path id="path7711_22_" inkscape:connector-curvature="0" class="st25" d="M237.1,314.6c-0.3,0-0.6,0-0.9,0c-0.4,0-0.7,0-1.1,0.1
		v4.5h2V314.6z"/>
</g>
<g id="layer1_42_" transform="translate(-89.945866,-120.5333)" inkscape:groupmode="layer" inkscape:label="Layer 1">
	<path id="path7255_24_" inkscape:connector-curvature="0" class="st21" d="M374.4,263.8c-5.6,0-10.3-4.6-10.3-10.3
		s4.6-10.3,10.3-10.3s10.3,4.6,10.3,10.3C384.7,259.2,380.1,263.8,374.4,263.8"/>
	<path id="path7261_24_" inkscape:connector-curvature="0" class="st22" d="M374.4,261.5c-4.5,0-8-3.5-8-8c0-4.4,3.6-8,8-8
		s8,3.6,8,8S378.8,261.5,374.4,261.5"/>
	<path id="path1187_24_" inkscape:connector-curvature="0" class="st14" d="M374.4,261.4c-4.2,0-7.7-3.3-7.7-7.3s3.4-7.3,7.7-7.3
		c4.2,0,7.7,3.3,7.7,7.3C382.1,258.1,378.7,261.4,374.4,261.4"/>
	<path id="path861_24_" inkscape:connector-curvature="0" class="st23" d="M369.2,254.6c0-2.9,2.3-5.2,5.1-5.2s5.1,2.4,5.1,5.2
		c0,2.9-2.3,5.2-5.1,5.2C371.5,259.8,369.2,257.4,369.2,254.6"/>
	<path id="path7265_24_" inkscape:connector-curvature="0" d="M369.2,253.6c0-2.9,2.3-5.2,5.1-5.1c3.5,0,6.2,3.6,4.6,7.3
		c-0.4,1-1.3,1.9-2.4,2.4C372.8,259.8,369.2,257.1,369.2,253.6"/>
</g>
<path class="st3" d="M281.2,227c-18.3-48.7-60.3-45-60.3-45"/>
<path class="st3" d="M260.7,245.1c-56.7-8.3-39.8-63.1-39.8-63.1"/>
<g id="layer1_17_" transform="translate(-89.945866,-120.5333)" inkscape:groupmode="layer" inkscape:label="Layer 1">
	<path id="path7255_22_" inkscape:connector-curvature="0" class="st21" d="M374.4,357.8c-5.6,0-10.3-4.6-10.3-10.3
		s4.6-10.3,10.3-10.3s10.3,4.6,10.3,10.3C384.7,353.2,380.1,357.8,374.4,357.8"/>
	<path id="path7261_22_" inkscape:connector-curvature="0" class="st22" d="M374.4,355.5c-4.5,0-8-3.5-8-8c0-4.4,3.6-8,8-8
		s8,3.6,8,8S378.8,355.5,374.4,355.5"/>
	<path id="path1187_22_" inkscape:connector-curvature="0" class="st14" d="M374.4,355.4c-4.2,0-7.7-3.3-7.7-7.3s3.4-7.3,7.7-7.3
		c4.2,0,7.7,3.3,7.7,7.3S378.7,355.4,374.4,355.4"/>
	<path id="path861_22_" inkscape:connector-curvature="0" class="st23" d="M369.3,348.6c0-2.9,2.2-5.2,5.1-5.2
		c2.8,0,5.1,2.4,5.1,5.2c0,2.9-2.3,5.2-5.1,5.2S369.3,351.4,369.3,348.6"/>
	<path id="path7265_22_" inkscape:connector-curvature="0" d="M369.3,347.6c0-2.9,2.2-5.2,5.1-5.1c2.8,0,5.1,2.3,5.1,5.1
		c0,2.8-2.3,5.1-5.1,5.1S369.3,350.4,369.3,347.6"/>
</g>
<g id="layer1_8_" transform="translate(-53.216485,-90.5345)" inkscape:groupmode="layer" inkscape:label="Layer 1">
	<path id="path7705_6_" inkscape:connector-curvature="0" d="M268.3,314.1c0-5.4,4.4-9.9,9.9-9.9s9.9,4.4,9.9,9.9s-4.4,9.9-9.9,9.9
		S268.3,319.6,268.3,314.1"/>
	<path id="path7707_13_" inkscape:connector-curvature="0" class="st26" d="M272.6,314.1c0-3.1,2.5-5.6,5.6-5.6s5.6,2.5,5.6,5.6
		s-2.5,5.6-5.6,5.6S272.6,317.2,272.6,314.1"/>
	<path id="path7711_13_" inkscape:connector-curvature="0" class="st26" d="M277.3,308.9h2v-4.5c-0.4-0.1-0.7-0.1-1.1-0.1
		c-0.3,0-0.6,0-0.9,0V308.9z"/>
</g>
<g id="layer1_5_" transform="translate(-89.945866,-120.5333)" inkscape:groupmode="layer" inkscape:label="Layer 1">
	<path id="path7255_4_" inkscape:connector-curvature="0" class="st21" d="M350.9,375.8c-5.6,0-10.3-4.6-10.3-10.3
		s4.6-10.3,10.3-10.3c5.7,0,10.3,4.6,10.3,10.3C361.2,371.2,356.6,375.8,350.9,375.8"/>
	<path id="path7261_4_" inkscape:connector-curvature="0" class="st22" d="M350.9,373.5c-4.5,0-8-3.5-8-8c0-4.4,3.6-8,8-8s8,3.6,8,8
		S355.3,373.5,350.9,373.5"/>
	<path id="path1187_4_" inkscape:connector-curvature="0" class="st14" d="M350.9,373.4c-4.2,0-7.7-3.3-7.7-7.3s3.4-7.3,7.7-7.3
		c4.2,0,7.7,3.3,7.7,7.3S355.2,373.4,350.9,373.4"/>
	<path id="path861_4_" inkscape:connector-curvature="0" class="st23" d="M345.8,366.6c0-2.9,2.2-5.2,5.1-5.2c2.8,0,5.1,2.4,5.1,5.2
		c0,2.9-2.3,5.2-5.1,5.2C348.1,371.8,345.8,369.4,345.8,366.6"/>
	<path id="path7265_4_" inkscape:connector-curvature="0" d="M345.8,365.6c0-2.9,2.2-5.2,5.1-5.1c2.8,0,5.1,2.3,5.1,5.1
		c0,2.8-2.3,5.1-5.1,5.1S345.8,368.4,345.8,365.6"/>
</g>
<text transform="matrix(1 0 0 1 224.7775 336.0663)" class="st6 st7 st10">Weak</text>
<g id="layer1_71_" transform="translate(-46.755712,-68.824694)" inkscape:groupmode="layer" inkscape:label="Layer 1">
	<path id="path2706_5_" class="st29" d="M274.1,389.3c0-3.7,3-6.7,6.7-6.7l0,0c3.7,0,6.7,3,6.7,6.7l0,0c0,3.7-3,6.7-6.7,6.7l0,0
		C277.1,396,274.1,393,274.1,389.3L274.1,389.3z"/>
</g>
<g id="layer1_39_" transform="translate(-89.945866,-120.5333)" inkscape:groupmode="layer" inkscape:label="Layer 1">
	<path id="path7255_19_" inkscape:connector-curvature="0" class="st21" d="M179.9,422.8c-5.7,0-10.3-4.6-10.3-10.3
		c0-5.7,4.6-10.3,10.3-10.3s10.3,4.6,10.3,10.3S185.6,422.8,179.9,422.8"/>
	<path id="path7261_19_" inkscape:connector-curvature="0" class="st22" d="M179.9,420.5c-4.4,0-8-3.6-8-8s3.6-8,8-8s8,3.6,8,8
		C187.9,417,184.4,420.5,179.9,420.5"/>
	<path id="path1187_19_" inkscape:connector-curvature="0" class="st14" d="M179.9,420.4c-4.3,0-7.7-3.3-7.7-7.3s3.5-7.3,7.7-7.3
		c4.3,0,7.7,3.3,7.7,7.3S184.2,420.4,179.9,420.4"/>
	<path id="path861_19_" inkscape:connector-curvature="0" class="st23" d="M185.1,413.6c0,2.8-2.3,5.2-5.1,5.2s-5.1-2.3-5.1-5.2
		c0-2.8,2.3-5.2,5.1-5.2S185.1,410.7,185.1,413.6"/>
	<path id="path7265_19_" inkscape:connector-curvature="0" d="M185.1,412.6c0,2.8-2.3,5.1-5.1,5.1s-5.1-2.3-5.1-5.1
		c0-2.8,2.3-5.1,5.1-5.1C182.8,407.4,185.1,409.7,185.1,412.6"/>
</g>
<text transform="matrix(1 0 0 1 80.0559 313.8968)" class="st6 st7 st9">Sync</text>
<g id="layer1_18_" transform="translate(-89.945866,-120.5333)" inkscape:groupmode="layer" inkscape:label="Layer 1">
	<path id="path7255_23_" inkscape:connector-curvature="0" class="st21" d="M374.4,301.8c-5.6,0-10.3-4.6-10.3-10.3
		s4.6-10.3,10.3-10.3s10.3,4.6,10.3,10.3C384.7,297.2,380.1,301.8,374.4,301.8"/>
	<path id="path7261_23_" inkscape:connector-curvature="0" class="st22" d="M374.4,299.5c-4.5,0-8-3.5-8-8c0-4.4,3.6-8,8-8
		s8,3.6,8,8S378.8,299.5,374.4,299.5"/>
	<path id="path1187_23_" inkscape:connector-curvature="0" class="st14" d="M374.4,299.4c-4.2,0-7.7-3.3-7.7-7.3s3.4-7.3,7.7-7.3
		c4.2,0,7.7,3.3,7.7,7.3S378.7,299.4,374.4,299.4"/>
	<path id="path861_23_" inkscape:connector-curvature="0" class="st23" d="M369.3,292.6c0-2.9,2.2-5.2,5.1-5.2
		c2.8,0,5.1,2.4,5.1,5.2c0,2.9-2.3,5.2-5.1,5.2S369.3,295.4,369.3,292.6"/>
	<path id="path7265_23_" inkscape:connector-curvature="0" d="M369.3,291.6c0-2.9,2.2-5.2,5.1-5.1c2.8,0,5.1,2.3,5.1,5.1
		c0,2.8-2.3,5.1-5.1,5.1S369.3,294.4,369.3,291.6"/>
</g>
<g id="layer1_25_" transform="translate(-89.945866,-120.5333)" inkscape:groupmode="layer" inkscape:label="Layer 1">
	<path id="path7255_7_" inkscape:connector-curvature="0" class="st21" d="M105.4,301.8c-5.7,0-10.3-4.6-10.3-10.3
		c0-5.7,4.6-10.3,10.3-10.3s10.3,4.6,10.3,10.3S111,301.8,105.4,301.8"/>
	<path id="path7261_7_" inkscape:connector-curvature="0" class="st22" d="M105.4,299.5c-4.4,0-8-3.6-8-8s3.6-8,8-8s8,3.6,8,8
		C113.4,296,109.9,299.5,105.4,299.5"/>
	<path id="path1187_7_" inkscape:connector-curvature="0" class="st14" d="M105.4,299.4c-4.3,0-7.7-3.3-7.7-7.3s3.5-7.3,7.7-7.3
		c4.3,0,7.7,3.3,7.7,7.3S109.6,299.4,105.4,299.4"/>
	<path id="path861_7_" inkscape:connector-curvature="0" class="st23" d="M110.5,292.6c0,2.8-2.3,5.2-5.1,5.2s-5.1-2.3-5.1-5.2
		c0-2.8,2.3-5.2,5.1-5.2C108.3,287.4,110.5,289.7,110.5,292.6"/>
	<path id="path7265_7_" inkscape:connector-curvature="0" d="M110.5,291.6c0,2.8-2.3,5.1-5.1,5.1s-5.1-2.3-5.1-5.1
		c0-2.8,2.3-5.1,5.1-5.1C108.3,286.4,110.5,288.7,110.5,291.6"/>
</g>
<g id="layer1_24_" transform="translate(-89.945866,-120.5333)" inkscape:groupmode="layer" inkscape:label="Layer 1">
	<path id="path7255_2_" inkscape:connector-curvature="0" class="st21" d="M105.4,263.8c-5.7,0-10.3-4.6-10.3-10.3
		s4.6-10.3,10.3-10.3c5.7,0,10.3,4.6,10.3,10.3C115.7,259.2,111,263.8,105.4,263.8"/>
	<path id="path7261_2_" inkscape:connector-curvature="0" class="st22" d="M105.4,261.5c-4.4,0-8-3.6-8-8s3.6-8,8-8s8,3.6,8,8
		C113.4,258,109.9,261.5,105.4,261.5"/>
	<path id="path1187_2_" inkscape:connector-curvature="0" class="st14" d="M105.4,261.4c-4.3,0-7.7-3.3-7.7-7.3s3.5-7.3,7.7-7.3
		c4.3,0,7.7,3.3,7.7,7.3C113.1,258.1,109.6,261.4,105.4,261.4"/>
	<path id="path861_2_" inkscape:connector-curvature="0" class="st23" d="M110.6,254.6c0,2.8-2.3,5.2-5.1,5.2
		c-2.8,0-5.1-2.3-5.1-5.2c0-2.8,2.3-5.2,5.1-5.2S110.6,251.7,110.6,254.6"/>
	<path id="path7265_2_" inkscape:connector-curvature="0" d="M110.6,253.6c0,3.5-3.6,6.2-7.3,4.6c-1.1-0.5-2-1.4-2.4-2.4
		c-1.6-3.7,1.1-7.3,4.6-7.3C108.3,248.4,110.6,250.7,110.6,253.6"/>
</g>
<path id="rect75_1_" inkscape:connector-curvature="0" class="st30" d="M30,29.8h240v175H30V29.8z"/>
<line class="st31" x1="30" y1="188" x2="270" y2="188"/>
<line class="st31" x1="30" y1="171" x2="270" y2="171"/>
<line class="st31" x1="30" y1="154" x2="270" y2="154"/>
<line class="st31" x1="30" y1="137" x2="270" y2="137"/>
<line class="st31" x1="30" y1="120" x2="270" y2="120"/>
<line class="st31" x1="30" y1="103" x2="270" y2="103"/>
<line class="st31" x1="30" y1="86" x2="270" y2="86"/>
<line class="st31" x1="30" y1="69" x2="270" y2="69"/>
<line class="st31" x1="150" y1="69" x2="150" y2="204.8"/>
<line class="st31" x1="180" y1="69" x2="180" y2="204.8"/>
<line class="st31" x1="210" y1="69" x2="210" y2="204.8"/>
<line class="st31" x1="240" y1="69" x2="240" y2="204.8"/>
<line class="st31" x1="60" y1="69" x2="60" y2="204.8"/>
<line class="st31" x1="90" y1="69" x2="90" y2="204.8"/>
<line class="st31" x1="120" y1="69" x2="120" y2="204.8"/>
<path id="rect75_3_" inkscape:connector-curvature="0" class="st32" d="M30,29.8h240v175H30V29.8z"/>
<g>
	<g>
		<path class="st19" d="M38,64.4c-0.3,0.3-0.8,0.4-1.6,0.4H34v-8.4h2.3c0.7,0,1.2,0.1,1.6,0.4c0.3,0.3,0.5,0.8,0.5,1.4V59
			c0,0.6-0.2,1.1-0.7,1.4c0.5,0.3,0.8,0.8,0.8,1.5V63C38.5,63.7,38.3,64.2,38,64.4z M37.1,57.6c-0.1-0.1-0.4-0.2-0.7-0.2h-1.4V60
			h1.4c0.2,0,0.5-0.1,0.6-0.2s0.3-0.4,0.3-0.6v-0.9C37.3,57.9,37.2,57.7,37.1,57.6z M37.2,61.2c-0.2-0.2-0.4-0.2-0.6-0.2h-1.5v3h1.5
			c0.3,0,0.5-0.1,0.7-0.2c0.1-0.1,0.2-0.4,0.2-0.7v-1.3C37.4,61.5,37.3,61.3,37.2,61.2z"/>
		<path class="st19" d="M44.2,64.8c-0.1-0.1-0.2-0.2-0.3-0.3c-0.2,0.2-0.4,0.4-0.7,0.4H42c-0.6,0-1-0.1-1.3-0.4
			c-0.3-0.2-0.4-0.7-0.4-1.3V63c0-1.2,0.6-1.9,1.8-1.9h1.5v-0.6c0-0.2-0.1-0.4-0.2-0.6c-0.2-0.1-0.4-0.2-0.7-0.2h-1.9v-0.9h1.7
			c0.7,0,1.2,0.2,1.5,0.5c0.3,0.3,0.5,0.8,0.5,1.5v2.9c0,0.1,0,0.2,0.1,0.3s0.2,0.1,0.5,0.1v0.8h-0.7C44.4,64.9,44.3,64.8,44.2,64.8
			z M43.4,63.8c0.1-0.1,0.1-0.3,0.1-0.4v-1.3H42c-0.2,0-0.4,0.1-0.5,0.2c-0.1,0.1-0.2,0.3-0.2,0.5v0.6c0,0.2,0,0.4,0.1,0.5
			c0.1,0.1,0.2,0.1,0.5,0.1H43C43.2,64,43.4,63.9,43.4,63.8z"/>
		<path class="st19" d="M48,58.9v0.3c0.2-0.2,0.6-0.3,1-0.3h0.6c0.6,0,1.1,0.2,1.4,0.5s0.5,0.8,0.5,1.5v4.1h-1v-4.3
			c0-0.2-0.1-0.4-0.2-0.6c-0.1-0.1-0.3-0.2-0.6-0.2h-0.8c-0.3,0-0.5,0.1-0.6,0.2c-0.1,0.1-0.2,0.3-0.2,0.5v4.4h-1v-6H48z"/>
		<path class="st19" d="M54.6,62.3v2.6h-1v-8.4h1V61l1.9-2.1h1.3l-2.1,2.4l2.3,3.6h-1.3L54.9,62L54.6,62.3z"/>
		<path class="st19" d="M62.8,58.9v1.2h-1.2v-1.2H62.8z M62.8,63.7v1.2h-1.2v-1.2H62.8z"/>
		<path class="st19" d="M70.2,64.4c-0.4,0.4-0.8,0.5-1.4,0.5h-0.4c-0.5,0-1-0.2-1.4-0.5s-0.5-0.9-0.5-1.5v-4.3
			c0-0.7,0.2-1.2,0.5-1.5c0.4-0.3,0.9-0.5,1.6-0.5h1.5v0.9h-1.6c-0.3,0-0.5,0.1-0.7,0.3c-0.2,0.2-0.3,0.4-0.3,0.6v1.3h1.2
			c0.7,0,1.2,0.2,1.5,0.5c0.3,0.3,0.5,0.8,0.5,1.5v1.3C70.8,63.5,70.6,64,70.2,64.4z M67.8,63.7c0.2,0.2,0.4,0.3,0.7,0.3h0.3
			c0.3,0,0.5-0.1,0.7-0.3c0.2-0.2,0.3-0.4,0.3-0.6v-1.8c0-0.2-0.1-0.4-0.2-0.6c-0.1-0.1-0.4-0.2-0.7-0.2h-1.3v2.6
			C67.6,63.3,67.7,63.5,67.8,63.7z"/>
		<path class="st19" d="M75.4,64.9V63h-2.5v-1l1.3-5.5h1L74,62.1h1.4v-2.7h1v2.7h0.9V63h-0.9v1.9H75.4z"/>
	</g>
</g>
<g>
	<g>
		<path class="st19" d="M98.8,64.4c-0.4,0.3-0.9,0.5-1.6,0.5h-1.7V64h1.8c0.3,0,0.5-0.1,0.7-0.3c0.2-0.2,0.3-0.4,0.3-0.6v-1.2
			c0-0.2-0.1-0.4-0.2-0.6C98,61.1,97.8,61,97.6,61h-0.4c-0.6,0-1.1-0.2-1.4-0.5c-0.3-0.3-0.5-0.9-0.5-1.5v-0.5
			c0-0.7,0.2-1.2,0.6-1.5c0.4-0.3,0.9-0.5,1.6-0.5h1.7v0.9h-1.8c-0.3,0-0.5,0.1-0.7,0.3c-0.2,0.2-0.3,0.4-0.3,0.6v0.9
			c0,0.2,0.1,0.5,0.2,0.6c0.2,0.2,0.4,0.2,0.6,0.2h0.4c0.6,0,1,0.2,1.3,0.5s0.5,0.8,0.5,1.5v0.8C99.3,63.5,99.2,64,98.8,64.4z"/>
		<path class="st19" d="M103.3,64.5c-0.2-0.3-0.3-0.6-0.3-1v-3.7h-1.1v-0.9h1.1v-1.4h1v1.4h1.8v0.9H104v3.7c0,0.2,0,0.3,0.1,0.4
			c0.1,0.1,0.2,0.1,0.4,0.1h1.2v0.9h-1.5C103.8,64.9,103.5,64.7,103.3,64.5z"/>
		<path class="st19" d="M111.7,64.8c-0.1-0.1-0.2-0.2-0.3-0.3c-0.2,0.2-0.4,0.4-0.7,0.4h-1.1c-0.6,0-1-0.1-1.3-0.4
			c-0.3-0.2-0.4-0.7-0.4-1.3V63c0-1.2,0.6-1.9,1.8-1.9h1.5v-0.6c0-0.2-0.1-0.4-0.2-0.6c-0.2-0.1-0.4-0.2-0.7-0.2h-1.9v-0.9h1.7
			c0.7,0,1.2,0.2,1.5,0.5c0.3,0.3,0.5,0.8,0.5,1.5v2.9c0,0.1,0,0.2,0.1,0.3s0.2,0.1,0.5,0.1v0.8H112
			C111.9,64.9,111.8,64.8,111.7,64.8z M111,63.8c0.1-0.1,0.1-0.3,0.1-0.4v-1.3h-1.5c-0.2,0-0.4,0.1-0.5,0.2
			c-0.1,0.1-0.2,0.3-0.2,0.5v0.6c0,0.2,0,0.4,0.1,0.5c0.1,0.1,0.2,0.1,0.5,0.1h1.1C110.8,64,110.9,63.9,111,63.8z"/>
		<path class="st19" d="M115.6,64v-4.2h-0.9v-0.9h1.8v0.3c0.3-0.2,0.6-0.3,1-0.3h1.2v1h-1.4c-0.3,0-0.4,0.1-0.6,0.2
			s-0.2,0.3-0.2,0.5V64h1.3v0.9h-3.2V64H115.6z"/>
		<path class="st19" d="M122.7,64.5c-0.2-0.3-0.3-0.6-0.3-1v-3.7h-1.1v-0.9h1.1v-1.4h1v1.4h1.8v0.9h-1.8v3.7c0,0.2,0,0.3,0.1,0.4
			c0.1,0.1,0.2,0.1,0.4,0.1h1.2v0.9h-1.5C123.3,64.9,123,64.7,122.7,64.5z"/>
		<path class="st19" d="M130.3,58.9v1.2h-1.2v-1.2H130.3z M130.3,63.7v1.2h-1.2v-1.2H130.3z"/>
		<path class="st19" d="M142.4,64v-6.6l-1.7,0.6v-1l1.6-0.6h1.1V64h1.3v0.9h-3.9V64H142.4z"/>
	</g>
</g>
<g>
	<g>
		<path class="st19" d="M158.8,64.4c-0.4,0.3-0.9,0.5-1.6,0.5h-1.7V64h1.8c0.3,0,0.5-0.1,0.7-0.3c0.2-0.2,0.3-0.4,0.3-0.6v-1.2
			c0-0.2-0.1-0.4-0.2-0.6c-0.1-0.1-0.3-0.2-0.6-0.2h-0.4c-0.6,0-1.1-0.2-1.4-0.5c-0.3-0.3-0.5-0.9-0.5-1.5v-0.5
			c0-0.7,0.2-1.2,0.6-1.5c0.4-0.3,0.9-0.5,1.6-0.5h1.7v0.9h-1.8c-0.3,0-0.5,0.1-0.7,0.3c-0.2,0.2-0.3,0.4-0.3,0.6v0.9
			c0,0.2,0.1,0.5,0.2,0.6c0.2,0.2,0.4,0.2,0.6,0.2h0.4c0.6,0,1,0.2,1.3,0.5s0.5,0.8,0.5,1.5v0.8C159.3,63.5,159.2,64,158.8,64.4z"/>
		<path class="st19" d="M163.3,64.5c-0.2-0.3-0.3-0.6-0.3-1v-3.7h-1.1v-0.9h1.1v-1.4h1v1.4h1.8v0.9H164v3.7c0,0.2,0,0.3,0.1,0.4
			c0.1,0.1,0.2,0.1,0.4,0.1h1.2v0.9h-1.5C163.8,64.9,163.5,64.7,163.3,64.5z"/>
		<path class="st19" d="M171.7,64.8c-0.1-0.1-0.2-0.2-0.3-0.3c-0.2,0.2-0.4,0.4-0.7,0.4h-1.1c-0.6,0-1-0.1-1.3-0.4
			c-0.3-0.2-0.4-0.7-0.4-1.3V63c0-1.2,0.6-1.9,1.8-1.9h1.5v-0.6c0-0.2-0.1-0.4-0.2-0.6c-0.2-0.1-0.4-0.2-0.7-0.2h-1.9v-0.9h1.7
			c0.7,0,1.2,0.2,1.5,0.5c0.3,0.3,0.5,0.8,0.5,1.5v2.9c0,0.1,0,0.2,0.1,0.3s0.2,0.1,0.5,0.1v0.8H172
			C171.9,64.9,171.8,64.8,171.7,64.8z M171,63.8c0.1-0.1,0.1-0.3,0.1-0.4v-1.3h-1.5c-0.2,0-0.4,0.1-0.5,0.2
			c-0.1,0.1-0.2,0.3-0.2,0.5v0.6c0,0.2,0,0.4,0.1,0.5c0.1,0.1,0.2,0.1,0.5,0.1h1.1C170.8,64,170.9,63.9,171,63.8z"/>
		<path class="st19" d="M175.6,64v-4.2h-0.9v-0.9h1.8v0.3c0.3-0.2,0.6-0.3,1-0.3h1.2v1h-1.4c-0.3,0-0.4,0.1-0.6,0.2
			s-0.2,0.3-0.2,0.5V64h1.3v0.9h-3.2V64H175.6z"/>
		<path class="st19" d="M182.7,64.5c-0.2-0.3-0.3-0.6-0.3-1v-3.7h-1.1v-0.9h1.1v-1.4h1v1.4h1.8v0.9h-1.8v3.7c0,0.2,0,0.3,0.1,0.4
			c0.1,0.1,0.2,0.1,0.4,0.1h1.2v0.9h-1.5C183.3,64.9,183,64.7,182.7,64.5z"/>
		<path class="st19" d="M190.3,58.9v1.2h-1.2v-1.2H190.3z M190.3,63.7v1.2h-1.2v-1.2H190.3z"/>
		<path class="st19" d="M204.4,64.4c-0.3,0.3-0.8,0.5-1.6,0.5h-0.3c-0.7,0-1.2-0.1-1.6-0.5c-0.3-0.3-0.5-0.8-0.5-1.4v-1
			c0-0.7,0.3-1.2,0.8-1.5c-0.4-0.3-0.6-0.8-0.6-1.4v-0.8c0-0.6,0.2-1.1,0.5-1.4s0.8-0.5,1.4-0.5h0.2c0.6,0,1.1,0.2,1.4,0.5
			s0.5,0.8,0.5,1.4v0.8c0,0.6-0.2,1.1-0.6,1.4c0.5,0.3,0.8,0.8,0.8,1.5v1C204.9,63.6,204.7,64.1,204.4,64.4z M203.6,61.2
			c-0.2-0.2-0.4-0.2-0.6-0.2h-0.6c-0.3,0-0.5,0.1-0.6,0.2c-0.2,0.2-0.2,0.4-0.2,0.6v1.2c0,0.3,0.1,0.5,0.2,0.7
			c0.1,0.1,0.3,0.2,0.6,0.2h0.6c0.3,0,0.5-0.1,0.7-0.2c0.1-0.1,0.2-0.4,0.2-0.7v-1.2C203.8,61.6,203.8,61.4,203.6,61.2z M201.8,57.6
			c-0.1,0.1-0.2,0.4-0.2,0.6v1c0,0.3,0.1,0.5,0.2,0.6c0.1,0.2,0.3,0.2,0.6,0.3h0.4c0.2,0,0.5-0.1,0.6-0.2c0.2-0.2,0.2-0.4,0.2-0.6
			v-1c0-0.3-0.1-0.5-0.2-0.7c-0.1-0.1-0.3-0.2-0.7-0.2h-0.4C202.1,57.4,201.9,57.5,201.8,57.6z"/>
	</g>
</g>
<g>
	<g>
		<path class="st19" d="M218.3,61.5l-0.8,3.4h-1.4l-0.4-8.4h0.9l0.4,7.5l1-4h0.7l1,4l0.4-7.5h0.8l-0.4,8.4H219L218.3,61.5z"/>
		<path class="st19" d="M226.2,64.8c-0.1-0.1-0.2-0.2-0.3-0.3c-0.2,0.2-0.4,0.4-0.7,0.4h-1.1c-0.6,0-1-0.1-1.3-0.4
			c-0.3-0.2-0.4-0.7-0.4-1.3V63c0-1.2,0.6-1.9,1.8-1.9h1.5v-0.6c0-0.2-0.1-0.4-0.2-0.6c-0.2-0.1-0.4-0.2-0.7-0.2h-1.9v-0.9h1.7
			c0.7,0,1.2,0.2,1.5,0.5c0.3,0.3,0.5,0.8,0.5,1.5v2.9c0,0.1,0,0.2,0.1,0.3s0.2,0.1,0.5,0.1v0.8h-0.7
			C226.5,64.9,226.3,64.8,226.2,64.8z M225.5,63.8c0.1-0.1,0.1-0.3,0.1-0.4v-1.3h-1.5c-0.2,0-0.4,0.1-0.5,0.2
			c-0.1,0.1-0.2,0.3-0.2,0.5v0.6c0,0.2,0,0.4,0.1,0.5c0.1,0.1,0.2,0.1,0.5,0.1h1.1C225.3,64,225.4,63.9,225.5,63.8z"/>
		<path class="st19" d="M228.8,58.9h1.1l1.4,5.2l1.4-5.2h1.1l-1.7,6h-1.5L228.8,58.9z"/>
		<path class="st19" d="M236.1,64.4c-0.3-0.3-0.5-0.8-0.5-1.5v-2.2c0-0.7,0.1-1.2,0.4-1.5c0.3-0.3,0.8-0.4,1.5-0.4h0.6
			c0.6,0,1,0.2,1.3,0.5s0.4,0.8,0.4,1.4v1.6h-3.2v0.9c0,0.2,0.1,0.4,0.2,0.6c0.2,0.1,0.4,0.2,0.7,0.2h1.9v0.9h-1.8
			C237,64.9,236.5,64.7,236.1,64.4z M238.9,60.5c0-0.2-0.1-0.4-0.2-0.5c-0.1-0.1-0.3-0.2-0.5-0.2h-0.7c-0.3,0-0.5,0.1-0.6,0.2
			c-0.1,0.1-0.2,0.3-0.2,0.6v0.8h2.2V60.5z"/>
		<path class="st19" d="M245.6,64.5c-0.3,0.2-0.8,0.4-1.3,0.4h-1.8V64h1.9c0.2,0,0.4,0,0.5-0.1c0.1-0.1,0.2-0.2,0.2-0.4v-0.6
			c0-0.4-0.2-0.5-0.5-0.5h-0.4c-0.6,0-1-0.1-1.3-0.4s-0.4-0.6-0.4-1.2v-0.3c0-0.5,0.2-0.9,0.5-1.2s0.8-0.4,1.3-0.4h1.6v0.9h-1.7
			c-0.2,0-0.4,0-0.5,0.1s-0.2,0.2-0.2,0.4v0.4c0,0.2,0.1,0.3,0.2,0.4c0.1,0.1,0.2,0.1,0.4,0.1h0.4c0.5,0,0.9,0.1,1.2,0.4
			c0.3,0.3,0.4,0.6,0.4,1.2v0.5C246.1,63.9,245.9,64.3,245.6,64.5z"/>
		<path class="st19" d="M251.3,58.9v1.2h-1.2v-1.2H251.3z M251.3,63.7v1.2h-1.2v-1.2H251.3z"/>
		<path class="st19" d="M265.4,64.4c-0.3,0.3-0.8,0.5-1.6,0.5h-0.3c-0.7,0-1.2-0.1-1.6-0.5c-0.3-0.3-0.5-0.8-0.5-1.4v-1
			c0-0.7,0.3-1.2,0.8-1.5c-0.4-0.3-0.6-0.8-0.6-1.4v-0.8c0-0.6,0.2-1.1,0.5-1.4s0.8-0.5,1.4-0.5h0.2c0.6,0,1.1,0.2,1.4,0.5
			s0.5,0.8,0.5,1.4v0.8c0,0.6-0.2,1.1-0.6,1.4c0.5,0.3,0.8,0.8,0.8,1.5v1C265.9,63.6,265.7,64.1,265.4,64.4z M264.6,61.2
			c-0.2-0.2-0.4-0.2-0.6-0.2h-0.6c-0.3,0-0.5,0.1-0.6,0.2c-0.2,0.2-0.2,0.4-0.2,0.6v1.2c0,0.3,0.1,0.5,0.2,0.7
			c0.1,0.1,0.3,0.2,0.6,0.2h0.6c0.3,0,0.5-0.1,0.7-0.2c0.1-0.1,0.2-0.4,0.2-0.7v-1.2C264.8,61.6,264.8,61.4,264.6,61.2z M262.8,57.6
			c-0.1,0.1-0.2,0.4-0.2,0.6v1c0,0.3,0.1,0.5,0.2,0.6c0.1,0.2,0.3,0.2,0.6,0.3h0.4c0.2,0,0.5-0.1,0.6-0.2c0.2-0.2,0.2-0.4,0.2-0.6
			v-1c0-0.3-0.1-0.5-0.2-0.7c-0.1-0.1-0.3-0.2-0.7-0.2h-0.4C263.1,57.4,262.9,57.5,262.8,57.6z"/>
	</g>
</g>
</svg>
