<?xml version="1.0" encoding="utf-8"?>
<!-- Generator: Adobe Illustrator 23.0.6, SVG Export Plug-In . SVG Version: 6.00 Build 0)  -->
<svg version="1.1"
	 id="svg8" xmlns:cc="http://creativecommons.org/ns#" xmlns:dc="http://purl.org/dc/elements/1.1/" xmlns:inkscape="http://www.inkscape.org/namespaces/inkscape" xmlns:rdf="http://www.w3.org/1999/02/22-rdf-syntax-ns#" xmlns:sodipodi="http://sodipodi.sourceforge.net/DTD/sodipodi-0.dtd" xmlns:svg="http://www.w3.org/2000/svg"
	 xmlns="http://www.w3.org/2000/svg" xmlns:xlink="http://www.w3.org/1999/xlink" x="0px" y="0px" viewBox="0 0 300 380"
	 style="enable-background:new 0 0 300 380;" xml:space="preserve">
<style type="text/css">
	.st0{fill:#282828;}
	.st1{fill:none;stroke:#FFFFFF;}
	.st2{fill:#FFFFFF;}
	.st3{font-family:'AlteDIN1451Mittelschrift';}
	.st4{font-size:18px;}
	.st5{font-size:10px;}
	.st6{font-size:8px;}
	.st7{fill:#111111;stroke:#414042;stroke-miterlimit:10;}
	.st8{fill:none;stroke:#FFFFFF;stroke-miterlimit:10;}
	.st9{fill:none;stroke:#C0C0C0;stroke-miterlimit:10;}
	.st10{fill:#282828;stroke:#C0C0C0;stroke-miterlimit:10;}
	.st11{fill:none;stroke:#BE974A;stroke-width:2;stroke-miterlimit:10;}
	.st12{fill:#111111;}
	.st13{fill:none;stroke:#414042;stroke-miterlimit:10;}
</style>
<g id="layer1" transform="translate(0,-196.45831)" inkscape:groupmode="layer" inkscape:label="Layer 1">
	<rect id="rect1047" y="196.5" class="st0" width="300" height="380"/>
</g>
<defs>
	
	
		<inkscape:path-effect  apply_no_weight="true" apply_with_weight="true" effect="bspline" helper_size="0" id="path-effect2273" is_visible="true" only_selected="false" steps="2" weight="33.333333">
		</inkscape:path-effect>
	
		<inkscape:path-effect  apply_no_weight="true" apply_with_weight="true" effect="bspline" helper_size="0" id="path-effect2269" is_visible="true" only_selected="false" steps="2" weight="33.333333">
		</inkscape:path-effect>
</defs>
<sodipodi:namedview  bordercolor="#666666" borderopacity="1.0" id="base" inkscape:current-layer="layer1" inkscape:cx="76.012834" inkscape:cy="318.70973" inkscape:document-units="mm" inkscape:pageopacity="0.0" inkscape:pageshadow="2" inkscape:snap-bbox="true" inkscape:snap-global="true" inkscape:window-height="1006" inkscape:window-maximized="0" inkscape:window-width="1276" inkscape:window-x="641" inkscape:window-y="0" inkscape:zoom="5.656854" pagecolor="#ffffff" showgrid="true" showguides="false" units="px">
	<inkscape:grid  id="grid1092" type="xygrid"></inkscape:grid>
</sodipodi:namedview>
<path id="line161" class="st1" d="M0,24.5h300"/>
<path id="line163" class="st1" d="M0,356.5h300"/>
<text transform="matrix(1 0 0 1 127.4914 373.5106)" class="st2 st3 st4">Valley</text>
<text transform="matrix(1 0 0 1 107.8653 17.9062)" class="st2 st3 st4">Terrorform</text>
<text transform="matrix(1 0 0 1 6.0637 60.9038)" class="st2 st3 st5">VOct</text>
<text transform="matrix(1 0 0 1 275.0642 60.9038)" class="st2 st3 st5">VOct</text>
<text transform="matrix(1 0 0 1 219.9264 350.6366)" class="st2 st3 st5">Main</text>
<text transform="matrix(1 0 0 1 189.8552 350.6366)" class="st2 st3 st5">Sub</text>
<text transform="matrix(1 0 0 1 131.9531 293.0002)" class="st2 st3 st6">Sync Mode</text>
<path id="rect75_2_" inkscape:connector-curvature="0" class="st7" d="M107,297h86v16h-86V297z"/>
<text transform="matrix(1 0 0 1 9.0281 326.7419)" class="st2 st3 st5">FM</text>
<path class="st8" d="M201.1,287.7"/>
<text transform="matrix(1 0 0 1 55.0071 350.6364)" class="st2 st3 st5">Phasor</text>
<text transform="matrix(1 0 0 1 93.3935 350.6366)" class="st2 st3 st5">EOC</text>
<text transform="matrix(1 0 0 1 150.1897 350.637)" class="st2 st3 st5">Pre. EH</text>
<text transform="matrix(1 0 0 1 126.3195 350.5735)" class="st2 st3 st5">Env</text>
<text transform="matrix(1 0 0 1 6.7283 292.8593)" class="st2 st3 st5">VCA</text>
<text transform="matrix(1 0 0 1 277.9504 326.7419)" class="st2 st3 st5">FM</text>
<text transform="matrix(1 0 0 1 275.6506 292.8593)" class="st2 st3 st5">VCA</text>
<path class="st9" d="M64.2,282.1c0,0-3.9,46-44.3,58"/>
<path class="st9" d="M68.9,259.5c0,0,1.5,51.6-53.4,47.5"/>
<path class="st9" d="M67.4,254.5c0,0-18.6,39.2-51.9,16.6"/>
<g>
	<circle class="st10" cx="65.8" cy="281.9" r="5.5"/>
	<line class="st9" x1="65.8" y1="287.3" x2="65.8" y2="276.4"/>
	<line class="st9" x1="60.3" y1="281.9" x2="71.3" y2="281.9"/>
</g>
<text transform="matrix(1 0 0 1 203.01 285.8968)" class="st2 st3 st5">Sync</text>
<text transform="matrix(1 0 0 1 141.8651 275.9152)" class="st2 st3 st5">Trig</text>
<g>
	<circle class="st10" cx="67.4" cy="254.5" r="5.5"/>
	<line class="st9" x1="71.3" y1="258.4" x2="63.5" y2="250.6"/>
	<line class="st9" x1="63.5" y1="258.4" x2="71.3" y2="250.6"/>
</g>
<path class="st9" d="M277,340c-39.3-12-43.1-58-43.1-58"/>
<path class="st9" d="M281.2,306.9c-53.4,4.1-51.9-47.5-51.9-47.5"/>
<path class="st9" d="M281.3,271c-32.4,22.6-49-16.6-49-16.6"/>
<g>
	<circle class="st10" cx="233.9" cy="281.8" r="5.5"/>
	<line class="st9" x1="233.9" y1="276.3" x2="233.9" y2="287.2"/>
	<line class="st9" x1="228.4" y1="281.8" x2="239.4" y2="281.8"/>
</g>
<g>
	<circle class="st10" cx="232.3" cy="254.4" r="5.5"/>
	<line class="st9" x1="236.2" y1="250.5" x2="228.4" y2="258.3"/>
	<line class="st9" x1="228.4" y1="250.5" x2="236.2" y2="258.3"/>
</g>
<path class="st11" d="M123.8,276.1C123.8,261,135,254,135,254v15.2c0,2.1,1.7,3.7,3.7,3.7"/>
<path class="st11" d="M176.1,276.1C176.1,261,165,254,165,254v15.2c0,2.1-1.7,3.7-3.7,3.7"/>
<text transform="matrix(1 0 0 1 203.6878 314.6086)" class="st2 st3 st6">Weak</text>
<text transform="matrix(1 0 0 1 77.6876 314.6086)" class="st2 st3 st6">Weak</text>
<text transform="matrix(1 0 0 1 77.0559 285.8968)" class="st2 st3 st5">Sync</text>
<path id="rect75_1_" inkscape:connector-curvature="0" class="st12" d="M30,30h240v195H30V30z"/>
<path id="rect75_3_" inkscape:connector-curvature="0" class="st13" d="M30.2,29.7h240V225h-240L30.2,29.7L30.2,29.7z"/>
</svg>
