<?xml version="1.0" encoding="UTF-8" standalone="no"?>
<!-- Generator: Adobe Illustrator 23.0.4, SVG Export Plug-In . SVG Version: 6.00 Build 0)  -->

<svg
   xmlns:dc="http://purl.org/dc/elements/1.1/"
   xmlns:cc="http://creativecommons.org/ns#"
   xmlns:rdf="http://www.w3.org/1999/02/22-rdf-syntax-ns#"
   xmlns:svg="http://www.w3.org/2000/svg"
   xmlns="http://www.w3.org/2000/svg"
   xmlns:sodipodi="http://sodipodi.sourceforge.net/DTD/sodipodi-0.dtd"
   xmlns:inkscape="http://www.inkscape.org/namespaces/inkscape"
   version="1.1"
   id="svg8"
   x="0px"
   y="0px"
   viewBox="0 0 270 380"
   style="enable-background:new 0 0 270 380;"
   xml:space="preserve"
   sodipodi:docname="CellDark.svg"
   inkscape:version="0.92.2 5c3e80d, 2017-08-06"><metadata
     id="metadata175"><rdf:RDF><cc:Work
         rdf:about=""><dc:format>image/svg+xml</dc:format><dc:type
           rdf:resource="http://purl.org/dc/dcmitype/StillImage" /><dc:title /></cc:Work></rdf:RDF></metadata><style
     type="text/css"
     id="style2">
	.st0{fill:#282828;}
	.st1{fill:none;stroke:#FFFFFF;}
	.st2{fill:#FFFFFF;}
	.st3{font-family:'AlteDIN1451Mittelschrift';}
	.st4{font-size:18px;}
	.st5{font-size:10px;}
	.st6{font-size:8px;}
	.st7{fill:none;stroke:#8759A4;stroke-miterlimit:10;}
	.st8{fill:none;stroke:#DA4061;stroke-miterlimit:10;}
	.st9{fill:none;stroke:#BE974A;stroke-linecap:square;}
	.st10{fill:#111111;stroke:#414042;stroke-miterlimit:10;}
	.st11{fill:none;stroke:#FFFFFF;stroke-miterlimit:10;}
	.st12{fill:none;stroke:#307DEE;stroke-miterlimit:10;}
	.st13{fill:none;stroke:#00A1A7;stroke-miterlimit:10;}
	.st14{fill:none;stroke:#C0C0C0;stroke-miterlimit:10;}
	.st15{fill:#282828;stroke:#C0C0C0;stroke-miterlimit:10;}
</style><defs
     id="defs6"><inkscape:path-effect
       apply_no_weight="true"
       apply_with_weight="true"
       effect="bspline"
       helper_size="0"
       id="path-effect2273"
       is_visible="true"
       only_selected="false"
       steps="2"
       weight="33.333333" /><inkscape:path-effect
       apply_no_weight="true"
       apply_with_weight="true"
       effect="bspline"
       helper_size="0"
       id="path-effect2269"
       is_visible="true"
       only_selected="false"
       steps="2"
       weight="33.333333" /></defs><sodipodi:namedview
     bordercolor="#666666"
     borderopacity="1.0"
     id="base"
     inkscape:current-layer="svg8"
     inkscape:cx="28.724727"
     inkscape:cy="167.36535"
     inkscape:document-units="mm"
     inkscape:pageopacity="0.0"
     inkscape:pageshadow="2"
     inkscape:snap-bbox="true"
     inkscape:snap-global="true"
     inkscape:window-height="1005"
     inkscape:window-maximized="1"
     inkscape:window-width="1680"
     inkscape:window-x="0"
     inkscape:window-y="1"
     inkscape:zoom="1.9999999"
     pagecolor="#ffffff"
     showgrid="true"
     showguides="false"
     units="px"><inkscape:grid
       id="grid1092"
       type="xygrid" /></sodipodi:namedview><g
     id="layer1"
     transform="translate(0,-196.45831)"
     inkscape:groupmode="layer"
     inkscape:label="Layer 1"><path
       style="fill:#282828;fill-opacity:1;stroke:none"
       d="m 0,196.5 h 270 v 380 H 0 Z"
       id="rect1047" /></g><path
     id="line161"
     class="st1"
     d="M0,24.5h270"
     style="fill:none;fill-opacity:1;stroke:#ffffff;stroke-opacity:1" /><path
     id="line163"
     class="st1"
     d="M0,356.5h270"
     style="fill:none;fill-opacity:1;stroke:#ffffff;stroke-opacity:1" /><g
     aria-label="Valley"
     transform="matrix(1 0 0 1 112.4914 373.5106)"
     style="font-size:18px;font-family:AlteDIN1451Mittelschrift;fill:#ffffff;stroke:none;fill-opacity:1"
     id="text14"><path
       d="M 4.2626953,0.00878906 0.03515625,-12.796875 H 2.0830078 l 2.9179688,9.7470703 h 0.035156 L 7.9541016,-12.796875 H 10.001953 L 5.7744141,0.00878906 Z"
       style="font-size:18px;font-family:AlteDIN1451Mittelschrift;fill:#ffffff;stroke:none;fill-opacity:1"
       id="path993" /><path
       d="m 16.057617,0.04394531 v -0.80859375 h -0.03516 q -0.254883,0.47460938 -0.764648,0.68554688 -0.544922,0.22851562 -1.423829,0.22851562 -1.511718,-0.0351562 -2.285156,-0.80859375 -0.84375,-0.77343751 -0.84375,-1.97753911 0,-1.1425781 0.729492,-1.9160156 0.729493,-0.7734375 2.153321,-0.7910156 h 2.469726 v -0.9667969 q 0.0088,-1.2128906 -1.819336,-1.1777343 -0.632812,0 -1.054687,0.140625 -0.413086,0.1845703 -0.624024,0.571289 l -1.40625,-1.1074219 q 1.019532,-1.3623047 2.997071,-1.3271484 1.661132,-0.017578 2.671875,0.6503906 0.993164,0.694336 1.010742,2.3554688 v 6.24902341 z m 0,-3.20800781 v -0.6679688 h -2.135742 q -1.564453,0.043945 -1.546875,1.1074219 0,0.4570313 0.404297,0.7910157 0.386719,0.3603515 1.274414,0.3603515 1.125,0.017578 1.582031,-0.2724609 0.421875,-0.2900391 0.421875,-1.3183594 z"
       style="font-size:18px;font-family:AlteDIN1451Mittelschrift;fill:#ffffff;stroke:none;fill-opacity:1"
       id="path995" /><path
       d="M 19.87207,-2.1972656 V -12.796875 h 1.836914 v 10.4501953 q 0,0.6328125 0.685547,0.6328125 h 0.624024 v 1.72265626 h -0.808594 q -1.001953,0 -1.669922,-0.48339844 -0.667969,-0.4921875 -0.667969,-1.72265622 z"
       style="font-size:18px;font-family:AlteDIN1451Mittelschrift;fill:#ffffff;stroke:none;fill-opacity:1"
       id="path997" /><path
       d="M 24.512695,-2.1972656 V -12.796875 h 1.836914 v 10.4501953 q 0,0.6328125 0.685547,0.6328125 h 0.624024 v 1.72265626 h -0.808594 q -1.001953,0 -1.669922,-0.48339844 -0.667969,-0.4921875 -0.667969,-1.72265622 z"
       style="font-size:18px;font-family:AlteDIN1451Mittelschrift;fill:#ffffff;stroke:none;fill-opacity:1"
       id="path999" /><path
       d="m 36.175781,-3.8583984 h -5.677734 q 0,1.125 0.606445,1.6875 0.615235,0.5625 1.564453,0.5625 1.133789,0 2.003907,-0.8789063 L 36,-1.3535156 q -0.676758,0.7910156 -1.529297,1.13378904 -0.84375,0.33398437 -1.766601,0.33398437 -1.40625,0 -2.72461,-0.90527343 -1.318359,-0.91406248 -1.318359,-3.72656248 0,-2.663086 1.21289,-3.6826172 1.22168,-1.0195313 2.548829,-1.0195313 1.502929,0 2.627929,1.0458985 1.125,1.0371094 1.125,2.8037109 z m -5.677734,-1.5117188 h 3.849609 q -0.04395,-1.0283203 -0.580078,-1.5732422 -0.536133,-0.5449218 -1.344726,-0.5449218 -0.817383,0 -1.362305,0.5449218 -0.536133,0.5449219 -0.5625,1.5732422 z"
       style="font-size:18px;font-family:AlteDIN1451Mittelschrift;fill:#ffffff;stroke:none;fill-opacity:1"
       id="path1001" /><path
       d="M 40.078125,-0.34277344 36.808594,-9.1142578 h 1.933593 l 2.16211,6.3896484 h 0.03516 l 2.162109,-6.3896484 h 1.942383 L 41.124023,1.8984375 Q 40.737305,2.953125 40.060547,3.3222656 39.383789,3.7001953 38.548828,3.7001953 H 37.933594 V 1.96875 h 0.544922 q 0.826171,0 1.098632,-0.7910156 z"
       style="font-size:18px;font-family:AlteDIN1451Mittelschrift;fill:#ffffff;stroke:none;fill-opacity:1"
       id="path1003" /></g><g
     aria-label="Cell"
     transform="matrix(1 0 0 1 120.8108 17.9062)"
     style="font-size:18px;font-family:AlteDIN1451Mittelschrift;fill:#ffffff;stroke:none;fill-opacity:1"
     id="text16"><path
       d="m 7.9541016,-3.5683594 h 2.0478514 q -0.3779296,1.7929688 -1.6171874,2.74218752 -1.2392578,0.94042969 -2.8828125,0.94042969 -1.5117187,0 -2.540039,-0.72070312 Q 1.9423828,-1.3359375 1.4941406,-2.1796875 1.1777344,-2.7421875 1.0546875,-3.4101563 0.93164063,-4.078125 0.93164063,-6.3896484 q 0,-2.3115235 0.12304687,-2.9794922 0.1230469,-0.6679684 0.4394531,-1.2304684 0.4482422,-0.834961 1.4677735,-1.573243 1.0283203,-0.738281 2.540039,-0.738281 1.819336,0 3.0058594,1.125 1.1953125,1.116211 1.4941405,2.6718752 H 7.9541016 Q 7.7167969,-9.8525391 7.0664062,-10.40625 q -0.6416015,-0.553711 -1.5644531,-0.553711 -0.6855469,0 -1.1865234,0.28125 -0.5009766,0.28125 -0.7910156,0.650391 -0.3779297,0.4921872 -0.5185547,1.0810544 -0.131836,0.5888672 -0.131836,2.5576172 0,1.977539 0.131836,2.5664062 0.140625,0.5888672 0.5185547,1.0634766 0.290039,0.3867187 0.7910156,0.6679687 0.5009765,0.272461 1.1865234,0.272461 1.6171875,0 2.4521485,-1.7490235 z"
       style="font-size:18px;font-family:AlteDIN1451Mittelschrift;fill:#ffffff;stroke:none;fill-opacity:1"
       id="path984" /><path
       d="m 18.246094,-3.8583984 h -5.677735 q 0,1.125 0.606446,1.6875 0.615234,0.5625 1.564453,0.5625 1.133789,0 2.003906,-0.8789063 l 1.327148,1.1337891 q -0.676757,0.7910156 -1.529296,1.13378904 -0.84375,0.33398437 -1.766602,0.33398437 -1.40625,0 -2.724609,-0.90527343 -1.31836,-0.91406248 -1.31836,-3.72656248 0,-2.663086 1.212891,-3.6826172 1.22168,-1.0195313 2.548828,-1.0195313 1.50293,0 2.62793,1.0458985 1.125,1.0371094 1.125,2.8037109 z m -5.677735,-1.5117188 h 3.84961 q -0.04395,-1.0283203 -0.580078,-1.5732422 -0.536133,-0.5449218 -1.344727,-0.5449218 -0.817383,0 -1.362305,0.5449218 -0.536132,0.5449219 -0.5625,1.5732422 z"
       style="font-size:18px;font-family:AlteDIN1451Mittelschrift;fill:#ffffff;stroke:none;fill-opacity:1"
       id="path986" /><path
       d="M 20.188477,-2.1972656 V -12.796875 h 1.836914 v 10.4501953 q 0,0.6328125 0.685546,0.6328125 h 0.624024 v 1.72265626 h -0.808594 q -1.001953,0 -1.669922,-0.48339844 -0.667968,-0.4921875 -0.667968,-1.72265622 z"
       style="font-size:18px;font-family:AlteDIN1451Mittelschrift;fill:#ffffff;stroke:none;fill-opacity:1"
       id="path988" /><path
       d="M 24.829102,-2.1972656 V -12.796875 h 1.836914 v 10.4501953 q 0,0.6328125 0.685546,0.6328125 h 0.624024 v 1.72265626 h -0.808594 q -1.001953,0 -1.669922,-0.48339844 -0.667968,-0.4921875 -0.667968,-1.72265622 z"
       style="font-size:18px;font-family:AlteDIN1451Mittelschrift;fill:#ffffff;stroke:none;fill-opacity:1"
       id="path990" /></g><path
     id="rect75_2_"
     inkscape:connector-curvature="0"
     class="st10"
     d="M82.6,237.9h105v32h-105C82.6,269.9,82.6,237.9,82.6,237.9z"
     style="stroke:#414042;stroke-opacity:1;fill:#111111;fill-opacity:1" /><path
     id="rect75_1_"
     inkscape:connector-curvature="0"
     class="st10"
     d="M82.5,121.5h105v45h-105V121.5z"
     style="stroke:#414042;stroke-opacity:1;fill:#111111;fill-opacity:1" /></svg>