<?xml version="1.0" encoding="utf-8"?>
<!-- Generator: Adobe Illustrator 23.0.6, SVG Export Plug-In . SVG Version: 6.00 Build 0)  -->
<svg version="1.1"
	 id="svg8" xmlns:cc="http://creativecommons.org/ns#" xmlns:dc="http://purl.org/dc/elements/1.1/" xmlns:inkscape="http://www.inkscape.org/namespaces/inkscape" xmlns:rdf="http://www.w3.org/1999/02/22-rdf-syntax-ns#" xmlns:sodipodi="http://sodipodi.sourceforge.net/DTD/sodipodi-0.dtd" xmlns:svg="http://www.w3.org/2000/svg"
	 xmlns="http://www.w3.org/2000/svg" xmlns:xlink="http://www.w3.org/1999/xlink" x="0px" y="0px" viewBox="0 0 300 380"
	 style="enable-background:new 0 0 300 380;" xml:space="preserve">
<style type="text/css">
	.st0{fill:#282828;}
	.st1{fill:none;stroke:#C0C0C0;stroke-miterlimit:10;}
	.st2{fill:#111111;}
	.st3{fill:none;stroke:#7F0000;stroke-miterlimit:10;}
	.st4{fill:none;stroke:#414042;stroke-miterlimit:10;}
	.st5{fill:#FF0000;}
	.st6{enable-background:new    ;}
	.st7{fill:#FFFFFF;}
</style>
<g id="layer1" transform="translate(0,-196.45831)" inkscape:groupmode="layer" inkscape:label="Layer 1">
	<rect id="rect1047" y="196.5" class="st0" width="300" height="380"/>
</g>
<defs>
	
	
		<inkscape:path-effect  apply_no_weight="true" apply_with_weight="true" effect="bspline" helper_size="0" id="path-effect2273" is_visible="true" only_selected="false" steps="2" weight="33.333333">
		</inkscape:path-effect>
	
		<inkscape:path-effect  apply_no_weight="true" apply_with_weight="true" effect="bspline" helper_size="0" id="path-effect2269" is_visible="true" only_selected="false" steps="2" weight="33.333333">
		</inkscape:path-effect>
</defs>
<sodipodi:namedview  bordercolor="#666666" borderopacity="1.0" id="base" inkscape:current-layer="layer1" inkscape:cx="76.012834" inkscape:cy="318.70973" inkscape:document-units="mm" inkscape:pageopacity="0.0" inkscape:pageshadow="2" inkscape:snap-bbox="true" inkscape:snap-global="true" inkscape:window-height="1006" inkscape:window-maximized="0" inkscape:window-width="1276" inkscape:window-x="641" inkscape:window-y="0" inkscape:zoom="5.656854" pagecolor="#ffffff" showgrid="true" showguides="false" units="px">
	<inkscape:grid  id="grid1092" type="xygrid"></inkscape:grid>
</sodipodi:namedview>
<path class="st1" d="M150.1,229.7"/>
<path id="rect75_1_" inkscape:connector-curvature="0" class="st2" d="M30,30h240v195H30V30z"/>
<line class="st3" x1="30.2" y1="205.9" x2="270.2" y2="205.9"/>
<line class="st3" x1="30.2" y1="186.9" x2="270.2" y2="186.9"/>
<line class="st3" x1="30.2" y1="167.9" x2="270.2" y2="167.9"/>
<line class="st3" x1="30.2" y1="148.9" x2="270.2" y2="148.9"/>
<line class="st3" x1="30.2" y1="129.9" x2="270.2" y2="129.9"/>
<line class="st3" x1="30.2" y1="110.9" x2="270.2" y2="110.9"/>
<line class="st3" x1="30.2" y1="91.9" x2="270.2" y2="91.9"/>
<line class="st3" x1="30.2" y1="72.9" x2="270.2" y2="72.9"/>
<line class="st3" x1="150.2" y1="72.9" x2="150.2" y2="225"/>
<line class="st3" x1="180.2" y1="72.9" x2="180.2" y2="225"/>
<line class="st3" x1="210.2" y1="72.9" x2="210.2" y2="225"/>
<line class="st3" x1="240.2" y1="72.9" x2="240.2" y2="225"/>
<line class="st3" x1="60.2" y1="72.9" x2="60.2" y2="225"/>
<line class="st3" x1="90.2" y1="72.9" x2="90.2" y2="225"/>
<line class="st3" x1="120.2" y1="72.9" x2="120.2" y2="225"/>
<path id="rect75_3_" inkscape:connector-curvature="0" class="st4" d="M30.2,29.7h240V225h-240L30.2,29.7L30.2,29.7z"/>
<g>
	<g>
		<path class="st5" d="M38.2,67.3c-0.3,0.3-0.8,0.4-1.6,0.4h-2.4v-8.4h2.3c0.7,0,1.2,0.1,1.6,0.4c0.3,0.3,0.5,0.8,0.5,1.4v0.7
			c0,0.6-0.2,1.1-0.7,1.4c0.5,0.3,0.8,0.8,0.8,1.5v1.1C38.7,66.5,38.5,67,38.2,67.3z M37.3,60.4c-0.1-0.1-0.4-0.2-0.7-0.2h-1.4v2.7
			h1.4c0.2,0,0.5-0.1,0.6-0.2s0.3-0.4,0.3-0.6v-0.9C37.5,60.8,37.4,60.6,37.3,60.4z M37.4,64c-0.2-0.2-0.4-0.2-0.6-0.2h-1.5v3h1.5
			c0.3,0,0.5-0.1,0.7-0.2c0.1-0.1,0.2-0.4,0.2-0.7v-1.3C37.6,64.4,37.5,64.2,37.4,64z"/>
		<path class="st5" d="M44.3,67.6c-0.1-0.1-0.2-0.2-0.3-0.3c-0.2,0.2-0.4,0.4-0.7,0.4h-1.1c-0.6,0-1-0.1-1.3-0.4
			c-0.3-0.2-0.4-0.7-0.4-1.3v-0.2c0-1.2,0.6-1.9,1.8-1.9h1.5v-0.6c0-0.2-0.1-0.4-0.2-0.6c-0.2-0.1-0.4-0.2-0.7-0.2H41v-0.9h1.7
			c0.7,0,1.2,0.2,1.5,0.5s0.5,0.8,0.5,1.5v2.9c0,0.1,0,0.2,0.1,0.3s0.2,0.1,0.5,0.1v0.8h-0.7C44.6,67.7,44.5,67.7,44.3,67.6z
			 M43.6,66.7c0.1-0.1,0.1-0.3,0.1-0.4V65h-1.5c-0.2,0-0.4,0.1-0.5,0.2s-0.2,0.3-0.2,0.5v0.6c0,0.2,0,0.4,0.1,0.5s0.2,0.1,0.5,0.1
			h1.1C43.4,66.8,43.6,66.8,43.6,66.7z"/>
		<path class="st5" d="M48.2,61.7V62c0.2-0.2,0.6-0.3,1-0.3h0.6c0.6,0,1.1,0.2,1.4,0.5s0.5,0.8,0.5,1.5v4.1h-1v-4.3
			c0-0.2-0.1-0.4-0.2-0.6c-0.1-0.1-0.3-0.2-0.6-0.2H49c-0.3,0-0.5,0.1-0.6,0.2c-0.1,0.1-0.2,0.3-0.2,0.5v4.4h-1v-6h1V61.7z"/>
		<path class="st5" d="M54.8,65.2v2.6h-1v-8.4h1v4.5l1.9-2.1H58l-2.1,2.4l2.3,3.6h-1.3l-1.8-2.9L54.8,65.2z"/>
		<path class="st5" d="M63,61.7v1.2h-1.2v-1.2H63z M63,66.5v1.2h-1.2v-1.2H63z"/>
		<path class="st5" d="M70.4,67.2c-0.4,0.4-0.8,0.5-1.4,0.5h-0.4c-0.5,0-1-0.2-1.4-0.5s-0.5-0.9-0.5-1.5v-4.3c0-0.7,0.2-1.2,0.5-1.5
			c0.4-0.3,0.9-0.5,1.6-0.5h1.5v0.9h-1.6c-0.3,0-0.5,0.1-0.7,0.3s-0.3,0.4-0.3,0.6v1.3H69c0.7,0,1.2,0.2,1.5,0.5s0.5,0.8,0.5,1.5
			v1.3C71,66.4,70.8,66.9,70.4,67.2z M68,66.6c0.2,0.2,0.4,0.3,0.7,0.3H69c0.3,0,0.5-0.1,0.7-0.3c0.2-0.2,0.3-0.4,0.3-0.6v-1.8
			c0-0.2-0.1-0.4-0.2-0.6c-0.1-0.1-0.4-0.2-0.7-0.2h-1.3V66C67.8,66.2,67.9,66.4,68,66.6z"/>
		<path class="st5" d="M75.6,67.7v-1.9h-2.5v-1l1.3-5.5h1L74.2,65h1.4v-2.7h1V65h0.9v0.9h-0.9v1.9h-1V67.7z"/>
	</g>
</g>
<g>
	<g>
		<path class="st5" d="M98.8,67.2c-0.4,0.3-0.9,0.5-1.6,0.5h-1.7v-0.9h1.8c0.3,0,0.5-0.1,0.7-0.3c0.2-0.2,0.3-0.4,0.3-0.6v-1.2
			c0-0.2-0.1-0.4-0.2-0.6c-0.1-0.1-0.3-0.2-0.6-0.2h-0.4c-0.6,0-1.1-0.2-1.4-0.5s-0.5-0.9-0.5-1.5v-0.5c0-0.7,0.2-1.2,0.6-1.5
			s0.9-0.5,1.6-0.5h1.7v0.9h-1.8c-0.3,0-0.5,0.1-0.7,0.3s-0.3,0.4-0.3,0.6v0.9c0,0.2,0.1,0.5,0.2,0.6c0.2,0.2,0.4,0.2,0.6,0.2h0.4
			c0.6,0,1,0.2,1.3,0.5s0.5,0.8,0.5,1.5v0.8C99.3,66.4,99.2,66.9,98.8,67.2z"/>
		<path class="st5" d="M103.3,67.3c-0.2-0.3-0.3-0.6-0.3-1v-3.7h-1.1v-0.9h1.1v-1.4h1v1.4h1.8v0.9H104v3.7c0,0.2,0,0.3,0.1,0.4
			s0.2,0.1,0.4,0.1h1.2v0.9h-1.5C103.8,67.7,103.5,67.6,103.3,67.3z"/>
		<path class="st5" d="M111.7,67.6c-0.1-0.1-0.2-0.2-0.3-0.3c-0.2,0.2-0.4,0.4-0.7,0.4h-1.1c-0.6,0-1-0.1-1.3-0.4
			c-0.3-0.2-0.4-0.7-0.4-1.3v-0.2c0-1.2,0.6-1.9,1.8-1.9h1.5v-0.6c0-0.2-0.1-0.4-0.2-0.6c-0.2-0.1-0.4-0.2-0.7-0.2h-1.9v-0.9h1.7
			c0.7,0,1.2,0.2,1.5,0.5s0.5,0.8,0.5,1.5v2.9c0,0.1,0,0.2,0.1,0.3s0.2,0.1,0.5,0.1v0.8H112C111.9,67.7,111.8,67.7,111.7,67.6z
			 M111,66.7c0.1-0.1,0.1-0.3,0.1-0.4V65h-1.5c-0.2,0-0.4,0.1-0.5,0.2s-0.2,0.3-0.2,0.5v0.6c0,0.2,0,0.4,0.1,0.5s0.2,0.1,0.5,0.1
			h1.1C110.8,66.8,110.9,66.8,111,66.7z"/>
		<path class="st5" d="M115.6,66.8v-4.2h-0.9v-0.9h1.8V62c0.3-0.2,0.6-0.3,1-0.3h1.2v1h-1.4c-0.3,0-0.4,0.1-0.6,0.2
			s-0.2,0.3-0.2,0.5v3.4h1.3v0.9h-3.2v-0.9H115.6z"/>
		<path class="st5" d="M122.7,67.3c-0.2-0.3-0.3-0.6-0.3-1v-3.7h-1.1v-0.9h1.1v-1.4h1v1.4h1.8v0.9h-1.8v3.7c0,0.2,0,0.3,0.1,0.4
			s0.2,0.1,0.4,0.1h1.2v0.9h-1.5C123.3,67.7,123,67.6,122.7,67.3z"/>
		<path class="st5" d="M130.3,61.7v1.2h-1.2v-1.2H130.3z M130.3,66.5v1.2h-1.2v-1.2H130.3z"/>
		<path class="st5" d="M142.4,66.8v-6.6l-1.7,0.6v-1l1.6-0.6h1.1v7.5h1.3v0.9h-3.9v-0.9L142.4,66.8L142.4,66.8z"/>
	</g>
</g>
<g>
	<g>
		<path class="st5" d="M44.7,85.8v-6.6L43,79.9v-1l1.6-0.6h1.1v7.5H47v0.9h-3.9v-0.9H44.7z"/>
	</g>
</g>
<g>
	<g>
		<path class="st5" d="M75,82.9c0.3-0.4,0.4-0.6,0.5-0.8c0.1-0.2,0.2-0.3,0.2-0.5s0-0.4,0-0.7v-0.8c0-0.2-0.1-0.5-0.3-0.6
			c-0.2-0.2-0.4-0.3-0.7-0.3h-1.4v-0.9h1.3c0.7,0,1.2,0.2,1.6,0.5s0.6,0.9,0.6,1.5v0.5c0,0.4,0,0.7-0.1,1c-0.1,0.2-0.1,0.5-0.2,0.7
			S76.2,83,76,83.3l-1.8,2.5H77v0.9h-4v-1.1L75,82.9z"/>
	</g>
</g>
<g>
	<g>
		<path class="st5" d="M106.5,86.2c-0.3,0.3-0.8,0.5-1.6,0.5h-1.5v-0.9h1.6c0.3,0,0.5-0.1,0.7-0.2c0.1-0.1,0.2-0.4,0.2-0.7v-1.2
			c0-0.3-0.1-0.5-0.2-0.6c-0.2-0.2-0.4-0.2-0.6-0.2h-1.3V82h1.2c0.2,0,0.5-0.1,0.6-0.2c0.2-0.2,0.3-0.4,0.3-0.6v-1
			c0-0.3-0.1-0.5-0.2-0.7c-0.1-0.1-0.4-0.2-0.7-0.2h-1.5v-0.9h1.4c0.7,0,1.2,0.1,1.5,0.4s0.5,0.8,0.5,1.4V81c0,0.6-0.2,1.1-0.7,1.4
			c0.5,0.3,0.8,0.8,0.8,1.5v1C107,85.5,106.8,85.9,106.5,86.2z"/>
	</g>
</g>
<g>
	<g>
		<path class="st5" d="M135.6,86.7v-1.9h-2.5v-1l1.3-5.5h1l-1.2,5.7h1.4v-2.7h1V84h0.9v0.9h-0.9v1.9L135.6,86.7L135.6,86.7z"/>
	</g>
</g>
<g>
	<g>
		<path class="st5" d="M166.4,86.2c-0.3,0.3-0.8,0.5-1.6,0.5h-1.6v-0.9h1.7c0.3,0,0.5-0.1,0.7-0.2c0.1-0.1,0.2-0.4,0.2-0.7v-1.5
			c0-0.3-0.1-0.5-0.2-0.6c-0.2-0.2-0.4-0.2-0.6-0.2h-1.6v-4.2h3.3v0.9h-2.3v2.4h0.5c0.6,0,1.1,0.2,1.5,0.5s0.5,0.8,0.5,1.4v1.3
			C166.9,85.5,166.7,85.9,166.4,86.2z"/>
	</g>
</g>
<g>
	<g>
		<path class="st5" d="M196.9,86.2c-0.4,0.4-0.8,0.5-1.4,0.5h-0.4c-0.5,0-1-0.2-1.4-0.5s-0.5-0.9-0.5-1.5v-4.3
			c0-0.7,0.2-1.2,0.5-1.5c0.4-0.3,0.9-0.5,1.6-0.5h1.5v0.9h-1.6c-0.3,0-0.5,0.1-0.7,0.3c-0.2,0.2-0.3,0.4-0.3,0.6v1.3h1.2
			c0.7,0,1.2,0.2,1.5,0.5s0.5,0.8,0.5,1.5v1.3C197.4,85.3,197.2,85.8,196.9,86.2z M194.5,85.5c0.2,0.2,0.4,0.3,0.7,0.3h0.3
			c0.3,0,0.5-0.1,0.7-0.3c0.2-0.2,0.3-0.4,0.3-0.6v-1.8c0-0.2-0.1-0.4-0.2-0.6c-0.1-0.1-0.4-0.2-0.7-0.2h-1.3v2.6
			C194.2,85.1,194.3,85.4,194.5,85.5z"/>
	</g>
</g>
<g>
	<g>
		<path class="st5" d="M226.2,79.2h-2.9v-0.9h3.9v1.2l-2.1,7.2H224L226.2,79.2z"/>
	</g>
</g>
<g>
	<g>
		<path class="st5" d="M257,86.2c-0.3,0.3-0.8,0.5-1.6,0.5h-0.3c-0.7,0-1.2-0.1-1.6-0.5c-0.3-0.3-0.5-0.8-0.5-1.4v-1
			c0-0.7,0.3-1.2,0.8-1.5c-0.4-0.3-0.6-0.8-0.6-1.4v-0.8c0-0.6,0.2-1.1,0.5-1.4s0.8-0.5,1.4-0.5h0.2c0.6,0,1.1,0.2,1.4,0.5
			s0.5,0.8,0.5,1.4v0.8c0,0.6-0.2,1.1-0.6,1.4c0.5,0.3,0.8,0.8,0.8,1.5v1C257.4,85.5,257.3,85.9,257,86.2z M256.1,83.1
			c-0.2-0.2-0.4-0.2-0.6-0.2h-0.6c-0.3,0-0.5,0.1-0.6,0.2c-0.2,0.2-0.2,0.4-0.2,0.6v1.2c0,0.3,0.1,0.5,0.2,0.7
			c0.1,0.1,0.3,0.2,0.6,0.2h0.6c0.3,0,0.5-0.1,0.7-0.2c0.1-0.1,0.2-0.4,0.2-0.7v-1.2C256.4,83.4,256.3,83.2,256.1,83.1z M254.4,79.4
			c-0.1,0.1-0.2,0.4-0.2,0.6v1c0,0.3,0.1,0.5,0.2,0.6c0.1,0.2,0.3,0.2,0.6,0.3h0.4c0.2,0,0.5-0.1,0.6-0.2c0.2-0.2,0.2-0.4,0.2-0.6
			v-1c0-0.3-0.1-0.5-0.2-0.7c-0.1-0.1-0.3-0.2-0.7-0.2H255C254.7,79.2,254.5,79.3,254.4,79.4z"/>
	</g>
</g>
<g>
	<g>
		<path class="st5" d="M43.5,97.8c0.4-0.4,0.8-0.5,1.4-0.5h0.4c0.5,0,1,0.2,1.4,0.5c0.4,0.4,0.5,0.9,0.5,1.5v4.3
			c0,0.7-0.2,1.2-0.5,1.5c-0.4,0.3-0.9,0.5-1.6,0.5h-1.4v-0.9h1.5c0.3,0,0.5-0.1,0.7-0.3c0.2-0.2,0.3-0.4,0.3-0.6v-1.3H45
			c-0.7,0-1.2-0.2-1.5-0.5s-0.5-0.8-0.5-1.5v-1.3C42.9,98.7,43.1,98.2,43.5,97.8z M45.9,98.5c-0.2-0.2-0.4-0.3-0.7-0.3h-0.3
			c-0.3,0-0.5,0.1-0.7,0.3c-0.2,0.2-0.3,0.4-0.3,0.6v1.8c0,0.2,0.1,0.4,0.2,0.6c0.1,0.1,0.4,0.2,0.7,0.2h1.3v-2.6
			C46.1,98.9,46,98.6,45.9,98.5z"/>
	</g>
</g>
<g>
	<g>
		<path class="st5" d="M71.5,104.8v-6.6l-1.7,0.6v-1l1.6-0.6h1.1v7.5h1.3v0.9h-3.9v-0.9L71.5,104.8L71.5,104.8z"/>
		<path class="st5" d="M79.9,105.2c-0.4,0.3-0.9,0.5-1.5,0.5h-0.2c-0.6,0-1.1-0.2-1.5-0.5s-0.5-0.9-0.5-1.5v-4.3
			c0-0.7,0.2-1.2,0.5-1.5c0.4-0.3,0.9-0.5,1.5-0.5h0.2c0.6,0,1.1,0.2,1.5,0.5s0.5,0.9,0.5,1.5v4.3C80.4,104.3,80.2,104.8,79.9,105.2
			z M79.1,98.5c-0.2-0.2-0.4-0.3-0.7-0.3h-0.2c-0.3,0-0.5,0.1-0.7,0.3c-0.2,0.2-0.3,0.4-0.3,0.6v3.3l2.2-3.3
			C79.4,98.9,79.3,98.6,79.1,98.5z M77.4,104.5c0.2,0.2,0.4,0.3,0.7,0.3h0.2c0.3,0,0.5-0.1,0.7-0.3c0.2-0.2,0.3-0.4,0.3-0.6v-3.2
			l-2.2,3.2C77.2,104.1,77.3,104.3,77.4,104.5z"/>
	</g>
</g>
<g>
	<g>
		<path class="st5" d="M101.6,104.8v-6.6l-1.7,0.6v-1l1.6-0.6h1.1v7.5h1.3v0.9H100v-0.9L101.6,104.8L101.6,104.8z"/>
		<path class="st5" d="M108.1,104.8v-6.6l-1.7,0.6v-1l1.6-0.6h1.1v7.5h1.3v0.9h-3.9v-0.9L108.1,104.8L108.1,104.8z"/>
	</g>
</g>
<g>
	<g>
		<path class="st5" d="M131.7,104.8v-6.6l-1.7,0.6v-1l1.6-0.6h1.1v7.5h1.3v0.9h-3.9v-0.9L131.7,104.8L131.7,104.8z"/>
		<path class="st5" d="M138.5,101.9c0.3-0.4,0.4-0.6,0.5-0.8c0.1-0.2,0.2-0.3,0.2-0.5s0-0.4,0-0.7v-0.8c0-0.2-0.1-0.5-0.3-0.6
			c-0.2-0.2-0.4-0.3-0.7-0.3h-1.4v-0.9h1.3c0.7,0,1.2,0.2,1.6,0.5c0.4,0.3,0.6,0.9,0.6,1.5v0.5c0,0.4,0,0.7-0.1,1
			c-0.1,0.2-0.1,0.5-0.2,0.7c-0.1,0.2-0.3,0.5-0.5,0.8l-1.8,2.5h2.9v0.9h-4v-1.1L138.5,101.9z"/>
	</g>
</g>
<g>
	<g>
		<path class="st5" d="M161.5,104.8v-6.6l-1.7,0.6v-1l1.6-0.6h1.1v7.5h1.3v0.9h-3.9v-0.9L161.5,104.8L161.5,104.8z"/>
		<path class="st5" d="M169.6,105.2c-0.3,0.3-0.8,0.5-1.6,0.5h-1.5v-0.9h1.6c0.3,0,0.5-0.1,0.7-0.2c0.1-0.1,0.2-0.4,0.2-0.7v-1.2
			c0-0.3-0.1-0.5-0.2-0.6c-0.2-0.2-0.4-0.2-0.6-0.2h-1.3V101h1.2c0.2,0,0.5-0.1,0.6-0.2c0.2-0.2,0.3-0.4,0.3-0.6v-1
			c0-0.3-0.1-0.5-0.2-0.7c-0.1-0.1-0.4-0.2-0.7-0.2h-1.5v-0.9h1.4c0.7,0,1.2,0.1,1.5,0.4s0.5,0.8,0.5,1.4v0.8c0,0.6-0.2,1.1-0.7,1.4
			c0.5,0.3,0.8,0.8,0.8,1.5v1C170.1,104.5,170,104.9,169.6,105.2z"/>
	</g>
</g>
<g>
	<g>
		<path class="st5" d="M191.7,104.8v-6.6l-1.7,0.6v-1l1.6-0.6h1.1v7.5h1.3v0.9h-3.9v-0.9L191.7,104.8L191.7,104.8z"/>
		<path class="st5" d="M198.8,105.7v-1.9h-2.5v-1l1.3-5.5h1l-1.2,5.7h1.4v-2.7h1v2.7h0.9v0.9h-0.9v1.9L198.8,105.7L198.8,105.7z"/>
	</g>
</g>
<g>
	<g>
		<path class="st5" d="M221.8,104.8v-6.6l-1.7,0.6v-1l1.6-0.6h1.1v7.5h1.3v0.9h-3.9v-0.9L221.8,104.8L221.8,104.8z"/>
		<path class="st5" d="M229.9,105.2c-0.3,0.3-0.8,0.5-1.6,0.5h-1.6v-0.9h1.7c0.3,0,0.5-0.1,0.7-0.2c0.1-0.1,0.2-0.4,0.2-0.7v-1.5
			c0-0.3-0.1-0.5-0.2-0.6c-0.2-0.2-0.4-0.2-0.6-0.2h-1.6v-4.2h3.3v0.9h-2.3v2.4h0.5c0.6,0,1.1,0.2,1.5,0.5s0.5,0.8,0.5,1.4v1.3
			C230.4,104.5,230.2,104.9,229.9,105.2z"/>
	</g>
</g>
<g>
	<g>
		<path class="st5" d="M251.7,104.8v-6.6l-1.7,0.6v-1l1.6-0.6h1.1v7.5h1.3v0.9h-3.9v-0.9L251.7,104.8L251.7,104.8z"/>
		<path class="st5" d="M260.1,105.2c-0.4,0.4-0.8,0.5-1.4,0.5h-0.4c-0.5,0-1-0.2-1.4-0.5s-0.5-0.9-0.5-1.5v-4.3
			c0-0.7,0.2-1.2,0.5-1.5c0.4-0.3,0.9-0.5,1.6-0.5h1.5v0.9h-1.6c-0.3,0-0.5,0.1-0.7,0.3c-0.2,0.2-0.3,0.4-0.3,0.6v1.3h1.2
			c0.7,0,1.2,0.2,1.5,0.5s0.5,0.8,0.5,1.5v1.3C260.6,104.3,260.4,104.8,260.1,105.2z M257.7,104.5c0.2,0.2,0.4,0.3,0.7,0.3h0.3
			c0.3,0,0.5-0.1,0.7-0.3c0.2-0.2,0.3-0.4,0.3-0.6v-1.8c0-0.2-0.1-0.4-0.2-0.6c-0.1-0.1-0.4-0.2-0.7-0.2h-1.3v2.6
			C257.4,104.1,257.5,104.4,257.7,104.5z"/>
	</g>
</g>
<line class="st3" x1="30.2" y1="148.9" x2="270.2" y2="148.9"/>
<g>
	<g>
		<path class="st5" d="M41.4,123.9v-6.6l-1.7,0.6v-1l1.6-0.6h1.1v7.5h1.3v0.9h-3.9v-0.9L41.4,123.9L41.4,123.9z"/>
		<path class="st5" d="M49.2,117.3h-2.9v-0.9h3.9v1.2l-2.1,7.2H47L49.2,117.3z"/>
	</g>
</g>
<g>
	<g>
		<path class="st5" d="M71.5,123.9v-6.6l-1.7,0.6v-1l1.6-0.6h1.1v7.5h1.3v0.9h-3.9v-0.9L71.5,123.9L71.5,123.9z"/>
		<path class="st5" d="M80,124.3c-0.3,0.3-0.8,0.5-1.6,0.5h-0.3c-0.7,0-1.2-0.1-1.6-0.5c-0.3-0.3-0.5-0.8-0.5-1.4v-1
			c0-0.7,0.3-1.2,0.8-1.5c-0.4-0.3-0.6-0.8-0.6-1.4v-0.8c0-0.6,0.2-1.1,0.5-1.4s0.8-0.5,1.4-0.5h0.2c0.6,0,1.1,0.2,1.4,0.5
			s0.5,0.8,0.5,1.4v0.8c0,0.6-0.2,1.1-0.6,1.4c0.5,0.3,0.8,0.8,0.8,1.5v1C80.5,123.5,80.3,124,80,124.3z M79.2,121.1
			c-0.2-0.2-0.4-0.2-0.6-0.2H78c-0.3,0-0.5,0.1-0.6,0.2c-0.2,0.2-0.2,0.4-0.2,0.6v1.2c0,0.3,0.1,0.5,0.2,0.7
			c0.1,0.1,0.3,0.2,0.6,0.2h0.6c0.3,0,0.5-0.1,0.7-0.2c0.1-0.1,0.2-0.4,0.2-0.7v-1.2C79.4,121.5,79.4,121.3,79.2,121.1z M77.4,117.5
			c-0.1,0.1-0.2,0.4-0.2,0.6v1c0,0.3,0.1,0.5,0.2,0.6c0.1,0.2,0.3,0.2,0.6,0.3h0.4c0.2,0,0.5-0.1,0.6-0.2c0.2-0.2,0.2-0.4,0.2-0.6
			v-1c0-0.3-0.1-0.5-0.2-0.7c-0.1-0.1-0.3-0.2-0.7-0.2H78C77.7,117.3,77.5,117.3,77.4,117.5z"/>
	</g>
</g>
<g>
	<g>
		<path class="st5" d="M101.6,123.9v-6.6l-1.7,0.6v-1l1.6-0.6h1.1v7.5h1.3v0.9H100v-0.9L101.6,123.9L101.6,123.9z"/>
		<path class="st5" d="M106.9,116.9c0.4-0.4,0.8-0.5,1.4-0.5h0.4c0.5,0,1,0.2,1.4,0.5c0.4,0.4,0.5,0.9,0.5,1.5v4.3
			c0,0.7-0.2,1.2-0.5,1.5c-0.4,0.3-0.9,0.5-1.6,0.5h-1.4v-0.9h1.5c0.3,0,0.5-0.1,0.7-0.3c0.2-0.2,0.3-0.4,0.3-0.6v-1.3h-1.2
			c-0.7,0-1.2-0.2-1.5-0.5s-0.5-0.8-0.5-1.5v-1.3C106.4,117.7,106.5,117.2,106.9,116.9z M109.3,117.5c-0.2-0.2-0.4-0.3-0.7-0.3h-0.3
			c-0.3,0-0.5,0.1-0.7,0.3c-0.2,0.2-0.3,0.4-0.3,0.6v1.8c0,0.2,0.1,0.4,0.2,0.6c0.1,0.1,0.4,0.2,0.7,0.2h1.3v-2.6
			C109.5,117.9,109.5,117.7,109.3,117.5z"/>
	</g>
</g>
<g>
	<g>
		<path class="st5" d="M132,121c0.3-0.4,0.4-0.6,0.5-0.8c0.1-0.2,0.2-0.3,0.2-0.5s0-0.4,0-0.7v-0.8c0-0.2-0.1-0.5-0.3-0.6
			c-0.2-0.2-0.4-0.3-0.7-0.3h-1.4v-0.9h1.3c0.7,0,1.2,0.2,1.6,0.5c0.4,0.3,0.6,0.9,0.6,1.5v0.5c0,0.4,0,0.7-0.1,1
			c-0.1,0.2-0.1,0.5-0.2,0.7c-0.1,0.2-0.3,0.5-0.5,0.8l-1.8,2.5h2.9v0.9h-4v-1.1L132,121z"/>
		<path class="st5" d="M140.1,124.2c-0.4,0.3-0.9,0.5-1.5,0.5h-0.2c-0.6,0-1.1-0.2-1.5-0.5s-0.5-0.9-0.5-1.5v-4.3
			c0-0.7,0.2-1.2,0.5-1.5c0.4-0.3,0.9-0.5,1.5-0.5h0.2c0.6,0,1.1,0.2,1.5,0.5s0.5,0.9,0.5,1.5v4.3
			C140.7,123.4,140.5,123.9,140.1,124.2z M139.4,117.5c-0.2-0.2-0.4-0.3-0.7-0.3h-0.2c-0.3,0-0.5,0.1-0.7,0.3
			c-0.2,0.2-0.3,0.4-0.3,0.6v3.3l2.2-3.3C139.6,117.9,139.5,117.7,139.4,117.5z M137.7,123.6c0.2,0.2,0.4,0.3,0.7,0.3h0.2
			c0.3,0,0.5-0.1,0.7-0.3c0.2-0.2,0.3-0.4,0.3-0.6v-3.2l-2.2,3.2C137.4,123.2,137.5,123.4,137.7,123.6z"/>
	</g>
</g>
<g>
	<g>
		<path class="st5" d="M161.8,121c0.3-0.4,0.4-0.6,0.5-0.8c0.1-0.2,0.2-0.3,0.2-0.5s0-0.4,0-0.7v-0.8c0-0.2-0.1-0.5-0.3-0.6
			c-0.2-0.2-0.4-0.3-0.7-0.3h-1.4v-0.9h1.3c0.7,0,1.2,0.2,1.6,0.5c0.4,0.3,0.6,0.9,0.6,1.5v0.5c0,0.4,0,0.7-0.1,1
			c-0.1,0.2-0.1,0.5-0.2,0.7c-0.1,0.2-0.3,0.5-0.5,0.8l-1.8,2.5h2.9v0.9h-4v-1.1L161.8,121z"/>
		<path class="st5" d="M168,123.9v-6.6l-1.7,0.6v-1l1.6-0.6h1.1v7.5h1.3v0.9h-3.9v-0.9L168,123.9L168,123.9z"/>
	</g>
</g>
<g>
	<g>
		<path class="st5" d="M192,121c0.3-0.4,0.4-0.6,0.5-0.8c0.1-0.2,0.2-0.3,0.2-0.5s0-0.4,0-0.7v-0.8c0-0.2-0.1-0.5-0.3-0.6
			c-0.2-0.2-0.4-0.3-0.7-0.3h-1.4v-0.9h1.3c0.7,0,1.2,0.2,1.6,0.5c0.4,0.3,0.6,0.9,0.6,1.5v0.5c0,0.4,0,0.7-0.1,1
			c-0.1,0.2-0.1,0.5-0.2,0.7c-0.1,0.2-0.3,0.5-0.5,0.8l-1.8,2.5h2.9v0.9h-4v-1.1L192,121z"/>
		<path class="st5" d="M198.4,121c0.3-0.4,0.4-0.6,0.5-0.8c0.1-0.2,0.2-0.3,0.2-0.5s0-0.4,0-0.7v-0.8c0-0.2-0.1-0.5-0.3-0.6
			c-0.2-0.2-0.4-0.3-0.7-0.3h-1.4v-0.9h1.3c0.7,0,1.2,0.2,1.6,0.5c0.4,0.3,0.6,0.9,0.6,1.5v0.5c0,0.4,0,0.7-0.1,1
			c-0.1,0.2-0.1,0.5-0.2,0.7c-0.1,0.2-0.3,0.5-0.5,0.8l-1.8,2.5h2.9v0.9h-4v-1.1L198.4,121z"/>
	</g>
</g>
<g>
	<g>
		<path class="st5" d="M222,121c0.3-0.4,0.4-0.6,0.5-0.8c0.1-0.2,0.2-0.3,0.2-0.5s0-0.4,0-0.7v-0.8c0-0.2-0.1-0.5-0.3-0.6
			c-0.2-0.2-0.4-0.3-0.7-0.3h-1.4v-0.9h1.3c0.7,0,1.2,0.2,1.6,0.5c0.4,0.3,0.6,0.9,0.6,1.5v0.5c0,0.4,0,0.7-0.1,1
			c-0.1,0.2-0.1,0.5-0.2,0.7c-0.1,0.2-0.3,0.5-0.5,0.8l-1.8,2.5h2.9v0.9h-4v-1.1L222,121z"/>
		<path class="st5" d="M229.9,124.3c-0.3,0.3-0.8,0.5-1.6,0.5h-1.5v-0.9h1.6c0.3,0,0.5-0.1,0.7-0.2c0.1-0.1,0.2-0.4,0.2-0.7v-1.2
			c0-0.3-0.1-0.5-0.2-0.6c-0.2-0.2-0.4-0.2-0.6-0.2h-1.3v-1h1.2c0.2,0,0.5-0.1,0.6-0.2c0.2-0.2,0.3-0.4,0.3-0.6v-1
			c0-0.3-0.1-0.5-0.2-0.7c-0.1-0.1-0.4-0.2-0.7-0.2h-1.5v-0.9h1.4c0.7,0,1.2,0.1,1.5,0.4s0.5,0.8,0.5,1.4v0.8c0,0.6-0.2,1.1-0.7,1.4
			c0.5,0.3,0.8,0.8,0.8,1.5v1C230.4,123.5,230.2,124,229.9,124.3z"/>
	</g>
</g>
<g>
	<g>
		<path class="st5" d="M251.9,121c0.3-0.4,0.4-0.6,0.5-0.8c0.1-0.2,0.2-0.3,0.2-0.5s0-0.4,0-0.7v-0.8c0-0.2-0.1-0.5-0.3-0.6
			c-0.2-0.2-0.4-0.3-0.7-0.3h-1.4v-0.9h1.3c0.7,0,1.2,0.2,1.6,0.5c0.4,0.3,0.6,0.9,0.6,1.5v0.5c0,0.4,0,0.7-0.1,1
			c-0.1,0.2-0.1,0.5-0.2,0.7c-0.1,0.2-0.3,0.5-0.5,0.8l-1.8,2.5h2.9v0.9h-4v-1.1L251.9,121z"/>
		<path class="st5" d="M258.7,124.8v-1.9h-2.5v-1l1.3-5.5h1l-1.2,5.7h1.4v-2.7h1v2.7h0.9v0.9h-0.9v1.9L258.7,124.8L258.7,124.8z"/>
	</g>
</g>
<g>
	<g>
		<path class="st5" d="M41.7,140c0.3-0.4,0.4-0.6,0.5-0.8s0.2-0.3,0.2-0.5s0-0.4,0-0.7v-0.8c0-0.2-0.1-0.5-0.3-0.6
			c-0.2-0.2-0.4-0.3-0.7-0.3H40v-0.9h1.3c0.7,0,1.2,0.2,1.6,0.5c0.4,0.3,0.6,0.9,0.6,1.5v0.5c0,0.4,0,0.7-0.1,1
			c-0.1,0.2-0.1,0.5-0.2,0.7c-0.1,0.2-0.3,0.5-0.5,0.8l-1.8,2.5h2.9v0.9h-4v-1.1L41.7,140z"/>
		<path class="st5" d="M49.6,143.3c-0.3,0.3-0.8,0.5-1.6,0.5h-1.6v-0.9h1.7c0.3,0,0.5-0.1,0.7-0.2c0.1-0.1,0.2-0.4,0.2-0.7v-1.5
			c0-0.3-0.1-0.5-0.2-0.6c-0.2-0.2-0.4-0.2-0.6-0.2h-1.6v-4.2h3.3v0.9h-2.3v2.4h0.5c0.6,0,1.1,0.2,1.5,0.5s0.5,0.8,0.5,1.4v1.3
			C50,142.5,49.9,143,49.6,143.3z"/>
	</g>
</g>
<g>
	<g>
		<path class="st5" d="M71.7,140c0.3-0.4,0.4-0.6,0.5-0.8s0.2-0.3,0.2-0.5s0-0.4,0-0.7v-0.8c0-0.2-0.1-0.5-0.3-0.6
			c-0.2-0.2-0.4-0.3-0.7-0.3H70v-0.9h1.3c0.7,0,1.2,0.2,1.6,0.5s0.6,0.9,0.6,1.5v0.5c0,0.4,0,0.7-0.1,1c-0.1,0.2-0.1,0.5-0.2,0.7
			s-0.3,0.5-0.5,0.8l-1.8,2.5h2.9v0.9h-4v-1.1L71.7,140z"/>
		<path class="st5" d="M79.9,143.2c-0.4,0.4-0.8,0.5-1.4,0.5h-0.4c-0.5,0-1-0.2-1.4-0.5s-0.5-0.9-0.5-1.5v-4.3
			c0-0.7,0.2-1.2,0.5-1.5c0.4-0.3,0.9-0.5,1.6-0.5h1.5v0.9h-1.6c-0.3,0-0.5,0.1-0.7,0.3s-0.3,0.4-0.3,0.6v1.3h1.2
			c0.7,0,1.2,0.2,1.5,0.5s0.5,0.8,0.5,1.5v1.3C80.4,142.4,80.2,142.9,79.9,143.2z M77.5,142.6c0.2,0.2,0.4,0.3,0.7,0.3h0.3
			c0.3,0,0.5-0.1,0.7-0.3s0.3-0.4,0.3-0.6v-1.8c0-0.2-0.1-0.4-0.2-0.6c-0.1-0.1-0.4-0.2-0.7-0.2h-1.3v2.6
			C77.2,142.2,77.3,142.4,77.5,142.6z"/>
	</g>
</g>
<g>
	<g>
		<path class="st5" d="M101.9,140c0.3-0.4,0.4-0.6,0.5-0.8s0.2-0.3,0.2-0.5s0-0.4,0-0.7v-0.8c0-0.2-0.1-0.5-0.3-0.6
			c-0.2-0.2-0.4-0.3-0.7-0.3h-1.4v-0.9h1.3c0.7,0,1.2,0.2,1.6,0.5s0.6,0.9,0.6,1.5v0.5c0,0.4,0,0.7-0.1,1c-0.1,0.2-0.1,0.5-0.2,0.7
			s-0.3,0.5-0.5,0.8l-1.8,2.5h2.9v0.9h-4v-1.1L101.9,140z"/>
		<path class="st5" d="M109.4,136.3h-2.9v-0.9h3.9v1.2l-2.1,7.2h-1.1L109.4,136.3z"/>
	</g>
</g>
<g>
	<g>
		<path class="st5" d="M132,140c0.3-0.4,0.4-0.6,0.5-0.8s0.2-0.3,0.2-0.5s0-0.4,0-0.7v-0.8c0-0.2-0.1-0.5-0.3-0.6
			c-0.2-0.2-0.4-0.3-0.7-0.3h-1.4v-0.9h1.3c0.7,0,1.2,0.2,1.6,0.5c0.4,0.3,0.6,0.9,0.6,1.5v0.5c0,0.4,0,0.7-0.1,1
			c-0.1,0.2-0.1,0.5-0.2,0.7c-0.1,0.2-0.3,0.5-0.5,0.8l-1.8,2.5h2.9v0.9h-4v-1.1L132,140z"/>
		<path class="st5" d="M140.2,143.3c-0.3,0.3-0.8,0.5-1.6,0.5h-0.3c-0.7,0-1.2-0.1-1.6-0.5c-0.3-0.3-0.5-0.8-0.5-1.4v-1
			c0-0.7,0.3-1.2,0.8-1.5c-0.4-0.3-0.6-0.8-0.6-1.4v-0.8c0-0.6,0.2-1.1,0.5-1.4s0.8-0.5,1.4-0.5h0.2c0.6,0,1.1,0.2,1.4,0.5
			s0.5,0.8,0.5,1.4v0.8c0,0.6-0.2,1.1-0.6,1.4c0.5,0.3,0.8,0.8,0.8,1.5v1C140.7,142.5,140.6,143,140.2,143.3z M139.4,140.1
			c-0.2-0.2-0.4-0.2-0.6-0.2h-0.6c-0.3,0-0.5,0.1-0.6,0.2c-0.2,0.2-0.2,0.4-0.2,0.6v1.2c0,0.3,0.1,0.5,0.2,0.7
			c0.1,0.1,0.3,0.2,0.6,0.2h0.6c0.3,0,0.5-0.1,0.7-0.2c0.1-0.1,0.2-0.4,0.2-0.7v-1.2C139.7,140.5,139.6,140.3,139.4,140.1z
			 M137.7,136.5c-0.1,0.1-0.2,0.4-0.2,0.6v1c0,0.3,0.1,0.5,0.2,0.6c0.1,0.2,0.3,0.2,0.6,0.3h0.4c0.2,0,0.5-0.1,0.6-0.2
			c0.2-0.2,0.2-0.4,0.2-0.6v-1c0-0.3-0.1-0.5-0.2-0.7c-0.1-0.1-0.3-0.2-0.7-0.2h-0.4C138,136.3,137.8,136.3,137.7,136.5z"/>
	</g>
</g>
<g>
	<g>
		<path class="st5" d="M161.8,140c0.3-0.4,0.4-0.6,0.5-0.8s0.2-0.3,0.2-0.5s0-0.4,0-0.7v-0.8c0-0.2-0.1-0.5-0.3-0.6
			c-0.2-0.2-0.4-0.3-0.7-0.3h-1.4v-0.9h1.3c0.7,0,1.2,0.2,1.6,0.5c0.4,0.3,0.6,0.9,0.6,1.5v0.5c0,0.4,0,0.7-0.1,1
			c-0.1,0.2-0.1,0.5-0.2,0.7c-0.1,0.2-0.3,0.5-0.5,0.8l-1.8,2.5h2.9v0.9h-4v-1.1L161.8,140z"/>
		<path class="st5" d="M166.8,135.9c0.4-0.4,0.8-0.5,1.4-0.5h0.4c0.5,0,1,0.2,1.4,0.5c0.4,0.4,0.5,0.9,0.5,1.5v4.3
			c0,0.7-0.2,1.2-0.5,1.5c-0.4,0.3-0.9,0.5-1.6,0.5H167v-0.9h1.5c0.3,0,0.5-0.1,0.7-0.3s0.3-0.4,0.3-0.6v-1.3h-1.2
			c-0.7,0-1.2-0.2-1.5-0.5s-0.5-0.8-0.5-1.5v-1.3C166.2,136.7,166.4,136.2,166.8,135.9z M169.2,136.5c-0.2-0.2-0.4-0.3-0.7-0.3h-0.3
			c-0.3,0-0.5,0.1-0.7,0.3s-0.3,0.4-0.3,0.6v1.8c0,0.2,0.1,0.4,0.2,0.6c0.1,0.1,0.4,0.2,0.7,0.2h1.3v-2.6
			C169.4,136.9,169.3,136.7,169.2,136.5z"/>
	</g>
</g>
<g>
	<g>
		<path class="st5" d="M193.3,143.3c-0.3,0.3-0.8,0.5-1.6,0.5h-1.5v-0.9h1.6c0.3,0,0.5-0.1,0.7-0.2c0.1-0.1,0.2-0.4,0.2-0.7v-1.2
			c0-0.3-0.1-0.5-0.2-0.6c-0.2-0.2-0.4-0.2-0.6-0.2h-1.3v-1h1.2c0.2,0,0.5-0.1,0.6-0.2c0.2-0.2,0.3-0.4,0.3-0.6v-1
			c0-0.3-0.1-0.5-0.2-0.7c-0.1-0.1-0.4-0.2-0.7-0.2h-1.5v-0.9h1.4c0.7,0,1.2,0.1,1.5,0.4c0.3,0.3,0.5,0.8,0.5,1.4v0.8
			c0,0.6-0.2,1.1-0.7,1.4c0.5,0.3,0.8,0.8,0.8,1.5v1C193.8,142.5,193.6,143,193.3,143.3z"/>
		<path class="st5" d="M200.1,143.2c-0.4,0.3-0.9,0.5-1.5,0.5h-0.2c-0.6,0-1.1-0.2-1.5-0.5s-0.5-0.9-0.5-1.5v-4.3
			c0-0.7,0.2-1.2,0.5-1.5c0.4-0.3,0.9-0.5,1.5-0.5h0.2c0.6,0,1.1,0.2,1.5,0.5s0.5,0.9,0.5,1.5v4.3
			C200.6,142.4,200.5,142.9,200.1,143.2z M199.3,136.5c-0.2-0.2-0.4-0.3-0.7-0.3h-0.2c-0.3,0-0.5,0.1-0.7,0.3s-0.3,0.4-0.3,0.6v3.3
			l2.2-3.3C199.6,136.9,199.5,136.7,199.3,136.5z M197.7,142.6c0.2,0.2,0.4,0.3,0.7,0.3h0.2c0.3,0,0.5-0.1,0.7-0.3s0.3-0.4,0.3-0.6
			v-3.2l-2.2,3.2C197.4,142.2,197.5,142.4,197.7,142.6z"/>
	</g>
</g>
<g>
	<g>
		<path class="st5" d="M223.4,143.3c-0.3,0.3-0.8,0.5-1.6,0.5h-1.5v-0.9h1.6c0.3,0,0.5-0.1,0.7-0.2c0.1-0.1,0.2-0.4,0.2-0.7v-1.2
			c0-0.3-0.1-0.5-0.2-0.6c-0.2-0.2-0.4-0.2-0.6-0.2h-1.3v-1h1.2c0.2,0,0.5-0.1,0.6-0.2c0.2-0.2,0.3-0.4,0.3-0.6v-1
			c0-0.3-0.1-0.5-0.2-0.7c-0.1-0.1-0.4-0.2-0.7-0.2h-1.5v-0.9h1.4c0.7,0,1.2,0.1,1.5,0.4c0.3,0.3,0.5,0.8,0.5,1.4v0.8
			c0,0.6-0.2,1.1-0.7,1.4c0.5,0.3,0.8,0.8,0.8,1.5v1C223.9,142.5,223.7,143,223.4,143.3z"/>
		<path class="st5" d="M228.2,142.9v-6.6l-1.7,0.6v-1l1.6-0.6h1.1v7.5h1.3v0.9h-3.9v-0.9h1.6L228.2,142.9L228.2,142.9z"/>
	</g>
</g>
<g>
	<g>
		<path class="st5" d="M253.3,143.3c-0.3,0.3-0.8,0.5-1.6,0.5h-1.5v-0.9h1.6c0.3,0,0.5-0.1,0.7-0.2c0.1-0.1,0.2-0.4,0.2-0.7v-1.2
			c0-0.3-0.1-0.5-0.2-0.6c-0.2-0.2-0.4-0.2-0.6-0.2h-1.3v-1h1.2c0.2,0,0.5-0.1,0.6-0.2c0.2-0.2,0.3-0.4,0.3-0.6v-1
			c0-0.3-0.1-0.5-0.2-0.7c-0.1-0.1-0.4-0.2-0.7-0.2h-1.5v-0.9h1.4c0.7,0,1.2,0.1,1.5,0.4c0.3,0.3,0.5,0.8,0.5,1.4v0.8
			c0,0.6-0.2,1.1-0.7,1.4c0.5,0.3,0.8,0.8,0.8,1.5v1C253.8,142.5,253.6,143,253.3,143.3z"/>
		<path class="st5" d="M258.4,140c0.3-0.4,0.4-0.6,0.5-0.8s0.2-0.3,0.2-0.5s0-0.4,0-0.7v-0.8c0-0.2-0.1-0.5-0.3-0.6
			c-0.2-0.2-0.4-0.3-0.7-0.3h-1.4v-0.9h1.3c0.7,0,1.2,0.2,1.6,0.5s0.6,0.9,0.6,1.5v0.5c0,0.4,0,0.7-0.1,1c-0.1,0.2-0.1,0.5-0.2,0.7
			s-0.3,0.5-0.5,0.8l-1.8,2.5h2.9v0.9h-4v-1.1L258.4,140z"/>
	</g>
</g>
<g>
	<g>
		<path class="st5" d="M43.1,162.2c-0.3,0.3-0.8,0.5-1.6,0.5H40v-0.9h1.6c0.3,0,0.5-0.1,0.7-0.2c0.1-0.1,0.2-0.4,0.2-0.7v-1.2
			c0-0.3-0.1-0.5-0.2-0.6c-0.2-0.2-0.4-0.2-0.6-0.2h-1.3V158h1.2c0.2,0,0.5-0.1,0.6-0.2c0.2-0.2,0.3-0.4,0.3-0.6v-1
			c0-0.3-0.1-0.5-0.2-0.7c-0.1-0.1-0.4-0.2-0.7-0.2H40v-0.9h1.4c0.7,0,1.2,0.1,1.5,0.4c0.3,0.3,0.5,0.8,0.5,1.4v0.8
			c0,0.6-0.2,1.1-0.7,1.4c0.5,0.3,0.8,0.8,0.8,1.5v1C43.5,161.4,43.4,161.9,43.1,162.2z"/>
		<path class="st5" d="M49.5,162.2c-0.3,0.3-0.8,0.5-1.6,0.5h-1.5v-0.9H48c0.3,0,0.5-0.1,0.7-0.2c0.1-0.1,0.2-0.4,0.2-0.7v-1.2
			c0-0.3-0.1-0.5-0.2-0.6c-0.2-0.2-0.4-0.2-0.6-0.2h-1.3V158H48c0.2,0,0.5-0.1,0.6-0.2c0.2-0.2,0.3-0.4,0.3-0.6v-1
			c0-0.3-0.1-0.5-0.2-0.7c-0.1-0.1-0.4-0.2-0.7-0.2h-1.5v-0.9h1.4c0.7,0,1.2,0.1,1.5,0.4c0.3,0.3,0.5,0.8,0.5,1.4v0.8
			c0,0.6-0.2,1.1-0.7,1.4c0.5,0.3,0.8,0.8,0.8,1.5v1C50,161.4,49.9,161.9,49.5,162.2z"/>
	</g>
</g>
<g>
	<g>
		<path class="st5" d="M73.1,162.2c-0.3,0.3-0.8,0.5-1.6,0.5H70v-0.9h1.6c0.3,0,0.5-0.1,0.7-0.2c0.1-0.1,0.2-0.4,0.2-0.7v-1.2
			c0-0.3-0.1-0.5-0.2-0.6c-0.2-0.2-0.4-0.2-0.6-0.2h-1.3V158h1.2c0.2,0,0.5-0.1,0.6-0.2c0.2-0.2,0.3-0.4,0.3-0.6v-1
			c0-0.3-0.1-0.5-0.2-0.7c-0.1-0.1-0.4-0.2-0.7-0.2H70v-0.9h1.4c0.7,0,1.2,0.1,1.5,0.4c0.3,0.3,0.5,0.8,0.5,1.4v0.8
			c0,0.6-0.2,1.1-0.7,1.4c0.5,0.3,0.8,0.8,0.8,1.5v1C73.6,161.4,73.4,161.9,73.1,162.2z"/>
		<path class="st5" d="M78.5,162.7v-1.9H76v-1l1.3-5.5h1l-1.2,5.7h1.4v-2.7h1v2.7h0.9v0.9h-0.9v1.9L78.5,162.7L78.5,162.7z"/>
	</g>
</g>
<g>
	<g>
		<path class="st5" d="M103.3,162.2c-0.3,0.3-0.8,0.5-1.6,0.5h-1.5v-0.9h1.6c0.3,0,0.5-0.1,0.7-0.2c0.1-0.1,0.2-0.4,0.2-0.7v-1.2
			c0-0.3-0.1-0.5-0.2-0.6c-0.2-0.2-0.4-0.2-0.6-0.2h-1.3V158h1.2c0.2,0,0.5-0.1,0.6-0.2c0.2-0.2,0.3-0.4,0.3-0.6v-1
			c0-0.3-0.1-0.5-0.2-0.7c-0.1-0.1-0.4-0.2-0.7-0.2h-1.5v-0.9h1.4c0.7,0,1.2,0.1,1.5,0.4c0.3,0.3,0.5,0.8,0.5,1.4v0.8
			c0,0.6-0.2,1.1-0.7,1.4c0.5,0.3,0.8,0.8,0.8,1.5v1C103.8,161.4,103.6,161.9,103.3,162.2z"/>
		<path class="st5" d="M109.8,162.2c-0.3,0.3-0.8,0.5-1.6,0.5h-1.6v-0.9h1.7c0.3,0,0.5-0.1,0.7-0.2c0.1-0.1,0.2-0.4,0.2-0.7v-1.5
			c0-0.3-0.1-0.5-0.2-0.6c-0.2-0.2-0.4-0.2-0.6-0.2h-1.6v-4.2h3.3v0.9h-2.3v2.4h0.5c0.6,0,1.1,0.2,1.5,0.5s0.5,0.8,0.5,1.4v1.3
			C110.2,161.4,110.1,161.9,109.8,162.2z"/>
	</g>
</g>
<g>
	<g>
		<path class="st5" d="M133.3,162.2c-0.3,0.3-0.8,0.5-1.6,0.5h-1.5v-0.9h1.6c0.3,0,0.5-0.1,0.7-0.2c0.1-0.1,0.2-0.4,0.2-0.7v-1.2
			c0-0.3-0.1-0.5-0.2-0.6c-0.2-0.2-0.4-0.2-0.6-0.2h-1.3V158h1.2c0.2,0,0.5-0.1,0.6-0.2c0.2-0.2,0.3-0.4,0.3-0.6v-1
			c0-0.3-0.1-0.5-0.2-0.7c-0.1-0.1-0.4-0.2-0.7-0.2h-1.5v-0.9h1.4c0.7,0,1.2,0.1,1.5,0.4c0.3,0.3,0.5,0.8,0.5,1.4v0.8
			c0,0.6-0.2,1.1-0.7,1.4c0.5,0.3,0.8,0.8,0.8,1.5v1C133.8,161.4,133.7,161.9,133.3,162.2z"/>
		<path class="st5" d="M140.1,162.1c-0.4,0.4-0.8,0.5-1.4,0.5h-0.4c-0.5,0-1-0.2-1.4-0.5s-0.5-0.9-0.5-1.5v-4.3
			c0-0.7,0.2-1.2,0.5-1.5c0.4-0.3,0.9-0.5,1.6-0.5h1.5v0.9h-1.6c-0.3,0-0.5,0.1-0.7,0.3s-0.3,0.4-0.3,0.6v1.3h1.2
			c0.7,0,1.2,0.2,1.5,0.5s0.5,0.8,0.5,1.5v1.3C140.7,161.3,140.5,161.8,140.1,162.1z M137.7,161.5c0.2,0.2,0.4,0.3,0.7,0.3h0.3
			c0.3,0,0.5-0.1,0.7-0.3s0.3-0.4,0.3-0.6v-1.8c0-0.2-0.1-0.4-0.2-0.6c-0.1-0.1-0.4-0.2-0.7-0.2h-1.3v2.6
			C137.5,161.1,137.5,161.3,137.7,161.5z"/>
	</g>
</g>
<g>
	<g>
		<path class="st5" d="M163.2,162.2c-0.3,0.3-0.8,0.5-1.6,0.5h-1.5v-0.9h1.6c0.3,0,0.5-0.1,0.7-0.2c0.1-0.1,0.2-0.4,0.2-0.7v-1.2
			c0-0.3-0.1-0.5-0.2-0.6c-0.2-0.2-0.4-0.2-0.6-0.2h-1.3V158h1.2c0.2,0,0.5-0.1,0.6-0.2c0.2-0.2,0.3-0.4,0.3-0.6v-1
			c0-0.3-0.1-0.5-0.2-0.7c-0.1-0.1-0.4-0.2-0.7-0.2h-1.5v-0.9h1.4c0.7,0,1.2,0.1,1.5,0.4c0.3,0.3,0.5,0.8,0.5,1.4v0.8
			c0,0.6-0.2,1.1-0.7,1.4c0.5,0.3,0.8,0.8,0.8,1.5v1C163.6,161.4,163.5,161.9,163.2,162.2z"/>
		<path class="st5" d="M169.2,155.2h-2.9v-0.9h3.9v1.2l-2.1,7.2H167L169.2,155.2z"/>
	</g>
</g>
<g>
	<g>
		<path class="st5" d="M193.3,162.2c-0.3,0.3-0.8,0.5-1.6,0.5h-1.5v-0.9h1.6c0.3,0,0.5-0.1,0.7-0.2c0.1-0.1,0.2-0.4,0.2-0.7v-1.2
			c0-0.3-0.1-0.5-0.2-0.6c-0.2-0.2-0.4-0.2-0.6-0.2h-1.3V158h1.2c0.2,0,0.5-0.1,0.6-0.2c0.2-0.2,0.3-0.4,0.3-0.6v-1
			c0-0.3-0.1-0.5-0.2-0.7c-0.1-0.1-0.4-0.2-0.7-0.2h-1.5v-0.9h1.4c0.7,0,1.2,0.1,1.5,0.4c0.3,0.3,0.5,0.8,0.5,1.4v0.8
			c0,0.6-0.2,1.1-0.7,1.4c0.5,0.3,0.8,0.8,0.8,1.5v1C193.8,161.4,193.6,161.9,193.3,162.2z"/>
		<path class="st5" d="M200.2,162.2c-0.3,0.3-0.8,0.5-1.6,0.5h-0.3c-0.7,0-1.2-0.1-1.6-0.5c-0.3-0.3-0.5-0.8-0.5-1.4v-1
			c0-0.7,0.3-1.2,0.8-1.5c-0.4-0.3-0.6-0.8-0.6-1.4v-0.8c0-0.6,0.2-1.1,0.5-1.4s0.8-0.5,1.4-0.5h0.2c0.6,0,1.1,0.2,1.4,0.5
			s0.5,0.8,0.5,1.4v0.8c0,0.6-0.2,1.1-0.6,1.4c0.5,0.3,0.8,0.8,0.8,1.5v1C200.7,161.4,200.5,161.9,200.2,162.2z M199.4,159
			c-0.2-0.2-0.4-0.2-0.6-0.2h-0.6c-0.3,0-0.5,0.1-0.6,0.2c-0.2,0.2-0.2,0.4-0.2,0.6v1.2c0,0.3,0.1,0.5,0.2,0.7
			c0.1,0.1,0.3,0.2,0.6,0.2h0.6c0.3,0,0.5-0.1,0.7-0.2c0.1-0.1,0.2-0.4,0.2-0.7v-1.2C199.7,159.4,199.6,159.2,199.4,159z
			 M197.7,155.4c-0.1,0.1-0.2,0.4-0.2,0.6v1c0,0.3,0.1,0.5,0.2,0.6c0.1,0.2,0.3,0.2,0.6,0.3h0.4c0.2,0,0.5-0.1,0.6-0.2
			c0.2-0.2,0.2-0.4,0.2-0.6v-1c0-0.3-0.1-0.5-0.2-0.7c-0.1-0.1-0.3-0.2-0.7-0.2h-0.4C198,155.2,197.8,155.2,197.7,155.4z"/>
	</g>
</g>
<g>
	<g>
		<path class="st5" d="M223.4,162.2c-0.3,0.3-0.8,0.5-1.6,0.5h-1.5v-0.9h1.6c0.3,0,0.5-0.1,0.7-0.2c0.1-0.1,0.2-0.4,0.2-0.7v-1.2
			c0-0.3-0.1-0.5-0.2-0.6c-0.2-0.2-0.4-0.2-0.6-0.2h-1.3V158h1.2c0.2,0,0.5-0.1,0.6-0.2c0.2-0.2,0.3-0.4,0.3-0.6v-1
			c0-0.3-0.1-0.5-0.2-0.7c-0.1-0.1-0.4-0.2-0.7-0.2h-1.5v-0.9h1.4c0.7,0,1.2,0.1,1.5,0.4c0.3,0.3,0.5,0.8,0.5,1.4v0.8
			c0,0.6-0.2,1.1-0.7,1.4c0.5,0.3,0.8,0.8,0.8,1.5v1C223.9,161.4,223.7,161.9,223.4,162.2z"/>
		<path class="st5" d="M227,154.8c0.4-0.4,0.8-0.5,1.4-0.5h0.4c0.5,0,1,0.2,1.4,0.5c0.4,0.4,0.5,0.9,0.5,1.5v4.3
			c0,0.7-0.2,1.2-0.5,1.5c-0.4,0.3-0.9,0.5-1.6,0.5h-1.4v-0.9h1.5c0.3,0,0.5-0.1,0.7-0.3s0.3-0.4,0.3-0.6v-1.3h-1.2
			c-0.7,0-1.2-0.2-1.5-0.5s-0.5-0.8-0.5-1.5v-1.3C226.5,155.6,226.7,155.1,227,154.8z M229.4,155.4c-0.2-0.2-0.4-0.3-0.7-0.3h-0.3
			c-0.3,0-0.5,0.1-0.7,0.3s-0.3,0.4-0.3,0.6v1.8c0,0.2,0.1,0.4,0.2,0.6c0.1,0.1,0.4,0.2,0.7,0.2h1.3V156
			C229.7,155.8,229.6,155.6,229.4,155.4z"/>
	</g>
</g>
<g>
	<g>
		<path class="st5" d="M252.3,162.7v-1.9h-2.5v-1l1.3-5.5h1l-1.2,5.7h1.4v-2.7h1v2.7h0.9v0.9h-0.9v1.9L252.3,162.7L252.3,162.7z"/>
		<path class="st5" d="M260.1,162.1c-0.4,0.3-0.9,0.5-1.5,0.5h-0.2c-0.6,0-1.1-0.2-1.5-0.5s-0.5-0.9-0.5-1.5v-4.3
			c0-0.7,0.2-1.2,0.5-1.5c0.4-0.3,0.9-0.5,1.5-0.5h0.2c0.6,0,1.1,0.2,1.5,0.5s0.5,0.9,0.5,1.5v4.3
			C260.6,161.3,260.4,161.8,260.1,162.1z M259.3,155.4c-0.2-0.2-0.4-0.3-0.7-0.3h-0.2c-0.3,0-0.5,0.1-0.7,0.3s-0.3,0.4-0.3,0.6v3.3
			l2.2-3.3C259.6,155.8,259.5,155.6,259.3,155.4z M257.6,161.5c0.2,0.2,0.4,0.3,0.7,0.3h0.2c0.3,0,0.5-0.1,0.7-0.3s0.3-0.4,0.3-0.6
			v-3.2l-2.2,3.2C257.3,161.1,257.4,161.3,257.6,161.5z"/>
	</g>
</g>
<g>
	<g>
		<path class="st5" d="M42,181.7v-1.9h-2.5v-1l1.3-5.5h1l-1.2,5.7H42v-2.7h1v2.7h1v0.9h-0.9v1.9L42,181.7L42,181.7z"/>
		<path class="st5" d="M47.9,180.8v-6.6l-1.7,0.6v-1l1.6-0.6h1.1v7.5h1.3v0.9h-3.9v-0.9h1.6C47.9,180.7,47.9,180.8,47.9,180.8z"/>
	</g>
</g>
<g>
	<g>
		<path class="st5" d="M72.1,181.7v-1.9h-2.5v-1l1.3-5.5h1l-1.2,5.7h1.4v-2.7h1v2.7H74v0.9h-0.9v1.9L72.1,181.7L72.1,181.7z"/>
		<path class="st5" d="M78.2,177.9c0.3-0.4,0.4-0.6,0.5-0.8s0.2-0.3,0.2-0.5s0-0.4,0-0.7v-0.8c0-0.2-0.1-0.5-0.3-0.6
			c-0.2-0.2-0.4-0.3-0.7-0.3h-1.4v-0.9h1.3c0.7,0,1.2,0.2,1.6,0.5s0.6,0.9,0.6,1.5v0.5c0,0.4,0,0.7-0.1,1c-0.1,0.2-0.1,0.5-0.2,0.7
			s-0.3,0.5-0.5,0.8l-1.8,2.5h2.9v0.9h-4v-1.1L78.2,177.9z"/>
	</g>
</g>
<g>
	<g>
		<path class="st5" d="M102.2,181.7v-1.9h-2.5v-1l1.3-5.5h1l-1.2,5.7h1.4v-2.7h1v2.7h0.9v0.9h-0.9v1.9L102.2,181.7L102.2,181.7z"/>
		<path class="st5" d="M109.8,181.2c-0.3,0.3-0.8,0.5-1.6,0.5h-1.5v-0.9h1.6c0.3,0,0.5-0.1,0.7-0.2c0.1-0.1,0.2-0.4,0.2-0.7v-1.2
			c0-0.3-0.1-0.5-0.2-0.6c-0.2-0.2-0.4-0.2-0.6-0.2H107V177h1.2c0.2,0,0.5-0.1,0.6-0.2c0.2-0.2,0.3-0.4,0.3-0.6v-1
			c0-0.3-0.1-0.5-0.2-0.7c-0.1-0.1-0.4-0.2-0.7-0.2h-1.5v-0.9h1.4c0.7,0,1.2,0.1,1.5,0.4c0.3,0.3,0.5,0.8,0.5,1.4v0.8
			c0,0.6-0.2,1.1-0.7,1.4c0.5,0.3,0.8,0.8,0.8,1.5v1C110.2,180.4,110.1,180.9,109.8,181.2z"/>
	</g>
</g>
<g>
	<g>
		<path class="st5" d="M132.3,181.7v-1.9h-2.5v-1l1.3-5.5h1l-1.2,5.7h1.4v-2.7h1v2.7h0.9v0.9h-0.9v1.9L132.3,181.7L132.3,181.7z"/>
		<path class="st5" d="M138.8,181.7v-1.9h-2.5v-1l1.3-5.5h1l-1.2,5.7h1.4v-2.7h1v2.7h0.9v0.9h-0.9v1.9L138.8,181.7L138.8,181.7z"/>
	</g>
</g>
<g>
	<g>
		<path class="st5" d="M162.1,181.7v-1.9h-2.5v-1l1.3-5.5h1l-1.2,5.7h1.4v-2.7h1v2.7h0.9v0.9h-0.9v1.9L162.1,181.7L162.1,181.7z"/>
		<path class="st5" d="M169.6,181.2c-0.3,0.3-0.8,0.5-1.6,0.5h-1.6v-0.9h1.7c0.3,0,0.5-0.1,0.7-0.2c0.1-0.1,0.2-0.4,0.2-0.7v-1.5
			c0-0.3-0.1-0.5-0.2-0.6c-0.2-0.2-0.4-0.2-0.6-0.2h-1.6v-4.2h3.3v0.9h-2.3v2.4h0.5c0.6,0,1.1,0.2,1.5,0.5s0.5,0.8,0.5,1.4v1.3
			C170.1,180.4,170,180.9,169.6,181.2z"/>
	</g>
</g>
<g>
	<g>
		<path class="st5" d="M192.3,181.7v-1.9h-2.5v-1l1.3-5.5h1l-1.2,5.7h1.4v-2.7h1v2.7h0.9v0.9h-0.9v1.9L192.3,181.7L192.3,181.7z"/>
		<path class="st5" d="M200.1,181.1c-0.4,0.4-0.8,0.5-1.4,0.5h-0.4c-0.5,0-1-0.2-1.4-0.5s-0.5-0.9-0.5-1.5v-4.3
			c0-0.7,0.2-1.2,0.5-1.5c0.4-0.3,0.9-0.5,1.6-0.5h1.5v0.9h-1.6c-0.3,0-0.5,0.1-0.7,0.3s-0.3,0.4-0.3,0.6v1.3h1.2
			c0.7,0,1.2,0.2,1.5,0.5s0.5,0.8,0.5,1.5v1.3C200.6,180.3,200.5,180.8,200.1,181.1z M197.7,180.5c0.2,0.2,0.4,0.3,0.7,0.3h0.3
			c0.3,0,0.5-0.1,0.7-0.3s0.3-0.4,0.3-0.6v-1.8c0-0.2-0.1-0.4-0.2-0.6c-0.1-0.1-0.4-0.2-0.7-0.2h-1.3v2.6
			C197.4,180.1,197.5,180.3,197.7,180.5z"/>
	</g>
</g>
<g>
	<g>
		<path class="st5" d="M222.4,181.7v-1.9h-2.5v-1l1.3-5.5h1L221,179h1.4v-2.7h1v2.7h0.9v0.9h-0.9v1.9L222.4,181.7L222.4,181.7z"/>
		<path class="st5" d="M229.5,174.2h-2.9v-0.9h3.9v1.2l-2.1,7.2h-1.1L229.5,174.2z"/>
	</g>
</g>
<g>
	<g>
		<path class="st5" d="M252.3,181.7v-1.9h-2.5v-1l1.3-5.5h1l-1.2,5.7h1.4v-2.7h1v2.7h0.9v0.9h-0.9v1.9L252.3,181.7L252.3,181.7z"/>
		<path class="st5" d="M260.2,181.2c-0.3,0.3-0.8,0.5-1.6,0.5h-0.3c-0.7,0-1.2-0.1-1.6-0.5c-0.3-0.3-0.5-0.8-0.5-1.4v-1
			c0-0.7,0.3-1.2,0.8-1.5c-0.4-0.3-0.6-0.8-0.6-1.4v-0.8c0-0.6,0.2-1.1,0.5-1.4s0.8-0.5,1.4-0.5h0.2c0.6,0,1.1,0.2,1.4,0.5
			s0.5,0.8,0.5,1.4v0.8c0,0.6-0.2,1.1-0.6,1.4c0.5,0.3,0.8,0.8,0.8,1.5v1C260.7,180.4,260.5,180.9,260.2,181.2z M259.4,178
			c-0.2-0.2-0.4-0.2-0.6-0.2h-0.6c-0.3,0-0.5,0.1-0.6,0.2c-0.2,0.2-0.2,0.4-0.2,0.6v1.2c0,0.3,0.1,0.5,0.2,0.7
			c0.1,0.1,0.3,0.2,0.6,0.2h0.6c0.3,0,0.5-0.1,0.7-0.2c0.1-0.1,0.2-0.4,0.2-0.7v-1.2C259.6,178.4,259.5,178.2,259.4,178z
			 M257.6,174.4c-0.1,0.1-0.2,0.4-0.2,0.6v1c0,0.3,0.1,0.5,0.2,0.6c0.1,0.2,0.3,0.2,0.6,0.3h0.4c0.2,0,0.5-0.1,0.6-0.2
			c0.2-0.2,0.2-0.4,0.2-0.6v-1c0-0.3-0.1-0.5-0.2-0.7c-0.1-0.1-0.3-0.2-0.7-0.2h-0.4C257.9,174.2,257.7,174.2,257.6,174.4z"/>
	</g>
</g>
<g>
	<g>
		<path class="st5" d="M42,200.7v-1.9h-2.5v-1l1.3-5.5h1l-1.2,5.7H42v-2.7h1v2.7h1v0.9h-0.9v1.9L42,200.7L42,200.7z"/>
		<path class="st5" d="M46.7,192.9c0.4-0.4,0.8-0.5,1.4-0.5h0.4c0.5,0,1,0.2,1.4,0.5c0.4,0.4,0.5,0.9,0.5,1.5v4.3
			c0,0.7-0.2,1.2-0.5,1.5c-0.4,0.3-0.9,0.5-1.6,0.5h-1.4v-0.9h1.5c0.3,0,0.5-0.1,0.7-0.3s0.3-0.4,0.3-0.6v-1.3h-1.2
			c-0.7,0-1.2-0.2-1.5-0.5s-0.5-0.8-0.5-1.5v-1.3C46.2,193.7,46.3,193.2,46.7,192.9z M49.1,193.5c-0.2-0.2-0.4-0.3-0.7-0.3h-0.3
			c-0.3,0-0.5,0.1-0.7,0.3s-0.3,0.4-0.3,0.6v1.8c0,0.2,0.1,0.4,0.2,0.6c0.1,0.1,0.4,0.2,0.7,0.2h1.3v-2.6
			C49.3,193.9,49.3,193.7,49.1,193.5z"/>
	</g>
</g>
<g>
	<g>
		<path class="st5" d="M73.1,200.3c-0.3,0.3-0.8,0.5-1.6,0.5H70v-0.9h1.7c0.3,0,0.5-0.1,0.7-0.2c0.1-0.1,0.2-0.4,0.2-0.7v-1.5
			c0-0.3-0.1-0.5-0.2-0.6s-0.4-0.2-0.6-0.2h-1.6v-4.2h3.3v0.9h-2.3v2.4h0.5c0.6,0,1.1,0.2,1.5,0.5s0.5,0.8,0.5,1.4v1.3
			C73.6,199.5,73.4,200,73.1,200.3z"/>
		<path class="st5" d="M79.9,200.2c-0.4,0.3-0.9,0.5-1.5,0.5h-0.2c-0.6,0-1.1-0.2-1.5-0.5s-0.5-0.9-0.5-1.5v-4.3
			c0-0.7,0.2-1.2,0.5-1.5c0.4-0.3,0.9-0.5,1.5-0.5h0.2c0.6,0,1.1,0.2,1.5,0.5s0.5,0.9,0.5,1.5v4.3C80.4,199.3,80.2,199.9,79.9,200.2
			z M79.1,193.5c-0.2-0.2-0.4-0.3-0.7-0.3h-0.2c-0.3,0-0.5,0.1-0.7,0.3s-0.3,0.4-0.3,0.6v3.3l2.2-3.3
			C79.4,193.9,79.3,193.7,79.1,193.5z M77.4,199.6c0.2,0.2,0.4,0.3,0.7,0.3h0.2c0.3,0,0.5-0.1,0.7-0.3s0.3-0.4,0.3-0.6v-3.2
			l-2.2,3.2C77.2,199.2,77.3,199.4,77.4,199.6z"/>
	</g>
</g>
<g>
	<g>
		<path class="st5" d="M103.3,200.3c-0.3,0.3-0.8,0.5-1.6,0.5h-1.6v-0.9h1.7c0.3,0,0.5-0.1,0.7-0.2c0.1-0.1,0.2-0.4,0.2-0.7v-1.5
			c0-0.3-0.1-0.5-0.2-0.6s-0.4-0.2-0.6-0.2h-1.6v-4.2h3.3v0.9h-2.3v2.4h0.5c0.6,0,1.1,0.2,1.5,0.5s0.5,0.8,0.5,1.4v1.3
			C103.8,199.5,103.6,200,103.3,200.3z"/>
		<path class="st5" d="M108.1,199.8v-6.6l-1.7,0.6v-1l1.6-0.6h1.1v7.5h1.3v0.9h-3.9v-0.9h1.6V199.8z"/>
	</g>
</g>
<g>
	<g>
		<path class="st5" d="M133.4,200.3c-0.3,0.3-0.8,0.5-1.6,0.5h-1.6v-0.9h1.7c0.3,0,0.5-0.1,0.7-0.2c0.1-0.1,0.2-0.4,0.2-0.7v-1.5
			c0-0.3-0.1-0.5-0.2-0.6s-0.4-0.2-0.6-0.2h-1.6v-4.2h3.3v0.9h-2.3v2.4h0.5c0.6,0,1.1,0.2,1.5,0.5s0.5,0.8,0.5,1.4v1.3
			C133.8,199.5,133.7,200,133.4,200.3z"/>
		<path class="st5" d="M138.5,196.9c0.3-0.4,0.4-0.6,0.5-0.8s0.2-0.3,0.2-0.5s0-0.4,0-0.7v-0.8c0-0.2-0.1-0.5-0.3-0.6
			c-0.2-0.2-0.4-0.3-0.7-0.3h-1.4v-0.9h1.3c0.7,0,1.2,0.2,1.6,0.5s0.6,0.8,0.6,1.5v0.5c0,0.4,0,0.7-0.1,1c-0.1,0.2-0.1,0.5-0.2,0.7
			c-0.1,0.2-0.3,0.5-0.5,0.8l-1.8,2.5h2.9v0.9h-4v-1.1L138.5,196.9z"/>
	</g>
</g>
<g>
	<g>
		<path class="st5" d="M163.2,200.3c-0.3,0.3-0.8,0.5-1.6,0.5H160v-0.9h1.7c0.3,0,0.5-0.1,0.7-0.2c0.1-0.1,0.2-0.4,0.2-0.7v-1.5
			c0-0.3-0.1-0.5-0.2-0.6s-0.4-0.2-0.6-0.2h-1.6v-4.2h3.3v0.9h-2.3v2.4h0.5c0.6,0,1.1,0.2,1.5,0.5s0.5,0.8,0.5,1.4v1.3
			C163.6,199.5,163.5,200,163.2,200.3z"/>
		<path class="st5" d="M169.6,200.3c-0.3,0.3-0.8,0.5-1.6,0.5h-1.5v-0.9h1.6c0.3,0,0.5-0.1,0.7-0.2c0.1-0.1,0.2-0.4,0.2-0.7v-1.2
			c0-0.3-0.1-0.5-0.2-0.6s-0.4-0.2-0.6-0.2h-1.3v-0.9h1.2c0.2,0,0.5-0.1,0.6-0.2s0.3-0.4,0.3-0.6v-1c0-0.3-0.1-0.5-0.2-0.7
			c-0.1-0.1-0.4-0.2-0.7-0.2h-1.5v-0.9h1.4c0.7,0,1.2,0.1,1.5,0.4c0.3,0.3,0.5,0.8,0.5,1.4v0.8c0,0.6-0.2,1.1-0.7,1.4
			c0.5,0.3,0.8,0.8,0.8,1.5v1C170.1,199.5,170,200,169.6,200.3z"/>
	</g>
</g>
<g>
	<g>
		<path class="st5" d="M193.3,200.3c-0.3,0.3-0.8,0.5-1.6,0.5h-1.6v-0.9h1.7c0.3,0,0.5-0.1,0.7-0.2c0.1-0.1,0.2-0.4,0.2-0.7v-1.5
			c0-0.3-0.1-0.5-0.2-0.6s-0.4-0.2-0.6-0.2h-1.6v-4.2h3.3v0.9h-2.3v2.4h0.5c0.6,0,1.1,0.2,1.5,0.5s0.5,0.8,0.5,1.4v1.3
			C193.8,199.5,193.7,200,193.3,200.3z"/>
		<path class="st5" d="M198.8,200.7v-1.9h-2.5v-1l1.3-5.5h1l-1.2,5.7h1.4v-2.7h1v2.7h0.9v0.9h-0.9v1.9L198.8,200.7L198.8,200.7z"/>
	</g>
</g>
<g>
	<g>
		<path class="st5" d="M223.4,200.3c-0.3,0.3-0.8,0.5-1.6,0.5h-1.6v-0.9h1.7c0.3,0,0.5-0.1,0.7-0.2c0.1-0.1,0.2-0.4,0.2-0.7v-1.5
			c0-0.3-0.1-0.5-0.2-0.6s-0.4-0.2-0.6-0.2h-1.6v-4.2h3.3v0.9h-2.3v2.4h0.5c0.6,0,1.1,0.2,1.5,0.5s0.5,0.8,0.5,1.4v1.3
			C223.9,199.5,223.7,200,223.4,200.3z"/>
		<path class="st5" d="M229.9,200.3c-0.3,0.3-0.8,0.5-1.6,0.5h-1.6v-0.9h1.7c0.3,0,0.5-0.1,0.7-0.2c0.1-0.1,0.2-0.4,0.2-0.7v-1.5
			c0-0.3-0.1-0.5-0.2-0.6s-0.4-0.2-0.6-0.2h-1.6v-4.2h3.3v0.9h-2.3v2.4h0.5c0.6,0,1.1,0.2,1.5,0.5s0.5,0.8,0.5,1.4v1.3
			C230.4,199.5,230.2,200,229.9,200.3z"/>
	</g>
</g>
<g>
	<g>
		<path class="st5" d="M253.3,200.3c-0.3,0.3-0.8,0.5-1.6,0.5h-1.6v-0.9h1.7c0.3,0,0.5-0.1,0.7-0.2c0.1-0.1,0.2-0.4,0.2-0.7v-1.5
			c0-0.3-0.1-0.5-0.2-0.6s-0.4-0.2-0.6-0.2h-1.6v-4.2h3.3v0.9h-2.3v2.4h0.5c0.6,0,1.1,0.2,1.5,0.5s0.5,0.8,0.5,1.4v1.3
			C253.8,199.5,253.6,200,253.3,200.3z"/>
		<path class="st5" d="M260.1,200.2c-0.4,0.4-0.8,0.5-1.4,0.5h-0.4c-0.5,0-1-0.2-1.4-0.5c-0.4-0.4-0.5-0.9-0.5-1.5v-4.3
			c0-0.7,0.2-1.2,0.5-1.5s0.9-0.5,1.6-0.5h1.5v0.9h-1.6c-0.3,0-0.5,0.1-0.7,0.3s-0.3,0.4-0.3,0.6v1.3h1.2c0.7,0,1.2,0.2,1.5,0.5
			s0.5,0.8,0.5,1.5v1.3C260.6,199.3,260.4,199.8,260.1,200.2z M257.7,199.6c0.2,0.2,0.4,0.3,0.7,0.3h0.3c0.3,0,0.5-0.1,0.7-0.3
			s0.3-0.4,0.3-0.6v-1.8c0-0.2-0.1-0.4-0.2-0.6c-0.1-0.1-0.4-0.2-0.7-0.2h-1.3v2.6C257.4,199.2,257.5,199.4,257.7,199.6z"/>
	</g>
</g>
<g>
	<g>
		<path class="st5" d="M43.1,219.3c-0.3,0.3-0.8,0.5-1.6,0.5h-1.6v-0.9h1.7c0.3,0,0.5-0.1,0.7-0.2c0.1-0.1,0.2-0.4,0.2-0.7v-1.5
			c0-0.3-0.1-0.5-0.2-0.6s-0.4-0.2-0.6-0.2h-1.6v-4.2h3.3v0.9h-2.3v2.4h0.5c0.6,0,1.1,0.2,1.5,0.5s0.5,0.8,0.5,1.4v1.3
			C43.6,218.5,43.4,219,43.1,219.3z"/>
		<path class="st5" d="M49.2,212.2h-2.9v-0.9h3.9v1.2l-2.1,7.2H47L49.2,212.2z"/>
	</g>
</g>
<g>
	<g>
		<path class="st5" d="M73.1,219.3c-0.3,0.3-0.8,0.5-1.6,0.5H70v-0.9h1.7c0.3,0,0.5-0.1,0.7-0.2c0.1-0.1,0.2-0.4,0.2-0.7v-1.5
			c0-0.3-0.1-0.5-0.2-0.6s-0.4-0.2-0.6-0.2h-1.6v-4.2h3.3v0.9h-2.3v2.4h0.5c0.6,0,1.1,0.2,1.5,0.5s0.5,0.8,0.5,1.4v1.3
			C73.6,218.5,73.4,219,73.1,219.3z"/>
		<path class="st5" d="M80,219.3c-0.3,0.3-0.8,0.5-1.6,0.5h-0.3c-0.7,0-1.2-0.1-1.6-0.5c-0.3-0.3-0.5-0.8-0.5-1.4v-1
			c0-0.7,0.3-1.2,0.8-1.5c-0.4-0.3-0.6-0.8-0.6-1.4v-0.8c0-0.6,0.2-1.1,0.5-1.4c0.3-0.3,0.8-0.5,1.4-0.5h0.2c0.6,0,1.1,0.2,1.4,0.5
			s0.5,0.8,0.5,1.4v0.8c0,0.6-0.2,1.1-0.6,1.4c0.5,0.3,0.8,0.8,0.8,1.5v1C80.5,218.5,80.3,219,80,219.3z M79.2,216.1
			c-0.2-0.2-0.4-0.2-0.6-0.2H78c-0.3,0-0.5,0.1-0.6,0.2c-0.2,0.2-0.2,0.4-0.2,0.6v1.2c0,0.3,0.1,0.5,0.2,0.7
			c0.1,0.1,0.3,0.2,0.6,0.2h0.6c0.3,0,0.5-0.1,0.7-0.2c0.1-0.1,0.2-0.4,0.2-0.7v-1.2C79.4,216.4,79.4,216.2,79.2,216.1z M77.4,212.4
			c-0.1,0.1-0.2,0.4-0.2,0.6v1c0,0.3,0.1,0.5,0.2,0.6c0.1,0.2,0.3,0.2,0.6,0.3h0.4c0.2,0,0.5-0.1,0.6-0.2c0.2-0.2,0.2-0.4,0.2-0.6
			v-1c0-0.3-0.1-0.5-0.2-0.7c-0.1-0.1-0.3-0.2-0.7-0.2H78C77.7,212.2,77.5,212.3,77.4,212.4z"/>
	</g>
</g>
<g>
	<g>
		<path class="st5" d="M103.3,219.3c-0.3,0.3-0.8,0.5-1.6,0.5h-1.6v-0.9h1.7c0.3,0,0.5-0.1,0.7-0.2c0.1-0.1,0.2-0.4,0.2-0.7v-1.5
			c0-0.3-0.1-0.5-0.2-0.6s-0.4-0.2-0.6-0.2h-1.6v-4.2h3.3v0.9h-2.3v2.4h0.5c0.6,0,1.1,0.2,1.5,0.5s0.5,0.8,0.5,1.4v1.3
			C103.8,218.5,103.6,219,103.3,219.3z"/>
		<path class="st5" d="M106.9,211.9c0.4-0.4,0.8-0.5,1.4-0.5h0.4c0.5,0,1,0.2,1.4,0.5c0.4,0.4,0.5,0.9,0.5,1.5v4.3
			c0,0.7-0.2,1.2-0.5,1.5c-0.4,0.3-0.9,0.5-1.6,0.5h-1.4v-0.9h1.5c0.3,0,0.5-0.1,0.7-0.3s0.3-0.4,0.3-0.6v-1.3h-1.2
			c-0.7,0-1.2-0.2-1.5-0.5s-0.5-0.8-0.5-1.5v-1.3C106.4,212.7,106.5,212.2,106.9,211.9z M109.3,212.5c-0.2-0.2-0.4-0.3-0.7-0.3h-0.3
			c-0.3,0-0.5,0.1-0.7,0.3s-0.3,0.4-0.3,0.6v1.8c0,0.2,0.1,0.4,0.2,0.6c0.1,0.1,0.4,0.2,0.7,0.2h1.3v-2.6
			C109.5,212.9,109.5,212.7,109.3,212.5z"/>
	</g>
</g>
<g>
	<g>
		<path class="st5" d="M133.6,219.2c-0.4,0.4-0.8,0.5-1.4,0.5h-0.4c-0.5,0-1-0.2-1.4-0.5c-0.4-0.4-0.5-0.9-0.5-1.5v-4.3
			c0-0.7,0.2-1.2,0.5-1.5s0.9-0.5,1.6-0.5h1.5v0.9H132c-0.3,0-0.5,0.1-0.7,0.3s-0.3,0.4-0.3,0.6v1.3h1.2c0.7,0,1.2,0.2,1.5,0.5
			s0.5,0.8,0.5,1.5v1.3C134.2,218.3,134,218.8,133.6,219.2z M131.2,218.6c0.2,0.2,0.4,0.3,0.7,0.3h0.3c0.3,0,0.5-0.1,0.7-0.3
			s0.3-0.4,0.3-0.6v-1.8c0-0.2-0.1-0.4-0.2-0.6c-0.1-0.1-0.4-0.2-0.7-0.2H131v2.6C131,218.2,131.1,218.4,131.2,218.6z"/>
		<path class="st5" d="M140.1,219.2c-0.4,0.3-0.9,0.5-1.5,0.5h-0.2c-0.6,0-1.1-0.2-1.5-0.5s-0.5-0.9-0.5-1.5v-4.3
			c0-0.7,0.2-1.2,0.5-1.5c0.4-0.3,0.9-0.5,1.5-0.5h0.2c0.6,0,1.1,0.2,1.5,0.5s0.5,0.9,0.5,1.5v4.3
			C140.7,218.3,140.5,218.9,140.1,219.2z M139.4,212.5c-0.2-0.2-0.4-0.3-0.7-0.3h-0.2c-0.3,0-0.5,0.1-0.7,0.3s-0.3,0.4-0.3,0.6v3.3
			l2.2-3.3C139.6,212.9,139.5,212.7,139.4,212.5z M137.7,218.6c0.2,0.2,0.4,0.3,0.7,0.3h0.2c0.3,0,0.5-0.1,0.7-0.3s0.3-0.4,0.3-0.6
			v-3.2l-2.2,3.2C137.4,218.2,137.5,218.4,137.7,218.6z"/>
	</g>
</g>
<g>
	<g>
		<path class="st5" d="M163.4,219.2c-0.4,0.4-0.8,0.5-1.4,0.5h-0.4c-0.5,0-1-0.2-1.4-0.5c-0.4-0.4-0.5-0.9-0.5-1.5v-4.3
			c0-0.7,0.2-1.2,0.5-1.5s0.9-0.5,1.6-0.5h1.5v0.9h-1.6c-0.3,0-0.5,0.1-0.7,0.3s-0.3,0.4-0.3,0.6v1.3h1.2c0.7,0,1.2,0.2,1.5,0.5
			s0.5,0.8,0.5,1.5v1.3C164,218.3,163.8,218.8,163.4,219.2z M161,218.6c0.2,0.2,0.4,0.3,0.7,0.3h0.3c0.3,0,0.5-0.1,0.7-0.3
			s0.3-0.4,0.3-0.6v-1.8c0-0.2-0.1-0.4-0.2-0.6c-0.1-0.1-0.4-0.2-0.7-0.2h-1.3v2.6C160.8,218.2,160.9,218.4,161,218.6z"/>
		<path class="st5" d="M168,218.8v-6.6l-1.7,0.6v-1l1.6-0.6h1.1v7.5h1.3v0.9h-3.9v-0.9h1.6L168,218.8L168,218.8z"/>
	</g>
</g>
<g>
	<g>
		<path class="st5" d="M193.6,219.2c-0.4,0.4-0.8,0.5-1.4,0.5h-0.4c-0.5,0-1-0.2-1.4-0.5c-0.4-0.4-0.5-0.9-0.5-1.5v-4.3
			c0-0.7,0.2-1.2,0.5-1.5s0.9-0.5,1.6-0.5h1.5v0.9H192c-0.3,0-0.5,0.1-0.7,0.3s-0.3,0.4-0.3,0.6v1.3h1.2c0.7,0,1.2,0.2,1.5,0.5
			s0.5,0.8,0.5,1.5v1.3C194.2,218.3,194,218.8,193.6,219.2z M191.2,218.6c0.2,0.2,0.4,0.3,0.7,0.3h0.3c0.3,0,0.5-0.1,0.7-0.3
			s0.3-0.4,0.3-0.6v-1.8c0-0.2-0.1-0.4-0.2-0.6c-0.1-0.1-0.4-0.2-0.7-0.2H191v2.6C191,218.2,191,218.4,191.2,218.6z"/>
		<path class="st5" d="M198.4,215.9c0.3-0.4,0.4-0.6,0.5-0.8s0.2-0.3,0.2-0.5s0-0.4,0-0.7v-0.8c0-0.2-0.1-0.5-0.3-0.6
			c-0.2-0.2-0.4-0.3-0.7-0.3h-1.4v-0.9h1.3c0.7,0,1.2,0.2,1.6,0.5s0.6,0.8,0.6,1.5v0.5c0,0.4,0,0.7-0.1,1c-0.1,0.2-0.1,0.5-0.2,0.7
			c-0.1,0.2-0.3,0.5-0.5,0.8l-1.8,2.5h2.9v0.9h-4v-1.1L198.4,215.9z"/>
	</g>
</g>
<g>
	<g>
		<path class="st5" d="M223.7,219.2c-0.4,0.4-0.8,0.5-1.4,0.5h-0.4c-0.5,0-1-0.2-1.4-0.5c-0.4-0.4-0.5-0.9-0.5-1.5v-4.3
			c0-0.7,0.2-1.2,0.5-1.5s0.9-0.5,1.6-0.5h1.5v0.9H222c-0.3,0-0.5,0.1-0.7,0.3s-0.3,0.4-0.3,0.6v1.3h1.2c0.7,0,1.2,0.2,1.5,0.5
			s0.5,0.8,0.5,1.5v1.3C224.2,218.3,224,218.8,223.7,219.2z M221.3,218.6c0.2,0.2,0.4,0.3,0.7,0.3h0.3c0.3,0,0.5-0.1,0.7-0.3
			s0.3-0.4,0.3-0.6v-1.8c0-0.2-0.1-0.4-0.2-0.6c-0.1-0.1-0.4-0.2-0.7-0.2H221v2.6C221,218.2,221.1,218.4,221.3,218.6z"/>
		<path class="st5" d="M229.9,219.3c-0.3,0.3-0.8,0.5-1.6,0.5h-1.5v-0.9h1.6c0.3,0,0.5-0.1,0.7-0.2c0.1-0.1,0.2-0.4,0.2-0.7v-1.2
			c0-0.3-0.1-0.5-0.2-0.6s-0.4-0.2-0.6-0.2h-1.3v-0.9h1.2c0.2,0,0.5-0.1,0.6-0.2s0.3-0.4,0.3-0.6v-1c0-0.3-0.1-0.5-0.2-0.7
			c-0.1-0.1-0.4-0.2-0.7-0.2h-1.5v-0.9h1.4c0.7,0,1.2,0.1,1.5,0.4c0.3,0.3,0.5,0.8,0.5,1.4v0.8c0,0.6-0.2,1.1-0.7,1.4
			c0.5,0.3,0.8,0.8,0.8,1.5v1C230.4,218.5,230.2,219,229.9,219.3z"/>
	</g>
</g>
<g>
	<g>
		<path class="st5" d="M253.6,219.2c-0.4,0.4-0.8,0.5-1.4,0.5h-0.4c-0.5,0-1-0.2-1.4-0.5c-0.4-0.4-0.5-0.9-0.5-1.5v-4.3
			c0-0.7,0.2-1.2,0.5-1.5s0.9-0.5,1.6-0.5h1.5v0.9h-1.6c-0.3,0-0.5,0.1-0.7,0.3s-0.3,0.4-0.3,0.6v1.3h1.2c0.7,0,1.2,0.2,1.5,0.5
			s0.5,0.8,0.5,1.5v1.3C254.1,218.3,253.9,218.8,253.6,219.2z M251.2,218.6c0.2,0.2,0.4,0.3,0.7,0.3h0.3c0.3,0,0.5-0.1,0.7-0.3
			s0.3-0.4,0.3-0.6v-1.8c0-0.2-0.1-0.4-0.2-0.6c-0.1-0.1-0.4-0.2-0.7-0.2H251v2.6C250.9,218.2,251,218.4,251.2,218.6z"/>
		<path class="st5" d="M258.7,219.7v-1.9h-2.5v-1l1.3-5.5h1l-1.2,5.7h1.4v-2.7h1v2.7h0.9v0.9h-0.9v1.9L258.7,219.7L258.7,219.7z"/>
	</g>
</g>
<g>
	<g>
		<path class="st5" d="M165.8,59.3v0.9h-3V63h2.7v0.9h-2.7v3h3v0.9h-4v-8.4h4V59.3z"/>
		<path class="st5" d="M169,61.7V62c0.2-0.2,0.6-0.3,1-0.3h0.6c0.6,0,1.1,0.2,1.4,0.5s0.5,0.8,0.5,1.5v4.1h-1v-4.3
			c0-0.2-0.1-0.4-0.2-0.6c-0.1-0.1-0.3-0.2-0.6-0.2h-0.8c-0.3,0-0.5,0.1-0.6,0.2c-0.1,0.1-0.2,0.3-0.2,0.5v4.4h-1v-6h0.9L169,61.7
			L169,61.7z"/>
		<path class="st5" d="M177.1,67.7h-0.5c-0.7,0-1.2-0.1-1.5-0.5c-0.3-0.3-0.5-0.8-0.5-1.5v-2.2c0-0.7,0.2-1.2,0.5-1.5
			s0.8-0.5,1.5-0.5h1.4v-2.4h1v8.4h-1v-0.3C177.8,67.7,177.4,67.7,177.1,67.7z M177.8,66.6c0.1-0.1,0.2-0.3,0.2-0.5v-3.5h-1.5
			c-0.3,0-0.5,0.1-0.7,0.2c-0.2,0.1-0.2,0.3-0.2,0.6V66c0,0.2,0.1,0.4,0.2,0.6c0.2,0.1,0.4,0.2,0.7,0.2h0.7
			C177.4,66.8,177.6,66.8,177.8,66.6z"/>
		<path class="st5" d="M183.8,61.7v1.2h-1.2v-1.2H183.8z M183.8,66.5v1.2h-1.2v-1.2H183.8z"/>
		<path class="st5" d="M197.9,67.3c-0.3,0.3-0.8,0.5-1.6,0.5H196c-0.7,0-1.2-0.1-1.6-0.5c-0.3-0.3-0.5-0.8-0.5-1.4v-1
			c0-0.7,0.3-1.2,0.8-1.5c-0.4-0.3-0.6-0.8-0.6-1.4v-0.8c0-0.6,0.2-1.1,0.5-1.4s0.8-0.5,1.4-0.5h0.2c0.6,0,1.1,0.2,1.4,0.5
			s0.5,0.8,0.5,1.4V62c0,0.6-0.2,1.1-0.6,1.4c0.5,0.3,0.8,0.8,0.8,1.5v1C198.4,66.5,198.2,67,197.9,67.3z M197.1,64.1
			c-0.2-0.2-0.4-0.2-0.6-0.2h-0.6c-0.3,0-0.5,0.1-0.6,0.2c-0.2,0.2-0.2,0.4-0.2,0.6V66c0,0.3,0.1,0.5,0.2,0.7
			c0.1,0.1,0.3,0.2,0.6,0.2h0.6c0.3,0,0.5-0.1,0.7-0.2c0.1-0.1,0.2-0.4,0.2-0.7v-1.2C197.4,64.5,197.3,64.3,197.1,64.1z M195.4,60.5
			c-0.1,0.1-0.2,0.4-0.2,0.6v1c0,0.3,0.1,0.5,0.2,0.6c0.1,0.2,0.3,0.2,0.6,0.3h0.4c0.2,0,0.5-0.1,0.6-0.2c0.2-0.2,0.2-0.4,0.2-0.6
			v-1c0-0.3-0.1-0.5-0.2-0.7c-0.1-0.1-0.3-0.2-0.7-0.2h-0.4C195.7,60.3,195.5,60.3,195.4,60.5z"/>
	</g>
</g>
<g>
	<g>
		<path class="st5" d="M218.5,64.3l-0.8,3.4h-1.4l-0.4-8.4h0.9l0.4,7.5l1-4h0.7l1,4l0.4-7.5h0.8l-0.4,8.4h-1.5L218.5,64.3z"/>
		<path class="st5" d="M226.4,67.6c-0.1-0.1-0.2-0.2-0.3-0.3c-0.2,0.2-0.4,0.4-0.7,0.4h-1.1c-0.6,0-1-0.1-1.3-0.4
			c-0.3-0.2-0.4-0.7-0.4-1.3v-0.2c0-1.2,0.6-1.9,1.8-1.9h1.5v-0.6c0-0.2-0.1-0.4-0.2-0.6c-0.2-0.1-0.4-0.2-0.7-0.2h-2v-0.9h1.7
			c0.7,0,1.2,0.2,1.5,0.5s0.5,0.8,0.5,1.5v2.9c0,0.1,0,0.2,0.1,0.3s0.2,0.1,0.5,0.1v0.8h-0.7C226.6,67.7,226.5,67.7,226.4,67.6z
			 M225.7,66.7c0.1-0.1,0.1-0.3,0.1-0.4V65h-1.5c-0.2,0-0.4,0.1-0.5,0.2s-0.2,0.3-0.2,0.5v0.6c0,0.2,0,0.4,0.1,0.5s0.2,0.1,0.5,0.1
			h1.1C225.5,66.8,225.6,66.8,225.7,66.7z"/>
		<path class="st5" d="M229,61.7h1.1l1.4,5.2l1.4-5.2h1.1l-1.7,6h-1.5L229,61.7z"/>
		<path class="st5" d="M236.3,67.3c-0.3-0.3-0.5-0.8-0.5-1.5v-2.2c0-0.7,0.1-1.2,0.4-1.5c0.3-0.3,0.8-0.4,1.5-0.4h0.6
			c0.6,0,1,0.2,1.3,0.5s0.4,0.8,0.4,1.4v1.6h-3.2v0.9c0,0.2,0.1,0.4,0.2,0.6c0.2,0.1,0.4,0.2,0.7,0.2h1.9v0.9h-1.8
			C237.2,67.7,236.7,67.6,236.3,67.3z M239,63.4c0-0.2-0.1-0.4-0.2-0.5c-0.1-0.1-0.3-0.2-0.5-0.2h-0.7c-0.3,0-0.5,0.1-0.6,0.2
			c-0.1,0.1-0.2,0.3-0.2,0.6v0.8h2.2V63.4z"/>
		<path class="st5" d="M245.8,67.4c-0.3,0.2-0.8,0.4-1.3,0.4h-1.8v-0.9h1.9c0.2,0,0.4,0,0.5-0.1s0.2-0.2,0.2-0.4v-0.6
			c0-0.4-0.2-0.5-0.5-0.5h-0.4c-0.6,0-1-0.1-1.3-0.4s-0.4-0.6-0.4-1.2v-0.3c0-0.5,0.2-0.9,0.5-1.2s0.8-0.4,1.3-0.4h1.6v0.9h-1.7
			c-0.2,0-0.4,0-0.5,0.1s-0.2,0.2-0.2,0.4v0.4c0,0.2,0.1,0.3,0.2,0.4c0.1,0.1,0.2,0.1,0.4,0.1h0.4c0.5,0,0.9,0.1,1.2,0.4
			s0.4,0.6,0.4,1.2v0.5C246.2,66.7,246.1,67.1,245.8,67.4z"/>
		<path class="st5" d="M251.5,61.7v1.2h-1.2v-1.2H251.5z M251.5,66.5v1.2h-1.2v-1.2H251.5z"/>
		<path class="st5" d="M265.6,67.3c-0.3,0.3-0.8,0.5-1.6,0.5h-0.3c-0.7,0-1.2-0.1-1.6-0.5c-0.3-0.3-0.5-0.8-0.5-1.4v-1
			c0-0.7,0.3-1.2,0.8-1.5c-0.4-0.3-0.6-0.8-0.6-1.4v-0.8c0-0.6,0.2-1.1,0.5-1.4s0.8-0.5,1.4-0.5h0.2c0.6,0,1.1,0.2,1.4,0.5
			s0.5,0.8,0.5,1.4V62c0,0.6-0.2,1.1-0.6,1.4c0.5,0.3,0.8,0.8,0.8,1.5v1C266.1,66.5,265.9,67,265.6,67.3z M264.8,64.1
			c-0.2-0.2-0.4-0.2-0.6-0.2h-0.6c-0.3,0-0.5,0.1-0.6,0.2c-0.2,0.2-0.2,0.4-0.2,0.6V66c0,0.3,0.1,0.5,0.2,0.7
			c0.1,0.1,0.3,0.2,0.6,0.2h0.6c0.3,0,0.5-0.1,0.7-0.2c0.1-0.1,0.2-0.4,0.2-0.7v-1.2C265,64.5,264.9,64.3,264.8,64.1z M263,60.5
			c-0.1,0.1-0.2,0.4-0.2,0.6v1c0,0.3,0.1,0.5,0.2,0.6c0.1,0.2,0.3,0.2,0.6,0.3h0.4c0.2,0,0.5-0.1,0.6-0.2c0.2-0.2,0.2-0.4,0.2-0.6
			v-1c0-0.3-0.1-0.5-0.2-0.7c-0.1-0.1-0.3-0.2-0.7-0.2h-0.4C263.3,60.3,263.1,60.3,263,60.5z"/>
	</g>
</g>
<g>
	<g class="st6">
		<path class="st7" d="M88.7,45.1h-1l-1.2-4.7V48h-0.9v-8.4h1.7l1,4.3l1-4.3h1.6V48H90v-7.5L88.7,45.1z"/>
		<path class="st7" d="M96.1,47.9c-0.1-0.1-0.2-0.2-0.3-0.3C95.6,47.8,95.4,48,95,48h-1c-0.6,0-1-0.1-1.3-0.4s-0.4-0.7-0.4-1.3v-0.2
			c0-1.2,0.6-1.9,1.8-1.9h1.5v-0.6c0-0.2-0.1-0.4-0.2-0.6c-0.2-0.1-0.4-0.2-0.7-0.2h-1.9V42h1.7c0.7,0,1.2,0.2,1.5,0.5
			s0.5,0.8,0.5,1.5v2.9c0,0.1,0,0.2,0.1,0.3s0.2,0.1,0.5,0.1V48h-0.7C96.3,48,96.2,47.9,96.1,47.9z M95.4,46.9
			c0.1-0.1,0.1-0.3,0.1-0.4v-1.3H94c-0.2,0-0.4,0.1-0.5,0.2c-0.1,0.1-0.2,0.3-0.2,0.5v0.6c0,0.2,0,0.4,0.1,0.5s0.2,0.1,0.5,0.1H95
			C95.2,47.1,95.3,47,95.4,46.9z"/>
		<path class="st7" d="M100.1,45.4V48h-1v-8.4h1v4.5L102,42h1.3l-2.1,2.4l2.3,3.6h-1.3l-1.8-2.9L100.1,45.4z"/>
		<path class="st7" d="M106,47.5c-0.3-0.3-0.5-0.8-0.5-1.5v-2.2c0-0.7,0.1-1.2,0.4-1.5s0.8-0.4,1.5-0.4h0.6c0.6,0,1,0.2,1.3,0.5
			s0.4,0.8,0.4,1.4v1.6h-3.2v0.9c0,0.2,0.1,0.4,0.2,0.6c0.2,0.1,0.4,0.2,0.7,0.2h1.9V48h-1.8C106.9,48,106.3,47.8,106,47.5z
			 M108.7,43.6c0-0.2-0.1-0.4-0.2-0.5s-0.3-0.2-0.5-0.2h-0.7c-0.3,0-0.5,0.1-0.6,0.2c-0.1,0.1-0.2,0.3-0.2,0.6v0.8h2.2
			C108.7,44.5,108.7,43.6,108.7,43.6z"/>
		<path class="st7" d="M122,47.9c-0.1-0.1-0.2-0.2-0.3-0.3c-0.2,0.2-0.4,0.4-0.7,0.4h-1.1c-0.6,0-1-0.1-1.3-0.4
			c-0.3-0.2-0.4-0.7-0.4-1.3v-0.2c0-1.2,0.6-1.9,1.8-1.9h1.5v-0.6c0-0.2-0.1-0.4-0.2-0.6c-0.2-0.1-0.4-0.2-0.7-0.2h-1.9V42h1.7
			c0.7,0,1.2,0.2,1.5,0.5s0.5,0.8,0.5,1.5v2.9c0,0.1,0,0.2,0.1,0.3s0.2,0.1,0.5,0.1V48h-0.7C122.3,48,122.1,47.9,122,47.9z
			 M121.3,46.9c0.1-0.1,0.1-0.3,0.1-0.4v-1.3h-1.5c-0.2,0-0.4,0.1-0.5,0.2c-0.1,0.1-0.2,0.3-0.2,0.5v0.6c0,0.2,0,0.4,0.1,0.5
			s0.2,0.1,0.5,0.1h1.1C121.1,47.1,121.2,47,121.3,46.9z"/>
		<path class="st7" d="M133.2,47.7c-0.2-0.2-0.3-0.5-0.3-0.9v-6.3h-1.8v-0.9h2.8v7.1c0,0.1,0,0.2,0.1,0.3s0.2,0.1,0.3,0.1h1.6V48h-2
			C133.7,48,133.4,47.9,133.2,47.7z"/>
		<path class="st7" d="M141.8,47.5c-0.3,0.3-0.8,0.5-1.5,0.5h-0.4c-0.7,0-1.2-0.2-1.5-0.5s-0.5-0.8-0.5-1.5v-2.2
			c0-0.7,0.2-1.2,0.5-1.5s0.8-0.5,1.5-0.5h0.4c0.7,0,1.2,0.2,1.5,0.5s0.5,0.8,0.5,1.5V46C142.3,46.7,142.1,47.2,141.8,47.5z
			 M141,43.1c-0.2-0.1-0.4-0.2-0.7-0.2h-0.6c-0.3,0-0.5,0.1-0.7,0.2c-0.2,0.1-0.2,0.3-0.2,0.6v2.6c0,0.2,0.1,0.4,0.2,0.6
			c0.2,0.1,0.4,0.2,0.7,0.2h0.6c0.3,0,0.5-0.1,0.7-0.2c0.2-0.1,0.2-0.3,0.2-0.6v-2.6C141.2,43.4,141.2,43.2,141,43.1z"/>
		<path class="st7" d="M147.9,47.9c-0.1-0.1-0.2-0.2-0.3-0.3c-0.2,0.2-0.4,0.4-0.7,0.4h-1.1c-0.6,0-1-0.1-1.3-0.4
			c-0.3-0.2-0.4-0.7-0.4-1.3v-0.2c0-1.2,0.6-1.9,1.8-1.9h1.5v-0.6c0-0.2-0.1-0.4-0.2-0.6c-0.2-0.1-0.4-0.2-0.7-0.2h-1.9V42h1.7
			c0.7,0,1.2,0.2,1.5,0.5s0.5,0.8,0.5,1.5v2.9c0,0.1,0,0.2,0.1,0.3s0.2,0.1,0.5,0.1V48h-0.7C148.2,48,148.1,47.9,147.9,47.9z
			 M147.2,46.9c0.1-0.1,0.1-0.3,0.1-0.4v-1.3h-1.5c-0.2,0-0.4,0.1-0.5,0.2c-0.1,0.1-0.2,0.3-0.2,0.5v0.6c0,0.2,0,0.4,0.1,0.5
			s0.2,0.1,0.5,0.1h1.1C147,47.1,147.2,47,147.2,46.9z"/>
		<path class="st7" d="M153.3,48h-0.5c-0.7,0-1.2-0.2-1.5-0.5s-0.5-0.8-0.5-1.5v-2.2c0-0.7,0.2-1.2,0.5-1.5s0.8-0.5,1.5-0.5h1.4
			v-2.4h1V48h-1v-0.3C154,47.9,153.7,48,153.3,48z M154,46.9c0.1-0.1,0.2-0.3,0.2-0.4V43h-1.5c-0.3,0-0.5,0.1-0.7,0.2
			c-0.2,0.1-0.2,0.3-0.2,0.6v2.6c0,0.2,0.1,0.4,0.2,0.6c0.2,0.1,0.4,0.2,0.7,0.2h0.7C153.7,47.1,153.9,47,154,46.9z"/>
		<path class="st7" d="M157.9,47.5c-0.3-0.3-0.5-0.8-0.5-1.5v-2.2c0-0.7,0.1-1.2,0.4-1.5s0.8-0.4,1.5-0.4h0.6c0.6,0,1,0.2,1.3,0.5
			s0.4,0.8,0.4,1.4v1.6h-3.2v0.9c0,0.2,0.1,0.4,0.2,0.6c0.2,0.1,0.4,0.2,0.7,0.2h1.9V48h-1.8C158.7,48,158.2,47.8,157.9,47.5z
			 M160.6,43.6c0-0.2-0.1-0.4-0.2-0.5c-0.1-0.1-0.3-0.2-0.5-0.2h-0.7c-0.3,0-0.5,0.1-0.6,0.2c-0.1,0.1-0.2,0.3-0.2,0.6v0.8h2.2V43.6
			z"/>
		<path class="st7" d="M164.8,47.1v-4.2h-0.9V42h1.8v0.3c0.3-0.2,0.6-0.3,1-0.3h1.2v1h-1.4c-0.3,0-0.4,0.1-0.6,0.2s-0.2,0.3-0.2,0.5
			v3.4h1.3V48h-3.2v-0.9H164.8z"/>
		<path class="st7" d="M178.9,45l-0.6,3h-1.1l-1.1-6h1l0.7,4.8l0.8-3.7h0.8l0.7,3.7l0.7-4.8h1l-1.1,6h-1.2L178.9,45z"/>
		<path class="st7" d="M183.1,42.9V42h2.8v5.1h1.8V48h-2.8v-5.1H183.1z M186,39.6v1.1h-1.1v-1.1H186z"/>
		<path class="st7" d="M193.7,48h-3.8v-1l2.8-4.2h-2.6V42h3.7v1l-2.8,4h2.7L193.7,48L193.7,48z"/>
		<path class="st7" d="M199.8,47.9c-0.1-0.1-0.2-0.2-0.3-0.3c-0.2,0.2-0.4,0.4-0.7,0.4h-1.1c-0.6,0-1-0.1-1.3-0.4s-0.4-0.7-0.4-1.3
			v-0.2c0-1.2,0.6-1.9,1.8-1.9h1.5v-0.6c0-0.2-0.1-0.4-0.2-0.6c-0.2-0.1-0.4-0.2-0.7-0.2h-1.9V42h1.7c0.7,0,1.2,0.2,1.5,0.5
			s0.5,0.8,0.5,1.5v2.9c0,0.1,0,0.2,0.1,0.3s0.2,0.1,0.5,0.1V48h-0.7C200,48,199.9,47.9,199.8,47.9z M199.1,46.9
			c0.1-0.1,0.1-0.3,0.1-0.4v-1.3h-1.5c-0.2,0-0.4,0.1-0.5,0.2c-0.1,0.1-0.2,0.3-0.2,0.5v0.6c0,0.2,0,0.4,0.1,0.5s0.2,0.1,0.5,0.1
			h1.1C198.8,47.1,199,47,199.1,46.9z"/>
		<path class="st7" d="M203.7,47.1v-4.2h-0.9V42h1.8v0.3c0.3-0.2,0.6-0.3,1-0.3h1.2v1h-1.4c-0.3,0-0.4,0.1-0.6,0.2s-0.2,0.3-0.2,0.5
			v3.4h1.3V48h-3.2v-0.9H203.7z"/>
		<path class="st7" d="M211.6,48h-0.5c-0.7,0-1.2-0.2-1.5-0.5s-0.5-0.8-0.5-1.5v-2.2c0-0.7,0.2-1.2,0.5-1.5s0.8-0.5,1.5-0.5h1.4
			v-2.4h1V48h-1v-0.3C212.3,47.9,212,48,211.6,48z M212.3,46.9c0.1-0.1,0.2-0.3,0.2-0.4V43H211c-0.3,0-0.5,0.1-0.7,0.2
			c-0.2,0.1-0.2,0.3-0.2,0.6v2.6c0,0.2,0.1,0.4,0.2,0.6c0.2,0.1,0.4,0.2,0.7,0.2h0.7C212,47.1,212.2,47,212.3,46.9z"/>
	</g>
</g>
</svg>
