<?xml version="1.0" encoding="utf-8"?>
<!-- Generator: Adobe Illustrator 23.0.6, SVG Export Plug-In . SVG Version: 6.00 Build 0)  -->
<svg version="1.1"
	 id="svg8" xmlns:cc="http://creativecommons.org/ns#" xmlns:dc="http://purl.org/dc/elements/1.1/" xmlns:inkscape="http://www.inkscape.org/namespaces/inkscape" xmlns:rdf="http://www.w3.org/1999/02/22-rdf-syntax-ns#" xmlns:sodipodi="http://sodipodi.sourceforge.net/DTD/sodipodi-0.dtd" xmlns:svg="http://www.w3.org/2000/svg"
	 xmlns="http://www.w3.org/2000/svg" xmlns:xlink="http://www.w3.org/1999/xlink" x="0px" y="0px" viewBox="0 0 300 380"
	 style="enable-background:new 0 0 300 380;" xml:space="preserve">
<style type="text/css">
	.st0{fill:#282828;}
	.st1{fill:none;stroke:#FFFFFF;}
	.st2{fill:#FFFFFF;}
	.st3{font-family:'AlteDIN1451Mittelschrift';}
	.st4{font-size:18px;}
	.st5{font-size:10px;}
	.st6{font-size:8px;}
	.st7{fill:#E1E1E2;stroke:#818181;stroke-width:0.25;}
	.st8{fill:#F5F7F7;stroke:#343B3F;stroke-width:0.1323;}
	.st9{fill:#929A9E;}
	.st10{fill:#F5F7F7;}
	.st11{fill:#111111;stroke:#414042;stroke-miterlimit:10;}
	.st12{fill:#400002;}
	.st13{font-family:'DSEG14Classic-Italic';}
	.st14{fill:#FF0000;}
	.st15{fill:none;stroke:#FFFFFF;stroke-miterlimit:10;}
	.st16{fill:#636466;stroke:#000000;stroke-width:0.25;}
	.st17{fill:#D4D7D9;stroke:#343B3F;stroke-width:0.1323;}
	.st18{fill:#DEE4E5;}
	.st19{fill:none;stroke:#C0C0C0;stroke-miterlimit:10;}
	.st20{fill:#282828;stroke:#C0C0C0;stroke-miterlimit:10;}
	.st21{fill:#FFFFFF;fill-opacity:0.9922;}
	.st22{fill:none;stroke:#BE974A;stroke-width:2;stroke-miterlimit:10;}
	.st23{fill:#3C3C3C;stroke:#000000;stroke-width:0.2;stroke-linecap:square;}
	.st24{fill:#111111;}
	.st25{fill:none;stroke:#7F0000;stroke-miterlimit:10;}
	.st26{fill:none;stroke:#414042;stroke-miterlimit:10;}
	.st27{enable-background:new    ;}
</style>
<g id="layer1" transform="translate(0,-196.45831)" inkscape:groupmode="layer" inkscape:label="Layer 1">
	<rect id="rect1047" y="196.5" class="st0" width="300" height="380"/>
</g>
<defs>
	
	
		<inkscape:path-effect  apply_no_weight="true" apply_with_weight="true" effect="bspline" helper_size="0" id="path-effect2273" is_visible="true" only_selected="false" steps="2" weight="33.333333">
		</inkscape:path-effect>
	
		<inkscape:path-effect  apply_no_weight="true" apply_with_weight="true" effect="bspline" helper_size="0" id="path-effect2269" is_visible="true" only_selected="false" steps="2" weight="33.333333">
		</inkscape:path-effect>
</defs>
<sodipodi:namedview  bordercolor="#666666" borderopacity="1.0" id="base" inkscape:current-layer="layer1" inkscape:cx="76.012834" inkscape:cy="318.70973" inkscape:document-units="mm" inkscape:pageopacity="0.0" inkscape:pageshadow="2" inkscape:snap-bbox="true" inkscape:snap-global="true" inkscape:window-height="1006" inkscape:window-maximized="0" inkscape:window-width="1276" inkscape:window-x="641" inkscape:window-y="0" inkscape:zoom="5.656854" pagecolor="#ffffff" showgrid="true" showguides="false" units="px">
	<inkscape:grid  id="grid1092" type="xygrid"></inkscape:grid>
</sodipodi:namedview>
<path id="line161" class="st1" d="M0,24.5h300"/>
<path id="line163" class="st1" d="M0,356.5h300"/>
<text transform="matrix(1 0 0 1 127.4914 373.5106)" class="st2 st3 st4">Valley</text>
<text transform="matrix(1 0 0 1 107.8653 17.9062)" class="st2 st3 st4">Terrorform</text>
<text transform="matrix(1 0 0 1 6.0637 60.9038)" class="st2 st3 st5">VOct</text>
<text transform="matrix(1 0 0 1 275.0642 60.9038)" class="st2 st3 st5">VOct</text>
<text transform="matrix(1 0 0 1 219.9264 350.6366)" class="st2 st3 st5">Main</text>
<text transform="matrix(1 0 0 1 189.8552 350.6366)" class="st2 st3 st5">Sub</text>
<text transform="matrix(1 0 0 1 131.9531 293.0002)" class="st2 st3 st6">Sync Mode</text>
<g id="layer1_22_" transform="translate(-89.945866,-120.5333)" inkscape:groupmode="layer" inkscape:label="Layer 1">
	<path id="path7255_6_" inkscape:connector-curvature="0" class="st7" d="M319.9,460.8c-5.7,0-10.3-4.6-10.3-10.3
		c0-5.7,4.6-10.3,10.3-10.3s10.3,4.6,10.3,10.3C330.2,456.2,325.6,460.8,319.9,460.8"/>
	<path id="path7261_6_" inkscape:connector-curvature="0" class="st8" d="M319.9,458.5c-4.4,0-8-3.6-8-8s3.6-8,8-8s8,3.6,8,8
		S324.4,458.5,319.9,458.5"/>
	<path id="path1187_6_" inkscape:connector-curvature="0" class="st9" d="M319.9,458.3c-4.3,0-7.7-3.3-7.7-7.3s3.5-7.3,7.7-7.3
		s7.7,3.3,7.7,7.3C327.7,455.1,324.2,458.3,319.9,458.3"/>
	<path id="path861_6_" inkscape:connector-curvature="0" class="st10" d="M325.1,451.5c0,2.8-2.3,5.2-5.1,5.2s-5.1-2.3-5.1-5.2
		c0-2.8,2.3-5.2,5.1-5.2C322.8,446.4,325.1,448.7,325.1,451.5"/>
	<path id="path7265_6_" inkscape:connector-curvature="0" d="M325.1,450.5c0,2.8-2.3,5.1-5.1,5.1c-2.8,0-5.1-2.3-5.1-5.1
		s2.3-5.1,5.1-5.1S325.1,447.7,325.1,450.5"/>
</g>
<path id="rect75_2_" inkscape:connector-curvature="0" class="st11" d="M107,297h86v16h-86V297z"/>
<text transform="matrix(1 0 0 1 109.2 309.904)" class="st12 st13 st5">~~~~~~~~~~</text>
<text transform="matrix(1 0 0 1 109.1092 309.9043)" class="st14 st13 st5">!octave+1</text>
<text transform="matrix(1 0 0 1 9.0281 326.7419)" class="st2 st3 st5">FM</text>
<path class="st15" d="M201.1,287.7"/>
<text transform="matrix(1 0 0 1 55.0071 350.6364)" class="st2 st3 st5">Phasor</text>
<text transform="matrix(1 0 0 1 93.3935 350.6366)" class="st2 st3 st5">EOC</text>
<g id="layer1_48_" transform="translate(-89.945866,-120.5333)" inkscape:groupmode="layer" inkscape:label="Layer 1">
	<path id="path7255_20_" inkscape:connector-curvature="0" class="st7" d="M160,460.8c-5.7,0-10.3-4.6-10.3-10.3
		c0-5.7,4.6-10.3,10.3-10.3s10.3,4.6,10.3,10.3C170.3,456.2,165.7,460.8,160,460.8"/>
	<path id="path7261_20_" inkscape:connector-curvature="0" class="st8" d="M160,458.5c-4.4,0-8-3.6-8-8s3.6-8,8-8s8,3.6,8,8
		S164.5,458.5,160,458.5"/>
	<path id="path1187_20_" inkscape:connector-curvature="0" class="st9" d="M160,458.3c-4.3,0-7.7-3.3-7.7-7.3s3.5-7.3,7.7-7.3
		s7.7,3.3,7.7,7.3C167.8,455.1,164.3,458.3,160,458.3"/>
	<path id="path861_20_" inkscape:connector-curvature="0" class="st10" d="M165.2,451.5c0,2.8-2.3,5.2-5.1,5.2s-5.1-2.3-5.1-5.2
		c0-2.8,2.3-5.2,5.1-5.2C162.9,446.4,165.2,448.7,165.2,451.5"/>
	<path id="path7265_20_" inkscape:connector-curvature="0" d="M165.2,450.5c0,2.8-2.3,5.1-5.1,5.1s-5.1-2.3-5.1-5.1s2.3-5.1,5.1-5.1
		S165.2,447.7,165.2,450.5"/>
</g>
<g id="layer1_21_" transform="translate(-89.945866,-120.5333)" inkscape:groupmode="layer" inkscape:label="Layer 1">
	<path id="path7255_15_" inkscape:connector-curvature="0" class="st7" d="M191.9,460.8c-5.7,0-10.3-4.6-10.3-10.3
		c0-5.7,4.6-10.3,10.3-10.3s10.3,4.6,10.3,10.3C202.2,456.2,197.6,460.8,191.9,460.8"/>
	<path id="path7261_15_" inkscape:connector-curvature="0" class="st8" d="M191.9,458.5c-4.4,0-8-3.6-8-8s3.6-8,8-8s8,3.6,8,8
		S196.4,458.5,191.9,458.5"/>
	<path id="path1187_15_" inkscape:connector-curvature="0" class="st9" d="M191.9,458.3c-4.3,0-7.7-3.3-7.7-7.3s3.5-7.3,7.7-7.3
		s7.7,3.3,7.7,7.3C199.7,455.1,196.2,458.3,191.9,458.3"/>
	<path id="path861_15_" inkscape:connector-curvature="0" class="st10" d="M197.1,451.5c0,2.8-2.3,5.2-5.1,5.2s-5.1-2.3-5.1-5.2
		c0-2.8,2.3-5.2,5.1-5.2C194.8,446.4,197.1,448.7,197.1,451.5"/>
	<path id="path7265_15_" inkscape:connector-curvature="0" d="M197.1,450.5c0,2.8-2.3,5.1-5.1,5.1s-5.1-2.3-5.1-5.1s2.3-5.1,5.1-5.1
		S197.1,447.7,197.1,450.5"/>
</g>
<g id="layer1_62_" transform="translate(-89.945866,-120.5333)" inkscape:groupmode="layer" inkscape:label="Layer 1">
	<path id="path7255_28_" inkscape:connector-curvature="0" class="st7" d="M287.9,460.8c-5.7,0-10.3-4.6-10.3-10.3
		c0-5.7,4.6-10.3,10.3-10.3c5.7,0,10.3,4.6,10.3,10.3C298.2,456.2,293.6,460.8,287.9,460.8"/>
	<path id="path7261_28_" inkscape:connector-curvature="0" class="st8" d="M287.9,458.5c-4.4,0-8-3.6-8-8s3.6-8,8-8s8,3.6,8,8
		S292.4,458.5,287.9,458.5"/>
	<path id="path1187_28_" inkscape:connector-curvature="0" class="st9" d="M287.9,458.3c-4.3,0-7.7-3.3-7.7-7.3s3.5-7.3,7.7-7.3
		s7.7,3.3,7.7,7.3C295.7,455.1,292.2,458.3,287.9,458.3"/>
	<path id="path861_28_" inkscape:connector-curvature="0" class="st10" d="M293.1,451.5c0,2.8-2.3,5.2-5.1,5.2
		c-2.8,0-5.1-2.3-5.1-5.2c0-2.8,2.3-5.2,5.1-5.2C290.8,446.4,293.1,448.7,293.1,451.5"/>
	<path id="path7265_28_" inkscape:connector-curvature="0" d="M293.1,450.5c0,2.8-2.3,5.1-5.1,5.1c-2.8,0-5.1-2.3-5.1-5.1
		s2.3-5.1,5.1-5.1C290.8,445.4,293.1,447.7,293.1,450.5"/>
</g>
<text transform="matrix(1 0 0 1 150.1897 350.637)" class="st2 st3 st5">Pre. EH</text>
<g id="layer1_49_" transform="translate(-89.945866,-120.5333)" inkscape:groupmode="layer" inkscape:label="Layer 1">
	<path id="path7255_10_" inkscape:connector-curvature="0" class="st7" d="M255.9,460.7c-5.7,0-10.3-4.6-10.3-10.3
		c0-5.7,4.6-10.3,10.3-10.3c5.7,0,10.3,4.6,10.3,10.3S261.6,460.7,255.9,460.7"/>
	<path id="path7261_10_" inkscape:connector-curvature="0" class="st8" d="M255.9,458.4c-4.4,0-8-3.6-8-8s3.6-8,8-8s8,3.6,8,8
		S260.4,458.4,255.9,458.4"/>
	<path id="path1187_10_" inkscape:connector-curvature="0" class="st9" d="M255.9,458.2c-4.3,0-7.7-3.3-7.7-7.3s3.5-7.3,7.7-7.3
		c4.2,0,7.7,3.3,7.7,7.3C263.7,455,260.2,458.2,255.9,458.2"/>
	<path id="path861_10_" inkscape:connector-curvature="0" class="st10" d="M261.1,451.4c0,2.8-2.3,5.2-5.1,5.2
		c-2.8,0-5.1-2.3-5.1-5.2c0-2.8,2.3-5.2,5.1-5.2C258.8,446.3,261.1,448.6,261.1,451.4"/>
	<path id="path7265_10_" inkscape:connector-curvature="0" d="M261.1,450.4c0,2.8-2.3,5.1-5.1,5.1c-2.8,0-5.1-2.3-5.1-5.1
		s2.3-5.1,5.1-5.1C258.8,445.3,261.1,447.6,261.1,450.4"/>
</g>
<text transform="matrix(1 0 0 1 126.3195 350.5735)" class="st2 st3 st5">Env</text>
<g id="layer1_34_" transform="translate(-89.945866,-120.5333)" inkscape:groupmode="layer" inkscape:label="Layer 1">
	<path id="path7255_16_" inkscape:connector-curvature="0" class="st7" d="M223.9,460.7c-5.7,0-10.3-4.6-10.3-10.3
		c0-5.7,4.6-10.3,10.3-10.3s10.3,4.6,10.3,10.3S229.6,460.7,223.9,460.7"/>
	<path id="path7261_16_" inkscape:connector-curvature="0" class="st8" d="M223.9,458.4c-4.4,0-8-3.6-8-8s3.6-8,8-8s8,3.6,8,8
		S228.4,458.4,223.9,458.4"/>
	<path id="path1187_16_" inkscape:connector-curvature="0" class="st9" d="M223.9,458.2c-4.3,0-7.7-3.3-7.7-7.3s3.5-7.3,7.7-7.3
		s7.7,3.3,7.7,7.3C231.7,455,228.2,458.2,223.9,458.2"/>
	<path id="path861_16_" inkscape:connector-curvature="0" class="st10" d="M229.1,451.4c0,2.8-2.3,5.2-5.1,5.2s-5.1-2.3-5.1-5.2
		c0-2.8,2.3-5.2,5.1-5.2C226.8,446.3,229.1,448.6,229.1,451.4"/>
	<path id="path7265_16_" inkscape:connector-curvature="0" d="M229.1,450.4c0,2.8-2.3,5.1-5.1,5.1s-5.1-2.3-5.1-5.1s2.3-5.1,5.1-5.1
		S229.1,447.6,229.1,450.4"/>
</g>
<g id="layer1_44_" transform="translate(-89.945866,-120.5333)" inkscape:groupmode="layer" inkscape:label="Layer 1">
	<path id="path7255_17_" inkscape:connector-curvature="0" class="st16" d="M105.4,231.8c-5.7,0-10.3-4.6-10.3-10.3
		s4.6-10.3,10.3-10.3c5.7,0,10.3,4.6,10.3,10.3S111.1,231.8,105.4,231.8"/>
	<path id="path7261_17_" inkscape:connector-curvature="0" class="st17" d="M105.4,229.5c-4.4,0-8-3.6-8-8s3.6-8,8-8s8,3.6,8,8
		C113.4,226,109.9,229.5,105.4,229.5"/>
	<path id="path1187_17_" inkscape:connector-curvature="0" class="st9" d="M105.4,229.4c-4.3,0-7.7-3.3-7.7-7.3s3.5-7.3,7.7-7.3
		c4.3,0,7.7,3.3,7.7,7.3S109.7,229.4,105.4,229.4"/>
	<path id="path861_17_" inkscape:connector-curvature="0" class="st18" d="M110.6,222.6c0,2.8-2.3,5.2-5.1,5.2
		c-2.8,0-5.1-2.3-5.1-5.2c0-2.8,2.3-5.2,5.1-5.2C108.3,217.4,110.6,219.7,110.6,222.6"/>
	<path id="path7265_17_" inkscape:connector-curvature="0" d="M110.6,221.6c0,2.8-2.3,5.1-5.1,5.1s-5.1-2.3-5.1-5.1s2.3-5.1,5.1-5.1
		C108.3,216.4,110.6,218.7,110.6,221.6"/>
</g>
<g id="layer1_15_" transform="translate(-89.945866,-120.5333)" inkscape:groupmode="layer" inkscape:label="Layer 1">
	<path id="path7255_3_" inkscape:connector-curvature="0" class="st16" d="M105.4,205.8c-5.7,0-10.3-4.6-10.3-10.3
		s4.6-10.3,10.3-10.3c5.7,0,10.3,4.6,10.3,10.3S111.1,205.8,105.4,205.8"/>
	<path id="path7261_3_" inkscape:connector-curvature="0" class="st17" d="M105.4,203.5c-4.4,0-8-3.6-8-8s3.6-8,8-8s8,3.6,8,8
		C113.4,200,109.9,203.5,105.4,203.5"/>
	<path id="path1187_3_" inkscape:connector-curvature="0" class="st9" d="M105.4,203.4c-4.3,0-7.7-3.3-7.7-7.3s3.5-7.3,7.7-7.3
		c4.3,0,7.7,3.3,7.7,7.3S109.7,203.4,105.4,203.4"/>
	<path id="path861_3_" inkscape:connector-curvature="0" class="st18" d="M110.6,196.6c0,2.8-2.3,5.2-5.1,5.2s-5.1-2.3-5.1-5.2
		c0-2.8,2.3-5.2,5.1-5.2C108.3,191.4,110.6,193.7,110.6,196.6"/>
	<path id="path7265_3_" inkscape:connector-curvature="0" d="M110.6,195.6c0,2.8-2.3,5.1-5.1,5.1s-5.1-2.3-5.1-5.1s2.3-5.1,5.1-5.1
		C108.3,190.4,110.6,192.7,110.6,195.6"/>
</g>
<text transform="matrix(1 0 0 1 6.7283 292.8593)" class="st2 st3 st5">VCA</text>
<text transform="matrix(1 0 0 1 277.9504 326.7419)" class="st2 st3 st5">FM</text>
<text transform="matrix(1 0 0 1 275.6506 292.8593)" class="st2 st3 st5">VCA</text>
<path class="st19" d="M179,240.8"/>
<path class="st19" d="M150.1,229.7"/>
<g id="layer1_50_" transform="translate(-89.945866,-120.5333)" inkscape:groupmode="layer" inkscape:label="Layer 1">
	<path id="path7255_21_" inkscape:connector-curvature="0" class="st16" d="M182.9,370.8c-5.7,0-10.3-4.6-10.3-10.3
		c0-5.7,4.6-10.3,10.3-10.3s10.3,4.6,10.3,10.3S188.6,370.8,182.9,370.8"/>
	<path id="path7261_21_" inkscape:connector-curvature="0" class="st17" d="M182.9,368.5c-4.4,0-8-3.6-8-8s3.6-8,8-8s8,3.6,8,8
		C190.9,365,187.4,368.5,182.9,368.5"/>
	<path id="path1187_21_" inkscape:connector-curvature="0" class="st9" d="M182.9,368.4c-4.3,0-7.7-3.3-7.7-7.3s3.5-7.3,7.7-7.3
		c4.3,0,7.7,3.3,7.7,7.3S187.2,368.4,182.9,368.4"/>
	<path id="path861_21_" inkscape:connector-curvature="0" class="st18" d="M188.1,361.6c0,2.8-2.3,5.2-5.1,5.2s-5.1-2.3-5.1-5.2
		c0-2.8,2.3-5.2,5.1-5.2S188.1,358.7,188.1,361.6"/>
	<path id="path7265_21_" inkscape:connector-curvature="0" d="M188.1,360.6c0,2.8-2.3,5.1-5.1,5.1s-5.1-2.3-5.1-5.1
		c0-2.8,2.3-5.1,5.1-5.1C185.8,355.4,188.1,357.7,188.1,360.6"/>
</g>
<g id="layer1_33_" transform="translate(-89.945866,-120.5333)" inkscape:groupmode="layer" inkscape:label="Layer 1">
	<path id="path7255_11_" inkscape:connector-curvature="0" class="st16" d="M200.9,388.8c-5.7,0-10.3-4.6-10.3-10.3
		c0-5.7,4.6-10.3,10.3-10.3s10.3,4.6,10.3,10.3S206.6,388.8,200.9,388.8"/>
	<path id="path7261_11_" inkscape:connector-curvature="0" class="st17" d="M200.9,386.5c-4.4,0-8-3.6-8-8s3.6-8,8-8s8,3.6,8,8
		C208.9,383,205.4,386.5,200.9,386.5"/>
	<path id="path1187_11_" inkscape:connector-curvature="0" class="st9" d="M200.9,386.4c-4.3,0-7.7-3.3-7.7-7.3s3.5-7.3,7.7-7.3
		c4.3,0,7.7,3.3,7.7,7.3S205.2,386.4,200.9,386.4"/>
	<path id="path861_11_" inkscape:connector-curvature="0" class="st18" d="M206.1,379.6c0,2.8-2.3,5.2-5.1,5.2s-5.1-2.3-5.1-5.2
		c0-2.8,2.3-5.2,5.1-5.2S206.1,376.7,206.1,379.6"/>
	<path id="path7265_11_" inkscape:connector-curvature="0" d="M206.1,378.6c0,2.8-2.3,5.1-5.1,5.1s-5.1-2.3-5.1-5.1
		c0-2.8,2.3-5.1,5.1-5.1C203.8,373.4,206.1,375.7,206.1,378.6"/>
</g>
<path class="st19" d="M64.2,282.1c0,0-3.9,46-44.3,58"/>
<path class="st19" d="M68.9,259.5c0,0,1.5,51.6-53.4,47.5"/>
<path class="st19" d="M67.4,254.5c0,0-18.6,39.2-51.9,16.6"/>
<g id="layer1_30_" transform="translate(-89.945866,-120.5333)" inkscape:groupmode="layer" inkscape:label="Layer 1">
	<path id="path7255_8_" inkscape:connector-curvature="0" class="st16" d="M105.4,357.8c-5.7,0-10.3-4.6-10.3-10.3
		c0-5.7,4.6-10.3,10.3-10.3c5.7,0,10.3,4.6,10.3,10.3S111,357.8,105.4,357.8"/>
	<path id="path7261_8_" inkscape:connector-curvature="0" class="st17" d="M105.4,355.5c-4.4,0-8-3.6-8-8s3.6-8,8-8s8,3.6,8,8
		C113.4,352,109.9,355.5,105.4,355.5"/>
	<path id="path1187_8_" inkscape:connector-curvature="0" class="st9" d="M105.4,355.4c-4.3,0-7.7-3.3-7.7-7.3s3.5-7.3,7.7-7.3
		c4.3,0,7.7,3.3,7.7,7.3S109.6,355.4,105.4,355.4"/>
	<path id="path861_8_" inkscape:connector-curvature="0" class="st18" d="M110.5,348.6c0,2.8-2.3,5.2-5.1,5.2
		c-2.8,0-5.1-2.3-5.1-5.2c0-2.8,2.3-5.2,5.1-5.2C108.3,343.4,110.5,345.7,110.5,348.6"/>
	<path id="path7265_8_" inkscape:connector-curvature="0" d="M110.5,347.6c0,2.8-2.3,5.1-5.1,5.1s-5.1-2.3-5.1-5.1
		c0-2.8,2.3-5.1,5.1-5.1C108.3,342.4,110.5,344.7,110.5,347.6"/>
</g>
<g id="layer1_31_" transform="translate(-89.945866,-120.5333)" inkscape:groupmode="layer" inkscape:label="Layer 1">
	<path id="path7255_9_" inkscape:connector-curvature="0" class="st16" d="M128.9,375.8c-5.7,0-10.3-4.6-10.3-10.3
		c0-5.7,4.6-10.3,10.3-10.3c5.7,0,10.3,4.6,10.3,10.3S134.5,375.8,128.9,375.8"/>
	<path id="path7261_9_" inkscape:connector-curvature="0" class="st17" d="M128.9,373.5c-4.4,0-8-3.6-8-8s3.6-8,8-8c4.4,0,8,3.6,8,8
		C136.9,370,133.4,373.5,128.9,373.5"/>
	<path id="path1187_9_" inkscape:connector-curvature="0" class="st9" d="M128.9,373.4c-4.3,0-7.7-3.3-7.7-7.3s3.5-7.3,7.7-7.3
		c4.3,0,7.7,3.3,7.7,7.3S133.1,373.4,128.9,373.4"/>
	<path id="path861_9_" inkscape:connector-curvature="0" class="st18" d="M134,366.6c0,2.8-2.3,5.2-5.1,5.2s-5.1-2.3-5.1-5.2
		c0-2.8,2.3-5.2,5.1-5.2C131.8,361.4,134,363.7,134,366.6"/>
	<path id="path7265_9_" inkscape:connector-curvature="0" d="M134,365.6c0,2.8-2.3,5.1-5.1,5.1s-5.1-2.3-5.1-5.1
		c0-2.8,2.3-5.1,5.1-5.1C131.8,360.4,134,362.7,134,365.6"/>
</g>
<g>
	<circle class="st20" cx="65.8" cy="281.9" r="5.5"/>
	<line class="st19" x1="65.8" y1="287.3" x2="65.8" y2="276.4"/>
	<line class="st19" x1="60.3" y1="281.9" x2="71.3" y2="281.9"/>
</g>
<g id="layer1_14_" transform="translate(-53.216485,-90.5345)" inkscape:groupmode="layer" inkscape:label="Layer 1">
	<path id="path7705_7_" inkscape:connector-curvature="0" d="M106.1,418.5c0,5.5-4.4,9.9-9.9,9.9s-9.9-4.4-9.9-9.9s4.4-9.9,9.9-9.9
		S106.1,413,106.1,418.5"/>
	<path id="path7707_7_" inkscape:connector-curvature="0" class="st21" d="M101.8,418.5c0,3.1-2.5,5.6-5.6,5.6s-5.6-2.5-5.6-5.6
		s2.5-5.6,5.6-5.6S101.8,415.4,101.8,418.5"/>
	<path id="path7711_7_" inkscape:connector-curvature="0" class="st21" d="M97.1,408.6c-0.3,0-0.6,0-0.9,0c-0.4,0-0.7,0-1.1,0.1v4.5
		h2V408.6z"/>
</g>
<g id="layer1_37_" transform="translate(-89.945866,-120.5333)" inkscape:groupmode="layer" inkscape:label="Layer 1">
	<path id="path7255_14_" inkscape:connector-curvature="0" class="st16" d="M105.4,469.8c-5.7,0-10.3-4.6-10.3-10.3
		c0-5.7,4.6-10.3,10.3-10.3s10.3,4.6,10.3,10.3S111.1,469.8,105.4,469.8"/>
	<path id="path7261_14_" inkscape:connector-curvature="0" class="st17" d="M105.4,467.5c-4.4,0-8-3.6-8-8s3.6-8,8-8s8,3.6,8,8
		C113.4,464,109.9,467.5,105.4,467.5"/>
	<path id="path1187_14_" inkscape:connector-curvature="0" class="st9" d="M105.4,467.4c-4.3,0-7.7-3.3-7.7-7.3s3.5-7.3,7.7-7.3
		c4.3,0,7.7,3.3,7.7,7.3S109.7,467.4,105.4,467.4"/>
	<path id="path861_14_" inkscape:connector-curvature="0" class="st18" d="M110.6,460.6c0,2.8-2.3,5.2-5.1,5.2s-5.1-2.3-5.1-5.2
		c0-2.8,2.3-5.2,5.1-5.2S110.6,457.7,110.6,460.6"/>
	<path id="path7265_14_" inkscape:connector-curvature="0" d="M110.6,459.6c0,2.8-2.3,5.1-5.1,5.1s-5.1-2.3-5.1-5.1
		c0-2.8,2.3-5.1,5.1-5.1C108.3,454.4,110.6,456.7,110.6,459.6"/>
</g>
<g id="layer1_26_" transform="translate(-53.216485,-90.5345)" inkscape:groupmode="layer" inkscape:label="Layer 1">
	<path id="path7705_8_" inkscape:connector-curvature="0" d="M106.1,393.5c0,5.5-4.4,9.9-9.9,9.9s-9.9-4.4-9.9-9.9s4.4-9.9,9.9-9.9
		S106.1,388,106.1,393.5"/>
	<path id="path7707_8_" inkscape:connector-curvature="0" class="st21" d="M101.8,393.5c0,3.1-2.5,5.6-5.6,5.6s-5.6-2.5-5.6-5.6
		s2.5-5.6,5.6-5.6S101.8,390.4,101.8,393.5"/>
	<path id="path7711_8_" inkscape:connector-curvature="0" class="st21" d="M97.1,383.6c-0.3,0-0.6,0-0.9,0c-0.4,0-0.7,0-1.1,0.1v4.5
		h2V383.6z"/>
</g>
<g id="layer1_35_" transform="translate(-89.945866,-120.5333)" inkscape:groupmode="layer" inkscape:label="Layer 1">
	<path id="path7255_13_" inkscape:connector-curvature="0" class="st16" d="M105.4,437.7c-5.7,0-10.3-4.6-10.3-10.3
		c0-5.7,4.6-10.3,10.3-10.3c5.7,0,10.3,4.6,10.3,10.3S111.1,437.7,105.4,437.7"/>
	<path id="path7261_13_" inkscape:connector-curvature="0" class="st17" d="M105.4,435.4c-4.4,0-8-3.6-8-8s3.6-8,8-8s8,3.6,8,8
		C113.4,431.9,109.9,435.4,105.4,435.4"/>
	<path id="path1187_13_" inkscape:connector-curvature="0" class="st9" d="M105.4,435.3c-4.3,0-7.7-3.3-7.7-7.3s3.5-7.3,7.7-7.3
		c4.3,0,7.7,3.3,7.7,7.3S109.7,435.3,105.4,435.3"/>
	<path id="path861_13_" inkscape:connector-curvature="0" class="st18" d="M110.6,428.5c0,2.8-2.3,5.2-5.1,5.2
		c-2.8,0-5.1-2.3-5.1-5.2c0-2.8,2.3-5.2,5.1-5.2C108.3,423.3,110.6,425.6,110.6,428.5"/>
	<path id="path7265_13_" inkscape:connector-curvature="0" d="M110.6,427.5c0,2.8-2.3,5.1-5.1,5.1c-2.8,0-5.1-2.3-5.1-5.1
		c0-2.8,2.3-5.1,5.1-5.1C108.3,422.3,110.6,424.6,110.6,427.5"/>
</g>
<g id="layer1_23_" transform="translate(-53.216485,-90.5345)" inkscape:groupmode="layer" inkscape:label="Layer 1">
	<path id="path7705_9_" inkscape:connector-curvature="0" d="M106.1,368.5c0,5.5-4.4,9.9-9.9,9.9s-9.9-4.4-9.9-9.9s4.4-9.9,9.9-9.9
		S106.1,363,106.1,368.5"/>
	<path id="path7707_9_" inkscape:connector-curvature="0" class="st21" d="M101.8,368.5c0,3.1-2.5,5.6-5.6,5.6s-5.6-2.5-5.6-5.6
		s2.5-5.6,5.6-5.6S101.8,365.4,101.8,368.5"/>
	<path id="path7711_9_" inkscape:connector-curvature="0" class="st21" d="M97.1,358.6c-0.3,0-0.6,0-0.9,0c-0.4,0-0.7,0-1.1,0.1v4.5
		h2V358.6z"/>
</g>
<g id="layer1_20_" transform="translate(-89.945866,-120.5333)" inkscape:groupmode="layer" inkscape:label="Layer 1">
	<path id="path7255_5_" inkscape:connector-curvature="0" class="st16" d="M105.4,401.8c-5.7,0-10.3-4.6-10.3-10.3
		c0-5.7,4.6-10.3,10.3-10.3s10.3,4.6,10.3,10.3S111.1,401.8,105.4,401.8"/>
	<path id="path7261_5_" inkscape:connector-curvature="0" class="st17" d="M105.4,399.5c-4.4,0-8-3.6-8-8s3.6-8,8-8s8,3.6,8,8
		C113.4,396,109.9,399.5,105.4,399.5"/>
	<path id="path1187_5_" inkscape:connector-curvature="0" class="st9" d="M105.4,399.4c-4.3,0-7.7-3.3-7.7-7.3s3.5-7.3,7.7-7.3
		c4.3,0,7.7,3.3,7.7,7.3S109.7,399.4,105.4,399.4"/>
	<path id="path861_5_" inkscape:connector-curvature="0" class="st18" d="M110.6,392.6c0,2.8-2.3,5.2-5.1,5.2s-5.1-2.3-5.1-5.2
		c0-2.8,2.3-5.2,5.1-5.2S110.6,389.7,110.6,392.6"/>
	<path id="path7265_5_" inkscape:connector-curvature="0" d="M110.6,391.6c0,2.8-2.3,5.1-5.1,5.1s-5.1-2.3-5.1-5.1
		c0-2.8,2.3-5.1,5.1-5.1C108.3,386.4,110.6,388.7,110.6,391.6"/>
</g>
<g id="layer1_72_" transform="translate(-89.945866,-120.5333)" inkscape:groupmode="layer" inkscape:label="Layer 1">
	<path id="path7255_33_" inkscape:connector-curvature="0" class="st16" d="M302.9,394.8c-5.7,0-10.3-4.6-10.3-10.3
		c0-5.7,4.6-10.3,10.3-10.3c5.7,0,10.3,4.6,10.3,10.3S308.6,394.8,302.9,394.8"/>
	<path id="path7261_33_" inkscape:connector-curvature="0" class="st17" d="M302.9,392.5c-4.4,0-8-3.6-8-8s3.6-8,8-8s8,3.6,8,8
		C310.9,389,307.4,392.5,302.9,392.5"/>
	<path id="path1187_33_" inkscape:connector-curvature="0" class="st9" d="M302.9,392.4c-4.3,0-7.7-3.3-7.7-7.3s3.5-7.3,7.7-7.3
		c4.3,0,7.7,3.3,7.7,7.3S307.2,392.4,302.9,392.4"/>
	<path id="path861_33_" inkscape:connector-curvature="0" class="st18" d="M308.1,385.6c0,2.8-2.3,5.2-5.1,5.2
		c-2.8,0-5.1-2.3-5.1-5.2c0-2.8,2.3-5.2,5.1-5.2C305.8,380.4,308.1,382.7,308.1,385.6"/>
	<path id="path7265_33_" inkscape:connector-curvature="0" d="M308.1,384.6c0,2.8-2.3,5.1-5.1,5.1c-2.8,0-5.1-2.3-5.1-5.1
		c0-2.8,2.3-5.1,5.1-5.1C305.8,379.4,308.1,381.7,308.1,384.6"/>
</g>
<text transform="matrix(1 0 0 1 203.01 285.8968)" class="st2 st3 st5">Sync</text>
<text transform="matrix(1 0 0 1 141.8651 275.9152)" class="st2 st3 st5">Trig</text>
<g>
	<circle class="st20" cx="67.4" cy="254.5" r="5.5"/>
	<line class="st19" x1="71.3" y1="258.4" x2="63.5" y2="250.6"/>
	<line class="st19" x1="63.5" y1="258.4" x2="71.3" y2="250.6"/>
</g>
<path class="st19" d="M277,340c-39.3-12-43.1-58-43.1-58"/>
<path class="st19" d="M281.2,306.9c-53.4,4.1-51.9-47.5-51.9-47.5"/>
<path class="st19" d="M281.3,271c-32.4,22.6-49-16.6-49-16.6"/>
<g>
	<circle class="st20" cx="233.9" cy="281.8" r="5.5"/>
	<line class="st19" x1="233.9" y1="276.3" x2="233.9" y2="287.2"/>
	<line class="st19" x1="228.4" y1="281.8" x2="239.4" y2="281.8"/>
</g>
<g id="layer1_65_" transform="translate(-53.216485,-90.5345)" inkscape:groupmode="layer" inkscape:label="Layer 1">
	<path id="path7705_26_" inkscape:connector-curvature="0" d="M299,418.6c0-5.5,4.4-9.9,9.9-9.9s9.9,4.4,9.9,9.9s-4.4,9.9-9.9,9.9
		S299,424.1,299,418.6"/>
	<path id="path7707_34_" inkscape:connector-curvature="0" class="st21" d="M303.3,418.6c0-3.1,2.5-5.6,5.6-5.6s5.6,2.5,5.6,5.6
		s-2.5,5.6-5.6,5.6S303.3,421.7,303.3,418.6"/>
	<path id="path7711_34_" inkscape:connector-curvature="0" class="st21" d="M308,413.3h2v-4.5c-0.4-0.1-0.7-0.1-1.1-0.1
		c-0.3,0-0.6,0-0.9,0V413.3z"/>
</g>
<g id="layer1_64_" transform="translate(-89.945866,-120.5333)" inkscape:groupmode="layer" inkscape:label="Layer 1">
	<path id="path7255_30_" inkscape:connector-curvature="0" class="st16" d="M374.4,470.3c-5.7,0-10.3-4.6-10.3-10.3
		s4.6-10.3,10.3-10.3s10.3,4.6,10.3,10.3C384.7,465.7,380.1,470.3,374.4,470.3"/>
	<path id="path7261_30_" inkscape:connector-curvature="0" class="st17" d="M374.4,468c-4.5,0-8-3.5-8-8c0-4.4,3.6-8,8-8s8,3.6,8,8
		S378.8,468,374.4,468"/>
	<path id="path1187_30_" inkscape:connector-curvature="0" class="st9" d="M374.4,467.9c-4.3,0-7.7-3.3-7.7-7.3s3.4-7.3,7.7-7.3
		c4.2,0,7.7,3.3,7.7,7.3S378.7,467.9,374.4,467.9"/>
	<path id="path861_30_" inkscape:connector-curvature="0" class="st18" d="M369.2,461.1c0-2.9,2.3-5.2,5.1-5.2
		c2.8,0,5.1,2.4,5.1,5.2c0,2.9-2.3,5.2-5.1,5.2C371.5,466.3,369.2,463.9,369.2,461.1"/>
	<path id="path7265_30_" inkscape:connector-curvature="0" d="M369.2,460.1c0-2.9,2.3-5.2,5.1-5.1c2.8,0,5.1,2.3,5.1,5.1
		c0,2.8-2.3,5.1-5.1,5.1S369.2,462.9,369.2,460.1"/>
</g>
<g id="layer1_63_" transform="translate(-53.216485,-90.5345)" inkscape:groupmode="layer" inkscape:label="Layer 1">
	<path id="path7705_25_" inkscape:connector-curvature="0" d="M299,393.5c0-5.5,4.4-9.9,9.9-9.9s9.9,4.4,9.9,9.9s-4.4,9.9-9.9,9.9
		S299,399,299,393.5"/>
	<path id="path7707_32_" inkscape:connector-curvature="0" class="st21" d="M303.3,393.5c0-3.1,2.5-5.6,5.6-5.6s5.6,2.5,5.6,5.6
		s-2.5,5.6-5.6,5.6S303.3,396.6,303.3,393.5"/>
	<path id="path7711_32_" inkscape:connector-curvature="0" class="st21" d="M308,388.2h2v-4.5c-0.4-0.1-0.7-0.1-1.1-0.1
		c-0.3,0-0.6,0-0.9,0V388.2z"/>
</g>
<g id="layer1_61_" transform="translate(-89.945866,-120.5333)" inkscape:groupmode="layer" inkscape:label="Layer 1">
	<path id="path7255_29_" inkscape:connector-curvature="0" class="st16" d="M374.4,437.7c-5.7,0-10.3-4.6-10.3-10.3
		s4.6-10.3,10.3-10.3s10.3,4.6,10.3,10.3S380.1,437.7,374.4,437.7"/>
	<path id="path7261_29_" inkscape:connector-curvature="0" class="st17" d="M374.4,435.4c-4.5,0-8-3.5-8-8c0-4.4,3.6-8,8-8
		s8,3.6,8,8S378.8,435.4,374.4,435.4"/>
	<path id="path1187_29_" inkscape:connector-curvature="0" class="st9" d="M374.4,435.3c-4.3,0-7.7-3.3-7.7-7.3s3.4-7.3,7.7-7.3
		c4.2,0,7.7,3.3,7.7,7.3S378.7,435.3,374.4,435.3"/>
	<path id="path861_29_" inkscape:connector-curvature="0" class="st18" d="M369.2,428.5c0-2.9,2.3-5.2,5.1-5.2s5.1,2.4,5.1,5.2
		c0,2.9-2.3,5.2-5.1,5.2S369.2,431.3,369.2,428.5"/>
	<path id="path7265_29_" inkscape:connector-curvature="0" d="M369.2,427.5c0-2.9,2.3-5.2,5.1-5.1c2.8,0,5.1,2.3,5.1,5.1
		c0,2.8-2.3,5.1-5.1,5.1S369.2,430.3,369.2,427.5"/>
</g>
<g id="layer1_60_" transform="translate(-53.216485,-90.5345)" inkscape:groupmode="layer" inkscape:label="Layer 1">
	<path id="path7705_24_" inkscape:connector-curvature="0" d="M299.3,368.5c0-5.5,4.4-9.9,9.9-9.9s9.9,4.4,9.9,9.9s-4.4,9.9-9.9,9.9
		S299.3,374,299.3,368.5"/>
	<path id="path7707_14_" inkscape:connector-curvature="0" class="st21" d="M303.6,368.5c0-3.1,2.5-5.6,5.6-5.6s5.6,2.5,5.6,5.6
		s-2.5,5.6-5.6,5.6S303.6,371.6,303.6,368.5"/>
	<path id="path7711_14_" inkscape:connector-curvature="0" class="st21" d="M308.3,363.2h2v-4.5c-0.4-0.1-0.7-0.1-1.1-0.1
		c-0.3,0-0.6,0-0.9,0V363.2z"/>
</g>
<g id="layer1_59_" transform="translate(-89.945866,-120.5333)" inkscape:groupmode="layer" inkscape:label="Layer 1">
	<path id="path7255_27_" inkscape:connector-curvature="0" class="st16" d="M374.4,401.8c-5.7,0-10.3-4.6-10.3-10.3
		s4.6-10.3,10.3-10.3c5.7,0,10.3,4.6,10.3,10.3C384.7,397.2,380.1,401.8,374.4,401.8"/>
	<path id="path7261_27_" inkscape:connector-curvature="0" class="st17" d="M374.4,399.5c-4.5,0-8-3.5-8-8c0-4.4,3.6-8,8-8
		s8,3.6,8,8S378.8,399.5,374.4,399.5"/>
	<path id="path1187_27_" inkscape:connector-curvature="0" class="st9" d="M374.4,399.4c-4.3,0-7.7-3.3-7.7-7.3s3.4-7.3,7.7-7.3
		c4.2,0,7.7,3.3,7.7,7.3S378.7,399.4,374.4,399.4"/>
	<path id="path861_27_" inkscape:connector-curvature="0" class="st18" d="M369.2,392.6c0-2.9,2.3-5.2,5.1-5.2s5.1,2.4,5.1,5.2
		c0,2.9-2.3,5.2-5.1,5.2S369.2,395.4,369.2,392.6"/>
	<path id="path7265_27_" inkscape:connector-curvature="0" d="M369.2,391.6c0-2.9,2.3-5.2,5.1-5.1c2.8,0,5.1,2.3,5.1,5.1
		c0,2.8-2.3,5.1-5.1,5.1S369.2,394.4,369.2,391.6"/>
</g>
<g>
	<circle class="st20" cx="232.3" cy="254.4" r="5.5"/>
	<line class="st19" x1="236.2" y1="250.5" x2="228.4" y2="258.3"/>
	<line class="st19" x1="228.4" y1="250.5" x2="236.2" y2="258.3"/>
</g>
<path class="st22" d="M123.8,276.1C123.8,261,135,254,135,254v15.2c0,2.1,1.7,3.7,3.7,3.7"/>
<g id="layer1_67_" transform="translate(-46.755712,-68.824694)" inkscape:groupmode="layer" inkscape:label="Layer 1">
	<path id="path2706_1_" class="st23" d="M177.3,344.9c0,3.7-3,6.7-6.7,6.7l0,0c-3.7,0-6.7-3-6.7-6.7l0,0c0-3.7,3-6.7,6.7-6.7l0,0
		C174.3,338.2,177.3,341.2,177.3,344.9L177.3,344.9z"/>
</g>
<g id="layer1_38_" transform="translate(-89.945866,-120.5333)" inkscape:groupmode="layer" inkscape:label="Layer 1">
	<path id="path7255_18_" inkscape:connector-curvature="0" class="st16" d="M224.9,384.8c-5.7,0-10.3-4.6-10.3-10.3
		c0-5.7,4.6-10.3,10.3-10.3s10.3,4.6,10.3,10.3S230.6,384.8,224.9,384.8"/>
	<path id="path7261_18_" inkscape:connector-curvature="0" class="st17" d="M224.9,382.5c-4.4,0-8-3.6-8-8s3.6-8,8-8s8,3.6,8,8
		C232.9,379,229.4,382.5,224.9,382.5"/>
	<path id="path1187_18_" inkscape:connector-curvature="0" class="st9" d="M224.9,382.4c-4.3,0-7.7-3.3-7.7-7.3s3.5-7.3,7.7-7.3
		c4.3,0,7.7,3.3,7.7,7.3S229.2,382.4,224.9,382.4"/>
	<path id="path861_18_" inkscape:connector-curvature="0" class="st18" d="M230.1,375.6c0,2.8-2.3,5.2-5.1,5.2s-5.1-2.3-5.1-5.2
		c0-2.8,2.3-5.2,5.1-5.2S230.1,372.7,230.1,375.6"/>
	<path id="path7265_18_" inkscape:connector-curvature="0" d="M230.1,374.6c0,2.8-2.3,5.1-5.1,5.1s-5.1-2.3-5.1-5.1
		c0-2.8,2.3-5.1,5.1-5.1C227.8,369.4,230.1,371.7,230.1,374.6"/>
</g>
<path class="st22" d="M176.1,276.1C176.1,261,165,254,165,254v15.2c0,2.1-1.7,3.7-3.7,3.7"/>
<g id="layer1_58_" transform="translate(-89.945866,-120.5333)" inkscape:groupmode="layer" inkscape:label="Layer 1">
	<path id="path7255_26_" inkscape:connector-curvature="0" class="st16" d="M254.9,384.8c-5.7,0-10.3-4.6-10.3-10.3
		c0-5.7,4.6-10.3,10.3-10.3c5.7,0,10.3,4.6,10.3,10.3S260.6,384.8,254.9,384.8"/>
	<path id="path7261_26_" inkscape:connector-curvature="0" class="st17" d="M254.9,382.5c-4.4,0-8-3.6-8-8s3.6-8,8-8s8,3.6,8,8
		C262.9,379,259.4,382.5,254.9,382.5"/>
	<path id="path1187_26_" inkscape:connector-curvature="0" class="st9" d="M254.9,382.4c-4.3,0-7.7-3.3-7.7-7.3s3.5-7.3,7.7-7.3
		c4.3,0,7.7,3.3,7.7,7.3S259.2,382.4,254.9,382.4"/>
	<path id="path861_26_" inkscape:connector-curvature="0" class="st18" d="M260.1,375.6c0,2.8-2.3,5.2-5.1,5.2
		c-2.8,0-5.1-2.3-5.1-5.2c0-2.8,2.3-5.2,5.1-5.2C257.8,370.4,260.1,372.7,260.1,375.6"/>
	<path id="path7265_26_" inkscape:connector-curvature="0" d="M260.1,374.6c0,2.8-2.3,5.1-5.1,5.1c-2.8,0-5.1-2.3-5.1-5.1
		c0-2.8,2.3-5.1,5.1-5.1C257.8,369.4,260.1,371.7,260.1,374.6"/>
</g>
<g id="layer1_73_" transform="translate(-46.755712,-68.824694)" inkscape:groupmode="layer" inkscape:label="Layer 1">
	<path id="path2706_2_" class="st23" d="M216.2,344.9c0-3.7,3-6.7,6.7-6.7l0,0c3.7,0,6.7,3,6.7,6.7l0,0c0,3.7-3,6.7-6.7,6.7l0,0
		C219.2,351.6,216.2,348.6,216.2,344.9L216.2,344.9z"/>
</g>
<g id="layer1_11_" transform="translate(-89.945866,-120.5333)" inkscape:groupmode="layer" inkscape:label="Layer 1">
	<path id="path7255_1_" inkscape:connector-curvature="0" class="st16" d="M105.4,170.8c-5.7,0-10.3-4.6-10.3-10.3
		s4.6-10.3,10.3-10.3s10.3,4.6,10.3,10.3S111.1,170.8,105.4,170.8"/>
	<path id="path7261_1_" inkscape:connector-curvature="0" class="st17" d="M105.4,168.5c-4.4,0-8-3.6-8-8s3.6-8,8-8s8,3.6,8,8
		C113.4,165,109.9,168.5,105.4,168.5"/>
	<path id="path1187_1_" inkscape:connector-curvature="0" class="st9" d="M105.4,168.4c-4.3,0-7.7-3.3-7.7-7.3s3.5-7.3,7.7-7.3
		s7.7,3.3,7.7,7.3S109.7,168.4,105.4,168.4"/>
	<path id="path861_1_" inkscape:connector-curvature="0" class="st18" d="M110.6,161.6c0,2.8-2.3,5.2-5.1,5.2
		c-2.8,0-5.1-2.3-5.1-5.2c0-2.8,2.3-5.2,5.1-5.2S110.6,158.7,110.6,161.6"/>
	<path id="path7265_1_" inkscape:connector-curvature="0" d="M110.6,160.6c0,2.8-2.3,5.1-5.1,5.1c-2.8,0-5.1-2.3-5.1-5.1
		s2.3-5.1,5.1-5.1S110.6,157.7,110.6,160.6"/>
</g>
<g id="layer1_36_" transform="translate(-89.945866,-120.5333)" inkscape:groupmode="layer" inkscape:label="Layer 1">
	<path id="path7255_12_" inkscape:connector-curvature="0" class="st16" d="M374.4,170.8c-5.7,0-10.3-4.6-10.3-10.3
		s4.6-10.3,10.3-10.3s10.3,4.6,10.3,10.3S380.1,170.8,374.4,170.8"/>
	<path id="path7261_12_" inkscape:connector-curvature="0" class="st17" d="M374.4,168.5c-4.4,0-8-3.6-8-8s3.6-8,8-8s8,3.6,8,8
		C382.4,165,378.9,168.5,374.4,168.5"/>
	<path id="path1187_12_" inkscape:connector-curvature="0" class="st9" d="M374.4,168.4c-4.3,0-7.7-3.3-7.7-7.3s3.5-7.3,7.7-7.3
		s7.7,3.3,7.7,7.3S378.7,168.4,374.4,168.4"/>
	<path id="path861_12_" inkscape:connector-curvature="0" class="st18" d="M379.6,161.6c0,2.8-2.3,5.2-5.1,5.2
		c-2.8,0-5.1-2.3-5.1-5.2c0-2.8,2.3-5.2,5.1-5.2S379.6,158.7,379.6,161.6"/>
	<path id="path7265_12_" inkscape:connector-curvature="0" d="M379.6,160.6c0,2.8-2.3,5.1-5.1,5.1c-2.8,0-5.1-2.3-5.1-5.1
		s2.3-5.1,5.1-5.1S379.6,157.7,379.6,160.6"/>
</g>
<g id="layer1_66_" transform="translate(-89.945866,-120.5333)" inkscape:groupmode="layer" inkscape:label="Layer 1">
	<path id="path7255_34_" inkscape:connector-curvature="0" class="st16" d="M374.4,231.8c-5.7,0-10.3-4.6-10.3-10.3
		s4.6-10.3,10.3-10.3s10.3,4.6,10.3,10.3S380.1,231.8,374.4,231.8"/>
	<path id="path7261_34_" inkscape:connector-curvature="0" class="st17" d="M374.4,229.5c-4.5,0-8-3.5-8-8c0-4.4,3.6-8,8-8
		s8,3.6,8,8S378.8,229.5,374.4,229.5"/>
	<path id="path1187_34_" inkscape:connector-curvature="0" class="st9" d="M374.4,229.4c-4.3,0-7.7-3.3-7.7-7.3s3.4-7.3,7.7-7.3
		c4.2,0,7.7,3.3,7.7,7.3S378.7,229.4,374.4,229.4"/>
	<path id="path861_34_" inkscape:connector-curvature="0" class="st18" d="M369.2,222.6c0-2.9,2.3-5.2,5.1-5.2
		c2.8,0,5.1,2.4,5.1,5.2c0,2.9-2.3,5.2-5.1,5.2S369.2,225.4,369.2,222.6"/>
	<path id="path7265_34_" inkscape:connector-curvature="0" d="M369.2,221.6c0-2.9,2.3-5.2,5.1-5.1c2.8,0,5.1,2.3,5.1,5.1
		s-2.3,5.1-5.1,5.1S369.2,224.4,369.2,221.6"/>
</g>
<g id="layer1_57_" transform="translate(-89.945866,-120.5333)" inkscape:groupmode="layer" inkscape:label="Layer 1">
	<path id="path7255_32_" inkscape:connector-curvature="0" class="st16" d="M374.4,205.8c-5.7,0-10.3-4.6-10.3-10.3
		s4.6-10.3,10.3-10.3s10.3,4.6,10.3,10.3S380.1,205.8,374.4,205.8"/>
	<path id="path7261_32_" inkscape:connector-curvature="0" class="st17" d="M374.4,203.5c-4.5,0-8-3.5-8-8c0-4.4,3.6-8,8-8
		s8,3.6,8,8S378.8,203.5,374.4,203.5"/>
	<path id="path1187_32_" inkscape:connector-curvature="0" class="st9" d="M374.4,203.4c-4.3,0-7.7-3.3-7.7-7.3s3.4-7.3,7.7-7.3
		c4.2,0,7.7,3.3,7.7,7.3S378.7,203.4,374.4,203.4"/>
	<path id="path861_32_" inkscape:connector-curvature="0" class="st18" d="M369.2,196.6c0-2.9,2.3-5.2,5.1-5.2
		c2.8,0,5.1,2.4,5.1,5.2c0,2.9-2.3,5.2-5.1,5.2S369.2,199.4,369.2,196.6"/>
	<path id="path7265_32_" inkscape:connector-curvature="0" d="M369.2,195.6c0-2.9,2.3-5.2,5.1-5.1c2.8,0,5.1,2.3,5.1,5.1
		s-2.3,5.1-5.1,5.1S369.2,198.4,369.2,195.6"/>
</g>
<g id="layer1_56_" transform="translate(-89.945866,-120.5333)" inkscape:groupmode="layer" inkscape:label="Layer 1">
	<path id="path7255_31_" inkscape:connector-curvature="0" class="st16" d="M296.9,370.8c-5.7,0-10.3-4.6-10.3-10.3
		s4.6-10.3,10.3-10.3c5.7,0,10.3,4.6,10.3,10.3C307.2,366.2,302.6,370.8,296.9,370.8"/>
	<path id="path7261_31_" inkscape:connector-curvature="0" class="st17" d="M296.9,368.5c-4.5,0-8-3.5-8-8c0-4.4,3.6-8,8-8
		s8,3.6,8,8S301.3,368.5,296.9,368.5"/>
	<path id="path1187_31_" inkscape:connector-curvature="0" class="st9" d="M296.9,368.4c-4.3,0-7.7-3.3-7.7-7.3s3.4-7.3,7.7-7.3
		c4.2,0,7.7,3.3,7.7,7.3S301.2,368.4,296.9,368.4"/>
	<path id="path861_31_" inkscape:connector-curvature="0" class="st18" d="M291.7,361.6c0-2.9,2.3-5.2,5.1-5.2
		c2.8,0,5.1,2.4,5.1,5.2c0,2.9-2.3,5.2-5.1,5.2C294,366.8,291.7,364.4,291.7,361.6"/>
	<path id="path7265_31_" inkscape:connector-curvature="0" d="M291.7,360.6c0-2.9,2.3-5.2,5.1-5.1c2.8,0,5.1,2.3,5.1,5.1
		c0,2.8-2.3,5.1-5.1,5.1S291.7,363.4,291.7,360.6"/>
</g>
<g id="layer1_53_" transform="translate(-89.945866,-120.5333)" inkscape:groupmode="layer" inkscape:label="Layer 1">
	<path id="path7255_25_" inkscape:connector-curvature="0" class="st16" d="M278.9,388.8c-5.7,0-10.3-4.6-10.3-10.3
		s4.6-10.3,10.3-10.3c5.7,0,10.3,4.6,10.3,10.3S284.6,388.8,278.9,388.8"/>
	<path id="path7261_25_" inkscape:connector-curvature="0" class="st17" d="M278.9,386.5c-4.5,0-8-3.5-8-8c0-4.4,3.6-8,8-8
		s8,3.6,8,8S283.3,386.5,278.9,386.5"/>
	<path id="path1187_25_" inkscape:connector-curvature="0" class="st9" d="M278.9,386.4c-4.3,0-7.7-3.3-7.7-7.3s3.4-7.3,7.7-7.3
		c4.2,0,7.7,3.3,7.7,7.3S283.2,386.4,278.9,386.4"/>
	<path id="path861_25_" inkscape:connector-curvature="0" class="st18" d="M273.7,379.6c0-2.9,2.3-5.2,5.1-5.2
		c2.8,0,5.1,2.4,5.1,5.2c0,2.9-2.3,5.2-5.1,5.2C276,384.8,273.7,382.4,273.7,379.6"/>
	<path id="path7265_25_" inkscape:connector-curvature="0" d="M273.7,378.6c0-2.9,2.3-5.2,5.1-5.1c2.8,0,5.1,2.3,5.1,5.1
		c0,2.8-2.3,5.1-5.1,5.1S273.7,381.4,273.7,378.6"/>
</g>
<g id="layer1_42_" transform="translate(-89.945866,-120.5333)" inkscape:groupmode="layer" inkscape:label="Layer 1">
	<path id="path7255_24_" inkscape:connector-curvature="0" class="st16" d="M374.4,263.8c-5.6,0-10.3-4.6-10.3-10.3
		s4.6-10.3,10.3-10.3s10.3,4.6,10.3,10.3C384.7,259.2,380.1,263.8,374.4,263.8"/>
	<path id="path7261_24_" inkscape:connector-curvature="0" class="st17" d="M374.4,261.5c-4.5,0-8-3.5-8-8c0-4.4,3.6-8,8-8
		s8,3.6,8,8S378.8,261.5,374.4,261.5"/>
	<path id="path1187_24_" inkscape:connector-curvature="0" class="st9" d="M374.4,261.4c-4.2,0-7.7-3.3-7.7-7.3s3.4-7.3,7.7-7.3
		c4.2,0,7.7,3.3,7.7,7.3C382.1,258.1,378.7,261.4,374.4,261.4"/>
	<path id="path861_24_" inkscape:connector-curvature="0" class="st18" d="M369.2,254.6c0-2.9,2.3-5.2,5.1-5.2s5.1,2.4,5.1,5.2
		c0,2.9-2.3,5.2-5.1,5.2C371.5,259.8,369.2,257.4,369.2,254.6"/>
	<path id="path7265_24_" inkscape:connector-curvature="0" d="M369.2,253.6c0-2.9,2.3-5.2,5.1-5.1c3.5,0,6.2,3.6,4.6,7.3
		c-0.4,1-1.3,1.9-2.4,2.4C372.8,259.8,369.2,257.1,369.2,253.6"/>
</g>
<g id="layer1_17_" transform="translate(-89.945866,-120.5333)" inkscape:groupmode="layer" inkscape:label="Layer 1">
	<path id="path7255_22_" inkscape:connector-curvature="0" class="st16" d="M374.4,357.8c-5.6,0-10.3-4.6-10.3-10.3
		s4.6-10.3,10.3-10.3s10.3,4.6,10.3,10.3C384.7,353.2,380.1,357.8,374.4,357.8"/>
	<path id="path7261_22_" inkscape:connector-curvature="0" class="st17" d="M374.4,355.5c-4.5,0-8-3.5-8-8c0-4.4,3.6-8,8-8
		s8,3.6,8,8S378.8,355.5,374.4,355.5"/>
	<path id="path1187_22_" inkscape:connector-curvature="0" class="st9" d="M374.4,355.4c-4.2,0-7.7-3.3-7.7-7.3s3.4-7.3,7.7-7.3
		c4.2,0,7.7,3.3,7.7,7.3S378.7,355.4,374.4,355.4"/>
	<path id="path861_22_" inkscape:connector-curvature="0" class="st18" d="M369.3,348.6c0-2.9,2.2-5.2,5.1-5.2
		c2.8,0,5.1,2.4,5.1,5.2c0,2.9-2.3,5.2-5.1,5.2S369.3,351.4,369.3,348.6"/>
	<path id="path7265_22_" inkscape:connector-curvature="0" d="M369.3,347.6c0-2.9,2.2-5.2,5.1-5.1c2.8,0,5.1,2.3,5.1,5.1
		c0,2.8-2.3,5.1-5.1,5.1S369.3,350.4,369.3,347.6"/>
</g>
<g id="layer1_5_" transform="translate(-89.945866,-120.5333)" inkscape:groupmode="layer" inkscape:label="Layer 1">
	<path id="path7255_4_" inkscape:connector-curvature="0" class="st16" d="M350.9,375.8c-5.6,0-10.3-4.6-10.3-10.3
		s4.6-10.3,10.3-10.3c5.7,0,10.3,4.6,10.3,10.3C361.2,371.2,356.6,375.8,350.9,375.8"/>
	<path id="path7261_4_" inkscape:connector-curvature="0" class="st17" d="M350.9,373.5c-4.5,0-8-3.5-8-8c0-4.4,3.6-8,8-8s8,3.6,8,8
		S355.3,373.5,350.9,373.5"/>
	<path id="path1187_4_" inkscape:connector-curvature="0" class="st9" d="M350.9,373.4c-4.2,0-7.7-3.3-7.7-7.3s3.4-7.3,7.7-7.3
		c4.2,0,7.7,3.3,7.7,7.3S355.2,373.4,350.9,373.4"/>
	<path id="path861_4_" inkscape:connector-curvature="0" class="st18" d="M345.8,366.6c0-2.9,2.2-5.2,5.1-5.2c2.8,0,5.1,2.4,5.1,5.2
		c0,2.9-2.3,5.2-5.1,5.2C348.1,371.8,345.8,369.4,345.8,366.6"/>
	<path id="path7265_4_" inkscape:connector-curvature="0" d="M345.8,365.6c0-2.9,2.2-5.2,5.1-5.1c2.8,0,5.1,2.3,5.1,5.1
		c0,2.8-2.3,5.1-5.1,5.1S345.8,368.4,345.8,365.6"/>
</g>
<text transform="matrix(1 0 0 1 203.6878 314.6086)" class="st2 st3 st6">Weak</text>
<g id="layer1_71_" transform="translate(-46.755712,-68.824694)" inkscape:groupmode="layer" inkscape:label="Layer 1">
	<path id="path2706_5_" class="st23" d="M253,367.8c0-3.7,3-6.7,6.7-6.7l0,0c3.7,0,6.7,3,6.7,6.7l0,0c0,3.7-3,6.7-6.7,6.7l0,0
		C256,374.5,253,371.5,253,367.8L253,367.8z"/>
</g>
<text transform="matrix(1 0 0 1 77.6876 314.6086)" class="st2 st3 st6">Weak</text>
<g id="layer1_28_" transform="translate(-46.755712,-68.824694)" inkscape:groupmode="layer" inkscape:label="Layer 1">
	<path id="path2706_4_" class="st23" d="M127,367.8c0-3.7,3-6.7,6.7-6.7l0,0c3.7,0,6.7,3,6.7,6.7l0,0c0,3.7-3,6.7-6.7,6.7l0,0
		C130,374.5,127,371.5,127,367.8L127,367.8z"/>
</g>
<g id="layer1_39_" transform="translate(-89.945866,-120.5333)" inkscape:groupmode="layer" inkscape:label="Layer 1">
	<path id="path7255_19_" inkscape:connector-curvature="0" class="st16" d="M176.9,394.8c-5.7,0-10.3-4.6-10.3-10.3
		c0-5.7,4.6-10.3,10.3-10.3s10.3,4.6,10.3,10.3S182.6,394.8,176.9,394.8"/>
	<path id="path7261_19_" inkscape:connector-curvature="0" class="st17" d="M176.9,392.5c-4.4,0-8-3.6-8-8s3.6-8,8-8s8,3.6,8,8
		C184.9,389,181.4,392.5,176.9,392.5"/>
	<path id="path1187_19_" inkscape:connector-curvature="0" class="st9" d="M176.9,392.4c-4.3,0-7.7-3.3-7.7-7.3s3.5-7.3,7.7-7.3
		c4.3,0,7.7,3.3,7.7,7.3S181.2,392.4,176.9,392.4"/>
	<path id="path861_19_" inkscape:connector-curvature="0" class="st18" d="M182.1,385.6c0,2.8-2.3,5.2-5.1,5.2s-5.1-2.3-5.1-5.2
		c0-2.8,2.3-5.2,5.1-5.2S182.1,382.7,182.1,385.6"/>
	<path id="path7265_19_" inkscape:connector-curvature="0" d="M182.1,384.6c0,2.8-2.3,5.1-5.1,5.1s-5.1-2.3-5.1-5.1
		c0-2.8,2.3-5.1,5.1-5.1C179.8,379.4,182.1,381.7,182.1,384.6"/>
</g>
<text transform="matrix(1 0 0 1 77.0559 285.8968)" class="st2 st3 st5">Sync</text>
<g id="layer1_18_" transform="translate(-89.945866,-120.5333)" inkscape:groupmode="layer" inkscape:label="Layer 1">
	<path id="path7255_23_" inkscape:connector-curvature="0" class="st16" d="M374.4,301.8c-5.6,0-10.3-4.6-10.3-10.3
		s4.6-10.3,10.3-10.3s10.3,4.6,10.3,10.3C384.7,297.2,380.1,301.8,374.4,301.8"/>
	<path id="path7261_23_" inkscape:connector-curvature="0" class="st17" d="M374.4,299.5c-4.5,0-8-3.5-8-8c0-4.4,3.6-8,8-8
		s8,3.6,8,8S378.8,299.5,374.4,299.5"/>
	<path id="path1187_23_" inkscape:connector-curvature="0" class="st9" d="M374.4,299.4c-4.2,0-7.7-3.3-7.7-7.3s3.4-7.3,7.7-7.3
		c4.2,0,7.7,3.3,7.7,7.3S378.7,299.4,374.4,299.4"/>
	<path id="path861_23_" inkscape:connector-curvature="0" class="st18" d="M369.3,292.6c0-2.9,2.2-5.2,5.1-5.2
		c2.8,0,5.1,2.4,5.1,5.2c0,2.9-2.3,5.2-5.1,5.2S369.3,295.4,369.3,292.6"/>
	<path id="path7265_23_" inkscape:connector-curvature="0" d="M369.3,291.6c0-2.9,2.2-5.2,5.1-5.1c2.8,0,5.1,2.3,5.1,5.1
		c0,2.8-2.3,5.1-5.1,5.1S369.3,294.4,369.3,291.6"/>
</g>
<g id="layer1_25_" transform="translate(-89.945866,-120.5333)" inkscape:groupmode="layer" inkscape:label="Layer 1">
	<path id="path7255_7_" inkscape:connector-curvature="0" class="st16" d="M105.4,301.8c-5.7,0-10.3-4.6-10.3-10.3
		c0-5.7,4.6-10.3,10.3-10.3s10.3,4.6,10.3,10.3S111,301.8,105.4,301.8"/>
	<path id="path7261_7_" inkscape:connector-curvature="0" class="st17" d="M105.4,299.5c-4.4,0-8-3.6-8-8s3.6-8,8-8s8,3.6,8,8
		C113.4,296,109.9,299.5,105.4,299.5"/>
	<path id="path1187_7_" inkscape:connector-curvature="0" class="st9" d="M105.4,299.4c-4.3,0-7.7-3.3-7.7-7.3s3.5-7.3,7.7-7.3
		c4.3,0,7.7,3.3,7.7,7.3S109.6,299.4,105.4,299.4"/>
	<path id="path861_7_" inkscape:connector-curvature="0" class="st18" d="M110.5,292.6c0,2.8-2.3,5.2-5.1,5.2s-5.1-2.3-5.1-5.2
		c0-2.8,2.3-5.2,5.1-5.2C108.3,287.4,110.5,289.7,110.5,292.6"/>
	<path id="path7265_7_" inkscape:connector-curvature="0" d="M110.5,291.6c0,2.8-2.3,5.1-5.1,5.1s-5.1-2.3-5.1-5.1
		c0-2.8,2.3-5.1,5.1-5.1C108.3,286.4,110.5,288.7,110.5,291.6"/>
</g>
<g id="layer1_24_" transform="translate(-89.945866,-120.5333)" inkscape:groupmode="layer" inkscape:label="Layer 1">
	<path id="path7255_2_" inkscape:connector-curvature="0" class="st16" d="M105.4,263.8c-5.7,0-10.3-4.6-10.3-10.3
		s4.6-10.3,10.3-10.3c5.7,0,10.3,4.6,10.3,10.3C115.7,259.2,111,263.8,105.4,263.8"/>
	<path id="path7261_2_" inkscape:connector-curvature="0" class="st17" d="M105.4,261.5c-4.4,0-8-3.6-8-8s3.6-8,8-8s8,3.6,8,8
		C113.4,258,109.9,261.5,105.4,261.5"/>
	<path id="path1187_2_" inkscape:connector-curvature="0" class="st9" d="M105.4,261.4c-4.3,0-7.7-3.3-7.7-7.3s3.5-7.3,7.7-7.3
		c4.3,0,7.7,3.3,7.7,7.3C113.1,258.1,109.6,261.4,105.4,261.4"/>
	<path id="path861_2_" inkscape:connector-curvature="0" class="st18" d="M110.6,254.6c0,2.8-2.3,5.2-5.1,5.2
		c-2.8,0-5.1-2.3-5.1-5.2c0-2.8,2.3-5.2,5.1-5.2S110.6,251.7,110.6,254.6"/>
	<path id="path7265_2_" inkscape:connector-curvature="0" d="M110.6,253.6c0,3.5-3.6,6.2-7.3,4.6c-1.1-0.5-2-1.4-2.4-2.4
		c-1.6-3.7,1.1-7.3,4.6-7.3C108.3,248.4,110.6,250.7,110.6,253.6"/>
</g>
<path id="rect75_1_" inkscape:connector-curvature="0" class="st24" d="M30,30h240v195H30V30z"/>
<line class="st25" x1="30.2" y1="205.9" x2="270.2" y2="205.9"/>
<line class="st25" x1="30.2" y1="186.9" x2="270.2" y2="186.9"/>
<line class="st25" x1="30.2" y1="167.9" x2="270.2" y2="167.9"/>
<line class="st25" x1="30.2" y1="148.9" x2="270.2" y2="148.9"/>
<line class="st25" x1="30.2" y1="129.9" x2="270.2" y2="129.9"/>
<line class="st25" x1="30.2" y1="110.9" x2="270.2" y2="110.9"/>
<line class="st25" x1="30.2" y1="91.9" x2="270.2" y2="91.9"/>
<line class="st25" x1="30.2" y1="72.9" x2="270.2" y2="72.9"/>
<line class="st25" x1="150.2" y1="72.9" x2="150.2" y2="225"/>
<line class="st25" x1="180.2" y1="72.9" x2="180.2" y2="225"/>
<line class="st25" x1="210.2" y1="72.9" x2="210.2" y2="225"/>
<line class="st25" x1="240.2" y1="72.9" x2="240.2" y2="225"/>
<line class="st25" x1="60.2" y1="72.9" x2="60.2" y2="225"/>
<line class="st25" x1="90.2" y1="72.9" x2="90.2" y2="225"/>
<line class="st25" x1="120.2" y1="72.9" x2="120.2" y2="225"/>
<path id="rect75_3_" inkscape:connector-curvature="0" class="st26" d="M30.2,29.7h240V225h-240L30.2,29.7L30.2,29.7z"/>
<g>
	<g>
		<path class="st14" d="M38.2,67.3c-0.3,0.3-0.8,0.4-1.6,0.4h-2.4v-8.4h2.3c0.7,0,1.2,0.1,1.6,0.4c0.3,0.3,0.5,0.8,0.5,1.4v0.7
			c0,0.6-0.2,1.1-0.7,1.4c0.5,0.3,0.8,0.8,0.8,1.5v1.1C38.7,66.5,38.5,67,38.2,67.3z M37.3,60.4c-0.1-0.1-0.4-0.2-0.7-0.2h-1.4v2.7
			h1.4c0.2,0,0.5-0.1,0.6-0.2s0.3-0.4,0.3-0.6v-0.9C37.5,60.8,37.4,60.6,37.3,60.4z M37.4,64c-0.2-0.2-0.4-0.2-0.6-0.2h-1.5v3h1.5
			c0.3,0,0.5-0.1,0.7-0.2c0.1-0.1,0.2-0.4,0.2-0.7v-1.3C37.6,64.4,37.5,64.2,37.4,64z"/>
		<path class="st14" d="M44.3,67.6c-0.1-0.1-0.2-0.2-0.3-0.3c-0.2,0.2-0.4,0.4-0.7,0.4h-1.1c-0.6,0-1-0.1-1.3-0.4
			c-0.3-0.2-0.4-0.7-0.4-1.3v-0.2c0-1.2,0.6-1.9,1.8-1.9h1.5v-0.6c0-0.2-0.1-0.4-0.2-0.6c-0.2-0.1-0.4-0.2-0.7-0.2H41v-0.9h1.7
			c0.7,0,1.2,0.2,1.5,0.5s0.5,0.8,0.5,1.5v2.9c0,0.1,0,0.2,0.1,0.3s0.2,0.1,0.5,0.1v0.8h-0.7C44.6,67.7,44.5,67.7,44.3,67.6z
			 M43.6,66.7c0.1-0.1,0.1-0.3,0.1-0.4V65h-1.5c-0.2,0-0.4,0.1-0.5,0.2s-0.2,0.3-0.2,0.5v0.6c0,0.2,0,0.4,0.1,0.5s0.2,0.1,0.5,0.1
			h1.1C43.4,66.8,43.6,66.8,43.6,66.7z"/>
		<path class="st14" d="M48.2,61.7V62c0.2-0.2,0.6-0.3,1-0.3h0.6c0.6,0,1.1,0.2,1.4,0.5s0.5,0.8,0.5,1.5v4.1h-1v-4.3
			c0-0.2-0.1-0.4-0.2-0.6c-0.1-0.1-0.3-0.2-0.6-0.2H49c-0.3,0-0.5,0.1-0.6,0.2c-0.1,0.1-0.2,0.3-0.2,0.5v4.4h-1v-6h1V61.7z"/>
		<path class="st14" d="M54.8,65.2v2.6h-1v-8.4h1v4.5l1.9-2.1H58l-2.1,2.4l2.3,3.6h-1.3l-1.8-2.9L54.8,65.2z"/>
		<path class="st14" d="M63,61.7v1.2h-1.2v-1.2H63z M63,66.5v1.2h-1.2v-1.2H63z"/>
		<path class="st14" d="M70.4,67.2c-0.4,0.4-0.8,0.5-1.4,0.5h-0.4c-0.5,0-1-0.2-1.4-0.5s-0.5-0.9-0.5-1.5v-4.3
			c0-0.7,0.2-1.2,0.5-1.5c0.4-0.3,0.9-0.5,1.6-0.5h1.5v0.9h-1.6c-0.3,0-0.5,0.1-0.7,0.3s-0.3,0.4-0.3,0.6v1.3H69
			c0.7,0,1.2,0.2,1.5,0.5s0.5,0.8,0.5,1.5v1.3C71,66.4,70.8,66.9,70.4,67.2z M68,66.6c0.2,0.2,0.4,0.3,0.7,0.3H69
			c0.3,0,0.5-0.1,0.7-0.3c0.2-0.2,0.3-0.4,0.3-0.6v-1.8c0-0.2-0.1-0.4-0.2-0.6c-0.1-0.1-0.4-0.2-0.7-0.2h-1.3V66
			C67.8,66.2,67.9,66.4,68,66.6z"/>
		<path class="st14" d="M75.6,67.7v-1.9h-2.5v-1l1.3-5.5h1L74.2,65h1.4v-2.7h1V65h0.9v0.9h-0.9v1.9h-1V67.7z"/>
	</g>
</g>
<g>
	<g>
		<path class="st14" d="M98.8,67.2c-0.4,0.3-0.9,0.5-1.6,0.5h-1.7v-0.9h1.8c0.3,0,0.5-0.1,0.7-0.3c0.2-0.2,0.3-0.4,0.3-0.6v-1.2
			c0-0.2-0.1-0.4-0.2-0.6c-0.1-0.1-0.3-0.2-0.6-0.2h-0.4c-0.6,0-1.1-0.2-1.4-0.5s-0.5-0.9-0.5-1.5v-0.5c0-0.7,0.2-1.2,0.6-1.5
			s0.9-0.5,1.6-0.5h1.7v0.9h-1.8c-0.3,0-0.5,0.1-0.7,0.3s-0.3,0.4-0.3,0.6v0.9c0,0.2,0.1,0.5,0.2,0.6c0.2,0.2,0.4,0.2,0.6,0.2h0.4
			c0.6,0,1,0.2,1.3,0.5s0.5,0.8,0.5,1.5v0.8C99.3,66.4,99.2,66.9,98.8,67.2z"/>
		<path class="st14" d="M103.3,67.3c-0.2-0.3-0.3-0.6-0.3-1v-3.7h-1.1v-0.9h1.1v-1.4h1v1.4h1.8v0.9H104v3.7c0,0.2,0,0.3,0.1,0.4
			s0.2,0.1,0.4,0.1h1.2v0.9h-1.5C103.8,67.7,103.5,67.6,103.3,67.3z"/>
		<path class="st14" d="M111.7,67.6c-0.1-0.1-0.2-0.2-0.3-0.3c-0.2,0.2-0.4,0.4-0.7,0.4h-1.1c-0.6,0-1-0.1-1.3-0.4
			c-0.3-0.2-0.4-0.7-0.4-1.3v-0.2c0-1.2,0.6-1.9,1.8-1.9h1.5v-0.6c0-0.2-0.1-0.4-0.2-0.6c-0.2-0.1-0.4-0.2-0.7-0.2h-1.9v-0.9h1.7
			c0.7,0,1.2,0.2,1.5,0.5s0.5,0.8,0.5,1.5v2.9c0,0.1,0,0.2,0.1,0.3s0.2,0.1,0.5,0.1v0.8H112C111.9,67.7,111.8,67.7,111.7,67.6z
			 M111,66.7c0.1-0.1,0.1-0.3,0.1-0.4V65h-1.5c-0.2,0-0.4,0.1-0.5,0.2s-0.2,0.3-0.2,0.5v0.6c0,0.2,0,0.4,0.1,0.5s0.2,0.1,0.5,0.1
			h1.1C110.8,66.8,110.9,66.8,111,66.7z"/>
		<path class="st14" d="M115.6,66.8v-4.2h-0.9v-0.9h1.8V62c0.3-0.2,0.6-0.3,1-0.3h1.2v1h-1.4c-0.3,0-0.4,0.1-0.6,0.2
			s-0.2,0.3-0.2,0.5v3.4h1.3v0.9h-3.2v-0.9H115.6z"/>
		<path class="st14" d="M122.7,67.3c-0.2-0.3-0.3-0.6-0.3-1v-3.7h-1.1v-0.9h1.1v-1.4h1v1.4h1.8v0.9h-1.8v3.7c0,0.2,0,0.3,0.1,0.4
			s0.2,0.1,0.4,0.1h1.2v0.9h-1.5C123.3,67.7,123,67.6,122.7,67.3z"/>
		<path class="st14" d="M130.3,61.7v1.2h-1.2v-1.2H130.3z M130.3,66.5v1.2h-1.2v-1.2H130.3z"/>
		<path class="st14" d="M142.4,66.8v-6.6l-1.7,0.6v-1l1.6-0.6h1.1v7.5h1.3v0.9h-3.9v-0.9L142.4,66.8L142.4,66.8z"/>
	</g>
</g>
<g>
	<g>
		<path class="st14" d="M44.7,85.8v-6.6L43,79.9v-1l1.6-0.6h1.1v7.5H47v0.9h-3.9v-0.9H44.7z"/>
	</g>
</g>
<g>
	<g>
		<path class="st14" d="M75,82.9c0.3-0.4,0.4-0.6,0.5-0.8c0.1-0.2,0.2-0.3,0.2-0.5s0-0.4,0-0.7v-0.8c0-0.2-0.1-0.5-0.3-0.6
			c-0.2-0.2-0.4-0.3-0.7-0.3h-1.4v-0.9h1.3c0.7,0,1.2,0.2,1.6,0.5s0.6,0.9,0.6,1.5v0.5c0,0.4,0,0.7-0.1,1c-0.1,0.2-0.1,0.5-0.2,0.7
			S76.2,83,76,83.3l-1.8,2.5H77v0.9h-4v-1.1L75,82.9z"/>
	</g>
</g>
<g>
	<g>
		<path class="st14" d="M106.5,86.2c-0.3,0.3-0.8,0.5-1.6,0.5h-1.5v-0.9h1.6c0.3,0,0.5-0.1,0.7-0.2c0.1-0.1,0.2-0.4,0.2-0.7v-1.2
			c0-0.3-0.1-0.5-0.2-0.6c-0.2-0.2-0.4-0.2-0.6-0.2h-1.3V82h1.2c0.2,0,0.5-0.1,0.6-0.2c0.2-0.2,0.3-0.4,0.3-0.6v-1
			c0-0.3-0.1-0.5-0.2-0.7c-0.1-0.1-0.4-0.2-0.7-0.2h-1.5v-0.9h1.4c0.7,0,1.2,0.1,1.5,0.4s0.5,0.8,0.5,1.4V81c0,0.6-0.2,1.1-0.7,1.4
			c0.5,0.3,0.8,0.8,0.8,1.5v1C107,85.5,106.8,85.9,106.5,86.2z"/>
	</g>
</g>
<g>
	<g>
		<path class="st14" d="M135.6,86.7v-1.9h-2.5v-1l1.3-5.5h1l-1.2,5.7h1.4v-2.7h1V84h0.9v0.9h-0.9v1.9L135.6,86.7L135.6,86.7z"/>
	</g>
</g>
<g>
	<g>
		<path class="st14" d="M166.4,86.2c-0.3,0.3-0.8,0.5-1.6,0.5h-1.6v-0.9h1.7c0.3,0,0.5-0.1,0.7-0.2c0.1-0.1,0.2-0.4,0.2-0.7v-1.5
			c0-0.3-0.1-0.5-0.2-0.6c-0.2-0.2-0.4-0.2-0.6-0.2h-1.6v-4.2h3.3v0.9h-2.3v2.4h0.5c0.6,0,1.1,0.2,1.5,0.5s0.5,0.8,0.5,1.4v1.3
			C166.9,85.5,166.7,85.9,166.4,86.2z"/>
	</g>
</g>
<g>
	<g>
		<path class="st14" d="M196.9,86.2c-0.4,0.4-0.8,0.5-1.4,0.5h-0.4c-0.5,0-1-0.2-1.4-0.5s-0.5-0.9-0.5-1.5v-4.3
			c0-0.7,0.2-1.2,0.5-1.5c0.4-0.3,0.9-0.5,1.6-0.5h1.5v0.9h-1.6c-0.3,0-0.5,0.1-0.7,0.3c-0.2,0.2-0.3,0.4-0.3,0.6v1.3h1.2
			c0.7,0,1.2,0.2,1.5,0.5s0.5,0.8,0.5,1.5v1.3C197.4,85.3,197.2,85.8,196.9,86.2z M194.5,85.5c0.2,0.2,0.4,0.3,0.7,0.3h0.3
			c0.3,0,0.5-0.1,0.7-0.3c0.2-0.2,0.3-0.4,0.3-0.6v-1.8c0-0.2-0.1-0.4-0.2-0.6c-0.1-0.1-0.4-0.2-0.7-0.2h-1.3v2.6
			C194.2,85.1,194.3,85.4,194.5,85.5z"/>
	</g>
</g>
<g>
	<g>
		<path class="st14" d="M226.2,79.2h-2.9v-0.9h3.9v1.2l-2.1,7.2H224L226.2,79.2z"/>
	</g>
</g>
<g>
	<g>
		<path class="st14" d="M257,86.2c-0.3,0.3-0.8,0.5-1.6,0.5h-0.3c-0.7,0-1.2-0.1-1.6-0.5c-0.3-0.3-0.5-0.8-0.5-1.4v-1
			c0-0.7,0.3-1.2,0.8-1.5c-0.4-0.3-0.6-0.8-0.6-1.4v-0.8c0-0.6,0.2-1.1,0.5-1.4s0.8-0.5,1.4-0.5h0.2c0.6,0,1.1,0.2,1.4,0.5
			s0.5,0.8,0.5,1.4v0.8c0,0.6-0.2,1.1-0.6,1.4c0.5,0.3,0.8,0.8,0.8,1.5v1C257.4,85.5,257.3,85.9,257,86.2z M256.1,83.1
			c-0.2-0.2-0.4-0.2-0.6-0.2h-0.6c-0.3,0-0.5,0.1-0.6,0.2c-0.2,0.2-0.2,0.4-0.2,0.6v1.2c0,0.3,0.1,0.5,0.2,0.7
			c0.1,0.1,0.3,0.2,0.6,0.2h0.6c0.3,0,0.5-0.1,0.7-0.2c0.1-0.1,0.2-0.4,0.2-0.7v-1.2C256.4,83.4,256.3,83.2,256.1,83.1z M254.4,79.4
			c-0.1,0.1-0.2,0.4-0.2,0.6v1c0,0.3,0.1,0.5,0.2,0.6c0.1,0.2,0.3,0.2,0.6,0.3h0.4c0.2,0,0.5-0.1,0.6-0.2c0.2-0.2,0.2-0.4,0.2-0.6
			v-1c0-0.3-0.1-0.5-0.2-0.7c-0.1-0.1-0.3-0.2-0.7-0.2H255C254.7,79.2,254.5,79.3,254.4,79.4z"/>
	</g>
</g>
<g>
	<g>
		<path class="st14" d="M43.5,97.8c0.4-0.4,0.8-0.5,1.4-0.5h0.4c0.5,0,1,0.2,1.4,0.5c0.4,0.4,0.5,0.9,0.5,1.5v4.3
			c0,0.7-0.2,1.2-0.5,1.5c-0.4,0.3-0.9,0.5-1.6,0.5h-1.4v-0.9h1.5c0.3,0,0.5-0.1,0.7-0.3c0.2-0.2,0.3-0.4,0.3-0.6v-1.3H45
			c-0.7,0-1.2-0.2-1.5-0.5s-0.5-0.8-0.5-1.5v-1.3C42.9,98.7,43.1,98.2,43.5,97.8z M45.9,98.5c-0.2-0.2-0.4-0.3-0.7-0.3h-0.3
			c-0.3,0-0.5,0.1-0.7,0.3c-0.2,0.2-0.3,0.4-0.3,0.6v1.8c0,0.2,0.1,0.4,0.2,0.6c0.1,0.1,0.4,0.2,0.7,0.2h1.3v-2.6
			C46.1,98.9,46,98.6,45.9,98.5z"/>
	</g>
</g>
<g>
	<g>
		<path class="st14" d="M71.5,104.8v-6.6l-1.7,0.6v-1l1.6-0.6h1.1v7.5h1.3v0.9h-3.9v-0.9L71.5,104.8L71.5,104.8z"/>
		<path class="st14" d="M79.9,105.2c-0.4,0.3-0.9,0.5-1.5,0.5h-0.2c-0.6,0-1.1-0.2-1.5-0.5s-0.5-0.9-0.5-1.5v-4.3
			c0-0.7,0.2-1.2,0.5-1.5c0.4-0.3,0.9-0.5,1.5-0.5h0.2c0.6,0,1.1,0.2,1.5,0.5s0.5,0.9,0.5,1.5v4.3C80.4,104.3,80.2,104.8,79.9,105.2
			z M79.1,98.5c-0.2-0.2-0.4-0.3-0.7-0.3h-0.2c-0.3,0-0.5,0.1-0.7,0.3c-0.2,0.2-0.3,0.4-0.3,0.6v3.3l2.2-3.3
			C79.4,98.9,79.3,98.6,79.1,98.5z M77.4,104.5c0.2,0.2,0.4,0.3,0.7,0.3h0.2c0.3,0,0.5-0.1,0.7-0.3c0.2-0.2,0.3-0.4,0.3-0.6v-3.2
			l-2.2,3.2C77.2,104.1,77.3,104.3,77.4,104.5z"/>
	</g>
</g>
<g>
	<g>
		<path class="st14" d="M101.6,104.8v-6.6l-1.7,0.6v-1l1.6-0.6h1.1v7.5h1.3v0.9H100v-0.9L101.6,104.8L101.6,104.8z"/>
		<path class="st14" d="M108.1,104.8v-6.6l-1.7,0.6v-1l1.6-0.6h1.1v7.5h1.3v0.9h-3.9v-0.9L108.1,104.8L108.1,104.8z"/>
	</g>
</g>
<g>
	<g>
		<path class="st14" d="M131.7,104.8v-6.6l-1.7,0.6v-1l1.6-0.6h1.1v7.5h1.3v0.9h-3.9v-0.9L131.7,104.8L131.7,104.8z"/>
		<path class="st14" d="M138.5,101.9c0.3-0.4,0.4-0.6,0.5-0.8c0.1-0.2,0.2-0.3,0.2-0.5s0-0.4,0-0.7v-0.8c0-0.2-0.1-0.5-0.3-0.6
			c-0.2-0.2-0.4-0.3-0.7-0.3h-1.4v-0.9h1.3c0.7,0,1.2,0.2,1.6,0.5c0.4,0.3,0.6,0.9,0.6,1.5v0.5c0,0.4,0,0.7-0.1,1
			c-0.1,0.2-0.1,0.5-0.2,0.7c-0.1,0.2-0.3,0.5-0.5,0.8l-1.8,2.5h2.9v0.9h-4v-1.1L138.5,101.9z"/>
	</g>
</g>
<g>
	<g>
		<path class="st14" d="M161.5,104.8v-6.6l-1.7,0.6v-1l1.6-0.6h1.1v7.5h1.3v0.9h-3.9v-0.9L161.5,104.8L161.5,104.8z"/>
		<path class="st14" d="M169.6,105.2c-0.3,0.3-0.8,0.5-1.6,0.5h-1.5v-0.9h1.6c0.3,0,0.5-0.1,0.7-0.2c0.1-0.1,0.2-0.4,0.2-0.7v-1.2
			c0-0.3-0.1-0.5-0.2-0.6c-0.2-0.2-0.4-0.2-0.6-0.2h-1.3V101h1.2c0.2,0,0.5-0.1,0.6-0.2c0.2-0.2,0.3-0.4,0.3-0.6v-1
			c0-0.3-0.1-0.5-0.2-0.7c-0.1-0.1-0.4-0.2-0.7-0.2h-1.5v-0.9h1.4c0.7,0,1.2,0.1,1.5,0.4s0.5,0.8,0.5,1.4v0.8c0,0.6-0.2,1.1-0.7,1.4
			c0.5,0.3,0.8,0.8,0.8,1.5v1C170.1,104.5,170,104.9,169.6,105.2z"/>
	</g>
</g>
<g>
	<g>
		<path class="st14" d="M191.7,104.8v-6.6l-1.7,0.6v-1l1.6-0.6h1.1v7.5h1.3v0.9h-3.9v-0.9L191.7,104.8L191.7,104.8z"/>
		<path class="st14" d="M198.8,105.7v-1.9h-2.5v-1l1.3-5.5h1l-1.2,5.7h1.4v-2.7h1v2.7h0.9v0.9h-0.9v1.9L198.8,105.7L198.8,105.7z"/>
	</g>
</g>
<g>
	<g>
		<path class="st14" d="M221.8,104.8v-6.6l-1.7,0.6v-1l1.6-0.6h1.1v7.5h1.3v0.9h-3.9v-0.9L221.8,104.8L221.8,104.8z"/>
		<path class="st14" d="M229.9,105.2c-0.3,0.3-0.8,0.5-1.6,0.5h-1.6v-0.9h1.7c0.3,0,0.5-0.1,0.7-0.2c0.1-0.1,0.2-0.4,0.2-0.7v-1.5
			c0-0.3-0.1-0.5-0.2-0.6c-0.2-0.2-0.4-0.2-0.6-0.2h-1.6v-4.2h3.3v0.9h-2.3v2.4h0.5c0.6,0,1.1,0.2,1.5,0.5s0.5,0.8,0.5,1.4v1.3
			C230.4,104.5,230.2,104.9,229.9,105.2z"/>
	</g>
</g>
<g>
	<g>
		<path class="st14" d="M251.7,104.8v-6.6l-1.7,0.6v-1l1.6-0.6h1.1v7.5h1.3v0.9h-3.9v-0.9L251.7,104.8L251.7,104.8z"/>
		<path class="st14" d="M260.1,105.2c-0.4,0.4-0.8,0.5-1.4,0.5h-0.4c-0.5,0-1-0.2-1.4-0.5s-0.5-0.9-0.5-1.5v-4.3
			c0-0.7,0.2-1.2,0.5-1.5c0.4-0.3,0.9-0.5,1.6-0.5h1.5v0.9h-1.6c-0.3,0-0.5,0.1-0.7,0.3c-0.2,0.2-0.3,0.4-0.3,0.6v1.3h1.2
			c0.7,0,1.2,0.2,1.5,0.5s0.5,0.8,0.5,1.5v1.3C260.6,104.3,260.4,104.8,260.1,105.2z M257.7,104.5c0.2,0.2,0.4,0.3,0.7,0.3h0.3
			c0.3,0,0.5-0.1,0.7-0.3c0.2-0.2,0.3-0.4,0.3-0.6v-1.8c0-0.2-0.1-0.4-0.2-0.6c-0.1-0.1-0.4-0.2-0.7-0.2h-1.3v2.6
			C257.4,104.1,257.5,104.4,257.7,104.5z"/>
	</g>
</g>
<line class="st25" x1="30.2" y1="148.9" x2="270.2" y2="148.9"/>
<g>
	<g>
		<path class="st14" d="M41.4,123.9v-6.6l-1.7,0.6v-1l1.6-0.6h1.1v7.5h1.3v0.9h-3.9v-0.9L41.4,123.9L41.4,123.9z"/>
		<path class="st14" d="M49.2,117.3h-2.9v-0.9h3.9v1.2l-2.1,7.2H47L49.2,117.3z"/>
	</g>
</g>
<g>
	<g>
		<path class="st14" d="M71.5,123.9v-6.6l-1.7,0.6v-1l1.6-0.6h1.1v7.5h1.3v0.9h-3.9v-0.9L71.5,123.9L71.5,123.9z"/>
		<path class="st14" d="M80,124.3c-0.3,0.3-0.8,0.5-1.6,0.5h-0.3c-0.7,0-1.2-0.1-1.6-0.5c-0.3-0.3-0.5-0.8-0.5-1.4v-1
			c0-0.7,0.3-1.2,0.8-1.5c-0.4-0.3-0.6-0.8-0.6-1.4v-0.8c0-0.6,0.2-1.1,0.5-1.4s0.8-0.5,1.4-0.5h0.2c0.6,0,1.1,0.2,1.4,0.5
			s0.5,0.8,0.5,1.4v0.8c0,0.6-0.2,1.1-0.6,1.4c0.5,0.3,0.8,0.8,0.8,1.5v1C80.5,123.5,80.3,124,80,124.3z M79.2,121.1
			c-0.2-0.2-0.4-0.2-0.6-0.2H78c-0.3,0-0.5,0.1-0.6,0.2c-0.2,0.2-0.2,0.4-0.2,0.6v1.2c0,0.3,0.1,0.5,0.2,0.7
			c0.1,0.1,0.3,0.2,0.6,0.2h0.6c0.3,0,0.5-0.1,0.7-0.2c0.1-0.1,0.2-0.4,0.2-0.7v-1.2C79.4,121.5,79.4,121.3,79.2,121.1z M77.4,117.5
			c-0.1,0.1-0.2,0.4-0.2,0.6v1c0,0.3,0.1,0.5,0.2,0.6c0.1,0.2,0.3,0.2,0.6,0.3h0.4c0.2,0,0.5-0.1,0.6-0.2c0.2-0.2,0.2-0.4,0.2-0.6
			v-1c0-0.3-0.1-0.5-0.2-0.7c-0.1-0.1-0.3-0.2-0.7-0.2H78C77.7,117.3,77.5,117.3,77.4,117.5z"/>
	</g>
</g>
<g>
	<g>
		<path class="st14" d="M101.6,123.9v-6.6l-1.7,0.6v-1l1.6-0.6h1.1v7.5h1.3v0.9H100v-0.9L101.6,123.9L101.6,123.9z"/>
		<path class="st14" d="M106.9,116.9c0.4-0.4,0.8-0.5,1.4-0.5h0.4c0.5,0,1,0.2,1.4,0.5c0.4,0.4,0.5,0.9,0.5,1.5v4.3
			c0,0.7-0.2,1.2-0.5,1.5c-0.4,0.3-0.9,0.5-1.6,0.5h-1.4v-0.9h1.5c0.3,0,0.5-0.1,0.7-0.3c0.2-0.2,0.3-0.4,0.3-0.6v-1.3h-1.2
			c-0.7,0-1.2-0.2-1.5-0.5s-0.5-0.8-0.5-1.5v-1.3C106.4,117.7,106.5,117.2,106.9,116.9z M109.3,117.5c-0.2-0.2-0.4-0.3-0.7-0.3h-0.3
			c-0.3,0-0.5,0.1-0.7,0.3c-0.2,0.2-0.3,0.4-0.3,0.6v1.8c0,0.2,0.1,0.4,0.2,0.6c0.1,0.1,0.4,0.2,0.7,0.2h1.3v-2.6
			C109.5,117.9,109.5,117.7,109.3,117.5z"/>
	</g>
</g>
<g>
	<g>
		<path class="st14" d="M132,121c0.3-0.4,0.4-0.6,0.5-0.8c0.1-0.2,0.2-0.3,0.2-0.5s0-0.4,0-0.7v-0.8c0-0.2-0.1-0.5-0.3-0.6
			c-0.2-0.2-0.4-0.3-0.7-0.3h-1.4v-0.9h1.3c0.7,0,1.2,0.2,1.6,0.5c0.4,0.3,0.6,0.9,0.6,1.5v0.5c0,0.4,0,0.7-0.1,1
			c-0.1,0.2-0.1,0.5-0.2,0.7c-0.1,0.2-0.3,0.5-0.5,0.8l-1.8,2.5h2.9v0.9h-4v-1.1L132,121z"/>
		<path class="st14" d="M140.1,124.2c-0.4,0.3-0.9,0.5-1.5,0.5h-0.2c-0.6,0-1.1-0.2-1.5-0.5s-0.5-0.9-0.5-1.5v-4.3
			c0-0.7,0.2-1.2,0.5-1.5c0.4-0.3,0.9-0.5,1.5-0.5h0.2c0.6,0,1.1,0.2,1.5,0.5s0.5,0.9,0.5,1.5v4.3
			C140.7,123.4,140.5,123.9,140.1,124.2z M139.4,117.5c-0.2-0.2-0.4-0.3-0.7-0.3h-0.2c-0.3,0-0.5,0.1-0.7,0.3
			c-0.2,0.2-0.3,0.4-0.3,0.6v3.3l2.2-3.3C139.6,117.9,139.5,117.7,139.4,117.5z M137.7,123.6c0.2,0.2,0.4,0.3,0.7,0.3h0.2
			c0.3,0,0.5-0.1,0.7-0.3c0.2-0.2,0.3-0.4,0.3-0.6v-3.2l-2.2,3.2C137.4,123.2,137.5,123.4,137.7,123.6z"/>
	</g>
</g>
<g>
	<g>
		<path class="st14" d="M161.8,121c0.3-0.4,0.4-0.6,0.5-0.8c0.1-0.2,0.2-0.3,0.2-0.5s0-0.4,0-0.7v-0.8c0-0.2-0.1-0.5-0.3-0.6
			c-0.2-0.2-0.4-0.3-0.7-0.3h-1.4v-0.9h1.3c0.7,0,1.2,0.2,1.6,0.5c0.4,0.3,0.6,0.9,0.6,1.5v0.5c0,0.4,0,0.7-0.1,1
			c-0.1,0.2-0.1,0.5-0.2,0.7c-0.1,0.2-0.3,0.5-0.5,0.8l-1.8,2.5h2.9v0.9h-4v-1.1L161.8,121z"/>
		<path class="st14" d="M168,123.9v-6.6l-1.7,0.6v-1l1.6-0.6h1.1v7.5h1.3v0.9h-3.9v-0.9L168,123.9L168,123.9z"/>
	</g>
</g>
<g>
	<g>
		<path class="st14" d="M192,121c0.3-0.4,0.4-0.6,0.5-0.8c0.1-0.2,0.2-0.3,0.2-0.5s0-0.4,0-0.7v-0.8c0-0.2-0.1-0.5-0.3-0.6
			c-0.2-0.2-0.4-0.3-0.7-0.3h-1.4v-0.9h1.3c0.7,0,1.2,0.2,1.6,0.5c0.4,0.3,0.6,0.9,0.6,1.5v0.5c0,0.4,0,0.7-0.1,1
			c-0.1,0.2-0.1,0.5-0.2,0.7c-0.1,0.2-0.3,0.5-0.5,0.8l-1.8,2.5h2.9v0.9h-4v-1.1L192,121z"/>
		<path class="st14" d="M198.4,121c0.3-0.4,0.4-0.6,0.5-0.8c0.1-0.2,0.2-0.3,0.2-0.5s0-0.4,0-0.7v-0.8c0-0.2-0.1-0.5-0.3-0.6
			c-0.2-0.2-0.4-0.3-0.7-0.3h-1.4v-0.9h1.3c0.7,0,1.2,0.2,1.6,0.5c0.4,0.3,0.6,0.9,0.6,1.5v0.5c0,0.4,0,0.7-0.1,1
			c-0.1,0.2-0.1,0.5-0.2,0.7c-0.1,0.2-0.3,0.5-0.5,0.8l-1.8,2.5h2.9v0.9h-4v-1.1L198.4,121z"/>
	</g>
</g>
<g>
	<g>
		<path class="st14" d="M222,121c0.3-0.4,0.4-0.6,0.5-0.8c0.1-0.2,0.2-0.3,0.2-0.5s0-0.4,0-0.7v-0.8c0-0.2-0.1-0.5-0.3-0.6
			c-0.2-0.2-0.4-0.3-0.7-0.3h-1.4v-0.9h1.3c0.7,0,1.2,0.2,1.6,0.5c0.4,0.3,0.6,0.9,0.6,1.5v0.5c0,0.4,0,0.7-0.1,1
			c-0.1,0.2-0.1,0.5-0.2,0.7c-0.1,0.2-0.3,0.5-0.5,0.8l-1.8,2.5h2.9v0.9h-4v-1.1L222,121z"/>
		<path class="st14" d="M229.9,124.3c-0.3,0.3-0.8,0.5-1.6,0.5h-1.5v-0.9h1.6c0.3,0,0.5-0.1,0.7-0.2c0.1-0.1,0.2-0.4,0.2-0.7v-1.2
			c0-0.3-0.1-0.5-0.2-0.6c-0.2-0.2-0.4-0.2-0.6-0.2h-1.3v-1h1.2c0.2,0,0.5-0.1,0.6-0.2c0.2-0.2,0.3-0.4,0.3-0.6v-1
			c0-0.3-0.1-0.5-0.2-0.7c-0.1-0.1-0.4-0.2-0.7-0.2h-1.5v-0.9h1.4c0.7,0,1.2,0.1,1.5,0.4s0.5,0.8,0.5,1.4v0.8c0,0.6-0.2,1.1-0.7,1.4
			c0.5,0.3,0.8,0.8,0.8,1.5v1C230.4,123.5,230.2,124,229.9,124.3z"/>
	</g>
</g>
<g>
	<g>
		<path class="st14" d="M251.9,121c0.3-0.4,0.4-0.6,0.5-0.8c0.1-0.2,0.2-0.3,0.2-0.5s0-0.4,0-0.7v-0.8c0-0.2-0.1-0.5-0.3-0.6
			c-0.2-0.2-0.4-0.3-0.7-0.3h-1.4v-0.9h1.3c0.7,0,1.2,0.2,1.6,0.5c0.4,0.3,0.6,0.9,0.6,1.5v0.5c0,0.4,0,0.7-0.1,1
			c-0.1,0.2-0.1,0.5-0.2,0.7c-0.1,0.2-0.3,0.5-0.5,0.8l-1.8,2.5h2.9v0.9h-4v-1.1L251.9,121z"/>
		<path class="st14" d="M258.7,124.8v-1.9h-2.5v-1l1.3-5.5h1l-1.2,5.7h1.4v-2.7h1v2.7h0.9v0.9h-0.9v1.9L258.7,124.8L258.7,124.8z"/>
	</g>
</g>
<g>
	<g>
		<path class="st14" d="M41.7,140c0.3-0.4,0.4-0.6,0.5-0.8s0.2-0.3,0.2-0.5s0-0.4,0-0.7v-0.8c0-0.2-0.1-0.5-0.3-0.6
			c-0.2-0.2-0.4-0.3-0.7-0.3H40v-0.9h1.3c0.7,0,1.2,0.2,1.6,0.5c0.4,0.3,0.6,0.9,0.6,1.5v0.5c0,0.4,0,0.7-0.1,1
			c-0.1,0.2-0.1,0.5-0.2,0.7c-0.1,0.2-0.3,0.5-0.5,0.8l-1.8,2.5h2.9v0.9h-4v-1.1L41.7,140z"/>
		<path class="st14" d="M49.6,143.3c-0.3,0.3-0.8,0.5-1.6,0.5h-1.6v-0.9h1.7c0.3,0,0.5-0.1,0.7-0.2c0.1-0.1,0.2-0.4,0.2-0.7v-1.5
			c0-0.3-0.1-0.5-0.2-0.6c-0.2-0.2-0.4-0.2-0.6-0.2h-1.6v-4.2h3.3v0.9h-2.3v2.4h0.5c0.6,0,1.1,0.2,1.5,0.5s0.5,0.8,0.5,1.4v1.3
			C50,142.5,49.9,143,49.6,143.3z"/>
	</g>
</g>
<g>
	<g>
		<path class="st14" d="M71.7,140c0.3-0.4,0.4-0.6,0.5-0.8s0.2-0.3,0.2-0.5s0-0.4,0-0.7v-0.8c0-0.2-0.1-0.5-0.3-0.6
			c-0.2-0.2-0.4-0.3-0.7-0.3H70v-0.9h1.3c0.7,0,1.2,0.2,1.6,0.5s0.6,0.9,0.6,1.5v0.5c0,0.4,0,0.7-0.1,1c-0.1,0.2-0.1,0.5-0.2,0.7
			s-0.3,0.5-0.5,0.8l-1.8,2.5h2.9v0.9h-4v-1.1L71.7,140z"/>
		<path class="st14" d="M79.9,143.2c-0.4,0.4-0.8,0.5-1.4,0.5h-0.4c-0.5,0-1-0.2-1.4-0.5s-0.5-0.9-0.5-1.5v-4.3
			c0-0.7,0.2-1.2,0.5-1.5c0.4-0.3,0.9-0.5,1.6-0.5h1.5v0.9h-1.6c-0.3,0-0.5,0.1-0.7,0.3s-0.3,0.4-0.3,0.6v1.3h1.2
			c0.7,0,1.2,0.2,1.5,0.5s0.5,0.8,0.5,1.5v1.3C80.4,142.4,80.2,142.9,79.9,143.2z M77.5,142.6c0.2,0.2,0.4,0.3,0.7,0.3h0.3
			c0.3,0,0.5-0.1,0.7-0.3s0.3-0.4,0.3-0.6v-1.8c0-0.2-0.1-0.4-0.2-0.6c-0.1-0.1-0.4-0.2-0.7-0.2h-1.3v2.6
			C77.2,142.2,77.3,142.4,77.5,142.6z"/>
	</g>
</g>
<g>
	<g>
		<path class="st14" d="M101.9,140c0.3-0.4,0.4-0.6,0.5-0.8s0.2-0.3,0.2-0.5s0-0.4,0-0.7v-0.8c0-0.2-0.1-0.5-0.3-0.6
			c-0.2-0.2-0.4-0.3-0.7-0.3h-1.4v-0.9h1.3c0.7,0,1.2,0.2,1.6,0.5s0.6,0.9,0.6,1.5v0.5c0,0.4,0,0.7-0.1,1c-0.1,0.2-0.1,0.5-0.2,0.7
			s-0.3,0.5-0.5,0.8l-1.8,2.5h2.9v0.9h-4v-1.1L101.9,140z"/>
		<path class="st14" d="M109.4,136.3h-2.9v-0.9h3.9v1.2l-2.1,7.2h-1.1L109.4,136.3z"/>
	</g>
</g>
<g>
	<g>
		<path class="st14" d="M132,140c0.3-0.4,0.4-0.6,0.5-0.8s0.2-0.3,0.2-0.5s0-0.4,0-0.7v-0.8c0-0.2-0.1-0.5-0.3-0.6
			c-0.2-0.2-0.4-0.3-0.7-0.3h-1.4v-0.9h1.3c0.7,0,1.2,0.2,1.6,0.5c0.4,0.3,0.6,0.9,0.6,1.5v0.5c0,0.4,0,0.7-0.1,1
			c-0.1,0.2-0.1,0.5-0.2,0.7c-0.1,0.2-0.3,0.5-0.5,0.8l-1.8,2.5h2.9v0.9h-4v-1.1L132,140z"/>
		<path class="st14" d="M140.2,143.3c-0.3,0.3-0.8,0.5-1.6,0.5h-0.3c-0.7,0-1.2-0.1-1.6-0.5c-0.3-0.3-0.5-0.8-0.5-1.4v-1
			c0-0.7,0.3-1.2,0.8-1.5c-0.4-0.3-0.6-0.8-0.6-1.4v-0.8c0-0.6,0.2-1.1,0.5-1.4s0.8-0.5,1.4-0.5h0.2c0.6,0,1.1,0.2,1.4,0.5
			s0.5,0.8,0.5,1.4v0.8c0,0.6-0.2,1.1-0.6,1.4c0.5,0.3,0.8,0.8,0.8,1.5v1C140.7,142.5,140.6,143,140.2,143.3z M139.4,140.1
			c-0.2-0.2-0.4-0.2-0.6-0.2h-0.6c-0.3,0-0.5,0.1-0.6,0.2c-0.2,0.2-0.2,0.4-0.2,0.6v1.2c0,0.3,0.1,0.5,0.2,0.7
			c0.1,0.1,0.3,0.2,0.6,0.2h0.6c0.3,0,0.5-0.1,0.7-0.2c0.1-0.1,0.2-0.4,0.2-0.7v-1.2C139.7,140.5,139.6,140.3,139.4,140.1z
			 M137.7,136.5c-0.1,0.1-0.2,0.4-0.2,0.6v1c0,0.3,0.1,0.5,0.2,0.6c0.1,0.2,0.3,0.2,0.6,0.3h0.4c0.2,0,0.5-0.1,0.6-0.2
			c0.2-0.2,0.2-0.4,0.2-0.6v-1c0-0.3-0.1-0.5-0.2-0.7c-0.1-0.1-0.3-0.2-0.7-0.2h-0.4C138,136.3,137.8,136.3,137.7,136.5z"/>
	</g>
</g>
<g>
	<g>
		<path class="st14" d="M161.8,140c0.3-0.4,0.4-0.6,0.5-0.8s0.2-0.3,0.2-0.5s0-0.4,0-0.7v-0.8c0-0.2-0.1-0.5-0.3-0.6
			c-0.2-0.2-0.4-0.3-0.7-0.3h-1.4v-0.9h1.3c0.7,0,1.2,0.2,1.6,0.5c0.4,0.3,0.6,0.9,0.6,1.5v0.5c0,0.4,0,0.7-0.1,1
			c-0.1,0.2-0.1,0.5-0.2,0.7c-0.1,0.2-0.3,0.5-0.5,0.8l-1.8,2.5h2.9v0.9h-4v-1.1L161.8,140z"/>
		<path class="st14" d="M166.8,135.9c0.4-0.4,0.8-0.5,1.4-0.5h0.4c0.5,0,1,0.2,1.4,0.5c0.4,0.4,0.5,0.9,0.5,1.5v4.3
			c0,0.7-0.2,1.2-0.5,1.5c-0.4,0.3-0.9,0.5-1.6,0.5H167v-0.9h1.5c0.3,0,0.5-0.1,0.7-0.3s0.3-0.4,0.3-0.6v-1.3h-1.2
			c-0.7,0-1.2-0.2-1.5-0.5s-0.5-0.8-0.5-1.5v-1.3C166.2,136.7,166.4,136.2,166.8,135.9z M169.2,136.5c-0.2-0.2-0.4-0.3-0.7-0.3h-0.3
			c-0.3,0-0.5,0.1-0.7,0.3s-0.3,0.4-0.3,0.6v1.8c0,0.2,0.1,0.4,0.2,0.6c0.1,0.1,0.4,0.2,0.7,0.2h1.3v-2.6
			C169.4,136.9,169.3,136.7,169.2,136.5z"/>
	</g>
</g>
<g>
	<g>
		<path class="st14" d="M193.3,143.3c-0.3,0.3-0.8,0.5-1.6,0.5h-1.5v-0.9h1.6c0.3,0,0.5-0.1,0.7-0.2c0.1-0.1,0.2-0.4,0.2-0.7v-1.2
			c0-0.3-0.1-0.5-0.2-0.6c-0.2-0.2-0.4-0.2-0.6-0.2h-1.3v-1h1.2c0.2,0,0.5-0.1,0.6-0.2c0.2-0.2,0.3-0.4,0.3-0.6v-1
			c0-0.3-0.1-0.5-0.2-0.7c-0.1-0.1-0.4-0.2-0.7-0.2h-1.5v-0.9h1.4c0.7,0,1.2,0.1,1.5,0.4c0.3,0.3,0.5,0.8,0.5,1.4v0.8
			c0,0.6-0.2,1.1-0.7,1.4c0.5,0.3,0.8,0.8,0.8,1.5v1C193.8,142.5,193.6,143,193.3,143.3z"/>
		<path class="st14" d="M200.1,143.2c-0.4,0.3-0.9,0.5-1.5,0.5h-0.2c-0.6,0-1.1-0.2-1.5-0.5s-0.5-0.9-0.5-1.5v-4.3
			c0-0.7,0.2-1.2,0.5-1.5c0.4-0.3,0.9-0.5,1.5-0.5h0.2c0.6,0,1.1,0.2,1.5,0.5s0.5,0.9,0.5,1.5v4.3
			C200.6,142.4,200.5,142.9,200.1,143.2z M199.3,136.5c-0.2-0.2-0.4-0.3-0.7-0.3h-0.2c-0.3,0-0.5,0.1-0.7,0.3s-0.3,0.4-0.3,0.6v3.3
			l2.2-3.3C199.6,136.9,199.5,136.7,199.3,136.5z M197.7,142.6c0.2,0.2,0.4,0.3,0.7,0.3h0.2c0.3,0,0.5-0.1,0.7-0.3s0.3-0.4,0.3-0.6
			v-3.2l-2.2,3.2C197.4,142.2,197.5,142.4,197.7,142.6z"/>
	</g>
</g>
<g>
	<g>
		<path class="st14" d="M223.4,143.3c-0.3,0.3-0.8,0.5-1.6,0.5h-1.5v-0.9h1.6c0.3,0,0.5-0.1,0.7-0.2c0.1-0.1,0.2-0.4,0.2-0.7v-1.2
			c0-0.3-0.1-0.5-0.2-0.6c-0.2-0.2-0.4-0.2-0.6-0.2h-1.3v-1h1.2c0.2,0,0.5-0.1,0.6-0.2c0.2-0.2,0.3-0.4,0.3-0.6v-1
			c0-0.3-0.1-0.5-0.2-0.7c-0.1-0.1-0.4-0.2-0.7-0.2h-1.5v-0.9h1.4c0.7,0,1.2,0.1,1.5,0.4c0.3,0.3,0.5,0.8,0.5,1.4v0.8
			c0,0.6-0.2,1.1-0.7,1.4c0.5,0.3,0.8,0.8,0.8,1.5v1C223.9,142.5,223.7,143,223.4,143.3z"/>
		<path class="st14" d="M228.2,142.9v-6.6l-1.7,0.6v-1l1.6-0.6h1.1v7.5h1.3v0.9h-3.9v-0.9h1.6V142.9z"/>
	</g>
</g>
<g>
	<g>
		<path class="st14" d="M253.3,143.3c-0.3,0.3-0.8,0.5-1.6,0.5h-1.5v-0.9h1.6c0.3,0,0.5-0.1,0.7-0.2c0.1-0.1,0.2-0.4,0.2-0.7v-1.2
			c0-0.3-0.1-0.5-0.2-0.6c-0.2-0.2-0.4-0.2-0.6-0.2h-1.3v-1h1.2c0.2,0,0.5-0.1,0.6-0.2c0.2-0.2,0.3-0.4,0.3-0.6v-1
			c0-0.3-0.1-0.5-0.2-0.7c-0.1-0.1-0.4-0.2-0.7-0.2h-1.5v-0.9h1.4c0.7,0,1.2,0.1,1.5,0.4c0.3,0.3,0.5,0.8,0.5,1.4v0.8
			c0,0.6-0.2,1.1-0.7,1.4c0.5,0.3,0.8,0.8,0.8,1.5v1C253.8,142.5,253.6,143,253.3,143.3z"/>
		<path class="st14" d="M258.4,140c0.3-0.4,0.4-0.6,0.5-0.8s0.2-0.3,0.2-0.5s0-0.4,0-0.7v-0.8c0-0.2-0.1-0.5-0.3-0.6
			c-0.2-0.2-0.4-0.3-0.7-0.3h-1.4v-0.9h1.3c0.7,0,1.2,0.2,1.6,0.5s0.6,0.9,0.6,1.5v0.5c0,0.4,0,0.7-0.1,1c-0.1,0.2-0.1,0.5-0.2,0.7
			s-0.3,0.5-0.5,0.8l-1.8,2.5h2.9v0.9h-4v-1.1L258.4,140z"/>
	</g>
</g>
<g>
	<g>
		<path class="st14" d="M43.1,162.2c-0.3,0.3-0.8,0.5-1.6,0.5H40v-0.9h1.6c0.3,0,0.5-0.1,0.7-0.2c0.1-0.1,0.2-0.4,0.2-0.7v-1.2
			c0-0.3-0.1-0.5-0.2-0.6c-0.2-0.2-0.4-0.2-0.6-0.2h-1.3V158h1.2c0.2,0,0.5-0.1,0.6-0.2c0.2-0.2,0.3-0.4,0.3-0.6v-1
			c0-0.3-0.1-0.5-0.2-0.7c-0.1-0.1-0.4-0.2-0.7-0.2H40v-0.9h1.4c0.7,0,1.2,0.1,1.5,0.4c0.3,0.3,0.5,0.8,0.5,1.4v0.8
			c0,0.6-0.2,1.1-0.7,1.4c0.5,0.3,0.8,0.8,0.8,1.5v1C43.5,161.4,43.4,161.9,43.1,162.2z"/>
		<path class="st14" d="M49.5,162.2c-0.3,0.3-0.8,0.5-1.6,0.5h-1.5v-0.9H48c0.3,0,0.5-0.1,0.7-0.2c0.1-0.1,0.2-0.4,0.2-0.7v-1.2
			c0-0.3-0.1-0.5-0.2-0.6c-0.2-0.2-0.4-0.2-0.6-0.2h-1.3V158H48c0.2,0,0.5-0.1,0.6-0.2c0.2-0.2,0.3-0.4,0.3-0.6v-1
			c0-0.3-0.1-0.5-0.2-0.7c-0.1-0.1-0.4-0.2-0.7-0.2h-1.5v-0.9h1.4c0.7,0,1.2,0.1,1.5,0.4c0.3,0.3,0.5,0.8,0.5,1.4v0.8
			c0,0.6-0.2,1.1-0.7,1.4c0.5,0.3,0.8,0.8,0.8,1.5v1C50,161.4,49.9,161.9,49.5,162.2z"/>
	</g>
</g>
<g>
	<g>
		<path class="st14" d="M73.1,162.2c-0.3,0.3-0.8,0.5-1.6,0.5H70v-0.9h1.6c0.3,0,0.5-0.1,0.7-0.2c0.1-0.1,0.2-0.4,0.2-0.7v-1.2
			c0-0.3-0.1-0.5-0.2-0.6c-0.2-0.2-0.4-0.2-0.6-0.2h-1.3V158h1.2c0.2,0,0.5-0.1,0.6-0.2c0.2-0.2,0.3-0.4,0.3-0.6v-1
			c0-0.3-0.1-0.5-0.2-0.7c-0.1-0.1-0.4-0.2-0.7-0.2H70v-0.9h1.4c0.7,0,1.2,0.1,1.5,0.4c0.3,0.3,0.5,0.8,0.5,1.4v0.8
			c0,0.6-0.2,1.1-0.7,1.4c0.5,0.3,0.8,0.8,0.8,1.5v1C73.6,161.4,73.4,161.9,73.1,162.2z"/>
		<path class="st14" d="M78.5,162.7v-1.9H76v-1l1.3-5.5h1l-1.2,5.7h1.4v-2.7h1v2.7h0.9v0.9h-0.9v1.9L78.5,162.7L78.5,162.7z"/>
	</g>
</g>
<g>
	<g>
		<path class="st14" d="M103.3,162.2c-0.3,0.3-0.8,0.5-1.6,0.5h-1.5v-0.9h1.6c0.3,0,0.5-0.1,0.7-0.2c0.1-0.1,0.2-0.4,0.2-0.7v-1.2
			c0-0.3-0.1-0.5-0.2-0.6c-0.2-0.2-0.4-0.2-0.6-0.2h-1.3V158h1.2c0.2,0,0.5-0.1,0.6-0.2c0.2-0.2,0.3-0.4,0.3-0.6v-1
			c0-0.3-0.1-0.5-0.2-0.7c-0.1-0.1-0.4-0.2-0.7-0.2h-1.5v-0.9h1.4c0.7,0,1.2,0.1,1.5,0.4c0.3,0.3,0.5,0.8,0.5,1.4v0.8
			c0,0.6-0.2,1.1-0.7,1.4c0.5,0.3,0.8,0.8,0.8,1.5v1C103.8,161.4,103.6,161.9,103.3,162.2z"/>
		<path class="st14" d="M109.8,162.2c-0.3,0.3-0.8,0.5-1.6,0.5h-1.6v-0.9h1.7c0.3,0,0.5-0.1,0.7-0.2c0.1-0.1,0.2-0.4,0.2-0.7v-1.5
			c0-0.3-0.1-0.5-0.2-0.6c-0.2-0.2-0.4-0.2-0.6-0.2h-1.6v-4.2h3.3v0.9h-2.3v2.4h0.5c0.6,0,1.1,0.2,1.5,0.5s0.5,0.8,0.5,1.4v1.3
			C110.2,161.4,110.1,161.9,109.8,162.2z"/>
	</g>
</g>
<g>
	<g>
		<path class="st14" d="M133.3,162.2c-0.3,0.3-0.8,0.5-1.6,0.5h-1.5v-0.9h1.6c0.3,0,0.5-0.1,0.7-0.2c0.1-0.1,0.2-0.4,0.2-0.7v-1.2
			c0-0.3-0.1-0.5-0.2-0.6c-0.2-0.2-0.4-0.2-0.6-0.2h-1.3V158h1.2c0.2,0,0.5-0.1,0.6-0.2c0.2-0.2,0.3-0.4,0.3-0.6v-1
			c0-0.3-0.1-0.5-0.2-0.7c-0.1-0.1-0.4-0.2-0.7-0.2h-1.5v-0.9h1.4c0.7,0,1.2,0.1,1.5,0.4c0.3,0.3,0.5,0.8,0.5,1.4v0.8
			c0,0.6-0.2,1.1-0.7,1.4c0.5,0.3,0.8,0.8,0.8,1.5v1C133.8,161.4,133.7,161.9,133.3,162.2z"/>
		<path class="st14" d="M140.1,162.1c-0.4,0.4-0.8,0.5-1.4,0.5h-0.4c-0.5,0-1-0.2-1.4-0.5s-0.5-0.9-0.5-1.5v-4.3
			c0-0.7,0.2-1.2,0.5-1.5c0.4-0.3,0.9-0.5,1.6-0.5h1.5v0.9h-1.6c-0.3,0-0.5,0.1-0.7,0.3s-0.3,0.4-0.3,0.6v1.3h1.2
			c0.7,0,1.2,0.2,1.5,0.5s0.5,0.8,0.5,1.5v1.3C140.7,161.3,140.5,161.8,140.1,162.1z M137.7,161.5c0.2,0.2,0.4,0.3,0.7,0.3h0.3
			c0.3,0,0.5-0.1,0.7-0.3s0.3-0.4,0.3-0.6v-1.8c0-0.2-0.1-0.4-0.2-0.6c-0.1-0.1-0.4-0.2-0.7-0.2h-1.3v2.6
			C137.5,161.1,137.5,161.3,137.7,161.5z"/>
	</g>
</g>
<g>
	<g>
		<path class="st14" d="M163.2,162.2c-0.3,0.3-0.8,0.5-1.6,0.5h-1.5v-0.9h1.6c0.3,0,0.5-0.1,0.7-0.2c0.1-0.1,0.2-0.4,0.2-0.7v-1.2
			c0-0.3-0.1-0.5-0.2-0.6c-0.2-0.2-0.4-0.2-0.6-0.2h-1.3V158h1.2c0.2,0,0.5-0.1,0.6-0.2c0.2-0.2,0.3-0.4,0.3-0.6v-1
			c0-0.3-0.1-0.5-0.2-0.7c-0.1-0.1-0.4-0.2-0.7-0.2h-1.5v-0.9h1.4c0.7,0,1.2,0.1,1.5,0.4c0.3,0.3,0.5,0.8,0.5,1.4v0.8
			c0,0.6-0.2,1.1-0.7,1.4c0.5,0.3,0.8,0.8,0.8,1.5v1C163.6,161.4,163.5,161.9,163.2,162.2z"/>
		<path class="st14" d="M169.2,155.2h-2.9v-0.9h3.9v1.2l-2.1,7.2H167L169.2,155.2z"/>
	</g>
</g>
<g>
	<g>
		<path class="st14" d="M193.3,162.2c-0.3,0.3-0.8,0.5-1.6,0.5h-1.5v-0.9h1.6c0.3,0,0.5-0.1,0.7-0.2c0.1-0.1,0.2-0.4,0.2-0.7v-1.2
			c0-0.3-0.1-0.5-0.2-0.6c-0.2-0.2-0.4-0.2-0.6-0.2h-1.3V158h1.2c0.2,0,0.5-0.1,0.6-0.2c0.2-0.2,0.3-0.4,0.3-0.6v-1
			c0-0.3-0.1-0.5-0.2-0.7c-0.1-0.1-0.4-0.2-0.7-0.2h-1.5v-0.9h1.4c0.7,0,1.2,0.1,1.5,0.4c0.3,0.3,0.5,0.8,0.5,1.4v0.8
			c0,0.6-0.2,1.1-0.7,1.4c0.5,0.3,0.8,0.8,0.8,1.5v1C193.8,161.4,193.6,161.9,193.3,162.2z"/>
		<path class="st14" d="M200.2,162.2c-0.3,0.3-0.8,0.5-1.6,0.5h-0.3c-0.7,0-1.2-0.1-1.6-0.5c-0.3-0.3-0.5-0.8-0.5-1.4v-1
			c0-0.7,0.3-1.2,0.8-1.5c-0.4-0.3-0.6-0.8-0.6-1.4v-0.8c0-0.6,0.2-1.1,0.5-1.4s0.8-0.5,1.4-0.5h0.2c0.6,0,1.1,0.2,1.4,0.5
			s0.5,0.8,0.5,1.4v0.8c0,0.6-0.2,1.1-0.6,1.4c0.5,0.3,0.8,0.8,0.8,1.5v1C200.7,161.4,200.5,161.9,200.2,162.2z M199.4,159
			c-0.2-0.2-0.4-0.2-0.6-0.2h-0.6c-0.3,0-0.5,0.1-0.6,0.2c-0.2,0.2-0.2,0.4-0.2,0.6v1.2c0,0.3,0.1,0.5,0.2,0.7
			c0.1,0.1,0.3,0.2,0.6,0.2h0.6c0.3,0,0.5-0.1,0.7-0.2c0.1-0.1,0.2-0.4,0.2-0.7v-1.2C199.7,159.4,199.6,159.2,199.4,159z
			 M197.7,155.4c-0.1,0.1-0.2,0.4-0.2,0.6v1c0,0.3,0.1,0.5,0.2,0.6c0.1,0.2,0.3,0.2,0.6,0.3h0.4c0.2,0,0.5-0.1,0.6-0.2
			c0.2-0.2,0.2-0.4,0.2-0.6v-1c0-0.3-0.1-0.5-0.2-0.7c-0.1-0.1-0.3-0.2-0.7-0.2h-0.4C198,155.2,197.8,155.2,197.7,155.4z"/>
	</g>
</g>
<g>
	<g>
		<path class="st14" d="M223.4,162.2c-0.3,0.3-0.8,0.5-1.6,0.5h-1.5v-0.9h1.6c0.3,0,0.5-0.1,0.7-0.2c0.1-0.1,0.2-0.4,0.2-0.7v-1.2
			c0-0.3-0.1-0.5-0.2-0.6c-0.2-0.2-0.4-0.2-0.6-0.2h-1.3V158h1.2c0.2,0,0.5-0.1,0.6-0.2c0.2-0.2,0.3-0.4,0.3-0.6v-1
			c0-0.3-0.1-0.5-0.2-0.7c-0.1-0.1-0.4-0.2-0.7-0.2h-1.5v-0.9h1.4c0.7,0,1.2,0.1,1.5,0.4c0.3,0.3,0.5,0.8,0.5,1.4v0.8
			c0,0.6-0.2,1.1-0.7,1.4c0.5,0.3,0.8,0.8,0.8,1.5v1C223.9,161.4,223.7,161.9,223.4,162.2z"/>
		<path class="st14" d="M227,154.8c0.4-0.4,0.8-0.5,1.4-0.5h0.4c0.5,0,1,0.2,1.4,0.5c0.4,0.4,0.5,0.9,0.5,1.5v4.3
			c0,0.7-0.2,1.2-0.5,1.5c-0.4,0.3-0.9,0.5-1.6,0.5h-1.4v-0.9h1.5c0.3,0,0.5-0.1,0.7-0.3s0.3-0.4,0.3-0.6v-1.3h-1.2
			c-0.7,0-1.2-0.2-1.5-0.5s-0.5-0.8-0.5-1.5v-1.3C226.5,155.6,226.7,155.1,227,154.8z M229.4,155.4c-0.2-0.2-0.4-0.3-0.7-0.3h-0.3
			c-0.3,0-0.5,0.1-0.7,0.3s-0.3,0.4-0.3,0.6v1.8c0,0.2,0.1,0.4,0.2,0.6c0.1,0.1,0.4,0.2,0.7,0.2h1.3V156
			C229.7,155.8,229.6,155.6,229.4,155.4z"/>
	</g>
</g>
<g>
	<g>
		<path class="st14" d="M252.3,162.7v-1.9h-2.5v-1l1.3-5.5h1l-1.2,5.7h1.4v-2.7h1v2.7h0.9v0.9h-0.9v1.9L252.3,162.7L252.3,162.7z"/>
		<path class="st14" d="M260.1,162.1c-0.4,0.3-0.9,0.5-1.5,0.5h-0.2c-0.6,0-1.1-0.2-1.5-0.5s-0.5-0.9-0.5-1.5v-4.3
			c0-0.7,0.2-1.2,0.5-1.5c0.4-0.3,0.9-0.5,1.5-0.5h0.2c0.6,0,1.1,0.2,1.5,0.5s0.5,0.9,0.5,1.5v4.3
			C260.6,161.3,260.4,161.8,260.1,162.1z M259.3,155.4c-0.2-0.2-0.4-0.3-0.7-0.3h-0.2c-0.3,0-0.5,0.1-0.7,0.3s-0.3,0.4-0.3,0.6v3.3
			l2.2-3.3C259.6,155.8,259.5,155.6,259.3,155.4z M257.6,161.5c0.2,0.2,0.4,0.3,0.7,0.3h0.2c0.3,0,0.5-0.1,0.7-0.3s0.3-0.4,0.3-0.6
			v-3.2l-2.2,3.2C257.3,161.1,257.4,161.3,257.6,161.5z"/>
	</g>
</g>
<g>
	<g>
		<path class="st14" d="M42,181.7v-1.9h-2.5v-1l1.3-5.5h1l-1.2,5.7H42v-2.7h1v2.7h1v0.9h-0.9v1.9L42,181.7L42,181.7z"/>
		<path class="st14" d="M47.9,180.8v-6.6l-1.7,0.6v-1l1.6-0.6h1.1v7.5h1.3v0.9h-3.9v-0.9h1.6V180.8z"/>
	</g>
</g>
<g>
	<g>
		<path class="st14" d="M72.1,181.7v-1.9h-2.5v-1l1.3-5.5h1l-1.2,5.7h1.4v-2.7h1v2.7H74v0.9h-0.9v1.9L72.1,181.7L72.1,181.7z"/>
		<path class="st14" d="M78.2,177.9c0.3-0.4,0.4-0.6,0.5-0.8s0.2-0.3,0.2-0.5s0-0.4,0-0.7v-0.8c0-0.2-0.1-0.5-0.3-0.6
			c-0.2-0.2-0.4-0.3-0.7-0.3h-1.4v-0.9h1.3c0.7,0,1.2,0.2,1.6,0.5s0.6,0.9,0.6,1.5v0.5c0,0.4,0,0.7-0.1,1c-0.1,0.2-0.1,0.5-0.2,0.7
			s-0.3,0.5-0.5,0.8l-1.8,2.5h2.9v0.9h-4v-1.1L78.2,177.9z"/>
	</g>
</g>
<g>
	<g>
		<path class="st14" d="M102.2,181.7v-1.9h-2.5v-1l1.3-5.5h1l-1.2,5.7h1.4v-2.7h1v2.7h0.9v0.9h-0.9v1.9L102.2,181.7L102.2,181.7z"/>
		<path class="st14" d="M109.8,181.2c-0.3,0.3-0.8,0.5-1.6,0.5h-1.5v-0.9h1.6c0.3,0,0.5-0.1,0.7-0.2c0.1-0.1,0.2-0.4,0.2-0.7v-1.2
			c0-0.3-0.1-0.5-0.2-0.6c-0.2-0.2-0.4-0.2-0.6-0.2H107V177h1.2c0.2,0,0.5-0.1,0.6-0.2c0.2-0.2,0.3-0.4,0.3-0.6v-1
			c0-0.3-0.1-0.5-0.2-0.7c-0.1-0.1-0.4-0.2-0.7-0.2h-1.5v-0.9h1.4c0.7,0,1.2,0.1,1.5,0.4c0.3,0.3,0.5,0.8,0.5,1.4v0.8
			c0,0.6-0.2,1.1-0.7,1.4c0.5,0.3,0.8,0.8,0.8,1.5v1C110.2,180.4,110.1,180.9,109.8,181.2z"/>
	</g>
</g>
<g>
	<g>
		<path class="st14" d="M132.3,181.7v-1.9h-2.5v-1l1.3-5.5h1l-1.2,5.7h1.4v-2.7h1v2.7h0.9v0.9h-0.9v1.9L132.3,181.7L132.3,181.7z"/>
		<path class="st14" d="M138.8,181.7v-1.9h-2.5v-1l1.3-5.5h1l-1.2,5.7h1.4v-2.7h1v2.7h0.9v0.9h-0.9v1.9L138.8,181.7L138.8,181.7z"/>
	</g>
</g>
<g>
	<g>
		<path class="st14" d="M162.1,181.7v-1.9h-2.5v-1l1.3-5.5h1l-1.2,5.7h1.4v-2.7h1v2.7h0.9v0.9h-0.9v1.9L162.1,181.7L162.1,181.7z"/>
		<path class="st14" d="M169.6,181.2c-0.3,0.3-0.8,0.5-1.6,0.5h-1.6v-0.9h1.7c0.3,0,0.5-0.1,0.7-0.2c0.1-0.1,0.2-0.4,0.2-0.7v-1.5
			c0-0.3-0.1-0.5-0.2-0.6c-0.2-0.2-0.4-0.2-0.6-0.2h-1.6v-4.2h3.3v0.9h-2.3v2.4h0.5c0.6,0,1.1,0.2,1.5,0.5s0.5,0.8,0.5,1.4v1.3
			C170.1,180.4,170,180.9,169.6,181.2z"/>
	</g>
</g>
<g>
	<g>
		<path class="st14" d="M192.3,181.7v-1.9h-2.5v-1l1.3-5.5h1l-1.2,5.7h1.4v-2.7h1v2.7h0.9v0.9h-0.9v1.9L192.3,181.7L192.3,181.7z"/>
		<path class="st14" d="M200.1,181.1c-0.4,0.4-0.8,0.5-1.4,0.5h-0.4c-0.5,0-1-0.2-1.4-0.5s-0.5-0.9-0.5-1.5v-4.3
			c0-0.7,0.2-1.2,0.5-1.5c0.4-0.3,0.9-0.5,1.6-0.5h1.5v0.9h-1.6c-0.3,0-0.5,0.1-0.7,0.3s-0.3,0.4-0.3,0.6v1.3h1.2
			c0.7,0,1.2,0.2,1.5,0.5s0.5,0.8,0.5,1.5v1.3C200.6,180.3,200.5,180.8,200.1,181.1z M197.7,180.5c0.2,0.2,0.4,0.3,0.7,0.3h0.3
			c0.3,0,0.5-0.1,0.7-0.3s0.3-0.4,0.3-0.6v-1.8c0-0.2-0.1-0.4-0.2-0.6c-0.1-0.1-0.4-0.2-0.7-0.2h-1.3v2.6
			C197.4,180.1,197.5,180.3,197.7,180.5z"/>
	</g>
</g>
<g>
	<g>
		<path class="st14" d="M222.4,181.7v-1.9h-2.5v-1l1.3-5.5h1L221,179h1.4v-2.7h1v2.7h0.9v0.9h-0.9v1.9L222.4,181.7L222.4,181.7z"/>
		<path class="st14" d="M229.5,174.2h-2.9v-0.9h3.9v1.2l-2.1,7.2h-1.1L229.5,174.2z"/>
	</g>
</g>
<g>
	<g>
		<path class="st14" d="M252.3,181.7v-1.9h-2.5v-1l1.3-5.5h1l-1.2,5.7h1.4v-2.7h1v2.7h0.9v0.9h-0.9v1.9L252.3,181.7L252.3,181.7z"/>
		<path class="st14" d="M260.2,181.2c-0.3,0.3-0.8,0.5-1.6,0.5h-0.3c-0.7,0-1.2-0.1-1.6-0.5c-0.3-0.3-0.5-0.8-0.5-1.4v-1
			c0-0.7,0.3-1.2,0.8-1.5c-0.4-0.3-0.6-0.8-0.6-1.4v-0.8c0-0.6,0.2-1.1,0.5-1.4s0.8-0.5,1.4-0.5h0.2c0.6,0,1.1,0.2,1.4,0.5
			s0.5,0.8,0.5,1.4v0.8c0,0.6-0.2,1.1-0.6,1.4c0.5,0.3,0.8,0.8,0.8,1.5v1C260.7,180.4,260.5,180.9,260.2,181.2z M259.4,178
			c-0.2-0.2-0.4-0.2-0.6-0.2h-0.6c-0.3,0-0.5,0.1-0.6,0.2c-0.2,0.2-0.2,0.4-0.2,0.6v1.2c0,0.3,0.1,0.5,0.2,0.7
			c0.1,0.1,0.3,0.2,0.6,0.2h0.6c0.3,0,0.5-0.1,0.7-0.2c0.1-0.1,0.2-0.4,0.2-0.7v-1.2C259.6,178.4,259.5,178.2,259.4,178z
			 M257.6,174.4c-0.1,0.1-0.2,0.4-0.2,0.6v1c0,0.3,0.1,0.5,0.2,0.6c0.1,0.2,0.3,0.2,0.6,0.3h0.4c0.2,0,0.5-0.1,0.6-0.2
			c0.2-0.2,0.2-0.4,0.2-0.6v-1c0-0.3-0.1-0.5-0.2-0.7c-0.1-0.1-0.3-0.2-0.7-0.2h-0.4C257.9,174.2,257.7,174.2,257.6,174.4z"/>
	</g>
</g>
<g>
	<g>
		<path class="st14" d="M42,200.7v-1.9h-2.5v-1l1.3-5.5h1l-1.2,5.7H42v-2.7h1v2.7h1v0.9h-0.9v1.9L42,200.7L42,200.7z"/>
		<path class="st14" d="M46.7,192.9c0.4-0.4,0.8-0.5,1.4-0.5h0.4c0.5,0,1,0.2,1.4,0.5c0.4,0.4,0.5,0.9,0.5,1.5v4.3
			c0,0.7-0.2,1.2-0.5,1.5c-0.4,0.3-0.9,0.5-1.6,0.5h-1.4v-0.9h1.5c0.3,0,0.5-0.1,0.7-0.3s0.3-0.4,0.3-0.6v-1.3h-1.2
			c-0.7,0-1.2-0.2-1.5-0.5s-0.5-0.8-0.5-1.5v-1.3C46.2,193.7,46.3,193.2,46.7,192.9z M49.1,193.5c-0.2-0.2-0.4-0.3-0.7-0.3h-0.3
			c-0.3,0-0.5,0.1-0.7,0.3s-0.3,0.4-0.3,0.6v1.8c0,0.2,0.1,0.4,0.2,0.6c0.1,0.1,0.4,0.2,0.7,0.2h1.3v-2.6
			C49.3,193.9,49.3,193.7,49.1,193.5z"/>
	</g>
</g>
<g>
	<g>
		<path class="st14" d="M73.1,200.3c-0.3,0.3-0.8,0.5-1.6,0.5H70v-0.9h1.7c0.3,0,0.5-0.1,0.7-0.2c0.1-0.1,0.2-0.4,0.2-0.7v-1.5
			c0-0.3-0.1-0.5-0.2-0.6s-0.4-0.2-0.6-0.2h-1.6v-4.2h3.3v0.9h-2.3v2.4h0.5c0.6,0,1.1,0.2,1.5,0.5s0.5,0.8,0.5,1.4v1.3
			C73.6,199.5,73.4,200,73.1,200.3z"/>
		<path class="st14" d="M79.9,200.2c-0.4,0.3-0.9,0.5-1.5,0.5h-0.2c-0.6,0-1.1-0.2-1.5-0.5s-0.5-0.9-0.5-1.5v-4.3
			c0-0.7,0.2-1.2,0.5-1.5c0.4-0.3,0.9-0.5,1.5-0.5h0.2c0.6,0,1.1,0.2,1.5,0.5s0.5,0.9,0.5,1.5v4.3C80.4,199.3,80.2,199.9,79.9,200.2
			z M79.1,193.5c-0.2-0.2-0.4-0.3-0.7-0.3h-0.2c-0.3,0-0.5,0.1-0.7,0.3s-0.3,0.4-0.3,0.6v3.3l2.2-3.3
			C79.4,193.9,79.3,193.7,79.1,193.5z M77.4,199.6c0.2,0.2,0.4,0.3,0.7,0.3h0.2c0.3,0,0.5-0.1,0.7-0.3s0.3-0.4,0.3-0.6v-3.2
			l-2.2,3.2C77.2,199.2,77.3,199.4,77.4,199.6z"/>
	</g>
</g>
<g>
	<g>
		<path class="st14" d="M103.3,200.3c-0.3,0.3-0.8,0.5-1.6,0.5h-1.6v-0.9h1.7c0.3,0,0.5-0.1,0.7-0.2c0.1-0.1,0.2-0.4,0.2-0.7v-1.5
			c0-0.3-0.1-0.5-0.2-0.6s-0.4-0.2-0.6-0.2h-1.6v-4.2h3.3v0.9h-2.3v2.4h0.5c0.6,0,1.1,0.2,1.5,0.5s0.5,0.8,0.5,1.4v1.3
			C103.8,199.5,103.6,200,103.3,200.3z"/>
		<path class="st14" d="M108.1,199.8v-6.6l-1.7,0.6v-1l1.6-0.6h1.1v7.5h1.3v0.9h-3.9v-0.9h1.6V199.8z"/>
	</g>
</g>
<g>
	<g>
		<path class="st14" d="M133.4,200.3c-0.3,0.3-0.8,0.5-1.6,0.5h-1.6v-0.9h1.7c0.3,0,0.5-0.1,0.7-0.2c0.1-0.1,0.2-0.4,0.2-0.7v-1.5
			c0-0.3-0.1-0.5-0.2-0.6s-0.4-0.2-0.6-0.2h-1.6v-4.2h3.3v0.9h-2.3v2.4h0.5c0.6,0,1.1,0.2,1.5,0.5s0.5,0.8,0.5,1.4v1.3
			C133.8,199.5,133.7,200,133.4,200.3z"/>
		<path class="st14" d="M138.5,196.9c0.3-0.4,0.4-0.6,0.5-0.8s0.2-0.3,0.2-0.5s0-0.4,0-0.7v-0.8c0-0.2-0.1-0.5-0.3-0.6
			c-0.2-0.2-0.4-0.3-0.7-0.3h-1.4v-0.9h1.3c0.7,0,1.2,0.2,1.6,0.5s0.6,0.8,0.6,1.5v0.5c0,0.4,0,0.7-0.1,1c-0.1,0.2-0.1,0.5-0.2,0.7
			c-0.1,0.2-0.3,0.5-0.5,0.8l-1.8,2.5h2.9v0.9h-4v-1.1L138.5,196.9z"/>
	</g>
</g>
<g>
	<g>
		<path class="st14" d="M163.2,200.3c-0.3,0.3-0.8,0.5-1.6,0.5H160v-0.9h1.7c0.3,0,0.5-0.1,0.7-0.2c0.1-0.1,0.2-0.4,0.2-0.7v-1.5
			c0-0.3-0.1-0.5-0.2-0.6s-0.4-0.2-0.6-0.2h-1.6v-4.2h3.3v0.9h-2.3v2.4h0.5c0.6,0,1.1,0.2,1.5,0.5s0.5,0.8,0.5,1.4v1.3
			C163.6,199.5,163.5,200,163.2,200.3z"/>
		<path class="st14" d="M169.6,200.3c-0.3,0.3-0.8,0.5-1.6,0.5h-1.5v-0.9h1.6c0.3,0,0.5-0.1,0.7-0.2c0.1-0.1,0.2-0.4,0.2-0.7v-1.2
			c0-0.3-0.1-0.5-0.2-0.6s-0.4-0.2-0.6-0.2h-1.3v-0.9h1.2c0.2,0,0.5-0.1,0.6-0.2s0.3-0.4,0.3-0.6v-1c0-0.3-0.1-0.5-0.2-0.7
			c-0.1-0.1-0.4-0.2-0.7-0.2h-1.5v-0.9h1.4c0.7,0,1.2,0.1,1.5,0.4c0.3,0.3,0.5,0.8,0.5,1.4v0.8c0,0.6-0.2,1.1-0.7,1.4
			c0.5,0.3,0.8,0.8,0.8,1.5v1C170.1,199.5,170,200,169.6,200.3z"/>
	</g>
</g>
<g>
	<g>
		<path class="st14" d="M193.3,200.3c-0.3,0.3-0.8,0.5-1.6,0.5h-1.6v-0.9h1.7c0.3,0,0.5-0.1,0.7-0.2c0.1-0.1,0.2-0.4,0.2-0.7v-1.5
			c0-0.3-0.1-0.5-0.2-0.6s-0.4-0.2-0.6-0.2h-1.6v-4.2h3.3v0.9h-2.3v2.4h0.5c0.6,0,1.1,0.2,1.5,0.5s0.5,0.8,0.5,1.4v1.3
			C193.8,199.5,193.7,200,193.3,200.3z"/>
		<path class="st14" d="M198.8,200.7v-1.9h-2.5v-1l1.3-5.5h1l-1.2,5.7h1.4v-2.7h1v2.7h0.9v0.9h-0.9v1.9L198.8,200.7L198.8,200.7z"/>
	</g>
</g>
<g>
	<g>
		<path class="st14" d="M223.4,200.3c-0.3,0.3-0.8,0.5-1.6,0.5h-1.6v-0.9h1.7c0.3,0,0.5-0.1,0.7-0.2c0.1-0.1,0.2-0.4,0.2-0.7v-1.5
			c0-0.3-0.1-0.5-0.2-0.6s-0.4-0.2-0.6-0.2h-1.6v-4.2h3.3v0.9h-2.3v2.4h0.5c0.6,0,1.1,0.2,1.5,0.5s0.5,0.8,0.5,1.4v1.3
			C223.9,199.5,223.7,200,223.4,200.3z"/>
		<path class="st14" d="M229.9,200.3c-0.3,0.3-0.8,0.5-1.6,0.5h-1.6v-0.9h1.7c0.3,0,0.5-0.1,0.7-0.2c0.1-0.1,0.2-0.4,0.2-0.7v-1.5
			c0-0.3-0.1-0.5-0.2-0.6s-0.4-0.2-0.6-0.2h-1.6v-4.2h3.3v0.9h-2.3v2.4h0.5c0.6,0,1.1,0.2,1.5,0.5s0.5,0.8,0.5,1.4v1.3
			C230.4,199.5,230.2,200,229.9,200.3z"/>
	</g>
</g>
<g>
	<g>
		<path class="st14" d="M253.3,200.3c-0.3,0.3-0.8,0.5-1.6,0.5h-1.6v-0.9h1.7c0.3,0,0.5-0.1,0.7-0.2c0.1-0.1,0.2-0.4,0.2-0.7v-1.5
			c0-0.3-0.1-0.5-0.2-0.6s-0.4-0.2-0.6-0.2h-1.6v-4.2h3.3v0.9h-2.3v2.4h0.5c0.6,0,1.1,0.2,1.5,0.5s0.5,0.8,0.5,1.4v1.3
			C253.8,199.5,253.6,200,253.3,200.3z"/>
		<path class="st14" d="M260.1,200.2c-0.4,0.4-0.8,0.5-1.4,0.5h-0.4c-0.5,0-1-0.2-1.4-0.5c-0.4-0.4-0.5-0.9-0.5-1.5v-4.3
			c0-0.7,0.2-1.2,0.5-1.5s0.9-0.5,1.6-0.5h1.5v0.9h-1.6c-0.3,0-0.5,0.1-0.7,0.3s-0.3,0.4-0.3,0.6v1.3h1.2c0.7,0,1.2,0.2,1.5,0.5
			s0.5,0.8,0.5,1.5v1.3C260.6,199.3,260.4,199.8,260.1,200.2z M257.7,199.6c0.2,0.2,0.4,0.3,0.7,0.3h0.3c0.3,0,0.5-0.1,0.7-0.3
			s0.3-0.4,0.3-0.6v-1.8c0-0.2-0.1-0.4-0.2-0.6c-0.1-0.1-0.4-0.2-0.7-0.2h-1.3v2.6C257.4,199.2,257.5,199.4,257.7,199.6z"/>
	</g>
</g>
<g>
	<g>
		<path class="st14" d="M43.1,219.3c-0.3,0.3-0.8,0.5-1.6,0.5h-1.6v-0.9h1.7c0.3,0,0.5-0.1,0.7-0.2c0.1-0.1,0.2-0.4,0.2-0.7v-1.5
			c0-0.3-0.1-0.5-0.2-0.6s-0.4-0.2-0.6-0.2h-1.6v-4.2h3.3v0.9h-2.3v2.4h0.5c0.6,0,1.1,0.2,1.5,0.5s0.5,0.8,0.5,1.4v1.3
			C43.6,218.5,43.4,219,43.1,219.3z"/>
		<path class="st14" d="M49.2,212.2h-2.9v-0.9h3.9v1.2l-2.1,7.2H47L49.2,212.2z"/>
	</g>
</g>
<g>
	<g>
		<path class="st14" d="M73.1,219.3c-0.3,0.3-0.8,0.5-1.6,0.5H70v-0.9h1.7c0.3,0,0.5-0.1,0.7-0.2c0.1-0.1,0.2-0.4,0.2-0.7v-1.5
			c0-0.3-0.1-0.5-0.2-0.6s-0.4-0.2-0.6-0.2h-1.6v-4.2h3.3v0.9h-2.3v2.4h0.5c0.6,0,1.1,0.2,1.5,0.5s0.5,0.8,0.5,1.4v1.3
			C73.6,218.5,73.4,219,73.1,219.3z"/>
		<path class="st14" d="M80,219.3c-0.3,0.3-0.8,0.5-1.6,0.5h-0.3c-0.7,0-1.2-0.1-1.6-0.5c-0.3-0.3-0.5-0.8-0.5-1.4v-1
			c0-0.7,0.3-1.2,0.8-1.5c-0.4-0.3-0.6-0.8-0.6-1.4v-0.8c0-0.6,0.2-1.1,0.5-1.4c0.3-0.3,0.8-0.5,1.4-0.5h0.2c0.6,0,1.1,0.2,1.4,0.5
			s0.5,0.8,0.5,1.4v0.8c0,0.6-0.2,1.1-0.6,1.4c0.5,0.3,0.8,0.8,0.8,1.5v1C80.5,218.5,80.3,219,80,219.3z M79.2,216.1
			c-0.2-0.2-0.4-0.2-0.6-0.2H78c-0.3,0-0.5,0.1-0.6,0.2c-0.2,0.2-0.2,0.4-0.2,0.6v1.2c0,0.3,0.1,0.5,0.2,0.7
			c0.1,0.1,0.3,0.2,0.6,0.2h0.6c0.3,0,0.5-0.1,0.7-0.2c0.1-0.1,0.2-0.4,0.2-0.7v-1.2C79.4,216.4,79.4,216.2,79.2,216.1z M77.4,212.4
			c-0.1,0.1-0.2,0.4-0.2,0.6v1c0,0.3,0.1,0.5,0.2,0.6c0.1,0.2,0.3,0.2,0.6,0.3h0.4c0.2,0,0.5-0.1,0.6-0.2c0.2-0.2,0.2-0.4,0.2-0.6
			v-1c0-0.3-0.1-0.5-0.2-0.7c-0.1-0.1-0.3-0.2-0.7-0.2H78C77.7,212.2,77.5,212.3,77.4,212.4z"/>
	</g>
</g>
<g>
	<g>
		<path class="st14" d="M103.3,219.3c-0.3,0.3-0.8,0.5-1.6,0.5h-1.6v-0.9h1.7c0.3,0,0.5-0.1,0.7-0.2c0.1-0.1,0.2-0.4,0.2-0.7v-1.5
			c0-0.3-0.1-0.5-0.2-0.6s-0.4-0.2-0.6-0.2h-1.6v-4.2h3.3v0.9h-2.3v2.4h0.5c0.6,0,1.1,0.2,1.5,0.5s0.5,0.8,0.5,1.4v1.3
			C103.8,218.5,103.6,219,103.3,219.3z"/>
		<path class="st14" d="M106.9,211.9c0.4-0.4,0.8-0.5,1.4-0.5h0.4c0.5,0,1,0.2,1.4,0.5c0.4,0.4,0.5,0.9,0.5,1.5v4.3
			c0,0.7-0.2,1.2-0.5,1.5c-0.4,0.3-0.9,0.5-1.6,0.5h-1.4v-0.9h1.5c0.3,0,0.5-0.1,0.7-0.3s0.3-0.4,0.3-0.6v-1.3h-1.2
			c-0.7,0-1.2-0.2-1.5-0.5s-0.5-0.8-0.5-1.5v-1.3C106.4,212.7,106.5,212.2,106.9,211.9z M109.3,212.5c-0.2-0.2-0.4-0.3-0.7-0.3h-0.3
			c-0.3,0-0.5,0.1-0.7,0.3s-0.3,0.4-0.3,0.6v1.8c0,0.2,0.1,0.4,0.2,0.6c0.1,0.1,0.4,0.2,0.7,0.2h1.3v-2.6
			C109.5,212.9,109.5,212.7,109.3,212.5z"/>
	</g>
</g>
<g>
	<g>
		<path class="st14" d="M133.6,219.2c-0.4,0.4-0.8,0.5-1.4,0.5h-0.4c-0.5,0-1-0.2-1.4-0.5c-0.4-0.4-0.5-0.9-0.5-1.5v-4.3
			c0-0.7,0.2-1.2,0.5-1.5s0.9-0.5,1.6-0.5h1.5v0.9H132c-0.3,0-0.5,0.1-0.7,0.3s-0.3,0.4-0.3,0.6v1.3h1.2c0.7,0,1.2,0.2,1.5,0.5
			s0.5,0.8,0.5,1.5v1.3C134.2,218.3,134,218.8,133.6,219.2z M131.2,218.6c0.2,0.2,0.4,0.3,0.7,0.3h0.3c0.3,0,0.5-0.1,0.7-0.3
			s0.3-0.4,0.3-0.6v-1.8c0-0.2-0.1-0.4-0.2-0.6c-0.1-0.1-0.4-0.2-0.7-0.2H131v2.6C131,218.2,131.1,218.4,131.2,218.6z"/>
		<path class="st14" d="M140.1,219.2c-0.4,0.3-0.9,0.5-1.5,0.5h-0.2c-0.6,0-1.1-0.2-1.5-0.5s-0.5-0.9-0.5-1.5v-4.3
			c0-0.7,0.2-1.2,0.5-1.5c0.4-0.3,0.9-0.5,1.5-0.5h0.2c0.6,0,1.1,0.2,1.5,0.5s0.5,0.9,0.5,1.5v4.3
			C140.7,218.3,140.5,218.9,140.1,219.2z M139.4,212.5c-0.2-0.2-0.4-0.3-0.7-0.3h-0.2c-0.3,0-0.5,0.1-0.7,0.3s-0.3,0.4-0.3,0.6v3.3
			l2.2-3.3C139.6,212.9,139.5,212.7,139.4,212.5z M137.7,218.6c0.2,0.2,0.4,0.3,0.7,0.3h0.2c0.3,0,0.5-0.1,0.7-0.3s0.3-0.4,0.3-0.6
			v-3.2l-2.2,3.2C137.4,218.2,137.5,218.4,137.7,218.6z"/>
	</g>
</g>
<g>
	<g>
		<path class="st14" d="M163.4,219.2c-0.4,0.4-0.8,0.5-1.4,0.5h-0.4c-0.5,0-1-0.2-1.4-0.5c-0.4-0.4-0.5-0.9-0.5-1.5v-4.3
			c0-0.7,0.2-1.2,0.5-1.5s0.9-0.5,1.6-0.5h1.5v0.9h-1.6c-0.3,0-0.5,0.1-0.7,0.3s-0.3,0.4-0.3,0.6v1.3h1.2c0.7,0,1.2,0.2,1.5,0.5
			s0.5,0.8,0.5,1.5v1.3C164,218.3,163.8,218.8,163.4,219.2z M161,218.6c0.2,0.2,0.4,0.3,0.7,0.3h0.3c0.3,0,0.5-0.1,0.7-0.3
			s0.3-0.4,0.3-0.6v-1.8c0-0.2-0.1-0.4-0.2-0.6c-0.1-0.1-0.4-0.2-0.7-0.2h-1.3v2.6C160.8,218.2,160.9,218.4,161,218.6z"/>
		<path class="st14" d="M168,218.8v-6.6l-1.7,0.6v-1l1.6-0.6h1.1v7.5h1.3v0.9h-3.9v-0.9h1.6V218.8z"/>
	</g>
</g>
<g>
	<g>
		<path class="st14" d="M193.6,219.2c-0.4,0.4-0.8,0.5-1.4,0.5h-0.4c-0.5,0-1-0.2-1.4-0.5c-0.4-0.4-0.5-0.9-0.5-1.5v-4.3
			c0-0.7,0.2-1.2,0.5-1.5s0.9-0.5,1.6-0.5h1.5v0.9H192c-0.3,0-0.5,0.1-0.7,0.3s-0.3,0.4-0.3,0.6v1.3h1.2c0.7,0,1.2,0.2,1.5,0.5
			s0.5,0.8,0.5,1.5v1.3C194.2,218.3,194,218.8,193.6,219.2z M191.2,218.6c0.2,0.2,0.4,0.3,0.7,0.3h0.3c0.3,0,0.5-0.1,0.7-0.3
			s0.3-0.4,0.3-0.6v-1.8c0-0.2-0.1-0.4-0.2-0.6c-0.1-0.1-0.4-0.2-0.7-0.2H191v2.6C191,218.2,191,218.4,191.2,218.6z"/>
		<path class="st14" d="M198.4,215.9c0.3-0.4,0.4-0.6,0.5-0.8s0.2-0.3,0.2-0.5s0-0.4,0-0.7v-0.8c0-0.2-0.1-0.5-0.3-0.6
			c-0.2-0.2-0.4-0.3-0.7-0.3h-1.4v-0.9h1.3c0.7,0,1.2,0.2,1.6,0.5s0.6,0.8,0.6,1.5v0.5c0,0.4,0,0.7-0.1,1c-0.1,0.2-0.1,0.5-0.2,0.7
			c-0.1,0.2-0.3,0.5-0.5,0.8l-1.8,2.5h2.9v0.9h-4v-1.1L198.4,215.9z"/>
	</g>
</g>
<g>
	<g>
		<path class="st14" d="M223.7,219.2c-0.4,0.4-0.8,0.5-1.4,0.5h-0.4c-0.5,0-1-0.2-1.4-0.5c-0.4-0.4-0.5-0.9-0.5-1.5v-4.3
			c0-0.7,0.2-1.2,0.5-1.5s0.9-0.5,1.6-0.5h1.5v0.9H222c-0.3,0-0.5,0.1-0.7,0.3s-0.3,0.4-0.3,0.6v1.3h1.2c0.7,0,1.2,0.2,1.5,0.5
			s0.5,0.8,0.5,1.5v1.3C224.2,218.3,224,218.8,223.7,219.2z M221.3,218.6c0.2,0.2,0.4,0.3,0.7,0.3h0.3c0.3,0,0.5-0.1,0.7-0.3
			s0.3-0.4,0.3-0.6v-1.8c0-0.2-0.1-0.4-0.2-0.6c-0.1-0.1-0.4-0.2-0.7-0.2H221v2.6C221,218.2,221.1,218.4,221.3,218.6z"/>
		<path class="st14" d="M229.9,219.3c-0.3,0.3-0.8,0.5-1.6,0.5h-1.5v-0.9h1.6c0.3,0,0.5-0.1,0.7-0.2c0.1-0.1,0.2-0.4,0.2-0.7v-1.2
			c0-0.3-0.1-0.5-0.2-0.6s-0.4-0.2-0.6-0.2h-1.3v-0.9h1.2c0.2,0,0.5-0.1,0.6-0.2s0.3-0.4,0.3-0.6v-1c0-0.3-0.1-0.5-0.2-0.7
			c-0.1-0.1-0.4-0.2-0.7-0.2h-1.5v-0.9h1.4c0.7,0,1.2,0.1,1.5,0.4c0.3,0.3,0.5,0.8,0.5,1.4v0.8c0,0.6-0.2,1.1-0.7,1.4
			c0.5,0.3,0.8,0.8,0.8,1.5v1C230.4,218.5,230.2,219,229.9,219.3z"/>
	</g>
</g>
<g>
	<g>
		<path class="st14" d="M253.6,219.2c-0.4,0.4-0.8,0.5-1.4,0.5h-0.4c-0.5,0-1-0.2-1.4-0.5c-0.4-0.4-0.5-0.9-0.5-1.5v-4.3
			c0-0.7,0.2-1.2,0.5-1.5s0.9-0.5,1.6-0.5h1.5v0.9h-1.6c-0.3,0-0.5,0.1-0.7,0.3s-0.3,0.4-0.3,0.6v1.3h1.2c0.7,0,1.2,0.2,1.5,0.5
			s0.5,0.8,0.5,1.5v1.3C254.1,218.3,253.9,218.8,253.6,219.2z M251.2,218.6c0.2,0.2,0.4,0.3,0.7,0.3h0.3c0.3,0,0.5-0.1,0.7-0.3
			s0.3-0.4,0.3-0.6v-1.8c0-0.2-0.1-0.4-0.2-0.6c-0.1-0.1-0.4-0.2-0.7-0.2H251v2.6C250.9,218.2,251,218.4,251.2,218.6z"/>
		<path class="st14" d="M258.7,219.7v-1.9h-2.5v-1l1.3-5.5h1l-1.2,5.7h1.4v-2.7h1v2.7h0.9v0.9h-0.9v1.9L258.7,219.7L258.7,219.7z"/>
	</g>
</g>
<g>
	<g>
		<path class="st14" d="M165.8,59.3v0.9h-3V63h2.7v0.9h-2.7v3h3v0.9h-4v-8.4h4V59.3z"/>
		<path class="st14" d="M169,61.7V62c0.2-0.2,0.6-0.3,1-0.3h0.6c0.6,0,1.1,0.2,1.4,0.5s0.5,0.8,0.5,1.5v4.1h-1v-4.3
			c0-0.2-0.1-0.4-0.2-0.6c-0.1-0.1-0.3-0.2-0.6-0.2h-0.8c-0.3,0-0.5,0.1-0.6,0.2c-0.1,0.1-0.2,0.3-0.2,0.5v4.4h-1v-6h0.9V61.7z"/>
		<path class="st14" d="M177.1,67.7h-0.5c-0.7,0-1.2-0.1-1.5-0.5c-0.3-0.3-0.5-0.8-0.5-1.5v-2.2c0-0.7,0.2-1.2,0.5-1.5
			s0.8-0.5,1.5-0.5h1.4v-2.4h1v8.4h-1v-0.3C177.8,67.7,177.4,67.7,177.1,67.7z M177.8,66.6c0.1-0.1,0.2-0.3,0.2-0.5v-3.5h-1.5
			c-0.3,0-0.5,0.1-0.7,0.2c-0.2,0.1-0.2,0.3-0.2,0.6V66c0,0.2,0.1,0.4,0.2,0.6c0.2,0.1,0.4,0.2,0.7,0.2h0.7
			C177.4,66.8,177.6,66.8,177.8,66.6z"/>
		<path class="st14" d="M183.8,61.7v1.2h-1.2v-1.2H183.8z M183.8,66.5v1.2h-1.2v-1.2H183.8z"/>
		<path class="st14" d="M197.9,67.3c-0.3,0.3-0.8,0.5-1.6,0.5H196c-0.7,0-1.2-0.1-1.6-0.5c-0.3-0.3-0.5-0.8-0.5-1.4v-1
			c0-0.7,0.3-1.2,0.8-1.5c-0.4-0.3-0.6-0.8-0.6-1.4v-0.8c0-0.6,0.2-1.1,0.5-1.4s0.8-0.5,1.4-0.5h0.2c0.6,0,1.1,0.2,1.4,0.5
			s0.5,0.8,0.5,1.4V62c0,0.6-0.2,1.1-0.6,1.4c0.5,0.3,0.8,0.8,0.8,1.5v1C198.4,66.5,198.2,67,197.9,67.3z M197.1,64.1
			c-0.2-0.2-0.4-0.2-0.6-0.2h-0.6c-0.3,0-0.5,0.1-0.6,0.2c-0.2,0.2-0.2,0.4-0.2,0.6V66c0,0.3,0.1,0.5,0.2,0.7
			c0.1,0.1,0.3,0.2,0.6,0.2h0.6c0.3,0,0.5-0.1,0.7-0.2c0.1-0.1,0.2-0.4,0.2-0.7v-1.2C197.4,64.5,197.3,64.3,197.1,64.1z M195.4,60.5
			c-0.1,0.1-0.2,0.4-0.2,0.6v1c0,0.3,0.1,0.5,0.2,0.6c0.1,0.2,0.3,0.2,0.6,0.3h0.4c0.2,0,0.5-0.1,0.6-0.2c0.2-0.2,0.2-0.4,0.2-0.6
			v-1c0-0.3-0.1-0.5-0.2-0.7c-0.1-0.1-0.3-0.2-0.7-0.2h-0.4C195.7,60.3,195.5,60.3,195.4,60.5z"/>
	</g>
</g>
<g>
	<g>
		<path class="st14" d="M218.5,64.3l-0.8,3.4h-1.4l-0.4-8.4h0.9l0.4,7.5l1-4h0.7l1,4l0.4-7.5h0.8l-0.4,8.4h-1.5L218.5,64.3z"/>
		<path class="st14" d="M226.4,67.6c-0.1-0.1-0.2-0.2-0.3-0.3c-0.2,0.2-0.4,0.4-0.7,0.4h-1.1c-0.6,0-1-0.1-1.3-0.4
			c-0.3-0.2-0.4-0.7-0.4-1.3v-0.2c0-1.2,0.6-1.9,1.8-1.9h1.5v-0.6c0-0.2-0.1-0.4-0.2-0.6c-0.2-0.1-0.4-0.2-0.7-0.2h-2v-0.9h1.7
			c0.7,0,1.2,0.2,1.5,0.5s0.5,0.8,0.5,1.5v2.9c0,0.1,0,0.2,0.1,0.3s0.2,0.1,0.5,0.1v0.8h-0.7C226.6,67.7,226.5,67.7,226.4,67.6z
			 M225.7,66.7c0.1-0.1,0.1-0.3,0.1-0.4V65h-1.5c-0.2,0-0.4,0.1-0.5,0.2s-0.2,0.3-0.2,0.5v0.6c0,0.2,0,0.4,0.1,0.5s0.2,0.1,0.5,0.1
			h1.1C225.5,66.8,225.6,66.8,225.7,66.7z"/>
		<path class="st14" d="M229,61.7h1.1l1.4,5.2l1.4-5.2h1.1l-1.7,6h-1.5L229,61.7z"/>
		<path class="st14" d="M236.3,67.3c-0.3-0.3-0.5-0.8-0.5-1.5v-2.2c0-0.7,0.1-1.2,0.4-1.5c0.3-0.3,0.8-0.4,1.5-0.4h0.6
			c0.6,0,1,0.2,1.3,0.5s0.4,0.8,0.4,1.4v1.6h-3.2v0.9c0,0.2,0.1,0.4,0.2,0.6c0.2,0.1,0.4,0.2,0.7,0.2h1.9v0.9h-1.8
			C237.2,67.7,236.7,67.6,236.3,67.3z M239,63.4c0-0.2-0.1-0.4-0.2-0.5c-0.1-0.1-0.3-0.2-0.5-0.2h-0.7c-0.3,0-0.5,0.1-0.6,0.2
			c-0.1,0.1-0.2,0.3-0.2,0.6v0.8h2.2V63.4z"/>
		<path class="st14" d="M245.8,67.4c-0.3,0.2-0.8,0.4-1.3,0.4h-1.8v-0.9h1.9c0.2,0,0.4,0,0.5-0.1s0.2-0.2,0.2-0.4v-0.6
			c0-0.4-0.2-0.5-0.5-0.5h-0.4c-0.6,0-1-0.1-1.3-0.4s-0.4-0.6-0.4-1.2v-0.3c0-0.5,0.2-0.9,0.5-1.2s0.8-0.4,1.3-0.4h1.6v0.9h-1.7
			c-0.2,0-0.4,0-0.5,0.1s-0.2,0.2-0.2,0.4v0.4c0,0.2,0.1,0.3,0.2,0.4c0.1,0.1,0.2,0.1,0.4,0.1h0.4c0.5,0,0.9,0.1,1.2,0.4
			s0.4,0.6,0.4,1.2v0.5C246.2,66.7,246.1,67.1,245.8,67.4z"/>
		<path class="st14" d="M251.5,61.7v1.2h-1.2v-1.2H251.5z M251.5,66.5v1.2h-1.2v-1.2H251.5z"/>
		<path class="st14" d="M265.6,67.3c-0.3,0.3-0.8,0.5-1.6,0.5h-0.3c-0.7,0-1.2-0.1-1.6-0.5c-0.3-0.3-0.5-0.8-0.5-1.4v-1
			c0-0.7,0.3-1.2,0.8-1.5c-0.4-0.3-0.6-0.8-0.6-1.4v-0.8c0-0.6,0.2-1.1,0.5-1.4s0.8-0.5,1.4-0.5h0.2c0.6,0,1.1,0.2,1.4,0.5
			s0.5,0.8,0.5,1.4V62c0,0.6-0.2,1.1-0.6,1.4c0.5,0.3,0.8,0.8,0.8,1.5v1C266.1,66.5,265.9,67,265.6,67.3z M264.8,64.1
			c-0.2-0.2-0.4-0.2-0.6-0.2h-0.6c-0.3,0-0.5,0.1-0.6,0.2c-0.2,0.2-0.2,0.4-0.2,0.6V66c0,0.3,0.1,0.5,0.2,0.7
			c0.1,0.1,0.3,0.2,0.6,0.2h0.6c0.3,0,0.5-0.1,0.7-0.2c0.1-0.1,0.2-0.4,0.2-0.7v-1.2C265,64.5,264.9,64.3,264.8,64.1z M263,60.5
			c-0.1,0.1-0.2,0.4-0.2,0.6v1c0,0.3,0.1,0.5,0.2,0.6c0.1,0.2,0.3,0.2,0.6,0.3h0.4c0.2,0,0.5-0.1,0.6-0.2c0.2-0.2,0.2-0.4,0.2-0.6
			v-1c0-0.3-0.1-0.5-0.2-0.7c-0.1-0.1-0.3-0.2-0.7-0.2h-0.4C263.3,60.3,263.1,60.3,263,60.5z"/>
	</g>
</g>
<g>
	<g class="st27">
		<path class="st2" d="M88.7,45.1h-1l-1.2-4.7V48h-0.9v-8.4h1.7l1,4.3l1-4.3h1.6V48h-0.9v-7.5L88.7,45.1z"/>
		<path class="st2" d="M96.1,47.9c-0.1-0.1-0.2-0.2-0.3-0.3C95.6,47.8,95.4,48,95,48H94c-0.6,0-1-0.1-1.3-0.4s-0.4-0.7-0.4-1.3v-0.2
			c0-1.2,0.6-1.9,1.8-1.9h1.5v-0.6c0-0.2-0.1-0.4-0.2-0.6c-0.2-0.1-0.4-0.2-0.7-0.2h-1.9V42h1.7c0.7,0,1.2,0.2,1.5,0.5
			s0.5,0.8,0.5,1.5v2.9c0,0.1,0,0.2,0.1,0.3c0.1,0.1,0.2,0.1,0.5,0.1V48h-0.7C96.3,48,96.2,47.9,96.1,47.9z M95.4,46.9
			c0.1-0.1,0.1-0.3,0.1-0.4v-1.3H94c-0.2,0-0.4,0.1-0.5,0.2c-0.1,0.1-0.2,0.3-0.2,0.5v0.6c0,0.2,0,0.4,0.1,0.5s0.2,0.1,0.5,0.1h1.1
			C95.2,47.1,95.3,47,95.4,46.9z"/>
		<path class="st2" d="M100.1,45.4V48h-1v-8.4h1v4.5L102,42h1.3l-2.1,2.4l2.3,3.6h-1.3l-1.8-2.9L100.1,45.4z"/>
		<path class="st2" d="M106,47.5c-0.3-0.3-0.5-0.8-0.5-1.5v-2.2c0-0.7,0.1-1.2,0.4-1.5s0.8-0.4,1.5-0.4h0.6c0.6,0,1,0.2,1.3,0.5
			c0.3,0.3,0.4,0.8,0.4,1.4v1.6h-3.2v0.9c0,0.2,0.1,0.4,0.2,0.6c0.2,0.1,0.4,0.2,0.7,0.2h1.9V48h-1.8C106.9,48,106.3,47.8,106,47.5z
			 M108.7,43.6c0-0.2-0.1-0.4-0.2-0.5c-0.1-0.1-0.3-0.2-0.5-0.2h-0.7c-0.3,0-0.5,0.1-0.6,0.2c-0.1,0.1-0.2,0.3-0.2,0.6v0.8h2.2V43.6
			z"/>
		<path class="st2" d="M122,47.9c-0.1-0.1-0.2-0.2-0.3-0.3c-0.2,0.2-0.4,0.4-0.7,0.4h-1.1c-0.6,0-1-0.1-1.3-0.4
			c-0.3-0.2-0.4-0.7-0.4-1.3v-0.2c0-1.2,0.6-1.9,1.8-1.9h1.5v-0.6c0-0.2-0.1-0.4-0.2-0.6c-0.2-0.1-0.4-0.2-0.7-0.2h-1.9V42h1.7
			c0.7,0,1.2,0.2,1.5,0.5s0.5,0.8,0.5,1.5v2.9c0,0.1,0,0.2,0.1,0.3c0.1,0.1,0.2,0.1,0.5,0.1V48h-0.7C122.3,48,122.1,47.9,122,47.9z
			 M121.3,46.9c0.1-0.1,0.1-0.3,0.1-0.4v-1.3h-1.5c-0.2,0-0.4,0.1-0.5,0.2c-0.1,0.1-0.2,0.3-0.2,0.5v0.6c0,0.2,0,0.4,0.1,0.5
			c0.1,0.1,0.2,0.1,0.5,0.1h1.1C121.1,47.1,121.2,47,121.3,46.9z"/>
		<path class="st2" d="M133.2,47.7c-0.2-0.2-0.3-0.5-0.3-0.9v-6.3h-1.8v-0.9h2.8v7.1c0,0.1,0,0.2,0.1,0.3c0.1,0.1,0.2,0.1,0.3,0.1
			h1.6V48h-2C133.7,48,133.4,47.9,133.2,47.7z"/>
		<path class="st2" d="M141.8,47.5c-0.3,0.3-0.8,0.5-1.5,0.5h-0.4c-0.7,0-1.2-0.2-1.5-0.5c-0.3-0.3-0.5-0.8-0.5-1.5v-2.2
			c0-0.7,0.2-1.2,0.5-1.5c0.3-0.3,0.8-0.5,1.5-0.5h0.4c0.7,0,1.2,0.2,1.5,0.5s0.5,0.8,0.5,1.5V46C142.3,46.7,142.1,47.2,141.8,47.5z
			 M141,43.1c-0.2-0.1-0.4-0.2-0.7-0.2h-0.6c-0.3,0-0.5,0.1-0.7,0.2c-0.2,0.1-0.2,0.3-0.2,0.6v2.6c0,0.2,0.1,0.4,0.2,0.6
			c0.2,0.1,0.4,0.2,0.7,0.2h0.6c0.3,0,0.5-0.1,0.7-0.2c0.2-0.1,0.2-0.3,0.2-0.6v-2.6C141.2,43.4,141.2,43.2,141,43.1z"/>
		<path class="st2" d="M147.9,47.9c-0.1-0.1-0.2-0.2-0.3-0.3c-0.2,0.2-0.4,0.4-0.7,0.4h-1.1c-0.6,0-1-0.1-1.3-0.4
			c-0.3-0.2-0.4-0.7-0.4-1.3v-0.2c0-1.2,0.6-1.9,1.8-1.9h1.5v-0.6c0-0.2-0.1-0.4-0.2-0.6c-0.2-0.1-0.4-0.2-0.7-0.2h-1.9V42h1.7
			c0.7,0,1.2,0.2,1.5,0.5s0.5,0.8,0.5,1.5v2.9c0,0.1,0,0.2,0.1,0.3c0.1,0.1,0.2,0.1,0.5,0.1V48h-0.7C148.2,48,148.1,47.9,147.9,47.9
			z M147.2,46.9c0.1-0.1,0.1-0.3,0.1-0.4v-1.3h-1.5c-0.2,0-0.4,0.1-0.5,0.2c-0.1,0.1-0.2,0.3-0.2,0.5v0.6c0,0.2,0,0.4,0.1,0.5
			c0.1,0.1,0.2,0.1,0.5,0.1h1.1C147,47.1,147.2,47,147.2,46.9z"/>
		<path class="st2" d="M153.3,48h-0.5c-0.7,0-1.2-0.2-1.5-0.5s-0.5-0.8-0.5-1.5v-2.2c0-0.7,0.2-1.2,0.5-1.5s0.8-0.5,1.5-0.5h1.4
			v-2.4h1V48h-1v-0.3C154,47.9,153.7,48,153.3,48z M154,46.9c0.1-0.1,0.2-0.3,0.2-0.4v-3.5h-1.5c-0.3,0-0.5,0.1-0.7,0.2
			c-0.2,0.1-0.2,0.3-0.2,0.6v2.6c0,0.2,0.1,0.4,0.2,0.6c0.2,0.1,0.4,0.2,0.7,0.2h0.7C153.7,47.1,153.9,47,154,46.9z"/>
		<path class="st2" d="M157.9,47.5c-0.3-0.3-0.5-0.8-0.5-1.5v-2.2c0-0.7,0.1-1.2,0.4-1.5s0.8-0.4,1.5-0.4h0.6c0.6,0,1,0.2,1.3,0.5
			c0.3,0.3,0.4,0.8,0.4,1.4v1.6h-3.2v0.9c0,0.2,0.1,0.4,0.2,0.6c0.2,0.1,0.4,0.2,0.7,0.2h1.9V48h-1.8
			C158.7,48,158.2,47.8,157.9,47.5z M160.6,43.6c0-0.2-0.1-0.4-0.2-0.5c-0.1-0.1-0.3-0.2-0.5-0.2h-0.7c-0.3,0-0.5,0.1-0.6,0.2
			c-0.1,0.1-0.2,0.3-0.2,0.6v0.8h2.2V43.6z"/>
		<path class="st2" d="M164.8,47.1v-4.2h-0.9V42h1.8v0.3c0.3-0.2,0.6-0.3,1-0.3h1.2v1h-1.4c-0.3,0-0.4,0.1-0.6,0.2s-0.2,0.3-0.2,0.5
			v3.4h1.3V48h-3.2v-0.9H164.8z"/>
		<path class="st2" d="M178.9,45l-0.6,3h-1.1l-1.1-6h1l0.7,4.8l0.8-3.7h0.8l0.7,3.7l0.7-4.8h1l-1.1,6h-1.2L178.9,45z"/>
		<path class="st2" d="M183.1,42.9V42h2.8v5.1h1.8V48h-2.8v-5.1H183.1z M186,39.6v1.1h-1.1v-1.1H186z"/>
		<path class="st2" d="M193.7,48h-3.8v-1l2.8-4.2h-2.6V42h3.7V43l-2.8,4h2.7V48z"/>
		<path class="st2" d="M199.8,47.9c-0.1-0.1-0.2-0.2-0.3-0.3c-0.2,0.2-0.4,0.4-0.7,0.4h-1.1c-0.6,0-1-0.1-1.3-0.4s-0.4-0.7-0.4-1.3
			v-0.2c0-1.2,0.6-1.9,1.8-1.9h1.5v-0.6c0-0.2-0.1-0.4-0.2-0.6c-0.2-0.1-0.4-0.2-0.7-0.2h-1.9V42h1.7c0.7,0,1.2,0.2,1.5,0.5
			s0.5,0.8,0.5,1.5v2.9c0,0.1,0,0.2,0.1,0.3c0.1,0.1,0.2,0.1,0.5,0.1V48h-0.7C200,48,199.9,47.9,199.8,47.9z M199.1,46.9
			c0.1-0.1,0.1-0.3,0.1-0.4v-1.3h-1.5c-0.2,0-0.4,0.1-0.5,0.2c-0.1,0.1-0.2,0.3-0.2,0.5v0.6c0,0.2,0,0.4,0.1,0.5s0.2,0.1,0.5,0.1
			h1.1C198.8,47.1,199,47,199.1,46.9z"/>
		<path class="st2" d="M203.7,47.1v-4.2h-0.9V42h1.8v0.3c0.3-0.2,0.6-0.3,1-0.3h1.2v1h-1.4c-0.3,0-0.4,0.1-0.6,0.2s-0.2,0.3-0.2,0.5
			v3.4h1.3V48h-3.2v-0.9H203.7z"/>
		<path class="st2" d="M211.6,48h-0.5c-0.7,0-1.2-0.2-1.5-0.5s-0.5-0.8-0.5-1.5v-2.2c0-0.7,0.2-1.2,0.5-1.5s0.8-0.5,1.5-0.5h1.4
			v-2.4h1V48h-1v-0.3C212.3,47.9,212,48,211.6,48z M212.3,46.9c0.1-0.1,0.2-0.3,0.2-0.4v-3.5H211c-0.3,0-0.5,0.1-0.7,0.2
			c-0.2,0.1-0.2,0.3-0.2,0.6v2.6c0,0.2,0.1,0.4,0.2,0.6c0.2,0.1,0.4,0.2,0.7,0.2h0.7C212,47.1,212.2,47,212.3,46.9z"/>
	</g>
</g>
</svg>
