<?xml version="1.0" encoding="utf-8"?>
<!-- Generator: Adobe Illustrator 23.0.6, SVG Export Plug-In . SVG Version: 6.00 Build 0)  -->
<svg version="1.1"
	 id="svg8" xmlns:cc="http://creativecommons.org/ns#" xmlns:dc="http://purl.org/dc/elements/1.1/" xmlns:inkscape="http://www.inkscape.org/namespaces/inkscape" xmlns:rdf="http://www.w3.org/1999/02/22-rdf-syntax-ns#" xmlns:sodipodi="http://sodipodi.sourceforge.net/DTD/sodipodi-0.dtd" xmlns:svg="http://www.w3.org/2000/svg"
	 xmlns="http://www.w3.org/2000/svg" xmlns:xlink="http://www.w3.org/1999/xlink" x="0px" y="0px" viewBox="0 0 300 380"
	 style="enable-background:new 0 0 300 380;" xml:space="preserve">
<style type="text/css">
	.st0{fill:#282828;}
	.st1{fill:none;stroke:#BE974A;stroke-width:2;stroke-miterlimit:10;}
	.st2{fill:none;stroke:#DA4061;stroke-width:2;stroke-miterlimit:10;}
	.st3{fill:none;stroke:#00A1A7;stroke-width:2;stroke-miterlimit:10;}
	.st4{fill:none;stroke:#8759A4;stroke-width:2;stroke-miterlimit:10;}
	.st5{fill:none;stroke:#FFFFFF;}
	.st6{fill:#FFFFFF;}
	.st7{font-family:'AlteDIN1451Mittelschrift';}
	.st8{font-size:18px;}
	.st9{font-size:10px;}
	.st10{font-size:8px;}
	.st11{fill:none;stroke:#8759A4;stroke-miterlimit:10;}
	.st12{fill:#E1E1E2;stroke:#818181;stroke-width:0.25;}
	.st13{fill:#F5F7F7;stroke:#343B3F;stroke-width:0.1323;}
	.st14{fill:#929A9E;}
	.st15{fill:#F5F7F7;}
	.st16{fill:#111111;stroke:#414042;stroke-miterlimit:10;}
	.st17{fill:#400002;}
	.st18{font-family:'DSEG14Classic-Italic';}
	.st19{fill:#FF0000;}
	.st20{fill:#8759A4;}
	.st21{fill:none;stroke:#636363;stroke-width:0.3;stroke-miterlimit:10;}
	.st22{fill:none;stroke:#FFFFFF;stroke-miterlimit:10;}
	.st23{fill:#636466;stroke:#000000;stroke-width:0.25;}
	.st24{fill:#D4D7D9;stroke:#343B3F;stroke-width:0.1323;}
	.st25{fill:#DEE4E5;}
	.st26{fill:none;stroke:#C0C0C0;stroke-miterlimit:10;}
	.st27{fill:#BE974A;fill-opacity:0.9922;}
	.st28{fill:#3C3C3C;stroke:#000000;stroke-width:0.2;stroke-linecap:square;}
	.st29{font-size:9px;}
	.st30{fill:#00A1A7;}
	.st31{fill:#282828;stroke:#C0C0C0;stroke-miterlimit:10;}
	.st32{fill:#FFFFFF;fill-opacity:0.9922;}
	.st33{fill:none;stroke:#307DEE;stroke-width:2;stroke-miterlimit:10;}
	.st34{fill:#307DEE;}
	.st35{fill:#DA4061;}
</style>
<g id="layer1" transform="translate(0,-196.45831)" inkscape:groupmode="layer" inkscape:label="Layer 1">
	<rect id="rect1047" y="196.5" class="st0" width="300" height="380"/>
</g>
<path class="st1" d="M213,245c0-44.8-38-49-38-49"/>
<path class="st1" d="M197,268c-17.6-28.7-22-72-22-72"/>
<path class="st2" d="M94.3,148c0,0-16.3-2.1-24.4-10"/>
<path class="st3" d="M221,182c-29.8,1.9-29-17.1-29-17.1"/>
<path class="st2" d="M230,138c-8.1,7.9-24.4,10-24.4,10"/>
<path class="st4" d="M181.4,138.2c35.5-24.2-2.5-46.2-2.5-46.2"/>
<path class="st3" d="M108,164.9c0,0,0.8,19-29,17.1"/>
<defs>
	
	
		<inkscape:path-effect  apply_no_weight="true" apply_with_weight="true" effect="bspline" helper_size="0" id="path-effect2273" is_visible="true" only_selected="false" steps="2" weight="33.333333">
		</inkscape:path-effect>
	
		<inkscape:path-effect  apply_no_weight="true" apply_with_weight="true" effect="bspline" helper_size="0" id="path-effect2269" is_visible="true" only_selected="false" steps="2" weight="33.333333">
		</inkscape:path-effect>
</defs>
<sodipodi:namedview  bordercolor="#666666" borderopacity="1.0" id="base" inkscape:current-layer="layer1" inkscape:cx="76.012834" inkscape:cy="318.70973" inkscape:document-units="mm" inkscape:pageopacity="0.0" inkscape:pageshadow="2" inkscape:snap-bbox="true" inkscape:snap-global="true" inkscape:window-height="1006" inkscape:window-maximized="0" inkscape:window-width="1276" inkscape:window-x="641" inkscape:window-y="0" inkscape:zoom="5.656854" pagecolor="#ffffff" showgrid="true" showguides="false" units="px">
	<inkscape:grid  id="grid1092" type="xygrid"></inkscape:grid>
</sodipodi:namedview>
<path id="line161" class="st5" d="M0,24.5h300"/>
<path id="line163" class="st5" d="M0,356.5h300"/>
<text transform="matrix(1 0 0 1 127.4914 373.5106)" class="st6 st7 st8">Valley</text>
<text transform="matrix(1 0 0 1 107.8653 17.9062)" class="st6 st7 st8">Terrorform</text>
<text transform="matrix(1 0 0 1 79.2328 74.1336)" class="st6 st7 st9">Octave</text>
<text transform="matrix(1 0 0 1 9.0637 60.9038)" class="st6 st7 st9">VOct</text>
<text transform="matrix(1 0 0 1 272.0642 60.9038)" class="st6 st7 st9">VOct</text>
<text transform="matrix(1 0 0 1 135.4882 74.1336)" class="st6 st7 st9">Coarse</text>
<text transform="matrix(1 0 0 1 110.2724 117.0947)" class="st6 st7 st9">Bank</text>
<text transform="matrix(1 0 0 1 199.9264 350.6366)" class="st6 st7 st9">Main</text>
<text transform="matrix(1 0 0 1 171.8552 350.6366)" class="st6 st7 st9">Sub</text>
<text transform="matrix(1 0 0 1 140.3858 201.8391)" class="st6 st7 st9">Perc</text>
<text transform="matrix(1 0 0 1 131.9531 293.0002)" class="st6 st7 st10">Sync Mode</text>
<text transform="matrix(1 0 0 1 56.5062 336.0663)" class="st6 st7 st10">Weak</text>
<text transform="matrix(1 0 0 1 112.4831 182.5709)" class="st6 st7 st9">Decay</text>
<text transform="matrix(1 0 0 1 158.4681 182.5709)" class="st6 st7 st9">Velocity</text>
<g>
	<text transform="matrix(0.7373 -0.6756 0.6756 0.7373 51.2149 225.5668)" class="st6 st7 st9">Type</text>
	<text transform="matrix(0.7373 -0.6756 0.6756 0.7373 38.46 223.6913)" class="st6 st7 st9">Enhance</text>
</g>
<g>
	<text transform="matrix(0.7373 0.6756 -0.6756 0.7373 232.8463 210.8537)" class="st6 st7 st9">Depth</text>
	<text transform="matrix(0.7373 0.6756 -0.6756 0.7373 235.4478 199.6742)" class="st6 st7 st9">Enhance</text>
</g>
<text transform="matrix(1 0 0 1 167.733 117.0947)" class="st6 st7 st9">Wave</text>
<text transform="matrix(1 0 0 1 197.9476 74.1336)" class="st6 st7 st9">Fine</text>
<path class="st4" d="M120.8,92c0,0-38,22-2.5,46.2"/>
<path class="st11" d="M174,95"/>
<path class="st11" d="M231,74.8"/>
<g id="layer1_22_" transform="translate(-89.945866,-120.5333)" inkscape:groupmode="layer" inkscape:label="Layer 1">
	<path id="path7255_6_" inkscape:connector-curvature="0" class="st12" d="M299.9,460.8c-5.7,0-10.3-4.6-10.3-10.3
		c0-5.7,4.6-10.3,10.3-10.3s10.3,4.6,10.3,10.3C310.2,456.2,305.6,460.8,299.9,460.8"/>
	<path id="path7261_6_" inkscape:connector-curvature="0" class="st13" d="M299.9,458.5c-4.4,0-8-3.6-8-8s3.6-8,8-8s8,3.6,8,8
		S304.4,458.5,299.9,458.5"/>
	<path id="path1187_6_" inkscape:connector-curvature="0" class="st14" d="M299.9,458.3c-4.3,0-7.7-3.3-7.7-7.3s3.5-7.3,7.7-7.3
		s7.7,3.3,7.7,7.3C307.7,455.1,304.2,458.3,299.9,458.3"/>
	<path id="path861_6_" inkscape:connector-curvature="0" class="st15" d="M305.1,451.5c0,2.8-2.3,5.2-5.1,5.2s-5.1-2.3-5.1-5.2
		c0-2.8,2.3-5.2,5.1-5.2C302.8,446.4,305.1,448.7,305.1,451.5"/>
	<path id="path7265_6_" inkscape:connector-curvature="0" d="M305.1,450.5c0,2.8-2.3,5.1-5.1,5.1c-2.8,0-5.1-2.3-5.1-5.1
		s2.3-5.1,5.1-5.1S305.1,447.7,305.1,450.5"/>
</g>
<path id="rect75_2_" inkscape:connector-curvature="0" class="st16" d="M107,297h86v16h-86V297z"/>
<text transform="matrix(1 0 0 1 109.2 309.904)" class="st17 st18 st9">~~~~~~~~~~</text>
<text transform="matrix(1 0 0 1 109.1092 309.9043)" class="st19 st18 st9">!octave+1</text>
<path class="st4" d="M121,92c0,0-36.9,19.3-102.5,9.1"/>
<g id="layer1_16_" transform="translate(-53.216485,-90.5345)" inkscape:groupmode="layer" inkscape:label="Layer 1">
	<path id="path7705_5_" inkscape:connector-curvature="0" d="M130.1,194.5c0,5.5-4.4,9.9-9.9,9.9s-9.9-4.4-9.9-9.9s4.4-9.9,9.9-9.9
		S130.1,189.1,130.1,194.5"/>
	<path id="path7707_5_" inkscape:connector-curvature="0" class="st20" d="M125.8,194.5c0,3.1-2.5,5.6-5.6,5.6s-5.6-2.5-5.6-5.6
		s2.5-5.6,5.6-5.6S125.8,191.4,125.8,194.5"/>
	<path id="path7711_5_" inkscape:connector-curvature="0" class="st20" d="M121.1,184.7c-0.3,0-0.6,0-0.9,0c-0.4,0-0.7,0-1.1,0.1
		v4.5h2V184.7z"/>
</g>
<path class="st4" d="M120.8,92c0,0-29.3-21.2-102.2-16.9"/>
<g id="layer1_13_" transform="translate(-53.216485,-90.5345)" inkscape:groupmode="layer" inkscape:label="Layer 1">
	<path id="path7705_4_" inkscape:connector-curvature="0" d="M102.3,166.5c0-5.4,4.4-9.9,9.9-9.9s9.9,4.4,9.9,9.9s-4.4,9.9-9.9,9.9
		S102.3,172,102.3,166.5"/>
	<path id="path7707_4_" inkscape:connector-curvature="0" class="st20" d="M106.6,166.5c0-3.1,2.5-5.6,5.6-5.6s5.6,2.5,5.6,5.6
		s-2.5,5.6-5.6,5.6S106.6,169.6,106.6,166.5"/>
	<path id="path7711_4_" inkscape:connector-curvature="0" class="st20" d="M111.3,161.3h2v-4.5c-0.4-0.1-0.7-0.1-1.1-0.1
		c-0.3,0-0.6,0-0.9,0V161.3z"/>
</g>
<g id="layer1_6_" transform="translate(-47.888015,-88.626321)" inkscape:groupmode="layer" inkscape:label="Layer 1">
	<path id="path7689" inkscape:connector-curvature="0" d="M184.8,180.6c0,8.8-7.1,15.9-15.9,15.9c-8.8,0-15.9-7.1-15.9-15.9
		c0-8.8,7.1-15.9,15.9-15.9C177.7,164.8,184.8,171.9,184.8,180.6"/>
	<path id="path7691" inkscape:connector-curvature="0" class="st20" d="M177.8,180.6c0,4.9-4,9-9,9s-9-4-9-9c0-4.9,4-9,9-9
		C173.8,171.7,177.8,175.7,177.8,180.6"/>
	<path id="path7693" inkscape:connector-curvature="0" class="st21" d="M181.4,180.6c0,6.9-5.6,12.6-12.6,12.6
		c-6.9,0-12.6-5.6-12.6-12.6c0-6.9,5.6-12.6,12.6-12.6C175.8,168.1,181.4,173.7,181.4,180.6L181.4,180.6z"/>
	<path id="path7695" inkscape:connector-curvature="0" class="st20" d="M170.3,164.8c-0.5,0-1-0.1-1.4-0.1c-0.6,0-1.2,0-1.8,0.1v7.2
		h3.2V164.8z"/>
</g>
<text transform="matrix(1 0 0 1 12.0281 326.7419)" class="st6 st7 st9">FM</text>
<path class="st22" d="M201.1,287.7"/>
<text transform="matrix(1 0 0 1 75.0071 350.6364)" class="st6 st7 st9">Phasor</text>
<text transform="matrix(1 0 0 1 111.3935 350.6366)" class="st6 st7 st9">EOC</text>
<g id="layer1_48_" transform="translate(-89.945866,-120.5333)" inkscape:groupmode="layer" inkscape:label="Layer 1">
	<path id="path7255_20_" inkscape:connector-curvature="0" class="st12" d="M180,460.8c-5.7,0-10.3-4.6-10.3-10.3
		c0-5.7,4.6-10.3,10.3-10.3s10.3,4.6,10.3,10.3C190.3,456.2,185.7,460.8,180,460.8"/>
	<path id="path7261_20_" inkscape:connector-curvature="0" class="st13" d="M180,458.5c-4.4,0-8-3.6-8-8s3.6-8,8-8s8,3.6,8,8
		S184.5,458.5,180,458.5"/>
	<path id="path1187_20_" inkscape:connector-curvature="0" class="st14" d="M180,458.3c-4.3,0-7.7-3.3-7.7-7.3s3.5-7.3,7.7-7.3
		s7.7,3.3,7.7,7.3C187.8,455.1,184.3,458.3,180,458.3"/>
	<path id="path861_20_" inkscape:connector-curvature="0" class="st15" d="M185.2,451.5c0,2.8-2.3,5.2-5.1,5.2s-5.1-2.3-5.1-5.2
		c0-2.8,2.3-5.2,5.1-5.2C182.9,446.4,185.2,448.7,185.2,451.5"/>
	<path id="path7265_20_" inkscape:connector-curvature="0" d="M185.2,450.5c0,2.8-2.3,5.1-5.1,5.1s-5.1-2.3-5.1-5.1s2.3-5.1,5.1-5.1
		S185.2,447.7,185.2,450.5"/>
</g>
<g id="layer1_21_" transform="translate(-89.945866,-120.5333)" inkscape:groupmode="layer" inkscape:label="Layer 1">
	<path id="path7255_15_" inkscape:connector-curvature="0" class="st12" d="M209.9,460.8c-5.7,0-10.3-4.6-10.3-10.3
		c0-5.7,4.6-10.3,10.3-10.3s10.3,4.6,10.3,10.3C220.2,456.2,215.6,460.8,209.9,460.8"/>
	<path id="path7261_15_" inkscape:connector-curvature="0" class="st13" d="M209.9,458.5c-4.4,0-8-3.6-8-8s3.6-8,8-8s8,3.6,8,8
		S214.4,458.5,209.9,458.5"/>
	<path id="path1187_15_" inkscape:connector-curvature="0" class="st14" d="M209.9,458.3c-4.3,0-7.7-3.3-7.7-7.3s3.5-7.3,7.7-7.3
		s7.7,3.3,7.7,7.3C217.7,455.1,214.2,458.3,209.9,458.3"/>
	<path id="path861_15_" inkscape:connector-curvature="0" class="st15" d="M215.1,451.5c0,2.8-2.3,5.2-5.1,5.2s-5.1-2.3-5.1-5.2
		c0-2.8,2.3-5.2,5.1-5.2C212.8,446.4,215.1,448.7,215.1,451.5"/>
	<path id="path7265_15_" inkscape:connector-curvature="0" d="M215.1,450.5c0,2.8-2.3,5.1-5.1,5.1s-5.1-2.3-5.1-5.1s2.3-5.1,5.1-5.1
		S215.1,447.7,215.1,450.5"/>
</g>
<g id="layer1_62_" transform="translate(-89.945866,-120.5333)" inkscape:groupmode="layer" inkscape:label="Layer 1">
	<path id="path7255_28_" inkscape:connector-curvature="0" class="st12" d="M269.9,460.8c-5.7,0-10.3-4.6-10.3-10.3
		c0-5.7,4.6-10.3,10.3-10.3c5.7,0,10.3,4.6,10.3,10.3C280.2,456.2,275.6,460.8,269.9,460.8"/>
	<path id="path7261_28_" inkscape:connector-curvature="0" class="st13" d="M269.9,458.5c-4.4,0-8-3.6-8-8s3.6-8,8-8s8,3.6,8,8
		S274.4,458.5,269.9,458.5"/>
	<path id="path1187_28_" inkscape:connector-curvature="0" class="st14" d="M269.9,458.3c-4.3,0-7.7-3.3-7.7-7.3s3.5-7.3,7.7-7.3
		s7.7,3.3,7.7,7.3C277.7,455.1,274.2,458.3,269.9,458.3"/>
	<path id="path861_28_" inkscape:connector-curvature="0" class="st15" d="M275.1,451.5c0,2.8-2.3,5.2-5.1,5.2
		c-2.8,0-5.1-2.3-5.1-5.2c0-2.8,2.3-5.2,5.1-5.2C272.8,446.4,275.1,448.7,275.1,451.5"/>
	<path id="path7265_28_" inkscape:connector-curvature="0" d="M275.1,450.5c0,2.8-2.3,5.1-5.1,5.1c-2.8,0-5.1-2.3-5.1-5.1
		s2.3-5.1,5.1-5.1C272.8,445.4,275.1,447.7,275.1,450.5"/>
</g>
<text transform="matrix(1 0 0 1 134.1897 350.637)" class="st6 st7 st9">Pre. EH</text>
<g id="layer1_49_" transform="translate(-89.945866,-120.5333)" inkscape:groupmode="layer" inkscape:label="Layer 1">
	<path id="path7255_10_" inkscape:connector-curvature="0" class="st12" d="M239.9,460.7c-5.7,0-10.3-4.6-10.3-10.3
		c0-5.7,4.6-10.3,10.3-10.3s10.3,4.6,10.3,10.3S245.6,460.7,239.9,460.7"/>
	<path id="path7261_10_" inkscape:connector-curvature="0" class="st13" d="M239.9,458.4c-4.4,0-8-3.6-8-8s3.6-8,8-8s8,3.6,8,8
		S244.4,458.4,239.9,458.4"/>
	<path id="path1187_10_" inkscape:connector-curvature="0" class="st14" d="M239.9,458.2c-4.3,0-7.7-3.3-7.7-7.3s3.5-7.3,7.7-7.3
		s7.7,3.3,7.7,7.3C247.7,455,244.2,458.2,239.9,458.2"/>
	<path id="path861_10_" inkscape:connector-curvature="0" class="st15" d="M245.1,451.4c0,2.8-2.3,5.2-5.1,5.2s-5.1-2.3-5.1-5.2
		c0-2.8,2.3-5.2,5.1-5.2C242.8,446.3,245.1,448.6,245.1,451.4"/>
	<path id="path7265_10_" inkscape:connector-curvature="0" d="M245.1,450.4c0,2.8-2.3,5.1-5.1,5.1s-5.1-2.3-5.1-5.1s2.3-5.1,5.1-5.1
		S245.1,447.6,245.1,450.4"/>
</g>
<text transform="matrix(1 0 0 1 133.9972 239.7803)" class="st6 st7 st9">Env Out</text>
<g id="layer1_34_" transform="translate(-89.945866,-120.5333)" inkscape:groupmode="layer" inkscape:label="Layer 1">
	<path id="path7255_16_" inkscape:connector-curvature="0" class="st12" d="M239.9,349.9c-5.7,0-10.3-4.6-10.3-10.3
		c0-5.7,4.6-10.3,10.3-10.3s10.3,4.6,10.3,10.3S245.6,349.9,239.9,349.9"/>
	<path id="path7261_16_" inkscape:connector-curvature="0" class="st13" d="M239.9,347.6c-4.4,0-8-3.6-8-8s3.6-8,8-8s8,3.6,8,8
		S244.4,347.6,239.9,347.6"/>
	<path id="path1187_16_" inkscape:connector-curvature="0" class="st14" d="M239.9,347.4c-4.3,0-7.7-3.3-7.7-7.3s3.5-7.3,7.7-7.3
		s7.7,3.3,7.7,7.3C247.7,344.2,244.2,347.4,239.9,347.4"/>
	<path id="path861_16_" inkscape:connector-curvature="0" class="st15" d="M245.1,340.6c0,2.8-2.3,5.2-5.1,5.2s-5.1-2.3-5.1-5.2
		c0-2.8,2.3-5.2,5.1-5.2C242.8,335.5,245.1,337.8,245.1,340.6"/>
	<path id="path7265_16_" inkscape:connector-curvature="0" d="M245.1,339.6c0,2.8-2.3,5.1-5.1,5.1s-5.1-2.3-5.1-5.1s2.3-5.1,5.1-5.1
		S245.1,336.8,245.1,339.6"/>
</g>
<g id="layer1_44_" transform="translate(-89.945866,-120.5333)" inkscape:groupmode="layer" inkscape:label="Layer 1">
	<path id="path7255_17_" inkscape:connector-curvature="0" class="st23" d="M108.4,231.8c-5.7,0-10.3-4.6-10.3-10.3
		s4.6-10.3,10.3-10.3c5.7,0,10.3,4.6,10.3,10.3S114.1,231.8,108.4,231.8"/>
	<path id="path7261_17_" inkscape:connector-curvature="0" class="st24" d="M108.4,229.5c-4.4,0-8-3.6-8-8s3.6-8,8-8s8,3.6,8,8
		C116.4,226,112.9,229.5,108.4,229.5"/>
	<path id="path1187_17_" inkscape:connector-curvature="0" class="st14" d="M108.4,229.4c-4.3,0-7.7-3.3-7.7-7.3s3.5-7.3,7.7-7.3
		c4.3,0,7.7,3.3,7.7,7.3S112.7,229.4,108.4,229.4"/>
	<path id="path861_17_" inkscape:connector-curvature="0" class="st25" d="M113.6,222.6c0,2.8-2.3,5.2-5.1,5.2
		c-2.8,0-5.1-2.3-5.1-5.2c0-2.8,2.3-5.2,5.1-5.2C111.3,217.4,113.6,219.7,113.6,222.6"/>
	<path id="path7265_17_" inkscape:connector-curvature="0" d="M113.6,221.6c0,2.8-2.3,5.1-5.1,5.1s-5.1-2.3-5.1-5.1s2.3-5.1,5.1-5.1
		C111.3,216.4,113.6,218.7,113.6,221.6"/>
</g>
<g id="layer1_15_" transform="translate(-89.945866,-120.5333)" inkscape:groupmode="layer" inkscape:label="Layer 1">
	<path id="path7255_3_" inkscape:connector-curvature="0" class="st23" d="M108.4,205.8c-5.7,0-10.3-4.6-10.3-10.3
		s4.6-10.3,10.3-10.3c5.7,0,10.3,4.6,10.3,10.3S114.1,205.8,108.4,205.8"/>
	<path id="path7261_3_" inkscape:connector-curvature="0" class="st24" d="M108.4,203.5c-4.4,0-8-3.6-8-8s3.6-8,8-8s8,3.6,8,8
		C116.4,200,112.9,203.5,108.4,203.5"/>
	<path id="path1187_3_" inkscape:connector-curvature="0" class="st14" d="M108.4,203.4c-4.3,0-7.7-3.3-7.7-7.3s3.5-7.3,7.7-7.3
		c4.3,0,7.7,3.3,7.7,7.3S112.7,203.4,108.4,203.4"/>
	<path id="path861_3_" inkscape:connector-curvature="0" class="st25" d="M113.6,196.6c0,2.8-2.3,5.2-5.1,5.2s-5.1-2.3-5.1-5.2
		c0-2.8,2.3-5.2,5.1-5.2C111.3,191.4,113.6,193.7,113.6,196.6"/>
	<path id="path7265_3_" inkscape:connector-curvature="0" d="M113.6,195.6c0,2.8-2.3,5.1-5.1,5.1s-5.1-2.3-5.1-5.1s2.3-5.1,5.1-5.1
		C111.3,190.4,113.6,192.7,113.6,195.6"/>
</g>
<text transform="matrix(1 0 0 1 9.7283 292.8593)" class="st6 st7 st9">VCA</text>
<text transform="matrix(1 0 0 1 274.9504 326.7419)" class="st6 st7 st9">FM</text>
<text transform="matrix(1 0 0 1 272.6506 292.8593)" class="st6 st7 st9">VCA</text>
<path id="rect75_1_" inkscape:connector-curvature="0" class="st16" d="M94.4,127.1h111.2v41.8H94.4V127.1z"/>
<text transform="matrix(1 0 0 1 96.9607 166.0648)" class="st17 st18 st9">~~~~~~~~~~~~~</text>
<text transform="matrix(1 0 0 1 96.9602 166.0649)" class="st19 st18 st9">BITCRUSH!!!15</text>
<text transform="matrix(1 0 0 1 96.9604 140.3584)" class="st17 st18 st9">~~~~~~~~~~~~~</text>
<text transform="matrix(1 0 0 1 96.9602 140.3584)" class="st19 st18 st9">VOICE_1!!!100</text>
<text transform="matrix(1 0 0 1 96.9602 153.2116)" class="st17 st18 st9">~~~~~~~~~~~~~</text>
<text transform="matrix(1 0 0 1 96.9602 153.2116)" class="st19 st18 st9">TWIST!!!!!!47</text>
<path class="st1" d="M125,196c0,0-38,4.2-38,49"/>
<path class="st1" d="M125,196c0,0-4.4,43.3-22,72"/>
<path class="st26" d="M179,240.8"/>
<path class="st26" d="M150.1,229.7"/>
<g id="layer1_50_" transform="translate(-89.945866,-120.5333)" inkscape:groupmode="layer" inkscape:label="Layer 1">
	<path id="path7255_21_" inkscape:connector-curvature="0" class="st23" d="M176.9,375.8c-5.7,0-10.3-4.6-10.3-10.3
		c0-5.7,4.6-10.3,10.3-10.3s10.3,4.6,10.3,10.3S182.6,375.8,176.9,375.8"/>
	<path id="path7261_21_" inkscape:connector-curvature="0" class="st24" d="M176.9,373.5c-4.4,0-8-3.6-8-8s3.6-8,8-8s8,3.6,8,8
		C184.9,370,181.4,373.5,176.9,373.5"/>
	<path id="path1187_21_" inkscape:connector-curvature="0" class="st14" d="M176.9,373.4c-4.3,0-7.7-3.3-7.7-7.3s3.5-7.3,7.7-7.3
		c4.3,0,7.7,3.3,7.7,7.3S181.2,373.4,176.9,373.4"/>
	<path id="path861_21_" inkscape:connector-curvature="0" class="st25" d="M182.1,366.6c0,2.8-2.3,5.2-5.1,5.2s-5.1-2.3-5.1-5.2
		c0-2.8,2.3-5.2,5.1-5.2S182.1,363.7,182.1,366.6"/>
	<path id="path7265_21_" inkscape:connector-curvature="0" d="M182.1,365.6c0,2.8-2.3,5.1-5.1,5.1s-5.1-2.3-5.1-5.1
		c0-2.8,2.3-5.1,5.1-5.1C179.8,360.4,182.1,362.7,182.1,365.6"/>
</g>
<g id="layer1_54_" transform="translate(-53.216485,-90.5345)" inkscape:groupmode="layer" inkscape:label="Layer 1">
	<path id="path7705_21_" inkscape:connector-curvature="0" d="M143.3,299.5c0-5.5,4.4-9.9,9.9-9.9s9.9,4.4,9.9,9.9s-4.4,9.9-9.9,9.9
		S143.3,305,143.3,299.5"/>
	<path id="path7707_17_" inkscape:connector-curvature="0" class="st27" d="M147.6,299.5c0-3.1,2.5-5.6,5.6-5.6s5.6,2.5,5.6,5.6
		s-2.5,5.6-5.6,5.6S147.6,302.6,147.6,299.5"/>
	<path id="path7711_17_" inkscape:connector-curvature="0" class="st27" d="M152.3,294.2h2v-4.5c-0.4-0.1-0.7-0.1-1.1-0.1
		c-0.3,0-0.6,0-0.9,0V294.2z"/>
</g>
<g id="layer1_33_" transform="translate(-89.945866,-120.5333)" inkscape:groupmode="layer" inkscape:label="Layer 1">
	<path id="path7255_11_" inkscape:connector-curvature="0" class="st23" d="M192.9,398.8c-5.7,0-10.3-4.6-10.3-10.3
		c0-5.7,4.6-10.3,10.3-10.3s10.3,4.6,10.3,10.3S198.6,398.8,192.9,398.8"/>
	<path id="path7261_11_" inkscape:connector-curvature="0" class="st24" d="M192.9,396.5c-4.4,0-8-3.6-8-8s3.6-8,8-8s8,3.6,8,8
		C200.9,393,197.4,396.5,192.9,396.5"/>
	<path id="path1187_11_" inkscape:connector-curvature="0" class="st14" d="M192.9,396.4c-4.3,0-7.7-3.3-7.7-7.3s3.5-7.3,7.7-7.3
		c4.3,0,7.7,3.3,7.7,7.3S197.2,396.4,192.9,396.4"/>
	<path id="path861_11_" inkscape:connector-curvature="0" class="st25" d="M198.1,389.6c0,2.8-2.3,5.2-5.1,5.2s-5.1-2.3-5.1-5.2
		c0-2.8,2.3-5.2,5.1-5.2S198.1,386.7,198.1,389.6"/>
	<path id="path7265_11_" inkscape:connector-curvature="0" d="M198.1,388.6c0,2.8-2.3,5.1-5.1,5.1s-5.1-2.3-5.1-5.1
		c0-2.8,2.3-5.1,5.1-5.1C195.8,383.4,198.1,385.7,198.1,388.6"/>
</g>
<g id="layer1_32_" transform="translate(-53.216485,-90.5345)" inkscape:groupmode="layer" inkscape:label="Layer 1">
	<path id="path7705_13_" inkscape:connector-curvature="0" d="M160.3,324.5c0-5.5,4.4-9.9,9.9-9.9s9.9,4.4,9.9,9.9s-4.4,9.9-9.9,9.9
		S160.3,330,160.3,324.5"/>
	<path id="path7707_12_" inkscape:connector-curvature="0" class="st27" d="M164.6,324.5c0-3.1,2.5-5.6,5.6-5.6s5.6,2.5,5.6,5.6
		s-2.5,5.6-5.6,5.6S164.6,327.6,164.6,324.5"/>
	<path id="path7711_12_" inkscape:connector-curvature="0" class="st27" d="M169.3,319.2h2v-4.5c-0.4-0.1-0.7-0.1-1.1-0.1
		c-0.3,0-0.6,0-0.9,0V319.2z"/>
</g>
<g id="layer1_19_" transform="translate(-46.755712,-68.824694)" inkscape:groupmode="layer" inkscape:label="Layer 1">
	<path id="path2706_3_" class="st28" d="M203.5,253.8c0,3.7-3,6.7-6.7,6.7l0,0c-3.7,0-6.7-3-6.7-6.7l0,0c0-3.7,3-6.7,6.7-6.7l0,0
		C200.5,247.1,203.5,250.1,203.5,253.8L203.5,253.8z"/>
</g>
<text transform="matrix(1 0 0 1 112.4893 70.0492)" class="st6 st7 st9">LFO</text>
<g id="layer1_75_" transform="translate(-46.755712,-68.824694)" inkscape:groupmode="layer" inkscape:label="Layer 1">
	<path id="path2706_6_" class="st28" d="M174.5,122c0,3.7-3,6.7-6.7,6.7l0,0c-3.7,0-6.7-3-6.7-6.7l0,0c0-3.7,3-6.7,6.7-6.7l0,0
		C171.5,115.3,174.5,118.3,174.5,122L174.5,122z"/>
</g>
<text transform="matrix(1 0 0 1 170.489 70.0491)" class="st6 st7 st9">LFO</text>
<g id="layer1_76_" transform="translate(-46.755712,-68.824694)" inkscape:groupmode="layer" inkscape:label="Layer 1">
	<path id="path2706_8_" class="st28" d="M232.5,122c0,3.7-3,6.7-6.7,6.7l0,0c-3.7,0-6.7-3-6.7-6.7l0,0c0-3.7,3-6.7,6.7-6.7l0,0
		C229.5,115.3,232.5,118.3,232.5,122L232.5,122z"/>
</g>
<text transform="matrix(1 0 0 1 140.9274 98.6721)" class="st6 st7 st29">User</text>
<g id="layer1_41_" transform="translate(-46.755712,-68.824694)" inkscape:groupmode="layer" inkscape:label="Layer 1">
	<path id="path2706_7_" class="st28" d="M203.5,152.6c0,3.7-3,6.7-6.7,6.7l0,0c-3.7,0-6.7-3-6.7-6.7l0,0c0-3.7,3-6.7,6.7-6.7l0,0
		C200.5,145.9,203.5,148.9,203.5,152.6L203.5,152.6z"/>
</g>
<text transform="matrix(1 0 0 1 140.7539 123.8332)" class="st6 st7 st29">Load</text>
<g id="layer1_78_" transform="translate(-46.755712,-68.824694)" inkscape:groupmode="layer" inkscape:label="Layer 1">
	<path id="path2706_9_" class="st28" d="M203.5,177.8c0,3.7-3,6.7-6.7,6.7l0,0c-3.7,0-6.7-3-6.7-6.7l0,0c0-3.7,3-6.7,6.7-6.7l0,0
		C200.5,171.1,203.5,174.1,203.5,177.8L203.5,177.8z"/>
</g>
<path class="st3" d="M78.8,182c0,0-42-3.7-60.3,45"/>
<path class="st3" d="M78.8,182c0,0,16.9,54.8-39.8,63.1"/>
<path class="st26" d="M65.8,282.1c0,0-3.8,46-43.1,58"/>
<path class="st26" d="M90,292c0,0-20.1,7.9-24.2,28.5"/>
<path class="st26" d="M234,320.5c-4.1-20.6-24-28.4-24-28.4"/>
<path class="st26" d="M70.4,259.5c0,0,1.5,51.6-51.9,47.5"/>
<path class="st26" d="M70.4,259.5c0,0-19.6,34.2-52,11.6"/>
<g id="layer1_30_" transform="translate(-89.945866,-120.5333)" inkscape:groupmode="layer" inkscape:label="Layer 1">
	<path id="path7255_8_" inkscape:connector-curvature="0" class="st23" d="M108.4,357.8c-5.7,0-10.3-4.6-10.3-10.3
		c0-5.7,4.6-10.3,10.3-10.3c5.7,0,10.3,4.6,10.3,10.3S114,357.8,108.4,357.8"/>
	<path id="path7261_8_" inkscape:connector-curvature="0" class="st24" d="M108.4,355.5c-4.4,0-8-3.6-8-8s3.6-8,8-8s8,3.6,8,8
		C116.4,352,112.9,355.5,108.4,355.5"/>
	<path id="path1187_8_" inkscape:connector-curvature="0" class="st14" d="M108.4,355.4c-4.3,0-7.7-3.3-7.7-7.3s3.5-7.3,7.7-7.3
		c4.3,0,7.7,3.3,7.7,7.3S112.6,355.4,108.4,355.4"/>
	<path id="path861_8_" inkscape:connector-curvature="0" class="st25" d="M113.5,348.6c0,2.8-2.3,5.2-5.1,5.2
		c-2.8,0-5.1-2.3-5.1-5.2c0-2.8,2.3-5.2,5.1-5.2C111.3,343.4,113.5,345.7,113.5,348.6"/>
	<path id="path7265_8_" inkscape:connector-curvature="0" d="M113.5,347.6c0,2.8-2.3,5.1-5.1,5.1s-5.1-2.3-5.1-5.1
		c0-2.8,2.3-5.1,5.1-5.1C111.3,342.4,113.5,344.7,113.5,347.6"/>
</g>
<g id="layer1_7_" transform="translate(-47.888015,-88.626321)" inkscape:groupmode="layer" inkscape:label="Layer 1">
	<path id="path7689_2_" inkscape:connector-curvature="0" d="M142.8,270.6c0,8.8-7.1,15.9-15.9,15.9s-15.9-7.1-15.9-15.9
		s7.1-15.9,15.9-15.9C135.7,254.8,142.8,261.9,142.8,270.6"/>
	<path id="path7691_2_" inkscape:connector-curvature="0" class="st30" d="M135.8,270.6c0,4.9-4,9-9,9s-9-4-9-9c0-4.9,4-9,9-9
		C131.8,261.7,135.8,265.7,135.8,270.6"/>
	<path id="path7693_2_" inkscape:connector-curvature="0" class="st21" d="M139.4,270.6c0,6.9-5.6,12.6-12.6,12.6
		c-6.9,0-12.6-5.6-12.6-12.6c0-6.9,5.6-12.6,12.6-12.6C133.8,258.1,139.4,263.7,139.4,270.6L139.4,270.6z"/>
	<path id="path7695_2_" inkscape:connector-curvature="0" class="st30" d="M128.3,254.8c-0.5,0-1-0.1-1.4-0.1c-0.6,0-1.2,0-1.8,0.1
		v7.2h3.2V254.8z"/>
</g>
<g id="layer1_46_" transform="translate(-53.216485,-90.5345)" inkscape:groupmode="layer" inkscape:label="Layer 1">
	<path id="path7705_17_" inkscape:connector-curvature="0" d="M100.1,288.5c0,5.5-4.4,9.9-9.9,9.9s-9.9-4.4-9.9-9.9s4.4-9.9,9.9-9.9
		S100.1,283.1,100.1,288.5"/>
	<path id="path7707_26_" inkscape:connector-curvature="0" class="st30" d="M95.8,288.5c0,3.1-2.5,5.6-5.6,5.6s-5.6-2.5-5.6-5.6
		s2.5-5.6,5.6-5.6S95.8,285.4,95.8,288.5"/>
	<path id="path7711_26_" inkscape:connector-curvature="0" class="st30" d="M91.1,278.7c-0.3,0-0.6,0-0.9,0c-0.4,0-0.7,0-1.1,0.1
		v4.5h2V278.7z"/>
</g>
<g id="layer1_29_" transform="translate(-53.216485,-90.5345)" inkscape:groupmode="layer" inkscape:label="Layer 1">
	<path id="path7705_12_" inkscape:connector-curvature="0" d="M137.8,314.1c0,5.5-4.4,9.9-9.9,9.9s-9.9-4.4-9.9-9.9s4.4-9.9,9.9-9.9
		C133.4,304.2,137.8,308.7,137.8,314.1"/>
	<path id="path7707_11_" inkscape:connector-curvature="0" class="st30" d="M133.5,314.1c0,3.1-2.5,5.6-5.6,5.6s-5.6-2.5-5.6-5.6
		s2.5-5.6,5.6-5.6S133.5,311,133.5,314.1"/>
	<path id="path7711_11_" inkscape:connector-curvature="0" class="st30" d="M128.8,304.3c-0.3,0-0.6,0-0.9,0c-0.4,0-0.7,0-1.1,0.1
		v4.5h2V304.3z"/>
</g>
<g id="layer1_31_" transform="translate(-89.945866,-120.5333)" inkscape:groupmode="layer" inkscape:label="Layer 1">
	<path id="path7255_9_" inkscape:connector-curvature="0" class="st23" d="M128.9,375.8c-5.7,0-10.3-4.6-10.3-10.3
		c0-5.7,4.6-10.3,10.3-10.3c5.7,0,10.3,4.6,10.3,10.3S134.5,375.8,128.9,375.8"/>
	<path id="path7261_9_" inkscape:connector-curvature="0" class="st24" d="M128.9,373.5c-4.4,0-8-3.6-8-8s3.6-8,8-8c4.4,0,8,3.6,8,8
		C136.9,370,133.4,373.5,128.9,373.5"/>
	<path id="path1187_9_" inkscape:connector-curvature="0" class="st14" d="M128.9,373.4c-4.3,0-7.7-3.3-7.7-7.3s3.5-7.3,7.7-7.3
		c4.3,0,7.7,3.3,7.7,7.3S133.1,373.4,128.9,373.4"/>
	<path id="path861_9_" inkscape:connector-curvature="0" class="st25" d="M134,366.6c0,2.8-2.3,5.2-5.1,5.2s-5.1-2.3-5.1-5.2
		c0-2.8,2.3-5.2,5.1-5.2C131.8,361.4,134,363.7,134,366.6"/>
	<path id="path7265_9_" inkscape:connector-curvature="0" d="M134,365.6c0,2.8-2.3,5.1-5.1,5.1s-5.1-2.3-5.1-5.1
		c0-2.8,2.3-5.1,5.1-5.1C131.8,360.4,134,362.7,134,365.6"/>
</g>
<g>
	<circle class="st31" cx="65.8" cy="281.9" r="5.5"/>
	<line class="st26" x1="65.8" y1="287.3" x2="65.8" y2="276.4"/>
	<line class="st26" x1="60.3" y1="281.9" x2="71.3" y2="281.9"/>
</g>
<g id="layer1_14_" transform="translate(-53.216485,-90.5345)" inkscape:groupmode="layer" inkscape:label="Layer 1">
	<path id="path7705_7_" inkscape:connector-curvature="0" d="M107.1,418.5c0,5.5-4.4,9.9-9.9,9.9s-9.9-4.4-9.9-9.9s4.4-9.9,9.9-9.9
		S107.1,413,107.1,418.5"/>
	<path id="path7707_7_" inkscape:connector-curvature="0" class="st32" d="M102.8,418.5c0,3.1-2.5,5.6-5.6,5.6s-5.6-2.5-5.6-5.6
		s2.5-5.6,5.6-5.6S102.8,415.4,102.8,418.5"/>
	<path id="path7711_7_" inkscape:connector-curvature="0" class="st32" d="M98.1,408.6c-0.3,0-0.6,0-0.9,0c-0.4,0-0.7,0-1.1,0.1v4.5
		h2V408.6z"/>
</g>
<g id="layer1_37_" transform="translate(-89.945866,-120.5333)" inkscape:groupmode="layer" inkscape:label="Layer 1">
	<path id="path7255_14_" inkscape:connector-curvature="0" class="st23" d="M108.4,469.8c-5.7,0-10.3-4.6-10.3-10.3
		c0-5.7,4.6-10.3,10.3-10.3s10.3,4.6,10.3,10.3S114.1,469.8,108.4,469.8"/>
	<path id="path7261_14_" inkscape:connector-curvature="0" class="st24" d="M108.4,467.5c-4.4,0-8-3.6-8-8s3.6-8,8-8s8,3.6,8,8
		C116.4,464,112.9,467.5,108.4,467.5"/>
	<path id="path1187_14_" inkscape:connector-curvature="0" class="st14" d="M108.4,467.4c-4.3,0-7.7-3.3-7.7-7.3s3.5-7.3,7.7-7.3
		c4.3,0,7.7,3.3,7.7,7.3S112.7,467.4,108.4,467.4"/>
	<path id="path861_14_" inkscape:connector-curvature="0" class="st25" d="M113.6,460.6c0,2.8-2.3,5.2-5.1,5.2s-5.1-2.3-5.1-5.2
		c0-2.8,2.3-5.2,5.1-5.2S113.6,457.7,113.6,460.6"/>
	<path id="path7265_14_" inkscape:connector-curvature="0" d="M113.6,459.6c0,2.8-2.3,5.1-5.1,5.1s-5.1-2.3-5.1-5.1
		c0-2.8,2.3-5.1,5.1-5.1C111.3,454.4,113.6,456.7,113.6,459.6"/>
</g>
<g id="layer1_26_" transform="translate(-53.216485,-90.5345)" inkscape:groupmode="layer" inkscape:label="Layer 1">
	<path id="path7705_8_" inkscape:connector-curvature="0" d="M107.1,393.5c0,5.5-4.4,9.9-9.9,9.9s-9.9-4.4-9.9-9.9s4.4-9.9,9.9-9.9
		S107.1,388,107.1,393.5"/>
	<path id="path7707_8_" inkscape:connector-curvature="0" class="st32" d="M102.8,393.5c0,3.1-2.5,5.6-5.6,5.6s-5.6-2.5-5.6-5.6
		s2.5-5.6,5.6-5.6S102.8,390.4,102.8,393.5"/>
	<path id="path7711_8_" inkscape:connector-curvature="0" class="st32" d="M98.1,383.6c-0.3,0-0.6,0-0.9,0c-0.4,0-0.7,0-1.1,0.1v4.5
		h2V383.6z"/>
</g>
<g id="layer1_35_" transform="translate(-89.945866,-120.5333)" inkscape:groupmode="layer" inkscape:label="Layer 1">
	<path id="path7255_13_" inkscape:connector-curvature="0" class="st23" d="M108.4,437.7c-5.7,0-10.3-4.6-10.3-10.3
		c0-5.7,4.6-10.3,10.3-10.3c5.7,0,10.3,4.6,10.3,10.3S114.1,437.7,108.4,437.7"/>
	<path id="path7261_13_" inkscape:connector-curvature="0" class="st24" d="M108.4,435.4c-4.4,0-8-3.6-8-8s3.6-8,8-8s8,3.6,8,8
		C116.4,431.9,112.9,435.4,108.4,435.4"/>
	<path id="path1187_13_" inkscape:connector-curvature="0" class="st14" d="M108.4,435.3c-4.3,0-7.7-3.3-7.7-7.3s3.5-7.3,7.7-7.3
		c4.3,0,7.7,3.3,7.7,7.3S112.7,435.3,108.4,435.3"/>
	<path id="path861_13_" inkscape:connector-curvature="0" class="st25" d="M113.6,428.5c0,2.8-2.3,5.2-5.1,5.2
		c-2.8,0-5.1-2.3-5.1-5.2c0-2.8,2.3-5.2,5.1-5.2C111.3,423.3,113.6,425.6,113.6,428.5"/>
	<path id="path7265_13_" inkscape:connector-curvature="0" d="M113.6,427.5c0,2.8-2.3,5.1-5.1,5.1c-2.8,0-5.1-2.3-5.1-5.1
		c0-2.8,2.3-5.1,5.1-5.1C111.3,422.3,113.6,424.6,113.6,427.5"/>
</g>
<g id="layer1_23_" transform="translate(-53.216485,-90.5345)" inkscape:groupmode="layer" inkscape:label="Layer 1">
	<path id="path7705_9_" inkscape:connector-curvature="0" d="M107.1,368.5c0,5.5-4.4,9.9-9.9,9.9s-9.9-4.4-9.9-9.9s4.4-9.9,9.9-9.9
		S107.1,363,107.1,368.5"/>
	<path id="path7707_9_" inkscape:connector-curvature="0" class="st32" d="M102.8,368.5c0,3.1-2.5,5.6-5.6,5.6s-5.6-2.5-5.6-5.6
		s2.5-5.6,5.6-5.6S102.8,365.4,102.8,368.5"/>
	<path id="path7711_9_" inkscape:connector-curvature="0" class="st32" d="M98.1,358.6c-0.3,0-0.6,0-0.9,0c-0.4,0-0.7,0-1.1,0.1v4.5
		h2V358.6z"/>
</g>
<g id="layer1_20_" transform="translate(-89.945866,-120.5333)" inkscape:groupmode="layer" inkscape:label="Layer 1">
	<path id="path7255_5_" inkscape:connector-curvature="0" class="st23" d="M108.4,401.8c-5.7,0-10.3-4.6-10.3-10.3
		c0-5.7,4.6-10.3,10.3-10.3s10.3,4.6,10.3,10.3S114.1,401.8,108.4,401.8"/>
	<path id="path7261_5_" inkscape:connector-curvature="0" class="st24" d="M108.4,399.5c-4.4,0-8-3.6-8-8s3.6-8,8-8s8,3.6,8,8
		C116.4,396,112.9,399.5,108.4,399.5"/>
	<path id="path1187_5_" inkscape:connector-curvature="0" class="st14" d="M108.4,399.4c-4.3,0-7.7-3.3-7.7-7.3s3.5-7.3,7.7-7.3
		c4.3,0,7.7,3.3,7.7,7.3S112.7,399.4,108.4,399.4"/>
	<path id="path861_5_" inkscape:connector-curvature="0" class="st25" d="M113.6,392.6c0,2.8-2.3,5.2-5.1,5.2s-5.1-2.3-5.1-5.2
		c0-2.8,2.3-5.2,5.1-5.2S113.6,389.7,113.6,392.6"/>
	<path id="path7265_5_" inkscape:connector-curvature="0" d="M113.6,391.6c0,2.8-2.3,5.1-5.1,5.1s-5.1-2.3-5.1-5.1
		c0-2.8,2.3-5.1,5.1-5.1C111.3,386.4,113.6,388.7,113.6,391.6"/>
</g>
<g id="layer1_72_" transform="translate(-89.945866,-120.5333)" inkscape:groupmode="layer" inkscape:label="Layer 1">
	<path id="path7255_33_" inkscape:connector-curvature="0" class="st23" d="M299.9,422.8c-5.7,0-10.3-4.6-10.3-10.3
		c0-5.7,4.6-10.3,10.3-10.3c5.7,0,10.3,4.6,10.3,10.3S305.6,422.8,299.9,422.8"/>
	<path id="path7261_33_" inkscape:connector-curvature="0" class="st24" d="M299.9,420.5c-4.4,0-8-3.6-8-8s3.6-8,8-8s8,3.6,8,8
		C307.9,417,304.4,420.5,299.9,420.5"/>
	<path id="path1187_33_" inkscape:connector-curvature="0" class="st14" d="M299.9,420.4c-4.3,0-7.7-3.3-7.7-7.3s3.5-7.3,7.7-7.3
		c4.3,0,7.7,3.3,7.7,7.3S304.2,420.4,299.9,420.4"/>
	<path id="path861_33_" inkscape:connector-curvature="0" class="st25" d="M305.1,413.6c0,2.8-2.3,5.2-5.1,5.2
		c-2.8,0-5.1-2.3-5.1-5.2c0-2.8,2.3-5.2,5.1-5.2C302.8,408.4,305.1,410.7,305.1,413.6"/>
	<path id="path7265_33_" inkscape:connector-curvature="0" d="M305.1,412.6c0,2.8-2.3,5.1-5.1,5.1c-2.8,0-5.1-2.3-5.1-5.1
		c0-2.8,2.3-5.1,5.1-5.1C302.8,407.4,305.1,409.7,305.1,412.6"/>
</g>
<text transform="matrix(1 0 0 1 200.0559 313.8968)" class="st6 st7 st9">Sync</text>
<text transform="matrix(1 0 0 1 141.8651 275.9152)" class="st6 st7 st9">Trig</text>
<g>
	<circle class="st31" cx="70.4" cy="259.5" r="5.5"/>
	<line class="st26" x1="74.3" y1="263.4" x2="66.5" y2="255.6"/>
	<line class="st26" x1="66.5" y1="263.4" x2="74.3" y2="255.6"/>
</g>
<g id="layer1_52_" transform="translate(-53.216485,-90.5345)" inkscape:groupmode="layer" inkscape:label="Layer 1">
	<path id="path7705_18_" inkscape:connector-curvature="0" d="M168.3,286.5c0-5.5,4.4-9.9,9.9-9.9s9.9,4.4,9.9,9.9s-4.4,9.9-9.9,9.9
		S168.3,292,168.3,286.5"/>
	<path id="path7707_10_" inkscape:connector-curvature="0" class="st27" d="M172.6,286.5c0-3.1,2.5-5.6,5.6-5.6s5.6,2.5,5.6,5.6
		s-2.5,5.6-5.6,5.6S172.6,289.6,172.6,286.5"/>
	<path id="path7711_10_" inkscape:connector-curvature="0" class="st27" d="M177.3,281.2h2v-4.5c-0.4-0.1-0.7-0.1-1.1-0.1
		c-0.3,0-0.6,0-0.9,0V281.2z"/>
</g>
<path class="st26" d="M277,340c-39.3-12-43.1-58-43.1-58"/>
<path class="st26" d="M281.2,306.9c-53.4,4.1-51.9-47.5-51.9-47.5"/>
<path class="st26" d="M281.3,271c-32.4,22.6-52-11.6-52-11.6"/>
<g>
	<circle class="st31" cx="233.9" cy="281.8" r="5.5"/>
	<line class="st26" x1="233.9" y1="276.3" x2="233.9" y2="287.2"/>
	<line class="st26" x1="228.4" y1="281.8" x2="239.4" y2="281.8"/>
</g>
<g id="layer1_65_" transform="translate(-53.216485,-90.5345)" inkscape:groupmode="layer" inkscape:label="Layer 1">
	<path id="path7705_26_" inkscape:connector-curvature="0" d="M299,418.6c0-5.5,4.4-9.9,9.9-9.9s9.9,4.4,9.9,9.9s-4.4,9.9-9.9,9.9
		S299,424.1,299,418.6"/>
	<path id="path7707_34_" inkscape:connector-curvature="0" class="st32" d="M303.3,418.6c0-3.1,2.5-5.6,5.6-5.6s5.6,2.5,5.6,5.6
		s-2.5,5.6-5.6,5.6S303.3,421.7,303.3,418.6"/>
	<path id="path7711_34_" inkscape:connector-curvature="0" class="st32" d="M308,413.3h2v-4.5c-0.4-0.1-0.7-0.1-1.1-0.1
		c-0.3,0-0.6,0-0.9,0V413.3z"/>
</g>
<g id="layer1_64_" transform="translate(-89.945866,-120.5333)" inkscape:groupmode="layer" inkscape:label="Layer 1">
	<path id="path7255_30_" inkscape:connector-curvature="0" class="st23" d="M371.4,470.3c-5.7,0-10.3-4.6-10.3-10.3
		s4.6-10.3,10.3-10.3s10.3,4.6,10.3,10.3C381.7,465.7,377.1,470.3,371.4,470.3"/>
	<path id="path7261_30_" inkscape:connector-curvature="0" class="st24" d="M371.4,468c-4.5,0-8-3.5-8-8c0-4.4,3.6-8,8-8s8,3.6,8,8
		S375.8,468,371.4,468"/>
	<path id="path1187_30_" inkscape:connector-curvature="0" class="st14" d="M371.4,467.9c-4.3,0-7.7-3.3-7.7-7.3s3.4-7.3,7.7-7.3
		c4.2,0,7.7,3.3,7.7,7.3S375.7,467.9,371.4,467.9"/>
	<path id="path861_30_" inkscape:connector-curvature="0" class="st25" d="M366.2,461.1c0-2.9,2.3-5.2,5.1-5.2
		c2.8,0,5.1,2.4,5.1,5.2c0,2.9-2.3,5.2-5.1,5.2C368.5,466.3,366.2,463.9,366.2,461.1"/>
	<path id="path7265_30_" inkscape:connector-curvature="0" d="M366.2,460.1c0-2.9,2.3-5.2,5.1-5.1c2.8,0,5.1,2.3,5.1,5.1
		c0,2.8-2.3,5.1-5.1,5.1S366.2,462.9,366.2,460.1"/>
</g>
<g id="layer1_63_" transform="translate(-53.216485,-90.5345)" inkscape:groupmode="layer" inkscape:label="Layer 1">
	<path id="path7705_25_" inkscape:connector-curvature="0" d="M299,393.5c0-5.5,4.4-9.9,9.9-9.9s9.9,4.4,9.9,9.9s-4.4,9.9-9.9,9.9
		S299,399,299,393.5"/>
	<path id="path7707_32_" inkscape:connector-curvature="0" class="st32" d="M303.3,393.5c0-3.1,2.5-5.6,5.6-5.6s5.6,2.5,5.6,5.6
		s-2.5,5.6-5.6,5.6S303.3,396.6,303.3,393.5"/>
	<path id="path7711_32_" inkscape:connector-curvature="0" class="st32" d="M308,388.2h2v-4.5c-0.4-0.1-0.7-0.1-1.1-0.1
		c-0.3,0-0.6,0-0.9,0V388.2z"/>
</g>
<g id="layer1_61_" transform="translate(-89.945866,-120.5333)" inkscape:groupmode="layer" inkscape:label="Layer 1">
	<path id="path7255_29_" inkscape:connector-curvature="0" class="st23" d="M371.4,437.7c-5.7,0-10.3-4.6-10.3-10.3
		s4.6-10.3,10.3-10.3s10.3,4.6,10.3,10.3S377.1,437.7,371.4,437.7"/>
	<path id="path7261_29_" inkscape:connector-curvature="0" class="st24" d="M371.4,435.4c-4.5,0-8-3.5-8-8c0-4.4,3.6-8,8-8
		s8,3.6,8,8S375.8,435.4,371.4,435.4"/>
	<path id="path1187_29_" inkscape:connector-curvature="0" class="st14" d="M371.4,435.3c-4.3,0-7.7-3.3-7.7-7.3s3.4-7.3,7.7-7.3
		c4.2,0,7.7,3.3,7.7,7.3S375.7,435.3,371.4,435.3"/>
	<path id="path861_29_" inkscape:connector-curvature="0" class="st25" d="M366.2,428.5c0-2.9,2.3-5.2,5.1-5.2s5.1,2.4,5.1,5.2
		c0,2.9-2.3,5.2-5.1,5.2S366.2,431.3,366.2,428.5"/>
	<path id="path7265_29_" inkscape:connector-curvature="0" d="M366.2,427.5c0-2.9,2.3-5.2,5.1-5.1c2.8,0,5.1,2.3,5.1,5.1
		c0,2.8-2.3,5.1-5.1,5.1S366.2,430.3,366.2,427.5"/>
</g>
<g id="layer1_60_" transform="translate(-53.216485,-90.5345)" inkscape:groupmode="layer" inkscape:label="Layer 1">
	<path id="path7705_24_" inkscape:connector-curvature="0" d="M299.3,368.5c0-5.5,4.4-9.9,9.9-9.9s9.9,4.4,9.9,9.9s-4.4,9.9-9.9,9.9
		S299.3,374,299.3,368.5"/>
	<path id="path7707_14_" inkscape:connector-curvature="0" class="st32" d="M303.6,368.5c0-3.1,2.5-5.6,5.6-5.6s5.6,2.5,5.6,5.6
		s-2.5,5.6-5.6,5.6S303.6,371.6,303.6,368.5"/>
	<path id="path7711_14_" inkscape:connector-curvature="0" class="st32" d="M308.3,363.2h2v-4.5c-0.4-0.1-0.7-0.1-1.1-0.1
		c-0.3,0-0.6,0-0.9,0V363.2z"/>
</g>
<g id="layer1_59_" transform="translate(-89.945866,-120.5333)" inkscape:groupmode="layer" inkscape:label="Layer 1">
	<path id="path7255_27_" inkscape:connector-curvature="0" class="st23" d="M371.4,401.8c-5.7,0-10.3-4.6-10.3-10.3
		s4.6-10.3,10.3-10.3c5.7,0,10.3,4.6,10.3,10.3C381.7,397.2,377.1,401.8,371.4,401.8"/>
	<path id="path7261_27_" inkscape:connector-curvature="0" class="st24" d="M371.4,399.5c-4.5,0-8-3.5-8-8c0-4.4,3.6-8,8-8
		s8,3.6,8,8S375.8,399.5,371.4,399.5"/>
	<path id="path1187_27_" inkscape:connector-curvature="0" class="st14" d="M371.4,399.4c-4.3,0-7.7-3.3-7.7-7.3s3.4-7.3,7.7-7.3
		c4.2,0,7.7,3.3,7.7,7.3S375.7,399.4,371.4,399.4"/>
	<path id="path861_27_" inkscape:connector-curvature="0" class="st25" d="M366.2,392.6c0-2.9,2.3-5.2,5.1-5.2s5.1,2.4,5.1,5.2
		c0,2.9-2.3,5.2-5.1,5.2S366.2,395.4,366.2,392.6"/>
	<path id="path7265_27_" inkscape:connector-curvature="0" d="M366.2,391.6c0-2.9,2.3-5.2,5.1-5.1c2.8,0,5.1,2.3,5.1,5.1
		c0,2.8-2.3,5.1-5.1,5.1S366.2,394.4,366.2,391.6"/>
</g>
<g>
	<circle class="st31" cx="229.3" cy="259.4" r="5.5"/>
	<line class="st26" x1="233.2" y1="255.5" x2="225.4" y2="263.3"/>
	<line class="st26" x1="225.4" y1="255.5" x2="233.2" y2="263.3"/>
</g>
<path class="st1" d="M123.8,276.1C123.8,261,135,254,135,254v15.2c0,2.1,1.7,3.7,3.7,3.7"/>
<g id="layer1_67_" transform="translate(-46.755712,-68.824694)" inkscape:groupmode="layer" inkscape:label="Layer 1">
	<path id="path2706_1_" class="st28" d="M177.3,344.9c0,3.7-3,6.7-6.7,6.7l0,0c-3.7,0-6.7-3-6.7-6.7l0,0c0-3.7,3-6.7,6.7-6.7l0,0
		C174.3,338.2,177.3,341.2,177.3,344.9L177.3,344.9z"/>
</g>
<g id="layer1_45_" transform="translate(-46.755712,-68.824694)" inkscape:groupmode="layer" inkscape:label="Layer 1">
	<path id="path2706_4_" class="st28" d="M119.3,389.3c0,3.7-3,6.7-6.7,6.7l0,0c-3.7,0-6.7-3-6.7-6.7l0,0c0-3.7,3-6.7,6.7-6.7l0,0
		C116.3,382.6,119.3,385.6,119.3,389.3L119.3,389.3z"/>
</g>
<g id="layer1_38_" transform="translate(-89.945866,-120.5333)" inkscape:groupmode="layer" inkscape:label="Layer 1">
	<path id="path7255_18_" inkscape:connector-curvature="0" class="st23" d="M224.9,384.8c-5.7,0-10.3-4.6-10.3-10.3
		c0-5.7,4.6-10.3,10.3-10.3s10.3,4.6,10.3,10.3S230.6,384.8,224.9,384.8"/>
	<path id="path7261_18_" inkscape:connector-curvature="0" class="st24" d="M224.9,382.5c-4.4,0-8-3.6-8-8s3.6-8,8-8s8,3.6,8,8
		C232.9,379,229.4,382.5,224.9,382.5"/>
	<path id="path1187_18_" inkscape:connector-curvature="0" class="st14" d="M224.9,382.4c-4.3,0-7.7-3.3-7.7-7.3s3.5-7.3,7.7-7.3
		c4.3,0,7.7,3.3,7.7,7.3S229.2,382.4,224.9,382.4"/>
	<path id="path861_18_" inkscape:connector-curvature="0" class="st25" d="M230.1,375.6c0,2.8-2.3,5.2-5.1,5.2s-5.1-2.3-5.1-5.2
		c0-2.8,2.3-5.2,5.1-5.2S230.1,372.7,230.1,375.6"/>
	<path id="path7265_18_" inkscape:connector-curvature="0" d="M230.1,374.6c0,2.8-2.3,5.1-5.1,5.1s-5.1-2.3-5.1-5.1
		c0-2.8,2.3-5.1,5.1-5.1C227.8,369.4,230.1,371.7,230.1,374.6"/>
</g>
<path class="st1" d="M176.1,276.1C176.1,261,165,254,165,254v15.2c0,2.1-1.7,3.7-3.7,3.7"/>
<g id="layer1_58_" transform="translate(-89.945866,-120.5333)" inkscape:groupmode="layer" inkscape:label="Layer 1">
	<path id="path7255_26_" inkscape:connector-curvature="0" class="st23" d="M254.9,384.8c-5.7,0-10.3-4.6-10.3-10.3
		c0-5.7,4.6-10.3,10.3-10.3c5.7,0,10.3,4.6,10.3,10.3S260.6,384.8,254.9,384.8"/>
	<path id="path7261_26_" inkscape:connector-curvature="0" class="st24" d="M254.9,382.5c-4.4,0-8-3.6-8-8s3.6-8,8-8s8,3.6,8,8
		C262.9,379,259.4,382.5,254.9,382.5"/>
	<path id="path1187_26_" inkscape:connector-curvature="0" class="st14" d="M254.9,382.4c-4.3,0-7.7-3.3-7.7-7.3s3.5-7.3,7.7-7.3
		c4.3,0,7.7,3.3,7.7,7.3S259.2,382.4,254.9,382.4"/>
	<path id="path861_26_" inkscape:connector-curvature="0" class="st25" d="M260.1,375.6c0,2.8-2.3,5.2-5.1,5.2
		c-2.8,0-5.1-2.3-5.1-5.2c0-2.8,2.3-5.2,5.1-5.2C257.8,370.4,260.1,372.7,260.1,375.6"/>
	<path id="path7265_26_" inkscape:connector-curvature="0" d="M260.1,374.6c0,2.8-2.3,5.1-5.1,5.1c-2.8,0-5.1-2.3-5.1-5.1
		c0-2.8,2.3-5.1,5.1-5.1C257.8,369.4,260.1,371.7,260.1,374.6"/>
</g>
<g id="layer1_73_" transform="translate(-46.755712,-68.824694)" inkscape:groupmode="layer" inkscape:label="Layer 1">
	<path id="path2706_2_" class="st28" d="M216.2,344.9c0-3.7,3-6.7,6.7-6.7l0,0c3.7,0,6.7,3,6.7,6.7l0,0c0,3.7-3,6.7-6.7,6.7l0,0
		C219.2,351.6,216.2,348.6,216.2,344.9L216.2,344.9z"/>
</g>
<path class="st33" d="M18.5,40c34.5,0,75.4,9,75.4,9"/>
<g id="layer1_11_" transform="translate(-89.945866,-120.5333)" inkscape:groupmode="layer" inkscape:label="Layer 1">
	<path id="path7255_1_" inkscape:connector-curvature="0" class="st23" d="M108.4,170.8c-5.7,0-10.3-4.6-10.3-10.3
		s4.6-10.3,10.3-10.3s10.3,4.6,10.3,10.3S114.1,170.8,108.4,170.8"/>
	<path id="path7261_1_" inkscape:connector-curvature="0" class="st24" d="M108.4,168.5c-4.4,0-8-3.6-8-8s3.6-8,8-8s8,3.6,8,8
		C116.4,165,112.9,168.5,108.4,168.5"/>
	<path id="path1187_1_" inkscape:connector-curvature="0" class="st14" d="M108.4,168.4c-4.3,0-7.7-3.3-7.7-7.3s3.5-7.3,7.7-7.3
		s7.7,3.3,7.7,7.3S112.7,168.4,108.4,168.4"/>
	<path id="path861_1_" inkscape:connector-curvature="0" class="st25" d="M113.6,161.6c0,2.8-2.3,5.2-5.1,5.2
		c-2.8,0-5.1-2.3-5.1-5.2c0-2.8,2.3-5.2,5.1-5.2S113.6,158.7,113.6,161.6"/>
	<path id="path7265_1_" inkscape:connector-curvature="0" d="M113.6,160.6c0,2.8-2.3,5.1-5.1,5.1c-2.8,0-5.1-2.3-5.1-5.1
		s2.3-5.1,5.1-5.1S113.6,157.7,113.6,160.6"/>
</g>
<g id="layer1_51_" transform="translate(-53.216485,-90.5345)" inkscape:groupmode="layer" inkscape:label="Layer 1">
	<path id="path7705_20_" inkscape:connector-curvature="0" d="M96.3,133.4c0-5.4,4.4-9.9,9.9-9.9s9.9,4.4,9.9,9.9s-4.4,9.9-9.9,9.9
		S96.3,138.9,96.3,133.4"/>
	<path id="path7707_30_" inkscape:connector-curvature="0" class="st34" d="M100.6,133.4c0-3.1,2.5-5.6,5.6-5.6s5.6,2.5,5.6,5.6
		s-2.5,5.6-5.6,5.6S100.6,136.5,100.6,133.4"/>
	<path id="path7711_30_" inkscape:connector-curvature="0" class="st34" d="M105.3,128.2h2v-4.5c-0.4-0.1-0.7-0.1-1.1-0.1
		c-0.3,0-0.6,0-0.9,0V128.2z"/>
</g>
<path class="st33" d="M93,52.6c27.8-35.3,57,0.4,57,0.4"/>
<g id="layer1_1_" transform="translate(-50.235993,-87.554008)" inkscape:groupmode="layer" inkscape:label="Layer 1">
	<path id="path7705" inkscape:connector-curvature="0" d="M159.1,136.6c0,8.8-7.1,15.9-15.9,15.9s-15.9-7.1-15.9-15.9
		c0-8.8,7.1-15.9,15.9-15.9C152,120.7,159.1,127.8,159.1,136.6"/>
	<path id="path7707" inkscape:connector-curvature="0" class="st34" d="M152.2,136.6c0,4.9-4,9-9,9c-4.9,0-9-4-9-9c0-4.9,4-9,9-9
		S152.2,131.6,152.2,136.6"/>
	<path id="path7709" inkscape:connector-curvature="0" class="st21" d="M155.8,136.6c0,6.9-5.6,12.6-12.6,12.6
		c-6.9,0-12.6-5.6-12.6-12.6c0-6.9,5.6-12.6,12.6-12.6C150.2,124,155.8,129.6,155.8,136.6L155.8,136.6z"/>
	<path id="path7711" inkscape:connector-curvature="0" class="st34" d="M144.7,120.8c-0.5,0-1-0.1-1.4-0.1c-0.6,0-1.2,0-1.8,0.1v7.2
		h3.2V120.8z"/>
</g>
<path class="st33" d="M282,40c-34.3,0-75,9.1-75,9.1"/>
<path class="st33" d="M207,52.6c-27.8-35.3-57,0.4-57,0.4"/>
<g id="layer1_3_" transform="translate(-50.235993,-87.554008)" inkscape:groupmode="layer" inkscape:label="Layer 1">
	<path id="path7705_2_" inkscape:connector-curvature="0" d="M273.1,136.6c0,8.8-7.1,15.9-15.9,15.9c-8.8,0-15.9-7.1-15.9-15.9
		c0-8.8,7.1-15.9,15.9-15.9C266,120.7,273.1,127.8,273.1,136.6"/>
	<path id="path7707_2_" inkscape:connector-curvature="0" class="st34" d="M266.2,136.6c0,4.9-4,9-9,9c-4.9,0-9-4-9-9c0-4.9,4-9,9-9
		C262.2,127.6,266.2,131.6,266.2,136.6"/>
	<path id="path7709_2_" inkscape:connector-curvature="0" class="st21" d="M269.8,136.6c0,6.9-5.6,12.6-12.6,12.6
		c-6.9,0-12.6-5.6-12.6-12.6c0-6.9,5.6-12.6,12.6-12.6C264.2,124,269.8,129.6,269.8,136.6L269.8,136.6z"/>
	<path id="path7711_2_" inkscape:connector-curvature="0" class="st34" d="M258.7,120.8c-0.5,0-1-0.1-1.4-0.1c-0.6,0-1.2,0-1.8,0.1
		v7.2h3.2V120.8z"/>
</g>
<g id="layer1_36_" transform="translate(-89.945866,-120.5333)" inkscape:groupmode="layer" inkscape:label="Layer 1">
	<path id="path7255_12_" inkscape:connector-curvature="0" class="st23" d="M371.4,170.8c-5.7,0-10.3-4.6-10.3-10.3
		s4.6-10.3,10.3-10.3s10.3,4.6,10.3,10.3S377.1,170.8,371.4,170.8"/>
	<path id="path7261_12_" inkscape:connector-curvature="0" class="st24" d="M371.4,168.5c-4.4,0-8-3.6-8-8s3.6-8,8-8s8,3.6,8,8
		C379.4,165,375.9,168.5,371.4,168.5"/>
	<path id="path1187_12_" inkscape:connector-curvature="0" class="st14" d="M371.4,168.4c-4.3,0-7.7-3.3-7.7-7.3s3.5-7.3,7.7-7.3
		s7.7,3.3,7.7,7.3S375.7,168.4,371.4,168.4"/>
	<path id="path861_12_" inkscape:connector-curvature="0" class="st25" d="M376.6,161.6c0,2.8-2.3,5.2-5.1,5.2
		c-2.8,0-5.1-2.3-5.1-5.2c0-2.8,2.3-5.2,5.1-5.2S376.6,158.7,376.6,161.6"/>
	<path id="path7265_12_" inkscape:connector-curvature="0" d="M376.6,160.6c0,2.8-2.3,5.1-5.1,5.1c-2.8,0-5.1-2.3-5.1-5.1
		s2.3-5.1,5.1-5.1S376.6,157.7,376.6,160.6"/>
</g>
<g id="layer1_2_" transform="translate(-50.235993,-87.554008)" inkscape:groupmode="layer" inkscape:label="Layer 1">
	<path id="path7705_1_" inkscape:connector-curvature="0" d="M216.1,136.6c0,8.8-7.1,15.9-15.9,15.9c-8.8,0-15.9-7.1-15.9-15.9
		c0-8.8,7.1-15.9,15.9-15.9C209,120.7,216.1,127.8,216.1,136.6"/>
	<path id="path7707_1_" inkscape:connector-curvature="0" class="st34" d="M209.2,136.6c0,4.9-4,9-9,9c-4.9,0-9-4-9-9c0-4.9,4-9,9-9
		S209.2,131.6,209.2,136.6"/>
	<path id="path7709_1_" inkscape:connector-curvature="0" class="st21" d="M212.8,136.6c0,6.9-5.6,12.6-12.6,12.6
		c-6.9,0-12.6-5.6-12.6-12.6c0-6.9,5.6-12.6,12.6-12.6C207.2,124,212.8,129.6,212.8,136.6L212.8,136.6z"/>
	<path id="path7711_1_" inkscape:connector-curvature="0" class="st34" d="M201.7,120.8c-0.5,0-1-0.1-1.4-0.1c-0.6,0-1.2,0-1.8,0.1
		v7.2h3.2V120.8z"/>
</g>
<g id="layer1_74_" transform="translate(-53.216485,-90.5345)" inkscape:groupmode="layer" inkscape:label="Layer 1">
	<path id="path7705_30_" inkscape:connector-curvature="0" d="M310.1,133.4c0,5.5-4.4,9.9-9.9,9.9s-9.9-4.4-9.9-9.9s4.4-9.9,9.9-9.9
		S310.1,128,310.1,133.4"/>
	<path id="path7707_16_" inkscape:connector-curvature="0" class="st34" d="M305.8,133.4c0,3.1-2.5,5.6-5.6,5.6s-5.6-2.5-5.6-5.6
		s2.5-5.6,5.6-5.6C303.3,127.8,305.8,130.3,305.8,133.4"/>
	<path id="path7711_16_" inkscape:connector-curvature="0" class="st34" d="M301.1,123.6c-0.3,0-0.6,0-0.9,0c-0.4,0-0.7,0-1.1,0.1
		v4.5h2V123.6z"/>
</g>
<text transform="matrix(0.9063 -0.4226 0.4226 0.9063 28.0677 152.5046)" class="st6 st7 st9">Shape</text>
<text transform="matrix(0.9063 -0.4226 0.4226 0.9063 35.194 160.2153)" class="st6 st7 st9">Type</text>
<text transform="matrix(0.9063 0.4226 -0.4226 0.9063 248.3268 141.6588)" class="st6 st7 st9">Shape</text>
<text transform="matrix(0.9063 0.4226 -0.4226 0.9063 244.7336 151.0167)" class="st6 st7 st9">Depth</text>
<path class="st2" d="M281.5,133.1C258,104,230,138,230,138"/>
<path class="st4" d="M281.5,101.1C215.9,111.3,179,92,179,92"/>
<g id="layer1_70_" transform="translate(-53.216485,-90.5345)" inkscape:groupmode="layer" inkscape:label="Layer 1">
	<path id="path7705_27_" inkscape:connector-curvature="0" d="M275.3,194.5c0-5.4,4.4-9.9,9.9-9.9s9.9,4.4,9.9,9.9s-4.4,9.9-9.9,9.9
		S275.3,200,275.3,194.5"/>
	<path id="path7707_31_" inkscape:connector-curvature="0" class="st20" d="M279.6,194.5c0-3.1,2.5-5.6,5.6-5.6s5.6,2.5,5.6,5.6
		s-2.5,5.6-5.6,5.6S279.6,197.6,279.6,194.5"/>
	<path id="path7711_31_" inkscape:connector-curvature="0" class="st20" d="M284.3,189.3h2v-4.5c-0.4-0.1-0.7-0.1-1.1-0.1
		c-0.3,0-0.6,0-0.9,0V189.3z"/>
</g>
<path class="st4" d="M281.5,75.1C212,70.8,179,92,179,92"/>
<g id="layer1_69_" transform="translate(-53.216485,-90.5345)" inkscape:groupmode="layer" inkscape:label="Layer 1">
	<path id="path7705_23_" inkscape:connector-curvature="0" d="M304.1,166.5c0,5.5-4.4,9.9-9.9,9.9s-9.9-4.4-9.9-9.9s4.4-9.9,9.9-9.9
		S304.1,161.1,304.1,166.5"/>
	<path id="path7707_28_" inkscape:connector-curvature="0" class="st20" d="M299.8,166.5c0,3.1-2.5,5.6-5.6,5.6s-5.6-2.5-5.6-5.6
		s2.5-5.6,5.6-5.6S299.8,163.4,299.8,166.5"/>
	<path id="path7711_28_" inkscape:connector-curvature="0" class="st20" d="M295.1,156.7c-0.3,0-0.6,0-0.9,0c-0.4,0-0.7,0-1.1,0.1
		v4.5h2V156.7z"/>
</g>
<g id="layer1_68_" transform="translate(-47.888015,-88.626321)" inkscape:groupmode="layer" inkscape:label="Layer 1">
	<path id="path7689_3_" inkscape:connector-curvature="0" d="M211,180.6c0-8.7,7.1-15.8,15.9-15.9c8.8,0,15.9,7.1,15.9,15.9
		c0,8.8-7.1,15.9-15.9,15.9S211,189.4,211,180.6"/>
	<path id="path7691_3_" inkscape:connector-curvature="0" class="st20" d="M218,180.6c0-4.9,4-8.9,9-9c5,0,9,4.1,9,9c0,5-4,9-9,9
		S218,185.5,218,180.6"/>
	<path id="path7693_3_" inkscape:connector-curvature="0" class="st21" d="M214.4,180.6c0-6.9,5.6-12.5,12.6-12.6
		c7,0,12.6,5.7,12.6,12.6c0,7-5.7,12.6-12.6,12.6C220,193.2,214.4,187.5,214.4,180.6L214.4,180.6z"/>
	<path id="path7695_3_" inkscape:connector-curvature="0" class="st20" d="M225.5,172h3.2v-7.2c-0.6-0.1-1.2-0.1-1.8-0.1
		c-0.4,0-0.9,0.1-1.4,0.1V172z"/>
</g>
<g id="layer1_66_" transform="translate(-89.945866,-120.5333)" inkscape:groupmode="layer" inkscape:label="Layer 1">
	<path id="path7255_34_" inkscape:connector-curvature="0" class="st23" d="M371.4,231.8c-5.7,0-10.3-4.6-10.3-10.3
		s4.6-10.3,10.3-10.3s10.3,4.6,10.3,10.3S377.1,231.8,371.4,231.8"/>
	<path id="path7261_34_" inkscape:connector-curvature="0" class="st24" d="M371.4,229.5c-4.5,0-8-3.5-8-8c0-4.4,3.6-8,8-8
		s8,3.6,8,8S375.8,229.5,371.4,229.5"/>
	<path id="path1187_34_" inkscape:connector-curvature="0" class="st14" d="M371.4,229.4c-4.3,0-7.7-3.3-7.7-7.3s3.4-7.3,7.7-7.3
		c4.2,0,7.7,3.3,7.7,7.3S375.7,229.4,371.4,229.4"/>
	<path id="path861_34_" inkscape:connector-curvature="0" class="st25" d="M366.2,222.6c0-2.9,2.3-5.2,5.1-5.2
		c2.8,0,5.1,2.4,5.1,5.2c0,2.9-2.3,5.2-5.1,5.2S366.2,225.4,366.2,222.6"/>
	<path id="path7265_34_" inkscape:connector-curvature="0" d="M366.2,221.6c0-2.9,2.3-5.2,5.1-5.1c2.8,0,5.1,2.3,5.1,5.1
		s-2.3,5.1-5.1,5.1S366.2,224.4,366.2,221.6"/>
</g>
<g id="layer1_57_" transform="translate(-89.945866,-120.5333)" inkscape:groupmode="layer" inkscape:label="Layer 1">
	<path id="path7255_32_" inkscape:connector-curvature="0" class="st23" d="M371.4,205.8c-5.7,0-10.3-4.6-10.3-10.3
		s4.6-10.3,10.3-10.3s10.3,4.6,10.3,10.3S377.1,205.8,371.4,205.8"/>
	<path id="path7261_32_" inkscape:connector-curvature="0" class="st24" d="M371.4,203.5c-4.5,0-8-3.5-8-8c0-4.4,3.6-8,8-8
		s8,3.6,8,8S375.8,203.5,371.4,203.5"/>
	<path id="path1187_32_" inkscape:connector-curvature="0" class="st14" d="M371.4,203.4c-4.3,0-7.7-3.3-7.7-7.3s3.4-7.3,7.7-7.3
		c4.2,0,7.7,3.3,7.7,7.3S375.7,203.4,371.4,203.4"/>
	<path id="path861_32_" inkscape:connector-curvature="0" class="st25" d="M366.2,196.6c0-2.9,2.3-5.2,5.1-5.2
		c2.8,0,5.1,2.4,5.1,5.2c0,2.9-2.3,5.2-5.1,5.2S366.2,199.4,366.2,196.6"/>
	<path id="path7265_32_" inkscape:connector-curvature="0" d="M366.2,195.6c0-2.9,2.3-5.2,5.1-5.1c2.8,0,5.1,2.3,5.1,5.1
		s-2.3,5.1-5.1,5.1S366.2,198.4,366.2,195.6"/>
</g>
<g id="layer1_56_" transform="translate(-89.945866,-120.5333)" inkscape:groupmode="layer" inkscape:label="Layer 1">
	<path id="path7255_31_" inkscape:connector-curvature="0" class="st23" d="M302.9,375.8c-5.7,0-10.3-4.6-10.3-10.3
		s4.6-10.3,10.3-10.3c5.7,0,10.3,4.6,10.3,10.3C313.2,371.2,308.6,375.8,302.9,375.8"/>
	<path id="path7261_31_" inkscape:connector-curvature="0" class="st24" d="M302.9,373.5c-4.5,0-8-3.5-8-8c0-4.4,3.6-8,8-8
		s8,3.6,8,8S307.3,373.5,302.9,373.5"/>
	<path id="path1187_31_" inkscape:connector-curvature="0" class="st14" d="M302.9,373.4c-4.3,0-7.7-3.3-7.7-7.3s3.4-7.3,7.7-7.3
		c4.2,0,7.7,3.3,7.7,7.3S307.2,373.4,302.9,373.4"/>
	<path id="path861_31_" inkscape:connector-curvature="0" class="st25" d="M297.7,366.6c0-2.9,2.3-5.2,5.1-5.2
		c2.8,0,5.1,2.4,5.1,5.2c0,2.9-2.3,5.2-5.1,5.2C300,371.8,297.7,369.4,297.7,366.6"/>
	<path id="path7265_31_" inkscape:connector-curvature="0" d="M297.7,365.6c0-2.9,2.3-5.2,5.1-5.1c2.8,0,5.1,2.3,5.1,5.1
		c0,2.8-2.3,5.1-5.1,5.1S297.7,368.4,297.7,365.6"/>
</g>
<g id="layer1_55_" transform="translate(-53.216485,-90.5345)" inkscape:groupmode="layer" inkscape:label="Layer 1">
	<path id="path7705_22_" inkscape:connector-curvature="0" d="M263.1,299.5c0,5.5-4.4,9.9-9.9,9.9s-9.9-4.4-9.9-9.9s4.4-9.9,9.9-9.9
		S263.1,294,263.1,299.5"/>
	<path id="path7707_25_" inkscape:connector-curvature="0" class="st27" d="M258.8,299.5c0,3.1-2.5,5.6-5.6,5.6s-5.6-2.5-5.6-5.6
		s2.5-5.6,5.6-5.6S258.8,296.4,258.8,299.5"/>
	<path id="path7711_25_" inkscape:connector-curvature="0" class="st27" d="M254.1,289.6c-0.3,0-0.6,0-0.9,0c-0.4,0-0.7,0-1.1,0.1
		v4.5h2V289.6z"/>
</g>
<g id="layer1_53_" transform="translate(-89.945866,-120.5333)" inkscape:groupmode="layer" inkscape:label="Layer 1">
	<path id="path7255_25_" inkscape:connector-curvature="0" class="st23" d="M286.9,398.8c-5.7,0-10.3-4.6-10.3-10.3
		s4.6-10.3,10.3-10.3c5.7,0,10.3,4.6,10.3,10.3S292.6,398.8,286.9,398.8"/>
	<path id="path7261_25_" inkscape:connector-curvature="0" class="st24" d="M286.9,396.5c-4.5,0-8-3.5-8-8c0-4.4,3.6-8,8-8
		s8,3.6,8,8S291.3,396.5,286.9,396.5"/>
	<path id="path1187_25_" inkscape:connector-curvature="0" class="st14" d="M286.9,396.4c-4.3,0-7.7-3.3-7.7-7.3s3.4-7.3,7.7-7.3
		c4.2,0,7.7,3.3,7.7,7.3S291.2,396.4,286.9,396.4"/>
	<path id="path861_25_" inkscape:connector-curvature="0" class="st25" d="M281.7,389.6c0-2.9,2.3-5.2,5.1-5.2
		c2.8,0,5.1,2.4,5.1,5.2c0,2.9-2.3,5.2-5.1,5.2C284,394.8,281.7,392.4,281.7,389.6"/>
	<path id="path7265_25_" inkscape:connector-curvature="0" d="M281.7,388.6c0-2.9,2.3-5.2,5.1-5.1c2.8,0,5.1,2.3,5.1,5.1
		c0,2.8-2.3,5.1-5.1,5.1S281.7,391.4,281.7,388.6"/>
</g>
<g id="layer1_47_" transform="translate(-53.216485,-90.5345)" inkscape:groupmode="layer" inkscape:label="Layer 1">
	<path id="path7705_19_" inkscape:connector-curvature="0" d="M246.1,324.5c0,5.5-4.4,9.9-9.9,9.9s-9.9-4.4-9.9-9.9s4.4-9.9,9.9-9.9
		S246.1,319,246.1,324.5"/>
	<path id="path7707_22_" inkscape:connector-curvature="0" class="st27" d="M241.8,324.5c0,3.1-2.5,5.6-5.6,5.6s-5.6-2.5-5.6-5.6
		s2.5-5.6,5.6-5.6S241.8,321.4,241.8,324.5"/>
	<path id="path7711_22_" inkscape:connector-curvature="0" class="st27" d="M237.1,314.6c-0.3,0-0.6,0-0.9,0c-0.4,0-0.7,0-1.1,0.1
		v4.5h2V314.6z"/>
</g>
<g id="layer1_43_" transform="translate(-53.216485,-90.5345)" inkscape:groupmode="layer" inkscape:label="Layer 1">
	<path id="path7705_16_" inkscape:connector-curvature="0" d="M301.3,212.5c0-5.4,4.4-9.9,9.9-9.9s9.9,4.4,9.9,9.9s-4.4,9.9-9.9,9.9
		S301.3,218,301.3,212.5"/>
	<path id="path7707_21_" inkscape:connector-curvature="0" class="st35" d="M305.6,212.5c0-3.1,2.5-5.6,5.6-5.6s5.6,2.5,5.6,5.6
		s-2.5,5.6-5.6,5.6S305.6,215.6,305.6,212.5"/>
	<path id="path7711_21_" inkscape:connector-curvature="0" class="st35" d="M310.3,207.3h2v-4.5c-0.4-0.1-0.7-0.1-1.1-0.1
		c-0.3,0-0.6,0-0.9,0V207.3z"/>
</g>
<g id="layer1_42_" transform="translate(-89.945866,-120.5333)" inkscape:groupmode="layer" inkscape:label="Layer 1">
	<path id="path7255_24_" inkscape:connector-curvature="0" class="st23" d="M371.4,263.8c-5.6,0-10.3-4.6-10.3-10.3
		s4.6-10.3,10.3-10.3s10.3,4.6,10.3,10.3C381.7,259.2,377.1,263.8,371.4,263.8"/>
	<path id="path7261_24_" inkscape:connector-curvature="0" class="st24" d="M371.4,261.5c-4.5,0-8-3.5-8-8c0-4.4,3.6-8,8-8
		s8,3.6,8,8S375.8,261.5,371.4,261.5"/>
	<path id="path1187_24_" inkscape:connector-curvature="0" class="st14" d="M371.4,261.4c-4.2,0-7.7-3.3-7.7-7.3s3.4-7.3,7.7-7.3
		c4.2,0,7.7,3.3,7.7,7.3C379.1,258.1,375.7,261.4,371.4,261.4"/>
	<path id="path861_24_" inkscape:connector-curvature="0" class="st25" d="M366.2,254.6c0-2.9,2.3-5.2,5.1-5.2s5.1,2.4,5.1,5.2
		c0,2.9-2.3,5.2-5.1,5.2C368.5,259.8,366.2,257.4,366.2,254.6"/>
	<path id="path7265_24_" inkscape:connector-curvature="0" d="M366.2,253.6c0-2.9,2.3-5.2,5.1-5.1c3.5,0,6.2,3.6,4.6,7.3
		c-0.4,1-1.3,1.9-2.4,2.4C369.8,259.8,366.2,257.1,366.2,253.6"/>
</g>
<path class="st3" d="M281.2,227c-18.3-48.7-60.3-45-60.3-45"/>
<path class="st3" d="M260.7,245.1c-56.7-8.3-39.8-63.1-39.8-63.1"/>
<g id="layer1_17_" transform="translate(-89.945866,-120.5333)" inkscape:groupmode="layer" inkscape:label="Layer 1">
	<path id="path7255_22_" inkscape:connector-curvature="0" class="st23" d="M371.4,357.8c-5.6,0-10.3-4.6-10.3-10.3
		s4.6-10.3,10.3-10.3s10.3,4.6,10.3,10.3C381.7,353.2,377.1,357.8,371.4,357.8"/>
	<path id="path7261_22_" inkscape:connector-curvature="0" class="st24" d="M371.4,355.5c-4.5,0-8-3.5-8-8c0-4.4,3.6-8,8-8
		s8,3.6,8,8S375.8,355.5,371.4,355.5"/>
	<path id="path1187_22_" inkscape:connector-curvature="0" class="st14" d="M371.4,355.4c-4.2,0-7.7-3.3-7.7-7.3s3.4-7.3,7.7-7.3
		c4.2,0,7.7,3.3,7.7,7.3S375.7,355.4,371.4,355.4"/>
	<path id="path861_22_" inkscape:connector-curvature="0" class="st25" d="M366.3,348.6c0-2.9,2.2-5.2,5.1-5.2
		c2.8,0,5.1,2.4,5.1,5.2c0,2.9-2.3,5.2-5.1,5.2S366.3,351.4,366.3,348.6"/>
	<path id="path7265_22_" inkscape:connector-curvature="0" d="M366.3,347.6c0-2.9,2.2-5.2,5.1-5.1c2.8,0,5.1,2.3,5.1,5.1
		c0,2.8-2.3,5.1-5.1,5.1S366.3,350.4,366.3,347.6"/>
</g>
<g id="layer1_12_" transform="translate(-47.888015,-88.626321)" inkscape:groupmode="layer" inkscape:label="Layer 1">
	<path id="path7689_1_" inkscape:connector-curvature="0" d="M253,270.6c0-8.7,7.1-15.8,15.9-15.9c8.8,0,15.9,7.1,15.9,15.9
		s-7.1,15.9-15.9,15.9C260.1,286.5,253,279.4,253,270.6"/>
	<path id="path7691_1_" inkscape:connector-curvature="0" class="st30" d="M260,270.6c0-4.9,4-8.9,9-9c5,0,9,4.1,9,9c0,5-4,9-9,9
		S260,275.5,260,270.6"/>
	<path id="path7693_1_" inkscape:connector-curvature="0" class="st21" d="M256.4,270.6c0-6.9,5.6-12.5,12.6-12.6
		c7,0,12.6,5.7,12.6,12.6c0,7-5.7,12.6-12.6,12.6C262,283.2,256.4,277.5,256.4,270.6L256.4,270.6z"/>
	<path id="path7695_1_" inkscape:connector-curvature="0" class="st30" d="M267.5,262h3.2v-7.2c-0.6-0.1-1.2-0.1-1.8-0.1
		c-0.4,0-0.9,0.1-1.4,0.1L267.5,262L267.5,262z"/>
</g>
<g id="layer1_10_" transform="translate(-53.216485,-90.5345)" inkscape:groupmode="layer" inkscape:label="Layer 1">
	<path id="path7705_14_" inkscape:connector-curvature="0" d="M306.3,288.5c0-5.4,4.4-9.9,9.9-9.9s9.9,4.4,9.9,9.9s-4.4,9.9-9.9,9.9
		S306.3,294,306.3,288.5"/>
	<path id="path7707_15_" inkscape:connector-curvature="0" class="st30" d="M310.6,288.5c0-3.1,2.5-5.6,5.6-5.6s5.6,2.5,5.6,5.6
		s-2.5,5.6-5.6,5.6S310.6,291.6,310.6,288.5"/>
	<path id="path7711_15_" inkscape:connector-curvature="0" class="st30" d="M315.3,283.3h2v-4.5c-0.4-0.1-0.7-0.1-1.1-0.1
		c-0.3,0-0.6,0-0.9,0V283.3z"/>
</g>
<g id="layer1_8_" transform="translate(-53.216485,-90.5345)" inkscape:groupmode="layer" inkscape:label="Layer 1">
	<path id="path7705_6_" inkscape:connector-curvature="0" d="M268.3,314.1c0-5.4,4.4-9.9,9.9-9.9s9.9,4.4,9.9,9.9s-4.4,9.9-9.9,9.9
		S268.3,319.6,268.3,314.1"/>
	<path id="path7707_13_" inkscape:connector-curvature="0" class="st30" d="M272.6,314.1c0-3.1,2.5-5.6,5.6-5.6s5.6,2.5,5.6,5.6
		s-2.5,5.6-5.6,5.6S272.6,317.2,272.6,314.1"/>
	<path id="path7711_13_" inkscape:connector-curvature="0" class="st30" d="M277.3,308.9h2v-4.5c-0.4-0.1-0.7-0.1-1.1-0.1
		c-0.3,0-0.6,0-0.9,0V308.9z"/>
</g>
<g id="layer1_5_" transform="translate(-89.945866,-120.5333)" inkscape:groupmode="layer" inkscape:label="Layer 1">
	<path id="path7255_4_" inkscape:connector-curvature="0" class="st23" d="M350.9,375.8c-5.6,0-10.3-4.6-10.3-10.3
		s4.6-10.3,10.3-10.3c5.7,0,10.3,4.6,10.3,10.3C361.2,371.2,356.6,375.8,350.9,375.8"/>
	<path id="path7261_4_" inkscape:connector-curvature="0" class="st24" d="M350.9,373.5c-4.5,0-8-3.5-8-8c0-4.4,3.6-8,8-8s8,3.6,8,8
		S355.3,373.5,350.9,373.5"/>
	<path id="path1187_4_" inkscape:connector-curvature="0" class="st14" d="M350.9,373.4c-4.2,0-7.7-3.3-7.7-7.3s3.4-7.3,7.7-7.3
		c4.2,0,7.7,3.3,7.7,7.3S355.2,373.4,350.9,373.4"/>
	<path id="path861_4_" inkscape:connector-curvature="0" class="st25" d="M345.8,366.6c0-2.9,2.2-5.2,5.1-5.2c2.8,0,5.1,2.4,5.1,5.2
		c0,2.9-2.3,5.2-5.1,5.2C348.1,371.8,345.8,369.4,345.8,366.6"/>
	<path id="path7265_4_" inkscape:connector-curvature="0" d="M345.8,365.6c0-2.9,2.2-5.2,5.1-5.1c2.8,0,5.1,2.3,5.1,5.1
		c0,2.8-2.3,5.1-5.1,5.1S345.8,368.4,345.8,365.6"/>
</g>
<g id="layer1_4_" transform="translate(-53.216485,-90.5345)" inkscape:groupmode="layer" inkscape:label="Layer 1">
	<path id="path7705_3_" inkscape:connector-curvature="0" d="M238.1,286.5c0,5.5-4.4,9.9-9.9,9.9s-9.9-4.4-9.9-9.9s4.4-9.9,9.9-9.9
		S238.1,281,238.1,286.5"/>
	<path id="path7707_3_" inkscape:connector-curvature="0" class="st27" d="M233.8,286.5c0,3.1-2.5,5.6-5.6,5.6s-5.6-2.5-5.6-5.6
		s2.5-5.6,5.6-5.6S233.8,283.4,233.8,286.5"/>
	<path id="path7711_3_" inkscape:connector-curvature="0" class="st27" d="M229.1,276.6c-0.3,0-0.6,0-0.9,0c-0.4,0-0.7,0-1.1,0.1
		v4.5h2V276.6z"/>
</g>
<text transform="matrix(1 0 0 1 224.7775 336.0663)" class="st6 st7 st10">Weak</text>
<g id="layer1_71_" transform="translate(-46.755712,-68.824694)" inkscape:groupmode="layer" inkscape:label="Layer 1">
	<path id="path2706_5_" class="st28" d="M274.1,389.3c0-3.7,3-6.7,6.7-6.7l0,0c3.7,0,6.7,3,6.7,6.7l0,0c0,3.7-3,6.7-6.7,6.7l0,0
		C277.1,396,274.1,393,274.1,389.3L274.1,389.3z"/>
</g>
<g id="layer1_39_" transform="translate(-89.945866,-120.5333)" inkscape:groupmode="layer" inkscape:label="Layer 1">
	<path id="path7255_19_" inkscape:connector-curvature="0" class="st23" d="M179.9,422.8c-5.7,0-10.3-4.6-10.3-10.3
		c0-5.7,4.6-10.3,10.3-10.3s10.3,4.6,10.3,10.3S185.6,422.8,179.9,422.8"/>
	<path id="path7261_19_" inkscape:connector-curvature="0" class="st24" d="M179.9,420.5c-4.4,0-8-3.6-8-8s3.6-8,8-8s8,3.6,8,8
		C187.9,417,184.4,420.5,179.9,420.5"/>
	<path id="path1187_19_" inkscape:connector-curvature="0" class="st14" d="M179.9,420.4c-4.3,0-7.7-3.3-7.7-7.3s3.5-7.3,7.7-7.3
		c4.3,0,7.7,3.3,7.7,7.3S184.2,420.4,179.9,420.4"/>
	<path id="path861_19_" inkscape:connector-curvature="0" class="st25" d="M185.1,413.6c0,2.8-2.3,5.2-5.1,5.2s-5.1-2.3-5.1-5.2
		c0-2.8,2.3-5.2,5.1-5.2S185.1,410.7,185.1,413.6"/>
	<path id="path7265_19_" inkscape:connector-curvature="0" d="M185.1,412.6c0,2.8-2.3,5.1-5.1,5.1s-5.1-2.3-5.1-5.1
		c0-2.8,2.3-5.1,5.1-5.1C182.8,407.4,185.1,409.7,185.1,412.6"/>
</g>
<text transform="matrix(1 0 0 1 80.0559 313.8968)" class="st6 st7 st9">Sync</text>
<path class="st2" d="M281.5,171c-49.5,15.2-51.4-32.8-51.4-32.8"/>
<g id="layer1_77_" transform="translate(-53.216485,-90.5345)" inkscape:groupmode="layer" inkscape:label="Layer 1">
	<path id="path7705_28_" inkscape:connector-curvature="0" d="M296.3,262.6c0-5.4,4.4-9.9,9.9-9.9s9.9,4.4,9.9,9.9s-4.4,9.9-9.9,9.9
		S296.3,268.1,296.3,262.6"/>
	<path id="path7707_6_" inkscape:connector-curvature="0" class="st35" d="M300.6,262.6c0-3.1,2.5-5.6,5.6-5.6s5.6,2.5,5.6,5.6
		s-2.5,5.6-5.6,5.6S300.6,265.7,300.6,262.6"/>
	<path id="path7711_6_" inkscape:connector-curvature="0" class="st35" d="M305.3,257.4h2v-4.5c-0.4-0.1-0.7-0.1-1.1-0.1
		c-0.3,0-0.6,0-0.9,0V257.4z"/>
</g>
<g id="layer1_18_" transform="translate(-89.945866,-120.5333)" inkscape:groupmode="layer" inkscape:label="Layer 1">
	<path id="path7255_23_" inkscape:connector-curvature="0" class="st23" d="M371.4,301.8c-5.6,0-10.3-4.6-10.3-10.3
		s4.6-10.3,10.3-10.3s10.3,4.6,10.3,10.3C381.7,297.2,377.1,301.8,371.4,301.8"/>
	<path id="path7261_23_" inkscape:connector-curvature="0" class="st24" d="M371.4,299.5c-4.5,0-8-3.5-8-8c0-4.4,3.6-8,8-8
		s8,3.6,8,8S375.8,299.5,371.4,299.5"/>
	<path id="path1187_23_" inkscape:connector-curvature="0" class="st14" d="M371.4,299.4c-4.2,0-7.7-3.3-7.7-7.3s3.4-7.3,7.7-7.3
		c4.2,0,7.7,3.3,7.7,7.3S375.7,299.4,371.4,299.4"/>
	<path id="path861_23_" inkscape:connector-curvature="0" class="st25" d="M366.3,292.6c0-2.9,2.2-5.2,5.1-5.2
		c2.8,0,5.1,2.4,5.1,5.2c0,2.9-2.3,5.2-5.1,5.2S366.3,295.4,366.3,292.6"/>
	<path id="path7265_23_" inkscape:connector-curvature="0" d="M366.3,291.6c0-2.9,2.2-5.2,5.1-5.1c2.8,0,5.1,2.3,5.1,5.1
		c0,2.8-2.3,5.1-5.1,5.1S366.3,294.4,366.3,291.6"/>
</g>
<g id="layer1_40_" transform="translate(-46.557912,-86.649131)" inkscape:groupmode="layer" inkscape:label="Layer 1">
	<path id="path7697_1_" inkscape:connector-curvature="0" d="M260.7,224.6c0-8.7,7.1-15.8,15.9-15.9c8.8,0,15.9,7.1,15.9,15.9
		c0,8.8-7.1,15.9-15.9,15.9S260.7,233.4,260.7,224.6"/>
	<path id="path7699_1_" inkscape:connector-curvature="0" class="st35" d="M267.6,224.6c0-4.9,4-8.9,9-9c5,0,9,4.1,9,9c0,5-4,9-9,9
		S267.6,229.5,267.6,224.6"/>
	<path id="path7701_1_" inkscape:connector-curvature="0" class="st21" d="M264,224.6c0-6.9,5.6-12.5,12.6-12.6
		c7,0,12.6,5.7,12.6,12.6c0,7-5.7,12.6-12.6,12.6C269.6,237.2,264,231.5,264,224.6L264,224.6z"/>
	<path id="path7703_1_" inkscape:connector-curvature="0" class="st35" d="M275.1,216h3.2v-7.2c-0.6-0.1-1.2-0.1-1.8-0.1
		c-0.4,0-0.9,0.1-1.4,0.1C275.1,208.8,275.1,216,275.1,216z"/>
</g>
<path class="st2" d="M69.9,138c0,0-28-34-51.5-4.9"/>
<g id="layer1_79_" transform="translate(-53.216485,-90.5345)" inkscape:groupmode="layer" inkscape:label="Layer 1">
	<path id="path7705_11_" inkscape:connector-curvature="0" d="M105,212.5c0,5.5-4.4,9.9-9.9,9.9s-9.9-4.4-9.9-9.9s4.4-9.9,9.9-9.9
		S105,207.1,105,212.5"/>
	<path id="path7707_19_" inkscape:connector-curvature="0" class="st35" d="M100.7,212.5c0,3.1-2.5,5.6-5.6,5.6s-5.6-2.5-5.6-5.6
		s2.5-5.6,5.6-5.6S100.7,209.4,100.7,212.5"/>
	<path id="path7711_19_" inkscape:connector-curvature="0" class="st35" d="M96,202.7c-0.3,0-0.6,0-0.9,0c-0.4,0-0.7,0-1.1,0.1v4.5
		h2V202.7z"/>
</g>
<path class="st2" d="M69.8,138.2c0,0-1.9,47.9-51.4,32.8"/>
<g id="layer1_27_" transform="translate(-53.216485,-90.5345)" inkscape:groupmode="layer" inkscape:label="Layer 1">
	<path id="path7705_10_" inkscape:connector-curvature="0" d="M110,262.6c0,5.5-4.4,9.9-9.9,9.9s-9.9-4.4-9.9-9.9s4.4-9.9,9.9-9.9
		S110,257.2,110,262.6"/>
	<path id="path7707_18_" inkscape:connector-curvature="0" class="st35" d="M105.7,262.6c0,3.1-2.5,5.6-5.6,5.6s-5.6-2.5-5.6-5.6
		s2.5-5.6,5.6-5.6S105.7,259.5,105.7,262.6"/>
	<path id="path7711_18_" inkscape:connector-curvature="0" class="st35" d="M101,252.8c-0.3,0-0.6,0-0.9,0c-0.4,0-0.7,0-1.1,0.1v4.5
		h2V252.8z"/>
</g>
<g id="layer1_25_" transform="translate(-89.945866,-120.5333)" inkscape:groupmode="layer" inkscape:label="Layer 1">
	<path id="path7255_7_" inkscape:connector-curvature="0" class="st23" d="M108.4,301.8c-5.7,0-10.3-4.6-10.3-10.3
		c0-5.7,4.6-10.3,10.3-10.3s10.3,4.6,10.3,10.3S114,301.8,108.4,301.8"/>
	<path id="path7261_7_" inkscape:connector-curvature="0" class="st24" d="M108.4,299.5c-4.4,0-8-3.6-8-8s3.6-8,8-8s8,3.6,8,8
		C116.4,296,112.9,299.5,108.4,299.5"/>
	<path id="path1187_7_" inkscape:connector-curvature="0" class="st14" d="M108.4,299.4c-4.3,0-7.7-3.3-7.7-7.3s3.5-7.3,7.7-7.3
		c4.3,0,7.7,3.3,7.7,7.3S112.6,299.4,108.4,299.4"/>
	<path id="path861_7_" inkscape:connector-curvature="0" class="st25" d="M113.5,292.6c0,2.8-2.3,5.2-5.1,5.2s-5.1-2.3-5.1-5.2
		c0-2.8,2.3-5.2,5.1-5.2C111.3,287.4,113.5,289.7,113.5,292.6"/>
	<path id="path7265_7_" inkscape:connector-curvature="0" d="M113.5,291.6c0,2.8-2.3,5.1-5.1,5.1s-5.1-2.3-5.1-5.1
		c0-2.8,2.3-5.1,5.1-5.1C111.3,286.4,113.5,288.7,113.5,291.6"/>
</g>
<g id="layer1_9_" transform="translate(-46.557912,-86.649131)" inkscape:groupmode="layer" inkscape:label="Layer 1">
	<path id="path7697_2_" inkscape:connector-curvature="0" d="M132.4,224.6c0,8.8-7.1,15.9-15.9,15.9s-15.9-7.1-15.9-15.9
		c0-8.8,7.1-15.9,15.9-15.9C125.3,208.8,132.4,215.9,132.4,224.6"/>
	<path id="path7699_2_" inkscape:connector-curvature="0" class="st35" d="M125.5,224.6c0,4.9-4,9-9,9s-9-4-9-9c0-4.9,4-9,9-9
		C121.5,215.7,125.5,219.7,125.5,224.6"/>
	<path id="path7701_2_" inkscape:connector-curvature="0" class="st21" d="M129.1,224.6c0,6.9-5.6,12.6-12.6,12.6
		c-6.9,0-12.6-5.6-12.6-12.6c0-6.9,5.6-12.6,12.6-12.6C123.5,212.1,129.1,217.7,129.1,224.6L129.1,224.6z"/>
	<path id="path7703_2_" inkscape:connector-curvature="0" class="st35" d="M118,208.8c-0.5,0-1-0.1-1.4-0.1c-0.6,0-1.2,0-1.8,0.1
		v7.2h3.2C118,216,118,208.8,118,208.8z"/>
</g>
<g id="layer1_24_" transform="translate(-89.945866,-120.5333)" inkscape:groupmode="layer" inkscape:label="Layer 1">
	<path id="path7255_2_" inkscape:connector-curvature="0" class="st23" d="M108.4,263.8c-5.7,0-10.3-4.6-10.3-10.3
		s4.6-10.3,10.3-10.3c5.7,0,10.3,4.6,10.3,10.3C118.7,259.2,114,263.8,108.4,263.8"/>
	<path id="path7261_2_" inkscape:connector-curvature="0" class="st24" d="M108.4,261.5c-4.4,0-8-3.6-8-8s3.6-8,8-8s8,3.6,8,8
		C116.4,258,112.9,261.5,108.4,261.5"/>
	<path id="path1187_2_" inkscape:connector-curvature="0" class="st14" d="M108.4,261.4c-4.3,0-7.7-3.3-7.7-7.3s3.5-7.3,7.7-7.3
		c4.3,0,7.7,3.3,7.7,7.3C116.1,258.1,112.6,261.4,108.4,261.4"/>
	<path id="path861_2_" inkscape:connector-curvature="0" class="st25" d="M113.6,254.6c0,2.8-2.3,5.2-5.1,5.2
		c-2.8,0-5.1-2.3-5.1-5.2c0-2.8,2.3-5.2,5.1-5.2S113.6,251.7,113.6,254.6"/>
	<path id="path7265_2_" inkscape:connector-curvature="0" d="M113.6,253.6c0,3.5-3.6,6.2-7.3,4.6c-1.1-0.5-2-1.4-2.4-2.4
		c-1.6-3.7,1.1-7.3,4.6-7.3C111.3,248.4,113.6,250.7,113.6,253.6"/>
</g>
</svg>
