<?xml version="1.0" encoding="utf-8"?>
<!-- Generator: Adobe Illustrator 24.1.0, SVG Export Plug-In . SVG Version: 6.00 Build 0)  -->
<svg version="1.1"
	 id="svg8" xmlns:cc="http://creativecommons.org/ns#" xmlns:dc="http://purl.org/dc/elements/1.1/" xmlns:inkscape="http://www.inkscape.org/namespaces/inkscape" xmlns:rdf="http://www.w3.org/1999/02/22-rdf-syntax-ns#" xmlns:sodipodi="http://sodipodi.sourceforge.net/DTD/sodipodi-0.dtd" xmlns:svg="http://www.w3.org/2000/svg"
	 xmlns="http://www.w3.org/2000/svg" xmlns:xlink="http://www.w3.org/1999/xlink" x="0px" y="0px" viewBox="0 0 300 380"
	 style="enable-background:new 0 0 300 380;" xml:space="preserve">
<style type="text/css">
	.st0{fill:#282828;}
	.st1{fill:none;stroke:#FFB24A;stroke-width:2;stroke-miterlimit:10;}
	.st2{fill:none;stroke:#DA4061;stroke-width:2;stroke-miterlimit:10;}
	.st3{fill:none;stroke:#00A1A7;stroke-width:2;stroke-miterlimit:10;}
	.st4{fill:none;stroke:#8759A4;stroke-width:2;stroke-miterlimit:10;}
	.st5{fill:none;stroke:#FFFFFF;}
	.st6{fill:#FFFFFF;}
	.st7{font-family:'AlteDIN1451Mittelschrift';}
	.st8{font-size:18px;}
	.st9{font-size:10px;}
	.st10{font-size:8px;}
	.st11{fill:none;stroke:#8759A4;stroke-miterlimit:10;}
	.st12{fill:#E1E1E2;stroke:#818181;stroke-width:0.25;}
	.st13{fill:#F5F7F7;stroke:#343B3F;stroke-width:0.1323;}
	.st14{fill:#929A9E;}
	.st15{fill:#F5F7F7;}
	.st16{fill:#111111;stroke:#414042;stroke-miterlimit:10;}
	.st17{fill:#400002;}
	.st18{font-family:'DSEG14Classic-Italic';}
	.st19{fill:#FF0000;}
	.st20{fill:#8759A4;}
	.st21{fill:none;stroke:#636363;stroke-width:0.3;stroke-miterlimit:10;}
	.st22{fill:none;stroke:#FFFFFF;stroke-miterlimit:10;}
	.st23{fill:#636466;stroke:#000000;stroke-width:0.25;}
	.st24{fill:#D4D7D9;stroke:#343B3F;stroke-width:0.1323;}
	.st25{fill:#DEE4E5;}
	.st26{fill:none;stroke:#C0C0C0;stroke-miterlimit:10;}
	.st27{fill:#FFB24A;fill-opacity:0.9922;}
	.st28{fill:#3C3C3C;stroke:#000000;stroke-width:0.2;stroke-linecap:square;}
	.st29{fill:#00A1A7;}
	.st30{fill:#282828;stroke:#C0C0C0;stroke-miterlimit:10;}
	.st31{fill:#FFFFFF;fill-opacity:0.9922;}
	.st32{fill:none;stroke:#307DEE;stroke-width:2;stroke-miterlimit:10;}
	.st33{fill:#307DEE;}
	.st34{fill:#BE974A;fill-opacity:0.9922;}
	.st35{fill:#DA4061;}
</style>
<g id="layer1" transform="translate(0,-196.45831)" inkscape:groupmode="layer" inkscape:label="Layer 1">
	<rect id="rect1047" y="196.5" class="st0" width="300" height="380"/>
</g>
<path class="st1" d="M207,240.6c0-41.1-32-40.6-32-40.6"/>
<path class="st1" d="M189,258c-17.6-23.1-14-58-14-58"/>
<path class="st2" d="M94.3,148c0,0-16.3-2.1-24.4-10"/>
<path class="st3" d="M221,182c-29.8,1.9-29-17.1-29-17.1"/>
<path class="st2" d="M230,138c-8.1,7.9-24.4,10-24.4,10"/>
<path class="st4" d="M181.4,138.2c35.5-24.2-2.5-46.2-2.5-46.2"/>
<path class="st3" d="M108,164.9c0,0,0.8,19-29,17.1"/>
<defs>
	
		<inkscape:path-effect  apply_no_weight="true" apply_with_weight="true" effect="bspline" helper_size="0" id="path-effect2273" is_visible="true" only_selected="false" steps="2" weight="33.333333">
		</inkscape:path-effect>
	
		<inkscape:path-effect  apply_no_weight="true" apply_with_weight="true" effect="bspline" helper_size="0" id="path-effect2269" is_visible="true" only_selected="false" steps="2" weight="33.333333">
		</inkscape:path-effect>
</defs>
<sodipodi:namedview  bordercolor="#666666" borderopacity="1.0" id="base" inkscape:current-layer="layer1" inkscape:cx="76.012834" inkscape:cy="318.70973" inkscape:document-units="mm" inkscape:pageopacity="0.0" inkscape:pageshadow="2" inkscape:snap-bbox="true" inkscape:snap-global="true" inkscape:window-height="1006" inkscape:window-maximized="0" inkscape:window-width="1276" inkscape:window-x="641" inkscape:window-y="0" inkscape:zoom="5.656854" pagecolor="#ffffff" showgrid="true" showguides="false" units="px">
	<inkscape:grid  id="grid1092" type="xygrid"></inkscape:grid>
</sodipodi:namedview>
<path id="line161" class="st5" d="M0,24.5h300"/>
<path id="line163" class="st5" d="M0,356.5h300"/>
<text transform="matrix(1 0 0 1 127.4914 373.5106)" class="st6 st7 st8">Valley</text>
<text transform="matrix(1 0 0 1 107.8653 17.9062)" class="st6 st7 st8">Terrorform</text>
<text transform="matrix(1 0 0 1 79.2328 74.1336)" class="st6 st7 st9">Octave</text>
<text transform="matrix(1 0 0 1 6.0637 60.9038)" class="st6 st7 st9">VOct</text>
<text transform="matrix(1 0 0 1 275.0642 60.9038)" class="st6 st7 st9">VOct</text>
<text transform="matrix(1 0 0 1 135.4882 74.1336)" class="st6 st7 st9">Coarse</text>
<text transform="matrix(1 0 0 1 110.2724 117.0947)" class="st6 st7 st9">Bank</text>
<text transform="matrix(1 0 0 1 224.8785 351.6366)" class="st6 st7 st9">Out</text>
<text transform="matrix(1 0 0 1 195.7751 351.6366)" class="st6 st7 st9">Env.</text>
<text transform="matrix(1 0 0 1 131.9531 295.0002)" class="st6 st7 st10">Sync Mode</text>
<text transform="matrix(1 0 0 1 111.8532 180.4496)" class="st6 st7 st9">Attack</text>
<text transform="matrix(1 0 0 1 162.0711 180.4496)" class="st6 st7 st9">Decay</text>
<g>
	<text transform="matrix(0.7373 -0.6756 0.6756 0.7373 49.2148 227.5667)" class="st6 st7 st9">Type</text>
	<text transform="matrix(0.7373 -0.6756 0.6756 0.7373 36.4599 225.6912)" class="st6 st7 st9">Enhance</text>
</g>
<g>
	<text transform="matrix(0.7373 0.6756 -0.6756 0.7373 234.8461 212.8537)" class="st6 st7 st9">Depth</text>
	<text transform="matrix(0.7373 0.6756 -0.6756 0.7373 237.4476 201.6742)" class="st6 st7 st9">Enhance</text>
</g>
<text transform="matrix(1 0 0 1 167.733 117.0947)" class="st6 st7 st9">Wave</text>
<text transform="matrix(1 0 0 1 197.9476 74.1336)" class="st6 st7 st9">Fine</text>
<path class="st4" d="M120.8,92c0,0-38,22-2.5,46.2"/>
<path class="st11" d="M174,95"/>
<path class="st11" d="M231,74.8"/>
<g id="layer1_22_" transform="translate(-89.945866,-120.5333)" inkscape:groupmode="layer" inkscape:label="Layer 1">
	<path id="path7255_6_" inkscape:connector-curvature="0" class="st12" d="M321.9,461.8c-5.7,0-10.3-4.6-10.3-10.3
		c0-5.7,4.6-10.3,10.3-10.3s10.3,4.6,10.3,10.3C332.2,457.2,327.6,461.8,321.9,461.8"/>
	<path id="path7261_6_" inkscape:connector-curvature="0" class="st13" d="M321.9,459.5c-4.4,0-8-3.6-8-8s3.6-8,8-8s8,3.6,8,8
		S326.4,459.5,321.9,459.5"/>
	<path id="path1187_6_" inkscape:connector-curvature="0" class="st14" d="M321.9,459.3c-4.3,0-7.7-3.3-7.7-7.3s3.5-7.3,7.7-7.3
		s7.7,3.3,7.7,7.3C329.7,456.1,326.2,459.3,321.9,459.3"/>
	<path id="path861_6_" inkscape:connector-curvature="0" class="st15" d="M327.1,452.5c0,2.8-2.3,5.2-5.1,5.2s-5.1-2.3-5.1-5.2
		c0-2.8,2.3-5.2,5.1-5.2C324.8,447.4,327.1,449.7,327.1,452.5"/>
	<path id="path7265_6_" inkscape:connector-curvature="0" d="M327.1,451.5c0,2.8-2.3,5.1-5.1,5.1c-2.8,0-5.1-2.3-5.1-5.1
		s2.3-5.1,5.1-5.1S327.1,448.7,327.1,451.5"/>
</g>
<path id="rect75_2_" inkscape:connector-curvature="0" class="st16" d="M107,299h86v16h-86V299z"/>
<text transform="matrix(1 0 0 1 109.2 311.904)" class="st17 st18 st9">~~~~~~~~~~</text>
<text transform="matrix(1 0 0 1 109.1092 311.9043)" class="st19 st18 st9">!octave+1</text>
<path class="st4" d="M121,92c0,0-38.2,19.3-105.9,9.1"/>
<g id="layer1_16_" transform="translate(-53.216485,-90.5345)" inkscape:groupmode="layer" inkscape:label="Layer 1">
	<path id="path7705_5_" inkscape:connector-curvature="0" d="M130.1,194.5c0,5.5-4.4,9.9-9.9,9.9s-9.9-4.4-9.9-9.9s4.4-9.9,9.9-9.9
		S130.1,189.1,130.1,194.5"/>
	<path id="path7707_5_" inkscape:connector-curvature="0" class="st20" d="M125.8,194.5c0,3.1-2.5,5.6-5.6,5.6s-5.6-2.5-5.6-5.6
		s2.5-5.6,5.6-5.6S125.8,191.4,125.8,194.5"/>
	<path id="path7711_5_" inkscape:connector-curvature="0" class="st20" d="M121.1,184.7c-0.3,0-0.6,0-0.9,0c-0.4,0-0.7,0-1.1,0.1
		v4.5h2V184.7z"/>
</g>
<path class="st4" d="M120.8,92c0,0-30.3-21.2-105.8-16.9"/>
<g id="layer1_13_" transform="translate(-53.216485,-90.5345)" inkscape:groupmode="layer" inkscape:label="Layer 1">
	<path id="path7705_4_" inkscape:connector-curvature="0" d="M102.3,166.5c0-5.4,4.4-9.9,9.9-9.9s9.9,4.4,9.9,9.9s-4.4,9.9-9.9,9.9
		S102.3,172,102.3,166.5"/>
	<path id="path7707_4_" inkscape:connector-curvature="0" class="st20" d="M106.6,166.5c0-3.1,2.5-5.6,5.6-5.6s5.6,2.5,5.6,5.6
		s-2.5,5.6-5.6,5.6S106.6,169.6,106.6,166.5"/>
	<path id="path7711_4_" inkscape:connector-curvature="0" class="st20" d="M111.3,161.3h2v-4.5c-0.4-0.1-0.7-0.1-1.1-0.1
		c-0.3,0-0.6,0-0.9,0V161.3z"/>
</g>
<g id="layer1_6_" transform="translate(-47.888015,-88.626321)" inkscape:groupmode="layer" inkscape:label="Layer 1">
	<path id="path7689" inkscape:connector-curvature="0" d="M184.8,180.6c0,8.8-7.1,15.9-15.9,15.9c-8.8,0-15.9-7.1-15.9-15.9
		c0-8.8,7.1-15.9,15.9-15.9C177.7,164.8,184.8,171.9,184.8,180.6"/>
	<path id="path7691" inkscape:connector-curvature="0" class="st20" d="M177.8,180.6c0,4.9-4,9-9,9s-9-4-9-9c0-4.9,4-9,9-9
		C173.8,171.7,177.8,175.7,177.8,180.6"/>
	<path id="path7693" inkscape:connector-curvature="0" class="st21" d="M181.4,180.6c0,6.9-5.6,12.6-12.6,12.6
		c-6.9,0-12.6-5.6-12.6-12.6c0-6.9,5.6-12.6,12.6-12.6C175.8,168.1,181.4,173.7,181.4,180.6L181.4,180.6z"/>
	<path id="path7695" inkscape:connector-curvature="0" class="st20" d="M170.3,164.8c-0.5,0-1-0.1-1.4-0.1c-0.6,0-1.2,0-1.8,0.1v7.2
		h3.2V164.8z"/>
</g>
<text transform="matrix(1 0 0 1 9.0281 326.7419)" class="st6 st7 st9">FM</text>
<path class="st22" d="M201.1,287.7"/>
<text transform="matrix(1 0 0 1 53.0072 351.6364)" class="st6 st7 st9">Phasor</text>
<text transform="matrix(1 0 0 1 86.7273 351.6366)" class="st6 st7 st9">EOC</text>
<g id="layer1_48_" transform="translate(-89.945866,-120.5333)" inkscape:groupmode="layer" inkscape:label="Layer 1">
	<path id="path7255_20_" inkscape:connector-curvature="0" class="st12" d="M157.9,461.8c-5.7,0-10.3-4.6-10.3-10.3
		c0-5.7,4.6-10.3,10.3-10.3s10.3,4.6,10.3,10.3C168.2,457.2,163.6,461.8,157.9,461.8"/>
	<path id="path7261_20_" inkscape:connector-curvature="0" class="st13" d="M157.9,459.5c-4.4,0-8-3.6-8-8s3.6-8,8-8s8,3.6,8,8
		S162.4,459.5,157.9,459.5"/>
	<path id="path1187_20_" inkscape:connector-curvature="0" class="st14" d="M157.9,459.3c-4.3,0-7.7-3.3-7.7-7.3s3.5-7.3,7.7-7.3
		s7.7,3.3,7.7,7.3C165.7,456.1,162.2,459.3,157.9,459.3"/>
	<path id="path861_20_" inkscape:connector-curvature="0" class="st15" d="M163.1,452.5c0,2.8-2.3,5.2-5.1,5.2s-5.1-2.3-5.1-5.2
		c0-2.8,2.3-5.2,5.1-5.2C160.8,447.4,163.1,449.7,163.1,452.5"/>
	<path id="path7265_20_" inkscape:connector-curvature="0" d="M163.1,451.5c0,2.8-2.3,5.1-5.1,5.1s-5.1-2.3-5.1-5.1s2.3-5.1,5.1-5.1
		S163.1,448.7,163.1,451.5"/>
</g>
<g id="layer1_21_" transform="translate(-89.945866,-120.5333)" inkscape:groupmode="layer" inkscape:label="Layer 1">
	<path id="path7255_15_" inkscape:connector-curvature="0" class="st12" d="M185.3,461.8c-5.7,0-10.3-4.6-10.3-10.3
		c0-5.7,4.6-10.3,10.3-10.3s10.3,4.6,10.3,10.3C195.6,457.2,191,461.8,185.3,461.8"/>
	<path id="path7261_15_" inkscape:connector-curvature="0" class="st13" d="M185.3,459.5c-4.4,0-8-3.6-8-8s3.6-8,8-8s8,3.6,8,8
		S189.8,459.5,185.3,459.5"/>
	<path id="path1187_15_" inkscape:connector-curvature="0" class="st14" d="M185.3,459.3c-4.3,0-7.7-3.3-7.7-7.3s3.5-7.3,7.7-7.3
		s7.7,3.3,7.7,7.3C193.1,456.1,189.6,459.3,185.3,459.3"/>
	<path id="path861_15_" inkscape:connector-curvature="0" class="st15" d="M190.5,452.5c0,2.8-2.3,5.2-5.1,5.2s-5.1-2.3-5.1-5.2
		c0-2.8,2.3-5.2,5.1-5.2C188.2,447.4,190.5,449.7,190.5,452.5"/>
	<path id="path7265_15_" inkscape:connector-curvature="0" d="M190.5,451.5c0,2.8-2.3,5.1-5.1,5.1s-5.1-2.3-5.1-5.1s2.3-5.1,5.1-5.1
		S190.5,448.7,190.5,451.5"/>
</g>
<g id="layer1_62_" transform="translate(-89.945866,-120.5333)" inkscape:groupmode="layer" inkscape:label="Layer 1">
	<path id="path7255_28_" inkscape:connector-curvature="0" class="st12" d="M294.6,461.8c-5.7,0-10.3-4.6-10.3-10.3
		c0-5.7,4.6-10.3,10.3-10.3c5.7,0,10.3,4.6,10.3,10.3C304.9,457.2,300.3,461.8,294.6,461.8"/>
	<path id="path7261_28_" inkscape:connector-curvature="0" class="st13" d="M294.6,459.5c-4.4,0-8-3.6-8-8s3.6-8,8-8s8,3.6,8,8
		S299.1,459.5,294.6,459.5"/>
	<path id="path1187_28_" inkscape:connector-curvature="0" class="st14" d="M294.6,459.3c-4.3,0-7.7-3.3-7.7-7.3s3.5-7.3,7.7-7.3
		s7.7,3.3,7.7,7.3C302.4,456.1,298.9,459.3,294.6,459.3"/>
	<path id="path861_28_" inkscape:connector-curvature="0" class="st15" d="M299.8,452.5c0,2.8-2.3,5.2-5.1,5.2
		c-2.8,0-5.1-2.3-5.1-5.2c0-2.8,2.3-5.2,5.1-5.2C297.5,447.4,299.8,449.7,299.8,452.5"/>
	<path id="path7265_28_" inkscape:connector-curvature="0" d="M299.8,451.5c0,2.8-2.3,5.1-5.1,5.1c-2.8,0-5.1-2.3-5.1-5.1
		s2.3-5.1,5.1-5.1S299.8,448.7,299.8,451.5"/>
</g>
<text transform="matrix(1 0 0 1 164.3326 351.637)" class="st6 st7 st9">Enhnc</text>
<g id="layer1_49_" transform="translate(-89.945866,-120.5333)" inkscape:groupmode="layer" inkscape:label="Layer 1">
	<path id="path7255_10_" inkscape:connector-curvature="0" class="st12" d="M267.3,461.7c-5.7,0-10.3-4.6-10.3-10.3
		c0-5.7,4.6-10.3,10.3-10.3c5.7,0,10.3,4.6,10.3,10.3S273,461.7,267.3,461.7"/>
	<path id="path7261_10_" inkscape:connector-curvature="0" class="st13" d="M267.3,459.4c-4.4,0-8-3.6-8-8s3.6-8,8-8s8,3.6,8,8
		S271.8,459.4,267.3,459.4"/>
	<path id="path1187_10_" inkscape:connector-curvature="0" class="st14" d="M267.3,459.2c-4.3,0-7.7-3.3-7.7-7.3s3.5-7.3,7.7-7.3
		s7.7,3.3,7.7,7.3C275.1,456,271.6,459.2,267.3,459.2"/>
	<path id="path861_10_" inkscape:connector-curvature="0" class="st15" d="M272.5,452.4c0,2.8-2.3,5.2-5.1,5.2
		c-2.8,0-5.1-2.3-5.1-5.2c0-2.8,2.3-5.2,5.1-5.2C270.2,447.3,272.5,449.6,272.5,452.4"/>
	<path id="path7265_10_" inkscape:connector-curvature="0" d="M272.5,451.4c0,2.8-2.3,5.1-5.1,5.1c-2.8,0-5.1-2.3-5.1-5.1
		s2.3-5.1,5.1-5.1S272.5,448.6,272.5,451.4"/>
</g>
<text transform="matrix(1 0 0 1 140.9402 351.637)" class="st6 st7 st9">Raw</text>
<g id="layer1_73_" transform="translate(-89.945866,-120.5333)" inkscape:groupmode="layer" inkscape:label="Layer 1">
	<path id="path7255_26_" inkscape:connector-curvature="0" class="st12" d="M239.9,461.7c-5.7,0-10.3-4.6-10.3-10.3
		c0-5.7,4.6-10.3,10.3-10.3s10.3,4.6,10.3,10.3S245.6,461.7,239.9,461.7"/>
	<path id="path7261_26_" inkscape:connector-curvature="0" class="st13" d="M239.9,459.4c-4.4,0-8-3.6-8-8s3.6-8,8-8s8,3.6,8,8
		S244.4,459.4,239.9,459.4"/>
	<path id="path1187_26_" inkscape:connector-curvature="0" class="st14" d="M239.9,459.2c-4.3,0-7.7-3.3-7.7-7.3s3.5-7.3,7.7-7.3
		s7.7,3.3,7.7,7.3C247.7,456,244.2,459.2,239.9,459.2"/>
	<path id="path861_26_" inkscape:connector-curvature="0" class="st15" d="M245.1,452.4c0,2.8-2.3,5.2-5.1,5.2s-5.1-2.3-5.1-5.2
		c0-2.8,2.3-5.2,5.1-5.2C242.8,447.3,245.1,449.6,245.1,452.4"/>
	<path id="path7265_26_" inkscape:connector-curvature="0" d="M245.1,451.4c0,2.8-2.3,5.1-5.1,5.1s-5.1-2.3-5.1-5.1s2.3-5.1,5.1-5.1
		S245.1,448.6,245.1,451.4"/>
</g>
<text transform="matrix(1 0 0 1 109.5144 351.5735)" class="st6 st7 st9">Shapd</text>
<g id="layer1_34_" transform="translate(-89.945866,-120.5333)" inkscape:groupmode="layer" inkscape:label="Layer 1">
	<path id="path7255_16_" inkscape:connector-curvature="0" class="st12" d="M212.6,461.7c-5.7,0-10.3-4.6-10.3-10.3
		c0-5.7,4.6-10.3,10.3-10.3s10.3,4.6,10.3,10.3S218.3,461.7,212.6,461.7"/>
	<path id="path7261_16_" inkscape:connector-curvature="0" class="st13" d="M212.6,459.4c-4.4,0-8-3.6-8-8s3.6-8,8-8s8,3.6,8,8
		S217.1,459.4,212.6,459.4"/>
	<path id="path1187_16_" inkscape:connector-curvature="0" class="st14" d="M212.6,459.2c-4.3,0-7.7-3.3-7.7-7.3s3.5-7.3,7.7-7.3
		s7.7,3.3,7.7,7.3C220.4,456,216.9,459.2,212.6,459.2"/>
	<path id="path861_16_" inkscape:connector-curvature="0" class="st15" d="M217.8,452.4c0,2.8-2.3,5.2-5.1,5.2s-5.1-2.3-5.1-5.2
		c0-2.8,2.3-5.2,5.1-5.2C215.5,447.3,217.8,449.6,217.8,452.4"/>
	<path id="path7265_16_" inkscape:connector-curvature="0" d="M217.8,451.4c0,2.8-2.3,5.1-5.1,5.1s-5.1-2.3-5.1-5.1s2.3-5.1,5.1-5.1
		S217.8,448.6,217.8,451.4"/>
</g>
<g id="layer1_44_" transform="translate(-89.945866,-120.5333)" inkscape:groupmode="layer" inkscape:label="Layer 1">
	<path id="path7255_17_" inkscape:connector-curvature="0" class="st23" d="M104.9,231.8c-5.7,0-10.3-4.6-10.3-10.3
		s4.6-10.3,10.3-10.3c5.7,0,10.3,4.6,10.3,10.3S110.6,231.8,104.9,231.8"/>
	<path id="path7261_17_" inkscape:connector-curvature="0" class="st24" d="M104.9,229.5c-4.4,0-8-3.6-8-8s3.6-8,8-8s8,3.6,8,8
		C112.9,226,109.4,229.5,104.9,229.5"/>
	<path id="path1187_17_" inkscape:connector-curvature="0" class="st14" d="M104.9,229.4c-4.3,0-7.7-3.3-7.7-7.3s3.5-7.3,7.7-7.3
		c4.3,0,7.7,3.3,7.7,7.3S109.2,229.4,104.9,229.4"/>
	<path id="path861_17_" inkscape:connector-curvature="0" class="st25" d="M110.1,222.6c0,2.8-2.3,5.2-5.1,5.2
		c-2.8,0-5.1-2.3-5.1-5.2c0-2.8,2.3-5.2,5.1-5.2C107.8,217.4,110.1,219.7,110.1,222.6"/>
	<path id="path7265_17_" inkscape:connector-curvature="0" d="M110.1,221.6c0,2.8-2.3,5.1-5.1,5.1s-5.1-2.3-5.1-5.1s2.3-5.1,5.1-5.1
		C107.8,216.4,110.1,218.7,110.1,221.6"/>
</g>
<g id="layer1_15_" transform="translate(-89.945866,-120.5333)" inkscape:groupmode="layer" inkscape:label="Layer 1">
	<path id="path7255_3_" inkscape:connector-curvature="0" class="st23" d="M104.9,205.8c-5.7,0-10.3-4.6-10.3-10.3
		s4.6-10.3,10.3-10.3c5.7,0,10.3,4.6,10.3,10.3S110.6,205.8,104.9,205.8"/>
	<path id="path7261_3_" inkscape:connector-curvature="0" class="st24" d="M104.9,203.5c-4.4,0-8-3.6-8-8s3.6-8,8-8s8,3.6,8,8
		C112.9,200,109.4,203.5,104.9,203.5"/>
	<path id="path1187_3_" inkscape:connector-curvature="0" class="st14" d="M104.9,203.4c-4.3,0-7.7-3.3-7.7-7.3s3.5-7.3,7.7-7.3
		c4.3,0,7.7,3.3,7.7,7.3S109.2,203.4,104.9,203.4"/>
	<path id="path861_3_" inkscape:connector-curvature="0" class="st25" d="M110.1,196.6c0,2.8-2.3,5.2-5.1,5.2s-5.1-2.3-5.1-5.2
		c0-2.8,2.3-5.2,5.1-5.2C107.8,191.4,110.1,193.7,110.1,196.6"/>
	<path id="path7265_3_" inkscape:connector-curvature="0" d="M110.1,195.6c0,2.8-2.3,5.1-5.1,5.1s-5.1-2.3-5.1-5.1s2.3-5.1,5.1-5.1
		C107.8,190.4,110.1,192.7,110.1,195.6"/>
</g>
<text transform="matrix(1 0 0 1 6.7283 292.8593)" class="st6 st7 st9">VCA</text>
<text transform="matrix(1 0 0 1 277.9504 326.7419)" class="st6 st7 st9">FM</text>
<text transform="matrix(1 0 0 1 275.6506 292.8593)" class="st6 st7 st9">VCA</text>
<path id="rect75_1_" inkscape:connector-curvature="0" class="st16" d="M94.4,127.1h111.2v41.8H94.4V127.1z"/>
<text transform="matrix(1 0 0 1 96.9607 166.0648)" class="st17 st18 st9">~~~~~~~~~~~~~</text>
<text transform="matrix(1 0 0 1 96.9602 166.0649)" class="st19 st18 st9">BITCRUSH!!!15</text>
<text transform="matrix(1 0 0 1 96.9604 140.3584)" class="st17 st18 st9">~~~~~~~~~~~~~</text>
<text transform="matrix(1 0 0 1 96.9602 140.3584)" class="st19 st18 st9">VOICE_1!!!100</text>
<text transform="matrix(1 0 0 1 96.9602 153.2116)" class="st17 st18 st9">~~~~~~~~~~~~~</text>
<text transform="matrix(1 0 0 1 96.9602 153.2116)" class="st19 st18 st9">TWIST!!!!!!47</text>
<path class="st1" d="M125,200c0,0-32-1.2-32,40"/>
<path class="st1" d="M125,200c0,0,3.7,35-13.9,58.1"/>
<path class="st26" d="M179,240.8"/>
<path class="st26" d="M150.1,229.7"/>
<g id="layer1_50_" transform="translate(-89.945866,-120.5333)" inkscape:groupmode="layer" inkscape:label="Layer 1">
	<path id="path7255_21_" inkscape:connector-curvature="0" class="st23" d="M182.9,370.8c-5.7,0-10.3-4.6-10.3-10.3
		c0-5.7,4.6-10.3,10.3-10.3s10.3,4.6,10.3,10.3S188.6,370.8,182.9,370.8"/>
	<path id="path7261_21_" inkscape:connector-curvature="0" class="st24" d="M182.9,368.5c-4.4,0-8-3.6-8-8s3.6-8,8-8s8,3.6,8,8
		C190.9,365,187.4,368.5,182.9,368.5"/>
	<path id="path1187_21_" inkscape:connector-curvature="0" class="st14" d="M182.9,368.4c-4.3,0-7.7-3.3-7.7-7.3s3.5-7.3,7.7-7.3
		c4.3,0,7.7,3.3,7.7,7.3S187.2,368.4,182.9,368.4"/>
	<path id="path861_21_" inkscape:connector-curvature="0" class="st25" d="M188.1,361.6c0,2.8-2.3,5.2-5.1,5.2s-5.1-2.3-5.1-5.2
		c0-2.8,2.3-5.2,5.1-5.2S188.1,358.7,188.1,361.6"/>
	<path id="path7265_21_" inkscape:connector-curvature="0" d="M188.1,360.6c0,2.8-2.3,5.1-5.1,5.1s-5.1-2.3-5.1-5.1
		c0-2.8,2.3-5.1,5.1-5.1C185.8,355.4,188.1,357.7,188.1,360.6"/>
</g>
<g id="layer1_54_" transform="translate(-53.216485,-90.5345)" inkscape:groupmode="layer" inkscape:label="Layer 1">
	<path id="path7705_21_" inkscape:connector-curvature="0" d="M142.3,305.5c0-5.5,4.4-9.9,9.9-9.9s9.9,4.4,9.9,9.9s-4.4,9.9-9.9,9.9
		S142.3,311,142.3,305.5"/>
	<path id="path7707_17_" inkscape:connector-curvature="0" class="st27" d="M146.6,305.5c0-3.1,2.5-5.6,5.6-5.6s5.6,2.5,5.6,5.6
		s-2.5,5.6-5.6,5.6S146.6,308.6,146.6,305.5"/>
	<path id="path7711_17_" inkscape:connector-curvature="0" class="st27" d="M151.3,300.2h2v-4.5c-0.4-0.1-0.7-0.1-1.1-0.1
		c-0.3,0-0.6,0-0.9,0V300.2z"/>
</g>
<g id="layer1_33_" transform="translate(-89.945866,-120.5333)" inkscape:groupmode="layer" inkscape:label="Layer 1">
	<path id="path7255_11_" inkscape:connector-curvature="0" class="st23" d="M201.9,387.8c-5.7,0-10.3-4.6-10.3-10.3
		c0-5.7,4.6-10.3,10.3-10.3s10.3,4.6,10.3,10.3S207.6,387.8,201.9,387.8"/>
	<path id="path7261_11_" inkscape:connector-curvature="0" class="st24" d="M201.9,385.5c-4.4,0-8-3.6-8-8s3.6-8,8-8s8,3.6,8,8
		C209.9,382,206.4,385.5,201.9,385.5"/>
	<path id="path1187_11_" inkscape:connector-curvature="0" class="st14" d="M201.9,385.4c-4.3,0-7.7-3.3-7.7-7.3s3.5-7.3,7.7-7.3
		c4.3,0,7.7,3.3,7.7,7.3S206.2,385.4,201.9,385.4"/>
	<path id="path861_11_" inkscape:connector-curvature="0" class="st25" d="M207.1,378.6c0,2.8-2.3,5.2-5.1,5.2s-5.1-2.3-5.1-5.2
		c0-2.8,2.3-5.2,5.1-5.2S207.1,375.7,207.1,378.6"/>
	<path id="path7265_11_" inkscape:connector-curvature="0" d="M207.1,377.6c0,2.8-2.3,5.1-5.1,5.1s-5.1-2.3-5.1-5.1
		c0-2.8,2.3-5.1,5.1-5.1C204.8,372.4,207.1,374.7,207.1,377.6"/>
</g>
<g id="layer1_32_" transform="translate(-53.216485,-90.5345)" inkscape:groupmode="layer" inkscape:label="Layer 1">
	<path id="path7705_13_" inkscape:connector-curvature="0" d="M165.3,324.5c0-5.5,4.4-9.9,9.9-9.9s9.9,4.4,9.9,9.9s-4.4,9.9-9.9,9.9
		S165.3,330,165.3,324.5"/>
	<path id="path7707_12_" inkscape:connector-curvature="0" class="st27" d="M169.6,324.5c0-3.1,2.5-5.6,5.6-5.6s5.6,2.5,5.6,5.6
		s-2.5,5.6-5.6,5.6S169.6,327.6,169.6,324.5"/>
	<path id="path7711_12_" inkscape:connector-curvature="0" class="st27" d="M174.3,319.2h2v-4.5c-0.4-0.1-0.7-0.1-1.1-0.1
		c-0.3,0-0.6,0-0.9,0V319.2z"/>
</g>
<text transform="matrix(1 0 0 1 142.0156 113.646)" class="st6 st7 st10">User</text>
<g id="layer1_75_" transform="translate(-46.755712,-68.824694)" inkscape:groupmode="layer" inkscape:label="Layer 1">
	<path id="path2706_6_" class="st28" d="M203.5,166.8c0,3.7-3,6.7-6.7,6.7l0,0c-3.7,0-6.7-3-6.7-6.7l0,0c0-3.7,3-6.7,6.7-6.7l0,0
		C200.5,160.1,203.5,163.1,203.5,166.8L203.5,166.8z"/>
</g>
<path class="st3" d="M77.6,182c0,0-43.5-3.7-62.5,45"/>
<path class="st3" d="M78.8,182c0,0,11.5,59.1-39.8,67"/>
<path class="st26" d="M71.5,248.4c0,0-5.2,91.2-56.5,90.6"/>
<path class="st26" d="M66,282c0,0-8.4,25-51,25"/>
<path class="st26" d="M71.5,248.4c0,0-13.7,48.2-56.4,22.7"/>
<g id="layer1_30_" transform="translate(-89.945866,-120.5333)" inkscape:groupmode="layer" inkscape:label="Layer 1">
	<path id="path7255_8_" inkscape:connector-curvature="0" class="st23" d="M104.9,357.8c-5.7,0-10.3-4.6-10.3-10.3
		c0-5.7,4.6-10.3,10.3-10.3c5.7,0,10.3,4.6,10.3,10.3S110.5,357.8,104.9,357.8"/>
	<path id="path7261_8_" inkscape:connector-curvature="0" class="st24" d="M104.9,355.5c-4.4,0-8-3.6-8-8s3.6-8,8-8s8,3.6,8,8
		C112.9,352,109.4,355.5,104.9,355.5"/>
	<path id="path1187_8_" inkscape:connector-curvature="0" class="st14" d="M104.9,355.4c-4.3,0-7.7-3.3-7.7-7.3s3.5-7.3,7.7-7.3
		c4.3,0,7.7,3.3,7.7,7.3S109.1,355.4,104.9,355.4"/>
	<path id="path861_8_" inkscape:connector-curvature="0" class="st25" d="M110,348.6c0,2.8-2.3,5.2-5.1,5.2c-2.8,0-5.1-2.3-5.1-5.2
		c0-2.8,2.3-5.2,5.1-5.2C107.8,343.4,110,345.7,110,348.6"/>
	<path id="path7265_8_" inkscape:connector-curvature="0" d="M110,347.6c0,2.8-2.3,5.1-5.1,5.1s-5.1-2.3-5.1-5.1
		c0-2.8,2.3-5.1,5.1-5.1C107.8,342.4,110,344.7,110,347.6"/>
</g>
<g id="layer1_7_" transform="translate(-47.888015,-88.626321)" inkscape:groupmode="layer" inkscape:label="Layer 1">
	<path id="path7689_2_" inkscape:connector-curvature="0" d="M142.8,270.6c0,8.8-7.1,15.9-15.9,15.9s-15.9-7.1-15.9-15.9
		s7.1-15.9,15.9-15.9C135.7,254.8,142.8,261.9,142.8,270.6"/>
	<path id="path7691_2_" inkscape:connector-curvature="0" class="st29" d="M135.8,270.6c0,4.9-4,9-9,9s-9-4-9-9c0-4.9,4-9,9-9
		C131.8,261.7,135.8,265.7,135.8,270.6"/>
	<path id="path7693_2_" inkscape:connector-curvature="0" class="st21" d="M139.4,270.6c0,6.9-5.6,12.6-12.6,12.6
		c-6.9,0-12.6-5.6-12.6-12.6c0-6.9,5.6-12.6,12.6-12.6C133.8,258.1,139.4,263.7,139.4,270.6L139.4,270.6z"/>
	<path id="path7695_2_" inkscape:connector-curvature="0" class="st29" d="M128.3,254.8c-0.5,0-1-0.1-1.4-0.1c-0.6,0-1.2,0-1.8,0.1
		v7.2h3.2V254.8z"/>
</g>
<g id="layer1_4_" transform="translate(-47.888015,-88.626321)" inkscape:groupmode="layer" inkscape:label="Layer 1">
	<path id="path7689_4_" inkscape:connector-curvature="0" d="M188.8,288.6c0,8.8-7.1,15.9-15.9,15.9c-8.8,0-15.9-7.1-15.9-15.9
		s7.1-15.9,15.9-15.9C181.7,272.8,188.8,279.9,188.8,288.6"/>
	<path id="path7691_4_" inkscape:connector-curvature="0" class="st27" d="M181.8,288.6c0,4.9-4,9-9,9s-9-4-9-9c0-4.9,4-9,9-9
		C177.8,279.7,181.8,283.7,181.8,288.6"/>
	<path id="path7693_4_" inkscape:connector-curvature="0" class="st21" d="M185.4,288.6c0,6.9-5.6,12.6-12.6,12.6
		c-6.9,0-12.6-5.6-12.6-12.6c0-6.9,5.6-12.6,12.6-12.6C179.8,276.1,185.4,281.7,185.4,288.6L185.4,288.6z"/>
	<path id="path7695_4_" inkscape:connector-curvature="0" class="st27" d="M174.3,272.8c-0.5,0-1-0.1-1.4-0.1c-0.6,0-1.2,0-1.8,0.1
		v7.2h3.2V272.8z"/>
</g>
<g id="layer1_45_" transform="translate(-47.888015,-88.626321)" inkscape:groupmode="layer" inkscape:label="Layer 1">
	<path id="path7689_5_" inkscape:connector-curvature="0" d="M238.8,288.6c0,8.8-7.1,15.9-15.9,15.9c-8.8,0-15.9-7.1-15.9-15.9
		s7.1-15.9,15.9-15.9C231.7,272.8,238.8,279.9,238.8,288.6"/>
	<path id="path7691_5_" inkscape:connector-curvature="0" class="st27" d="M231.8,288.6c0,4.9-4,9-9,9s-9-4-9-9c0-4.9,4-9,9-9
		C227.8,279.7,231.8,283.7,231.8,288.6"/>
	<path id="path7693_5_" inkscape:connector-curvature="0" class="st21" d="M235.4,288.6c0,6.9-5.6,12.6-12.6,12.6
		c-6.9,0-12.6-5.6-12.6-12.6c0-6.9,5.6-12.6,12.6-12.6C229.8,276.1,235.4,281.7,235.4,288.6L235.4,288.6z"/>
	<path id="path7695_5_" inkscape:connector-curvature="0" class="st27" d="M224.3,272.8c-0.5,0-1-0.1-1.4-0.1c-0.6,0-1.2,0-1.8,0.1
		v7.2h3.2V272.8z"/>
</g>
<g id="layer1_46_" transform="translate(-53.216485,-90.5345)" inkscape:groupmode="layer" inkscape:label="Layer 1">
	<path id="path7705_17_" inkscape:connector-curvature="0" d="M100.1,288.5c0,5.5-4.4,9.9-9.9,9.9s-9.9-4.4-9.9-9.9s4.4-9.9,9.9-9.9
		S100.1,283.1,100.1,288.5"/>
	<path id="path7707_26_" inkscape:connector-curvature="0" class="st29" d="M95.8,288.5c0,3.1-2.5,5.6-5.6,5.6s-5.6-2.5-5.6-5.6
		s2.5-5.6,5.6-5.6S95.8,285.4,95.8,288.5"/>
	<path id="path7711_26_" inkscape:connector-curvature="0" class="st29" d="M91.1,278.7c-0.3,0-0.6,0-0.9,0c-0.4,0-0.7,0-1.1,0.1
		v4.5h2V278.7z"/>
</g>
<g id="layer1_29_" transform="translate(-53.216485,-90.5345)" inkscape:groupmode="layer" inkscape:label="Layer 1">
	<path id="path7705_12_" inkscape:connector-curvature="0" d="M137.8,314.1c0,5.5-4.4,9.9-9.9,9.9s-9.9-4.4-9.9-9.9s4.4-9.9,9.9-9.9
		C133.4,304.2,137.8,308.7,137.8,314.1"/>
	<path id="path7707_11_" inkscape:connector-curvature="0" class="st29" d="M133.5,314.1c0,3.1-2.5,5.6-5.6,5.6s-5.6-2.5-5.6-5.6
		s2.5-5.6,5.6-5.6S133.5,311,133.5,314.1"/>
	<path id="path7711_11_" inkscape:connector-curvature="0" class="st29" d="M128.8,304.3c-0.3,0-0.6,0-0.9,0c-0.4,0-0.7,0-1.1,0.1
		v4.5h2V304.3z"/>
</g>
<g id="layer1_31_" transform="translate(-89.945866,-120.5333)" inkscape:groupmode="layer" inkscape:label="Layer 1">
	<path id="path7255_9_" inkscape:connector-curvature="0" class="st23" d="M128.9,379.8c-5.7,0-10.3-4.6-10.3-10.3
		c0-5.7,4.6-10.3,10.3-10.3c5.7,0,10.3,4.6,10.3,10.3S134.5,379.8,128.9,379.8"/>
	<path id="path7261_9_" inkscape:connector-curvature="0" class="st24" d="M128.9,377.5c-4.4,0-8-3.6-8-8s3.6-8,8-8c4.4,0,8,3.6,8,8
		C136.9,374,133.4,377.5,128.9,377.5"/>
	<path id="path1187_9_" inkscape:connector-curvature="0" class="st14" d="M128.9,377.4c-4.3,0-7.7-3.3-7.7-7.3s3.5-7.3,7.7-7.3
		c4.3,0,7.7,3.3,7.7,7.3S133.1,377.4,128.9,377.4"/>
	<path id="path861_9_" inkscape:connector-curvature="0" class="st25" d="M134,370.6c0,2.8-2.3,5.2-5.1,5.2s-5.1-2.3-5.1-5.2
		c0-2.8,2.3-5.2,5.1-5.2C131.8,365.4,134,367.7,134,370.6"/>
	<path id="path7265_9_" inkscape:connector-curvature="0" d="M134,369.6c0,2.8-2.3,5.1-5.1,5.1s-5.1-2.3-5.1-5.1
		c0-2.8,2.3-5.1,5.1-5.1C131.8,364.4,134,366.7,134,369.6"/>
</g>
<g>
	<circle class="st30" cx="66" cy="282" r="5.5"/>
	<line class="st26" x1="66" y1="287.4" x2="66" y2="276.5"/>
	<line class="st26" x1="60.5" y1="282" x2="71.5" y2="282"/>
</g>
<g id="layer1_14_" transform="translate(-53.216485,-90.5345)" inkscape:groupmode="layer" inkscape:label="Layer 1">
	<path id="path7705_7_" inkscape:connector-curvature="0" d="M106.1,418.5c0,5.5-4.4,9.9-9.9,9.9s-9.9-4.4-9.9-9.9s4.4-9.9,9.9-9.9
		S106.1,413,106.1,418.5"/>
	<path id="path7707_7_" inkscape:connector-curvature="0" class="st31" d="M101.8,418.5c0,3.1-2.5,5.6-5.6,5.6s-5.6-2.5-5.6-5.6
		s2.5-5.6,5.6-5.6S101.8,415.4,101.8,418.5"/>
	<path id="path7711_7_" inkscape:connector-curvature="0" class="st31" d="M97.1,408.6c-0.3,0-0.6,0-0.9,0c-0.4,0-0.7,0-1.1,0.1v4.5
		h2V408.6z"/>
</g>
<g id="layer1_37_" transform="translate(-89.945866,-120.5333)" inkscape:groupmode="layer" inkscape:label="Layer 1">
	<path id="path7255_14_" inkscape:connector-curvature="0" class="st23" d="M104.9,469.8c-5.7,0-10.3-4.6-10.3-10.3
		c0-5.7,4.6-10.3,10.3-10.3s10.3,4.6,10.3,10.3S110.6,469.8,104.9,469.8"/>
	<path id="path7261_14_" inkscape:connector-curvature="0" class="st24" d="M104.9,467.5c-4.4,0-8-3.6-8-8s3.6-8,8-8s8,3.6,8,8
		C112.9,464,109.4,467.5,104.9,467.5"/>
	<path id="path1187_14_" inkscape:connector-curvature="0" class="st14" d="M104.9,467.4c-4.3,0-7.7-3.3-7.7-7.3s3.5-7.3,7.7-7.3
		c4.3,0,7.7,3.3,7.7,7.3S109.2,467.4,104.9,467.4"/>
	<path id="path861_14_" inkscape:connector-curvature="0" class="st25" d="M110.1,460.6c0,2.8-2.3,5.2-5.1,5.2s-5.1-2.3-5.1-5.2
		c0-2.8,2.3-5.2,5.1-5.2S110.1,457.7,110.1,460.6"/>
	<path id="path7265_14_" inkscape:connector-curvature="0" d="M110.1,459.6c0,2.8-2.3,5.1-5.1,5.1s-5.1-2.3-5.1-5.1
		c0-2.8,2.3-5.1,5.1-5.1C107.8,454.4,110.1,456.7,110.1,459.6"/>
</g>
<g id="layer1_26_" transform="translate(-53.216485,-90.5345)" inkscape:groupmode="layer" inkscape:label="Layer 1">
	<path id="path7705_8_" inkscape:connector-curvature="0" d="M106.1,393.5c0,5.5-4.4,9.9-9.9,9.9s-9.9-4.4-9.9-9.9s4.4-9.9,9.9-9.9
		S106.1,388,106.1,393.5"/>
	<path id="path7707_8_" inkscape:connector-curvature="0" class="st31" d="M101.8,393.5c0,3.1-2.5,5.6-5.6,5.6s-5.6-2.5-5.6-5.6
		s2.5-5.6,5.6-5.6S101.8,390.4,101.8,393.5"/>
	<path id="path7711_8_" inkscape:connector-curvature="0" class="st31" d="M97.1,383.6c-0.3,0-0.6,0-0.9,0c-0.4,0-0.7,0-1.1,0.1v4.5
		h2V383.6z"/>
</g>
<g id="layer1_35_" transform="translate(-89.945866,-120.5333)" inkscape:groupmode="layer" inkscape:label="Layer 1">
	<path id="path7255_13_" inkscape:connector-curvature="0" class="st23" d="M104.9,437.7c-5.7,0-10.3-4.6-10.3-10.3
		c0-5.7,4.6-10.3,10.3-10.3c5.7,0,10.3,4.6,10.3,10.3S110.6,437.7,104.9,437.7"/>
	<path id="path7261_13_" inkscape:connector-curvature="0" class="st24" d="M104.9,435.4c-4.4,0-8-3.6-8-8s3.6-8,8-8s8,3.6,8,8
		C112.9,431.9,109.4,435.4,104.9,435.4"/>
	<path id="path1187_13_" inkscape:connector-curvature="0" class="st14" d="M104.9,435.3c-4.3,0-7.7-3.3-7.7-7.3s3.5-7.3,7.7-7.3
		c4.3,0,7.7,3.3,7.7,7.3S109.2,435.3,104.9,435.3"/>
	<path id="path861_13_" inkscape:connector-curvature="0" class="st25" d="M110.1,428.5c0,2.8-2.3,5.2-5.1,5.2
		c-2.8,0-5.1-2.3-5.1-5.2c0-2.8,2.3-5.2,5.1-5.2C107.8,423.3,110.1,425.6,110.1,428.5"/>
	<path id="path7265_13_" inkscape:connector-curvature="0" d="M110.1,427.5c0,2.8-2.3,5.1-5.1,5.1c-2.8,0-5.1-2.3-5.1-5.1
		c0-2.8,2.3-5.1,5.1-5.1C107.8,422.3,110.1,424.6,110.1,427.5"/>
</g>
<g id="layer1_23_" transform="translate(-53.216485,-90.5345)" inkscape:groupmode="layer" inkscape:label="Layer 1">
	<path id="path7705_9_" inkscape:connector-curvature="0" d="M106.1,367.5c0,5.5-4.4,9.9-9.9,9.9s-9.9-4.4-9.9-9.9s4.4-9.9,9.9-9.9
		S106.1,362,106.1,367.5"/>
	<path id="path7707_9_" inkscape:connector-curvature="0" class="st31" d="M101.8,367.5c0,3.1-2.5,5.6-5.6,5.6s-5.6-2.5-5.6-5.6
		s2.5-5.6,5.6-5.6S101.8,364.4,101.8,367.5"/>
	<path id="path7711_9_" inkscape:connector-curvature="0" class="st31" d="M97.1,357.6c-0.3,0-0.6,0-0.9,0c-0.4,0-0.7,0-1.1,0.1v4.5
		h2V357.6z"/>
</g>
<g id="layer1_20_" transform="translate(-89.945866,-120.5333)" inkscape:groupmode="layer" inkscape:label="Layer 1">
	<path id="path7255_5_" inkscape:connector-curvature="0" class="st23" d="M104.9,401.8c-5.7,0-10.3-4.6-10.3-10.3
		c0-5.7,4.6-10.3,10.3-10.3s10.3,4.6,10.3,10.3S110.6,401.8,104.9,401.8"/>
	<path id="path7261_5_" inkscape:connector-curvature="0" class="st24" d="M104.9,399.5c-4.4,0-8-3.6-8-8s3.6-8,8-8s8,3.6,8,8
		C112.9,396,109.4,399.5,104.9,399.5"/>
	<path id="path1187_5_" inkscape:connector-curvature="0" class="st14" d="M104.9,399.4c-4.3,0-7.7-3.3-7.7-7.3s3.5-7.3,7.7-7.3
		c4.3,0,7.7,3.3,7.7,7.3S109.2,399.4,104.9,399.4"/>
	<path id="path861_5_" inkscape:connector-curvature="0" class="st25" d="M110.1,392.6c0,2.8-2.3,5.2-5.1,5.2s-5.1-2.3-5.1-5.2
		c0-2.8,2.3-5.2,5.1-5.2S110.1,389.7,110.1,392.6"/>
	<path id="path7265_5_" inkscape:connector-curvature="0" d="M110.1,391.6c0,2.8-2.3,5.1-5.1,5.1s-5.1-2.3-5.1-5.1
		c0-2.8,2.3-5.1,5.1-5.1C107.8,386.4,110.1,388.7,110.1,391.6"/>
</g>
<text transform="matrix(1 0 0 1 202.01 283.8968)" class="st6 st7 st9">Sync</text>
<g>
	<circle class="st30" cx="71.5" cy="248.4" r="5.5"/>
	<line class="st26" x1="75.4" y1="252.3" x2="67.6" y2="244.5"/>
	<line class="st26" x1="67.6" y1="252.3" x2="75.4" y2="244.5"/>
</g>
<path class="st32" d="M15.1,40c35.7,0,78.1,9,78.1,9"/>
<g id="layer1_11_" transform="translate(-89.945866,-120.5333)" inkscape:groupmode="layer" inkscape:label="Layer 1">
	<path id="path7255_1_" inkscape:connector-curvature="0" class="st23" d="M104.9,170.8c-5.7,0-10.3-4.6-10.3-10.3
		s4.6-10.3,10.3-10.3s10.3,4.6,10.3,10.3S110.6,170.8,104.9,170.8"/>
	<path id="path7261_1_" inkscape:connector-curvature="0" class="st24" d="M104.9,168.5c-4.4,0-8-3.6-8-8s3.6-8,8-8s8,3.6,8,8
		C112.9,165,109.4,168.5,104.9,168.5"/>
	<path id="path1187_1_" inkscape:connector-curvature="0" class="st14" d="M104.9,168.4c-4.3,0-7.7-3.3-7.7-7.3s3.5-7.3,7.7-7.3
		s7.7,3.3,7.7,7.3S109.2,168.4,104.9,168.4"/>
	<path id="path861_1_" inkscape:connector-curvature="0" class="st25" d="M110.1,161.6c0,2.8-2.3,5.2-5.1,5.2
		c-2.8,0-5.1-2.3-5.1-5.2c0-2.8,2.3-5.2,5.1-5.2S110.1,158.7,110.1,161.6"/>
	<path id="path7265_1_" inkscape:connector-curvature="0" d="M110.1,160.6c0,2.8-2.3,5.1-5.1,5.1c-2.8,0-5.1-2.3-5.1-5.1
		s2.3-5.1,5.1-5.1S110.1,157.7,110.1,160.6"/>
</g>
<g id="layer1_51_" transform="translate(-53.216485,-90.5345)" inkscape:groupmode="layer" inkscape:label="Layer 1">
	<path id="path7705_20_" inkscape:connector-curvature="0" d="M96.3,133.4c0-5.4,4.4-9.9,9.9-9.9s9.9,4.4,9.9,9.9
		c0,5.5-4.4,9.9-9.9,9.9S96.3,138.9,96.3,133.4"/>
	<path id="path7707_30_" inkscape:connector-curvature="0" class="st33" d="M100.6,133.4c0-3.1,2.5-5.6,5.6-5.6s5.6,2.5,5.6,5.6
		s-2.5,5.6-5.6,5.6S100.6,136.5,100.6,133.4"/>
	<path id="path7711_30_" inkscape:connector-curvature="0" class="st33" d="M105.3,128.2h2v-4.5c-0.4-0.1-0.7-0.1-1.1-0.1
		c-0.3,0-0.6,0-0.9,0V128.2z"/>
</g>
<path class="st32" d="M93,52.6c27.8-35.3,57,0.4,57,0.4"/>
<g id="layer1_1_" transform="translate(-50.235993,-87.554008)" inkscape:groupmode="layer" inkscape:label="Layer 1">
	<path id="path7705" inkscape:connector-curvature="0" d="M159.1,136.6c0,8.8-7.1,15.9-15.9,15.9s-15.9-7.1-15.9-15.9
		c0-8.8,7.1-15.9,15.9-15.9C152,120.7,159.1,127.8,159.1,136.6"/>
	<path id="path7707" inkscape:connector-curvature="0" class="st33" d="M152.2,136.6c0,4.9-4,9-9,9c-4.9,0-9-4-9-9c0-4.9,4-9,9-9
		S152.2,131.6,152.2,136.6"/>
	<path id="path7709" inkscape:connector-curvature="0" class="st21" d="M155.8,136.6c0,6.9-5.6,12.6-12.6,12.6
		c-6.9,0-12.6-5.6-12.6-12.6c0-6.9,5.6-12.6,12.6-12.6C150.2,124,155.8,129.6,155.8,136.6L155.8,136.6z"/>
	<path id="path7711" inkscape:connector-curvature="0" class="st33" d="M144.7,120.8c-0.5,0-1-0.1-1.4-0.1c-0.6,0-1.2,0-1.8,0.1v7.2
		h3.2V120.8z"/>
</g>
<path class="st32" d="M207,52.6c-27.8-35.3-57,0.4-57,0.4"/>
<g id="layer1_2_" transform="translate(-50.235993,-87.554008)" inkscape:groupmode="layer" inkscape:label="Layer 1">
	<path id="path7705_1_" inkscape:connector-curvature="0" d="M216.1,136.6c0,8.8-7.1,15.9-15.9,15.9c-8.8,0-15.9-7.1-15.9-15.9
		c0-8.8,7.1-15.9,15.9-15.9C209,120.7,216.1,127.8,216.1,136.6"/>
	<path id="path7707_1_" inkscape:connector-curvature="0" class="st33" d="M209.2,136.6c0,4.9-4,9-9,9c-4.9,0-9-4-9-9c0-4.9,4-9,9-9
		S209.2,131.6,209.2,136.6"/>
	<path id="path7709_1_" inkscape:connector-curvature="0" class="st21" d="M212.8,136.6c0,6.9-5.6,12.6-12.6,12.6
		c-6.9,0-12.6-5.6-12.6-12.6c0-6.9,5.6-12.6,12.6-12.6C207.2,124,212.8,129.6,212.8,136.6L212.8,136.6z"/>
	<path id="path7711_1_" inkscape:connector-curvature="0" class="st33" d="M201.7,120.8c-0.5,0-1-0.1-1.4-0.1c-0.6,0-1.2,0-1.8,0.1
		v7.2h3.2V120.8z"/>
</g>
<text transform="matrix(0.9063 -0.4226 0.4226 0.9063 28.0677 152.5045)" class="st6 st7 st9">Shape</text>
<text transform="matrix(0.9063 -0.4226 0.4226 0.9063 35.1939 160.2152)" class="st6 st7 st9">Type</text>
<text transform="matrix(0.9063 0.4226 -0.4226 0.9063 248.3268 141.6588)" class="st6 st7 st9">Shape</text>
<text transform="matrix(0.9063 0.4226 -0.4226 0.9063 244.7336 151.0167)" class="st6 st7 st9">Depth</text>
<g id="layer1_56_" transform="translate(-89.945866,-120.5333)" inkscape:groupmode="layer" inkscape:label="Layer 1">
	<path id="path7255_31_" inkscape:connector-curvature="0" class="st23" d="M296.9,370.8c-5.7,0-10.3-4.6-10.3-10.3
		s4.6-10.3,10.3-10.3c5.7,0,10.3,4.6,10.3,10.3C307.2,366.2,302.6,370.8,296.9,370.8"/>
	<path id="path7261_31_" inkscape:connector-curvature="0" class="st24" d="M296.9,368.5c-4.5,0-8-3.5-8-8c0-4.4,3.6-8,8-8
		s8,3.6,8,8S301.3,368.5,296.9,368.5"/>
	<path id="path1187_31_" inkscape:connector-curvature="0" class="st14" d="M296.9,368.4c-4.3,0-7.7-3.3-7.7-7.3s3.4-7.3,7.7-7.3
		c4.2,0,7.7,3.3,7.7,7.3S301.2,368.4,296.9,368.4"/>
	<path id="path861_31_" inkscape:connector-curvature="0" class="st25" d="M291.7,361.6c0-2.9,2.3-5.2,5.1-5.2
		c2.8,0,5.1,2.4,5.1,5.2c0,2.9-2.3,5.2-5.1,5.2C294,366.8,291.7,364.4,291.7,361.6"/>
	<path id="path7265_31_" inkscape:connector-curvature="0" d="M291.7,360.6c0-2.9,2.3-5.2,5.1-5.1c2.8,0,5.1,2.3,5.1,5.1
		c0,2.8-2.3,5.1-5.1,5.1S291.7,363.4,291.7,360.6"/>
</g>
<g id="layer1_55_" transform="translate(-53.216485,-90.5345)" inkscape:groupmode="layer" inkscape:label="Layer 1">
	<path id="path7705_22_" inkscape:connector-curvature="0" d="M264.1,305.5c0,5.5-4.4,9.9-9.9,9.9s-9.9-4.4-9.9-9.9s4.4-9.9,9.9-9.9
		S264.1,300,264.1,305.5"/>
	<path id="path7707_25_" inkscape:connector-curvature="0" class="st27" d="M259.8,305.5c0,3.1-2.5,5.6-5.6,5.6s-5.6-2.5-5.6-5.6
		s2.5-5.6,5.6-5.6S259.8,302.4,259.8,305.5"/>
	<path id="path7711_25_" inkscape:connector-curvature="0" class="st27" d="M255.1,295.6c-0.3,0-0.6,0-0.9,0c-0.4,0-0.7,0-1.1,0.1
		v4.5h2V295.6z"/>
</g>
<g id="layer1_53_" transform="translate(-89.945866,-120.5333)" inkscape:groupmode="layer" inkscape:label="Layer 1">
	<path id="path7255_25_" inkscape:connector-curvature="0" class="st23" d="M277.9,387.8c-5.7,0-10.3-4.6-10.3-10.3
		s4.6-10.3,10.3-10.3c5.7,0,10.3,4.6,10.3,10.3S283.6,387.8,277.9,387.8"/>
	<path id="path7261_25_" inkscape:connector-curvature="0" class="st24" d="M277.9,385.5c-4.5,0-8-3.5-8-8c0-4.4,3.6-8,8-8
		s8,3.6,8,8S282.3,385.5,277.9,385.5"/>
	<path id="path1187_25_" inkscape:connector-curvature="0" class="st14" d="M277.9,385.4c-4.3,0-7.7-3.3-7.7-7.3s3.4-7.3,7.7-7.3
		c4.2,0,7.7,3.3,7.7,7.3S282.2,385.4,277.9,385.4"/>
	<path id="path861_25_" inkscape:connector-curvature="0" class="st25" d="M272.7,378.6c0-2.9,2.3-5.2,5.1-5.2
		c2.8,0,5.1,2.4,5.1,5.2c0,2.9-2.3,5.2-5.1,5.2C275,383.8,272.7,381.4,272.7,378.6"/>
	<path id="path7265_25_" inkscape:connector-curvature="0" d="M272.7,377.6c0-2.9,2.3-5.2,5.1-5.1c2.8,0,5.1,2.3,5.1,5.1
		c0,2.8-2.3,5.1-5.1,5.1S272.7,380.4,272.7,377.6"/>
</g>
<g id="layer1_47_" transform="translate(-53.216485,-90.5345)" inkscape:groupmode="layer" inkscape:label="Layer 1">
	<path id="path7705_19_" inkscape:connector-curvature="0" d="M241.1,324.5c0,5.5-4.4,9.9-9.9,9.9s-9.9-4.4-9.9-9.9s4.4-9.9,9.9-9.9
		S241.1,319,241.1,324.5"/>
	<path id="path7707_22_" inkscape:connector-curvature="0" class="st27" d="M236.8,324.5c0,3.1-2.5,5.6-5.6,5.6s-5.6-2.5-5.6-5.6
		s2.5-5.6,5.6-5.6S236.8,321.4,236.8,324.5"/>
	<path id="path7711_22_" inkscape:connector-curvature="0" class="st34" d="M232.1,314.6c-0.3,0-0.6,0-0.9,0c-0.4,0-0.7,0-1.1,0.1
		v4.5h2V314.6z"/>
</g>
<text transform="matrix(1 0 0 1 100.6542 293.6334)" class="st6 st7 st10">Weak</text>
<text transform="matrix(1 0 0 1 180.687 293.6334)" class="st6 st7 st10">Weak</text>
<text transform="matrix(1 0 0 1 209.1555 316.6336)" class="st6 st7 st10">Swap</text>
<g id="layer1_67_" transform="translate(-46.755712,-68.824694)" inkscape:groupmode="layer" inkscape:label="Layer 1">
	<path id="path2706_5_" class="st28" d="M258.4,369.8c0-3.7,3-6.7,6.7-6.7l0,0c3.7,0,6.7,3,6.7,6.7l0,0c0,3.7-3,6.7-6.7,6.7l0,0
		C261.4,376.5,258.4,373.5,258.4,369.8L258.4,369.8z"/>
</g>
<text transform="matrix(1 0 0 1 67.8257 316.6336)" class="st6 st7 st10">True FM</text>
<g id="layer1_78_" transform="translate(-46.755712,-68.824694)" inkscape:groupmode="layer" inkscape:label="Layer 1">
	<path id="path2706_9_" class="st28" d="M121.7,369.8c0-3.7,3-6.7,6.7-6.7l0,0c3.7,0,6.7,3,6.7,6.7l0,0c0,3.7-3,6.7-6.7,6.7l0,0
		C124.7,376.5,121.7,373.5,121.7,369.8L121.7,369.8z"/>
</g>
<text transform="matrix(1 0 0 1 114.0189 70.6625)" class="st6 st7 st10">LFO</text>
<g id="layer1_71_" transform="translate(-46.755712,-68.824694)" inkscape:groupmode="layer" inkscape:label="Layer 1">
	<path id="path2706_7_" class="st28" d="M161,123.8c0-3.7,3-6.7,6.7-6.7l0,0c3.7,0,6.7,3,6.7,6.7l0,0c0,3.7-3,6.7-6.7,6.7l0,0
		C164,130.5,161,127.5,161,123.8L161,123.8z"/>
</g>
<text transform="matrix(1 0 0 1 171.4249 70.6625)" class="st6 st7 st10">Zero</text>
<g id="layer1_76_" transform="translate(-46.755712,-68.824694)" inkscape:groupmode="layer" inkscape:label="Layer 1">
	<path id="path2706_8_" class="st28" d="M219.1,123.8c0-3.7,3-6.7,6.7-6.7l0,0c3.7,0,6.7,3,6.7,6.7l0,0c0,3.7-3,6.7-6.7,6.7l0,0
		C222.1,130.5,219.1,127.5,219.1,123.8L219.1,123.8z"/>
</g>
<text transform="matrix(1 0 0 1 143.1333 224.6579)" class="st6 st7 st10">LPG</text>
<g id="layer1_52_" transform="translate(-46.755712,-68.824694)" inkscape:groupmode="layer" inkscape:label="Layer 1">
	<path id="path2706_1_" class="st28" d="M190.2,277.8c0-3.7,3-6.7,6.7-6.7l0,0c3.7,0,6.7,3,6.7,6.7l0,0c0,3.7-3,6.7-6.7,6.7l0,0
		C193.2,284.5,190.2,281.5,190.2,277.8L190.2,277.8z"/>
</g>
<text transform="matrix(1 0 0 1 140.912 249.7234)" class="st6 st7 st10">Mode</text>
<g id="layer1_19_" transform="translate(-46.755712,-68.824694)" inkscape:groupmode="layer" inkscape:label="Layer 1">
	<path id="path2706_2_" class="st28" d="M190.1,302.8c0-3.7,3-6.7,6.7-6.7l0,0c3.7,0,6.7,3,6.7,6.7l0,0c0,3.7-3,6.7-6.7,6.7l0,0
		C193.1,309.5,190.1,306.5,190.1,302.8L190.1,302.8z"/>
</g>
<text transform="matrix(1 0 0 1 78.0559 283.8968)" class="st6 st7 st9">Sync</text>
<text transform="matrix(1 0 0 1 140.6716 283.8968)" class="st6 st7 st9">Gate</text>
<path class="st2" d="M68.4,138c0,0-29-34-53.3-4.9"/>
<g id="layer1_79_" transform="translate(-53.216485,-90.5345)" inkscape:groupmode="layer" inkscape:label="Layer 1">
	<path id="path7705_11_" inkscape:connector-curvature="0" d="M105,212.5c0,5.5-4.4,9.9-9.9,9.9s-9.9-4.4-9.9-9.9s4.4-9.9,9.9-9.9
		S105,207.1,105,212.5"/>
	<path id="path7707_19_" inkscape:connector-curvature="0" class="st35" d="M100.7,212.5c0,3.1-2.5,5.6-5.6,5.6s-5.6-2.5-5.6-5.6
		s2.5-5.6,5.6-5.6S100.7,209.4,100.7,212.5"/>
	<path id="path7711_19_" inkscape:connector-curvature="0" class="st35" d="M96,202.7c-0.3,0-0.6,0-0.9,0c-0.4,0-0.7,0-1.1,0.1v4.5
		h2V202.7z"/>
</g>
<path class="st2" d="M68.3,138.2c0,0-2,47.9-53.2,32.8"/>
<g id="layer1_27_" transform="translate(-53.216485,-90.5345)" inkscape:groupmode="layer" inkscape:label="Layer 1">
	<path id="path7705_10_" inkscape:connector-curvature="0" d="M110,262.6c0,5.5-4.4,9.9-9.9,9.9s-9.9-4.4-9.9-9.9s4.4-9.9,9.9-9.9
		S110,257.2,110,262.6"/>
	<path id="path7707_18_" inkscape:connector-curvature="0" class="st35" d="M105.7,262.6c0,3.1-2.5,5.6-5.6,5.6s-5.6-2.5-5.6-5.6
		s2.5-5.6,5.6-5.6S105.7,259.5,105.7,262.6"/>
	<path id="path7711_18_" inkscape:connector-curvature="0" class="st35" d="M101,252.8c-0.3,0-0.6,0-0.9,0c-0.4,0-0.7,0-1.1,0.1v4.5
		h2V252.8z"/>
</g>
<g id="layer1_25_" transform="translate(-89.945866,-120.5333)" inkscape:groupmode="layer" inkscape:label="Layer 1">
	<path id="path7255_7_" inkscape:connector-curvature="0" class="st23" d="M104.9,301.8c-5.7,0-10.3-4.6-10.3-10.3
		c0-5.7,4.6-10.3,10.3-10.3s10.3,4.6,10.3,10.3S110.5,301.8,104.9,301.8"/>
	<path id="path7261_7_" inkscape:connector-curvature="0" class="st24" d="M104.9,299.5c-4.4,0-8-3.6-8-8s3.6-8,8-8s8,3.6,8,8
		C112.9,296,109.4,299.5,104.9,299.5"/>
	<path id="path1187_7_" inkscape:connector-curvature="0" class="st14" d="M104.9,299.4c-4.3,0-7.7-3.3-7.7-7.3s3.5-7.3,7.7-7.3
		c4.3,0,7.7,3.3,7.7,7.3S109.1,299.4,104.9,299.4"/>
	<path id="path861_7_" inkscape:connector-curvature="0" class="st25" d="M110,292.6c0,2.8-2.3,5.2-5.1,5.2s-5.1-2.3-5.1-5.2
		c0-2.8,2.3-5.2,5.1-5.2C107.8,287.4,110,289.7,110,292.6"/>
	<path id="path7265_7_" inkscape:connector-curvature="0" d="M110,291.6c0,2.8-2.3,5.1-5.1,5.1s-5.1-2.3-5.1-5.1
		c0-2.8,2.3-5.1,5.1-5.1C107.8,286.4,110,288.7,110,291.6"/>
</g>
<g id="layer1_9_" transform="translate(-46.557912,-86.649131)" inkscape:groupmode="layer" inkscape:label="Layer 1">
	<path id="path7697_2_" inkscape:connector-curvature="0" d="M132.4,224.6c0,8.8-7.1,15.9-15.9,15.9s-15.9-7.1-15.9-15.9
		c0-8.8,7.1-15.9,15.9-15.9C125.3,208.8,132.4,215.9,132.4,224.6"/>
	<path id="path7699_2_" inkscape:connector-curvature="0" class="st35" d="M125.5,224.6c0,4.9-4,9-9,9s-9-4-9-9c0-4.9,4-9,9-9
		C121.5,215.7,125.5,219.7,125.5,224.6"/>
	<path id="path7701_2_" inkscape:connector-curvature="0" class="st21" d="M129.1,224.6c0,6.9-5.6,12.6-12.6,12.6
		c-6.9,0-12.6-5.6-12.6-12.6c0-6.9,5.6-12.6,12.6-12.6C123.5,212.1,129.1,217.7,129.1,224.6L129.1,224.6z"/>
	<path id="path7703_2_" inkscape:connector-curvature="0" class="st35" d="M118,208.8c-0.5,0-1-0.1-1.4-0.1c-0.6,0-1.2,0-1.8,0.1
		v7.2h3.2C118,216,118,208.8,118,208.8z"/>
</g>
<g id="layer1_24_" transform="translate(-89.945866,-120.5333)" inkscape:groupmode="layer" inkscape:label="Layer 1">
	<path id="path7255_2_" inkscape:connector-curvature="0" class="st23" d="M104.9,263.8c-5.7,0-10.3-4.6-10.3-10.3
		s4.6-10.3,10.3-10.3c5.7,0,10.3,4.6,10.3,10.3C115.2,259.2,110.5,263.8,104.9,263.8"/>
	<path id="path7261_2_" inkscape:connector-curvature="0" class="st24" d="M104.9,261.5c-4.4,0-8-3.6-8-8s3.6-8,8-8s8,3.6,8,8
		C112.9,258,109.4,261.5,104.9,261.5"/>
	<path id="path1187_2_" inkscape:connector-curvature="0" class="st14" d="M104.9,261.4c-4.3,0-7.7-3.3-7.7-7.3s3.5-7.3,7.7-7.3
		c4.3,0,7.7,3.3,7.7,7.3C112.6,258.1,109.1,261.4,104.9,261.4"/>
	<path id="path861_2_" inkscape:connector-curvature="0" class="st25" d="M110.1,254.6c0,2.8-2.3,5.2-5.1,5.2
		c-2.8,0-5.1-2.3-5.1-5.2c0-2.8,2.3-5.2,5.1-5.2S110.1,251.7,110.1,254.6"/>
	<path id="path7265_2_" inkscape:connector-curvature="0" d="M110.1,253.6c0,3.5-3.6,6.2-7.3,4.6c-1.1-0.5-2-1.4-2.4-2.4
		c-1.6-3.7,1.1-7.3,4.6-7.3C107.8,248.4,110.1,250.7,110.1,253.6"/>
</g>
<path class="st4" d="M284.8,101.1C217.1,111.3,178.9,92,178.9,92"/>
<path class="st4" d="M284.9,75.1C209.4,70.8,179.1,92,179.1,92"/>
<path class="st3" d="M284.8,227c-19-48.7-62.5-45-62.5-45"/>
<path class="st3" d="M260.9,249c-51.3-7.9-39.8-67-39.8-67"/>
<path class="st26" d="M284.9,339c-51.3,0.6-56.5-90.6-56.5-90.6"/>
<path class="st26" d="M284.9,307c-42.6,0-51-25.1-51-25.1"/>
<path class="st26" d="M284.8,271.1c-42.7,25.5-56.4-22.7-56.4-22.7"/>
<g>
	<circle class="st30" cx="233.9" cy="282" r="5.5"/>
	<line class="st26" x1="233.9" y1="276.5" x2="233.9" y2="287.4"/>
	<line class="st26" x1="228.4" y1="282" x2="239.4" y2="282"/>
</g>
<g>
	<circle class="st30" cx="228.4" cy="248.4" r="5.5"/>
	<line class="st26" x1="232.3" y1="244.5" x2="224.5" y2="252.3"/>
	<line class="st26" x1="224.5" y1="244.5" x2="232.3" y2="252.3"/>
</g>
<path class="st32" d="M206.7,49c0,0,42.4-9,78.1-9"/>
<path class="st2" d="M284.8,133.1c-24.3-29.1-53.3,4.9-53.3,4.9"/>
<path class="st2" d="M284.8,171c-51.2,15.1-53.2-32.8-53.2-32.8"/>
<g id="layer1_65_" transform="translate(-53.216485,-90.5345)" inkscape:groupmode="layer" inkscape:label="Layer 1">
	<path id="path7705_26_" inkscape:connector-curvature="0" d="M300.3,418.6c0-5.5,4.4-9.9,9.9-9.9s9.9,4.4,9.9,9.9s-4.4,9.9-9.9,9.9
		S300.3,424.1,300.3,418.6"/>
	<path id="path7707_34_" inkscape:connector-curvature="0" class="st31" d="M304.6,418.6c0-3.1,2.5-5.6,5.6-5.6s5.6,2.5,5.6,5.6
		s-2.5,5.6-5.6,5.6S304.6,421.7,304.6,418.6"/>
	<path id="path7711_34_" inkscape:connector-curvature="0" class="st31" d="M309.3,413.3h2v-4.5c-0.4-0.1-0.7-0.1-1.1-0.1
		c-0.3,0-0.6,0-0.9,0V413.3z"/>
</g>
<g id="layer1_64_" transform="translate(-89.945866,-120.5333)" inkscape:groupmode="layer" inkscape:label="Layer 1">
	<path id="path7255_30_" inkscape:connector-curvature="0" class="st23" d="M374.9,470.3c-5.7,0-10.3-4.6-10.3-10.3
		s4.6-10.3,10.3-10.3s10.3,4.6,10.3,10.3C385.2,465.7,380.6,470.3,374.9,470.3"/>
	<path id="path7261_30_" inkscape:connector-curvature="0" class="st24" d="M374.9,468c-4.5,0-8-3.5-8-8c0-4.4,3.6-8,8-8s8,3.6,8,8
		S379.3,468,374.9,468"/>
	<path id="path1187_30_" inkscape:connector-curvature="0" class="st14" d="M374.9,467.9c-4.3,0-7.7-3.3-7.7-7.3s3.4-7.3,7.7-7.3
		c4.2,0,7.7,3.3,7.7,7.3S379.2,467.9,374.9,467.9"/>
	<path id="path861_30_" inkscape:connector-curvature="0" class="st25" d="M369.7,461.1c0-2.9,2.3-5.2,5.1-5.2
		c2.8,0,5.1,2.4,5.1,5.2c0,2.9-2.3,5.2-5.1,5.2C372,466.3,369.7,463.9,369.7,461.1"/>
	<path id="path7265_30_" inkscape:connector-curvature="0" d="M369.7,460.1c0-2.9,2.3-5.2,5.1-5.1c2.8,0,5.1,2.3,5.1,5.1
		c0,2.8-2.3,5.1-5.1,5.1S369.7,462.9,369.7,460.1"/>
</g>
<g id="layer1_63_" transform="translate(-53.216485,-90.5345)" inkscape:groupmode="layer" inkscape:label="Layer 1">
	<path id="path7705_25_" inkscape:connector-curvature="0" d="M300.3,393.5c0-5.5,4.4-9.9,9.9-9.9s9.9,4.4,9.9,9.9s-4.4,9.9-9.9,9.9
		S300.3,399,300.3,393.5"/>
	<path id="path7707_32_" inkscape:connector-curvature="0" class="st31" d="M304.6,393.5c0-3.1,2.5-5.6,5.6-5.6s5.6,2.5,5.6,5.6
		s-2.5,5.6-5.6,5.6S304.6,396.6,304.6,393.5"/>
	<path id="path7711_32_" inkscape:connector-curvature="0" class="st31" d="M309.3,388.2h2v-4.5c-0.4-0.1-0.7-0.1-1.1-0.1
		c-0.3,0-0.6,0-0.9,0V388.2z"/>
</g>
<g id="layer1_61_" transform="translate(-89.945866,-120.5333)" inkscape:groupmode="layer" inkscape:label="Layer 1">
	<path id="path7255_29_" inkscape:connector-curvature="0" class="st23" d="M374.9,437.7c-5.7,0-10.3-4.6-10.3-10.3
		s4.6-10.3,10.3-10.3s10.3,4.6,10.3,10.3S380.6,437.7,374.9,437.7"/>
	<path id="path7261_29_" inkscape:connector-curvature="0" class="st24" d="M374.9,435.4c-4.5,0-8-3.5-8-8c0-4.4,3.6-8,8-8
		s8,3.6,8,8S379.3,435.4,374.9,435.4"/>
	<path id="path1187_29_" inkscape:connector-curvature="0" class="st14" d="M374.9,435.3c-4.3,0-7.7-3.3-7.7-7.3s3.4-7.3,7.7-7.3
		c4.2,0,7.7,3.3,7.7,7.3S379.2,435.3,374.9,435.3"/>
	<path id="path861_29_" inkscape:connector-curvature="0" class="st25" d="M369.7,428.5c0-2.9,2.3-5.2,5.1-5.2s5.1,2.4,5.1,5.2
		c0,2.9-2.3,5.2-5.1,5.2S369.7,431.3,369.7,428.5"/>
	<path id="path7265_29_" inkscape:connector-curvature="0" d="M369.7,427.5c0-2.9,2.3-5.2,5.1-5.1c2.8,0,5.1,2.3,5.1,5.1
		c0,2.8-2.3,5.1-5.1,5.1S369.7,430.3,369.7,427.5"/>
</g>
<g id="layer1_60_" transform="translate(-53.216485,-90.5345)" inkscape:groupmode="layer" inkscape:label="Layer 1">
	<path id="path7705_24_" inkscape:connector-curvature="0" d="M300.3,367.5c0-5.5,4.4-9.9,9.9-9.9s9.9,4.4,9.9,9.9s-4.4,9.9-9.9,9.9
		S300.3,373,300.3,367.5"/>
	<path id="path7707_14_" inkscape:connector-curvature="0" class="st31" d="M304.6,367.5c0-3.1,2.5-5.6,5.6-5.6s5.6,2.5,5.6,5.6
		s-2.5,5.6-5.6,5.6S304.6,370.6,304.6,367.5"/>
	<path id="path7711_14_" inkscape:connector-curvature="0" class="st31" d="M309.3,362.2h2v-4.5c-0.4-0.1-0.7-0.1-1.1-0.1
		c-0.3,0-0.6,0-0.9,0V362.2z"/>
</g>
<g id="layer1_59_" transform="translate(-89.945866,-120.5333)" inkscape:groupmode="layer" inkscape:label="Layer 1">
	<path id="path7255_27_" inkscape:connector-curvature="0" class="st23" d="M374.9,401.8c-5.7,0-10.3-4.6-10.3-10.3
		s4.6-10.3,10.3-10.3c5.7,0,10.3,4.6,10.3,10.3C385.2,397.2,380.6,401.8,374.9,401.8"/>
	<path id="path7261_27_" inkscape:connector-curvature="0" class="st24" d="M374.9,399.5c-4.5,0-8-3.5-8-8c0-4.4,3.6-8,8-8
		s8,3.6,8,8S379.3,399.5,374.9,399.5"/>
	<path id="path1187_27_" inkscape:connector-curvature="0" class="st14" d="M374.9,399.4c-4.3,0-7.7-3.3-7.7-7.3s3.4-7.3,7.7-7.3
		c4.2,0,7.7,3.3,7.7,7.3S379.2,399.4,374.9,399.4"/>
	<path id="path861_27_" inkscape:connector-curvature="0" class="st25" d="M369.7,392.6c0-2.9,2.3-5.2,5.1-5.2s5.1,2.4,5.1,5.2
		c0,2.9-2.3,5.2-5.1,5.2S369.7,395.4,369.7,392.6"/>
	<path id="path7265_27_" inkscape:connector-curvature="0" d="M369.7,391.6c0-2.9,2.3-5.2,5.1-5.1c2.8,0,5.1,2.3,5.1,5.1
		c0,2.8-2.3,5.1-5.1,5.1S369.7,394.4,369.7,391.6"/>
</g>
<g id="layer1_3_" transform="translate(-50.235993,-87.554008)" inkscape:groupmode="layer" inkscape:label="Layer 1">
	<path id="path7705_2_" inkscape:connector-curvature="0" d="M273.1,136.6c0,8.8-7.1,15.9-15.9,15.9c-8.8,0-15.9-7.1-15.9-15.9
		c0-8.8,7.1-15.9,15.9-15.9C266,120.7,273.1,127.8,273.1,136.6"/>
	<path id="path7707_2_" inkscape:connector-curvature="0" class="st33" d="M266.2,136.6c0,4.9-4,9-9,9c-4.9,0-9-4-9-9c0-4.9,4-9,9-9
		C262.2,127.6,266.2,131.6,266.2,136.6"/>
	<path id="path7709_2_" inkscape:connector-curvature="0" class="st21" d="M269.8,136.6c0,6.9-5.6,12.6-12.6,12.6
		c-6.9,0-12.6-5.6-12.6-12.6c0-6.9,5.6-12.6,12.6-12.6C264.2,124,269.8,129.6,269.8,136.6L269.8,136.6z"/>
	<path id="path7711_2_" inkscape:connector-curvature="0" class="st33" d="M258.7,120.8c-0.5,0-1-0.1-1.4-0.1c-0.6,0-1.2,0-1.8,0.1
		v7.2h3.2V120.8z"/>
</g>
<g id="layer1_36_" transform="translate(-89.945866,-120.5333)" inkscape:groupmode="layer" inkscape:label="Layer 1">
	<path id="path7255_12_" inkscape:connector-curvature="0" class="st23" d="M374.9,170.8c-5.7,0-10.3-4.6-10.3-10.3
		s4.6-10.3,10.3-10.3s10.3,4.6,10.3,10.3S380.6,170.8,374.9,170.8"/>
	<path id="path7261_12_" inkscape:connector-curvature="0" class="st24" d="M374.9,168.5c-4.4,0-8-3.6-8-8s3.6-8,8-8s8,3.6,8,8
		C382.9,165,379.4,168.5,374.9,168.5"/>
	<path id="path1187_12_" inkscape:connector-curvature="0" class="st14" d="M374.9,168.4c-4.3,0-7.7-3.3-7.7-7.3s3.5-7.3,7.7-7.3
		s7.7,3.3,7.7,7.3S379.2,168.4,374.9,168.4"/>
	<path id="path861_12_" inkscape:connector-curvature="0" class="st25" d="M380.1,161.6c0,2.8-2.3,5.2-5.1,5.2
		c-2.8,0-5.1-2.3-5.1-5.2c0-2.8,2.3-5.2,5.1-5.2S380.1,158.7,380.1,161.6"/>
	<path id="path7265_12_" inkscape:connector-curvature="0" d="M380.1,160.6c0,2.8-2.3,5.1-5.1,5.1c-2.8,0-5.1-2.3-5.1-5.1
		s2.3-5.1,5.1-5.1S380.1,157.7,380.1,160.6"/>
</g>
<g id="layer1_74_" transform="translate(-53.216485,-90.5345)" inkscape:groupmode="layer" inkscape:label="Layer 1">
	<path id="path7705_30_" inkscape:connector-curvature="0" d="M310.1,133.4c0,5.5-4.4,9.9-9.9,9.9s-9.9-4.4-9.9-9.9
		c0-5.5,4.4-9.9,9.9-9.9S310.1,128,310.1,133.4"/>
	<path id="path7707_16_" inkscape:connector-curvature="0" class="st33" d="M305.8,133.4c0,3.1-2.5,5.6-5.6,5.6s-5.6-2.5-5.6-5.6
		s2.5-5.6,5.6-5.6C303.3,127.8,305.8,130.3,305.8,133.4"/>
	<path id="path7711_16_" inkscape:connector-curvature="0" class="st33" d="M301.1,123.6c-0.3,0-0.6,0-0.9,0c-0.4,0-0.7,0-1.1,0.1
		v4.5h2V123.6z"/>
</g>
<g id="layer1_70_" transform="translate(-53.216485,-90.5345)" inkscape:groupmode="layer" inkscape:label="Layer 1">
	<path id="path7705_27_" inkscape:connector-curvature="0" d="M275.3,194.5c0-5.4,4.4-9.9,9.9-9.9s9.9,4.4,9.9,9.9s-4.4,9.9-9.9,9.9
		S275.3,200,275.3,194.5"/>
	<path id="path7707_31_" inkscape:connector-curvature="0" class="st20" d="M279.6,194.5c0-3.1,2.5-5.6,5.6-5.6s5.6,2.5,5.6,5.6
		s-2.5,5.6-5.6,5.6S279.6,197.6,279.6,194.5"/>
	<path id="path7711_31_" inkscape:connector-curvature="0" class="st20" d="M284.3,189.3h2v-4.5c-0.4-0.1-0.7-0.1-1.1-0.1
		c-0.3,0-0.6,0-0.9,0V189.3z"/>
</g>
<g id="layer1_69_" transform="translate(-53.216485,-90.5345)" inkscape:groupmode="layer" inkscape:label="Layer 1">
	<path id="path7705_23_" inkscape:connector-curvature="0" d="M304.1,166.5c0,5.5-4.4,9.9-9.9,9.9s-9.9-4.4-9.9-9.9s4.4-9.9,9.9-9.9
		S304.1,161.1,304.1,166.5"/>
	<path id="path7707_28_" inkscape:connector-curvature="0" class="st20" d="M299.8,166.5c0,3.1-2.5,5.6-5.6,5.6s-5.6-2.5-5.6-5.6
		s2.5-5.6,5.6-5.6S299.8,163.4,299.8,166.5"/>
	<path id="path7711_28_" inkscape:connector-curvature="0" class="st20" d="M295.1,156.7c-0.3,0-0.6,0-0.9,0c-0.4,0-0.7,0-1.1,0.1
		v4.5h2V156.7z"/>
</g>
<g id="layer1_68_" transform="translate(-47.888015,-88.626321)" inkscape:groupmode="layer" inkscape:label="Layer 1">
	<path id="path7689_3_" inkscape:connector-curvature="0" d="M211,180.6c0-8.7,7.1-15.8,15.9-15.9c8.8,0,15.9,7.1,15.9,15.9
		c0,8.8-7.1,15.9-15.9,15.9S211,189.4,211,180.6"/>
	<path id="path7691_3_" inkscape:connector-curvature="0" class="st20" d="M218,180.6c0-4.9,4-8.9,9-9c5,0,9,4.1,9,9c0,5-4,9-9,9
		S218,185.5,218,180.6"/>
	<path id="path7693_3_" inkscape:connector-curvature="0" class="st21" d="M214.4,180.6c0-6.9,5.6-12.5,12.6-12.6
		c7,0,12.6,5.7,12.6,12.6c0,7-5.7,12.6-12.6,12.6C220,193.2,214.4,187.5,214.4,180.6L214.4,180.6z"/>
	<path id="path7695_3_" inkscape:connector-curvature="0" class="st20" d="M225.5,172h3.2v-7.2c-0.6-0.1-1.2-0.1-1.8-0.1
		c-0.4,0-0.9,0.1-1.4,0.1V172z"/>
</g>
<g id="layer1_66_" transform="translate(-89.945866,-120.5333)" inkscape:groupmode="layer" inkscape:label="Layer 1">
	<path id="path7255_34_" inkscape:connector-curvature="0" class="st23" d="M374.9,231.8c-5.7,0-10.3-4.6-10.3-10.3
		s4.6-10.3,10.3-10.3s10.3,4.6,10.3,10.3S380.6,231.8,374.9,231.8"/>
	<path id="path7261_34_" inkscape:connector-curvature="0" class="st24" d="M374.9,229.5c-4.5,0-8-3.5-8-8c0-4.4,3.6-8,8-8
		s8,3.6,8,8S379.3,229.5,374.9,229.5"/>
	<path id="path1187_34_" inkscape:connector-curvature="0" class="st14" d="M374.9,229.4c-4.3,0-7.7-3.3-7.7-7.3s3.4-7.3,7.7-7.3
		c4.2,0,7.7,3.3,7.7,7.3S379.2,229.4,374.9,229.4"/>
	<path id="path861_34_" inkscape:connector-curvature="0" class="st25" d="M369.7,222.6c0-2.9,2.3-5.2,5.1-5.2
		c2.8,0,5.1,2.4,5.1,5.2c0,2.9-2.3,5.2-5.1,5.2S369.7,225.4,369.7,222.6"/>
	<path id="path7265_34_" inkscape:connector-curvature="0" d="M369.7,221.6c0-2.9,2.3-5.2,5.1-5.1c2.8,0,5.1,2.3,5.1,5.1
		s-2.3,5.1-5.1,5.1S369.7,224.4,369.7,221.6"/>
</g>
<g id="layer1_57_" transform="translate(-89.945866,-120.5333)" inkscape:groupmode="layer" inkscape:label="Layer 1">
	<path id="path7255_32_" inkscape:connector-curvature="0" class="st23" d="M374.9,205.8c-5.7,0-10.3-4.6-10.3-10.3
		s4.6-10.3,10.3-10.3s10.3,4.6,10.3,10.3S380.6,205.8,374.9,205.8"/>
	<path id="path7261_32_" inkscape:connector-curvature="0" class="st24" d="M374.9,203.5c-4.5,0-8-3.5-8-8c0-4.4,3.6-8,8-8
		s8,3.6,8,8S379.3,203.5,374.9,203.5"/>
	<path id="path1187_32_" inkscape:connector-curvature="0" class="st14" d="M374.9,203.4c-4.3,0-7.7-3.3-7.7-7.3s3.4-7.3,7.7-7.3
		c4.2,0,7.7,3.3,7.7,7.3S379.2,203.4,374.9,203.4"/>
	<path id="path861_32_" inkscape:connector-curvature="0" class="st25" d="M369.7,196.6c0-2.9,2.3-5.2,5.1-5.2
		c2.8,0,5.1,2.4,5.1,5.2c0,2.9-2.3,5.2-5.1,5.2S369.7,199.4,369.7,196.6"/>
	<path id="path7265_32_" inkscape:connector-curvature="0" d="M369.7,195.6c0-2.9,2.3-5.2,5.1-5.1c2.8,0,5.1,2.3,5.1,5.1
		s-2.3,5.1-5.1,5.1S369.7,198.4,369.7,195.6"/>
</g>
<g id="layer1_42_" transform="translate(-89.945866,-120.5333)" inkscape:groupmode="layer" inkscape:label="Layer 1">
	<path id="path7255_24_" inkscape:connector-curvature="0" class="st23" d="M374.9,263.8c-5.6,0-10.3-4.6-10.3-10.3
		s4.6-10.3,10.3-10.3s10.3,4.6,10.3,10.3C385.2,259.2,380.6,263.8,374.9,263.8"/>
	<path id="path7261_24_" inkscape:connector-curvature="0" class="st24" d="M374.9,261.5c-4.5,0-8-3.5-8-8c0-4.4,3.6-8,8-8
		s8,3.6,8,8S379.3,261.5,374.9,261.5"/>
	<path id="path1187_24_" inkscape:connector-curvature="0" class="st14" d="M374.9,261.4c-4.2,0-7.7-3.3-7.7-7.3s3.4-7.3,7.7-7.3
		c4.2,0,7.7,3.3,7.7,7.3C382.6,258.1,379.2,261.4,374.9,261.4"/>
	<path id="path861_24_" inkscape:connector-curvature="0" class="st25" d="M369.7,254.6c0-2.9,2.3-5.2,5.1-5.2s5.1,2.4,5.1,5.2
		c0,2.9-2.3,5.2-5.1,5.2C372,259.8,369.7,257.4,369.7,254.6"/>
	<path id="path7265_24_" inkscape:connector-curvature="0" d="M369.7,253.6c0-2.9,2.3-5.2,5.1-5.1c3.5,0,6.2,3.6,4.6,7.3
		c-0.4,1-1.3,1.9-2.4,2.4C373.3,259.8,369.7,257.1,369.7,253.6"/>
</g>
<g id="layer1_17_" transform="translate(-89.945866,-120.5333)" inkscape:groupmode="layer" inkscape:label="Layer 1">
	<path id="path7255_22_" inkscape:connector-curvature="0" class="st23" d="M374.9,357.8c-5.6,0-10.3-4.6-10.3-10.3
		s4.6-10.3,10.3-10.3s10.3,4.6,10.3,10.3C385.2,353.2,380.6,357.8,374.9,357.8"/>
	<path id="path7261_22_" inkscape:connector-curvature="0" class="st24" d="M374.9,355.5c-4.5,0-8-3.5-8-8c0-4.4,3.6-8,8-8
		s8,3.6,8,8S379.3,355.5,374.9,355.5"/>
	<path id="path1187_22_" inkscape:connector-curvature="0" class="st14" d="M374.9,355.4c-4.2,0-7.7-3.3-7.7-7.3s3.4-7.3,7.7-7.3
		c4.2,0,7.7,3.3,7.7,7.3S379.2,355.4,374.9,355.4"/>
	<path id="path861_22_" inkscape:connector-curvature="0" class="st25" d="M369.8,348.6c0-2.9,2.2-5.2,5.1-5.2
		c2.8,0,5.1,2.4,5.1,5.2c0,2.9-2.3,5.2-5.1,5.2S369.8,351.4,369.8,348.6"/>
	<path id="path7265_22_" inkscape:connector-curvature="0" d="M369.8,347.6c0-2.9,2.2-5.2,5.1-5.1c2.8,0,5.1,2.3,5.1,5.1
		c0,2.8-2.3,5.1-5.1,5.1S369.8,350.4,369.8,347.6"/>
</g>
<g id="layer1_10_" transform="translate(-53.216485,-90.5345)" inkscape:groupmode="layer" inkscape:label="Layer 1">
	<path id="path7705_14_" inkscape:connector-curvature="0" d="M306.3,288.5c0-5.4,4.4-9.9,9.9-9.9s9.9,4.4,9.9,9.9s-4.4,9.9-9.9,9.9
		S306.3,294,306.3,288.5"/>
	<path id="path7707_15_" inkscape:connector-curvature="0" class="st29" d="M310.6,288.5c0-3.1,2.5-5.6,5.6-5.6s5.6,2.5,5.6,5.6
		s-2.5,5.6-5.6,5.6S310.6,291.6,310.6,288.5"/>
	<path id="path7711_15_" inkscape:connector-curvature="0" class="st29" d="M315.3,283.3h2v-4.5c-0.4-0.1-0.7-0.1-1.1-0.1
		c-0.3,0-0.6,0-0.9,0V283.3z"/>
</g>
<g id="layer1_8_" transform="translate(-53.216485,-90.5345)" inkscape:groupmode="layer" inkscape:label="Layer 1">
	<path id="path7705_6_" inkscape:connector-curvature="0" d="M268.3,314.1c0-5.4,4.4-9.9,9.9-9.9s9.9,4.4,9.9,9.9s-4.4,9.9-9.9,9.9
		S268.3,319.6,268.3,314.1"/>
	<path id="path7707_13_" inkscape:connector-curvature="0" class="st29" d="M272.6,314.1c0-3.1,2.5-5.6,5.6-5.6s5.6,2.5,5.6,5.6
		s-2.5,5.6-5.6,5.6S272.6,317.2,272.6,314.1"/>
	<path id="path7711_13_" inkscape:connector-curvature="0" class="st29" d="M277.3,308.9h2v-4.5c-0.4-0.1-0.7-0.1-1.1-0.1
		c-0.3,0-0.6,0-0.9,0V308.9z"/>
</g>
<g id="layer1_5_" transform="translate(-89.945866,-120.5333)" inkscape:groupmode="layer" inkscape:label="Layer 1">
	<path id="path7255_4_" inkscape:connector-curvature="0" class="st23" d="M350.9,379.8c-5.6,0-10.3-4.6-10.3-10.3
		s4.6-10.3,10.3-10.3c5.7,0,10.3,4.6,10.3,10.3C361.2,375.2,356.6,379.8,350.9,379.8"/>
	<path id="path7261_4_" inkscape:connector-curvature="0" class="st24" d="M350.9,377.5c-4.5,0-8-3.5-8-8c0-4.4,3.6-8,8-8s8,3.6,8,8
		S355.3,377.5,350.9,377.5"/>
	<path id="path1187_4_" inkscape:connector-curvature="0" class="st14" d="M350.9,377.4c-4.2,0-7.7-3.3-7.7-7.3s3.4-7.3,7.7-7.3
		c4.2,0,7.7,3.3,7.7,7.3S355.2,377.4,350.9,377.4"/>
	<path id="path861_4_" inkscape:connector-curvature="0" class="st25" d="M345.8,370.6c0-2.9,2.2-5.2,5.1-5.2c2.8,0,5.1,2.4,5.1,5.2
		c0,2.9-2.3,5.2-5.1,5.2C348.1,375.8,345.8,373.4,345.8,370.6"/>
	<path id="path7265_4_" inkscape:connector-curvature="0" d="M345.8,369.6c0-2.9,2.2-5.2,5.1-5.1c2.8,0,5.1,2.3,5.1,5.1
		c0,2.8-2.3,5.1-5.1,5.1S345.8,372.4,345.8,369.6"/>
</g>
<g id="layer1_77_" transform="translate(-53.216485,-90.5345)" inkscape:groupmode="layer" inkscape:label="Layer 1">
	<path id="path7705_28_" inkscape:connector-curvature="0" d="M296.3,262.6c0-5.4,4.4-9.9,9.9-9.9s9.9,4.4,9.9,9.9s-4.4,9.9-9.9,9.9
		S296.3,268.1,296.3,262.6"/>
	<path id="path7707_6_" inkscape:connector-curvature="0" class="st35" d="M300.6,262.6c0-3.1,2.5-5.6,5.6-5.6s5.6,2.5,5.6,5.6
		s-2.5,5.6-5.6,5.6S300.6,265.7,300.6,262.6"/>
	<path id="path7711_6_" inkscape:connector-curvature="0" class="st35" d="M305.3,257.4h2v-4.5c-0.4-0.1-0.7-0.1-1.1-0.1
		c-0.3,0-0.6,0-0.9,0V257.4z"/>
</g>
<g id="layer1_18_" transform="translate(-89.945866,-120.5333)" inkscape:groupmode="layer" inkscape:label="Layer 1">
	<path id="path7255_23_" inkscape:connector-curvature="0" class="st23" d="M374.9,301.8c-5.6,0-10.3-4.6-10.3-10.3
		s4.6-10.3,10.3-10.3s10.3,4.6,10.3,10.3C385.2,297.2,380.6,301.8,374.9,301.8"/>
	<path id="path7261_23_" inkscape:connector-curvature="0" class="st24" d="M374.9,299.5c-4.5,0-8-3.5-8-8c0-4.4,3.6-8,8-8
		s8,3.6,8,8S379.3,299.5,374.9,299.5"/>
	<path id="path1187_23_" inkscape:connector-curvature="0" class="st14" d="M374.9,299.4c-4.2,0-7.7-3.3-7.7-7.3s3.4-7.3,7.7-7.3
		c4.2,0,7.7,3.3,7.7,7.3S379.2,299.4,374.9,299.4"/>
	<path id="path861_23_" inkscape:connector-curvature="0" class="st25" d="M369.8,292.6c0-2.9,2.2-5.2,5.1-5.2
		c2.8,0,5.1,2.4,5.1,5.2c0,2.9-2.3,5.2-5.1,5.2S369.8,295.4,369.8,292.6"/>
	<path id="path7265_23_" inkscape:connector-curvature="0" d="M369.8,291.6c0-2.9,2.2-5.2,5.1-5.1c2.8,0,5.1,2.3,5.1,5.1
		c0,2.8-2.3,5.1-5.1,5.1S369.8,294.4,369.8,291.6"/>
</g>
<g id="layer1_40_" transform="translate(-46.557912,-86.649131)" inkscape:groupmode="layer" inkscape:label="Layer 1">
	<path id="path7697_1_" inkscape:connector-curvature="0" d="M260.7,224.6c0-8.7,7.1-15.8,15.9-15.9c8.8,0,15.9,7.1,15.9,15.9
		c0,8.8-7.1,15.9-15.9,15.9S260.7,233.4,260.7,224.6"/>
	<path id="path7699_1_" inkscape:connector-curvature="0" class="st35" d="M267.6,224.6c0-4.9,4-8.9,9-9c5,0,9,4.1,9,9c0,5-4,9-9,9
		S267.6,229.5,267.6,224.6"/>
	<path id="path7701_1_" inkscape:connector-curvature="0" class="st21" d="M264,224.6c0-6.9,5.6-12.5,12.6-12.6
		c7,0,12.6,5.7,12.6,12.6c0,7-5.7,12.6-12.6,12.6C269.6,237.2,264,231.5,264,224.6L264,224.6z"/>
	<path id="path7703_1_" inkscape:connector-curvature="0" class="st35" d="M275.1,216h3.2v-7.2c-0.6-0.1-1.2-0.1-1.8-0.1
		c-0.4,0-0.9,0.1-1.4,0.1C275.1,208.8,275.1,216,275.1,216z"/>
</g>
<g id="layer1_12_" transform="translate(-47.888015,-88.626321)" inkscape:groupmode="layer" inkscape:label="Layer 1">
	<path id="path7689_1_" inkscape:connector-curvature="0" d="M253,270.6c0-8.7,7.1-15.8,15.9-15.9c8.8,0,15.9,7.1,15.9,15.9
		s-7.1,15.9-15.9,15.9S253,279.4,253,270.6"/>
	<path id="path7691_1_" inkscape:connector-curvature="0" class="st29" d="M260,270.6c0-4.9,4-8.9,9-9c5,0,9,4.1,9,9c0,5-4,9-9,9
		S260,275.5,260,270.6"/>
	<path id="path7693_1_" inkscape:connector-curvature="0" class="st21" d="M256.4,270.6c0-6.9,5.6-12.5,12.6-12.6
		c7,0,12.6,5.7,12.6,12.6c0,7-5.7,12.6-12.6,12.6C262,283.2,256.4,277.5,256.4,270.6L256.4,270.6z"/>
	<path id="path7695_1_" inkscape:connector-curvature="0" class="st29" d="M267.5,262h3.2v-7.2c-0.6-0.1-1.2-0.1-1.8-0.1
		c-0.4,0-0.9,0.1-1.4,0.1L267.5,262L267.5,262z"/>
</g>
<g id="layer1_43_" transform="translate(-53.216485,-90.5345)" inkscape:groupmode="layer" inkscape:label="Layer 1">
	<path id="path7705_16_" inkscape:connector-curvature="0" d="M301.3,212.5c0-5.4,4.4-9.9,9.9-9.9s9.9,4.4,9.9,9.9s-4.4,9.9-9.9,9.9
		S301.3,218,301.3,212.5"/>
	<path id="path7707_21_" inkscape:connector-curvature="0" class="st35" d="M305.6,212.5c0-3.1,2.5-5.6,5.6-5.6s5.6,2.5,5.6,5.6
		s-2.5,5.6-5.6,5.6S305.6,215.6,305.6,212.5"/>
	<path id="path7711_21_" inkscape:connector-curvature="0" class="st35" d="M310.3,207.3h2v-4.5c-0.4-0.1-0.7-0.1-1.1-0.1
		c-0.3,0-0.6,0-0.9,0V207.3z"/>
</g>
<line class="st26" x1="190" y1="278" x2="212.1" y2="264.1"/>
<g id="layer1_58_" transform="translate(-46.755712,-68.824694)" inkscape:groupmode="layer" inkscape:label="Layer 1">
	<path id="path2706_3_" class="st28" d="M230.1,346.8c0-3.7,3-6.7,6.7-6.7l0,0c3.7,0,6.7,3,6.7,6.7l0,0c0,3.7-3,6.7-6.7,6.7l0,0
		C233.1,353.5,230.1,350.5,230.1,346.8L230.1,346.8z"/>
</g>
<g id="layer1_72_" transform="translate(-89.945866,-120.5333)" inkscape:groupmode="layer" inkscape:label="Layer 1">
	<path id="path7255_33_" inkscape:connector-curvature="0" class="st23" d="M301.9,394.8c-5.7,0-10.3-4.6-10.3-10.3
		c0-5.7,4.6-10.3,10.3-10.3c5.7,0,10.3,4.6,10.3,10.3S307.6,394.8,301.9,394.8"/>
	<path id="path7261_33_" inkscape:connector-curvature="0" class="st24" d="M301.9,392.5c-4.4,0-8-3.6-8-8s3.6-8,8-8s8,3.6,8,8
		C309.9,389,306.4,392.5,301.9,392.5"/>
	<path id="path1187_33_" inkscape:connector-curvature="0" class="st14" d="M301.9,392.4c-4.3,0-7.7-3.3-7.7-7.3s3.5-7.3,7.7-7.3
		c4.3,0,7.7,3.3,7.7,7.3S306.2,392.4,301.9,392.4"/>
	<path id="path861_33_" inkscape:connector-curvature="0" class="st25" d="M307.1,385.6c0,2.8-2.3,5.2-5.1,5.2
		c-2.8,0-5.1-2.3-5.1-5.2c0-2.8,2.3-5.2,5.1-5.2C304.8,380.4,307.1,382.7,307.1,385.6"/>
	<path id="path7265_33_" inkscape:connector-curvature="0" d="M307.1,384.6c0,2.8-2.3,5.1-5.1,5.1c-2.8,0-5.1-2.3-5.1-5.1
		c0-2.8,2.3-5.1,5.1-5.1C304.8,379.4,307.1,381.7,307.1,384.6"/>
</g>
<line class="st26" x1="110" y1="278" x2="88" y2="264"/>
<g id="layer1_28_" transform="translate(-46.755712,-68.824694)" inkscape:groupmode="layer" inkscape:label="Layer 1">
	<path id="path2706_4_" class="st28" d="M150.1,346.8c0-3.7,3-6.7,6.7-6.7l0,0c3.7,0,6.7,3,6.7,6.7l0,0c0,3.7-3,6.7-6.7,6.7l0,0
		C153.1,353.5,150.1,350.5,150.1,346.8L150.1,346.8z"/>
</g>
<g id="layer1_39_" transform="translate(-89.945866,-120.5333)" inkscape:groupmode="layer" inkscape:label="Layer 1">
	<path id="path7255_19_" inkscape:connector-curvature="0" class="st23" d="M177.9,394.8c-5.7,0-10.3-4.6-10.3-10.3
		c0-5.7,4.6-10.3,10.3-10.3s10.3,4.6,10.3,10.3S183.6,394.8,177.9,394.8"/>
	<path id="path7261_19_" inkscape:connector-curvature="0" class="st24" d="M177.9,392.5c-4.4,0-8-3.6-8-8s3.6-8,8-8s8,3.6,8,8
		C185.9,389,182.4,392.5,177.9,392.5"/>
	<path id="path1187_19_" inkscape:connector-curvature="0" class="st14" d="M177.9,392.4c-4.3,0-7.7-3.3-7.7-7.3s3.5-7.3,7.7-7.3
		c4.3,0,7.7,3.3,7.7,7.3S182.2,392.4,177.9,392.4"/>
	<path id="path861_19_" inkscape:connector-curvature="0" class="st25" d="M183.1,385.6c0,2.8-2.3,5.2-5.1,5.2s-5.1-2.3-5.1-5.2
		c0-2.8,2.3-5.2,5.1-5.2S183.1,382.7,183.1,385.6"/>
	<path id="path7265_19_" inkscape:connector-curvature="0" d="M183.1,384.6c0,2.8-2.3,5.1-5.1,5.1s-5.1-2.3-5.1-5.1
		c0-2.8,2.3-5.1,5.1-5.1C180.8,379.4,183.1,381.7,183.1,384.6"/>
</g>
<g>
	<path class="st1" d="M164.1,276.7c0,2.1-1.7,3.7-3.7,3.7"/>
	<path class="st1" d="M164.1,263v13.8"/>
</g>
<g id="layer1_41_" transform="translate(-89.945866,-120.5333)" inkscape:groupmode="layer" inkscape:label="Layer 1">
	<path id="path7255_35_" inkscape:connector-curvature="0" class="st23" d="M253.9,394.8c-5.7,0-10.3-4.6-10.3-10.3
		c0-5.7,4.6-10.3,10.3-10.3c5.7,0,10.3,4.6,10.3,10.3S259.6,394.8,253.9,394.8"/>
	<path id="path7261_35_" inkscape:connector-curvature="0" class="st24" d="M253.9,392.5c-4.4,0-8-3.6-8-8s3.6-8,8-8s8,3.6,8,8
		C261.9,389,258.4,392.5,253.9,392.5"/>
	<path id="path1187_35_" inkscape:connector-curvature="0" class="st14" d="M253.9,392.4c-4.3,0-7.7-3.3-7.7-7.3s3.5-7.3,7.7-7.3
		c4.3,0,7.7,3.3,7.7,7.3S258.2,392.4,253.9,392.4"/>
	<path id="path861_35_" inkscape:connector-curvature="0" class="st25" d="M259.1,385.6c0,2.8-2.3,5.2-5.1,5.2
		c-2.8,0-5.1-2.3-5.1-5.2c0-2.8,2.3-5.2,5.1-5.2C256.8,380.4,259.1,382.7,259.1,385.6"/>
	<path id="path7265_35_" inkscape:connector-curvature="0" d="M259.1,384.6c0,2.8-2.3,5.1-5.1,5.1c-2.8,0-5.1-2.3-5.1-5.1
		c0-2.8,2.3-5.1,5.1-5.1C256.8,379.4,259.1,381.7,259.1,384.6"/>
</g>
<g>
	<path class="st1" d="M139.8,280.5c-2,0-3.7-1.6-3.7-3.7"/>
	<path class="st1" d="M136.1,276.8V263"/>
</g>
<g id="layer1_38_" transform="translate(-89.945866,-120.5333)" inkscape:groupmode="layer" inkscape:label="Layer 1">
	<path id="path7255_18_" inkscape:connector-curvature="0" class="st23" d="M225.9,394.8c-5.7,0-10.3-4.6-10.3-10.3
		c0-5.7,4.6-10.3,10.3-10.3s10.3,4.6,10.3,10.3S231.6,394.8,225.9,394.8"/>
	<path id="path7261_18_" inkscape:connector-curvature="0" class="st24" d="M225.9,392.5c-4.4,0-8-3.6-8-8s3.6-8,8-8s8,3.6,8,8
		C233.9,389,230.4,392.5,225.9,392.5"/>
	<path id="path1187_18_" inkscape:connector-curvature="0" class="st14" d="M225.9,392.4c-4.3,0-7.7-3.3-7.7-7.3s3.5-7.3,7.7-7.3
		c4.3,0,7.7,3.3,7.7,7.3S230.2,392.4,225.9,392.4"/>
	<path id="path861_18_" inkscape:connector-curvature="0" class="st25" d="M231.1,385.6c0,2.8-2.3,5.2-5.1,5.2s-5.1-2.3-5.1-5.2
		c0-2.8,2.3-5.2,5.1-5.2S231.1,382.7,231.1,385.6"/>
	<path id="path7265_18_" inkscape:connector-curvature="0" d="M231.1,384.6c0,2.8-2.3,5.1-5.1,5.1s-5.1-2.3-5.1-5.1
		c0-2.8,2.3-5.1,5.1-5.1C228.8,379.4,231.1,381.7,231.1,384.6"/>
</g>
</svg>
