<?xml version="1.0" encoding="utf-8"?>
<!-- Generator: Adobe Illustrator 23.0.4, SVG Export Plug-In . SVG Version: 6.00 Build 0)  -->
<svg version="1.1"
	 id="svg8" xmlns:cc="http://creativecommons.org/ns#" xmlns:dc="http://purl.org/dc/elements/1.1/" xmlns:inkscape="http://www.inkscape.org/namespaces/inkscape" xmlns:rdf="http://www.w3.org/1999/02/22-rdf-syntax-ns#" xmlns:sodipodi="http://sodipodi.sourceforge.net/DTD/sodipodi-0.dtd" xmlns:svg="http://www.w3.org/2000/svg"
	 xmlns="http://www.w3.org/2000/svg" xmlns:xlink="http://www.w3.org/1999/xlink" x="0px" y="0px" viewBox="0 0 270 380"
	 style="enable-background:new 0 0 270 380;" xml:space="preserve">
<style type="text/css">
	.st0{fill:#282828;}
	.st1{fill:none;stroke:#FFFFFF;}
	.st2{fill:#FFFFFF;}
	.st3{font-family:'AlteDIN1451Mittelschrift';}
	.st4{font-size:18px;}
	.st5{font-size:10px;}
	.st6{font-size:8px;}
	.st7{fill:none;stroke:#8759A4;stroke-miterlimit:10;}
	.st8{fill:none;stroke:#DA4061;stroke-miterlimit:10;}
	.st9{fill:none;stroke:#BE974A;stroke-linecap:square;}
	.st10{fill:#111111;stroke:#414042;stroke-miterlimit:10;}
	.st11{fill:none;stroke:#FFFFFF;stroke-miterlimit:10;}
	.st12{fill:none;stroke:#307DEE;stroke-miterlimit:10;}
	.st13{fill:none;stroke:#00A1A7;stroke-miterlimit:10;}
	.st14{fill:none;stroke:#C0C0C0;stroke-miterlimit:10;}
	.st15{fill:#282828;stroke:#C0C0C0;stroke-miterlimit:10;}
</style>
<defs>
	
	
		<inkscape:path-effect  apply_no_weight="true" apply_with_weight="true" effect="bspline" helper_size="0" id="path-effect2273" is_visible="true" only_selected="false" steps="2" weight="33.333333">
		</inkscape:path-effect>
	
		<inkscape:path-effect  apply_no_weight="true" apply_with_weight="true" effect="bspline" helper_size="0" id="path-effect2269" is_visible="true" only_selected="false" steps="2" weight="33.333333">
		</inkscape:path-effect>
</defs>
<sodipodi:namedview  bordercolor="#666666" borderopacity="1.0" id="base" inkscape:current-layer="layer1" inkscape:cx="76.012834" inkscape:cy="318.70973" inkscape:document-units="mm" inkscape:pageopacity="0.0" inkscape:pageshadow="2" inkscape:snap-bbox="true" inkscape:snap-global="true" inkscape:window-height="1006" inkscape:window-maximized="0" inkscape:window-width="1276" inkscape:window-x="641" inkscape:window-y="0" inkscape:zoom="5.656854" pagecolor="#ffffff" showgrid="true" showguides="false" units="px">
	<inkscape:grid  id="grid1092" type="xygrid"></inkscape:grid>
</sodipodi:namedview>
<g id="layer1" transform="translate(0,-196.45831)" inkscape:groupmode="layer" inkscape:label="Layer 1">
	<rect id="rect1047" y="196.5" class="st0" width="270" height="380"/>
</g>
<path id="line161" class="st1" d="M0,24.5h270"/>
<path id="line163" class="st1" d="M0,356.5h270"/>
<text transform="matrix(1 0 0 1 112.4914 373.5106)" class="st2 st3 st4">Valley</text>
<text transform="matrix(1 0 0 1 120.8108 17.9062)" class="st2 st3 st4">Cell</text>
<text transform="matrix(1 0 0 1 70.369 74.1336)" class="st2 st3 st5">Octave</text>
<text transform="matrix(1 0 0 1 13.0637 60.9038)" class="st2 st3 st5">VOct</text>
<text transform="matrix(1 0 0 1 238.1096 60.9038)" class="st2 st3 st5">VOct</text>
<text transform="matrix(1 0 0 1 120.4882 74.1336)" class="st2 st3 st5">Coarse</text>
<text transform="matrix(1 0 0 1 98.3603 117.0947)" class="st2 st3 st5">Bank</text>
<text transform="matrix(1 0 0 1 38.1004 164.062)" class="st2 st3 st5">Shape</text>
<text transform="matrix(1 0 0 1 41.3359 174.0621)" class="st2 st3 st5">Type</text>
<text transform="matrix(1 0 0 1 237.427 350.6366)" class="st2 st3 st5">Main</text>
<text transform="matrix(1 0 0 1 211.9099 350.6366)" class="st2 st3 st5">Sub</text>
<text transform="matrix(1 0 0 1 102.4856 350.6363)" class="st2 st3 st5">Aux Mod Inputs</text>
<text transform="matrix(1 0 0 1 207.043 174.0621)" class="st2 st3 st5">Depth</text>
<text transform="matrix(1 0 0 1 205.9655 164.062)" class="st2 st3 st5">Shape</text>
<text transform="matrix(1 0 0 1 125.5298 226.0947)" class="st2 st3 st5">Perc</text>
<text transform="matrix(1 0 0 1 116.9531 234.4495)" class="st2 st3 st6">Sync Mode</text>
<text transform="matrix(1 0 0 1 122.6661 176.0736)" class="st2 st3 st5">Decay</text>
<text transform="matrix(1 0 0 1 61.3001 224.0943)" class="st2 st3 st5">Type</text>
<text transform="matrix(1 0 0 1 53.444 214.0942)" class="st2 st3 st5">Degrade</text>
<text transform="matrix(1 0 0 1 149.6212 117.0947)" class="st2 st3 st5">Wave</text>
<text transform="matrix(1 0 0 1 176.8832 74.1336)" class="st2 st3 st5">Fine</text>
<path class="st7" d="M109.1,95c0,0-35.5,19,0,43.2"/>
<path class="st8" d="M225,139c-10.7,4.5-37.5,4.5-37.5,4.5"/>
<path class="st7" d="M159,95"/>
<path class="st7" d="M216,74.8"/>
<line class="st9" x1="135.1" y1="332.4" x2="135.1" y2="265"/>
<path class="st9" d="M109,265.9c0,36.2-3.9,64.2-3.9,64.2"/>
<path class="st9" d="M161,265.9c0,36.2,4.1,64.2,4.1,64.2"/>
<path id="rect75_2_" inkscape:connector-curvature="0" class="st10" d="M82.6,237.9h105v32h-105C82.6,269.9,82.6,237.9,82.6,237.9z"
	/>
<path class="st8" d="M44.9,139c0,0,21.5-6.1,23.1-25.1c0,0-12.2-14.9-45.5-6.9"/>
<path class="st8" d="M248,107c-34-8-46,6.9-46,6.9c1.6,19,23,25.1,23,25.1"/>
<path class="st7" d="M109,92c0,0-45,10.4-86.5-14.7"/>
<text transform="matrix(1 0 0 1 238.8285 235.4495)" class="st2 st3 st5">VCA</text>
<text transform="matrix(1 0 0 1 13.8282 235.4495)" class="st2 st3 st5">VCA</text>
<text transform="matrix(1 0 0 1 16.0281 275.2752)" class="st2 st3 st5">FM</text>
<path class="st11" d="M186.1,287.7"/>
<text transform="matrix(1 0 0 1 71.0276 350.8199)" class="st2 st3 st5">FM</text>
<text transform="matrix(1 0 0 1 186.0277 350.8199)" class="st2 st3 st5">FM</text>
<text transform="matrix(1 0 0 1 9.5582 350.6366)" class="st2 st3 st5">Pre. D</text>
<text transform="matrix(1 0 0 1 43.4472 350.6366)" class="st2 st3 st5">Pls</text>
<text transform="matrix(1 0 0 1 12.5098 311.6735)" class="st2 st3 st5">Sync</text>
<path class="st7" d="M247.5,77.8C204.8,102.9,160.8,92,160.8,92"/>
<path class="st8" d="M82.4,143.5c0,0-26.8,0-37.5-4.5"/>
<path class="st12" d="M135,58c0,0-35-29-85,7.2c0,0,0-25.4-27.5-25.4"/>
<text transform="matrix(1 0 0 1 238.894 311.6735)" class="st2 st3 st5">EOC</text>
<text transform="matrix(1 0 0 1 207.796 311.6735)" class="st2 st3 st5">ZeroX</text>
<text transform="matrix(1 0 0 1 40.1686 311.6735)" class="st2 st3 st5">Sync</text>
<text transform="matrix(1 0 0 1 241.074 275.2752)" class="st2 st3 st5">FM</text>
<path class="st13" d="M22.4,156.3c14.5,79.1,85.6,10.2,85.6,10.2"/>
<path class="st12" d="M247.5,40C220,40,220,65.4,220,65.4c-50-36.2-85-7.3-85-7.3"/>
<path class="st7" d="M160.9,138.1c35.5-24.2,0-43.2,0-43.2"/>
<path class="st14" d="M22.6,212.9c24.8,26.2,49.3,40.6,49.3,40.6"/>
<g>
	<circle class="st15" cx="71.9" cy="253.5" r="5.5"/>
	<line class="st14" x1="75.8" y1="257.4" x2="68" y2="249.6"/>
	<line class="st14" x1="68" y1="257.4" x2="75.8" y2="249.6"/>
</g>
<path class="st14" d="M22.5,254.7C51,261.9,71.9,277,71.9,277"/>
<path class="st14" d="M77.6,330c5-25.7-5.7-53-5.7-53"/>
<g>
	<circle class="st15" cx="71.9" cy="277" r="5.5"/>
	<line class="st14" x1="71.9" y1="282.4" x2="71.9" y2="271.5"/>
	<line class="st14" x1="66.4" y1="277" x2="77.4" y2="277"/>
</g>
<line class="st14" x1="71.9" y1="271.5" x2="71.9" y2="259"/>
<text transform="matrix(1 0 0 1 186.5938 224.0943)" class="st2 st3 st5">Depth</text>
<text transform="matrix(1 0 0 1 181.2408 214.0942)" class="st2 st3 st5">Degrade</text>
<path class="st13" d="M162,166.5c0,0,71.1,68.9,85.6-10.2"/>
<path id="rect75_1_" inkscape:connector-curvature="0" class="st10" d="M82.5,121.5h105v45h-105V121.5z"/>
<path class="st14" d="M198,253.5c0,0,24.5-14.4,49.3-40.6"/>
<g>
	<circle class="st15" cx="198" cy="253.5" r="5.5"/>
	<line class="st14" x1="201.9" y1="249.6" x2="194.1" y2="257.4"/>
	<line class="st14" x1="194.1" y1="249.6" x2="201.9" y2="257.4"/>
</g>
<path class="st14" d="M198,277c0,0,20.9-15,49.4-22.2"/>
<line class="st14" x1="198" y1="259" x2="198" y2="271.5"/>
<path class="st14" d="M198,277c0,0-10.6,27.3-5.7,53"/>
<g>
	<circle class="st15" cx="198" cy="277" r="5.5"/>
	<line class="st14" x1="198" y1="271.5" x2="198" y2="282.4"/>
	<line class="st14" x1="192.5" y1="277" x2="203.5" y2="277"/>
</g>
<path class="st14" d="M135,188.9c0,0-43.2-9.9-33,31.9"/>
<path class="st14" d="M135.1,209.7v-20.8c0,0,43.2-9.9,33,31.9"/>
</svg>
