<?xml version="1.0" encoding="UTF-8" standalone="no"?>
<svg
   xmlns:dc="http://purl.org/dc/elements/1.1/"
   xmlns:cc="http://creativecommons.org/ns#"
   xmlns:rdf="http://www.w3.org/1999/02/22-rdf-syntax-ns#"
   xmlns:svg="http://www.w3.org/2000/svg"
   xmlns="http://www.w3.org/2000/svg"
   xmlns:sodipodi="http://sodipodi.sourceforge.net/DTD/sodipodi-0.dtd"
   xmlns:inkscape="http://www.inkscape.org/namespaces/inkscape"
   inkscape:version="1.0 (4035a4f, 2020-05-01)"
   sodipodi:docname="TerrorformLightLoader.svg"
   xml:space="preserve"
   style="enable-background:new 0 0 300 380;"
   viewBox="0 0 300 380"
   y="0px"
   x="0px"
   id="svg8"
   version="1.1"><metadata
     id="metadata229"><rdf:RDF><cc:Work
         rdf:about=""><dc:format>image/svg+xml</dc:format><dc:type
           rdf:resource="http://purl.org/dc/dcmitype/StillImage" /><dc:title /></cc:Work></rdf:RDF></metadata><style
     id="style2"
     type="text/css">
	.st0{fill:#282828;}
	.st1{fill:none;stroke:#FFB24A;stroke-width:2;stroke-miterlimit:10;}
	.st2{fill:none;stroke:#DA4061;stroke-width:2;stroke-miterlimit:10;}
	.st3{fill:none;stroke:#00A1A7;stroke-width:2;stroke-miterlimit:10;}
	.st4{fill:none;stroke:#8759A4;stroke-width:2;stroke-miterlimit:10;}
	.st5{fill:none;stroke:#FFFFFF;}
	.st6{fill:#FFFFFF;}
	.st7{font-family:'AlteDIN1451Mittelschrift';}
	.st8{font-size:18px;}
	.st9{font-size:10px;}
	.st10{font-size:8px;}
	.st11{fill:none;stroke:#8759A4;stroke-miterlimit:10;}
	.st12{fill:#111111;stroke:#414042;stroke-miterlimit:10;}
	.st13{fill:none;stroke:#FFFFFF;stroke-miterlimit:10;}
	.st14{fill:none;stroke:#C0C0C0;stroke-miterlimit:10;}
	.st15{fill:#282828;stroke:#C0C0C0;stroke-miterlimit:10;}
	.st16{fill:none;stroke:#307DEE;stroke-width:2;stroke-miterlimit:10;}
</style><g
     inkscape:label="Layer 1"
     inkscape:groupmode="layer"
     transform="translate(0,-196.45831)"
     id="layer1"><path
       id="rect1047"
       d="m 0,196.5 h 300 v 380 H 0 Z"
       style="fill:#e6e6e6;fill-opacity:1" /></g><defs
     id="defs22"><inkscape:path-effect
       weight="33.333333"
       steps="2"
       only_selected="false"
       is_visible="true"
       id="path-effect2273"
       helper_size="0"
       effect="bspline"
       apply_with_weight="true"
       apply_no_weight="true" /><inkscape:path-effect
       weight="33.333333"
       steps="2"
       only_selected="false"
       is_visible="true"
       id="path-effect2269"
       helper_size="0"
       effect="bspline"
       apply_with_weight="true"
       apply_no_weight="true" /></defs><sodipodi:namedview
     inkscape:document-rotation="0"
     units="px"
     showguides="false"
     showgrid="true"
     pagecolor="#ffffff"
     inkscape:zoom="2.828427"
     inkscape:window-y="23"
     inkscape:window-x="0"
     inkscape:window-width="2560"
     inkscape:window-maximized="1"
     inkscape:window-height="1395"
     inkscape:snap-global="true"
     inkscape:snap-bbox="true"
     inkscape:pageshadow="2"
     inkscape:pageopacity="0.0"
     inkscape:document-units="mm"
     inkscape:cy="246.25988"
     inkscape:cx="187.77291"
     inkscape:current-layer="svg8"
     id="base"
     borderopacity="1.0"
     bordercolor="#666666"><inkscape:grid
       type="xygrid"
       id="grid1092" /></sodipodi:namedview><path
     style="stroke:#1e1e1e;stroke-opacity:1"
     d="M0,24.5h300"
     class="st5"
     id="line161" /><path
     style="stroke:#1e1e1e;stroke-opacity:1;fill:none;fill-opacity:1;stroke-width:1;stroke-miterlimit:4;stroke-dasharray:none"
     d="M0,356.5h300"
     class="st5"
     id="line163" /><g
     id="text28"
     style="font-size:18px;font-family:AlteDIN1451Mittelschrift;fill:#1e1e1e;fill-opacity:1;stroke:none"
     transform="matrix(1 0 0 1 127.4914 373.5106)"
     aria-label="Valley"><path
       id="path1051"
       style="font-size:18px;font-family:AlteDIN1451Mittelschrift;fill:#1e1e1e;fill-opacity:1;stroke:none"
       d="M 4.2626953,0.00878906 0.03515625,-12.796875 H 2.0830078 l 2.9179688,9.7470703 h 0.035156 L 7.9541016,-12.796875 H 10.001953 L 5.7744141,0.00878906 Z" /><path
       id="path1053"
       style="font-size:18px;font-family:AlteDIN1451Mittelschrift;fill:#1e1e1e;fill-opacity:1;stroke:none"
       d="m 16.057617,0.04394531 v -0.80859375 h -0.03516 q -0.254883,0.47460938 -0.764648,0.68554688 -0.544922,0.22851562 -1.423829,0.22851562 -1.511718,-0.0351562 -2.285156,-0.80859375 -0.84375,-0.77343751 -0.84375,-1.97753911 0,-1.1425781 0.729492,-1.9160156 0.729493,-0.7734375 2.153321,-0.7910156 h 2.469726 v -0.9667969 q 0.0088,-1.2128906 -1.819336,-1.1777343 -0.632812,0 -1.054687,0.140625 -0.413086,0.1845703 -0.624024,0.571289 l -1.40625,-1.1074219 q 1.019532,-1.3623047 2.997071,-1.3271484 1.661132,-0.017578 2.671875,0.6503906 0.993164,0.694336 1.010742,2.3554688 v 6.24902341 z m 0,-3.20800781 v -0.6679688 h -2.135742 q -1.564453,0.043945 -1.546875,1.1074219 0,0.4570313 0.404297,0.7910157 0.386719,0.3603515 1.274414,0.3603515 1.125,0.017578 1.582031,-0.2724609 0.421875,-0.2900391 0.421875,-1.3183594 z" /><path
       id="path1055"
       style="font-size:18px;font-family:AlteDIN1451Mittelschrift;fill:#1e1e1e;fill-opacity:1;stroke:none"
       d="M 19.87207,-2.1972656 V -12.796875 h 1.836914 v 10.4501953 q 0,0.6328125 0.685547,0.6328125 h 0.624024 v 1.72265626 h -0.808594 q -1.001953,0 -1.669922,-0.48339844 -0.667969,-0.4921875 -0.667969,-1.72265622 z" /><path
       id="path1057"
       style="font-size:18px;font-family:AlteDIN1451Mittelschrift;fill:#1e1e1e;fill-opacity:1;stroke:none"
       d="M 24.512695,-2.1972656 V -12.796875 h 1.836914 v 10.4501953 q 0,0.6328125 0.685547,0.6328125 h 0.624024 v 1.72265626 h -0.808594 q -1.001953,0 -1.669922,-0.48339844 -0.667969,-0.4921875 -0.667969,-1.72265622 z" /><path
       id="path1059"
       style="font-size:18px;font-family:AlteDIN1451Mittelschrift;fill:#1e1e1e;fill-opacity:1;stroke:none"
       d="m 36.175781,-3.8583984 h -5.677734 q 0,1.125 0.606445,1.6875 0.615235,0.5625 1.564453,0.5625 1.133789,0 2.003907,-0.8789063 L 36,-1.3535156 q -0.676758,0.7910156 -1.529297,1.13378904 -0.84375,0.33398437 -1.766601,0.33398437 -1.40625,0 -2.72461,-0.90527343 -1.318359,-0.91406248 -1.318359,-3.72656248 0,-2.663086 1.21289,-3.6826172 1.22168,-1.0195313 2.548829,-1.0195313 1.502929,0 2.627929,1.0458985 1.125,1.0371094 1.125,2.8037109 z m -5.677734,-1.5117188 h 3.849609 q -0.04395,-1.0283203 -0.580078,-1.5732422 -0.536133,-0.5449218 -1.344726,-0.5449218 -0.817383,0 -1.362305,0.5449218 -0.536133,0.5449219 -0.5625,1.5732422 z" /><path
       id="path1061"
       style="font-size:18px;font-family:AlteDIN1451Mittelschrift;fill:#1e1e1e;fill-opacity:1;stroke:none"
       d="M 40.078125,-0.34277344 36.808594,-9.1142578 h 1.933593 l 2.16211,6.3896484 h 0.03516 l 2.162109,-6.3896484 h 1.942383 L 41.124023,1.8984375 Q 40.737305,2.953125 40.060547,3.3222656 39.383789,3.7001953 38.548828,3.7001953 H 37.933594 V 1.96875 h 0.544922 q 0.826171,0 1.098632,-0.7910156 z" /></g><g
     id="text30"
     style="font-size:18px;font-family:AlteDIN1451Mittelschrift;fill:#1e1e1e;fill-opacity:1;stroke:none"
     transform="matrix(1 0 0 1 107.8653 17.9062)"
     aria-label="Terrorform"><path
       id="path1129"
       style="font-size:18px;font-family:AlteDIN1451Mittelschrift;fill:#1e1e1e;fill-opacity:1;stroke:none"
       d="M 3.5419922,0.00878906 V -11.074219 H 0.03515625 v -1.722656 H 8.9912109 v 1.722656 H 5.484375 V 0.00878906 Z" /><path
       id="path1131"
       style="font-size:18px;font-family:AlteDIN1451Mittelschrift;fill:#1e1e1e;fill-opacity:1;stroke:none"
       d="m 17.226562,-3.8583984 h -5.677734 q 0,1.125 0.606445,1.6875 0.615235,0.5625 1.564454,0.5625 1.133789,0 2.003906,-0.8789063 l 1.327148,1.1337891 q -0.676758,0.7910156 -1.529297,1.13378904 -0.84375,0.33398437 -1.766601,0.33398437 -1.40625,0 -2.72461,-0.90527343 -1.3183589,-0.91406248 -1.3183589,-3.72656248 0,-2.663086 1.2128909,-3.6826172 1.221679,-1.0195313 2.548828,-1.0195313 1.50293,0 2.627929,1.0458985 1.125,1.0371094 1.125,2.8037109 z m -5.677734,-1.5117188 h 3.84961 q -0.04395,-1.0283203 -0.580079,-1.5732422 -0.536132,-0.5449218 -1.344726,-0.5449218 -0.817383,0 -1.362305,0.5449218 -0.536133,0.5449219 -0.5625,1.5732422 z" /><path
       id="path1133"
       style="font-size:18px;font-family:AlteDIN1451Mittelschrift;fill:#1e1e1e;fill-opacity:1;stroke:none"
       d="M 19.168945,0.00878906 V -9.1142578 h 1.836914 v 0.9755859 h 0.03516 q 0.852539,-1.0810547 2.373046,-1.0810547 1.001954,0 1.907227,0.703125 l -1.327148,1.5820313 q -0.597657,-0.4482422 -1.212891,-0.4482422 -0.676758,0 -1.230469,0.4570313 -0.544922,0.4482421 -0.544922,1.4501953 v 5.48437496 z" /><path
       id="path1135"
       style="font-size:18px;font-family:AlteDIN1451Mittelschrift;fill:#1e1e1e;fill-opacity:1;stroke:none"
       d="M 26.165039,0.00878906 V -9.1142578 h 1.836914 v 0.9755859 h 0.03516 q 0.852539,-1.0810547 2.373047,-1.0810547 1.001953,0 1.907227,0.703125 l -1.327149,1.5820313 q -0.597656,-0.4482422 -1.21289,-0.4482422 -0.676758,0 -1.230469,0.4570313 -0.544922,0.4482421 -0.544922,1.4501953 v 5.48437496 z" /><path
       id="path1137"
       style="font-size:18px;font-family:AlteDIN1451Mittelschrift;fill:#1e1e1e;fill-opacity:1;stroke:none"
       d="m 32.712891,-4.5615234 q 0,-1.4677735 0.228515,-2.1884766 0.228516,-0.7207031 0.75586,-1.3007813 0.377929,-0.4130859 1.037109,-0.7910156 0.667969,-0.3779297 1.740234,-0.3779297 1.054688,0 1.722657,0.3779297 0.667968,0.3779297 1.045898,0.7910156 0.527344,0.5800782 0.755859,1.3007813 0.228516,0.7207031 0.228516,2.1884766 0,1.4941406 -0.228516,2.2148437 -0.228515,0.7207031 -0.755859,1.3007813 -0.37793,0.42187496 -1.045898,0.79101559 -0.667969,0.36914062 -1.722657,0.36914062 -1.072265,0 -1.740234,-0.36914062 -0.65918,-0.36914063 -1.037109,-0.79101559 -0.527344,-0.5800782 -0.75586,-1.3007813 -0.228515,-0.7207031 -0.228515,-2.2148437 z m 5.686523,0.017578 q 0,-0.9931641 -0.105469,-1.3974609 -0.09668,-0.4042969 -0.342773,-0.7734375 -0.483399,-0.6679688 -1.476563,-0.6679688 -1.010742,0 -1.476562,0.6679688 -0.263672,0.3691406 -0.360352,0.7734375 -0.08789,0.4042968 -0.08789,1.3798828 0,1.0019531 0.08789,1.415039 0.09668,0.4042969 0.360352,0.7646485 0.46582,0.6679687 1.476562,0.6679687 0.993164,0 1.476563,-0.6679687 0.246094,-0.3603516 0.342773,-0.7646485 0.105469,-0.4042969 0.105469,-1.3974609 z" /><path
       id="path1139"
       style="font-size:18px;font-family:AlteDIN1451Mittelschrift;fill:#1e1e1e;fill-opacity:1;stroke:none"
       d="M 42.161133,0.00878906 V -9.1142578 h 1.836914 v 0.9755859 h 0.03516 q 0.852539,-1.0810547 2.373047,-1.0810547 1.001953,0 1.907227,0.703125 l -1.327149,1.5820313 q -0.597656,-0.4482422 -1.212891,-0.4482422 -0.676757,0 -1.230468,0.4570313 -0.544922,0.4482421 -0.544922,1.4501953 v 5.48437496 z" /><path
       id="path1141"
       style="font-size:18px;font-family:AlteDIN1451Mittelschrift;fill:#1e1e1e;fill-opacity:1;stroke:none"
       d="M 49.447266,0.00878906 V -7.7080078 h -0.922852 v -1.40625 h 0.922852 v -1.2041012 q 0,-1.274414 0.703125,-1.872071 0.703125,-0.606445 1.77539,-0.606445 h 1.186524 v 1.722656 h -1.03711 q -0.799804,0 -0.799804,0.75586 v 1.2041012 h 1.836914 v 1.40625 h -1.836914 v 7.71679686 z" /><path
       id="path1143"
       style="font-size:18px;font-family:AlteDIN1451Mittelschrift;fill:#1e1e1e;fill-opacity:1;stroke:none"
       d="m 53.701172,-4.5615234 q 0,-1.4677735 0.228515,-2.1884766 0.228516,-0.7207031 0.75586,-1.3007813 0.37793,-0.4130859 1.037109,-0.7910156 0.667969,-0.3779297 1.740235,-0.3779297 1.054687,0 1.722656,0.3779297 0.667969,0.3779297 1.045898,0.7910156 0.527344,0.5800782 0.75586,1.3007813 0.228515,0.7207031 0.228515,2.1884766 0,1.4941406 -0.228515,2.2148437 -0.228516,0.7207031 -0.75586,1.3007813 -0.377929,0.42187496 -1.045898,0.79101559 -0.667969,0.36914062 -1.722656,0.36914062 -1.072266,0 -1.740235,-0.36914062 -0.659179,-0.36914063 -1.037109,-0.79101559 -0.527344,-0.5800782 -0.75586,-1.3007813 -0.228515,-0.7207031 -0.228515,-2.2148437 z m 5.686523,0.017578 q 0,-0.9931641 -0.105468,-1.3974609 -0.09668,-0.4042969 -0.342774,-0.7734375 -0.483398,-0.6679688 -1.476562,-0.6679688 -1.010743,0 -1.476563,0.6679688 -0.263672,0.3691406 -0.360351,0.7734375 -0.08789,0.4042968 -0.08789,1.3798828 0,1.0019531 0.08789,1.415039 0.09668,0.4042969 0.360351,0.7646485 0.46582,0.6679687 1.476563,0.6679687 0.993164,0 1.476562,-0.6679687 0.246094,-0.3603516 0.342774,-0.7646485 0.105468,-0.4042969 0.105468,-1.3974609 z" /><path
       id="path1145"
       style="font-size:18px;font-family:AlteDIN1451Mittelschrift;fill:#1e1e1e;fill-opacity:1;stroke:none"
       d="M 63.149414,0.00878906 V -9.1142578 h 1.836914 v 0.9755859 h 0.03516 q 0.852539,-1.0810547 2.373047,-1.0810547 1.001953,0 1.907227,0.703125 l -1.327149,1.5820313 q -0.597656,-0.4482422 -1.21289,-0.4482422 -0.676758,0 -1.230469,0.4570313 -0.544922,0.4482421 -0.544922,1.4501953 v 5.48437496 z" /><path
       id="path1147"
       style="font-size:18px;font-family:AlteDIN1451Mittelschrift;fill:#1e1e1e;fill-opacity:1;stroke:none"
       d="M 70.250977,0.00878906 V -9.1142578 h 1.836914 v 0.9755859 h 0.03516 q 0.870117,-1.0810547 2.373047,-1.0810547 0.958008,0 1.520508,0.3427735 0.5625,0.3427734 1.054687,0.84375 1.081055,-1.1865235 2.882813,-1.1865235 1.063476,0 2.047851,0.8085938 0.993164,0.8085937 0.993164,2.3554687 V 0.00878906 H 81.158203 V -5.4228516 q 0,-0.9228515 -0.518555,-1.4414062 -0.518554,-0.5185547 -1.283203,-0.5185547 -0.791015,0 -1.30957,0.5185547 -0.509766,0.5185547 -0.509766,1.4414062 V 0.00878906 H 75.708984 V -5.4228516 q 0,-0.9228515 -0.518554,-1.4414062 -0.518555,-0.5185547 -1.283203,-0.5185547 -0.791016,0 -1.309571,0.5185547 -0.509765,0.5185547 -0.509765,1.4414062 v 5.43164066 z" /></g><g
     id="text34"
     style="font-size:10px;font-family:AlteDIN1451Mittelschrift;fill:#1e1e1e;fill-opacity:1;stroke:none"
     transform="matrix(1 0 0 1 6.0637 60.9038)"
     aria-label="VOct"><path
       id="path1150"
       style="font-size:10px;font-family:AlteDIN1451Mittelschrift;fill:#1e1e1e;fill-opacity:1;stroke:none"
       d="M 2.3681641,0.00488281 0.01953125,-7.109375 H 1.1572266 l 1.6210937,5.4150391 h 0.019531 L 4.4189453,-7.109375 H 5.5566406 L 3.2080078,0.00488281 Z" /><path
       id="path1152"
       style="font-size:10px;font-family:AlteDIN1451Mittelschrift;fill:#1e1e1e;fill-opacity:1;stroke:none"
       d="m 6.0839844,-3.5498047 q 0,-1.2841797 0.068359,-1.6552734 0.068359,-0.3710938 0.2441407,-0.6835938 0.2490234,-0.4638672 0.8154297,-0.8740234 0.571289,-0.4101563 1.4111328,-0.4101563 0.8349609,0 1.4013671,0.4101563 0.571289,0.4101562 0.830078,0.8740234 0.170899,0.3125 0.239258,0.6835938 0.06836,0.3710937 0.06836,1.6552734 0,1.2841797 -0.06836,1.6552735 -0.06836,0.3710937 -0.239258,0.6835937 -0.258789,0.46875 -0.830078,0.87402344 -0.5664062,0.40039062 -1.4013671,0.40039062 -0.8398438,0 -1.4111328,-0.40039062 Q 6.6455078,-0.7421875 6.3964844,-1.2109375 6.2207031,-1.5234375 6.1523437,-1.8945312 6.0839844,-2.265625 6.0839844,-3.5498047 Z m 1.0791015,0 q 0,1.0986328 0.073242,1.4257813 0.078125,0.3271484 0.288086,0.5908203 0.1611328,0.2148437 0.4394531,0.3710937 0.2783203,0.1513672 0.6591797,0.1513672 0.3808594,0 0.6591797,-0.1513672 0.2783203,-0.15625 0.4394531,-0.3710937 0.2099609,-0.2636719 0.2832033,-0.5908203 0.07813,-0.3271485 0.07813,-1.4257813 0,-1.09375 -0.07813,-1.4208984 -0.073242,-0.3271485 -0.2832033,-0.600586 -0.1611328,-0.2050781 -0.4394531,-0.3613281 -0.2783203,-0.15625 -0.6591797,-0.15625 -0.3808594,0 -0.6591797,0.15625 -0.2783203,0.15625 -0.4394531,0.3613281 -0.209961,0.2734375 -0.288086,0.600586 -0.073242,0.3271484 -0.073242,1.4208984 z" /><path
       id="path1154"
       style="font-size:10px;font-family:AlteDIN1451Mittelschrift;fill:#1e1e1e;fill-opacity:1;stroke:none"
       d="m 15.307617,-1.484375 0.751953,0.67382812 q -0.332031,0.38085938 -0.791015,0.62988282 -0.454102,0.24414062 -1.030274,0.24414062 -0.878906,0 -1.591797,-0.59570312 -0.708007,-0.60058594 -0.708007,-1.99218754 0,-1.3916015 0.708007,-1.9921875 0.712891,-0.6054687 1.591797,-0.6054687 0.576172,0 1.030274,0.2490234 0.458984,0.2490235 0.791015,0.6298828 l -0.751953,0.6689453 q -0.429687,-0.5273437 -1.030273,-0.5273437 -1.31836,0 -1.31836,1.5771484 0,1.57226566 1.31836,1.57226566 0.605469,0 1.030273,-0.53222656 z" /><path
       id="path1156"
       style="font-size:10px;font-family:AlteDIN1451Mittelschrift;fill:#1e1e1e;fill-opacity:1;stroke:none"
       d="M 16.821289,0.00976563 V -4.2822266 h -0.507812 v -0.78125 h 0.507812 V -5.859375 l 1.020508,-1.0888672 v 1.8847656 h 0.742187 v 0.78125 h -0.742187 v 4.29199223 z" /></g><g
     id="text36"
     style="font-size:10px;font-family:AlteDIN1451Mittelschrift;fill:#1e1e1e;fill-opacity:1;stroke:none"
     transform="matrix(1 0 0 1 275.0642 60.9038)"
     aria-label="VOct"><path
       id="path1159"
       style="font-size:10px;font-family:AlteDIN1451Mittelschrift;fill:#1e1e1e;fill-opacity:1;stroke:none"
       d="M 2.3681641,0.00488281 0.01953125,-7.109375 H 1.1572266 l 1.6210937,5.4150391 h 0.019531 L 4.4189453,-7.109375 H 5.5566406 L 3.2080078,0.00488281 Z" /><path
       id="path1161"
       style="font-size:10px;font-family:AlteDIN1451Mittelschrift;fill:#1e1e1e;fill-opacity:1;stroke:none"
       d="m 6.0839844,-3.5498047 q 0,-1.2841797 0.068359,-1.6552734 0.068359,-0.3710938 0.2441407,-0.6835938 0.2490234,-0.4638672 0.8154297,-0.8740234 0.571289,-0.4101563 1.4111328,-0.4101563 0.8349609,0 1.4013671,0.4101563 0.571289,0.4101562 0.830078,0.8740234 0.170899,0.3125 0.239258,0.6835938 0.06836,0.3710937 0.06836,1.6552734 0,1.2841797 -0.06836,1.6552735 -0.06836,0.3710937 -0.239258,0.6835937 -0.258789,0.46875 -0.830078,0.87402344 -0.5664062,0.40039062 -1.4013671,0.40039062 -0.8398438,0 -1.4111328,-0.40039062 Q 6.6455078,-0.7421875 6.3964844,-1.2109375 6.2207031,-1.5234375 6.1523437,-1.8945312 6.0839844,-2.265625 6.0839844,-3.5498047 Z m 1.0791015,0 q 0,1.0986328 0.073242,1.4257813 0.078125,0.3271484 0.288086,0.5908203 0.1611328,0.2148437 0.4394531,0.3710937 0.2783203,0.1513672 0.6591797,0.1513672 0.3808594,0 0.6591797,-0.1513672 0.2783203,-0.15625 0.4394531,-0.3710937 0.2099609,-0.2636719 0.2832033,-0.5908203 0.07813,-0.3271485 0.07813,-1.4257813 0,-1.09375 -0.07813,-1.4208984 -0.073242,-0.3271485 -0.2832033,-0.600586 -0.1611328,-0.2050781 -0.4394531,-0.3613281 -0.2783203,-0.15625 -0.6591797,-0.15625 -0.3808594,0 -0.6591797,0.15625 -0.2783203,0.15625 -0.4394531,0.3613281 -0.209961,0.2734375 -0.288086,0.600586 -0.073242,0.3271484 -0.073242,1.4208984 z" /><path
       id="path1163"
       style="font-size:10px;font-family:AlteDIN1451Mittelschrift;fill:#1e1e1e;fill-opacity:1;stroke:none"
       d="m 15.307617,-1.484375 0.751953,0.67382812 q -0.332031,0.38085938 -0.791015,0.62988282 -0.454102,0.24414062 -1.030274,0.24414062 -0.878906,0 -1.591797,-0.59570312 -0.708007,-0.60058594 -0.708007,-1.99218754 0,-1.3916015 0.708007,-1.9921875 0.712891,-0.6054687 1.591797,-0.6054687 0.576172,0 1.030274,0.2490234 0.458984,0.2490235 0.791015,0.6298828 l -0.751953,0.6689453 q -0.429687,-0.5273437 -1.030273,-0.5273437 -1.31836,0 -1.31836,1.5771484 0,1.57226566 1.31836,1.57226566 0.605469,0 1.030273,-0.53222656 z" /><path
       id="path1165"
       style="font-size:10px;font-family:AlteDIN1451Mittelschrift;fill:#1e1e1e;fill-opacity:1;stroke:none"
       d="M 16.821289,0.00976563 V -4.2822266 h -0.507812 v -0.78125 h 0.507812 V -5.859375 l 1.020508,-1.0888672 v 1.8847656 h 0.742187 v 0.78125 h -0.742187 v 4.29199223 z" /></g><g
     id="text42"
     style="font-size:10px;font-family:AlteDIN1451Mittelschrift;fill:#1e1e1e;fill-opacity:1;stroke:none"
     transform="matrix(1 0 0 1 224.8785 351.6366)"
     aria-label="Out"><path
       id="path1064"
       style="font-size:10px;font-family:AlteDIN1451Mittelschrift;fill:#1e1e1e;fill-opacity:1;stroke:none"
       d="m 0.51757812,-3.5498047 q 0,-1.2841797 0.0683594,-1.6552734 0.0683594,-0.3710938 0.24414063,-0.6835938 0.24902347,-0.4638672 0.81542967,-0.8740234 0.5712891,-0.4101563 1.4111328,-0.4101563 0.834961,0 1.4013672,0.4101563 0.5712891,0.4101562 0.8300781,0.8740234 0.1708985,0.3125 0.2392578,0.6835938 0.068359,0.3710937 0.068359,1.6552734 0,1.2841797 -0.068359,1.6552735 -0.068359,0.3710937 -0.2392578,0.6835937 -0.258789,0.46875 -0.8300781,0.87402344 -0.5664062,0.40039062 -1.4013672,0.40039062 -0.8398437,0 -1.4111328,-0.40039062 Q 1.0791016,-0.7421875 0.83007813,-1.2109375 0.65429687,-1.5234375 0.5859375,-1.8945312 0.51757812,-2.265625 0.51757812,-3.5498047 Z m 1.07910158,0 q 0,1.0986328 0.073242,1.4257813 0.078125,0.3271484 0.2880859,0.5908203 0.1611328,0.2148437 0.4394531,0.3710937 0.2783204,0.1513672 0.6591797,0.1513672 0.3808594,0 0.6591797,-0.1513672 0.2783203,-0.15625 0.4394531,-0.3710937 0.209961,-0.2636719 0.2832032,-0.5908203 0.078125,-0.3271485 0.078125,-1.4257813 0,-1.09375 -0.078125,-1.4208984 -0.073242,-0.3271485 -0.2832032,-0.600586 -0.1611328,-0.2050781 -0.4394531,-0.3613281 -0.2783203,-0.15625 -0.6591797,-0.15625 -0.3808593,0 -0.6591797,0.15625 -0.2783203,0.15625 -0.4394531,0.3613281 -0.2099609,0.2734375 -0.2880859,0.600586 -0.073242,0.3271484 -0.073242,1.4208984 z" /><path
       id="path1066"
       style="font-size:10px;font-family:AlteDIN1451Mittelschrift;fill:#1e1e1e;fill-opacity:1;stroke:none"
       d="m 6.7626953,-1.6943359 v -3.3691407 h 1.0205078 v 3.022461 q 0,0.5175781 0.2832032,0.805664 0.2880859,0.28320316 0.727539,0.28320316 0.4248047,0 0.7080078,-0.28320316 0.288086,-0.2880859 0.288086,-0.805664 v -3.022461 H 10.810547 V 0.00488281 H 9.7900391 V -0.53222656 H 9.7705078 Q 9.296875,0.06347656 8.4619141,0.06347656 q -0.600586,0 -1.1523438,-0.44433594 -0.546875,-0.44921875 -0.546875,-1.31347652 z" /><path
       id="path1068"
       style="font-size:10px;font-family:AlteDIN1451Mittelschrift;fill:#1e1e1e;fill-opacity:1;stroke:none"
       d="M 12.192383,0.00976563 V -4.2822266 H 11.68457 v -0.78125 h 0.507813 V -5.859375 l 1.020508,-1.0888672 v 1.8847656 h 0.742187 v 0.78125 h -0.742187 v 4.29199223 z" /></g><g
     id="text44"
     style="font-size:10px;font-family:AlteDIN1451Mittelschrift;fill:#1e1e1e;fill-opacity:1;stroke:none"
     transform="matrix(1 0 0 1 195.7751 351.6366)"
     aria-label="Env."><path
       id="path1071"
       style="font-size:10px;font-family:AlteDIN1451Mittelschrift;fill:#1e1e1e;fill-opacity:1;stroke:none"
       d="M 0.75683594,0.00488281 V -7.109375 H 5.3076172 v 1.0205078 H 1.8359375 V -4.0625 h 2.9589844 v 0.9619141 H 1.8359375 v 2.0898437 h 3.4716797 v 1.01562501 z" /><path
       id="path1073"
       style="font-size:10px;font-family:AlteDIN1451Mittelschrift;fill:#1e1e1e;fill-opacity:1;stroke:none"
       d="M 6.2353516,0.00488281 V -5.0634766 h 1.0205078 v 0.5419922 h 0.019531 q 0.4736328,-0.6005859 1.3183594,-0.6005859 0.5908203,0 1.1376953,0.4492187 0.5517577,0.4492188 0.5517577,1.3085938 V 0.00488281 H 9.2626953 V -3.0126953 q 0,-0.5126953 -0.2880859,-0.8007813 -0.2832031,-0.2880859 -0.7080078,-0.2880859 -0.4394532,0 -0.7275391,0.2880859 -0.2832031,0.288086 -0.2832031,0.8007813 v 3.01757811 z" /><path
       id="path1075"
       style="font-size:10px;font-family:AlteDIN1451Mittelschrift;fill:#1e1e1e;fill-opacity:1;stroke:none"
       d="M 12.744141,0.00488281 10.888672,-5.0634766 h 1.079101 l 1.186524,3.5498047 h 0.01953 l 1.191406,-3.5498047 h 1.079102 l -1.860352,5.06835941 z" /><path
       id="path1077"
       style="font-size:10px;font-family:AlteDIN1451Mittelschrift;fill:#1e1e1e;fill-opacity:1;stroke:none"
       d="M 16.069336,0.00488281 V -1.0107422 h 1.020508 v 1.01562501 z" /></g><g
     id="text46"
     style="font-size:8px;font-family:AlteDIN1451Mittelschrift;fill:#1e1e1e;fill-opacity:1;stroke:none"
     transform="matrix(1 0 0 1 131.9531 295.0002)"
     aria-label="Sync Mode"><path
       id="path1432"
       style="font-size:8px;font-family:AlteDIN1451Mittelschrift;fill:#1e1e1e;fill-opacity:1;stroke:none"
       d="M 0.109375,-0.73046875 0.6796875,-1.3789062 Q 1,-1.1210937 1.4179687,-0.96484375 q 0.4179688,0.15625 0.8750001,0.15625 0.5273437,0 0.828125,-0.21874995 0.3007812,-0.21875 0.3007812,-0.5742188 0,-0.671875 -0.7421875,-0.7695313 Q 2.484375,-2.3945313 2.3164063,-2.4179688 2.1484375,-2.4414063 1.9257812,-2.4726563 1.1875,-2.5742188 0.80078125,-3.0117188 0.4140625,-3.453125 0.4140625,-4.0742187 q 0,-0.7265625 0.484375,-1.1953125 0.4882812,-0.46875 1.3710938,-0.46875 0.5273437,0 0.9921875,0.1679687 0.4648437,0.1679688 0.8554687,0.4257813 L 3.6367188,-4.4335937 Q 3.3242188,-4.6289062 2.9648438,-4.75 q -0.359375,-0.1210937 -0.734375,-0.1210937 -0.3984376,0 -0.6757813,0.203125 -0.2773438,0.203125 -0.2773438,0.609375 0,0.2421874 0.1875,0.4531249 0.1875,0.2109375 0.6210938,0.2773438 0.1132813,0.019531 0.2734375,0.042969 0.1601563,0.019531 0.3671875,0.042969 0.796875,0.097656 1.1757813,0.578125 0.3828124,0.4804687 0.3828124,1.0625 0,0.78515625 -0.5429687,1.21875 -0.5429687,0.43359375 -1.4570312,0.43359375 -1.2851563,0 -2.1757813,-0.78125 z" /><path
       id="path1434"
       style="font-size:8px;font-family:AlteDIN1451Mittelschrift;fill:#1e1e1e;fill-opacity:1;stroke:none"
       d="M 6,-0.15234375 4.546875,-4.0507812 H 5.40625 l 0.9609375,2.8398437 h 0.015625 L 7.34375,-4.0507812 H 8.2070313 L 6.4648437,0.84375 Q 6.2929687,1.3125 5.9921875,1.4765625 5.6914062,1.6445312 5.3203125,1.6445312 H 5.046875 V 0.875 h 0.2421875 q 0.3671875,0 0.4882812,-0.3515625 z" /><path
       id="path1436"
       style="font-size:8px;font-family:AlteDIN1451Mittelschrift;fill:#1e1e1e;fill-opacity:1;stroke:none"
       d="M 8.6757813,0.00390625 V -4.0507812 h 0.8164062 v 0.4335937 h 0.015625 q 0.3789063,-0.4804687 1.0546875,-0.4804687 0.472656,0 0.910156,0.3593749 0.441407,0.359375 0.441407,1.046875 V 0.00390625 H 11.097656 V -2.4101563 q 0,-0.4101562 -0.230468,-0.640625 -0.226563,-0.2304687 -0.566407,-0.2304687 -0.3515622,0 -0.582031,0.2304687 -0.2265625,0.2304688 -0.2265625,0.640625 v 2.41406255 z" /><path
       id="path1438"
       style="font-size:8px;font-family:AlteDIN1451Mittelschrift;fill:#1e1e1e;fill-opacity:1;stroke:none"
       d="m 15.355469,-1.1875 0.601562,0.5390625 Q 15.691406,-0.34375 15.324219,-0.14453125 14.960938,0.05078125 14.5,0.05078125 q -0.703125,0 -1.273437,-0.4765625 -0.566407,-0.48046875 -0.566407,-1.59375005 0,-1.1132812 0.566407,-1.59375 0.570312,-0.4843749 1.273437,-0.4843749 0.460938,0 0.824219,0.1992187 0.367187,0.1992187 0.632812,0.5039062 l -0.601562,0.5351563 q -0.34375,-0.421875 -0.824219,-0.421875 -1.054687,0 -1.054687,1.2617187 0,1.25781255 1.054687,1.25781255 0.484375,0 0.824219,-0.42578125 z" /><path
       id="path1440"
       style="font-size:8px;font-family:AlteDIN1451Mittelschrift;fill:#1e1e1e;fill-opacity:1;stroke:none"
       d="M 18.511719,0.00390625 V -5.6875 h 0.816406 L 20.960937,-1.9765625 22.558594,-5.6875 H 23.375 V 0.00390625 H 22.511719 V -3.546875 h -0.01563 l -1.191407,2.73828125 h -0.71875 L 19.394531,-3.546875 H 19.375 v 3.55078125 z" /><path
       id="path1442"
       style="font-size:8px;font-family:AlteDIN1451Mittelschrift;fill:#1e1e1e;fill-opacity:1;stroke:none"
       d="m 24.304687,-2.0273438 q 0,-0.6523437 0.101563,-0.9726562 0.101562,-0.3203125 0.335937,-0.578125 0.167969,-0.1835938 0.460938,-0.3515625 0.296875,-0.1679687 0.773437,-0.1679687 0.46875,0 0.765625,0.1679687 0.296875,0.1679687 0.464844,0.3515625 0.234375,0.2578125 0.335938,0.578125 0.101562,0.3203125 0.101562,0.9726562 0,0.6640626 -0.101562,0.9843751 -0.101563,0.32031245 -0.335938,0.57812495 -0.167969,0.1875 -0.464844,0.3515625 -0.296875,0.1640625 -0.765625,0.1640625 -0.476562,0 -0.773437,-0.1640625 -0.292969,-0.1640625 -0.460938,-0.3515625 -0.234375,-0.2578125 -0.335937,-0.57812495 -0.101563,-0.3203125 -0.101563,-0.9843751 z m 2.527344,0.00781 q 0,-0.4414062 -0.04687,-0.6210937 -0.04297,-0.1796875 -0.152344,-0.34375 -0.214843,-0.296875 -0.65625,-0.296875 -0.449218,0 -0.65625,0.296875 -0.117187,0.1640625 -0.160156,0.34375 -0.03906,0.1796875 -0.03906,0.6132812 0,0.4453126 0.03906,0.6289063 0.04297,0.1796875 0.160156,0.3398438 0.207032,0.29687495 0.65625,0.29687495 0.441407,0 0.65625,-0.29687495 0.109375,-0.1601563 0.152344,-0.3398438 0.04687,-0.1796875 0.04687,-0.6210938 z" /><path
       id="path1444"
       style="font-size:8px;font-family:AlteDIN1451Mittelschrift;fill:#1e1e1e;fill-opacity:1;stroke:none"
       d="m 30.925781,0.00390625 v -0.421875 q -0.425781,0.46875 -1.046875,0.46875 -0.375,0 -0.644531,-0.14453125 Q 28.964844,-0.2421875 28.792969,-0.47265625 28.621094,-0.6875 28.5625,-0.98046875 q -0.05859,-0.29687495 -0.05859,-1.04687505 0,-0.7421875 0.05859,-1.03125 0.05859,-0.2929687 0.230469,-0.5117187 0.171875,-0.2265625 0.441406,-0.375 0.269531,-0.1523437 0.644531,-0.1523437 0.3125,0 0.566406,0.1328124 0.253907,0.1328125 0.480469,0.3476563 V -5.6875 h 0.816406 V 0.00390625 Z M 30.128906,-3.28125 q -0.578125,0 -0.695312,0.3945312 -0.113282,0.3945313 -0.113282,0.859375 0,0.4765626 0.113282,0.8710938 0.117187,0.39453125 0.695312,0.39453125 0.566406,0 0.679688,-0.41015625 0.117187,-0.4101562 0.117187,-0.8554688 0,-0.4335937 -0.117187,-0.84375 Q 30.695312,-3.28125 30.128906,-3.28125 Z" /><path
       id="path1446"
       style="font-size:8px;font-family:AlteDIN1451Mittelschrift;fill:#1e1e1e;fill-opacity:1;stroke:none"
       d="m 35.78125,-1.7148437 h -2.523438 q 0,0.5 0.269532,0.74999995 0.273437,0.25 0.695312,0.25 0.503906,0 0.890625,-0.39062495 l 0.589844,0.5039062 Q 35.402344,-0.25 35.023437,-0.09765625 q -0.375,0.1484375 -0.785156,0.1484375 -0.625,0 -1.210937,-0.40234375 -0.585938,-0.40625 -0.585938,-1.65625 0,-1.1835938 0.539063,-1.6367188 0.542968,-0.4531249 1.132812,-0.4531249 0.667969,0 1.167969,0.4648437 0.5,0.4609375 0.5,1.2460937 z M 33.257812,-2.3867188 H 34.96875 Q 34.949219,-2.84375 34.710937,-3.0859375 34.472656,-3.328125 34.113281,-3.328125 q -0.363281,0 -0.605469,0.2421875 -0.238281,0.2421875 -0.25,0.6992187 z" /></g><path
     style="stroke:#414042;stroke-opacity:1;stroke-width:1;stroke-miterlimit:10;stroke-dasharray:none"
     d="M107,299h86v16h-86V299z"
     class="st12"
     inkscape:connector-curvature="0"
     id="rect75_2_" /><g
     id="text79"
     style="font-size:10px;font-family:AlteDIN1451Mittelschrift;fill:#1e1e1e;fill-opacity:1;stroke:none"
     transform="matrix(1 0 0 1 9.0281 326.7419)"
     aria-label="FM"><path
       id="path1362"
       style="font-size:10px;font-family:AlteDIN1451Mittelschrift;fill:#1e1e1e;fill-opacity:1;stroke:none"
       d="M 0.75683594,0.00488281 V -7.109375 H 5.3076172 v 1.0205078 H 1.8359375 v 2.0947266 h 2.9589844 v 0.961914 H 1.8359375 v 3.03710941 z" /><path
       id="path1364"
       style="font-size:10px;font-family:AlteDIN1451Mittelschrift;fill:#1e1e1e;fill-opacity:1;stroke:none"
       d="M 6.1279297,0.00488281 V -7.109375 h 1.0205078 l 2.0410156,4.6386719 1.9970699,-4.6386719 h 1.020508 V 0.00488281 H 11.12793 V -4.4335937 h -0.01953 L 9.6191406,-1.0107422 H 8.7207031 L 7.2314453,-4.4335937 h -0.024414 v 4.43847651 z" /></g><path
     style="fill:#1e1e1e;fill-opacity:1"
     id="path81"
     d="M201.1,287.7"
     class="st13" /><g
     id="text83"
     style="font-size:10px;font-family:AlteDIN1451Mittelschrift;fill:#1e1e1e;fill-opacity:1;stroke:none"
     transform="matrix(1 0 0 1 53.0072 351.6364)"
     aria-label="Phasor"><path
       id="path1116"
       style="font-size:10px;font-family:AlteDIN1451Mittelschrift;fill:#1e1e1e;fill-opacity:1;stroke:none"
       d="m 1.8359375,-6.0888672 v 2.2949219 H 3.4375 q 0.6005859,0 0.8935547,-0.3613281 0.2978515,-0.3613282 0.2978515,-0.7861328 0,-0.6445313 -0.4638671,-0.9472657 Q 3.8671875,-6.0888672 3.3984375,-6.0888672 Z M 0.75683594,0.00488281 V -7.109375 H 3.3398438 q 0.415039,0 0.7958984,0.087891 0.3857422,0.087891 0.8007812,0.4101563 0.3222657,0.2490234 0.546875,0.6884765 0.2246094,0.4345704 0.2246094,1.0107422 0,0.7617188 -0.5712891,1.4501953 -0.5664062,0.6884766 -1.6601562,0.6884766 h -1.640625 v 2.77832031 z" /><path
       id="path1118"
       style="font-size:10px;font-family:AlteDIN1451Mittelschrift;fill:#1e1e1e;fill-opacity:1;stroke:none"
       d="M 6.6064453,0.00488281 V -7.109375 h 1.0205078 v 2.5878906 h 0.019531 q 0.4736328,-0.6005859 1.3183594,-0.6005859 0.5908203,0 1.1376952,0.4492187 0.551758,0.4492188 0.551758,1.3085938 V 0.00488281 H 9.6337891 V -3.0126953 q 0,-0.5126953 -0.288086,-0.8007813 Q 9.0625,-4.1015625 8.6376953,-4.1015625 q -0.4394531,0 -0.7275391,0.2880859 -0.2832031,0.288086 -0.2832031,0.8007813 v 3.01757811 z" /><path
       id="path1120"
       style="font-size:10px;font-family:AlteDIN1451Mittelschrift;fill:#1e1e1e;fill-opacity:1;stroke:none"
       d="m 14.663086,0.02441406 v -0.44921875 h -0.01953 q -0.141602,0.26367188 -0.424805,0.38085938 -0.302734,0.12695312 -0.791016,0.12695312 -0.839843,-0.01953125 -1.269531,-0.44921875 -0.46875,-0.4296875 -0.46875,-1.09863276 0,-0.6347657 0.405274,-1.0644532 Q 12.5,-2.9589844 13.291016,-2.96875 h 1.37207 v -0.5371094 q 0.0049,-0.6738281 -1.010742,-0.6542968 -0.351563,0 -0.585938,0.078125 -0.229492,0.102539 -0.346679,0.3173828 l -0.78125,-0.6152344 q 0.566406,-0.7568359 1.665039,-0.7373047 0.922851,-0.00977 1.484375,0.3613281 0.551757,0.3857422 0.561523,1.3085938 v 3.47167966 z m 0,-1.78222656 v -0.3710938 h -1.186523 q -0.869141,0.024414 -0.859375,0.6152344 0,0.2539063 0.224609,0.4394532 0.214844,0.20019526 0.708008,0.20019526 0.625,0.009766 0.878906,-0.15136716 0.234375,-0.1611328 0.234375,-0.7324219 z" /><path
       id="path1122"
       style="font-size:10px;font-family:AlteDIN1451Mittelschrift;fill:#1e1e1e;fill-opacity:1;stroke:none"
       d="m 16.220703,-0.83984375 0.712891,-0.70312495 q 0.664062,0.64941401 1.596679,0.64941401 0.434571,0 0.717774,-0.16113281 0.283203,-0.1660156 0.283203,-0.4882812 0,-0.444336 -0.620117,-0.4980469 l -0.898438,-0.083008 q -0.629883,-0.048828 -1.044922,-0.4150391 -0.415039,-0.3662109 -0.415039,-1.0205078 0,-0.7714844 0.541993,-1.1669922 0.541992,-0.3955078 1.347656,-0.3955078 0.664062,0 1.137695,0.1904297 0.473633,0.1855469 0.849609,0.4980469 l -0.629882,0.7421874 q -0.302735,-0.2050781 -0.625,-0.336914 -0.322266,-0.1318359 -0.732422,-0.1318359 -0.488281,0 -0.678711,0.1757812 -0.19043,0.1708984 -0.19043,0.4345703 0,0.1660156 0.141602,0.3076172 0.141601,0.1416016 0.527343,0.1708984 l 0.839844,0.058594 q 0.786133,0.053711 1.12793,0.4882812 0.341797,0.4296875 0.341797,1.0302735 0,0.74707029 -0.610352,1.15234372 -0.610351,0.40527344 -1.489258,0.40527344 -1.264648,0 -2.231445,-0.90332031 z" /><path
       id="path1124"
       style="font-size:10px;font-family:AlteDIN1451Mittelschrift;fill:#1e1e1e;fill-opacity:1;stroke:none"
       d="m 21.337891,-2.5341797 q 0,-0.8154297 0.126953,-1.2158203 0.126953,-0.4003906 0.419922,-0.7226562 0.209961,-0.2294922 0.576171,-0.4394532 0.371094,-0.2099609 0.966797,-0.2099609 0.585938,0 0.957032,0.2099609 0.371093,0.209961 0.581054,0.4394532 0.292969,0.3222656 0.419922,0.7226562 0.126953,0.4003906 0.126953,1.2158203 0,0.8300781 -0.126953,1.2304688 -0.126953,0.40039059 -0.419922,0.72265621 -0.209961,0.234375 -0.581054,0.43945313 -0.371094,0.20507812 -0.957032,0.20507812 -0.595703,0 -0.966797,-0.20507812 -0.36621,-0.20507813 -0.576171,-0.43945313 -0.292969,-0.32226562 -0.419922,-0.72265621 -0.126953,-0.4003907 -0.126953,-1.2304688 z m 3.159179,0.00977 q 0,-0.5517578 -0.05859,-0.7763672 -0.05371,-0.2246093 -0.19043,-0.4296875 -0.268555,-0.3710937 -0.820313,-0.3710937 -0.561523,0 -0.820312,0.3710937 -0.146485,0.2050782 -0.200195,0.4296875 -0.04883,0.2246094 -0.04883,0.7666016 0,0.5566406 0.04883,0.7861328 0.05371,0.2246094 0.200195,0.4248047 0.258789,0.37109376 0.820312,0.37109376 0.551758,0 0.820313,-0.37109376 0.136719,-0.2001953 0.19043,-0.4248047 0.05859,-0.2246093 0.05859,-0.7763672 z" /><path
       id="path1126"
       style="font-size:10px;font-family:AlteDIN1451Mittelschrift;fill:#1e1e1e;fill-opacity:1;stroke:none"
       d="M 26.586914,0.00488281 V -5.0634766 h 1.020508 v 0.5419922 h 0.01953 q 0.473633,-0.6005859 1.318359,-0.6005859 0.556641,0 1.059571,0.390625 l -0.737305,0.8789062 q -0.332031,-0.2490234 -0.673828,-0.2490234 -0.375977,0 -0.683594,0.2539062 -0.302734,0.2490235 -0.302734,0.8056641 v 3.04687501 z" /></g><g
     id="text85"
     style="font-size:10px;font-family:AlteDIN1451Mittelschrift;fill:#1e1e1e;fill-opacity:1;stroke:none"
     transform="matrix(1 0 0 1 86.7273 351.6366)"
     aria-label="EOC"><path
       id="path1098"
       style="font-size:10px;font-family:AlteDIN1451Mittelschrift;fill:#1e1e1e;fill-opacity:1;stroke:none"
       d="M 0.75683594,0.00488281 V -7.109375 H 5.3076172 v 1.0205078 H 1.8359375 V -4.0625 h 2.9589844 v 0.9619141 H 1.8359375 v 2.0898437 h 3.4716797 v 1.01562501 z" /><path
       id="path1100"
       style="font-size:10px;font-family:AlteDIN1451Mittelschrift;fill:#1e1e1e;fill-opacity:1;stroke:none"
       d="m 6.0839844,-3.5498047 q 0,-1.2841797 0.068359,-1.6552734 0.068359,-0.3710938 0.2441407,-0.6835938 0.2490234,-0.4638672 0.8154297,-0.8740234 0.571289,-0.4101563 1.4111328,-0.4101563 0.8349609,0 1.4013671,0.4101563 0.571289,0.4101562 0.830078,0.8740234 0.170899,0.3125 0.239258,0.6835938 0.06836,0.3710937 0.06836,1.6552734 0,1.2841797 -0.06836,1.6552735 -0.06836,0.3710937 -0.239258,0.6835937 -0.258789,0.46875 -0.830078,0.87402344 -0.5664062,0.40039062 -1.4013671,0.40039062 -0.8398438,0 -1.4111328,-0.40039062 Q 6.6455078,-0.7421875 6.3964844,-1.2109375 6.2207031,-1.5234375 6.1523437,-1.8945312 6.0839844,-2.265625 6.0839844,-3.5498047 Z m 1.0791015,0 q 0,1.0986328 0.073242,1.4257813 0.078125,0.3271484 0.288086,0.5908203 0.1611328,0.2148437 0.4394531,0.3710937 0.2783203,0.1513672 0.6591797,0.1513672 0.3808594,0 0.6591797,-0.1513672 0.2783203,-0.15625 0.4394531,-0.3710937 0.2099609,-0.2636719 0.2832033,-0.5908203 0.07813,-0.3271485 0.07813,-1.4257813 0,-1.09375 -0.07813,-1.4208984 -0.073242,-0.3271485 -0.2832033,-0.600586 -0.1611328,-0.2050781 -0.4394531,-0.3613281 -0.2783203,-0.15625 -0.6591797,-0.15625 -0.3808594,0 -0.6591797,0.15625 -0.2783203,0.15625 -0.4394531,0.3613281 -0.209961,0.2734375 -0.288086,0.600586 -0.073242,0.3271484 -0.073242,1.4208984 z" /><path
       id="path1102"
       style="font-size:10px;font-family:AlteDIN1451Mittelschrift;fill:#1e1e1e;fill-opacity:1;stroke:none"
       d="m 16.079102,-1.9824219 h 1.137695 q -0.209961,0.99609377 -0.898438,1.52343752 -0.688476,0.52246094 -1.601562,0.52246094 -0.839844,0 -1.411133,-0.40039062 -0.566406,-0.40527344 -0.81543,-0.87402344 -0.175781,-0.3125 -0.24414,-0.6835937 -0.06836,-0.3710938 -0.06836,-1.6552735 0,-1.2841797 0.06836,-1.6552734 0.06836,-0.3710938 0.24414,-0.6835938 0.249024,-0.4638672 0.81543,-0.8740234 0.571289,-0.4101563 1.411133,-0.4101563 1.010742,0 1.669922,0.625 0.664062,0.6201172 0.830078,1.484375 h -1.137695 q -0.131836,-0.4101562 -0.493164,-0.7177734 -0.356446,-0.3076172 -0.869141,-0.3076172 -0.380859,0 -0.65918,0.15625 -0.27832,0.15625 -0.439453,0.3613281 -0.209961,0.2734375 -0.288086,0.600586 -0.07324,0.3271484 -0.07324,1.4208984 0,1.0986328 0.07324,1.4257813 0.07813,0.3271484 0.288086,0.5908203 0.161133,0.2148437 0.439453,0.3710937 0.278321,0.1513672 0.65918,0.1513672 0.898437,0 1.362305,-0.9716797 z" /></g><g
     id="text87"
     style="font-size:10px;font-family:AlteDIN1451Mittelschrift;fill:#1e1e1e;fill-opacity:1;stroke:none"
     transform="matrix(1 0 0 1 164.3326 351.637)"
     aria-label="Enhnc"><path
       id="path1080"
       style="font-size:10px;font-family:AlteDIN1451Mittelschrift;fill:#1e1e1e;fill-opacity:1;stroke:none"
       d="M 0.75683594,0.00488281 V -7.109375 H 5.3076172 v 1.0205078 H 1.8359375 V -4.0625 h 2.9589844 v 0.9619141 H 1.8359375 v 2.0898437 h 3.4716797 v 1.01562501 z" /><path
       id="path1082"
       style="font-size:10px;font-family:AlteDIN1451Mittelschrift;fill:#1e1e1e;fill-opacity:1;stroke:none"
       d="M 6.2353516,0.00488281 V -5.0634766 h 1.0205078 v 0.5419922 h 0.019531 q 0.4736328,-0.6005859 1.3183594,-0.6005859 0.5908203,0 1.1376953,0.4492187 0.5517577,0.4492188 0.5517577,1.3085938 V 0.00488281 H 9.2626953 V -3.0126953 q 0,-0.5126953 -0.2880859,-0.8007813 -0.2832031,-0.2880859 -0.7080078,-0.2880859 -0.4394532,0 -0.7275391,0.2880859 -0.2832031,0.288086 -0.2832031,0.8007813 v 3.01757811 z" /><path
       id="path1084"
       style="font-size:10px;font-family:AlteDIN1451Mittelschrift;fill:#1e1e1e;fill-opacity:1;stroke:none"
       d="M 11.606445,0.00488281 V -7.109375 h 1.020508 v 2.5878906 h 0.01953 q 0.473633,-0.6005859 1.31836,-0.6005859 0.59082,0 1.137695,0.4492187 0.551758,0.4492188 0.551758,1.3085938 V 0.00488281 H 14.633789 V -3.0126953 q 0,-0.5126953 -0.288086,-0.8007813 -0.283203,-0.2880859 -0.708008,-0.2880859 -0.439453,0 -0.727539,0.2880859 -0.283203,0.288086 -0.283203,0.8007813 v 3.01757811 z" /><path
       id="path1086"
       style="font-size:10px;font-family:AlteDIN1451Mittelschrift;fill:#1e1e1e;fill-opacity:1;stroke:none"
       d="M 16.977539,0.00488281 V -5.0634766 h 1.020508 v 0.5419922 h 0.01953 q 0.473633,-0.6005859 1.318359,-0.6005859 0.590821,0 1.137696,0.4492187 0.551758,0.4492188 0.551758,1.3085938 V 0.00488281 H 20.004883 V -3.0126953 q 0,-0.5126953 -0.288086,-0.8007813 -0.283203,-0.2880859 -0.708008,-0.2880859 -0.439453,0 -0.727539,0.2880859 -0.283203,0.288086 -0.283203,0.8007813 v 3.01757811 z" /><path
       id="path1088"
       style="font-size:10px;font-family:AlteDIN1451Mittelschrift;fill:#1e1e1e;fill-opacity:1;stroke:none"
       d="m 25.327148,-1.484375 0.751954,0.67382812 q -0.332032,0.38085938 -0.791016,0.62988282 -0.454102,0.24414062 -1.030274,0.24414062 -0.878906,0 -1.591796,-0.59570312 -0.708008,-0.60058594 -0.708008,-1.99218754 0,-1.3916015 0.708008,-1.9921875 0.71289,-0.6054687 1.591796,-0.6054687 0.576172,0 1.030274,0.2490234 0.458984,0.2490235 0.791016,0.6298828 l -0.751954,0.6689453 q -0.429687,-0.5273437 -1.030273,-0.5273437 -1.318359,0 -1.318359,1.5771484 0,1.57226566 1.318359,1.57226566 0.605469,0 1.030273,-0.53222656 z" /></g><g
     id="text89"
     style="font-size:10px;font-family:AlteDIN1451Mittelschrift;fill:#1e1e1e;fill-opacity:1;stroke:none"
     transform="matrix(1 0 0 1 140.9402 351.637)"
     aria-label="Raw"><path
       id="path1091"
       style="font-size:10px;font-family:AlteDIN1451Mittelschrift;fill:#1e1e1e;fill-opacity:1;stroke:none"
       d="m 1.8359375,-6.1523437 v 2.1582031 h 1.6308594 q 0.6054687,0 0.9082031,-0.3369141 0.3027344,-0.336914 0.3027344,-0.7910156 0,-0.5419922 -0.3613282,-0.8105469 Q 4.0136719,-6.1523437 3.5302734,-6.1523437 Z M 0.75683594,0.00488281 V -7.109375 H 3.5400391 q 0.9130859,0 1.4453125,0.46875 0.2978515,0.2587891 0.5029296,0.6494141 0.209961,0.390625 0.209961,0.8691406 0,0.6884766 -0.3710938,1.2207031 -0.3662109,0.5273438 -1.0107422,0.7470703 L 5.9667969,0.00488281 H 4.6875 L 3.2177734,-3.0322266 H 1.8359375 v 3.03710941 z" /><path
       id="path1093"
       style="font-size:10px;font-family:AlteDIN1451Mittelschrift;fill:#1e1e1e;fill-opacity:1;stroke:none"
       d="M 9.4482422,0.02441406 V -0.42480469 H 9.4287109 Q 9.2871094,-0.16113281 9.0039063,-0.04394531 8.7011719,0.08300781 8.2128906,0.08300781 7.3730469,0.06347656 6.9433594,-0.36621094 q -0.46875,-0.4296875 -0.46875,-1.09863276 0,-0.6347657 0.4052734,-1.0644532 Q 7.2851562,-2.9589844 8.0761719,-2.96875 H 9.4482422 V -3.5058594 Q 9.453125,-4.1796875 8.4375,-4.1601562 q -0.3515625,0 -0.5859375,0.078125 -0.2294922,0.102539 -0.3466797,0.3173828 l -0.78125,-0.6152344 q 0.5664063,-0.7568359 1.6650391,-0.7373047 0.9228515,-0.00977 1.484375,0.3613281 0.5517581,0.3857422 0.5615231,1.3085938 v 3.47167966 z m 0,-1.78222656 V -2.1289063 H 8.2617188 q -0.8691407,0.024414 -0.8593751,0.6152344 0,0.2539063 0.2246094,0.4394532 0.2148438,0.20019526 0.7080078,0.20019526 0.625,0.009766 0.8789063,-0.15136716 0.234375,-0.1611328 0.234375,-0.7324219 z" /><path
       id="path1095"
       style="font-size:10px;font-family:AlteDIN1451Mittelschrift;fill:#1e1e1e;fill-opacity:1;stroke:none"
       d="M 15.585938,0.00488281 14.526367,-3.5400391 h -0.01953 l -1.05957,3.54492191 H 12.548828 L 10.927734,-5.0634766 h 1.079102 l 0.97168,3.5498047 h 0.01953 l 1.147461,-3.5498047 h 0.742187 l 1.147461,3.5498047 h 0.01953 l 0.97168,-3.5498047 h 1.079102 l -1.621094,5.06835941 z" /></g><g
     id="text91"
     style="font-size:10px;font-family:AlteDIN1451Mittelschrift;fill:#1e1e1e;fill-opacity:1;stroke:none"
     transform="matrix(1 0 0 1 109.5144 351.5735)"
     aria-label="Shapd"><path
       id="path1105"
       style="font-size:10px;font-family:AlteDIN1451Mittelschrift;fill:#1e1e1e;fill-opacity:1;stroke:none"
       d="M 0.13671875,-0.91308594 0.84960938,-1.7236328 Q 1.25,-1.4013672 1.7724609,-1.2060547 q 0.522461,0.1953125 1.09375,0.1953125 0.6591797,0 1.0351563,-0.2734375 0.3759765,-0.2734375 0.3759765,-0.7177734 0,-0.8398438 -0.9277343,-0.9619141 -0.2441406,-0.029297 -0.4541016,-0.058594 -0.2099609,-0.029297 -0.4882812,-0.068359 -0.9228516,-0.1269531 -1.40625,-0.6738281 -0.48339848,-0.5517578 -0.48339848,-1.328125 0,-0.9082032 0.60546878,-1.4941407 0.6103515,-0.5859375 1.7138672,-0.5859375 0.6591797,0 1.2402343,0.209961 0.5810547,0.2099609 1.069336,0.5322265 l -0.600586,0.8886719 Q 4.1552734,-5.7861328 3.7060547,-5.9375 3.2568359,-6.0888672 2.7880859,-6.0888672 q -0.4980468,0 -0.8447265,0.2539063 -0.3466797,0.2539062 -0.3466797,0.7617187 0,0.3027344 0.234375,0.5664063 0.234375,0.2636718 0.7763672,0.3466797 0.1416015,0.024414 0.3417969,0.053711 0.2001953,0.024414 0.4589843,0.053711 0.9960938,0.1220703 1.4697266,0.7226563 0.4785156,0.6005859 0.4785156,1.328125 0,0.9814453 -0.6787109,1.52343747 -0.678711,0.54199219 -1.8212891,0.54199219 -1.6064453,0 -2.71972655,-0.9765625 z" /><path
       id="path1107"
       style="font-size:10px;font-family:AlteDIN1451Mittelschrift;fill:#1e1e1e;fill-opacity:1;stroke:none"
       d="M 6.4111328,0.00488281 V -7.109375 h 1.0205078 v 2.5878906 h 0.019531 q 0.4736328,-0.6005859 1.3183594,-0.6005859 0.5908203,0 1.1376953,0.4492187 0.5517574,0.4492188 0.5517574,1.3085938 V 0.00488281 H 9.4384766 V -3.0126953 q 0,-0.5126953 -0.288086,-0.8007813 -0.2832031,-0.2880859 -0.7080078,-0.2880859 -0.4394531,0 -0.7275391,0.2880859 -0.2832031,0.288086 -0.2832031,0.8007813 v 3.01757811 z" /><path
       id="path1109"
       style="font-size:10px;font-family:AlteDIN1451Mittelschrift;fill:#1e1e1e;fill-opacity:1;stroke:none"
       d="m 14.467773,0.02441406 v -0.44921875 h -0.01953 q -0.141601,0.26367188 -0.424804,0.38085938 -0.302735,0.12695312 -0.791016,0.12695312 -0.839844,-0.01953125 -1.269531,-0.44921875 -0.46875,-0.4296875 -0.46875,-1.09863276 0,-0.6347657 0.405273,-1.0644532 0.405274,-0.4296875 1.196289,-0.4394531 h 1.37207 v -0.5371094 q 0.0049,-0.6738281 -1.010742,-0.6542968 -0.351562,0 -0.585937,0.078125 -0.229492,0.102539 -0.34668,0.3173828 l -0.78125,-0.6152344 q 0.566406,-0.7568359 1.665039,-0.7373047 0.922852,-0.00977 1.484375,0.3613281 0.551758,0.3857422 0.561524,1.3085938 v 3.47167966 z m 0,-1.78222656 V -2.1289063 H 13.28125 q -0.869141,0.024414 -0.859375,0.6152344 0,0.2539063 0.224609,0.4394532 0.214844,0.20019526 0.708008,0.20019526 0.625,0.009766 0.878906,-0.15136716 0.234375,-0.1611328 0.234375,-0.7324219 z" /><path
       id="path1111"
       style="font-size:10px;font-family:AlteDIN1451Mittelschrift;fill:#1e1e1e;fill-opacity:1;stroke:none"
       d="m 16.586914,2.0556641 v -7.1191407 h 1.020508 V -4.53125 q 0.532226,-0.5908203 1.308594,-0.5908203 0.463867,0 0.800781,0.1904297 0.336914,0.1855469 0.55664,0.46875 0.209961,0.2734375 0.283204,0.6396484 0.07813,0.3613281 0.07813,1.2988281 0,0.9326172 -0.07813,1.2988282 -0.07324,0.3662109 -0.283204,0.63476559 -0.219726,0.28808593 -0.55664,0.47363281 -0.336914,0.18066406 -0.800781,0.18066406 -0.395508,0 -0.712891,-0.16113281 -0.3125,-0.16113281 -0.595703,-0.43457031 V 2.0556641 Z m 2.021484,-3.00781254 q 0.717774,0 0.859375,-0.49316406 0.146485,-0.4931641 0.146485,-1.0791016 0,-0.5859375 -0.146485,-1.0791015 -0.141601,-0.4980469 -0.859375,-0.4980469 -0.717773,0 -0.859375,0.5126953 -0.141601,0.5126953 -0.141601,1.0644531 0,0.5517579 0.141601,1.0644532 0.141602,0.50781246 0.859375,0.50781246 z" /><path
       id="path1113"
       style="font-size:10px;font-family:AlteDIN1451Mittelschrift;fill:#1e1e1e;fill-opacity:1;stroke:none"
       d="m 24.80957,0.00488281 v -0.52734375 q -0.532226,0.5859375 -1.308593,0.5859375 -0.46875,0 -0.805665,-0.18066406 -0.336914,-0.18554688 -0.551757,-0.47363281 -0.214844,-0.26855469 -0.288086,-0.63476559 -0.07324,-0.3710938 -0.07324,-1.3085938 0,-0.9277344 0.07324,-1.2890625 0.07324,-0.3662109 0.288086,-0.6396484 0.214843,-0.2832031 0.551757,-0.46875 0.336915,-0.1904297 0.805665,-0.1904297 0.390625,0 0.708007,0.1660156 0.317383,0.1660156 0.600586,0.4345703 V -7.109375 h 1.020508 V 0.00488281 Z M 23.813477,-4.1015625 q -0.722657,0 -0.869141,0.4931641 -0.141602,0.493164 -0.141602,1.0742187 0,0.5957031 0.141602,1.0888672 0.146484,0.49316406 0.869141,0.49316406 0.708007,0 0.849609,-0.51269526 0.146484,-0.5126954 0.146484,-1.069336 0,-0.5419922 -0.146484,-1.0546875 -0.141602,-0.5126953 -0.849609,-0.5126953 z" /></g><g
     id="text93"
     style="font-size:10px;font-family:AlteDIN1451Mittelschrift;fill:#1e1e1e;fill-opacity:1;stroke:none"
     transform="matrix(1 0 0 1 6.7283 292.8593)"
     aria-label="VCA"><path
       id="path1367"
       style="font-size:10px;font-family:AlteDIN1451Mittelschrift;fill:#1e1e1e;fill-opacity:1;stroke:none"
       d="M 2.3681641,0.00488281 0.01953125,-7.109375 H 1.1572266 l 1.6210937,5.4150391 h 0.019531 L 4.4189453,-7.109375 H 5.5566406 L 3.2080078,0.00488281 Z" /><path
       id="path1369"
       style="font-size:10px;font-family:AlteDIN1451Mittelschrift;fill:#1e1e1e;fill-opacity:1;stroke:none"
       d="m 9.9853516,-1.9824219 h 1.1376954 q -0.209961,0.99609377 -0.898438,1.52343752 -0.6884762,0.52246094 -1.6015621,0.52246094 -0.8398438,0 -1.4111328,-0.40039062 -0.5664063,-0.40527344 -0.8154297,-0.87402344 -0.1757813,-0.3125 -0.2441407,-0.6835937 -0.068359,-0.3710938 -0.068359,-1.6552735 0,-1.2841797 0.068359,-1.6552734 0.068359,-0.3710938 0.2441407,-0.6835938 0.2490234,-0.4638672 0.8154297,-0.8740234 0.571289,-0.4101563 1.4111328,-0.4101563 1.0107422,0 1.6699221,0.625 0.664062,0.6201172 0.830078,1.484375 H 9.9853516 Q 9.8535156,-5.4736328 9.4921875,-5.78125 9.1357422,-6.0888672 8.6230469,-6.0888672 q -0.3808594,0 -0.6591797,0.15625 -0.2783203,0.15625 -0.4394531,0.3613281 -0.209961,0.2734375 -0.288086,0.600586 -0.073242,0.3271484 -0.073242,1.4208984 0,1.0986328 0.073242,1.4257813 0.078125,0.3271484 0.288086,0.5908203 0.1611328,0.2148437 0.4394531,0.3710937 0.2783203,0.1513672 0.6591797,0.1513672 0.8984375,0 1.3623047,-0.9716797 z" /><path
       id="path1371"
       style="font-size:10px;font-family:AlteDIN1451Mittelschrift;fill:#1e1e1e;fill-opacity:1;stroke:none"
       d="m 11.142578,0 2.597656,-7.1191406 h 0.888672 L 17.226562,0 H 16.09375 L 15.546875,-1.6064453 H 12.84668 L 12.280273,0 Z m 2.021485,-2.5585938 h 2.060546 Q 15,-3.2177734 14.868164,-3.5888672 q -0.126953,-0.3759766 -0.224609,-0.6640625 -0.09277,-0.2880859 -0.19043,-0.5859375 -0.09766,-0.2978515 -0.258789,-0.805664 -0.170898,0.5273437 -0.273438,0.8447265 -0.102539,0.3125 -0.200195,0.6054688 -0.09277,0.2929687 -0.219726,0.6542968 -0.122071,0.3613282 -0.336914,0.9814453 z" /></g><g
     id="text95"
     style="font-size:10px;font-family:AlteDIN1451Mittelschrift;fill:#1e1e1e;fill-opacity:1;stroke:none"
     transform="matrix(1 0 0 1 277.9504 326.7419)"
     aria-label="FM"><path
       id="path1039"
       style="font-size:10px;font-family:AlteDIN1451Mittelschrift;fill:#1e1e1e;fill-opacity:1;stroke:none"
       d="M 0.75683594,0.00488281 V -7.109375 H 5.3076172 v 1.0205078 H 1.8359375 v 2.0947266 h 2.9589844 v 0.961914 H 1.8359375 v 3.03710941 z" /><path
       id="path1041"
       style="font-size:10px;font-family:AlteDIN1451Mittelschrift;fill:#1e1e1e;fill-opacity:1;stroke:none"
       d="M 6.1279297,0.00488281 V -7.109375 h 1.0205078 l 2.0410156,4.6386719 1.9970699,-4.6386719 h 1.020508 V 0.00488281 H 11.12793 V -4.4335937 h -0.01953 L 9.6191406,-1.0107422 H 8.7207031 L 7.2314453,-4.4335937 h -0.024414 v 4.43847651 z" /></g><g
     id="text97"
     style="font-size:10px;font-family:AlteDIN1451Mittelschrift;fill:#1e1e1e;fill-opacity:1;stroke:none"
     transform="matrix(1 0 0 1 275.6506 292.8593)"
     aria-label="VCA"><path
       id="path1044"
       style="font-size:10px;font-family:AlteDIN1451Mittelschrift;fill:#1e1e1e;fill-opacity:1;stroke:none"
       d="M 2.3681641,0.00488281 0.01953125,-7.109375 H 1.1572266 l 1.6210937,5.4150391 h 0.019531 L 4.4189453,-7.109375 H 5.5566406 L 3.2080078,0.00488281 Z" /><path
       id="path1046"
       style="font-size:10px;font-family:AlteDIN1451Mittelschrift;fill:#1e1e1e;fill-opacity:1;stroke:none"
       d="m 9.9853516,-1.9824219 h 1.1376954 q -0.209961,0.99609377 -0.898438,1.52343752 -0.6884762,0.52246094 -1.6015621,0.52246094 -0.8398438,0 -1.4111328,-0.40039062 -0.5664063,-0.40527344 -0.8154297,-0.87402344 -0.1757813,-0.3125 -0.2441407,-0.6835937 -0.068359,-0.3710938 -0.068359,-1.6552735 0,-1.2841797 0.068359,-1.6552734 0.068359,-0.3710938 0.2441407,-0.6835938 0.2490234,-0.4638672 0.8154297,-0.8740234 0.571289,-0.4101563 1.4111328,-0.4101563 1.0107422,0 1.6699221,0.625 0.664062,0.6201172 0.830078,1.484375 H 9.9853516 Q 9.8535156,-5.4736328 9.4921875,-5.78125 9.1357422,-6.0888672 8.6230469,-6.0888672 q -0.3808594,0 -0.6591797,0.15625 -0.2783203,0.15625 -0.4394531,0.3613281 -0.209961,0.2734375 -0.288086,0.600586 -0.073242,0.3271484 -0.073242,1.4208984 0,1.0986328 0.073242,1.4257813 0.078125,0.3271484 0.288086,0.5908203 0.1611328,0.2148437 0.4394531,0.3710937 0.2783203,0.1513672 0.6591797,0.1513672 0.8984375,0 1.3623047,-0.9716797 z" /><path
       id="path1048"
       style="font-size:10px;font-family:AlteDIN1451Mittelschrift;fill:#1e1e1e;fill-opacity:1;stroke:none"
       d="m 11.142578,0 2.597656,-7.1191406 h 0.888672 L 17.226562,0 H 16.09375 L 15.546875,-1.6064453 H 12.84668 L 12.280273,0 Z m 2.021485,-2.5585938 h 2.060546 Q 15,-3.2177734 14.868164,-3.5888672 q -0.126953,-0.3759766 -0.224609,-0.6640625 -0.09277,-0.2880859 -0.19043,-0.5859375 -0.09766,-0.2978515 -0.258789,-0.805664 -0.170898,0.5273437 -0.273438,0.8447265 -0.102539,0.3125 -0.200195,0.6054688 -0.09277,0.2929687 -0.219726,0.6542968 -0.122071,0.3613282 -0.336914,0.9814453 z" /></g><path
     style="stroke:#1e1e1e;stroke-opacity:1;fill:none;fill-opacity:1;stroke-width:1;stroke-miterlimit:10;stroke-dasharray:none"
     id="path114"
     d="M71.5,248.4c0,0-5.2,91.2-56.5,90.6"
     class="st14" /><path
     style="fill:none;fill-opacity:1;stroke:#1e1e1e;stroke-opacity:1;stroke-width:1;stroke-miterlimit:10;stroke-dasharray:none"
     id="path116"
     d="M66,282c0,0-8.4,25-51,25"
     class="st14" /><path
     style="fill:none;fill-opacity:1;stroke:#1e1e1e;stroke-opacity:1;stroke-width:1;stroke-miterlimit:10;stroke-dasharray:none"
     id="path118"
     d="M71.5,248.4c0,0-13.7,48.2-56.4,22.7"
     class="st14" /><g
     style="fill:#e6e6e6;fill-opacity:1;stroke:#1e1e1e;stroke-opacity:1"
     id="g126"><circle
       style="fill:#e6e6e6;fill-opacity:1;stroke:#1e1e1e;stroke-opacity:1"
       id="circle120"
       r="5.5"
       cy="282"
       cx="66"
       class="st15" /><line
       style="fill:#e6e6e6;fill-opacity:1;stroke:#1e1e1e;stroke-opacity:1"
       id="line122"
       y2="276.5"
       x2="66"
       y1="287.4"
       x1="66"
       class="st14" /><line
       style="fill:#e6e6e6;fill-opacity:1;stroke:#1e1e1e;stroke-opacity:1"
       id="line124"
       y2="282"
       x2="71.5"
       y1="282"
       x1="60.5"
       class="st14" /></g><g
     id="text128"
     style="font-size:10px;font-family:AlteDIN1451Mittelschrift;fill:#1e1e1e;fill-opacity:1;stroke:none"
     transform="matrix(1 0 0 1 202.01 283.8968)"
     aria-label="Sync"><path
       id="path1414"
       style="font-size:10px;font-family:AlteDIN1451Mittelschrift;fill:#1e1e1e;fill-opacity:1;stroke:none"
       d="M 0.13671875,-0.91308594 0.84960938,-1.7236328 Q 1.25,-1.4013672 1.7724609,-1.2060547 q 0.522461,0.1953125 1.09375,0.1953125 0.6591797,0 1.0351563,-0.2734375 0.3759765,-0.2734375 0.3759765,-0.7177734 0,-0.8398438 -0.9277343,-0.9619141 -0.2441406,-0.029297 -0.4541016,-0.058594 -0.2099609,-0.029297 -0.4882812,-0.068359 -0.9228516,-0.1269531 -1.40625,-0.6738281 -0.48339848,-0.5517578 -0.48339848,-1.328125 0,-0.9082032 0.60546878,-1.4941407 0.6103515,-0.5859375 1.7138672,-0.5859375 0.6591797,0 1.2402343,0.209961 0.5810547,0.2099609 1.069336,0.5322265 l -0.600586,0.8886719 Q 4.1552734,-5.7861328 3.7060547,-5.9375 3.2568359,-6.0888672 2.7880859,-6.0888672 q -0.4980468,0 -0.8447265,0.2539063 -0.3466797,0.2539062 -0.3466797,0.7617187 0,0.3027344 0.234375,0.5664063 0.234375,0.2636718 0.7763672,0.3466797 0.1416015,0.024414 0.3417969,0.053711 0.2001953,0.024414 0.4589843,0.053711 0.9960938,0.1220703 1.4697266,0.7226563 0.4785156,0.6005859 0.4785156,1.328125 0,0.9814453 -0.6787109,1.52343747 -0.678711,0.54199219 -1.8212891,0.54199219 -1.6064453,0 -2.71972655,-0.9765625 z" /><path
       id="path1416"
       style="font-size:10px;font-family:AlteDIN1451Mittelschrift;fill:#1e1e1e;fill-opacity:1;stroke:none"
       d="M 7.5,-0.19042969 5.6835937,-5.0634766 h 1.0742188 l 1.2011719,3.5498047 h 0.019531 L 9.1796875,-5.0634766 H 10.258789 L 8.0810547,1.0546875 Q 7.8662109,1.640625 7.4902344,1.8457031 7.1142578,2.0556641 6.6503906,2.0556641 H 6.3085937 V 1.09375 h 0.3027344 q 0.4589844,0 0.6103516,-0.43945313 z" /><path
       id="path1418"
       style="font-size:10px;font-family:AlteDIN1451Mittelschrift;fill:#1e1e1e;fill-opacity:1;stroke:none"
       d="M 10.844727,0.00488281 V -5.0634766 h 1.020507 v 0.5419922 h 0.01953 q 0.473632,-0.6005859 1.318359,-0.6005859 0.59082,0 1.137695,0.4492187 0.551758,0.4492188 0.551758,1.3085938 V 0.00488281 H 13.87207 V -3.0126953 q 0,-0.5126953 -0.288086,-0.8007813 -0.283203,-0.2880859 -0.708007,-0.2880859 -0.439454,0 -0.727539,0.2880859 -0.283204,0.288086 -0.283204,0.8007813 v 3.01757811 z" /><path
       id="path1420"
       style="font-size:10px;font-family:AlteDIN1451Mittelschrift;fill:#1e1e1e;fill-opacity:1;stroke:none"
       d="m 19.194336,-1.484375 0.751953,0.67382812 q -0.332031,0.38085938 -0.791016,0.62988282 -0.454101,0.24414062 -1.030273,0.24414062 -0.878906,0 -1.591797,-0.59570312 -0.708008,-0.60058594 -0.708008,-1.99218754 0,-1.3916015 0.708008,-1.9921875 0.712891,-0.6054687 1.591797,-0.6054687 0.576172,0 1.030273,0.2490234 0.458985,0.2490235 0.791016,0.6298828 l -0.751953,0.6689453 q -0.429688,-0.5273437 -1.030274,-0.5273437 -1.318359,0 -1.318359,1.5771484 0,1.57226566 1.318359,1.57226566 0.605469,0 1.030274,-0.53222656 z" /></g><g
     style="fill:#e6e6e6;fill-opacity:1;stroke:#1e1e1e;stroke-opacity:1"
     id="g136"><circle
       style="fill:#e6e6e6;fill-opacity:1;stroke:#1e1e1e;stroke-opacity:1"
       id="circle130"
       r="5.5"
       cy="248.4"
       cx="71.5"
       class="st15" /><line
       style="fill:#e6e6e6;fill-opacity:1;stroke:#1e1e1e;stroke-opacity:1"
       id="line132"
       y2="244.5"
       x2="67.6"
       y1="252.3"
       x1="75.4"
       class="st14" /><line
       style="fill:#e6e6e6;fill-opacity:1;stroke:#1e1e1e;stroke-opacity:1"
       id="line134"
       y2="244.5"
       x2="75.4"
       y1="252.3"
       x1="67.6"
       class="st14" /></g><g
     id="text152"
     style="font-size:8px;font-family:AlteDIN1451Mittelschrift;fill:#1e1e1e;fill-opacity:1;stroke:none"
     transform="matrix(1 0 0 1 100.6542 293.6334)"
     aria-label="Weak"><path
       id="path1396"
       style="font-size:8px;font-family:AlteDIN1451Mittelschrift;fill:#1e1e1e;fill-opacity:1;stroke:none"
       d="M 1.5195312,0.00390625 0.09375,-5.6875 h 0.9140625 l 0.8945312,4.046875 h 0.015625 L 3.0234375,-5.6875 H 3.6445313 L 4.75,-1.640625 H 4.765625 L 5.6601562,-5.6875 H 6.5742187 L 5.1484375,0.00390625 h -0.71875 L 3.3398438,-4.0976562 H 3.3242188 L 2.2382813,0.00390625 Z" /><path
       id="path1398"
       style="font-size:8px;font-family:AlteDIN1451Mittelschrift;fill:#1e1e1e;fill-opacity:1;stroke:none"
       d="M 10.3125,-1.7148437 H 7.7890625 q 0,0.5 0.2695313,0.74999995 0.2734375,0.25 0.6953125,0.25 0.5039062,0 0.890625,-0.39062495 l 0.5898437,0.5039062 Q 9.9335938,-0.25 9.5546875,-0.09765625 q -0.375,0.1484375 -0.7851562,0.1484375 -0.625,0 -1.2109376,-0.40234375 -0.5859375,-0.40625 -0.5859375,-1.65625 0,-1.1835938 0.5390625,-1.6367188 0.5429688,-0.4531249 1.1328126,-0.4531249 0.6679687,0 1.1679687,0.4648437 0.5,0.4609375 0.5,1.2460937 z M 7.7890625,-2.3867188 H 9.5 Q 9.4804688,-2.84375 9.2421875,-3.0859375 9.0039063,-3.328125 8.6445313,-3.328125 q -0.3632813,0 -0.6054688,0.2421875 -0.2382813,0.2421875 -0.25,0.6992187 z" /><path
       id="path1400"
       style="font-size:8px;font-family:AlteDIN1451Mittelschrift;fill:#1e1e1e;fill-opacity:1;stroke:none"
       d="m 13.324219,0.01953125 v -0.359375 h -0.01563 q -0.113281,0.2109375 -0.339844,0.3046875 -0.242187,0.1015625 -0.632812,0.1015625 -0.671875,-0.015625 -1.015625,-0.359375 -0.375,-0.34375 -0.375,-0.87890625 0,-0.5078125 0.324218,-0.8515625 0.324219,-0.34375 0.957032,-0.3515625 h 1.097656 v -0.4296875 q 0.0039,-0.5390625 -0.808594,-0.5234375 -0.28125,0 -0.46875,0.0625 -0.183594,0.082031 -0.277344,0.2539062 l -0.625,-0.4921875 q 0.453125,-0.6054687 1.332032,-0.5898437 0.738281,-0.00781 1.1875,0.2890625 0.441406,0.3085937 0.449218,1.046875 v 2.77734375 z m 0,-1.42578125 V -1.703125 H 12.375 q -0.695312,0.019531 -0.6875,0.4921875 0,0.203125 0.179688,0.3515625 0.171875,0.16015625 0.566406,0.16015625 0.5,0.007813 0.703125,-0.12109375 0.1875,-0.12890625 0.1875,-0.5859375 z" /><path
       id="path1402"
       style="font-size:8px;font-family:AlteDIN1451Mittelschrift;fill:#1e1e1e;fill-opacity:1;stroke:none"
       d="M 15.019531,0.00390625 V -5.6875 h 0.816407 v 3.5429687 h 0.01563 l 1.558593,-1.9062499 h 0.976563 l -1.398438,1.5859374 1.589844,2.46875005 H 17.554687 L 16.476562,-1.890625 15.835938,-1.1601562 v 1.16406245 z" /></g><g
     id="text154"
     style="font-size:8px;font-family:AlteDIN1451Mittelschrift;fill:#1e1e1e;fill-opacity:1;stroke:none"
     transform="matrix(1 0 0 1 180.687 293.6334)"
     aria-label="Weak"><path
       id="path1423"
       style="font-size:8px;font-family:AlteDIN1451Mittelschrift;fill:#1e1e1e;fill-opacity:1;stroke:none"
       d="M 1.5195312,0.00390625 0.09375,-5.6875 h 0.9140625 l 0.8945312,4.046875 h 0.015625 L 3.0234375,-5.6875 H 3.6445313 L 4.75,-1.640625 H 4.765625 L 5.6601562,-5.6875 H 6.5742187 L 5.1484375,0.00390625 h -0.71875 L 3.3398438,-4.0976562 H 3.3242188 L 2.2382813,0.00390625 Z" /><path
       id="path1425"
       style="font-size:8px;font-family:AlteDIN1451Mittelschrift;fill:#1e1e1e;fill-opacity:1;stroke:none"
       d="M 10.3125,-1.7148437 H 7.7890625 q 0,0.5 0.2695313,0.74999995 0.2734375,0.25 0.6953125,0.25 0.5039062,0 0.890625,-0.39062495 l 0.5898437,0.5039062 Q 9.9335938,-0.25 9.5546875,-0.09765625 q -0.375,0.1484375 -0.7851562,0.1484375 -0.625,0 -1.2109376,-0.40234375 -0.5859375,-0.40625 -0.5859375,-1.65625 0,-1.1835938 0.5390625,-1.6367188 0.5429688,-0.4531249 1.1328126,-0.4531249 0.6679687,0 1.1679687,0.4648437 0.5,0.4609375 0.5,1.2460937 z M 7.7890625,-2.3867188 H 9.5 Q 9.4804688,-2.84375 9.2421875,-3.0859375 9.0039063,-3.328125 8.6445313,-3.328125 q -0.3632813,0 -0.6054688,0.2421875 -0.2382813,0.2421875 -0.25,0.6992187 z" /><path
       id="path1427"
       style="font-size:8px;font-family:AlteDIN1451Mittelschrift;fill:#1e1e1e;fill-opacity:1;stroke:none"
       d="m 13.324219,0.01953125 v -0.359375 h -0.01563 q -0.113281,0.2109375 -0.339844,0.3046875 -0.242187,0.1015625 -0.632812,0.1015625 -0.671875,-0.015625 -1.015625,-0.359375 -0.375,-0.34375 -0.375,-0.87890625 0,-0.5078125 0.324218,-0.8515625 0.324219,-0.34375 0.957032,-0.3515625 h 1.097656 v -0.4296875 q 0.0039,-0.5390625 -0.808594,-0.5234375 -0.28125,0 -0.46875,0.0625 -0.183594,0.082031 -0.277344,0.2539062 l -0.625,-0.4921875 q 0.453125,-0.6054687 1.332032,-0.5898437 0.738281,-0.00781 1.1875,0.2890625 0.441406,0.3085937 0.449218,1.046875 v 2.77734375 z m 0,-1.42578125 V -1.703125 H 12.375 q -0.695312,0.019531 -0.6875,0.4921875 0,0.203125 0.179688,0.3515625 0.171875,0.16015625 0.566406,0.16015625 0.5,0.007813 0.703125,-0.12109375 0.1875,-0.12890625 0.1875,-0.5859375 z" /><path
       id="path1429"
       style="font-size:8px;font-family:AlteDIN1451Mittelschrift;fill:#1e1e1e;fill-opacity:1;stroke:none"
       d="M 15.019531,0.00390625 V -5.6875 h 0.816407 v 3.5429687 h 0.01563 l 1.558593,-1.9062499 h 0.976563 l -1.398438,1.5859374 1.589844,2.46875005 H 17.554687 L 16.476562,-1.890625 15.835938,-1.1601562 v 1.16406245 z" /></g><g
     id="text156"
     style="font-size:8px;font-family:AlteDIN1451Mittelschrift;fill:#1e1e1e;fill-opacity:1;stroke:none"
     transform="matrix(1 0 0 1 209.1555 316.6336)"
     aria-label="Swap"><path
       id="path1374"
       style="font-size:8px;font-family:AlteDIN1451Mittelschrift;fill:#1e1e1e;fill-opacity:1;stroke:none"
       d="M 0.109375,-0.73046875 0.6796875,-1.3789062 Q 1,-1.1210937 1.4179687,-0.96484375 q 0.4179688,0.15625 0.8750001,0.15625 0.5273437,0 0.828125,-0.21874995 0.3007812,-0.21875 0.3007812,-0.5742188 0,-0.671875 -0.7421875,-0.7695313 Q 2.484375,-2.3945313 2.3164063,-2.4179688 2.1484375,-2.4414063 1.9257812,-2.4726563 1.1875,-2.5742188 0.80078125,-3.0117188 0.4140625,-3.453125 0.4140625,-4.0742187 q 0,-0.7265625 0.484375,-1.1953125 0.4882812,-0.46875 1.3710938,-0.46875 0.5273437,0 0.9921875,0.1679687 0.4648437,0.1679688 0.8554687,0.4257813 L 3.6367188,-4.4335937 Q 3.3242188,-4.6289062 2.9648438,-4.75 q -0.359375,-0.1210937 -0.734375,-0.1210937 -0.3984376,0 -0.6757813,0.203125 -0.2773438,0.203125 -0.2773438,0.609375 0,0.2421874 0.1875,0.4531249 0.1875,0.2109375 0.6210938,0.2773438 0.1132813,0.019531 0.2734375,0.042969 0.1601563,0.019531 0.3671875,0.042969 0.796875,0.097656 1.1757813,0.578125 0.3828124,0.4804687 0.3828124,1.0625 0,0.78515625 -0.5429687,1.21875 -0.5429687,0.43359375 -1.4570312,0.43359375 -1.2851563,0 -2.1757813,-0.78125 z" /><path
       id="path1376"
       style="font-size:8px;font-family:AlteDIN1451Mittelschrift;fill:#1e1e1e;fill-opacity:1;stroke:none"
       d="M 8.34375,0.00390625 7.4960937,-2.8320313 H 7.4804687 L 6.6328125,0.00390625 h -0.71875 L 4.6171875,-4.0507812 h 0.8632812 l 0.7773438,2.8398437 h 0.015625 l 0.9179687,-2.8398437 h 0.59375 L 8.703125,-1.2109375 H 8.71875 L 9.4960938,-4.0507812 H 10.359375 L 9.0625,0.00390625 Z" /><path
       id="path1378"
       style="font-size:8px;font-family:AlteDIN1451Mittelschrift;fill:#1e1e1e;fill-opacity:1;stroke:none"
       d="m 13.058594,0.01953125 v -0.359375 h -0.01563 q -0.113281,0.2109375 -0.339844,0.3046875 -0.242187,0.1015625 -0.632812,0.1015625 -0.671875,-0.015625 -1.015625,-0.359375 -0.375,-0.34375 -0.375,-0.87890625 0,-0.5078125 0.324218,-0.8515625 0.324219,-0.34375 0.957032,-0.3515625 h 1.097656 V -2.8046875 Q 13.0625,-3.34375 12.25,-3.328125 q -0.28125,0 -0.46875,0.0625 -0.183594,0.082031 -0.277344,0.2539062 l -0.625,-0.4921875 q 0.453125,-0.6054687 1.332032,-0.5898437 0.738281,-0.00781 1.1875,0.2890625 0.441406,0.3085937 0.449218,1.046875 v 2.77734375 z m 0,-1.42578125 v -0.296875 h -0.949219 q -0.695312,0.019531 -0.6875,0.4921875 0,0.203125 0.179688,0.3515625 0.171875,0.16015625 0.566406,0.16015625 0.5,0.007813 0.703125,-0.12109375 0.1875,-0.12890625 0.1875,-0.5859375 z" /><path
       id="path1380"
       style="font-size:8px;font-family:AlteDIN1451Mittelschrift;fill:#1e1e1e;fill-opacity:1;stroke:none"
       d="m 14.753906,1.6445312 v -5.6953124 h 0.816407 V -3.625 q 0.425781,-0.4726562 1.046874,-0.4726562 0.371094,0 0.640625,0.1523437 0.269532,0.1484375 0.445313,0.375 0.167969,0.21875 0.226562,0.5117187 0.0625,0.2890625 0.0625,1.0390625 0,0.7460938 -0.0625,1.03906255 -0.05859,0.29296875 -0.226562,0.5078125 -0.175781,0.23046875 -0.445313,0.37890625 -0.269531,0.14453125 -0.640625,0.14453125 -0.316406,0 -0.570312,-0.12890625 -0.25,-0.12890625 -0.476562,-0.34765625 V 1.6445312 Z m 1.617188,-2.40624995 q 0.574218,0 0.6875,-0.39453125 0.117187,-0.3945312 0.117187,-0.8632813 0,-0.46875 -0.117187,-0.8632812 -0.113282,-0.3984375 -0.6875,-0.3984375 -0.574219,0 -0.6875,0.4101562 -0.113281,0.4101563 -0.113281,0.8515625 0,0.4414063 0.113281,0.8515626 0.113281,0.40624995 0.6875,0.40624995 z" /></g><g
     id="text158"
     style="font-size:8px;font-family:AlteDIN1451Mittelschrift;fill:#1e1e1e;fill-opacity:1;stroke:none"
     transform="matrix(1 0 0 1 67.8257 316.6336)"
     aria-label="True FM"><path
       id="path1383"
       style="font-size:8px;font-family:AlteDIN1451Mittelschrift;fill:#1e1e1e;fill-opacity:1;stroke:none"
       d="M 1.5742187,0.00390625 V -4.921875 H 0.015625 V -5.6875 h 3.9804688 v 0.765625 H 2.4375 v 4.92578125 z" /><path
       id="path1385"
       style="font-size:8px;font-family:AlteDIN1451Mittelschrift;fill:#1e1e1e;fill-opacity:1;stroke:none"
       d="M 4.5351562,0.00390625 V -4.0507812 h 0.8164063 v 0.4335937 h 0.015625 q 0.3789062,-0.4804687 1.0546875,-0.4804687 0.4453125,0 0.8476562,0.3124999 l -0.5898437,0.703125 Q 6.4140625,-3.28125 6.140625,-3.28125 q -0.3007813,0 -0.546875,0.203125 -0.2421875,0.1992187 -0.2421875,0.6445312 v 2.43750005 z" /><path
       id="path1387"
       style="font-size:8px;font-family:AlteDIN1451Mittelschrift;fill:#1e1e1e;fill-opacity:1;stroke:none"
       d="m 7.6445312,-1.3554687 v -2.6953125 h 0.8164063 v 2.4179687 q 0,0.4140625 0.2265625,0.64453125 0.2304688,0.2265625 0.5820313,0.2265625 0.3398437,0 0.5664062,-0.2265625 Q 10.066406,-1.21875 10.066406,-1.6328125 v -2.4179687 h 0.816407 v 4.05468745 h -0.816407 v -0.4296875 h -0.01563 q -0.378906,0.4765625 -1.0468747,0.4765625 -0.4804688,0 -0.921875,-0.35546875 -0.4375001,-0.359375 -0.4375001,-1.0507812 z" /><path
       id="path1389"
       style="font-size:8px;font-family:AlteDIN1451Mittelschrift;fill:#1e1e1e;fill-opacity:1;stroke:none"
       d="m 15.0625,-1.7148437 h -2.523437 q 0,0.5 0.269531,0.74999995 0.273437,0.25 0.695312,0.25 0.503907,0 0.890625,-0.39062495 l 0.589844,0.5039062 Q 14.683594,-0.25 14.304688,-0.09765625 q -0.375,0.1484375 -0.785157,0.1484375 -0.625,0 -1.210937,-0.40234375 -0.585938,-0.40625 -0.585938,-1.65625 0,-1.1835938 0.539063,-1.6367188 0.542969,-0.4531249 1.132812,-0.4531249 0.667969,0 1.167969,0.4648437 0.5,0.4609375 0.5,1.2460937 z M 12.539063,-2.3867188 H 14.25 Q 14.230469,-2.84375 13.992188,-3.0859375 13.753906,-3.328125 13.394531,-3.328125 q -0.363281,0 -0.605468,0.2421875 -0.238282,0.2421875 -0.25,0.6992187 z" /><path
       id="path1391"
       style="font-size:8px;font-family:AlteDIN1451Mittelschrift;fill:#1e1e1e;fill-opacity:1;stroke:none"
       d="M 17.917969,0.00390625 V -5.6875 h 3.640625 v 0.8164063 H 18.78125 v 1.6757812 h 2.367187 v 0.7695312 H 18.78125 v 2.42968755 z" /><path
       id="path1393"
       style="font-size:8px;font-family:AlteDIN1451Mittelschrift;fill:#1e1e1e;fill-opacity:1;stroke:none"
       d="M 22.214844,0.00390625 V -5.6875 h 0.816406 l 1.632812,3.7109375 1.597657,-3.7109375 h 0.816406 V 0.00390625 H 26.214844 V -3.546875 h -0.01563 l -1.191407,2.73828125 h -0.71875 L 23.097656,-3.546875 h -0.01953 v 3.55078125 z" /></g><g
     id="text168"
     style="font-size:10px;font-family:AlteDIN1451Mittelschrift;fill:#1e1e1e;fill-opacity:1;stroke:none"
     transform="matrix(1 0 0 1 78.0559 283.8968)"
     aria-label="Sync"><path
       id="path1405"
       style="font-size:10px;font-family:AlteDIN1451Mittelschrift;fill:#1e1e1e;fill-opacity:1;stroke:none"
       d="M 0.13671875,-0.91308594 0.84960938,-1.7236328 Q 1.25,-1.4013672 1.7724609,-1.2060547 q 0.522461,0.1953125 1.09375,0.1953125 0.6591797,0 1.0351563,-0.2734375 0.3759765,-0.2734375 0.3759765,-0.7177734 0,-0.8398438 -0.9277343,-0.9619141 -0.2441406,-0.029297 -0.4541016,-0.058594 -0.2099609,-0.029297 -0.4882812,-0.068359 -0.9228516,-0.1269531 -1.40625,-0.6738281 -0.48339848,-0.5517578 -0.48339848,-1.328125 0,-0.9082032 0.60546878,-1.4941407 0.6103515,-0.5859375 1.7138672,-0.5859375 0.6591797,0 1.2402343,0.209961 0.5810547,0.2099609 1.069336,0.5322265 l -0.600586,0.8886719 Q 4.1552734,-5.7861328 3.7060547,-5.9375 3.2568359,-6.0888672 2.7880859,-6.0888672 q -0.4980468,0 -0.8447265,0.2539063 -0.3466797,0.2539062 -0.3466797,0.7617187 0,0.3027344 0.234375,0.5664063 0.234375,0.2636718 0.7763672,0.3466797 0.1416015,0.024414 0.3417969,0.053711 0.2001953,0.024414 0.4589843,0.053711 0.9960938,0.1220703 1.4697266,0.7226563 0.4785156,0.6005859 0.4785156,1.328125 0,0.9814453 -0.6787109,1.52343747 -0.678711,0.54199219 -1.8212891,0.54199219 -1.6064453,0 -2.71972655,-0.9765625 z" /><path
       id="path1407"
       style="font-size:10px;font-family:AlteDIN1451Mittelschrift;fill:#1e1e1e;fill-opacity:1;stroke:none"
       d="M 7.5,-0.19042969 5.6835937,-5.0634766 h 1.0742188 l 1.2011719,3.5498047 h 0.019531 L 9.1796875,-5.0634766 H 10.258789 L 8.0810547,1.0546875 Q 7.8662109,1.640625 7.4902344,1.8457031 7.1142578,2.0556641 6.6503906,2.0556641 H 6.3085937 V 1.09375 h 0.3027344 q 0.4589844,0 0.6103516,-0.43945313 z" /><path
       id="path1409"
       style="font-size:10px;font-family:AlteDIN1451Mittelschrift;fill:#1e1e1e;fill-opacity:1;stroke:none"
       d="M 10.844727,0.00488281 V -5.0634766 h 1.020507 v 0.5419922 h 0.01953 q 0.473632,-0.6005859 1.318359,-0.6005859 0.59082,0 1.137695,0.4492187 0.551758,0.4492188 0.551758,1.3085938 V 0.00488281 H 13.87207 V -3.0126953 q 0,-0.5126953 -0.288086,-0.8007813 -0.283203,-0.2880859 -0.708007,-0.2880859 -0.439454,0 -0.727539,0.2880859 -0.283204,0.288086 -0.283204,0.8007813 v 3.01757811 z" /><path
       id="path1411"
       style="font-size:10px;font-family:AlteDIN1451Mittelschrift;fill:#1e1e1e;fill-opacity:1;stroke:none"
       d="m 19.194336,-1.484375 0.751953,0.67382812 q -0.332031,0.38085938 -0.791016,0.62988282 -0.454101,0.24414062 -1.030273,0.24414062 -0.878906,0 -1.591797,-0.59570312 -0.708008,-0.60058594 -0.708008,-1.99218754 0,-1.3916015 0.708008,-1.9921875 0.712891,-0.6054687 1.591797,-0.6054687 0.576172,0 1.030273,0.2490234 0.458985,0.2490235 0.791016,0.6298828 l -0.751953,0.6689453 q -0.429688,-0.5273437 -1.030274,-0.5273437 -1.318359,0 -1.318359,1.5771484 0,1.57226566 1.318359,1.57226566 0.605469,0 1.030274,-0.53222656 z" /></g><g
     id="text170"
     style="font-size:10px;font-family:AlteDIN1451Mittelschrift;fill:#1e1e1e;fill-opacity:1;stroke:none"
     transform="matrix(1 0 0 1 140.6716 283.8968)"
     aria-label="Gate"><path
       id="path1449"
       style="font-size:10px;font-family:AlteDIN1451Mittelschrift;fill:#1e1e1e;fill-opacity:1;stroke:none"
       d="m 3.0664063,-2.890625 v -1.0205078 h 2.5292968 v 1.4501953 q 0,1.0595703 -0.7373047,1.79199219 -0.7373047,0.73242187 -1.8017578,0.73242187 -0.8398437,0 -1.4111328,-0.40039062 Q 1.0791016,-0.7421875 0.83007813,-1.2109375 0.65429687,-1.5234375 0.5859375,-1.8945312 0.51757812,-2.265625 0.51757812,-3.5498047 q 0,-1.2841797 0.0683594,-1.6552734 0.0683594,-0.3710938 0.24414063,-0.6835938 0.24902347,-0.4638672 0.81542967,-0.8740234 0.5712891,-0.4101563 1.4111328,-0.4101563 1.0107422,0 1.6699219,0.625 0.6640625,0.6201172 0.8300781,1.484375 H 4.4189453 Q 4.2871094,-5.4736328 3.9257813,-5.78125 3.5693359,-6.0888672 3.0566406,-6.0888672 q -0.3808593,0 -0.6591797,0.15625 -0.2783203,0.15625 -0.4394531,0.3613281 -0.2099609,0.2734375 -0.2880859,0.600586 -0.073242,0.3271484 -0.073242,1.4208984 0,1.0986328 0.073242,1.4257813 0.078125,0.3271484 0.2880859,0.5908203 0.1611328,0.2148437 0.4394531,0.3710937 0.2783204,0.1513672 0.6591797,0.1513672 0.6152344,0 1.0351563,-0.4199219 0.4248047,-0.4199218 0.4248047,-1.09375 V -2.890625 Z" /><path
       id="path1451"
       style="font-size:10px;font-family:AlteDIN1451Mittelschrift;fill:#1e1e1e;fill-opacity:1;stroke:none"
       d="M 9.4482422,0.02441406 V -0.42480469 H 9.4287109 Q 9.2871094,-0.16113281 9.0039063,-0.04394531 8.7011719,0.08300781 8.2128906,0.08300781 7.3730469,0.06347656 6.9433594,-0.36621094 q -0.46875,-0.4296875 -0.46875,-1.09863276 0,-0.6347657 0.4052734,-1.0644532 Q 7.2851562,-2.9589844 8.0761719,-2.96875 H 9.4482422 V -3.5058594 Q 9.453125,-4.1796875 8.4375,-4.1601562 q -0.3515625,0 -0.5859375,0.078125 -0.2294922,0.102539 -0.3466797,0.3173828 l -0.78125,-0.6152344 q 0.5664063,-0.7568359 1.6650391,-0.7373047 0.9228515,-0.00977 1.484375,0.3613281 0.5517581,0.3857422 0.5615231,1.3085938 v 3.47167966 z m 0,-1.78222656 V -2.1289063 H 8.2617188 q -0.8691407,0.024414 -0.8593751,0.6152344 0,0.2539063 0.2246094,0.4394532 0.2148438,0.20019526 0.7080078,0.20019526 0.625,0.009766 0.8789063,-0.15136716 0.234375,-0.1611328 0.234375,-0.7324219 z" /><path
       id="path1453"
       style="font-size:10px;font-family:AlteDIN1451Mittelschrift;fill:#1e1e1e;fill-opacity:1;stroke:none"
       d="M 11.625977,0.00976563 V -4.2822266 h -0.507813 v -0.78125 h 0.507813 V -5.859375 l 1.020507,-1.0888672 v 1.8847656 h 0.742188 v 0.78125 h -0.742188 v 4.29199223 z" /><path
       id="path1455"
       style="font-size:10px;font-family:AlteDIN1451Mittelschrift;fill:#1e1e1e;fill-opacity:1;stroke:none"
       d="m 18.242187,-2.1435547 h -3.154296 q 0,0.625 0.336914,0.9375 0.341797,0.31250001 0.86914,0.31250001 0.629883,0 1.113282,-0.48828121 l 0.737304,0.62988278 q -0.375976,0.43945312 -0.849609,0.62988281 -0.46875,0.18554687 -0.981445,0.18554687 -0.78125,0 -1.513672,-0.50292969 -0.732422,-0.5078125 -0.732422,-2.07031247 0,-1.4794922 0.673828,-2.0458985 0.678711,-0.5664062 1.416016,-0.5664062 0.83496,0 1.45996,0.5810547 0.625,0.5761718 0.625,1.5576172 z m -3.154296,-0.8398437 h 2.138671 q -0.02441,-0.5712891 -0.322265,-0.8740235 -0.297852,-0.3027343 -0.74707,-0.3027343 -0.454102,0 -0.756836,0.3027343 -0.297852,0.3027344 -0.3125,0.8740235 z" /></g><path
     style="stroke-width:1;stroke-miterlimit:10;stroke-dasharray:none;stroke:#1e1e1e;stroke-opacity:1;fill:none;fill-opacity:1"
     id="path184"
     d="M284.9,339c-51.3,0.6-56.5-90.6-56.5-90.6"
     class="st14" /><path
     style="fill:none;fill-opacity:1;stroke:#1e1e1e;stroke-opacity:1;stroke-width:1;stroke-miterlimit:10;stroke-dasharray:none"
     id="path186"
     d="M284.9,307c-42.6,0-51-25.1-51-25.1"
     class="st14" /><path
     style="fill:none;fill-opacity:1;stroke:#1e1e1e;stroke-opacity:1;stroke-width:1;stroke-miterlimit:10;stroke-dasharray:none"
     id="path188"
     d="M284.8,271.1c-42.7,25.5-56.4-22.7-56.4-22.7"
     class="st14" /><g
     style="fill:#e6e6e6;fill-opacity:1;stroke:#1e1e1e;stroke-opacity:1"
     id="g196"><circle
       style="fill:#e6e6e6;fill-opacity:1;stroke:#1e1e1e;stroke-opacity:1"
       id="circle190"
       r="5.5"
       cy="282"
       cx="233.9"
       class="st15" /><line
       style="fill:#e6e6e6;fill-opacity:1;stroke:#1e1e1e;stroke-opacity:1"
       id="line192"
       y2="287.4"
       x2="233.9"
       y1="276.5"
       x1="233.9"
       class="st14" /><line
       style="fill:#e6e6e6;fill-opacity:1;stroke:#1e1e1e;stroke-opacity:1"
       id="line194"
       y2="282"
       x2="239.4"
       y1="282"
       x1="228.4"
       class="st14" /></g><g
     style="fill:#e6e6e6;fill-opacity:1;stroke:#1e1e1e;stroke-opacity:1"
     id="g204"><circle
       style="fill:#e6e6e6;fill-opacity:1;stroke:#1e1e1e;stroke-opacity:1"
       id="circle198"
       r="5.5"
       cy="248.4"
       cx="228.4"
       class="st15" /><line
       style="fill:#e6e6e6;fill-opacity:1;stroke:#1e1e1e;stroke-opacity:1"
       id="line200"
       y2="252.3"
       x2="224.5"
       y1="244.5"
       x1="232.3"
       class="st14" /><line
       style="fill:#e6e6e6;fill-opacity:1;stroke:#1e1e1e;stroke-opacity:1"
       id="line202"
       y2="252.3"
       x2="232.3"
       y1="244.5"
       x1="224.5"
       class="st14" /></g><path
     id="line212"
     d="m 190,278 22.10001,-13.89999"
     style="fill:none;stroke:#1e1e1e;stroke-miterlimit:10;stroke-opacity:1" /><path
     id="line214"
     d="M 110,278 88,264"
     style="fill:none;stroke:#1e1e1e;stroke-miterlimit:10;stroke-opacity:1" /><g
     style="fill:none;fill-opacity:1;stroke:#ffb24a;stroke-opacity:1;stroke-width:2;stroke-miterlimit:4;stroke-dasharray:none"
     id="g220"><path
       style="fill:none;fill-opacity:1;stroke:#ffb24a;stroke-opacity:1;stroke-width:2;stroke-miterlimit:4;stroke-dasharray:none"
       id="path216"
       d="M164.1,276.7c0,2.1-1.7,3.7-3.7,3.7"
       class="st1" /><path
       style="fill:none;fill-opacity:1;stroke:#ffb24a;stroke-opacity:1;stroke-width:2;stroke-miterlimit:4;stroke-dasharray:none"
       id="path218"
       d="M164.1,263v13.8"
       class="st1" /></g><g
     style="fill:none;fill-opacity:1;stroke:#ffb24a;stroke-opacity:1;stroke-width:2;stroke-miterlimit:4;stroke-dasharray:none"
     id="g226"><path
       style="fill:none;fill-opacity:1;stroke:#ffb24a;stroke-opacity:1;stroke-width:2;stroke-miterlimit:4;stroke-dasharray:none"
       id="path222"
       d="M139.8,280.5c-2,0-3.7-1.6-3.7-3.7"
       class="st1" /><path
       style="fill:none;fill-opacity:1;stroke:#ffb24a;stroke-opacity:1;stroke-width:2;stroke-miterlimit:4;stroke-dasharray:none"
       id="path224"
       d="M136.1,276.8v-13.8"
       class="st1" /></g><rect
     y="30.190544"
     x="30.188032"
     height="194.62111"
     width="239.62393"
     id="rect8223"
     style="opacity:1;fill:#111111;fill-opacity:1;stroke:#414042;stroke-width:1.37763751;stroke-linecap:round;stroke-miterlimit:4;stroke-dasharray:none;stroke-opacity:1" /><g
     aria-label="Velo"
     id="text328"
     style="font-style:normal;font-variant:normal;font-weight:normal;font-stretch:normal;font-size:8px;line-height:1.25;font-family:alte;-inkscape-font-specification:alte;fill:#1e1e1e;fill-opacity:1;stroke:none"
     transform="translate(-0.5,-196.45832)"><path
       d="m 136.6349,446.18573 -1.8789,-5.69141 h 0.91015 l 1.29688,4.33203 h 0.0156 l 1.29688,-4.33203 h 0.91015 l -1.8789,5.69141 z"
       style="font-style:normal;font-variant:normal;font-weight:normal;font-stretch:normal;font-size:8px;font-family:'Alte DIN 1451 Mittelschrift';-inkscape-font-specification:'Alte DIN 1451 Mittelschrift';fill:#1e1e1e;fill-opacity:1"
       id="path1176" /><path
       d="m 142.84975,444.46698 h -2.52344 q 0,0.5 0.26953,0.75 0.27344,0.25 0.69531,0.25 0.50391,0 0.89063,-0.39063 l 0.58984,0.50391 q -0.30078,0.35156 -0.67969,0.50391 -0.375,0.14843 -0.78515,0.14843 -0.625,0 -1.21094,-0.40234 -0.58594,-0.40625 -0.58594,-1.65625 0,-1.18359 0.53907,-1.63672 0.54296,-0.45312 1.13281,-0.45312 0.66797,0 1.16797,0.46484 0.5,0.46094 0.5,1.24609 z m -2.52344,-0.67188 h 1.71094 q -0.0195,-0.45703 -0.25782,-0.69921 -0.23828,-0.24219 -0.59765,-0.24219 -0.36328,0 -0.60547,0.24219 -0.23828,0.24218 -0.25,0.69921 z"
       style="font-style:normal;font-variant:normal;font-weight:normal;font-stretch:normal;font-size:8px;font-family:'Alte DIN 1451 Mittelschrift';-inkscape-font-specification:'Alte DIN 1451 Mittelschrift';fill:#1e1e1e;fill-opacity:1"
       id="path1178" /><path
       d="m 143.71303,445.20526 v -4.71094 h 0.8164 v 4.64453 q 0,0.28125 0.30469,0.28125 h 0.27735 v 0.76563 h -0.35938 q -0.44531,0 -0.74219,-0.21484 -0.29687,-0.21875 -0.29687,-0.76563 z"
       style="font-style:normal;font-variant:normal;font-weight:normal;font-stretch:normal;font-size:8px;font-family:'Alte DIN 1451 Mittelschrift';-inkscape-font-specification:'Alte DIN 1451 Mittelschrift';fill:#1e1e1e;fill-opacity:1"
       id="path1180" /><path
       d="m 145.57631,444.15448 q 0,-0.65234 0.10156,-0.97266 0.10156,-0.32031 0.33594,-0.57812 0.16797,-0.1836 0.46094,-0.35156 0.29687,-0.16797 0.77343,-0.16797 0.46875,0 0.76563,0.16797 0.29687,0.16796 0.46484,0.35156 0.23438,0.25781 0.33594,0.57812 0.10156,0.32032 0.10156,0.97266 0,0.66406 -0.10156,0.98437 -0.10156,0.32032 -0.33594,0.57813 -0.16797,0.1875 -0.46484,0.35156 -0.29688,0.16406 -0.76563,0.16406 -0.47656,0 -0.77343,-0.16406 -0.29297,-0.16406 -0.46094,-0.35156 -0.23438,-0.25781 -0.33594,-0.57813 -0.10156,-0.32031 -0.10156,-0.98437 z m 2.52734,0.008 q 0,-0.4414 -0.0469,-0.62109 -0.043,-0.17969 -0.15235,-0.34375 -0.21484,-0.29688 -0.65625,-0.29688 -0.44921,0 -0.65625,0.29688 -0.11718,0.16406 -0.16015,0.34375 -0.0391,0.17969 -0.0391,0.61328 0,0.44531 0.0391,0.62891 0.043,0.17968 0.16015,0.33984 0.20704,0.29687 0.65625,0.29687 0.44141,0 0.65625,-0.29687 0.10938,-0.16016 0.15235,-0.33984 0.0469,-0.17969 0.0469,-0.6211 z"
       style="font-style:normal;font-variant:normal;font-weight:normal;font-stretch:normal;font-size:8px;font-family:'Alte DIN 1451 Mittelschrift';-inkscape-font-specification:'Alte DIN 1451 Mittelschrift';fill:#1e1e1e;fill-opacity:1"
       id="path1182" /></g><g
     aria-label="Trig"
     id="text1155"
     style="font-style:normal;font-variant:normal;font-weight:normal;font-stretch:normal;font-size:8px;line-height:1.25;font-family:alte;-inkscape-font-specification:alte;fill:#1e1e1e;fill-opacity:1;stroke:none"
     transform="translate(-0.5,-196.45832)"><path
       d="m 154.97078,446.18573 v -4.92578 h -1.55859 v -0.76563 h 3.98046 v 0.76563 h -1.55859 v 4.92578 z"
       style="font-style:normal;font-variant:normal;font-weight:normal;font-stretch:normal;font-size:8px;font-family:'Alte DIN 1451 Mittelschrift';-inkscape-font-specification:'Alte DIN 1451 Mittelschrift';fill:#1e1e1e;fill-opacity:1"
       id="path1166" /><path
       d="m 157.93172,446.18573 v -4.05469 h 0.8164 v 0.4336 h 0.0156 q 0.3789,-0.48047 1.05469,-0.48047 0.44531,0 0.84765,0.3125 l -0.58984,0.70312 q -0.26563,-0.19922 -0.53906,-0.19922 -0.30079,0 -0.54688,0.20313 -0.24219,0.19922 -0.24219,0.64453 v 2.4375 z"
       style="font-style:normal;font-variant:normal;font-weight:normal;font-stretch:normal;font-size:8px;font-family:'Alte DIN 1451 Mittelschrift';-inkscape-font-specification:'Alte DIN 1451 Mittelschrift';fill:#1e1e1e;fill-opacity:1"
       id="path1169" /><path
       d="m 161.06453,446.18573 v -4.05469 h 0.81641 v 4.05469 z m 0,-4.875 v -0.81641 h 0.81641 v 0.81641 z"
       style="font-style:normal;font-variant:normal;font-weight:normal;font-stretch:normal;font-size:8px;font-family:'Alte DIN 1451 Mittelschrift';-inkscape-font-specification:'Alte DIN 1451 Mittelschrift';fill:#1e1e1e;fill-opacity:1"
       id="path1171" /><path
       d="m 165.24031,446.18182 v -0.41797 q -0.42578,0.46875 -1.04687,0.46875 -0.39844,0 -0.66797,-0.15625 -0.26563,-0.16015 -0.40235,-0.33593 -0.17578,-0.22657 -0.24218,-0.48047 -0.0625,-0.25391 -0.0625,-1.09766 0,-0.84375 0.0625,-1.09765 0.0664,-0.25391 0.24218,-0.48438 0.13672,-0.17187 0.40235,-0.33203 0.26953,-0.16406 0.66797,-0.16406 0.59375,0 1.04687,0.48047 v -0.4336 h 0.81641 v 3.96094 q 0,0.91406 -0.53516,1.34766 -0.53125,0.43359 -1.22266,0.43359 -0.39062,0 -0.76562,-0.1875 -0.375,-0.1875 -0.64453,-0.49219 l 0.63281,-0.5039 q 0.14844,0.14843 0.35156,0.25781 0.20703,0.10937 0.44141,0.10937 0.40625,0 0.66406,-0.22656 0.26172,-0.22656 0.26172,-0.64844 z m -1.60547,-2.01953 q 0,0.48828 0.0234,0.64844 0.0273,0.16016 0.13672,0.29687 0.082,0.10938 0.24219,0.21094 0.16015,0.10156 0.40625,0.10156 0.23828,0 0.39453,-0.10156 0.16015,-0.10156 0.24609,-0.21094 0.10547,-0.13671 0.12891,-0.29687 0.0273,-0.16016 0.0273,-0.64844 0,-0.48828 -0.0273,-0.64844 -0.0234,-0.16015 -0.12891,-0.30078 -0.0859,-0.10547 -0.24609,-0.20703 -0.15625,-0.10547 -0.39453,-0.10547 -0.2461,0 -0.40625,0.10547 -0.16016,0.10156 -0.24219,0.20703 -0.10938,0.14063 -0.13672,0.30078 -0.0234,0.16016 -0.0234,0.64844 z"
       style="font-style:normal;font-variant:normal;font-weight:normal;font-stretch:normal;font-size:8px;font-family:'Alte DIN 1451 Mittelschrift';-inkscape-font-specification:'Alte DIN 1451 Mittelschrift';fill:#1e1e1e;fill-opacity:1"
       id="path1173" /></g></svg>
