<?xml version="1.0" encoding="utf-8"?>
<!-- Generator: Adobe Illustrator 23.0.1, SVG Export Plug-In . SVG Version: 6.00 Build 0)  -->
<svg version="1.1"
	 id="svg8" xmlns:cc="http://creativecommons.org/ns#" xmlns:dc="http://purl.org/dc/elements/1.1/" xmlns:inkscape="http://www.inkscape.org/namespaces/inkscape" xmlns:rdf="http://www.w3.org/1999/02/22-rdf-syntax-ns#" xmlns:sodipodi="http://sodipodi.sourceforge.net/DTD/sodipodi-0.dtd" xmlns:svg="http://www.w3.org/2000/svg"
	 xmlns="http://www.w3.org/2000/svg" xmlns:xlink="http://www.w3.org/1999/xlink" x="0px" y="0px" viewBox="0 0 150 380"
	 style="enable-background:new 0 0 150 380;" xml:space="preserve">
<style type="text/css">
	.st0{fill:#282828;}
	.st1{fill:#FFFFFF;}
	.st2{fill:none;stroke:#FFFFFF;}
	.st3{fill:none;stroke:#FFFFFF;stroke-miterlimit:10;}
	.st4{fill:#111111;stroke:#414042;stroke-miterlimit:10;}
	.st5{font-family:'AlteDIN1451Mittelschrift';}
	.st6{font-size:12px;}
	.st7{font-size:16px;}
	.st8{font-size:9px;}
	.st9{font-size:11px;}
</style>
<defs>
	
	
		<inkscape:path-effect  apply_no_weight="true" apply_with_weight="true" effect="bspline" helper_size="0" id="path-effect2273" is_visible="true" only_selected="false" steps="2" weight="33.333333">
		</inkscape:path-effect>
	
		<inkscape:path-effect  apply_no_weight="true" apply_with_weight="true" effect="bspline" helper_size="0" id="path-effect2269" is_visible="true" only_selected="false" steps="2" weight="33.333333">
		</inkscape:path-effect>
</defs>
<sodipodi:namedview  bordercolor="#666666" borderopacity="1.0" id="base" inkscape:current-layer="layer1" inkscape:cx="97.74301" inkscape:cy="312.39171" inkscape:document-units="mm" inkscape:pageopacity="0.0" inkscape:pageshadow="2" inkscape:snap-bbox="true" inkscape:snap-global="false" inkscape:window-height="987" inkscape:window-maximized="0" inkscape:window-width="1285" inkscape:window-x="840" inkscape:window-y="0" inkscape:zoom="13.890391" pagecolor="#ffffff" showgrid="true" units="px">
	<inkscape:grid  id="grid1092" type="xygrid"></inkscape:grid>
</sodipodi:namedview>
<g id="layer1" transform="translate(0,-196.45831)" inkscape:groupmode="layer" inkscape:label="Layer 1">
	<path id="rect2263" class="st0" d="M0.1,196.3h150v380H0.1V196.3z"/>
</g>
<g id="text55" transform="matrix(1 0 0 1 134.562 593.76)">
	<path id="path971" class="st1" d="M-77.8-220l-4.2-12.8h2l2.9,9.7l0,0l2.9-9.7h2l-4.2,12.8H-77.8z"/>
	<path id="path973" class="st1" d="M-66-220v-0.8l0,0c-0.2,0.3-0.4,0.5-0.8,0.7s-0.8,0.2-1.4,0.2c-1,0-1.8-0.3-2.3-0.8
		c-0.6-0.5-0.8-1.2-0.8-2s0.2-1.4,0.7-1.9s1.2-0.8,2.2-0.8h2.5v-1c0-0.8-0.6-1.2-1.8-1.2c-0.4,0-0.8,0-1.1,0.1
		c-0.3,0.1-0.5,0.3-0.6,0.6l-1.4-1.1c0.7-0.9,1.7-1.4,3-1.3c1.1,0,2,0.2,2.7,0.7c0.7,0.5,1,1.2,1,2.4v6.2L-66-220L-66-220z
		 M-66-223.2v-0.7h-2.1c-1,0-1.6,0.4-1.5,1.1c0,0.3,0.1,0.6,0.4,0.8c0.3,0.2,0.7,0.4,1.3,0.4c0.8,0,1.3-0.1,1.6-0.3
		C-66.2-222-66-222.5-66-223.2z"/>
	<path id="path975" class="st1" d="M-62.2-222.2v-10.6h1.8v10.5c0,0.4,0.2,0.6,0.7,0.6h0.6v1.7h-0.8c-0.7,0-1.2-0.2-1.7-0.5
		C-62-220.8-62.2-221.4-62.2-222.2z"/>
	<path id="path977" class="st1" d="M-57.6-222.2v-10.6h1.8v10.5c0,0.4,0.2,0.6,0.7,0.6h0.6v1.7h-0.8c-0.7,0-1.2-0.2-1.7-0.5
		C-57.4-220.8-57.6-221.4-57.6-222.2z"/>
	<path id="path979" class="st1" d="M-45.9-223.9h-5.7c0,0.8,0.2,1.3,0.6,1.7s0.9,0.6,1.6,0.6c0.8,0,1.4-0.3,2-0.9l1.3,1.1
		c-0.5,0.5-1,0.9-1.5,1.1c-0.6,0.2-1.2,0.3-1.8,0.3c-0.9,0-1.8-0.3-2.7-0.9c-0.9-0.6-1.3-1.9-1.3-3.7c0-1.8,0.4-3,1.2-3.7
		c0.8-0.7,1.7-1,2.5-1c1,0,1.9,0.3,2.6,1c0.8,0.7,1.1,1.6,1.1,2.8L-45.9-223.9L-45.9-223.9L-45.9-223.9z M-51.6-225.4h3.8
		c0-0.7-0.2-1.2-0.6-1.6c-0.4-0.4-0.8-0.5-1.3-0.5s-1,0.2-1.4,0.5C-51.4-226.6-51.6-226.1-51.6-225.4z"/>
	<path id="path981" class="st1" d="M-42-220.3l-3.3-8.8h1.9l2.2,6.4l0,0l2.2-6.4h1.9l-3.9,11c-0.3,0.7-0.6,1.2-1.1,1.4
		c-0.5,0.3-1,0.4-1.5,0.4h-0.6v-1.7h0.5c0.6,0,0.9-0.3,1.1-0.8L-42-220.3z"/>
</g>
<path id="line161" class="st2" d="M0,24.5h150"/>
<path id="line163" class="st2" d="M0,356.5h150"/>
<g>
	<path class="st1" d="M38.4,17.4l4.7-12.8h1.6l4.7,12.8h-2l-1-2.9h-4.9l-1,2.9H38.4z M42.1,12.8h3.7c-0.3-0.8-0.5-1.4-0.6-1.9
		c-0.1-0.5-0.3-0.8-0.4-1.2c-0.1-0.4-0.2-0.7-0.3-1.1c-0.1-0.4-0.3-0.8-0.5-1.5c-0.2,0.6-0.4,1.1-0.5,1.5c-0.1,0.4-0.2,0.7-0.4,1.1
		c-0.2,0.4-0.2,0.7-0.4,1.2S42.3,12.1,42.1,12.8z"/>
	<path class="st1" d="M51,17.5V8.3h1.8v1l0,0c0.6-0.7,1.4-1.1,2.4-1.1c0.6,0,1.1,0.1,1.5,0.3c0.4,0.2,0.7,0.5,1.1,0.8
		c0.7-0.8,1.7-1.2,2.9-1.2c0.7,0,1.4,0.3,2.1,0.8s1,1.3,1,2.4v6.1H62V12c0-0.6-0.2-1.1-0.5-1.4c-0.3-0.3-0.8-0.5-1.3-0.5
		s-1,0.2-1.3,0.5c-0.3,0.3-0.5,0.8-0.5,1.4v5.4h-1.8V12c0-0.6-0.2-1.1-0.5-1.4c-0.3-0.3-0.8-0.5-1.3-0.5s-1,0.2-1.3,0.5
		C53.2,10.9,53,11.4,53,12v5.4h-2V17.5z"/>
	<path class="st1" d="M71,17.5v-0.8l0,0c-0.2,0.3-0.4,0.5-0.8,0.7c-0.4,0.2-0.8,0.2-1.4,0.2c-1,0-1.8-0.3-2.3-0.8
		c-0.6-0.5-0.8-1.2-0.8-2s0.2-1.4,0.7-1.9s1.2-0.8,2.2-0.8H71v-1c0-0.8-0.6-1.2-1.8-1.2c-0.4,0-0.8,0-1.1,0.1
		c-0.3,0.1-0.5,0.3-0.6,0.6l-1.4-1.1c0.7-0.9,1.7-1.4,3-1.3c1.1,0,2,0.2,2.7,0.7c0.7,0.5,1,1.2,1,2.4v6.2H71z M71,14.3v-0.7h-2.1
		c-1,0-1.6,0.4-1.5,1.1c0,0.3,0.1,0.6,0.4,0.8c0.3,0.2,0.7,0.4,1.3,0.4c0.8,0,1.3-0.1,1.6-0.3C70.9,15.4,71,15,71,14.3z"/>
	<path class="st1" d="M74.8,15.2V4.6h1.8v10.5c0,0.4,0.2,0.6,0.7,0.6H78v1.7h-0.8c-0.7,0-1.2-0.2-1.7-0.5
		C75,16.6,74.8,16.1,74.8,15.2z"/>
	<path class="st1" d="M84.6,17.4v-0.9c-0.6,0.7-1.4,1.1-2.4,1.1c-0.6,0-1.1-0.1-1.5-0.4c-0.4-0.3-0.7-0.5-0.9-0.8
		c-0.3-0.3-0.4-0.7-0.5-1.1c-0.1-0.4-0.1-1.2-0.1-2.5s0-2.1,0.1-2.5c0.1-0.4,0.3-0.7,0.5-1.1c0.2-0.3,0.5-0.5,0.9-0.8
		C81.1,8.1,81.6,8,82.2,8c0.9,0,1.7,0.4,2.4,1.1v-1h1.8V17c0,1.4-0.4,2.4-1.2,3c-0.8,0.6-1.7,1-2.8,1c-0.6,0-1.2-0.1-1.7-0.4
		c-0.5-0.3-1-0.7-1.5-1.1l1.4-1.1c0.2,0.2,0.5,0.4,0.8,0.6c0.3,0.2,0.6,0.2,1,0.2c0.6,0,1.1-0.2,1.5-0.5
		C84.3,18.4,84.6,18.1,84.6,17.4z M81,12.9c0,0.7,0,1.2,0.1,1.5c0.1,0.3,0.1,0.5,0.3,0.7c0.1,0.2,0.3,0.3,0.5,0.5
		c0.2,0.2,0.5,0.2,0.9,0.2c0.4,0,0.7-0.1,0.9-0.2c0.2-0.1,0.4-0.3,0.5-0.5c0.2-0.2,0.3-0.4,0.3-0.7c0-0.3,0.1-0.7,0.1-1.5
		c0-0.8,0-1.2-0.1-1.5c-0.1-0.3-0.1-0.5-0.3-0.7c-0.1-0.2-0.3-0.3-0.5-0.5C83.5,10,83.2,10,82.8,10c-0.4,0-0.7,0.1-0.9,0.2
		c-0.2,0.1-0.4,0.3-0.5,0.5c-0.2,0.2-0.3,0.4-0.3,0.7C81.1,11.7,81,12.2,81,12.9z"/>
	<path class="st1" d="M93.6,17.5v-0.8l0,0c-0.2,0.3-0.4,0.5-0.8,0.7c-0.4,0.2-0.8,0.2-1.4,0.2c-1,0-1.8-0.3-2.3-0.8
		c-0.6-0.5-0.8-1.2-0.8-2s0.2-1.4,0.7-1.9s1.2-0.8,2.2-0.8h2.5v-1c0-0.8-0.6-1.2-1.8-1.2c-0.4,0-0.8,0-1.1,0.1
		c-0.3,0.1-0.5,0.3-0.6,0.6l-1.4-1.1c0.7-0.9,1.7-1.4,3-1.3c1.1,0,2,0.2,2.7,0.7s1,1.2,1,2.4v6.2H93.6z M93.6,14.3v-0.7h-2.1
		c-1,0-1.6,0.4-1.5,1.1c0,0.3,0.1,0.6,0.4,0.8c0.3,0.2,0.7,0.4,1.3,0.4c0.8,0,1.3-0.1,1.6-0.3C93.5,15.4,93.6,15,93.6,14.3z"/>
	<path class="st1" d="M97.6,17.5V8.3h1.8v1l0,0c0.6-0.7,1.4-1.1,2.4-1.1c0.6,0,1.1,0.1,1.5,0.3c0.4,0.2,0.7,0.5,1.1,0.8
		c0.7-0.8,1.7-1.2,2.9-1.2c0.7,0,1.4,0.3,2.1,0.8c0.7,0.5,1,1.3,1,2.4v6.1h-1.8V12c0-0.6-0.2-1.1-0.5-1.4c-0.3-0.3-0.8-0.5-1.3-0.5
		s-1,0.2-1.3,0.5c-0.3,0.3-0.5,0.8-0.5,1.4v5.4h-2V12c0-0.6-0.2-1.1-0.5-1.4c-0.3-0.3-0.8-0.5-1.3-0.5s-1,0.2-1.3,0.5
		c-0.3,0.3-0.5,0.8-0.5,1.4v5.4h-1.8V17.5z"/>
</g>
<g>
	<path class="st1" d="M12.5,59.5v-7.8h1.2v6.7h3.8v1.1H12.5z"/>
</g>
<g>
	<path class="st1" d="M39.1,59.5v-7.8h3.1c0.7,0,1.2,0.2,1.6,0.5c0.2,0.2,0.4,0.4,0.6,0.7c0.2,0.3,0.2,0.6,0.2,1
		c0,0.5-0.1,1-0.4,1.3c-0.3,0.4-0.6,0.7-1.1,0.8l1.8,3.5h-1.4l-1.6-3.3h-1.5v3.3H39.1z M40.3,52.8v2.4h1.8c0.4,0,0.8-0.1,1-0.4
		c0.2-0.3,0.3-0.5,0.3-0.9c0-0.4-0.1-0.7-0.4-0.9c-0.2-0.2-0.5-0.2-0.9-0.2H40.3z"/>
</g>
<g>
	<path class="st1" d="M31,61.9l-2.5-4.2L26,61.9h-1.9l3.5-5.8l-3.3-5.5h2l2.3,3.9l2.3-3.9h2L29.5,56l3.5,5.8h-2V61.9z"/>
</g>
<g>
	<path class="st1" d="M60.5,351.4v-7.8h1.2v6.7h3.8v1.1H60.5L60.5,351.4z"/>
</g>
<g>
	<path class="st1" d="M84.1,351.4v-7.8h3.1c0.7,0,1.2,0.2,1.6,0.5c0.2,0.2,0.4,0.4,0.6,0.7c0.2,0.3,0.2,0.6,0.2,1
		c0,0.5-0.1,1-0.4,1.3c-0.3,0.4-0.6,0.7-1.1,0.8l1.8,3.5h-1.4l-1.6-3.3h-1.5v3.3H84.1z M85.3,344.7v2.4h1.8c0.4,0,0.8-0.1,1-0.4
		c0.2-0.3,0.3-0.5,0.3-0.9c0-0.4-0.1-0.7-0.4-0.9c-0.2-0.2-0.5-0.2-0.9-0.2H85.3z"/>
</g>
<g>
	<path class="st1" d="M105.5,59.5v-7.8h1.2v6.7h3.8v1.1H105.5z"/>
</g>
<g>
	<path class="st1" d="M132.1,59.5v-7.8h3.1c0.7,0,1.2,0.2,1.6,0.5c0.2,0.2,0.4,0.4,0.6,0.7c0.2,0.3,0.2,0.6,0.2,1
		c0,0.5-0.1,1-0.4,1.3c-0.3,0.4-0.6,0.7-1.1,0.8l1.8,3.5h-1.4l-1.6-3.3h-1.6v3.3H132.1z M133.3,52.8v2.4h1.8c0.4,0,0.8-0.1,1-0.4
		c0.2-0.2,0.3-0.5,0.3-0.9c0-0.4-0.1-0.7-0.4-0.9c-0.2-0.2-0.5-0.2-0.9-0.2H133.3z"/>
</g>
<g>
	<path class="st1" d="M120.7,61.9v-4.7l-3.4-6.7h1.8l2.4,5.1l2.4-5.1h1.8l-3.4,6.7v4.7H120.7z"/>
</g>
<line class="st3" x1="74.8" y1="144" x2="74.8" y2="115"/>
<line class="st3" x1="75" y1="81" x2="75" y2="67.5"/>
<line class="st3" x1="75" y1="56.5" x2="75" y2="43"/>
<rect x="30" y="95" class="st4" width="90" height="20"/>
<text transform="matrix(1 0 0 1 33.7998 91.9305)" class="st1 st5 st6">Gain</text>
<text transform="matrix(1 0 0 1 63.2042 169.8949)" class="st1 st5 st6">Type</text>
<text transform="matrix(1 0 0 1 53.0595 239.9689)" class="st1 st5 st6">Param A</text>
<text transform="matrix(1 0 0 1 53.1386 312.021)" class="st1 st5 st6">Param B</text>
<text transform="matrix(1 0 0 1 70.8517 353.1168)" class="st1 st5 st7">Z</text>
<line class="st3" x1="15" y1="110" x2="15" y2="82.9"/>
<line class="st3" x1="135" y1="110" x2="135" y2="82.9"/>
<line class="st3" x1="14.8" y1="82.9" x2="45" y2="72"/>
<line class="st3" x1="135.2" y1="82.9" x2="105.1" y2="72"/>
<text transform="matrix(1 0 0 1 93.864 91.9305)" class="st1 st5 st6">Gain</text>
<text transform="matrix(1 0 0 1 61.3203 64.8569)" class="st1 st5 st6">Mode</text>
<line class="st3" x1="134.9" y1="183" x2="104.9" y2="162"/>
<line class="st3" x1="74.8" y1="144" x2="104.9" y2="162"/>
<line class="st3" x1="15" y1="183" x2="44.9" y2="162"/>
<line class="st3" x1="74.8" y1="144" x2="44.9" y2="162"/>
<line class="st3" x1="14.9" y1="219" x2="39" y2="207"/>
<line class="st3" x1="135" y1="219" x2="111" y2="207"/>
<line class="st3" x1="74.9" y1="213" x2="111" y2="207"/>
<line class="st3" x1="38.9" y1="207" x2="74.9" y2="213"/>
<line class="st3" x1="14.9" y1="243" x2="17.9" y2="269.9"/>
<line class="st3" x1="134.9" y1="243" x2="132" y2="269.9"/>
<line class="st3" x1="74.9" y1="285" x2="132" y2="269.9"/>
<line class="st3" x1="17.9" y1="269.9" x2="74.9" y2="285"/>
<line class="st3" x1="75" y1="213.2" x2="75" y2="192.2"/>
<line class="st3" x1="75" y1="264.2" x2="75" y2="285"/>
<text transform="matrix(1 0 0 1 37.1005 150.046)" class="st1 st5 st8">XOR</text>
<text transform="matrix(1 0 0 1 6.3255 157.0461)" class="st1 st5 st8">AND</text>
<text transform="matrix(1 0 0 1 26.9437 153.6556)" class="st1 st5 st9">L</text>
<text transform="matrix(1 0 0 1 126.2302 157.046)" class="st1 st5 st8">AND</text>
<text transform="matrix(1 0 0 1 97.0852 150.0461)" class="st1 st5 st8">XOR</text>
<text transform="matrix(1 0 0 1 116.5905 153.6556)" class="st1 st5 st9">R</text>
<text transform="matrix(1 0 0 1 9.2378 315.416)"><tspan x="0" y="0" class="st1 st5 st9">L </tspan><tspan x="8.7" y="0" class="st1 st5 st8">AND</tspan><tspan x="26.2" y="0" class="st1 st5 st9"> R</tspan></text>
<text transform="matrix(1 0 0 1 106.1168 315.416)"><tspan x="0" y="0" class="st1 st5 st9">L </tspan><tspan x="8.7" y="0" class="st1 st5 st8">XOR</tspan><tspan x="24.5" y="0" class="st1 st5 st9"> R</tspan></text>
<g>
	<line class="st3" x1="111.5" y1="351" x2="105" y2="351"/>
	<line class="st3" x1="111" y1="345" x2="111" y2="351"/>
	<line class="st3" x1="117.5" y1="345.5" x2="111" y2="345.5"/>
	<line class="st3" x1="117" y1="351.5" x2="117" y2="345.5"/>
</g>
<g>
	<line class="st3" x1="132.5" y1="351" x2="129" y2="351"/>
	<line class="st3" x1="132" y1="345" x2="132" y2="351"/>
	<line class="st3" x1="135.5" y1="345.5" x2="132" y2="345.5"/>
	<line class="st3" x1="135" y1="351.5" x2="135" y2="345.5"/>
	<line class="st3" x1="138.5" y1="351" x2="135" y2="351"/>
	<line class="st3" x1="138" y1="345" x2="138" y2="351"/>
	<line class="st3" x1="141.5" y1="345.5" x2="137.5" y2="345.5"/>
	<line class="st3" x1="141" y1="351.5" x2="141" y2="345.5"/>
</g>
<g>
	<line class="st3" x1="39.5" y1="351" x2="33" y2="351"/>
	<line class="st3" x1="39" y1="345" x2="39" y2="351"/>
	<line class="st3" x1="45.5" y1="345.5" x2="39" y2="345.5"/>
	<line class="st3" x1="45" y1="351.5" x2="45" y2="345.5"/>
</g>
<g>
	<line class="st3" x1="12.5" y1="351" x2="9" y2="351"/>
	<line class="st3" x1="12" y1="345" x2="12" y2="351"/>
	<line class="st3" x1="15.5" y1="345.5" x2="12" y2="345.5"/>
	<line class="st3" x1="15" y1="351.5" x2="15" y2="345.5"/>
	<line class="st3" x1="18.5" y1="351" x2="15" y2="351"/>
	<line class="st3" x1="18" y1="345" x2="18" y2="351"/>
	<line class="st3" x1="21.5" y1="345.5" x2="17.5" y2="345.5"/>
	<line class="st3" x1="21" y1="351.5" x2="21" y2="345.5"/>
</g>
<text transform="matrix(1 0 0 1 53.308 56.2)" class="st1 st5 st8">XY</text>
<text transform="matrix(1 0 0 1 87.1683 56.2)" class="st1 st5 st8">XX</text>
<rect x="33.3" y="173.8" class="st4" width="83.7" height="18.5"/>
<rect x="33.3" y="245.8" class="st4" width="83.7" height="18.5"/>
</svg>
