<?xml version="1.0" encoding="utf-8"?>
<!-- Generator: Adobe Illustrator 23.0.1, SVG Export Plug-In . SVG Version: 6.00 Build 0)  -->
<svg version="1.1"
	 id="svg8" xmlns:cc="http://creativecommons.org/ns#" xmlns:dc="http://purl.org/dc/elements/1.1/" xmlns:inkscape="http://www.inkscape.org/namespaces/inkscape" xmlns:rdf="http://www.w3.org/1999/02/22-rdf-syntax-ns#" xmlns:sodipodi="http://sodipodi.sourceforge.net/DTD/sodipodi-0.dtd" xmlns:svg="http://www.w3.org/2000/svg"
	 xmlns="http://www.w3.org/2000/svg" xmlns:xlink="http://www.w3.org/1999/xlink" x="0px" y="0px" viewBox="0 0 120 380"
	 style="enable-background:new 0 0 120 380;" xml:space="preserve">
<style type="text/css">
	.st0{fill:#282828;}
	.st1{fill:#FFFFFF;}
	.st2{fill:none;stroke:#FFFFFF;}
	.st3{fill:#636466;stroke:#000000;stroke-width:0.25;}
	.st4{fill:#D4D7D9;stroke:#343B3F;stroke-width:0.1323;}
	.st5{fill:#929A9E;}
	.st6{fill:#DEE4E5;}
	.st7{fill:none;stroke:#636363;stroke-width:0.3;stroke-miterlimit:10;}
	.st8{fill:#111111;}
	.st9{fill:#4F0000;}
	.st10{font-family:'DSEG14Classic-Italic';}
	.st11{font-size:14px;}
	.st12{fill:#294C00;}
	.st13{fill:#58FF00;}
	.st14{fill:#013C49;}
	.st15{font-family:'AlteDIN1451Mittelschrift';}
	.st16{font-size:12px;}
	.st17{fill:#48CBFF;}
	.st18{fill:#FF0000;}
	.st19{fill:#00A1A7;}
	.st20{fill:#307DEE;}
	.st21{font-size:16px;}
</style>
<defs>
	
	
		<inkscape:path-effect  apply_no_weight="true" apply_with_weight="true" effect="bspline" helper_size="0" id="path-effect2273" is_visible="true" only_selected="false" steps="2" weight="33.333333">
		</inkscape:path-effect>
	
		<inkscape:path-effect  apply_no_weight="true" apply_with_weight="true" effect="bspline" helper_size="0" id="path-effect2269" is_visible="true" only_selected="false" steps="2" weight="33.333333">
		</inkscape:path-effect>
</defs>
<sodipodi:namedview  bordercolor="#666666" borderopacity="1.0" id="base" inkscape:current-layer="layer1" inkscape:cx="97.74301" inkscape:cy="312.39171" inkscape:document-units="mm" inkscape:pageopacity="0.0" inkscape:pageshadow="2" inkscape:snap-bbox="true" inkscape:snap-global="false" inkscape:window-height="987" inkscape:window-maximized="0" inkscape:window-width="1285" inkscape:window-x="840" inkscape:window-y="0" inkscape:zoom="13.890391" pagecolor="#ffffff" showgrid="true" units="px">
	<inkscape:grid  id="grid1092" type="xygrid"></inkscape:grid>
</sodipodi:namedview>
<g id="layer1" transform="translate(0,-196.45831)" inkscape:groupmode="layer" inkscape:label="Layer 1">
	<path id="rect2263" class="st0" d="M0,196.5h120v380H0V196.5z"/>
</g>
<g id="text55" transform="matrix(1 0 0 1 134.562 593.76)">
	<path id="path971" class="st1" d="M-92.8-220l-4.2-12.8h2l2.9,9.7l0,0l2.9-9.7h2l-4.2,12.8H-92.8z"/>
	<path id="path973" class="st1" d="M-81-220v-0.8l0,0c-0.2,0.3-0.4,0.5-0.8,0.7s-0.8,0.2-1.4,0.2c-1,0-1.8-0.3-2.3-0.8
		c-0.6-0.5-0.8-1.2-0.8-2s0.2-1.4,0.7-1.9s1.2-0.8,2.2-0.8h2.5v-1c0-0.8-0.6-1.2-1.8-1.2c-0.4,0-0.8,0-1.1,0.1
		c-0.3,0.1-0.5,0.3-0.6,0.6l-1.4-1.1c0.7-0.9,1.7-1.4,3-1.3c1.1,0,2,0.2,2.7,0.7s1,1.2,1,2.4v6.2L-81-220L-81-220z M-81-223.2v-0.7
		h-2.1c-1,0-1.6,0.4-1.5,1.1c0,0.3,0.1,0.6,0.4,0.8s0.7,0.4,1.3,0.4c0.8,0,1.3-0.1,1.6-0.3C-81.2-222-81-222.5-81-223.2z"/>
	<path id="path975" class="st1" d="M-77.2-222.2v-10.6h1.8v10.5c0,0.4,0.2,0.6,0.7,0.6h0.6v1.7h-0.8c-0.7,0-1.2-0.2-1.7-0.5
		C-77-220.8-77.2-221.4-77.2-222.2z"/>
	<path id="path977" class="st1" d="M-72.6-222.2v-10.6h1.8v10.5c0,0.4,0.2,0.6,0.7,0.6h0.6v1.7h-0.8c-0.7,0-1.2-0.2-1.7-0.5
		C-72.4-220.8-72.6-221.4-72.6-222.2z"/>
	<path id="path979" class="st1" d="M-60.9-223.9h-5.7c0,0.8,0.2,1.3,0.6,1.7s0.9,0.6,1.6,0.6c0.8,0,1.4-0.3,2-0.9l1.3,1.1
		c-0.5,0.5-1,0.9-1.5,1.1c-0.6,0.2-1.2,0.3-1.8,0.3c-0.9,0-1.8-0.3-2.7-0.9c-0.9-0.6-1.3-1.9-1.3-3.7s0.4-3,1.2-3.7
		c0.8-0.7,1.7-1,2.5-1c1,0,1.9,0.3,2.6,1c0.8,0.7,1.1,1.6,1.1,2.8v1.6L-60.9-223.9L-60.9-223.9z M-66.6-225.4h3.8
		c0-0.7-0.2-1.2-0.6-1.6c-0.4-0.4-0.8-0.5-1.3-0.5s-1,0.2-1.4,0.5C-66.4-226.6-66.6-226.1-66.6-225.4z"/>
	<path id="path981" class="st1" d="M-57-220.3l-3.3-8.8h1.9l2.2,6.4l0,0l2.2-6.4h1.9l-3.9,11c-0.3,0.7-0.6,1.2-1.1,1.4
		c-0.5,0.3-1,0.4-1.5,0.4h-0.6v-1.7h0.5c0.6,0,0.9-0.3,1.1-0.8L-57-220.3z"/>
</g>
<path id="line161" class="st2" d="M0,24.5h120"/>
<path id="line163" class="st2" d="M0,356.5h120"/>
<g>
	<path class="st1" d="M23.4,17.4l4.7-12.8h1.6l4.7,12.8h-2l-1-2.9h-4.9l-1,2.9H23.4z M27.1,12.8h3.7c-0.3-0.8-0.5-1.4-0.6-1.9
		s-0.3-0.8-0.4-1.2S29.6,9,29.5,8.6S29.2,7.8,29,7.1c-0.2,0.6-0.4,1.1-0.5,1.5s-0.2,0.7-0.4,1.1s-0.2,0.7-0.4,1.2
		S27.3,12.1,27.1,12.8z"/>
	<path class="st1" d="M36,17.5V8.3h1.8v1l0,0c0.6-0.7,1.4-1.1,2.4-1.1c0.6,0,1.1,0.1,1.5,0.3s0.7,0.5,1.1,0.8
		c0.7-0.8,1.7-1.2,2.9-1.2c0.7,0,1.4,0.3,2.1,0.8s1,1.3,1,2.4v6.1H47V12c0-0.6-0.2-1.1-0.5-1.4s-0.8-0.5-1.3-0.5s-1,0.2-1.3,0.5
		s-0.5,0.8-0.5,1.4v5.4h-1.8V12c0-0.6-0.2-1.1-0.5-1.4s-0.8-0.5-1.3-0.5s-1,0.2-1.3,0.5S38,11.4,38,12v5.4h-2V17.5z"/>
	<path class="st1" d="M56,17.5v-0.8l0,0c-0.2,0.3-0.4,0.5-0.8,0.7c-0.4,0.2-0.8,0.2-1.4,0.2c-1,0-1.8-0.3-2.3-0.8
		c-0.6-0.5-0.8-1.2-0.8-2s0.2-1.4,0.7-1.9s1.2-0.8,2.2-0.8H56v-1c0-0.8-0.6-1.2-1.8-1.2c-0.4,0-0.8,0-1.1,0.1s-0.5,0.3-0.6,0.6
		l-1.4-1.1c0.7-0.9,1.7-1.4,3-1.3c1.1,0,2,0.2,2.7,0.7s1,1.2,1,2.4v6.2C57.8,17.5,56,17.5,56,17.5z M56,14.3v-0.7h-2.1
		c-1,0-1.6,0.4-1.5,1.1c0,0.3,0.1,0.6,0.4,0.8c0.3,0.2,0.7,0.4,1.3,0.4c0.8,0,1.3-0.1,1.6-0.3C55.9,15.4,56,15,56,14.3z"/>
	<path class="st1" d="M59.8,15.2V4.6h1.8v10.5c0,0.4,0.2,0.6,0.7,0.6H63v1.7h-0.8c-0.7,0-1.2-0.2-1.7-0.5S59.8,16.1,59.8,15.2z"/>
	<path class="st1" d="M69.6,17.4v-0.9c-0.6,0.7-1.4,1.1-2.4,1.1c-0.6,0-1.1-0.1-1.5-0.4s-0.7-0.5-0.9-0.8c-0.3-0.3-0.4-0.7-0.5-1.1
		s-0.1-1.2-0.1-2.5s0-2.1,0.1-2.5s0.3-0.7,0.5-1.1c0.2-0.3,0.5-0.5,0.9-0.8S66.6,8,67.2,8c0.9,0,1.7,0.4,2.4,1.1v-1h1.8V17
		c0,1.4-0.4,2.4-1.2,3s-1.7,1-2.8,1c-0.6,0-1.2-0.1-1.7-0.4s-1-0.7-1.5-1.1l1.4-1.1c0.2,0.2,0.5,0.4,0.8,0.6s0.6,0.2,1,0.2
		c0.6,0,1.1-0.2,1.5-0.5S69.6,18.1,69.6,17.4z M66,12.9c0,0.7,0,1.2,0.1,1.5s0.1,0.5,0.3,0.7c0.1,0.2,0.3,0.3,0.5,0.5
		s0.5,0.2,0.9,0.2s0.7-0.1,0.9-0.2s0.4-0.3,0.5-0.5c0.2-0.2,0.3-0.4,0.3-0.7s0.1-0.7,0.1-1.5s0-1.2-0.1-1.5s-0.1-0.5-0.3-0.7
		c-0.1-0.2-0.3-0.3-0.5-0.5S68.2,10,67.8,10s-0.7,0.1-0.9,0.2s-0.4,0.3-0.5,0.5c-0.2,0.2-0.3,0.4-0.3,0.7S66,12.2,66,12.9z"/>
	<path class="st1" d="M78.6,17.5v-0.8l0,0c-0.2,0.3-0.4,0.5-0.8,0.7s-0.8,0.2-1.4,0.2c-1,0-1.8-0.3-2.3-0.8c-0.6-0.5-0.8-1.2-0.8-2
		s0.2-1.4,0.7-1.9s1.2-0.8,2.2-0.8h2.5v-1c0-0.8-0.6-1.2-1.8-1.2c-0.4,0-0.8,0-1.1,0.1c-0.3,0.1-0.5,0.3-0.6,0.6l-1.4-1.1
		c0.7-0.9,1.7-1.4,3-1.3c1.1,0,2,0.2,2.7,0.7s1,1.2,1,2.4v6.2C80.5,17.5,78.6,17.5,78.6,17.5z M78.6,14.3v-0.7h-2.1
		c-1,0-1.6,0.4-1.5,1.1c0,0.3,0.1,0.6,0.4,0.8s0.7,0.4,1.3,0.4c0.8,0,1.3-0.1,1.6-0.3C78.5,15.4,78.6,15,78.6,14.3z"/>
	<path class="st1" d="M82.6,17.5V8.3h1.8v1l0,0c0.6-0.7,1.4-1.1,2.4-1.1c0.6,0,1.1,0.1,1.5,0.3S89,9,89.4,9.3
		c0.7-0.8,1.7-1.2,2.9-1.2c0.7,0,1.4,0.3,2.1,0.8s1,1.3,1,2.4v6.1h-1.8V12c0-0.6-0.2-1.1-0.5-1.4s-0.8-0.5-1.3-0.5s-1,0.2-1.3,0.5
		S90,11.4,90,12v5.4h-2V12c0-0.6-0.2-1.1-0.5-1.4s-0.8-0.5-1.3-0.5s-1,0.2-1.3,0.5s-0.5,0.8-0.5,1.4v5.4h-1.8
		C82.6,17.4,82.6,17.5,82.6,17.5z"/>
</g>
<g id="layer1_1_" transform="translate(-89.945866,-120.5333)" inkscape:groupmode="layer" inkscape:label="Layer 1">
	<path id="path7255" inkscape:connector-curvature="0" class="st3" d="M104.6,169.5c-5.7,0-10.3-4.6-10.3-10.3s4.6-10.3,10.3-10.3
		s10.3,4.6,10.3,10.3S110.3,169.5,104.6,169.5"/>
	<path id="path7261" inkscape:connector-curvature="0" class="st4" d="M104.6,167.2c-4.4,0-8-3.6-8-8s3.6-8,8-8s8,3.6,8,8
		C112.6,163.6,109,167.2,104.6,167.2"/>
	<path id="path1187" inkscape:connector-curvature="0" class="st5" d="M104.6,167c-4.3,0-7.7-3.3-7.7-7.3s3.5-7.3,7.7-7.3
		s7.7,3.3,7.7,7.3S108.9,167,104.6,167"/>
	<path id="path861" inkscape:connector-curvature="0" class="st6" d="M109.7,160.2c0,2.8-2.3,5.2-5.1,5.2c-2.8,0-5.1-2.3-5.1-5.2
		c0-2.8,2.3-5.2,5.1-5.2S109.7,157.3,109.7,160.2"/>
	<path id="path7265" inkscape:connector-curvature="0" d="M109.7,159.2c0,2.8-2.3,5.1-5.1,5.1c-2.8,0-5.1-2.3-5.1-5.1
		s2.3-5.1,5.1-5.1S109.7,156.4,109.7,159.2"/>
</g>
<g id="layer1_2_" transform="translate(-89.945866,-120.5333)" inkscape:groupmode="layer" inkscape:label="Layer 1">
	<path id="path7255_1_" inkscape:connector-curvature="0" class="st3" d="M131.6,169.5c-5.7,0-10.3-4.6-10.3-10.3
		s4.6-10.3,10.3-10.3c5.7,0,10.3,4.6,10.3,10.3C141.9,164.9,137.3,169.5,131.6,169.5"/>
	<path id="path7261_1_" inkscape:connector-curvature="0" class="st4" d="M131.6,167.2c-4.4,0-8-3.6-8-8s3.6-8,8-8c4.4,0,8,3.6,8,8
		C139.6,163.6,136,167.2,131.6,167.2"/>
	<path id="path1187_1_" inkscape:connector-curvature="0" class="st5" d="M131.6,167c-4.3,0-7.7-3.3-7.7-7.3s3.5-7.3,7.7-7.3
		c4.3,0,7.7,3.3,7.7,7.3S135.9,167,131.6,167"/>
	<path id="path861_1_" inkscape:connector-curvature="0" class="st6" d="M136.7,160.2c0,2.8-2.3,5.2-5.1,5.2s-5.1-2.3-5.1-5.2
		c0-2.8,2.3-5.2,5.1-5.2S136.7,157.3,136.7,160.2"/>
	<path id="path7265_1_" inkscape:connector-curvature="0" d="M136.7,159.2c0,2.8-2.3,5.1-5.1,5.1s-5.1-2.3-5.1-5.1s2.3-5.1,5.1-5.1
		C134.4,154.1,136.7,156.4,136.7,159.2"/>
</g>
<g id="layer1_3_" transform="translate(-89.945866,-120.5333)" inkscape:groupmode="layer" inkscape:label="Layer 1">
	<path id="path7255_2_" inkscape:connector-curvature="0" class="st3" d="M195.3,169.5c-5.7,0-10.3-4.6-10.3-10.3
		s4.6-10.3,10.3-10.3s10.3,4.6,10.3,10.3S200.9,169.5,195.3,169.5"/>
	<path id="path7261_2_" inkscape:connector-curvature="0" class="st4" d="M195.3,167.2c-4.4,0-8-3.6-8-8s3.6-8,8-8s8,3.6,8,8
		C203.3,163.6,199.7,167.2,195.3,167.2"/>
	<path id="path1187_2_" inkscape:connector-curvature="0" class="st5" d="M195.3,167c-4.3,0-7.7-3.3-7.7-7.3s3.5-7.3,7.7-7.3
		c4.3,0,7.7,3.3,7.7,7.3S199.5,167,195.3,167"/>
	<path id="path861_2_" inkscape:connector-curvature="0" class="st6" d="M200.4,160.2c0,2.8-2.3,5.2-5.1,5.2s-5.1-2.3-5.1-5.2
		c0-2.8,2.3-5.2,5.1-5.2S200.4,157.3,200.4,160.2"/>
	<path id="path7265_2_" inkscape:connector-curvature="0" d="M200.4,159.2c0,2.8-2.3,5.1-5.1,5.1s-5.1-2.3-5.1-5.1s2.3-5.1,5.1-5.1
		C198.1,154.1,200.4,156.4,200.4,159.2"/>
</g>
<g id="layer1_4_" transform="translate(-89.945866,-120.5333)" inkscape:groupmode="layer" inkscape:label="Layer 1">
	<path id="path7255_3_" inkscape:connector-curvature="0" class="st3" d="M168.3,169.5c-5.7,0-10.3-4.6-10.3-10.3
		s4.6-10.3,10.3-10.3s10.3,4.6,10.3,10.3S173.9,169.5,168.3,169.5"/>
	<path id="path7261_3_" inkscape:connector-curvature="0" class="st4" d="M168.3,167.2c-4.4,0-8-3.6-8-8s3.6-8,8-8s8,3.6,8,8
		C176.3,163.6,172.7,167.2,168.3,167.2"/>
	<path id="path1187_3_" inkscape:connector-curvature="0" class="st5" d="M168.3,167c-4.3,0-7.7-3.3-7.7-7.3s3.5-7.3,7.7-7.3
		c4.3,0,7.7,3.3,7.7,7.3S172.5,167,168.3,167"/>
	<path id="path861_3_" inkscape:connector-curvature="0" class="st6" d="M173.4,160.2c0,2.8-2.3,5.2-5.1,5.2s-5.1-2.3-5.1-5.2
		c0-2.8,2.3-5.2,5.1-5.2S173.4,157.3,173.4,160.2"/>
	<path id="path7265_3_" inkscape:connector-curvature="0" d="M173.4,159.2c0,2.8-2.3,5.1-5.1,5.1s-5.1-2.3-5.1-5.1s2.3-5.1,5.1-5.1
		C171.1,154.1,173.4,156.4,173.4,159.2"/>
</g>
<g>
	<path class="st1" d="M12.4,59.5v-7.8h1.2v6.7h3.8v1.1H12.4z"/>
</g>
<g>
	<path class="st1" d="M39.1,59.5v-7.8h3.1c0.7,0,1.2,0.2,1.6,0.5c0.2,0.2,0.4,0.4,0.6,0.7c0.2,0.3,0.2,0.6,0.2,1
		c0,0.5-0.1,1-0.4,1.3c-0.3,0.4-0.6,0.7-1.1,0.8l1.8,3.5h-1.4l-1.6-3.3h-1.5v3.3H39.1z M40.3,52.8v2.4h1.8c0.4,0,0.8-0.1,1-0.4
		s0.3-0.5,0.3-0.9S43.3,53.2,43,53c-0.2-0.2-0.5-0.2-0.9-0.2H40.3z"/>
</g>
<g>
	<path class="st1" d="M30.6,61.9l-2.5-4.2l-2.5,4.2h-1.9l3.5-5.8l-3.3-5.5h2l2.3,3.9l2.3-3.9h2L29.1,56l3.5,5.8h-2
		C30.6,61.8,30.6,61.9,30.6,61.9z"/>
</g>
<g id="layer1_6_" transform="translate(-89.945866,-120.5333)" inkscape:groupmode="layer" inkscape:label="Layer 1">
	<path id="path7255_5_" inkscape:connector-curvature="0" class="st3" d="M136.4,459.9c-5.7,0-10.3-4.6-10.3-10.3
		c0-5.7,4.6-10.3,10.3-10.3c5.7,0,10.3,4.6,10.3,10.3C146.7,455.3,142.1,459.9,136.4,459.9"/>
	<path id="path7261_5_" inkscape:connector-curvature="0" class="st4" d="M136.4,457.6c-4.4,0-8-3.6-8-8s3.6-8,8-8c4.4,0,8,3.6,8,8
		C144.4,454,140.8,457.6,136.4,457.6"/>
	<path id="path1187_5_" inkscape:connector-curvature="0" class="st5" d="M136.4,457.4c-4.3,0-7.7-3.3-7.7-7.3s3.5-7.3,7.7-7.3
		s7.7,3.3,7.7,7.3S140.7,457.4,136.4,457.4"/>
	<path id="path861_5_" inkscape:connector-curvature="0" class="st6" d="M141.5,450.6c0,2.8-2.3,5.2-5.1,5.2s-5.1-2.3-5.1-5.2
		c0-2.8,2.3-5.2,5.1-5.2C139.2,445.4,141.5,447.7,141.5,450.6"/>
	<path id="path7265_5_" inkscape:connector-curvature="0" d="M141.5,449.6c0,2.8-2.3,5.1-5.1,5.1s-5.1-2.3-5.1-5.1
		c0-2.8,2.3-5.1,5.1-5.1C139.2,444.5,141.5,446.8,141.5,449.6"/>
</g>
<g id="layer1_5_" transform="translate(-89.945866,-120.5333)" inkscape:groupmode="layer" inkscape:label="Layer 1">
	<path id="path7255_4_" inkscape:connector-curvature="0" class="st3" d="M163.4,459.9c-5.7,0-10.3-4.6-10.3-10.3
		c0-5.7,4.6-10.3,10.3-10.3c5.7,0,10.3,4.6,10.3,10.3C173.7,455.3,169.1,459.9,163.4,459.9"/>
	<path id="path7261_4_" inkscape:connector-curvature="0" class="st4" d="M163.4,457.6c-4.4,0-8-3.6-8-8s3.6-8,8-8c4.4,0,8,3.6,8,8
		C171.4,454,167.8,457.6,163.4,457.6"/>
	<path id="path1187_4_" inkscape:connector-curvature="0" class="st5" d="M163.4,457.4c-4.3,0-7.7-3.3-7.7-7.3s3.5-7.3,7.7-7.3
		c4.3,0,7.7,3.3,7.7,7.3S167.7,457.4,163.4,457.4"/>
	<path id="path861_4_" inkscape:connector-curvature="0" class="st6" d="M168.5,450.6c0,2.8-2.3,5.2-5.1,5.2s-5.1-2.3-5.1-5.2
		c0-2.8,2.3-5.2,5.1-5.2S168.5,447.7,168.5,450.6"/>
	<path id="path7265_4_" inkscape:connector-curvature="0" d="M168.5,449.6c0,2.8-2.3,5.1-5.1,5.1s-5.1-2.3-5.1-5.1
		c0-2.8,2.3-5.1,5.1-5.1C166.2,444.5,168.5,446.8,168.5,449.6"/>
</g>
<g>
	<path class="st1" d="M44.2,349.9v-7.8h1.2v6.7h3.8v1.1H44.2z"/>
</g>
<g>
	<path class="st1" d="M70.9,349.9v-7.8H74c0.7,0,1.2,0.2,1.6,0.5c0.2,0.2,0.4,0.4,0.6,0.7c0.2,0.3,0.2,0.6,0.2,1
		c0,0.5-0.1,1-0.4,1.3c-0.3,0.4-0.6,0.7-1.1,0.8l1.8,3.5h-1.4l-1.6-3.3h-1.5v3.3H70.9z M72.1,343.2v2.4h1.8c0.4,0,0.8-0.1,1-0.4
		c0.2-0.3,0.3-0.5,0.3-0.9s-0.1-0.7-0.4-0.9c-0.2-0.2-0.5-0.2-0.9-0.2H72.1z"/>
</g>
<g>
	<path class="st1" d="M76.1,59.5v-7.8h1.2v6.7h3.8v1.1H76.1z"/>
</g>
<g>
	<path class="st1" d="M102.8,59.5v-7.8h3.1c0.7,0,1.2,0.2,1.6,0.5c0.2,0.2,0.4,0.4,0.6,0.7s0.2,0.6,0.2,1c0,0.5-0.1,1-0.4,1.3
		c-0.3,0.4-0.6,0.7-1.1,0.8l1.8,3.5h-1.4l-1.6-3.3H104v3.3H102.8z M104,52.8v2.4h1.8c0.4,0,0.8-0.1,1-0.4c0.2-0.2,0.3-0.5,0.3-0.9
		s-0.1-0.7-0.4-0.9c-0.2-0.2-0.5-0.2-0.9-0.2C105.8,52.8,104,52.8,104,52.8z"/>
</g>
<g>
	<path class="st1" d="M91.1,61.9v-4.7l-3.4-6.7h1.8l2.4,5.1l2.4-5.1h1.8l-3.4,6.7v4.7H91.1z"/>
</g>
<g id="layer1_7_" transform="translate(-50.235993,-87.554008)" inkscape:groupmode="layer" inkscape:label="Layer 1">
	<path id="path7705" inkscape:connector-curvature="0" d="M94.3,172.6c0,8.8-7.1,15.9-15.9,15.9s-15.9-7.1-15.9-15.9
		c0-8.8,7.1-15.9,15.9-15.9C87.2,156.7,94.3,163.8,94.3,172.6"/>
	<path id="path7707" inkscape:connector-curvature="0" class="st1" d="M87.3,172.6c0,4.9-4,9-9,9s-9-4-9-9c0-4.9,4-9,9-9
		S87.3,167.6,87.3,172.6"/>
	<path id="path7709" inkscape:connector-curvature="0" class="st7" d="M90.9,172.6c0,6.9-5.6,12.6-12.6,12.6
		c-6.9,0-12.6-5.6-12.6-12.6c0-6.9,5.6-12.6,12.6-12.6S90.9,165.6,90.9,172.6L90.9,172.6z"/>
	<path id="path7711" inkscape:connector-curvature="0" class="st1" d="M79.8,156.8c-0.5,0-1-0.1-1.4-0.1c-0.6,0-1.2,0-1.8,0.1v7.2
		h3.2C79.8,164,79.8,156.8,79.8,156.8z"/>
</g>
<g id="layer1_8_" transform="translate(-50.235993,-87.554008)" inkscape:groupmode="layer" inkscape:label="Layer 1">
	<path id="path7705_1_" inkscape:connector-curvature="0" d="M158,172.6c0,8.8-7.1,15.9-15.9,15.9c-8.8,0-15.9-7.1-15.9-15.9
		c0-8.8,7.1-15.9,15.9-15.9C150.9,156.7,158,163.8,158,172.6"/>
	<path id="path7707_1_" inkscape:connector-curvature="0" class="st1" d="M151.1,172.6c0,4.9-4,9-9,9c-4.9,0-9-4-9-9c0-4.9,4-9,9-9
		S151.1,167.6,151.1,172.6"/>
	<path id="path7709_1_" inkscape:connector-curvature="0" class="st7" d="M154.7,172.6c0,6.9-5.6,12.6-12.6,12.6
		c-6.9,0-12.6-5.6-12.6-12.6c0-6.9,5.6-12.6,12.6-12.6C149.1,160,154.7,165.6,154.7,172.6L154.7,172.6z"/>
	<path id="path7711_1_" inkscape:connector-curvature="0" class="st1" d="M143.6,156.8c-0.5,0-1-0.1-1.4-0.1c-0.6,0-1.2,0-1.8,0.1
		v7.2h3.2V156.8z"/>
</g>
<rect x="12.5" y="117.5" class="st8" width="95" height="20"/>
<text transform="matrix(1 0 0 1 14.3042 134.4998)" class="st9 st10 st11">~~~~~~~~</text>
<rect x="23.8" y="192.5" class="st8" width="72.5" height="20"/>
<text transform="matrix(1 0 0 1 25.7371 209.4998)" class="st12 st10 st11">~~~~~~</text>
<text transform="matrix(1 0 0 1 25.728 209.4998)" class="st13 st10 st11">CHANCE</text>
<rect x="23.8" y="252.5" class="st8" width="72.5" height="20"/>
<g>
	<text transform="matrix(1 0 0 1 25.7371 269.4998)" class="st14 st10 st11">~~~~~~</text>
</g>
<text transform="matrix(1 0 0 1 46.7927 88.4833)" class="st1 st15 st16">Drive</text>
<g id="layer1_9_" transform="translate(-48.278264,-91.604568)" inkscape:groupmode="layer" inkscape:label="Layer 1">
	<path id="path7635" inkscape:connector-curvature="0" d="M129.2,256.6c0,11.5-9.3,20.9-20.9,20.9c-11.5,0-20.9-9.3-20.9-20.9
		c0-11.5,9.3-20.9,20.9-20.9C119.8,235.7,129.2,245.1,129.2,256.6"/>
	<path id="path7637" inkscape:connector-curvature="0" class="st1" d="M122.3,256.6c0,7.8-6.3,14.1-14.1,14.1s-14.1-6.3-14.1-14.1
		c0-7.8,6.3-14.1,14.1-14.1S122.3,248.8,122.3,256.6"/>
	<path id="path7639" inkscape:connector-curvature="0" class="st1" d="M110.3,235.8c-0.7-0.1-1.3-0.1-2-0.1s-1.3,0-2,0.1v7.1h4
		V235.8z"/>
</g>
<text transform="matrix(1 0 0 1 46.3564 113.6987)" class="st1 st15 st16">Mode</text>
<text transform="matrix(1 0 0 1 25.728 269.4998)" class="st17 st10 st11">FAVOUR</text>
<text transform="matrix(1 0 0 1 14.304 134.5)" class="st18 st10 st11">FLIPFLOP</text>
<g id="layer1_10_" transform="translate(-47.888015,-88.626321)" inkscape:groupmode="layer" inkscape:label="Layer 1">
	<path id="path7689" inkscape:connector-curvature="0" d="M123.8,321.1c0,8.8-7.1,15.9-15.9,15.9c-8.8,0-15.9-7.1-15.9-15.9
		c0-8.8,7.1-15.9,15.9-15.9C116.7,305.3,123.8,312.4,123.8,321.1"/>
	<path id="path7691" inkscape:connector-curvature="0" class="st19" d="M116.8,321.1c0,4.9-4,9-9,9c-5,0-9-4-9-9c0-4.9,4-9,9-9
		C112.8,312.2,116.8,316.2,116.8,321.1"/>
	<path id="path7693" inkscape:connector-curvature="0" class="st7" d="M120.4,321.1c0,6.9-5.6,12.6-12.6,12.6
		c-6.9,0-12.6-5.6-12.6-12.6c0-6.9,5.6-12.6,12.6-12.6C114.8,308.6,120.4,314.2,120.4,321.1L120.4,321.1z"/>
	<path id="path7695" inkscape:connector-curvature="0" class="st19" d="M109.3,305.3c-0.5,0-1-0.1-1.4-0.1c-0.6,0-1.2,0-1.8,0.1v7.2
		h3.2V305.3z"/>
</g>
<g id="layer1_11_" transform="translate(-50.235993,-87.554008)" inkscape:groupmode="layer" inkscape:label="Layer 1">
	<path id="path7705_2_" inkscape:connector-curvature="0" d="M126,380.1c0,8.8-7.1,15.9-15.9,15.9c-8.8,0-15.9-7.1-15.9-15.9
		c0-8.8,7.1-15.9,15.9-15.9C118.8,364.2,126,371.3,126,380.1"/>
	<path id="path7707_2_" inkscape:connector-curvature="0" class="st20" d="M119,380.1c0,4.9-4,9-9,9c-5,0-9-4-9-9c0-4.9,4-9,9-9
		C115,371.1,119,375.1,119,380.1"/>
	<path id="path7709_2_" inkscape:connector-curvature="0" class="st7" d="M122.6,380.1c0,6.9-5.6,12.6-12.6,12.6
		c-6.9,0-12.6-5.6-12.6-12.6c0-6.9,5.6-12.6,12.6-12.6C117,367.5,122.6,373.1,122.6,380.1L122.6,380.1z"/>
	<path id="path7711_2_" inkscape:connector-curvature="0" class="st20" d="M111.5,364.3c-0.5,0-1-0.1-1.4-0.1c-0.6,0-1.2,0-1.8,0.1
		v7.2h3.2V364.3z"/>
</g>
<text transform="matrix(1 0 0 1 55.8517 351.6168)" class="st1 st15 st21">Z</text>
</svg>
